<?xml version="1.0" encoding="UTF-8" standalone="no"?>
<!-- Created with Inkscape (http://www.inkscape.org/) -->

<svg
   xmlns:dc="http://purl.org/dc/elements/1.1/"
   xmlns:cc="http://creativecommons.org/ns#"
   xmlns:rdf="http://www.w3.org/1999/02/22-rdf-syntax-ns#"
   xmlns:svg="http://www.w3.org/2000/svg"
   xmlns="http://www.w3.org/2000/svg"
   xmlns:sodipodi="http://sodipodi.sourceforge.net/DTD/sodipodi-0.dtd"
   xmlns:inkscape="http://www.inkscape.org/namespaces/inkscape"
   width="744.09448819"
   height="1052.3622047"
   id="svg3785"
   version="1.1"
   inkscape:version="0.47 r22583"
   sodipodi:docname="container_ha_space.svg">
  <defs
     id="defs3787"><inkscape:perspective
   sodipodi:type="inkscape:persp3d"
   inkscape:vp_x="0 : 526.18109 : 1"
   inkscape:vp_y="0 : 1000 : 0"
   inkscape:vp_z="744.09448 : 526.18109 : 1"
   inkscape:persp3d-origin="372.04724 : 350.78739 : 1"
   id="perspective3793" />
<marker
   inkscape:stockid="TriangleOutM"
   orient="auto"
   refY="0"
   refX="0"
   id="marker4433"
   style="overflow:visible">
  <path
     inkscape:connector-curvature="0"
     id="path4435"
     d="m 5.77,0 -8.65,5 0,-10 8.65,5 z"
     style="fill-rule:evenodd;stroke:#000000;stroke-width:1pt"
     transform="scale(0.4,0.4)" />
</marker>
<marker
   inkscape:stockid="TriangleOutM"
   orient="auto"
   refY="0"
   refX="0"
   id="TriangleOutM-17"
   style="overflow:visible">
  <path
     inkscape:connector-curvature="0"
     id="path21258-4"
     d="m 5.77,0 -8.65,5 0,-10 8.65,5 z"
     style="fill-rule:evenodd;stroke:#000000;stroke-width:1pt"
     transform="scale(0.4,0.4)" />
</marker>
<marker
   inkscape:stockid="TriangleOutM"
   orient="auto"
   refY="0"
   refX="0"
   id="TriangleOutM-89-5"
   style="overflow:visible">
  <path
     inkscape:connector-curvature="0"
     id="path21258-28-7"
     d="m 5.77,0 -8.65,5 0,-10 8.65,5 z"
     style="fill-rule:evenodd;stroke:#000000;stroke-width:1pt"
     transform="scale(0.4,0.4)" />
</marker>
<marker
   inkscape:stockid="TriangleOutM"
   orient="auto"
   refY="0"
   refX="0"
   id="TriangleOutM-89-4"
   style="overflow:visible">
  <path
     inkscape:connector-curvature="0"
     id="path21258-28-5"
     d="m 5.77,0 -8.65,5 0,-10 8.65,5 z"
     style="fill-rule:evenodd;stroke:#000000;stroke-width:1pt"
     transform="scale(0.4,0.4)" />
</marker>
<marker
   inkscape:stockid="TriangleOutM"
   orient="auto"
   refY="0"
   refX="0"
   id="TriangleOutM-89-8"
   style="overflow:visible">
  <path
     inkscape:connector-curvature="0"
     id="path21258-28-8"
     d="m 5.77,0 -8.65,5 0,-10 8.65,5 z"
     style="fill-rule:evenodd;stroke:#000000;stroke-width:1pt"
     transform="scale(0.4,0.4)" />
</marker>
<marker
   inkscape:stockid="TriangleOutM"
   orient="auto"
   refY="0"
   refX="0"
   id="TriangleOutM-89"
   style="overflow:visible">
  <path
     inkscape:connector-curvature="0"
     id="path21258-28"
     d="m 5.77,0 -8.65,5 0,-10 8.65,5 z"
     style="fill-rule:evenodd;stroke:#000000;stroke-width:1pt"
     transform="scale(0.4,0.4)" />
</marker>
<marker
   inkscape:stockid="TriangleOutM"
   orient="auto"
   refY="0"
   refX="0"
   id="TriangleOutM-0"
   style="overflow:visible">
  <path
     inkscape:connector-curvature="0"
     id="path21258-2"
     d="m 5.77,0 -8.65,5 0,-10 8.65,5 z"
     style="fill-rule:evenodd;stroke:#000000;stroke-width:1pt"
     transform="scale(0.4,0.4)" />
</marker>
<marker
   inkscape:stockid="TriangleOutM"
   orient="auto"
   refY="0"
   refX="0"
   id="TriangleOutM-2"
   style="overflow:visible">
  <path
     inkscape:connector-curvature="0"
     id="path21258-78"
     d="m 5.77,0 -8.65,5 0,-10 8.65,5 z"
     style="fill-rule:evenodd;stroke:#000000;stroke-width:1pt"
     transform="scale(0.4,0.4)" />
</marker>
<marker
   inkscape:stockid="TriangleOutM"
   orient="auto"
   refY="0"
   refX="0"
   id="TriangleOutM-3"
   style="overflow:visible">
  <path
     inkscape:connector-curvature="0"
     id="path21258-1"
     d="m 5.77,0 -8.65,5 0,-10 8.65,5 z"
     style="fill-rule:evenodd;stroke:#000000;stroke-width:1pt"
     transform="scale(0.4,0.4)" />
</marker>
<marker
   inkscape:stockid="TriangleOutM"
   orient="auto"
   refY="0"
   refX="0"
   id="TriangleOutM-7"
   style="overflow:visible">
  <path
     inkscape:connector-curvature="0"
     id="path21258-95"
     d="m 5.77,0 -8.65,5 0,-10 8.65,5 z"
     style="fill-rule:evenodd;stroke:#000000;stroke-width:1pt"
     transform="scale(0.4,0.4)" />
</marker>
<marker
   inkscape:stockid="TriangleOutM"
   orient="auto"
   refY="0"
   refX="0"
   id="TriangleOutM-8"
   style="overflow:visible">
  <path
     inkscape:connector-curvature="0"
     id="path21258-9"
     d="m 5.77,0 -8.65,5 0,-10 8.65,5 z"
     style="fill-rule:evenodd;stroke:#000000;stroke-width:1pt"
     transform="scale(0.4,0.4)" />
</marker>
<marker
   inkscape:stockid="TriangleOutM"
   orient="auto"
   refY="0"
   refX="0"
   id="marker3297"
   style="overflow:visible">
  <path
     inkscape:connector-curvature="0"
     id="path3299"
     d="m 5.77,0 -8.65,5 0,-10 8.65,5 z"
     style="fill-rule:evenodd;stroke:#000000;stroke-width:1pt"
     transform="scale(0.4,0.4)" />
</marker>
<marker
   inkscape:stockid="TriangleOutM"
   orient="auto"
   refY="0"
   refX="0"
   id="TriangleOutM-1"
   style="overflow:visible">
  <path
     inkscape:connector-curvature="0"
     id="path21258-7"
     d="m 5.77,0 -8.65,5 0,-10 8.65,5 z"
     style="fill-rule:evenodd;stroke:#000000;stroke-width:1pt"
     transform="scale(0.4,0.4)" />
</marker>
<marker
   inkscape:stockid="TriangleOutM"
   orient="auto"
   refY="0"
   refX="0"
   id="marker4476"
   style="overflow:visible">
  <path
     inkscape:connector-curvature="0"
     id="path4478"
     d="m 5.77,0 -8.65,5 0,-10 8.65,5 z"
     style="fill-rule:evenodd;stroke:#000000;stroke-width:1pt"
     transform="scale(0.4,0.4)" />
</marker>
<marker
   inkscape:stockid="TriangleOutM"
   orient="auto"
   refY="0"
   refX="0"
   id="TriangleOutM"
   style="overflow:visible">
  <path
     inkscape:connector-curvature="0"
     id="path21258"
     d="m 5.77,0 -8.65,5 0,-10 8.65,5 z"
     style="fill-rule:evenodd;stroke:#000000;stroke-width:1pt"
     transform="scale(0.4,0.4)" />
</marker>





<inkscape:perspective
   id="perspective3912"
   inkscape:persp3d-origin="262.5 : 143.66667 : 1"
   inkscape:vp_z="525 : 215.5 : 1"
   inkscape:vp_y="0 : 1000 : 0"
   inkscape:vp_x="0 : 215.5 : 1"
   sodipodi:type="inkscape:persp3d" />
</defs>
  <sodipodi:namedview
     id="base"
     pagecolor="#ffffff"
     bordercolor="#666666"
     borderopacity="1.0"
     inkscape:pageopacity="0.0"
     inkscape:pageshadow="2"
     inkscape:zoom="0.98994949"
     inkscape:cx="344.46072"
     inkscape:cy="576.38204"
     inkscape:document-units="px"
     inkscape:current-layer="layer1"
     showgrid="false"
     inkscape:window-width="1440"
     inkscape:window-height="838"
     inkscape:window-x="-8"
     inkscape:window-y="-8"
     inkscape:window-maximized="1" />
  <metadata
     id="metadata3790">
    <rdf:RDF>
      <cc:Work
         rdf:about="">
        <dc:format>image/svg+xml</dc:format>
        <dc:type
           rdf:resource="http://purl.org/dc/dcmitype/StillImage" />
        <dc:title></dc:title>
      </cc:Work>
    </rdf:RDF>
  </metadata>
  <g
     inkscape:label="Layer 1"
     inkscape:groupmode="layer"
     id="layer1">
    <g
       id="g3946"
       transform="translate(46.689825,252.19318)">
      <g
         transform="translate(0,-194)"
         id="Layer_3">
	
	
	
	
	
	
	
	
	

	
	
	
	
	
	
	
	
	

	
	

	
	
	
	
	

	
	
	
</g>
      <g
         transform="translate(0,-194)"
         inkscape:label="Graphics"
         id="layer1-9"><line
   style="fill:none"
   id="line190"
   y2="205.2693"
   x2="618.39557"
   y1="205.2693"
   x1="310.49554"
   class="st10" />
<rect
   style="fill:none"
   id="rect236"
   height="61.135246"
   width="198.8717"
   class="st10"
   y="183.01062"
   x="277.54263" />
<rect
   style="fill:none"
   id="rect244"
   height="32.504414"
   width="203.47411"
   class="st10"
   y="321.1123"
   x="277.54263" />
<rect
   style="fill:none"
   id="rect278"
   height="25.76775"
   width="69.520325"
   class="st10"
   y="258.12537"
   x="312.16739" />


<rect
   x="101.1128"
   y="430.867"
   class="st10"
   width="283.89481"
   height="153.38022"
   id="rect296"
   style="fill:none" />



<g
   transform="matrix(2.4769337,0,0,1.5265573,-1274.1881,-112.08106)"
   id="Layer_1"><rect
   mask="none"
   clip-path="none"
   style="fill:#8c9ba5;fill-opacity:1;stroke:#8c9ba5;stroke-width:1.54279244;stroke-linejoin:round;stroke-miterlimit:10;stroke-opacity:1"
   id="rect11-6"
   height="195.2104"
   width="145.34099"
   class="st2"
   y="273.2168"
   x="570.94305" />
<rect
   mask="none"
   clip-path="none"
   style="fill:#dfe6eb;fill-opacity:1;stroke:#dfe6eb;stroke-width:1.5427922;stroke-linejoin:round;stroke-miterlimit:10;stroke-opacity:1"
   id="rect11"
   height="182.10899"
   width="145.34099"
   class="st2"
   y="292.86884"
   x="566.90582" />
<rect
   transform="matrix(0.41282894,0,0,0.65506876,406.93533,244.12415)"
   y="267.49133"
   x="-140.41684"
   height="136.72166"
   width="183.83521"
   id="rect5721"
   style="fill:#5aaafa;fill-opacity:0;stroke:#5aaafa;stroke-width:1.4833684;stroke-linejoin:miter;stroke-miterlimit:4;stroke-opacity:0;stroke-dasharray:4.45010507, 4.45010507;stroke-dashoffset:0" />
<path
   transform="matrix(0.30728583,0,0,0.51563677,499.50825,137.63446)"
   d="m 196.76834,285.50531 c 0,17.60183 -26.47021,31.87093 -59.12288,31.87093 -32.65266,0 -59.122881,-14.2691 -59.122881,-31.87093 0,-17.60183 26.470221,-31.87093 59.122881,-31.87093 32.65267,0 59.12288,14.2691 59.12288,31.87093 z"
   sodipodi:ry="31.87093"
   sodipodi:rx="59.122883"
   sodipodi:cy="285.50531"
   sodipodi:cx="137.64546"
   id="path5816-0"
   style="fill:#7cc7ff;fill-opacity:1;stroke:none;display:inline"
   sodipodi:type="arc" />
<rect
   style="fill:#dfe6eb;fill-opacity:1;display:inline"
   id="rect234-2-9"
   height="26.202751"
   width="32.297997"
   class="st18"
   y="321.89703"
   x="526.80475">
  <title
     id="title3305-1-48">Controller node(s)</title>
</rect>
<text
   sodipodi:linespacing="125%"
   style="font-size:6.09214211px;font-style:normal;font-variant:normal;font-weight:normal;font-stretch:normal;text-align:start;line-height:125%;writing-mode:lr-tb;text-anchor:start;fill:#152934;fill-opacity:1;stroke:none;display:inline;font-family:Helvetica Neue for IBM;-inkscape-font-specification:Helvetica Neue for IBM"
   id="text230-1-6-8"
   class="st11 st12 st13"
   transform="scale(0.78151297,1.2795693)"
   x="673.33649"
   y="260.55298">
  <tspan
     id="tspan4088-8-2"
     style="fill:#152934;fill-opacity:1;stroke:none;-inkscape-font-specification:SimHei;font-family:SimHei;font-size:6.01689059">具有下列项目的</tspan>
</text>




<text
   sodipodi:linespacing="125%"
   style="font-size:6.09214211px;font-style:normal;font-variant:normal;font-weight:normal;font-stretch:normal;text-align:start;line-height:125%;writing-mode:lr-tb;text-anchor:start;fill:#152934;fill-opacity:1;stroke:none;display:inline;font-family:Helvetica Neue for IBM;-inkscape-font-specification:Helvetica Neue for IBM"
   id="text230-1-6-6-4"
   class="st11 st12 st13"
   transform="scale(0.78151297,1.2795693)"
   x="679.935"
   y="224.78535">
  <tspan
     id="tspan4088-8-1-5"
     style="fill:#152934;fill-opacity:1;stroke:none">GoRouter</tspan>
</text>




<text
   sodipodi:linespacing="125%"
   style="font-size:6.09214211px;font-style:normal;font-variant:normal;font-weight:normal;font-stretch:normal;text-align:start;line-height:125%;writing-mode:lr-tb;text-anchor:start;fill:#152934;fill-opacity:1;stroke:none;display:inline;font-family:Helvetica Neue for IBM;-inkscape-font-specification:Helvetica Neue for IBM"
   id="text230-1"
   class="st11 st12 st13"
   transform="scale(0.78151297,1.2795693)"
   x="683.67004"
   y="187.83907">
  <tspan
     id="tspan4088-4"
     style="fill:#152934;fill-opacity:1;stroke:none;font-family:SimHei;-inkscape-font-specification:SimHei">因特网</tspan>
</text>




<path
   inkscape:connector-curvature="0"
   d="m 552.96756,225.98982 c -0.47175,-7.36448 -4.2827,-13.10528 -8.91533,-13.10528 -4.44489,0 -8.12477,5.29019 -8.83281,12.22344 -0.38842,-0.0961 -0.78291,-0.16112 -1.18769,-0.16112 -4.36893,0 -7.91091,5.78647 -7.91091,12.92391 0,7.13745 3.54198,12.92392 7.91091,12.92392 h 15.82183 c 4.36894,0 7.91092,-5.78647 7.91092,-12.92392 0,-5.33068 -1.97667,-9.90531 -4.79692,-11.88095 z m -3.114,22.22009 h -15.82183 c -3.4895,0 -6.32873,-4.6384 -6.32873,-10.33914 0,-5.70073 2.83923,-10.33913 6.32873,-10.33913 0.28401,0 0.58647,0.0422 0.95116,0.13226 l 1.54052,0.38039 0.25658,-2.51068 c 0.59569,-5.83171 3.65405,-10.06428 7.27224,-10.06428 3.79143,0 6.94762,4.63882 7.34159,10.78931 l 0.0968,1.50908 0.85332,0.59795 c 2.33188,1.63315 3.83838,5.36428 3.83838,9.5051 0,5.70074 -2.83923,10.33914 -6.32874,10.33914 z"
   id="path3-9"
   style="fill:#5aaafa;fill-opacity:1;display:inline" />
<path
   style="fill:#152934;fill-opacity:1;stroke:#152934;stroke-width:0.77139622;stroke-linecap:butt;stroke-linejoin:miter;stroke-miterlimit:0;stroke-opacity:1;stroke-dasharray:none;marker-end:url(#TriangleOutM);display:inline"
   d="m 541.66327,250.88244 -0.21438,17.03178"
   id="path42355-8-2-0-5"
   inkscape:connector-curvature="0" />
<text
   sodipodi:linespacing="125%"
   style="font-size:6.09214211px;font-style:normal;font-variant:normal;font-weight:normal;font-stretch:normal;text-align:start;line-height:125%;writing-mode:lr-tb;text-anchor:start;fill:#152934;fill-opacity:1;stroke:none;display:inline;font-family:Helvetica Neue for IBM;-inkscape-font-specification:Helvetica Neue for IBM"
   id="text230-1-6-8-1"
   class="st11 st12 st13"
   transform="scale(0.78151297,1.2795693)"
   x="673.98206"
   y="267.07034">
  <tspan
     id="tspan4088-8-2-7"
     style="fill:#152934;fill-opacity:1;stroke:none;-inkscape-font-specification:SimHei;font-family:SimHei;font-size:6.01689059">路由器防火墙</tspan>
</text>




<path
   style="fill:#152934;fill-opacity:1;stroke:#152934;stroke-width:0.77139622;stroke-linecap:butt;stroke-linejoin:miter;stroke-miterlimit:0;stroke-opacity:1;stroke-dasharray:none;marker-end:url(#TriangleOutM);display:inline"
   d="m 541.98914,301.84776 -0.21438,17.03179"
   id="path42355-8-2-0-5-4"
   inkscape:connector-curvature="0" />
</g>
<g
   id="g264"
   transform="matrix(9.8884421,0,0,10.36364,-5580.6933,-3961.8196)"
   style="display:inline">
  <path
     inkscape:connector-curvature="0"
     class="st21"
     d="m 612.30001,436.9 c 0,1.4 -1.68393,2.6 -3.98018,2.6 H 582.9079 c -2.14317,0 -3.98018,-1.2 -3.98018,-2.6 v -16.8 c 0,-1.4 1.68392,-2.6 3.98018,-2.6 h 25.41193 c 2.14317,0 3.98018,1.2 3.98018,2.6 v 16.8 z"
     id="path266"
     style="fill:#7cc7ff;stroke:#7cc7ff;stroke-width:0.09878249;stroke-miterlimit:10;stroke-opacity:1" />
</g>
<path
   style="fill:#dfe6eb;fill-opacity:1;stroke:none"
   id="path288-1"
   d="m 295.47452,526.53809 c 0,2.22726 -5.1607,4.13636 -12.198,4.13636 h -77.87933 c -6.56815,0 -12.19799,-1.9091 -12.19799,-4.13636 v -26.72728 c 0,-2.22728 5.16069,-4.13636 12.19799,-4.13636 h 77.87933 c 6.56815,0 12.198,1.90908 12.198,4.13636 v 26.72728 z"
   class="st25"
   inkscape:connector-curvature="0" />
<path
   style="fill:#f4f8fc;fill-opacity:1;stroke:#325c80;stroke-width:1.00000012;stroke-miterlimit:10"
   id="path288-1-1"
   d="m 227.04821,526.31774 c 0,0.8598 -0.68579,1.59679 -1.62095,1.59679 h -10.34911 c -0.87281,0 -1.62094,-0.73699 -1.62094,-1.59679 v -10.31775 c 0,-0.85981 0.68579,-1.59679 1.62094,-1.59679 h 10.34911 c 0.87282,0 1.62095,0.73698 1.62095,1.59679 v 10.31775 z"
   class="st25"
   inkscape:connector-curvature="0" />
<path
   style="fill:#f4f8fc;fill-opacity:1;stroke:#325c80;stroke-width:1.00000012;stroke-miterlimit:10"
   id="path288-1-1-7"
   d="m 243.5241,526.31775 c 0,0.8598 -0.68579,1.59679 -1.62095,1.59679 h -10.34911 c -0.87281,0 -1.62094,-0.73699 -1.62094,-1.59679 V 516 c 0,-0.85981 0.68579,-1.59679 1.62094,-1.59679 h 10.34911 c 0.87282,0 1.62095,0.73698 1.62095,1.59679 v 10.31775 z"
   class="st25"
   inkscape:connector-curvature="0" />
<path
   style="fill:#f4f8fc;fill-opacity:1;stroke:#325c80;stroke-width:1.00000012;stroke-miterlimit:10"
   id="path288-1-1-7-4"
   d="m 260,526.31775 c 0,0.8598 -0.68579,1.59679 -1.62095,1.59679 h -10.34911 c -0.87281,0 -1.62094,-0.73699 -1.62094,-1.59679 V 516 c 0,-0.85981 0.68579,-1.59679 1.62094,-1.59679 h 10.34911 c 0.87282,0 1.62095,0.73698 1.62095,1.59679 v 10.31775 z"
   class="st25"
   inkscape:connector-curvature="0" />
<path
   style="fill:#dfe6eb;fill-opacity:1;stroke:none"
   id="path288-1-9-2"
   d="m 274,570.38833 c 0,2.19296 -3.05873,4.07266 -7.22973,4.07266 h -46.15889 c -3.89293,0 -7.22972,-1.8797 -7.22972,-4.07266 v -26.31568 c 0,-2.19297 3.05872,-4.07265 7.22972,-4.07265 h 46.15889 C 270.6632,540 274,541.87968 274,544.07265 v 26.31568 z"
   class="st25"
   inkscape:connector-curvature="0" />
<path
   transform="matrix(1.102055,0,0,0.61277194,231.65491,284.98105)"
   d="m 196.76834,285.50531 c 0,17.60183 -26.47021,31.87093 -59.12288,31.87093 -32.65266,0 -59.122881,-14.2691 -59.122881,-31.87093 0,-17.60183 26.470221,-31.87093 59.122881,-31.87093 32.65267,0 59.12288,14.2691 59.12288,31.87093 z"
   sodipodi:ry="31.87093"
   sodipodi:rx="59.122883"
   sodipodi:cy="285.50531"
   sodipodi:cx="137.64546"
   id="path5816-7"
   style="fill:#dfe6eb;fill-opacity:1;stroke:none"
   sodipodi:type="arc" />
<path
   transform="matrix(1.102055,0,0,0.61277194,91.15046,285.05036)"
   d="m 196.76834,285.50531 c 0,17.60183 -26.47021,31.87093 -59.12288,31.87093 -32.65266,0 -59.122881,-14.2691 -59.122881,-31.87093 0,-17.60183 26.470221,-31.87093 59.122881,-31.87093 32.65267,0 59.12288,14.2691 59.12288,31.87093 z"
   sodipodi:ry="31.87093"
   sodipodi:rx="59.122883"
   sodipodi:cy="285.50531"
   sodipodi:cx="137.64546"
   id="path5816-7-0"
   style="fill:#dfe6eb;fill-opacity:1;stroke:none"
   sodipodi:type="arc" />
<path
   style="fill:#f4f8fc;fill-opacity:1;stroke:#325c80;stroke-width:1.00000012;stroke-miterlimit:10"
   id="path288-1-1-7-4-5"
   d="m 276,526.31775 c 0,0.8598 -0.68579,1.59679 -1.62095,1.59679 h -10.34911 c -0.87281,0 -1.62094,-0.73699 -1.62094,-1.59679 V 516 c 0,-0.85981 0.68579,-1.59679 1.62094,-1.59679 h 10.34911 c 0.87282,0 1.62095,0.73698 1.62095,1.59679 v 10.31775 z"
   class="st25"
   inkscape:connector-curvature="0" />
<path
   style="fill:#dfe6eb;fill-opacity:1;stroke:none"
   id="path288-1-17"
   d="m 434,525 c 0,2.22726 -5.1607,4.13636 -12.198,4.13636 h -77.87933 c -6.56815,0 -12.19799,-1.9091 -12.19799,-4.13636 v -26.72728 c 0,-2.22728 5.16069,-4.13636 12.19799,-4.13636 H 421.802 c 6.56815,0 12.198,1.90908 12.198,4.13636 V 525 z"
   class="st25"
   inkscape:connector-curvature="0" />
<path
   style="fill:#f4f8fc;fill-opacity:1;stroke:#325c80;stroke-width:1.00000012;stroke-miterlimit:10"
   id="path288-1-1-1"
   d="m 365.57369,524.77965 c 0,0.8598 -0.68579,1.59679 -1.62095,1.59679 h -10.34911 c -0.87281,0 -1.62094,-0.73699 -1.62094,-1.59679 V 514.4619 c 0,-0.85981 0.68579,-1.59679 1.62094,-1.59679 h 10.34911 c 0.87282,0 1.62095,0.73698 1.62095,1.59679 v 10.31775 z"
   class="st25"
   inkscape:connector-curvature="0" />
<path
   style="fill:#f4f8fc;fill-opacity:1;stroke:#325c80;stroke-width:1.00000012;stroke-miterlimit:10"
   id="path288-1-1-7-1"
   d="m 382.04958,524.77966 c 0,0.8598 -0.68579,1.59679 -1.62095,1.59679 h -10.34911 c -0.87281,0 -1.62094,-0.73699 -1.62094,-1.59679 v -10.31775 c 0,-0.85981 0.68579,-1.59679 1.62094,-1.59679 h 10.34911 c 0.87282,0 1.62095,0.73698 1.62095,1.59679 v 10.31775 z"
   class="st25"
   inkscape:connector-curvature="0" />
<path
   style="fill:#f4f8fc;fill-opacity:1;stroke:#325c80;stroke-width:1.00000012;stroke-miterlimit:10"
   id="path288-1-1-7-4-52"
   d="m 398.52548,524.77966 c 0,0.8598 -0.68579,1.59679 -1.62095,1.59679 h -10.34911 c -0.87281,0 -1.62094,-0.73699 -1.62094,-1.59679 v -10.31775 c 0,-0.85981 0.68579,-1.59679 1.62094,-1.59679 h 10.34911 c 0.87282,0 1.62095,0.73698 1.62095,1.59679 v 10.31775 z"
   class="st25"
   inkscape:connector-curvature="0" />
<path
   style="fill:#f4f8fc;fill-opacity:1;stroke:#325c80;stroke-width:1.00000012;stroke-miterlimit:10"
   id="path288-1-1-7-4-5-6"
   d="m 414.52548,524.77966 c 0,0.8598 -0.68579,1.59679 -1.62095,1.59679 h -10.34911 c -0.87281,0 -1.62094,-0.73699 -1.62094,-1.59679 v -10.31775 c 0,-0.85981 0.68579,-1.59679 1.62094,-1.59679 h 10.34911 c 0.87282,0 1.62095,0.73698 1.62095,1.59679 v 10.31775 z"
   class="st25"
   inkscape:connector-curvature="0" />
<text
   sodipodi:linespacing="125%"
   style="font-size:11.84632874px;font-style:normal;font-variant:normal;font-weight:normal;font-stretch:normal;text-align:start;line-height:125%;writing-mode:lr-tb;text-anchor:start;fill:#152934;fill-opacity:1;stroke:none;display:inline;font-family:Helvetica Neue for IBM;-inkscape-font-specification:Helvetica Neue for IBM"
   id="text230-1-7-4-0-9-5-1"
   class="st11 st12 st13"
   transform="scale(0.99548983,1.0045306)"
   x="362.90063"
   y="506.75659">
  <tspan
     id="tspan3268-5-4"
     style="font-weight:normal;fill:#152934;fill-opacity:1;stroke:none;-inkscape-font-specification:Helvetica Neue for IBM"><tspan
   style="-inkscape-font-specification:SimHei;font-family:SimHei"
   id="tspan4044">容器组</tspan>
 2</tspan>
</text>





<path
   inkscape:connector-curvature="0"
   id="path14485-0-3-2"
   d="m 384.21513,540.00001 0.0116,-10.84844"
   style="fill:#152934;fill-opacity:1;stroke:#152934;stroke-width:1.50000036;stroke-linecap:butt;stroke-linejoin:miter;stroke-miterlimit:4;stroke-opacity:1;stroke-dasharray:none;stroke-dashoffset:0;marker-end:none" />
<path
   style="fill:#dfe6eb;fill-opacity:1;stroke:none"
   id="path288-1-9-2-1"
   d="M 415.22973,570.92734 C 415.22973,573.1203 412.171,575 408,575 h -46.15889 c -3.89293,0 -7.22972,-1.8797 -7.22972,-4.07266 v -26.31568 c 0,-2.19297 3.05872,-4.07265 7.22972,-4.07265 H 408 c 3.89293,0 7.22973,1.87968 7.22973,4.07265 v 26.31568 z"
   class="st25"
   inkscape:connector-curvature="0" />
<text
   sodipodi:linespacing="125%"
   style="font-size:11.84632874px;font-style:normal;font-variant:normal;font-weight:normal;font-stretch:normal;text-align:start;line-height:125%;writing-mode:lr-tb;text-anchor:start;fill:#152934;fill-opacity:1;stroke:none;display:inline;font-family:Helvetica Neue for IBM;-inkscape-font-specification:Helvetica Neue for IBM"
   id="text230-1-7-4-0-9-5-4-3-6"
   class="st11 st12 st13"
   transform="scale(0.99548983,1.0045306)"
   x="375.82065"
   y="557.87659">
  <tspan
     id="tspan3268-5-8-2-8"
     style="font-weight:normal;fill:#152934;fill-opacity:1;stroke:none;-inkscape-font-specification:Helvetica Neue for IBM"><tspan
   style="-inkscape-font-specification:SimHei;font-family:SimHei"
   id="tspan4046">卷</tspan>
 2</tspan>
</text>





<rect
   y="404.39862"
   x="164.34966"
   height="178.32169"
   width="313.98599"
   id="rect4954"
   style="opacity:0;fill:none;stroke:#283f5e;stroke-width:1.5;stroke-linejoin:miter;stroke-miterlimit:4;stroke-opacity:1;stroke-dasharray:none;stroke-dashoffset:0" />
<rect
   y="404.39859"
   x="164.34964"
   height="180.41957"
   width="289.65036"
   id="rect4956"
   style="opacity:0.98876403;fill:none;stroke:#a6acb5;stroke-width:1.5;stroke-linejoin:miter;stroke-miterlimit:4;stroke-opacity:1;stroke-dasharray:11.99999973, 1.49999996;stroke-dashoffset:0" />
<rect
   style="fill:#dfe6eb;fill-opacity:1"
   id="rect234-2-7"
   height="20"
   width="135"
   class="st18"
   y="394.34964"
   x="178.0979">
  <title
     id="title3305-1-4">Controller node(s)</title>
</rect>
</g>
      <g
         transform="translate(0,-194)"
         style="display:inline"
         inkscape:label="Text"
         id="layer2">





























<text
   sodipodi:linespacing="125%"
   style="font-size:11.84632874px;font-style:normal;font-variant:normal;font-weight:normal;font-stretch:normal;text-align:start;line-height:125%;writing-mode:lr-tb;text-anchor:start;fill:#152934;fill-opacity:1;stroke:none;display:inline;font-family:Helvetica Neue for IBM;-inkscape-font-specification:Helvetica Neue for IBM"
   id="text230-1-1"
   class="st11 st12 st13"
   transform="scale(0.99548983,1.0045306)"
   x="415.87598"
   y="323.53412">
  <tspan
     style="-inkscape-font-specification:SimHei;font-family:SimHei"
     id="tspan4028">区域</tspan>
</text>







<rect
   style="fill:none"
   id="rect180"
   height="56.900002"
   width="93.300003"
   class="st10"
   y="301.50787"
   x="256.10675" />
<rect
   x="170.88138"
   y="306.28055"
   class="st10"
   width="73.314255"
   height="60.247505"
   id="rect274"
   style="fill:none" />
<rect
   style="fill:none"
   id="rect278-7"
   height="25.76775"
   width="69.520325"
   class="st10"
   y="270.25781"
   x="271.61804" />
<text
   sodipodi:linespacing="125%"
   style="font-size:11.84632874px;font-style:normal;font-variant:normal;font-weight:normal;font-stretch:normal;text-align:start;line-height:125%;writing-mode:lr-tb;text-anchor:start;fill:#152934;fill-opacity:1;stroke:none;display:inline;font-family:Helvetica Neue for IBM;-inkscape-font-specification:Helvetica Neue for IBM"
   id="text230-1-7-4-8-7"
   class="st11 st12 st13"
   transform="scale(0.99548984,1.0045306)"
   x="415.87567"
   y="353.39883">
  <tspan
     style="font-family:SimHei;-inkscape-font-specification:SimHei"
     id="tspan4030">组织</tspan>
</text>







<text
   sodipodi:linespacing="125%"
   style="font-size:11.84632874px;font-style:normal;font-variant:normal;font-weight:normal;font-stretch:normal;text-align:start;line-height:125%;writing-mode:lr-tb;text-anchor:start;fill:#152934;fill-opacity:1;stroke:none;display:inline;font-family:Helvetica Neue for IBM;-inkscape-font-specification:Helvetica Neue for IBM"
   id="text230-1-7-4-0-8-1"
   class="st11 st12 st13"
   transform="scale(0.99548984,1.0045306)"
   x="415.87567"
   y="387.24551">
  <tspan
     style="font-family:SimHei;-inkscape-font-specification:SimHei"
     id="tspan4032">空间</tspan>
</text>








<rect
   style="fill:none"
   id="rect180-7"
   height="56.900002"
   width="93.300003"
   class="st10"
   y="680.70172"
   x="50.37252" />
<rect
   x="-31.157692"
   y="723.34998"
   class="st10"
   width="73.314255"
   height="60.247505"
   id="rect274-8"
   style="fill:none" />




<rect
   style="fill:none"
   id="rect180-7-5"
   height="56.900002"
   width="93.300003"
   class="st10"
   y="768.46222"
   x="49.296349" />
<rect
   x="642.2019"
   y="448.33585"
   class="st10"
   width="73.314255"
   height="60.247505"
   id="rect274-8-1"
   style="fill:none" />










<text
   sodipodi:linespacing="125%"
   style="font-size:11.84632874px;font-style:normal;font-variant:normal;font-weight:normal;font-stretch:normal;text-align:start;line-height:125%;writing-mode:lr-tb;text-anchor:start;fill:#152934;fill-opacity:1;stroke:none;display:inline;font-family:Helvetica Neue for IBM;-inkscape-font-specification:Helvetica Neue for IBM"
   id="text230-1-7-4-0-9-2-1-7"
   class="st11 st12 st13"
   transform="scale(0.99548984,1.0045306)"
   x="182.72098"
   y="458.95996">
  <tspan
     style="-inkscape-font-specification:SimHei;font-family:SimHei"
     id="tspan4034">下列项目的负载均衡器</tspan>
</text>






<text
   id="text3258"
   sodipodi:linespacing="125%"
   style="font-size:11.84632874px;font-style:normal;font-variant:normal;font-weight:normal;font-stretch:normal;text-align:start;line-height:125%;writing-mode:lr-tb;text-anchor:start;fill:#152934;fill-opacity:1;stroke:none;display:inline;font-family:Helvetica Neue for IBM;-inkscape-font-specification:Helvetica Neue for IBM"
   class="st11 st12 st13"
   transform="scale(0.99548984,1.0045306)"
   x="219.96521"
   y="469.99548"><tspan
   style="font-family:SimHei;-inkscape-font-specification:SimHei"
   id="tspan4036">容器组</tspan>
 1</text>






<text
   sodipodi:linespacing="125%"
   style="font-size:11.84632874px;font-style:normal;font-variant:normal;font-weight:normal;font-stretch:normal;text-align:start;line-height:125%;writing-mode:lr-tb;text-anchor:start;fill:#152934;fill-opacity:1;stroke:none;display:inline;font-family:Helvetica Neue for IBM;-inkscape-font-specification:Helvetica Neue for IBM"
   id="text230-1-7-4-0-9-2-1-7-1"
   class="st11 st12 st13"
   transform="scale(0.99548984,1.0045306)"
   x="325.55618"
   y="460.3067">
  <tspan
     style="font-family:SimHei;-inkscape-font-specification:SimHei"
     id="tspan4038">下列项目的负载均衡器</tspan>
</text>






<text
   id="text3258-4"
   sodipodi:linespacing="125%"
   style="font-size:11.84632874px;font-style:normal;font-variant:normal;font-weight:normal;font-stretch:normal;text-align:start;line-height:125%;writing-mode:lr-tb;text-anchor:start;fill:#152934;fill-opacity:1;stroke:none;display:inline;font-family:Helvetica Neue for IBM;-inkscape-font-specification:Helvetica Neue for IBM"
   class="st11 st12 st13"
   transform="scale(0.99548984,1.0045306)"
   x="360.79135"
   y="471.34222"><tspan
   style="font-family:SimHei;-inkscape-font-specification:SimHei"
   id="tspan4040">容器组</tspan>
 2</text>






<text
   sodipodi:linespacing="125%"
   style="font-size:11.84632874px;font-style:normal;font-variant:normal;font-weight:normal;font-stretch:normal;text-align:start;line-height:125%;writing-mode:lr-tb;text-anchor:start;fill:#152934;fill-opacity:1;stroke:none;display:inline;font-family:Helvetica Neue for IBM;-inkscape-font-specification:Helvetica Neue for IBM"
   id="text230-1-7-4-0-9-2-1-0"
   class="st11 st12 st13"
   transform="scale(0.99548984,1.0045306)"
   x="210.04523"
   y="405.51276">
  <tspan
     style="font-family:SimHei;-inkscape-font-specification:SimHei"
     id="tspan4026">专用网络网关</tspan>
</text>






</g>
      <rect
         x="267.54395"
         y="182.19144"
         class="st10"
         width="69.520325"
         height="64.647865"
         id="rect300-9"
         style="fill:none" />
      <text
         sodipodi:linespacing="125%"
         style="font-size:11.84632874px;font-style:normal;font-variant:normal;font-weight:normal;font-stretch:normal;text-align:start;line-height:125%;writing-mode:lr-tb;text-anchor:start;fill:#152934;fill-opacity:1;stroke:none;display:inline;font-family:Helvetica Neue for IBM;-inkscape-font-specification:Helvetica Neue for IBM"
         id="text230-1-7-4-0-9-5"
         class="st11 st12 st13"
         transform="scale(0.99548983,1.0045306)"
         x="219.72943"
         y="313.17178">
        <tspan
           id="tspan3268-5"
           style="font-weight:normal;fill:#152934;fill-opacity:1;stroke:none;-inkscape-font-specification:Helvetica Neue for IBM"><tspan
   style="-inkscape-font-specification:SimHei;font-family:SimHei"
   id="tspan4042">容器组</tspan>
 1</tspan>
      </text>
      <path
         style="fill:#152934;fill-opacity:1;stroke:#152934;stroke-width:1.5;stroke-linecap:butt;stroke-linejoin:miter;stroke-miterlimit:4;stroke-opacity:1;stroke-dasharray:none;marker-end:url(#TriangleOutM)"
         d="m 110,210.06931 64.06511,0.531"
         id="path42355-8-2"
         inkscape:connector-curvature="0" />
      <text
         sodipodi:linespacing="125%"
         style="font-size:11.84632874px;font-style:normal;font-variant:normal;font-weight:normal;font-stretch:normal;text-align:start;line-height:125%;writing-mode:lr-tb;text-anchor:start;fill:#152934;fill-opacity:1;stroke:none;display:inline;font-family:Helvetica Neue for IBM;-inkscape-font-specification:Helvetica Neue for IBM"
         id="text230-1-7-4-0-9-5-4-3"
         class="st11 st12 st13"
         transform="scale(0.99548983,1.0045306)"
         x="231.942"
         y="364.21494">
        <tspan
           id="tspan3268-5-8-2"
           style="font-weight:normal;fill:#152934;fill-opacity:1;stroke:none;-inkscape-font-specification:Helvetica Neue for IBM"><tspan
   style="-inkscape-font-specification:SimHei;font-family:SimHei"
   id="tspan4048">卷</tspan>
 1</tspan>
      </text>
      <path
         inkscape:connector-curvature="0"
         id="path14485"
         d="M 243.51316,230.469 385.4869,231"
         style="fill:#152934;fill-opacity:1;stroke:#152934;stroke-width:1.49999988;stroke-linecap:butt;stroke-linejoin:miter;stroke-miterlimit:4;stroke-opacity:1;stroke-dasharray:none;stroke-dashoffset:0;marker-end:none" />
      <path
         inkscape:connector-curvature="0"
         id="path14485-0-3"
         d="m 243.68965,345.29876 0.0116,-8.60911"
         style="fill:#152934;fill-opacity:1;stroke:#152934;stroke-width:1.50000036;stroke-linecap:butt;stroke-linejoin:miter;stroke-miterlimit:4;stroke-opacity:1;stroke-dasharray:none;stroke-dashoffset:0;marker-end:none" />
      <path
         inkscape:connector-curvature="0"
         id="path14485-0-3-9-4"
         d="m 243.29875,222.3577 0.0116,19.55531"
         style="fill:#152934;fill-opacity:1;stroke:#152934;stroke-width:1.50000036;stroke-linecap:butt;stroke-linejoin:miter;stroke-miterlimit:4;stroke-opacity:1;stroke-dasharray:none;stroke-dashoffset:0;marker-end:url(#TriangleOutM-89)" />
      <path
         inkscape:connector-curvature="0"
         id="path14485-0-3-9-4-2"
         d="m 385,230.25655 0.0116,11.04222"
         style="fill:#152934;fill-opacity:1;stroke:#152934;stroke-width:1.50000048;stroke-linecap:butt;stroke-linejoin:miter;stroke-miterlimit:4;stroke-opacity:1;stroke-dasharray:none;stroke-dashoffset:0;marker-end:url(#TriangleOutM-89)" />
      <path
         inkscape:connector-curvature="0"
         id="path14485-0-3-9-4-2-5"
         d="m 244,285.99999 0.0116,11.44276"
         style="fill:#152934;fill-opacity:1;stroke:#152934;stroke-width:1.50000048;stroke-linecap:butt;stroke-linejoin:miter;stroke-miterlimit:4;stroke-opacity:1;stroke-dasharray:none;stroke-dashoffset:0;marker-end:url(#TriangleOutM-89)" />
      <path
         inkscape:connector-curvature="0"
         id="path14485-0-3-9-4-2-5-6"
         d="M 383.9884,285.70123 384,296"
         style="fill:#152934;fill-opacity:1;stroke:#152934;stroke-width:1.50000048;stroke-linecap:butt;stroke-linejoin:miter;stroke-miterlimit:4;stroke-opacity:1;stroke-dasharray:none;stroke-dashoffset:0;marker-end:url(#TriangleOutM-89)" />
    </g>
  </g>
  <style
     id="style4"
     type="text/css">
	.st0{fill:#E9EEF2;stroke:#4C93D8;stroke-width:3;stroke-linejoin:round;stroke-miterlimit:10;}
	.st1{fill:#EDF1F4;stroke:#5596E6;stroke-width:3;stroke-linejoin:round;stroke-miterlimit:10;}
	.st2{fill:#F7F7F7;stroke:#5AAAFA;stroke-width:3;stroke-linejoin:round;stroke-miterlimit:10;}
	.st3{fill:none;stroke:#94A3AB;stroke-width:3;stroke-miterlimit:10;stroke-dasharray:8,8;}
	.st4{fill:#94A3AB;}
	.st5{fill:none;stroke:#94A3AB;stroke-width:2;stroke-miterlimit:10;stroke-dasharray:8,8;}
	.st6{fill:#F7F7F7;}
	.st7{fill:#5AAAFA;}
	.st8{fill:#7CC7FF;}
	.st9{fill:#C0E6FF;}
	.st10{fill:none;}
	.st11{fill:#1D3649;}
	.st12{font-family:'HelvNeueMediumforIBM';}
	.st13{font-size:12px;}
	.st14{fill:#7CC7FF;stroke:#FFFFFF;stroke-miterlimit:10;}
	.st15{fill:#A4D7F7;}
	.st16{fill:none;stroke:#94A3AB;stroke-width:3;stroke-miterlimit:10;}
	.st17{fill:none;stroke:#94A3AB;stroke-width:3;stroke-miterlimit:10;stroke-dasharray:5.877,5.877;}
	.st18{fill:#C1CDD3;}
	.st19{fill:#5596E6;}
	.st20{fill:#5AAAFA;stroke:#325C80;stroke-miterlimit:10;}
	.st21{fill:#7CC7FF;stroke:#325C80;stroke-miterlimit:10;}
	.st22{fill:#4178BE;stroke:#94A3AB;stroke-miterlimit:10;}
	.st23{font-size:14px;}
	.st24{letter-spacing:1;}
	.st25{fill:#C0E6FF;stroke:#325C80;stroke-miterlimit:10;}
	.st26{font-size:11px;}
	.st27{fill:none;stroke:#94A3AB;stroke-width:3;stroke-linecap:round;stroke-linejoin:round;stroke-dasharray:8,8;}
</style>
</svg>
