<?xml version="1.0" encoding="UTF-8" standalone="no"?>
<svg
   xmlns:dc="http://purl.org/dc/elements/1.1/"
   xmlns:cc="http://creativecommons.org/ns#"
   xmlns:rdf="http://www.w3.org/1999/02/22-rdf-syntax-ns#"
   xmlns:svg="http://www.w3.org/2000/svg"
   xmlns="http://www.w3.org/2000/svg"
   xmlns:sodipodi="http://sodipodi.sourceforge.net/DTD/sodipodi-0.dtd"
   xmlns:inkscape="http://www.inkscape.org/namespaces/inkscape"
   id="Layer_1"
   data-name="Layer 1"
   viewBox="0 0 1036.53 587.29"
   version="1.1"
   inkscape:version="0.47 r22583"
   width="100%"
   height="100%"
   sodipodi:docname="cs_org_ov.svg">
  <metadata
     id="metadata1058">
    <rdf:RDF>
      <cc:Work
         rdf:about="">
        <dc:format>image/svg+xml</dc:format>
        <dc:type
           rdf:resource="http://purl.org/dc/dcmitype/StillImage" />
      </cc:Work>
    </rdf:RDF>
  </metadata>
  <sodipodi:namedview
     pagecolor="#ffffff"
     bordercolor="#666666"
     borderopacity="1"
     objecttolerance="10"
     gridtolerance="10"
     guidetolerance="10"
     inkscape:pageopacity="0"
     inkscape:pageshadow="2"
     inkscape:window-width="1440"
     inkscape:window-height="838"
     id="namedview1056"
     showgrid="false"
     inkscape:zoom="0.98603159"
     inkscape:cx="600.31585"
     inkscape:cy="296.02624"
     inkscape:window-x="-8"
     inkscape:window-y="-8"
     inkscape:window-maximized="1"
     inkscape:current-layer="Layer_1" />
  <defs
     id="defs3">
    <inkscape:perspective
       sodipodi:type="inkscape:persp3d"
       inkscape:vp_x="0 : 293.645 : 1"
       inkscape:vp_y="0 : 1000 : 0"
       inkscape:vp_z="1036.53 : 293.645 : 1"
       inkscape:persp3d-origin="518.265 : 195.76333 : 1"
       id="perspective1060" />
    <style
       id="style5">.cls-1{fill:#8c9ba5;}.cls-2{fill:#5a6872;}.cls-17,.cls-3{font-size:12px;}.cls-3{font-family:HelvNeue Roman for IBM;}.cls-4,.cls-6{fill:#10212d;}.cls-10,.cls-12,.cls-13,.cls-18,.cls-19,.cls-20,.cls-21,.cls-26,.cls-27,.cls-28,.cls-29,.cls-5,.cls-7,.cls-8,.cls-9{fill:none;}.cls-18,.cls-19,.cls-20,.cls-21,.cls-26,.cls-27,.cls-28,.cls-29,.cls-5,.cls-6{stroke:#10212d;}.cls-10,.cls-12,.cls-13,.cls-15,.cls-16,.cls-18,.cls-19,.cls-20,.cls-21,.cls-26,.cls-27,.cls-28,.cls-29,.cls-5,.cls-6,.cls-8,.cls-9{stroke-miterlimit:10;}.cls-8{stroke:#734199;}.cls-10,.cls-12,.cls-13,.cls-8,.cls-9{stroke-width:6px;}.cls-9{stroke:#4278bd;}.cls-10{stroke:#eec11b;}.cls-11{fill:#eec11b;}.cls-12{stroke:#f05253;}.cls-13{stroke:#00b39f;}.cls-14,.cls-16{fill:#87c3eb;}.cls-15{fill:#fff;stroke:#a9a9aa;}.cls-16{stroke:#87c3eb;}.cls-17{font-family:Myriad Pro;}.cls-18{stroke-dasharray:7.76 7.76;}.cls-19{stroke-dasharray:8.23 8.23;}.cls-20{stroke-dasharray:8.09 8.09;}.cls-21{stroke-dasharray:8.11 8.11;}.cls-22{fill:#4278bd;}.cls-23{fill:#734199;}.cls-24{fill:#00b39f;}.cls-25{fill:#f05253;}.cls-26{stroke-dasharray:8.25 8.25;}.cls-27{stroke-dasharray:7.69 7.69;}.cls-28{stroke-dasharray:7.8 7.8;}.cls-29{stroke-dasharray:7.41 7.41;}</style>
    <inkscape:perspective
       id="perspective3905"
       inkscape:persp3d-origin="0.5 : 0.33333333 : 1"
       inkscape:vp_z="1 : 0.5 : 1"
       inkscape:vp_y="0 : 1000 : 0"
       inkscape:vp_x="0 : 0.5 : 1"
       sodipodi:type="inkscape:persp3d" />
    <inkscape:perspective
       id="perspective3905-0"
       inkscape:persp3d-origin="0.5 : 0.33333333 : 1"
       inkscape:vp_z="1 : 0.5 : 1"
       inkscape:vp_y="0 : 1000 : 0"
       inkscape:vp_x="0 : 0.5 : 1"
       sodipodi:type="inkscape:persp3d" />
    <inkscape:perspective
       id="perspective3989"
       inkscape:persp3d-origin="0.5 : 0.33333333 : 1"
       inkscape:vp_z="1 : 0.5 : 1"
       inkscape:vp_y="0 : 1000 : 0"
       inkscape:vp_x="0 : 0.5 : 1"
       sodipodi:type="inkscape:persp3d" />
  </defs>
  <title
     id="title7">cs_org_ov</title>
  <rect
     id="_Rectangle_"
     data-name="&lt;Rectangle&gt;"
     class="cls-1"
     x="515.79"
     width="513.13"
     height="15.6" />
  <rect
     id="_Rectangle_2"
     data-name="&lt;Rectangle&gt;"
     class="cls-2"
     width="515.79"
     height="15.6" />
  <text
     class="cls-3"
     id="text11"
     x="742.96002"
     y="30.42"
     style="font-size:12px;font-family:HelvNeue Roman for IBM">
    <tspan
       style="font-family:SimHei;-inkscape-font-specification:SimHei"
       id="tspan3887">客户帐户</tspan>
  </text>
  <text
     class="cls-3"
     transform="translate(211.16,29.69)"
     id="text33"
     style="font-size:12px;font-family:HelvNeue Roman for IBM">IBM <tspan
   style="font-family:SimHei;-inkscape-font-specification:SimHei"
   id="tspan3866">管理的主节点</tspan>
</text>
  <g
     id="_Group_"
     data-name="&lt;Group&gt;">
    <line
       class="cls-4"
       x1="808.12"
       y1="506.91"
       x2="808.12"
       y2="553.91"
       id="line74" />
    <line
       class="cls-5"
       x1="808.62"
       y1="511.91"
       x2="808.62"
       y2="548.91"
       id="line76" />
    <polygon
       class="cls-4"
       points="804.97 512.91 808.46 506.87 811.95 512.91 804.97 512.91"
       id="polygon78" />
    <polygon
       class="cls-4"
       points="804.97 547.91 808.46 553.95 811.95 547.91 804.97 547.91"
       id="polygon80" />
  </g>
  <rect
     id="_Rectangle_3"
     data-name="&lt;Rectangle&gt;"
     class="cls-6"
     x="797.71"
     y="-117.85"
     width="6.3"
     height="455.12"
     transform="translate(919.09 -691.07) rotate(90.07)" />
  <rect
     id="_Rectangle_4"
     data-name="&lt;Rectangle&gt;"
     class="cls-6"
     x="797.72"
     y="330.76"
     width="6.3"
     height="455.11"
     transform="translate(1367.69 -241.97) rotate(90.07)" />
  <rect
     id="_Rectangle_5"
     data-name="&lt;Rectangle&gt;"
     class="cls-6"
     x="217.91"
     y="-111.28"
     width="6.92"
     height="441.74"
     transform="translate(338.82 -111.71) rotate(90.07)" />
  <line
     id="_Path_"
     data-name="&lt;Path&gt;"
     class="cls-5"
     x1="678.62"
     y1="84.91"
     x2="678.62"
     y2="105.91" />
  <line
     id="_Path_2"
     data-name="&lt;Path&gt;"
     class="cls-5"
     x1="678.12"
     y1="85.41"
     x2="399.12"
     y2="85.41" />
  <line
     id="_Path_3"
     data-name="&lt;Path&gt;"
     class="cls-6"
     x1="399.62"
     y1="85.91"
     x2="399.62"
     y2="106.91" />
  <text
     x="7.6"
     y="-0.05"
     id="text94" />
  <text
     x="7.6"
     y="-0.05"
     id="text96" />
  <g
     id="_Group_2"
     data-name="&lt;Group&gt;">
    <line
       class="cls-4"
       x1="820.12"
       y1="112.91"
       x2="820.12"
       y2="151.91"
       id="line99" />
    <line
       class="cls-5"
       x1="819.62"
       y1="117.91"
       x2="819.62"
       y2="146.91"
       id="line101" />
    <polygon
       class="cls-4"
       points="816.63 118.91 820.12 112.86 823.61 118.91 816.63 118.91"
       id="polygon103" />
    <polygon
       class="cls-4"
       points="816.63 145.91 820.12 151.95 823.61 145.91 816.63 145.91"
       id="polygon105" />
  </g>
  <rect
     id="_Rectangle_6"
     data-name="&lt;Rectangle&gt;"
     class="cls-6"
     x="218.28"
     y="139.49"
     width="6.19"
     height="441.74"
     transform="translate(589.59 139.35) rotate(90.07)" />
  <text
     class="cls-3"
     transform="translate(194.2 377.56)"
     id="text108">
    <tspan
       style="-inkscape-font-specification:SimHei;font-family:SimHei"
       id="tspan3889">专用</tspan>
    <tspan
       x="29.18"
       y="0"
       id="tspan120">VLAN</tspan>
  </text>
  <text
     x="7.6"
     y="-0.05"
     id="text126" />
  <line
     class="cls-7"
     x1="399.7"
     y1="390.57"
     x2="399.7"
     y2="290.57"
     id="line128" />
  <line
     class="cls-7"
     x1="45.19"
     y1="496.17"
     x2="45.19"
     y2="296.17"
     id="line130" />
  <line
     class="cls-8"
     x1="668.62"
     y1="92.48"
     x2="668.62"
     y2="126.05"
     id="line132" />
  <g
     id="_Group_3"
     data-name="&lt;Group&gt;">
    <line
       class="cls-4"
       x1="288.12"
       y1="112.91"
       x2="288.12"
       y2="151.91"
       id="line135" />
    <line
       class="cls-5"
       x1="288.62"
       y1="117.91"
       x2="288.62"
       y2="146.91"
       id="line137" />
    <polygon
       class="cls-4"
       points="285.11 118.91 288.6 112.86 292.09 118.91 285.11 118.91"
       id="polygon139" />
    <polygon
       class="cls-4"
       points="285.11 145.91 288.6 151.95 292.09 145.91 285.11 145.91"
       id="polygon141" />
  </g>
  <line
     class="cls-8"
     x1="668.62"
     y1="123.07"
     x2="802.37"
     y2="123.07"
     id="line143" />
  <polyline
     class="cls-8"
     points="298.6 178.63 298.6 124.04 298.94 124.04 409.62 124.04 409.62 95.41 668.62 95.41"
     id="polyline145" />
  <line
     class="cls-9"
     x1="376.64"
     y1="65.47"
     x2="697.77"
     y2="65.41"
     id="line147" />
  <line
     class="cls-9"
     x1="698.62"
     y1="62.37"
     x2="698.62"
     y2="86.28"
     id="line149" />
  <line
     class="cls-9"
     x1="379.62"
     y1="65.81"
     x2="379.62"
     y2="88.18"
     id="line151" />
  <line
     class="cls-9"
     x1="695.65"
     y1="86.28"
     x2="827.92"
     y2="86.28"
     id="line153" />
  <polyline
     class="cls-9"
     points="268.6 182.77 268.6 85.98 268.6 85.17 378.59 85.17"
     id="polyline155" />
  <line
     class="cls-9"
     x1="829.98"
     y1="83.26"
     x2="830.12"
     y2="173.61"
     id="line157" />
  <line
     class="cls-8"
     x1="800.12"
     y1="120.13"
     x2="800.12"
     y2="177.74"
     id="line159" />
  <line
     class="cls-10"
     x1="366.64"
     y1="55.41"
     x2="424.33"
     y2="55.41"
     id="line161" />
  <path
     class="cls-11"
     d="M425.78,55.46C421.52,57,416.23,59.74,413,62.6l2.58-7.13L413,48.33C416.23,51.19,421.52,53.88,425.78,55.46Z"
     transform="translate(7.6 -0.05)"
     id="path163" />
  <polyline
     class="cls-10"
     points="259.63 172.84 259.63 76.05 259.63 75.24 369.62 75.24 369.62 74.55 369.62 55.41"
     id="polyline165" />
  <line
     class="cls-12"
     x1="386.6"
     y1="74.95"
     x2="688.62"
     y2="75.41"
     id="line167" />
  <line
     class="cls-12"
     x1="688.62"
     y1="72.41"
     x2="688.62"
     y2="99.26"
     id="line169" />
  <line
     class="cls-12"
     x1="690.29"
     y1="96.28"
     x2="811.03"
     y2="96.28"
     id="line171" />
  <line
     class="cls-12"
     x1="810.12"
     y1="93.3"
     x2="810.12"
     y2="172.74"
     id="line173" />
  <line
     class="cls-12"
     x1="389.62"
     y1="75.18"
     x2="389.62"
     y2="97.23"
     id="line175" />
  <polyline
     class="cls-12"
     points="279.3 188.54 279.3 97.39 279.3 95.17 392.48 95.17"
     id="polyline177" />
  <line
     class="cls-13"
     x1="658.62"
     y1="102.45"
     x2="658.62"
     y2="135.91"
     id="line179" />
  <line
     class="cls-13"
     x1="658.41"
     y1="133.07"
     x2="789.21"
     y2="133.07"
     id="line181" />
  <polyline
     class="cls-13"
     points="308.6 177.19 308.6 133.97 419.62 134.04 419.62 103.44 419.62 105.41 658.62 105.41"
     id="polyline183" />
  <line
     class="cls-13"
     x1="790.12"
     y1="130.06"
     x2="790.12"
     y2="179.67"
     id="line185" />
  <line
     class="cls-13"
     x1="416.56"
     y1="105.4"
     x2="424.73"
     y2="105.4"
     id="line187" />
  <rect
     id="_Rectangle_7"
     data-name="&lt;Rectangle&gt;"
     class="cls-14"
     x="8.11"
     y="152.21"
     width="441.74"
     height="156.88" />
  <line
     class="cls-12"
     x1="105.05"
     y1="185.77"
     x2="105.05"
     y2="254.62"
     id="line190" />
  <rect
     id="_Rectangle_8"
     data-name="&lt;Rectangle&gt;"
     class="cls-15"
     x="16.15"
     y="254.72"
     width="96.25"
     height="23.47" />
  <text
     class="cls-3"
     transform="translate(24.82 270.31)"
     id="text193">k<tspan
   x="5.92"
   y="0"
   id="tspan195">u</tspan>
<tspan
   x="12.32"
   y="0"
   id="tspan197">b</tspan>
<tspan
   x="19.31"
   y="0"
   id="tspan199">e-</tspan>
<tspan
   x="30.52"
   y="0"
   id="tspan201">a</tspan>
<tspan
   x="37"
   y="0"
   id="tspan203">pi</tspan>
<tspan
   x="46.25"
   y="0"
   id="tspan205">s</tspan>
<tspan
   x="52.16"
   y="0"
   id="tspan207">e</tspan>
<tspan
   x="58.62"
   y="0"
   id="tspan209">r</tspan>
<tspan
   x="63.16"
   y="0"
   id="tspan211">v</tspan>
<tspan
   x="68.56"
   y="0"
   id="tspan213">er</tspan>
</text>
  <rect
     id="_Rectangle_9"
     data-name="&lt;Rectangle&gt;"
     class="cls-15"
     x="132.4"
     y="254.72"
     width="135.69"
     height="23.47" />
  <text
     class="cls-3"
     transform="translate(135.5 270.31)"
     id="text216">k<tspan
   x="5.92"
   y="0"
   id="tspan218">u</tspan>
<tspan
   x="12.32"
   y="0"
   id="tspan220">b</tspan>
<tspan
   x="19.31"
   y="0"
   id="tspan222">e-</tspan>
<tspan
   x="30.52"
   y="0"
   id="tspan224">c</tspan>
<tspan
   x="36.86"
   y="0"
   id="tspan226">o</tspan>
<tspan
   x="43.63"
   y="0"
   id="tspan228">n</tspan>
<tspan
   x="49.86"
   y="0"
   id="tspan230">t</tspan>
<tspan
   x="53.56"
   y="0"
   id="tspan232">r</tspan>
<tspan
   x="57.26"
   y="0"
   id="tspan234">olle</tspan>
<tspan
   x="75.22"
   y="0"
   id="tspan236">r</tspan>
<tspan
   x="78.43"
   y="0"
   id="tspan238">-m</tspan>
<tspan
   x="93.2"
   y="0"
   id="tspan240">a</tspan>
<tspan
   x="99.68"
   y="0"
   id="tspan242">nager</tspan>
</text>
  <rect
     id="_Rectangle_10"
     data-name="&lt;Rectangle&gt;"
     class="cls-15"
     x="288.09"
     y="254.72"
     width="96.25"
     height="23.47" />
  <text
     class="cls-3"
     transform="translate(295.37 270.31)"
     id="text245">k<tspan
   x="5.92"
   y="0"
   id="tspan247">u</tspan>
<tspan
   x="12.32"
   y="0"
   id="tspan249">b</tspan>
<tspan
   x="19.31"
   y="0"
   id="tspan251">e-</tspan>
<tspan
   x="30.52"
   y="0"
   id="tspan253">s</tspan>
<tspan
   x="36.43"
   y="0"
   id="tspan255">c</tspan>
<tspan
   x="42.82"
   y="0"
   id="tspan257">h</tspan>
<tspan
   x="49.16"
   y="0"
   id="tspan259">e</tspan>
<tspan
   x="55.68"
   y="0"
   id="tspan261">duler</tspan>
</text>
  <rect
     id="_Rectangle_11"
     data-name="&lt;Rectangle&gt;"
     class="cls-15"
     x="404.35"
     y="254.72"
     width="37.46"
     height="23.47" />
  <text
     class="cls-3"
     transform="translate(411.62 270.31)"
     id="text264">e<tspan
   x="6.34"
   y="0"
   id="tspan266">t</tspan>
<tspan
   x="9.66"
   y="0"
   id="tspan268">c</tspan>
<tspan
   x="16.01"
   y="0"
   id="tspan270">d</tspan>
</text>
  <rect
     id="_Rectangle_12"
     data-name="&lt;Rectangle&gt;"
     class="cls-16"
     x="580.9"
     y="152.21"
     width="455.12"
     height="354.28" />
  <rect
     id="_Rectangle_13"
     data-name="&lt;Rectangle&gt;"
     class="cls-15"
     x="853.51"
     y="408.33"
     width="139.66"
     height="23.47" />
  <text
     class="cls-3"
     id="text274"
     style="font-size:12px;font-family:HelvNeue Roman for IBM"
     x="844.94"
     y="423.92001">
    <tspan
       x="898.87"
       y="423.92001"
       id="tspan286"><tspan
   style="font-family:SimHei;-inkscape-font-specification:SimHei"
   id="tspan3974">客户</tspan>
 Pod</tspan>
  </text>
  <rect
     id="_Rectangle_14"
     data-name="&lt;Rectangle&gt;"
     class="cls-15"
     x="853.51"
     y="235.02"
     width="139.66"
     height="23.47" />
  <text
     class="cls-3"
     transform="translate(858.09 250.61)"
     id="text293">IBM <tspan
   x="23.82"
   y="0"
   id="tspan295">L</tspan>
<tspan
   x="30.49"
   y="0"
   id="tspan297">o</tspan>
<tspan
   x="37.32"
   y="0"
   id="tspan299">ggi</tspan>
<tspan
   x="53.06"
   y="0"
   id="tspan301">n</tspan>
<tspan
   x="59.41"
   y="0"
   id="tspan303">g </tspan>
<tspan
   x="68.96"
   y="0"
   id="tspan305">a</tspan>
<tspan
   x="75.44"
   y="0"
   id="tspan307">n</tspan>
<tspan
   x="81.79"
   y="0"
   id="tspan309">d M</tspan>
<tspan
   x="101.68"
   y="0"
   id="tspan311">e</tspan>
<tspan
   x="108.01"
   y="0"
   id="tspan313">t</tspan>
<tspan
   x="111.71"
   y="0"
   id="tspan315">r</tspan>
<tspan
   x="115.87"
   y="0"
   id="tspan317">ics</tspan>
</text>
  <rect
     id="_Rectangle_15"
     data-name="&lt;Rectangle&gt;"
     class="cls-15"
     x="853.51"
     y="266.49"
     width="139.66"
     height="23.47" />
  <text
     class="cls-3"
     transform="translate(865.6 282.08)"
     id="text320">IBM I<tspan
   x="26.68"
   y="0"
   id="tspan322">n</tspan>
<tspan
   x="33.02"
   y="0"
   id="tspan324">g</tspan>
<tspan
   x="39.72"
   y="0"
   id="tspan326">r</tspan>
<tspan
   x="43.43"
   y="0"
   id="tspan328">e</tspan>
<tspan
   x="49.87"
   y="0"
   id="tspan330">s</tspan>
<tspan
   x="55.9"
   y="0"
   id="tspan332">s </tspan>
<tspan
   x="64.66"
   y="0"
   id="tspan334">C</tspan>
<tspan
   x="73.23"
   y="0"
   id="tspan336">o</tspan>
<tspan
   x="80"
   y="0"
   id="tspan338">n</tspan>
<tspan
   x="86.23"
   y="0"
   id="tspan340">t</tspan>
<tspan
   x="89.93"
   y="0"
   id="tspan342">r</tspan>
<tspan
   x="93.64"
   y="0"
   id="tspan344">oller</tspan>
</text>
  <rect
     id="_Rectangle_16"
     data-name="&lt;Rectangle&gt;"
     class="cls-15"
     x="853.51"
     y="297.95"
     width="139.66"
     height="23.47" />
  <text
     class="cls-3"
     transform="translate(873.45 313.55)"
     id="text347">IBM <tspan
   x="23.82"
   y="0"
   id="tspan349">L</tspan>
<tspan
   x="30.49"
   y="0"
   id="tspan351">oad </tspan>
<tspan
   x="53.38"
   y="0"
   id="tspan353">B</tspan>
<tspan
   x="61.43"
   y="0"
   id="tspan355">a</tspan>
<tspan
   x="67.88"
   y="0"
   id="tspan357">l</tspan>
<tspan
   x="70.25"
   y="0"
   id="tspan359">a</tspan>
<tspan
   x="76.73"
   y="0"
   id="tspan361">n</tspan>
<tspan
   x="83.08"
   y="0"
   id="tspan363">c</tspan>
<tspan
   x="89.42"
   y="0"
   id="tspan365">er</tspan>
</text>
  <rect
     id="_Rectangle_17"
     data-name="&lt;Rectangle&gt;"
     class="cls-15"
     x="966.94"
     y="182.8"
     width="66.52"
     height="23.47" />
  <text
     class="cls-3"
     transform="translate(969.22 198.4)"
     id="text368">c<tspan
   x="6.38"
   y="0"
   id="tspan370">a</tspan>
<tspan
   x="12.84"
   y="0"
   id="tspan372">li</tspan>
<tspan
   x="17.56"
   y="0"
   id="tspan374">c</tspan>
<tspan
   x="23.9"
   y="0"
   id="tspan376">o-</tspan>
<tspan
   x="35.42"
   y="0"
   id="tspan378">n</tspan>
<tspan
   x="41.77"
   y="0"
   id="tspan380">o</tspan>
<tspan
   x="48.6"
   y="0"
   id="tspan382">de</tspan>
</text>
  <rect
     id="_Rectangle_18"
     data-name="&lt;Rectangle&gt;"
     class="cls-15"
     x="899.44"
     y="158.09"
     width="66.52"
     height="23.47" />
  <text
     class="cls-3"
     transform="translate(902.11 173.68)"
     id="text385">c<tspan
   x="6.38"
   y="0"
   id="tspan387">a</tspan>
<tspan
   x="12.84"
   y="0"
   id="tspan389">li</tspan>
<tspan
   x="17.56"
   y="0"
   id="tspan391">c</tspan>
<tspan
   x="23.9"
   y="0"
   id="tspan393">o-ip</tspan>
<tspan
   x="44.68"
   y="0"
   id="tspan395">a</tspan>
<tspan
   x="51.16"
   y="0"
   id="tspan397">m</tspan>
</text>
  <rect
     id="_Rectangle_19"
     data-name="&lt;Rectangle&gt;"
     class="cls-15"
     x="966.94"
     y="158.09"
     width="66.52"
     height="23.47" />
  <text
     class="cls-3"
     transform="translate(974.91 173.68)"
     id="text400">c<tspan
   x="6.38"
   y="0"
   id="tspan402">a</tspan>
<tspan
   x="12.84"
   y="0"
   id="tspan404">li</tspan>
<tspan
   x="17.56"
   y="0"
   id="tspan406">c</tspan>
<tspan
   x="23.9"
   y="0"
   id="tspan408">o-cni</tspan>
</text>
  <text
     class="cls-17"
     transform="translate(875.76 467.82)"
     id="text410">
    <tspan
       style="-inkscape-font-specification:SimHei;font-family:SimHei"
       id="tspan3976">缺省名称空间</tspan>
  </text>
  <text
     class="cls-17"
     id="text416"
     style="font-size:12px;font-family:Myriad Pro"
     x="623.21997"
     y="467.82001">k<tspan
   x="628.90002"
   y="467.82001"
   id="tspan418">ubernetes-system <tspan
   style="font-family:SimHei;-inkscape-font-specification:SimHei"
   id="tspan3978">名称空间</tspan>
</tspan>
</text>
  <text
     class="cls-17"
     id="text440"
     style="font-size:12px;font-family:Myriad Pro"
     x="868.33002"
     y="336.20001">ibm-s<tspan
   x="896.40997"
   y="336.20001"
   id="tspan442">ystem <tspan
   style="font-family:SimHei;-inkscape-font-specification:SimHei"
   id="tspan4009">名称空间</tspan>
</tspan>
</text>
  <rect
     id="_Rectangle_20"
     data-name="&lt;Rectangle&gt;"
     class="cls-15"
     x="899.44"
     y="182.8"
     width="66.52"
     height="23.47" />
  <text
     class="cls-3"
     transform="translate(913.62 198.39)"
     id="text455">k<tspan
   x="5.92"
   y="0"
   id="tspan457">u</tspan>
<tspan
   x="12.32"
   y="0"
   id="tspan459">b</tspan>
<tspan
   x="19.31"
   y="0"
   id="tspan461">el</tspan>
<tspan
   x="28.13"
   y="0"
   id="tspan463">e</tspan>
<tspan
   x="34.46"
   y="0"
   id="tspan465">t</tspan>
</text>
  <polyline
     class="cls-5"
     points="791.91 472.77 791.91 476.77 787.91 476.77"
     id="polyline467" />
  <line
     class="cls-18"
     x1="780.15"
     y1="476.77"
     x2="613.21"
     y2="476.77"
     id="line469" />
  <polyline
     class="cls-5"
     points="609.33 476.77 605.33 476.77 605.33 472.77"
     id="polyline471" />
  <line
     class="cls-19"
     x1="605.33"
     y1="464.53"
     x2="605.33"
     y2="221.69"
     id="line473" />
  <polyline
     class="cls-5"
     points="605.33 217.57 605.33 213.57 609.33 213.57"
     id="polyline475" />
  <line
     class="cls-18"
     x1="617.09"
     y1="213.57"
     x2="784.03"
     y2="213.57"
     id="line477" />
  <polyline
     class="cls-5"
     points="787.91 213.57 791.91 213.57 791.91 217.57"
     id="polyline479" />
  <line
     class="cls-19"
     x1="791.91"
     y1="225.8"
     x2="791.91"
     y2="468.65"
     id="line481" />
  <polyline
     class="cls-5"
     points="1016.63 338.87 1016.63 342.87 1012.63 342.87"
     id="polyline483" />
  <line
     class="cls-18"
     x1="1004.87"
     y1="342.87"
     x2="837.93"
     y2="342.87"
     id="line485" />
  <polyline
     class="cls-5"
     points="834.05 342.87 830.05 342.87 830.05 338.87"
     id="polyline487" />
  <line
     class="cls-20"
     x1="830.05"
     y1="330.78"
     x2="830.05"
     y2="221.62"
     id="line489" />
  <polyline
     class="cls-5"
     points="830.05 217.57 830.05 213.57 834.05 213.57"
     id="polyline491" />
  <line
     class="cls-18"
     x1="841.81"
     y1="213.57"
     x2="1008.75"
     y2="213.57"
     id="line493" />
  <polyline
     class="cls-5"
     points="1012.63 213.57 1016.63 213.57 1016.63 217.57"
     id="polyline495" />
  <line
     class="cls-20"
     x1="1016.63"
     y1="225.66"
     x2="1016.63"
     y2="334.82"
     id="line497" />
  <polyline
     class="cls-5"
     points="1016.63 472.77 1016.63 476.77 1012.63 476.77"
     id="polyline499" />
  <line
     class="cls-18"
     x1="1004.87"
     y1="476.77"
     x2="837.93"
     y2="476.77"
     id="line501" />
  <polyline
     class="cls-5"
     points="834.05 476.77 830.05 476.77 830.05 472.77"
     id="polyline503" />
  <line
     class="cls-21"
     x1="830.05"
     y1="464.66"
     x2="830.05"
     y2="371.42"
     id="line505" />
  <polyline
     class="cls-5"
     points="830.05 367.36 830.05 363.36 834.05 363.36"
     id="polyline507" />
  <line
     class="cls-18"
     x1="841.81"
     y1="363.36"
     x2="1008.75"
     y2="363.36"
     id="line509" />
  <polyline
     class="cls-5"
     points="1012.63 363.36 1016.63 363.36 1016.63 367.36"
     id="polyline511" />
  <line
     class="cls-21"
     x1="1016.63"
     y1="375.47"
     x2="1016.63"
     y2="468.71"
     id="line513" />
  <g
     id="_Group_4"
     data-name="&lt;Group&gt;">
    <line
       class="cls-4"
       x1="229.12"
       y1="308.91"
       x2="229.12"
       y2="355.91"
       id="line516" />
    <line
       class="cls-5"
       x1="228.62"
       y1="313.91"
       x2="228.62"
       y2="350.91"
       id="line518" />
    <polygon
       class="cls-4"
       points="225.49 314.91 228.98 308.87 232.47 314.91 225.49 314.91"
       id="polygon520" />
    <polygon
       class="cls-4"
       points="225.49 349.91 228.98 355.95 232.47 349.91 225.49 349.91"
       id="polygon522" />
  </g>
  <text
     class="cls-3"
     transform="translate(580.91 148.54)"
     id="text524">
    <tspan
       style="-inkscape-font-specification:SimHei;font-family:SimHei"
       id="tspan3883">工作程序节点</tspan>
  </text>
  <text
     class="cls-3"
     transform="translate(9.2 148.18)"
     id="text538">
    <tspan
       style="-inkscape-font-specification:SimHei;font-family:SimHei"
       id="tspan3876">主节点</tspan>
  </text>
  <line
     class="cls-10"
     x1="75.05"
     y1="155.77"
     x2="75.05"
     y2="245.01"
     id="line546" />
  <path
     class="cls-11"
     d="M67.45,254.12c-1.58-4.26-4.28-9.54-7.13-12.82l7.13,2.58,7.13-2.58C71.73,244.57,69,249.86,67.45,254.12Z"
     transform="translate(7.6 -0.05)"
     id="path548" />
  <line
     class="cls-9"
     x1="90.05"
     y1="170.78"
     x2="90.05"
     y2="245.01"
     id="line550" />
  <path
     class="cls-22"
     d="M82.45,254.12c-1.58-4.26-4.28-9.54-7.13-12.82l7.13,2.58,7.13-2.58C86.73,244.57,84,249.86,82.45,254.12Z"
     transform="translate(7.6 -0.05)"
     id="path552" />
  <line
     class="cls-12"
     x1="105.05"
     y1="188.77"
     x2="135.7"
     y2="188.77"
     id="line554" />
  <polyline
     class="cls-10"
     points="259.63 150.6 259.63 158.77 75.05 158.77"
     id="polyline556" />
  <polyline
     class="cls-8"
     points="298.6 152.21 298.6 199.79 298.6 203.77 238.74 203.77"
     id="polyline558" />
  <path
     class="cls-23"
     d="M222.08,203.82c4.26-1.58,9.54-4.28,12.82-7.13l-2.58,7.13,2.58,7.13C231.63,208.1,226.34,205.4,222.08,203.82Z"
     transform="translate(7.6 -0.05)"
     id="path560" />
  <polyline
     class="cls-12"
     points="279.3 148.54 279.3 188.54 279.3 188.77 229.69 188.77"
     id="polyline562" />
  <polyline
     class="cls-9"
     points="268.6 150.6 268.6 173.77 90.05 173.77"
     id="polyline564" />
  <polyline
     class="cls-13"
     points="416.16 188.77 308.6 188.77 308.6 187.2 308.6 148.54"
     id="polyline566" />
  <line
     class="cls-13"
     x1="416.56"
     y1="185.73"
     x2="416.56"
     y2="243.72"
     id="line568" />
  <path
     class="cls-24"
     d="M409,252.83c-1.58-4.26-4.28-9.54-7.13-12.82l7.13,2.58,7.13-2.58C413.24,243.28,410.54,248.57,409,252.83Z"
     transform="translate(7.6 -0.05)"
     id="path570" />
  <rect
     id="_Rectangle_21"
     data-name="&lt;Rectangle&gt;"
     class="cls-15"
     x="133.51"
     y="184.2"
     width="96.02"
     height="23.47" />
  <text
     class="cls-3"
     transform="translate(140.09 199.79)"
     id="text573">o<tspan
   x="6.77"
   y="0"
   id="tspan575">p</tspan>
<tspan
   x="13.73"
   y="0"
   id="tspan577">e</tspan>
<tspan
   x="20.18"
   y="0"
   id="tspan579">n</tspan>
<tspan
   x="26.39"
   y="0"
   id="tspan581">vpn-</tspan>
<tspan
   x="50.21"
   y="0"
   id="tspan583">s</tspan>
<tspan
   x="56.12"
   y="0"
   id="tspan585">e</tspan>
<tspan
   x="62.58"
   y="0"
   id="tspan587">r</tspan>
<tspan
   x="67.12"
   y="0"
   id="tspan589">v</tspan>
<tspan
   x="72.52"
   y="0"
   id="tspan591">er</tspan>
</text>
  <line
     class="cls-13"
     x1="790.12"
     y1="148.59"
     x2="790.12"
     y2="179.2"
     id="line593" />
  <line
     class="cls-8"
     x1="800.12"
     y1="148.94"
     x2="800.12"
     y2="192.24"
     id="line595" />
  <line
     class="cls-12"
     x1="810.12"
     y1="93.3"
     x2="810.12"
     y2="205.27"
     id="line597" />
  <line
     class="cls-9"
     x1="830.05"
     y1="143.96"
     x2="830.05"
     y2="192.24"
     id="line599" />
  <line
     class="cls-13"
     x1="635.92"
     y1="176.27"
     x2="790.12"
     y2="176.27"
     id="line601" />
  <line
     class="cls-8"
     x1="763"
     y1="189.27"
     x2="803.11"
     y2="189.27"
     id="line603" />
  <line
     class="cls-9"
     x1="830.05"
     y1="189.28"
     x2="899.44"
     y2="189.28"
     id="line605" />
  <line
     class="cls-12"
     x1="810.12"
     y1="202.28"
     x2="889.56"
     y2="202.28"
     id="line607" />
  <path
     class="cls-25"
     d="M891,202.34c-4.26,1.58-9.54,4.28-12.82,7.13l2.58-7.13-2.58-7.13C881.46,198.06,886.75,200.76,891,202.34Z"
     transform="translate(7.6 -0.05)"
     id="path609" />
  <line
     class="cls-13"
     x1="635.92"
     y1="173.28"
     x2="635.92"
     y2="270.31"
     id="line611" />
  <line
     class="cls-8"
     x1="765.98"
     y1="191.27"
     x2="765.98"
     y2="239.03"
     id="line613" />
  <line
     class="cls-12"
     x1="778.98"
     y1="420.07"
     x2="844.46"
     y2="420.07"
     id="line615" />
  <path
     class="cls-25"
     d="M845.91,420.12c-4.26,1.58-9.54,4.28-12.82,7.13l2.58-7.13L833.09,413C836.36,415.84,841.65,418.54,845.91,420.12Z"
     transform="translate(7.6 -0.05)"
     id="path617" />
  <rect
     id="_Rectangle_22"
     data-name="&lt;Rectangle&gt;"
     class="cls-15"
     x="628.79"
     y="301.97"
     width="139.66"
     height="23.47" />
  <text
     class="cls-3"
     transform="translate(643.19 317.56)"
     id="text620">IBM <tspan
   x="23.82"
   y="0"
   id="tspan622">S</tspan>
<tspan
   x="31.38"
   y="0"
   id="tspan624">t</tspan>
<tspan
   x="34.7"
   y="0"
   id="tspan626">o</tspan>
<tspan
   x="41.47"
   y="0"
   id="tspan628">r</tspan>
<tspan
   x="45.28"
   y="0"
   id="tspan630">age P</tspan>
<tspan
   x="75.23"
   y="0"
   id="tspan632">r</tspan>
<tspan
   x="78.94"
   y="0"
   id="tspan634">o</tspan>
<tspan
   x="85.49"
   y="0"
   id="tspan636">vider</tspan>
</text>
  <rect
     id="_Rectangle_23"
     data-name="&lt;Rectangle&gt;"
     class="cls-15"
     x="628.79"
     y="427.84"
     width="139.66"
     height="23.47" />
  <text
     class="cls-3"
     transform="translate(675.74 443.43)"
     id="text639">h<tspan
   x="6.35"
   y="0"
   id="tspan641">e</tspan>
<tspan
   x="12.8"
   y="0"
   id="tspan643">a</tspan>
<tspan
   x="19.28"
   y="0"
   id="tspan645">p</tspan>
<tspan
   x="26.24"
   y="0"
   id="tspan647">s</tspan>
<tspan
   x="32.09"
   y="0"
   id="tspan649">t</tspan>
<tspan
   x="35.41"
   y="0"
   id="tspan651">er</tspan>
</text>
  <rect
     id="_Rectangle_24"
     data-name="&lt;Rectangle&gt;"
     class="cls-15"
     x="628.79"
     y="270.5"
     width="139.66"
     height="23.47" />
  <text
     class="cls-3"
     transform="translate(638.87 286.09)"
     id="text654">c<tspan
   x="6.38"
   y="0"
   id="tspan656">a</tspan>
<tspan
   x="12.84"
   y="0"
   id="tspan658">li</tspan>
<tspan
   x="17.56"
   y="0"
   id="tspan660">c</tspan>
<tspan
   x="23.9"
   y="0"
   id="tspan662">o-</tspan>
<tspan
   x="35.42"
   y="0"
   id="tspan664">p</tspan>
<tspan
   x="42.38"
   y="0"
   id="tspan666">olicy-</tspan>
<tspan
   x="70.91"
   y="0"
   id="tspan668">c</tspan>
<tspan
   x="77.26"
   y="0"
   id="tspan670">o</tspan>
<tspan
   x="84.02"
   y="0"
   id="tspan672">n</tspan>
<tspan
   x="90.25"
   y="0"
   id="tspan674">t</tspan>
<tspan
   x="93.95"
   y="0"
   id="tspan676">r</tspan>
<tspan
   x="97.66"
   y="0"
   id="tspan678">oller</tspan>
</text>
  <rect
     id="_Rectangle_25"
     data-name="&lt;Rectangle&gt;"
     class="cls-15"
     x="628.79"
     y="364.9"
     width="139.66"
     height="23.47" />
  <text
     class="cls-3"
     transform="translate(655.16 380.5)"
     id="text681">k<tspan
   x="5.92"
   y="0"
   id="tspan683">u</tspan>
<tspan
   x="12.32"
   y="0"
   id="tspan685">b</tspan>
<tspan
   x="19.31"
   y="0"
   id="tspan687">e-dash</tspan>
<tspan
   x="56.09"
   y="0"
   id="tspan689">b</tspan>
<tspan
   x="63.07"
   y="0"
   id="tspan691">o</tspan>
<tspan
   x="69.84"
   y="0"
   id="tspan693">a</tspan>
<tspan
   x="76.32"
   y="0"
   id="tspan695">r</tspan>
<tspan
   x="80.03"
   y="0"
   id="tspan697">d</tspan>
</text>
  <rect
     id="_Rectangle_26"
     data-name="&lt;Rectangle&gt;"
     class="cls-15"
     x="628.79"
     y="396.37"
     width="139.66"
     height="23.47" />
  <text
     class="cls-3"
     transform="translate(673.76 411.97)"
     id="text700">k<tspan
   x="5.92"
   y="0"
   id="tspan702">u</tspan>
<tspan
   x="12.32"
   y="0"
   id="tspan704">b</tspan>
<tspan
   x="19.31"
   y="0"
   id="tspan706">e-dns</tspan>
</text>
  <rect
     id="_Rectangle_27"
     data-name="&lt;Rectangle&gt;"
     class="cls-15"
     x="628.79"
     y="333.43"
     width="139.66"
     height="23.47" />
  <text
     class="cls-3"
     transform="translate(668.79 349.03)"
     id="text709">k<tspan
   x="5.92"
   y="0"
   id="tspan711">u</tspan>
<tspan
   x="12.32"
   y="0"
   id="tspan713">b</tspan>
<tspan
   x="19.31"
   y="0"
   id="tspan715">e-p</tspan>
<tspan
   x="37.42"
   y="0"
   id="tspan717">r</tspan>
<tspan
   x="41.12"
   y="0"
   id="tspan719">o</tspan>
<tspan
   x="47.58"
   y="0"
   id="tspan721">x</tspan>
<tspan
   x="53.76"
   y="0"
   id="tspan723">y</tspan>
</text>
  <polyline
     class="cls-5"
     points="598.2 118.49 598.2 122.49 594.2 122.49"
     id="polyline725" />
  <line
     class="cls-26"
     x1="585.95"
     y1="122.49"
     x2="441.51"
     y2="122.49"
     id="line727" />
  <polyline
     class="cls-5"
     points="437.38 122.49 433.38 122.49 433.38 118.49"
     id="polyline729" />
  <line
     class="cls-27"
     x1="433.38"
     y1="110.8"
     x2="433.38"
     y2="53.12"
     id="line731" />
  <polyline
     class="cls-5"
     points="433.38 49.27 433.38 45.27 437.38 45.27"
     id="polyline733" />
  <line
     class="cls-26"
     x1="445.63"
     y1="45.27"
     x2="590.08"
     y2="45.27"
     id="line735" />
  <polyline
     class="cls-5"
     points="594.2 45.27 598.2 45.27 598.2 49.27"
     id="polyline737" />
  <line
     class="cls-27"
     x1="598.2"
     y1="56.96"
     x2="598.2"
     y2="114.64"
     id="line739" />
  <line
     class="cls-12"
     x1="775.98"
     y1="202.27"
     x2="808.47"
     y2="202.27"
     id="line741" />
  <line
     class="cls-12"
     x1="778.98"
     y1="202.27"
     x2="778.98"
     y2="423.04"
     id="line743" />
  <rect
     id="_Rectangle_28"
     data-name="&lt;Rectangle&gt;"
     class="cls-15"
     x="645.19"
     y="239.03"
     width="139.66"
     height="23.47" />
  <text
     class="cls-3"
     transform="translate(676.18 254.62)"
     id="text746">o<tspan
   x="6.77"
   y="0"
   id="tspan748">p</tspan>
<tspan
   x="13.73"
   y="0"
   id="tspan750">e</tspan>
<tspan
   x="20.18"
   y="0"
   id="tspan752">n</tspan>
<tspan
   x="26.39"
   y="0"
   id="tspan754">vpn-clie</tspan>
<tspan
   x="67.76"
   y="0"
   id="tspan756">n</tspan>
<tspan
   x="73.99"
   y="0"
   id="tspan758">t</tspan>
</text>
  <polyline
     class="cls-5"
     points="362.96 145.42 362.96 149.42 358.96 149.42"
     id="polyline760" />
  <line
     class="cls-28"
     x1="351.16"
     y1="149.42"
     x2="323.86"
     y2="149.42"
     id="line762" />
  <polyline
     class="cls-5"
     points="319.96 149.42 315.96 149.42 315.96 145.42"
     id="polyline764" />
  <line
     class="cls-29"
     x1="315.96"
     y1="138.01"
     x2="315.96"
     y2="52.75"
     id="line766" />
  <polyline
     class="cls-5"
     points="315.96 49.05 315.96 45.05 319.96 45.05"
     id="polyline768" />
  <line
     class="cls-28"
     x1="327.76"
     y1="45.05"
     x2="355.06"
     y2="45.05"
     id="line770" />
  <polyline
     class="cls-5"
     points="358.96 45.05 362.96 45.05 362.96 49.05"
     id="polyline772" />
  <line
     class="cls-29"
     x1="362.96"
     y1="56.46"
     x2="362.96"
     y2="141.72"
     id="line774" />
  <text
     class="cls-17"
     id="text776"
     x="322.26999"
     y="65.440002"
     style="font-size:12px;font-family:Myriad Pro">
    <tspan
       style="font-family:SimHei;-inkscape-font-specification:SimHei"
       id="tspan3878">防火墙</tspan>
  </text>
  <text
     class="cls-17"
     id="text788"
     style="font-size:12px;font-family:Myriad Pro"
     x="446.20001"
     y="58.990002">Bluemix <tspan
   x="489.07999"
   y="58.990002"
   id="tspan790">Infrastructure <tspan
   style="font-family:SimHei;-inkscape-font-specification:SimHei"
   id="tspan3880">网络</tspan>
</tspan>
</text>
  <text
     class="cls-3"
     transform="translate(35.39 404.73)"
     id="text816">
    <tspan
       style="-inkscape-font-specification:SimHei;font-family:SimHei"
       id="tspan3891">图注</tspan>
  </text>
  <line
     class="cls-7"
     x1="45.19"
     y1="476.77"
     x2="85.71"
     y2="476.77"
     id="line822" />
  <line
     class="cls-7"
     x1="45.19"
     y1="496.17"
     x2="90.82"
     y2="496.17"
     id="line824" />
  <line
     class="cls-10"
     x1="26.52"
     y1="431.8"
     x2="66.06"
     y2="431.8"
     id="line826" />
  <line
     class="cls-13"
     x1="26.52"
     y1="571.8"
     x2="66.06"
     y2="571.8"
     id="line828" />
  <line
     class="cls-12"
     x1="26.52"
     y1="501.8"
     x2="66.06"
     y2="501.8"
     id="line830" />
  <line
     class="cls-8"
     x1="26.52"
     y1="536.8"
     x2="66.06"
     y2="536.8"
     id="line832" />
  <line
     class="cls-9"
     x1="26.52"
     y1="466.8"
     x2="66.06"
     y2="466.8"
     id="line834" />
  <text
     x="7.6"
     y="-0.05"
     id="text836" />
  <text
     class="cls-17"
     id="text838"
     x="85.709999"
     y="436.12"
     style="font-size:12px;font-family:Myriad Pro"><tspan
   style="font-family:SimHei;-inkscape-font-specification:SimHei"
   id="tspan3940">允许用户访问</tspan>
 kupe-apiserver，<tspan
   style="font-family:SimHei;-inkscape-font-specification:SimHei"
   id="tspan3942">此服务器用于为</tspan>
 API <tspan
   style="font-family:SimHei;-inkscape-font-specification:SimHei"
   id="tspan3944">对象配置数据</tspan>
<tspan
   x="237.78001"
   y="450.51999"
   id="tspan900">。</tspan>
</text>
  <text
     class="cls-17"
     transform="translate(85.71 470.32)"
     id="text902">kubelet <tspan
   style="-inkscape-font-specification:SimHei;font-family:SimHei"
   id="tspan3946">向</tspan>
 kube-apiserver <tspan
   style="-inkscape-font-specification:SimHei;font-family:SimHei"
   id="tspan3948">传递</tspan>
 pod <tspan
   style="-inkscape-font-specification:SimHei;font-family:SimHei"
   id="tspan3950">的运行状况</tspan>
<tspan
   x="357.57"
   y="0"
   id="tspan940">。</tspan>
</text>
  <text
     class="cls-17"
     id="text942"
     x="85.709999"
     y="498.12"
     style="font-size:12px;font-family:Myriad Pro"><tspan
   style="font-family:SimHei;-inkscape-font-specification:SimHei"
   id="tspan3952">将</tspan>
 IBM <tspan
   style="font-family:SimHei;-inkscape-font-specification:SimHei"
   id="tspan3958">管理的主节点安全地连接到工作程序节点</tspan>
<tspan
   x="85.709999"
   y="512.52002"
   id="tspan978"><tspan
   style="font-family:SimHei;-inkscape-font-specification:SimHei"
   id="tspan3960">，并将</tspan>
 pod <tspan
   style="font-family:SimHei;-inkscape-font-specification:SimHei"
   id="tspan3962">规范发送到每个节点上的</tspan>
 kubelet<tspan
   style="font-family:SimHei;-inkscape-font-specification:SimHei"
   id="tspan3964">。</tspan>
</tspan>
</text>
  <text
     class="cls-17"
     id="text996"
     x="85.709999"
     y="542.32001"
     style="font-size:12px;font-family:Myriad Pro"><tspan
   style="font-family:SimHei;-inkscape-font-specification:SimHei"
   id="tspan3966">将工作程序节点安全地连接到</tspan>
 IBM <tspan
   style="font-family:SimHei;-inkscape-font-specification:SimHei"
   id="tspan3968">管理的主节点</tspan>
<tspan
   x="417.51999"
   y="542.32001"
   id="tspan1034">。</tspan>
</text>
  <text
     class="cls-17"
     transform="translate(85.71 571.8)"
     id="text1036">
    <tspan
       style="-inkscape-font-specification:SimHei;font-family:SimHei"
       id="tspan3970">管理网络策略</tspan>
    <tspan
       x="121.99"
       y="0"
       id="tspan1054">。</tspan>
  </text>
  <text
     xml:space="preserve"
     style="font-size:40px;font-style:normal;font-weight:normal;fill:#000000;fill-opacity:1;stroke:none;font-family:SimHei;-inkscape-font-specification:SimHei"
     x="39.552486"
     y="100.49018"
     id="text3893"
     transform="translate(-3.4038619e-5,0)"><tspan
       sodipodi:role="line"
       id="tspan3895"></tspan></text>
  <text
     y="102.0853"
     x="8.3328695"
     class="cls-3"
     id="text108-1"
     style="font-size:12px;font-family:HelvNeue Roman for IBM">
    <tspan
       style="font-family:SimHei;-inkscape-font-specification:SimHei"
       id="tspan3889-7">公用</tspan>
    <tspan
       x="37.512863"
       y="102.0853"
       id="tspan120-4">VLAN</tspan>
  </text>
  <text
     y="103.62314"
     x="972.17798"
     class="cls-3"
     id="text108-9"
     style="font-size:12px;font-family:HelvNeue Roman for IBM">
    <tspan
       style="font-family:SimHei;-inkscape-font-specification:SimHei"
       id="tspan3889-4">公用</tspan>
    <tspan
       x="1001.358"
       y="103.62314"
       id="tspan120-8">VLAN</tspan>
  </text>
  <text
     y="573.62317"
     x="776.17798"
     class="cls-3"
     id="text108-8"
     style="font-size:12px;font-family:HelvNeue Roman for IBM">
    <tspan
       style="font-family:SimHei;-inkscape-font-specification:SimHei"
       id="tspan3889-2">专用</tspan>
    <tspan
       x="805.35797"
       y="573.62317"
       id="tspan120-45">VLAN</tspan>
  </text>
</svg>
