<?xml version="1.0" encoding="UTF-8" standalone="no"?>
<!-- Generator: Adobe Illustrator 19.0.0, SVG Export Plug-In . SVG Version: 6.00 Build 0)  -->

<svg
   xmlns:dc="http://purl.org/dc/elements/1.1/"
   xmlns:cc="http://creativecommons.org/ns#"
   xmlns:rdf="http://www.w3.org/1999/02/22-rdf-syntax-ns#"
   xmlns:svg="http://www.w3.org/2000/svg"
   xmlns="http://www.w3.org/2000/svg"
   xmlns:sodipodi="http://sodipodi.sourceforge.net/DTD/sodipodi-0.dtd"
   xmlns:inkscape="http://www.inkscape.org/namespaces/inkscape"
   version="1.1"
   x="0px"
   y="0px"
   viewBox="0 0 428.65 431.85"
   xml:space="preserve"
   id="svg2"
   inkscape:version="0.47 r22583"
   width="100%"
   height="100%"
   sodipodi:docname="data_options.svg"
   inkscape:export-filename="C:\FileNet\Work\Current\IDCMS1\CPS\CloudOE\containers\images\data_options.png"
   inkscape:export-xdpi="71.488312"
   inkscape:export-ydpi="71.488312"><title
   id="title3323">Options for data and file storage</title><metadata
   id="metadata51"><rdf:RDF><cc:Work
       rdf:about=""><dc:format>image/svg+xml</dc:format><dc:type
         rdf:resource="http://purl.org/dc/dcmitype/StillImage" /><dc:title>Options for data and file storage</dc:title><dc:description>This diagram shows the difference places that you can store data submitted by application users or files that are necessary for your application to run.</dc:description></cc:Work></rdf:RDF></metadata><defs
   id="defs49"><inkscape:perspective
   sodipodi:type="inkscape:persp3d"
   inkscape:vp_x="0 : 215.925 : 1"
   inkscape:vp_y="0 : 1000 : 0"
   inkscape:vp_z="428.65 : 215.925 : 1"
   inkscape:persp3d-origin="214.325 : 143.95 : 1"
   id="perspective126" />


</defs><sodipodi:namedview
   pagecolor="#ffffff"
   bordercolor="#666666"
   borderopacity="1"
   objecttolerance="10"
   gridtolerance="10"
   guidetolerance="10"
   inkscape:pageopacity="0"
   inkscape:pageshadow="2"
   inkscape:window-width="1280"
   inkscape:window-height="962"
   id="namedview47"
   showgrid="false"
   inkscape:zoom="1.21"
   inkscape:cx="60.813281"
   inkscape:cy="176.68311"
   inkscape:window-x="-8"
   inkscape:window-y="-8"
   inkscape:window-maximized="1"
   inkscape:current-layer="layer2"
   fit-margin-top="0"
   fit-margin-left="0"
   fit-margin-right="0"
   fit-margin-bottom="0"
   inkscape:snap-global="false"
   showguides="true"
   inkscape:guide-bbox="true"><inkscape:grid
     type="xygrid"
     id="grid3372"
     empspacing="5"
     visible="true"
     enabled="true"
     snapvisiblegridlinesonly="true"
     originx="-15.79246px"
     originy="-17.165693px" /></sodipodi:namedview>
<style
   type="text/css"
   id="style4">
	.st0{fill-rule:evenodd;clip-rule:evenodd;fill:#FFFFFF;stroke:#FFFFFF;stroke-width:1.0001;stroke-miterlimit:22.9256;}
	
		.st1{fill-rule:evenodd;clip-rule:evenodd;fill:#FFFFFF;stroke:#0097D6;stroke-width:2.126;stroke-linecap:round;stroke-linejoin:round;stroke-miterlimit:22.9256;}
	.st2{fill-rule:evenodd;clip-rule:evenodd;fill:#0097D6;stroke:#0097D6;stroke-width:1.0001;stroke-miterlimit:22.9256;}
	.st3{fill-rule:evenodd;clip-rule:evenodd;fill:#4AC7E9;stroke:#4AC7E9;stroke-width:1.0001;stroke-miterlimit:22.9256;}
	.st4{fill-rule:evenodd;clip-rule:evenodd;fill:#8ED8F8;stroke:#8ED8F8;stroke-width:1.0001;stroke-miterlimit:22.9256;}
	.st5{fill-rule:evenodd;clip-rule:evenodd;fill:#A7A9AC;stroke:#A7A9AC;stroke-width:1.0001;stroke-miterlimit:22.9256;}
	.st6{fill-rule:evenodd;clip-rule:evenodd;fill:#D1D3D4;stroke:#D1D3D4;stroke-width:1.0001;stroke-miterlimit:22.9256;}
	.st7{fill-rule:evenodd;clip-rule:evenodd;fill:#FFFFFF;stroke:#8ED8F8;stroke-width:1.0001;stroke-miterlimit:22.9256;}
	.st8{fill-rule:evenodd;clip-rule:evenodd;fill:#FFFFFF;}
	.st9{font-family:'HelvNeueBoldforIBM';}
	.st10{font-size:13.9997px;}
	.st11{font-family:'HelvNeueMediumforIBM';}
	.st12{font-size:11.9996px;}
	.st13{font-size:11.9999px;}
</style>

<g
   inkscape:groupmode="layer"
   id="layer1"
   inkscape:label="Graphics"
   style="display:inline"
   transform="translate(259.17061,199.15266)"><g
     transform="translate(-191.1,1.1000031)"
     id="Artwork-4" /></g><g
   id="Artwork"
   transform="translate(259.17061,199.15266)">
	
	
	
	
	
	
	
	
	
	
	
</g><g
   inkscape:groupmode="layer"
   id="layer2"
   inkscape:label="Text"
   style="display:inline"
   transform="translate(259.17061,199.15266)">





<rect
   style="fill:#ffffff;fill-rule:evenodd;stroke:#8ed8f8;stroke-width:2.12599993;stroke-linecap:round;stroke-linejoin:round;stroke-miterlimit:22.92560005;display:inline"
   id="rect12-4-1"
   height="210.11429"
   width="204.02859"
   class="st2"
   y="16.783043"
   x="-41.375381"><title
     id="title3371-5-5">Space</title></rect><rect
   style="fill:#ffffff;fill-rule:evenodd;stroke:#8ed8f8;stroke-width:2.12599993;stroke-linecap:round;stroke-linejoin:round;stroke-miterlimit:22.92560005;display:inline"
   id="rect12-4"
   height="141.06667"
   width="204.02859"
   class="st2"
   y="17.164001"
   x="-253.61346"><title
     id="title3371-5">Space</title></rect><rect
   style="fill:#ffffff;fill-rule:evenodd;stroke:#8ed8f8;stroke-width:2.12599993;stroke-linecap:round;stroke-linejoin:round;stroke-miterlimit:22.92560005;display:inline"
   id="rect12-7"
   height="152.01904"
   width="240.21907"
   class="st2"
   y="-173.02647"
   x="-92.184898"><title
     id="title3371-4">Space</title></rect><rect
   style="fill:#ffffff;fill-rule:evenodd;stroke:#8ed8f8;stroke-width:2.12599993;stroke-linecap:round;stroke-linejoin:round;stroke-miterlimit:22.92560005"
   id="rect12"
   height="152.01904"
   width="137.83812"
   class="st2"
   y="-172.57886"
   x="-239.01108"><title
     id="title3371">Space</title></rect><rect
   x="-83.650787"
   y="-147.11433"
   class="st1"
   width="223.157"
   height="116.96394"
   id="rect10-4-2-8"
   style="fill:#ffffff;fill-rule:evenodd;stroke:#0097d6;stroke-width:2.12599993;stroke-linecap:round;stroke-linejoin:round;stroke-miterlimit:22.92560005;display:inline"><title
     id="title3217-8-1-5">Organization</title></rect><text
   y="-182.20869"
   x="7.4812307"
   class="st9 st10"
   id="text33-4-6-7"
   style="font-size:12.66639996px;font-style:normal;font-variant:normal;font-weight:bold;font-stretch:normal;text-align:start;line-height:125%;writing-mode:lr-tb;text-anchor:start;display:inline;font-family:HelvNeue Roman for IBM;-inkscape-font-specification:HelvNeue Roman for IBM Bold"
   sodipodi:linespacing="125%"><tspan
     style="font-size:12.66639996px;font-style:normal;font-variant:normal;font-weight:bold;font-stretch:normal;text-align:start;line-height:125%;writing-mode:lr-tb;text-anchor:start;font-family:HelvNeue Roman for IBM;-inkscape-font-specification:HelvNeue Roman for IBM Bold"
     id="tspan3659"><tspan
   style="font-family:SimSun;-inkscape-font-specification:SimSun"
   id="tspan2936">选项</tspan> 2</tspan></text>


<rect
   x="-231.09616"
   y="-144.46762"
   class="st1"
   width="122.22266"
   height="114.31724"
   id="rect10-4-2"
   style="fill:#ffffff;fill-rule:evenodd;stroke:#0097d6;stroke-width:2.12599993;stroke-linecap:round;stroke-linejoin:round;stroke-miterlimit:22.92560005;display:inline"><title
     id="title3217-8-1">Organization</title></rect><path
   inkscape:connector-curvature="0"
   class="st4"
   d="m -208.46556,-116.74992 h 76.42121 c 3.93235,0 7.19695,4.18193 7.19695,9.2551 v 54.845021 c 0,5.07317 -3.1904,9.2551 -7.19695,9.2551 h -76.42121 c -3.93235,0 -7.19695,-4.18193 -7.19695,-9.2551 v -54.845021 c 0.0742,-5.07317 3.2646,-9.2551 7.19695,-9.2551 z"
   id="path16-4"
   style="fill:#8ed8f8;fill-rule:evenodd;stroke:#8ed8f8;stroke-width:1.00010002;stroke-miterlimit:22.92560005;display:inline"><title
     id="title3219-5">File share</title></path>
<path
   inkscape:connector-curvature="0"
   class="st4"
   d="M -62.215327,-114.66721 H 9.5834741 c 3.6945089,0 6.7616439,3.94707 6.7616439,8.73532 v 51.764821 c 0,4.78824 -2.997427,8.73531 -6.7616439,8.73531 H -62.215327 c -3.6945,0 -6.76164,-3.94707 -6.76164,-8.73531 v -51.764821 c 0.0697,-4.78825 3.06714,-8.73532 6.76164,-8.73532 z"
   id="path16-4-1"
   style="fill:#8ed8f8;fill-rule:evenodd;stroke:#8ed8f8;stroke-width:1.00010002;stroke-miterlimit:22.92560005;display:inline"><title
     id="title3219-5-7">File share</title></path><g
   transform="translate(-288.41827,-228.01024)"
   style="display:inline"
   id="g3223-1-4"><title
     id="title3229-1-0">Files</title><path
     style="fill:#ffffff;fill-rule:evenodd;stroke:#8ed8f8;stroke-width:1.00010002;stroke-miterlimit:22.92560005"
     id="path22-5-9"
     d="m 84.800001,147.3 h 12.3 c 1.2,0 2.3,1 2.3,2.3 v 19.5 c 0,1.2 -1,2.3 -2.3,2.3 h -12.3 c -1.2,0 -2.3,-1 -2.3,-2.3 v -19.5 c 0,-1.2 1.1,-2.3 2.3,-2.3 z"
     class="st7"
     inkscape:connector-curvature="0" /><path
     style="fill:#ffffff;fill-rule:evenodd;stroke:#8ed8f8;stroke-width:1.00010002;stroke-miterlimit:22.92560005"
     id="path24-2-4"
     d="m 102.9,147.3 h 12.3 c 1.2,0 2.3,1 2.3,2.3 v 19.5 c 0,1.2 -1,2.3 -2.3,2.3 h -12.3 c -1.2,0 -2.3,-1 -2.3,-2.3 v -19.5 c 0.1,-1.2 1.1,-2.3 2.3,-2.3 z"
     class="st7"
     inkscape:connector-curvature="0" /><path
     style="fill:#ffffff;fill-rule:evenodd;stroke:#8ed8f8;stroke-width:1.00010002;stroke-miterlimit:22.92560005"
     id="path26-7-8"
     d="m 121.1,147.3 h 12.3 c 1.2,0 2.3,1 2.3,2.3 v 19.5 c 0,1.2 -1,2.3 -2.3,2.3 h -12.3 c -1.2,0 -2.3,-1 -2.3,-2.3 v -19.5 c 0,-1.2 1,-2.3 2.3,-2.3 z"
     class="st7"
     inkscape:connector-curvature="0" /><path
     style="fill:#ffffff;fill-rule:evenodd;stroke:#8ed8f8;stroke-width:1.00010002;stroke-miterlimit:22.92560005"
     id="path28-6-8"
     d="m 139.2,147.3 h 12.3 c 1.2,0 2.3,1 2.3,2.3 v 19.5 c 0,1.2 -1,2.3 -2.3,2.3 h -12.3 c -1.2,0 -2.3,-1 -2.3,-2.3 v -19.5 c 0.1,-1.2 1.1,-2.3 2.3,-2.3 z"
     class="st7"
     inkscape:connector-curvature="0" /></g><g
   style="display:inline"
   transform="translate(-288.41826,-228.01024)"
   id="Text-2-2"><text
   transform="translate(106.3197,163.4332)"
   class="st11 st13"
   id="text45-2-4"
   style="font-size:11.99989986px;font-family:HelvNeueMediumforIBM"><tspan
     style="font-style:normal;font-variant:normal;font-weight:normal;font-stretch:normal;font-family:SimSun;-inkscape-font-specification:SimSun"
     id="tspan3009-1-5">数据</tspan></text>


</g><path
   inkscape:connector-curvature="0"
   class="st6"
   d="m -170.35722,166.06245 h 77.19999 c 3,0 5.5,2.5 5.5,5.5 v 49.2 c 0,3 -2.5,5.5 -5.5,5.5 h -77.19999 c -3,0 -5.5,-2.5 -5.5,-5.5 v -49.2 c 0,-3 2.5,-5.5 5.5,-5.5 z"
   id="path20-1-5"
   style="fill:#d1d3d4;fill-rule:evenodd;stroke:#d1d3d4;stroke-width:1.00010002;stroke-miterlimit:22.92560005;display:inline"><title
     id="title3221-7-1">Volume</title></path><path
   style="fill:none;stroke:#000000;stroke-width:1.50000012;stroke-linecap:butt;stroke-linejoin:miter;stroke-miterlimit:4;stroke-opacity:1;stroke-dasharray:none;stroke-dashoffset:0;marker-end:none"
   d="m 16.740495,-80.172666 12.403714,-0.06864"
   id="path14485"
   inkscape:connector-curvature="0"
   sodipodi:nodetypes="cc" /><path
   class="st3"
   d="m 35.9708,-115.35383 h 78.7324 c 4.05128,0 7.4146,4.02536 7.4146,8.90857 v 52.791571 c 0,4.88321 -3.28688,8.90857 -7.4146,8.90857 H 35.9708 c -4.051279,0 -7.414606,-4.02536 -7.414606,-8.90857 v -52.791571 c 0,-4.88321 3.286887,-8.90857 7.414606,-8.90857 z"
   id="path14-2-9"
   inkscape:connector-curvature="0"
   style="fill:#4ac7e9;fill-rule:evenodd;stroke:#4ac7e9;stroke-width:1.00010002;stroke-miterlimit:22.92560005;display:inline" /><text
   class="st11 st13"
   id="text43-3-7"
   x="68.066513"
   y="-89.080673"
   style="font-size:12.66639996px;font-style:normal;font-variant:normal;font-weight:normal;font-stretch:normal;text-align:start;line-height:125%;writing-mode:lr-tb;text-anchor:start;display:inline;font-family:HelvNeue Roman for IBM;-inkscape-font-specification:HelvNeue Roman for IBM"
   sodipodi:linespacing="125%"><tspan
     style="font-family:SimSun;-inkscape-font-specification:SimSun"
     id="tspan2942">卷</tspan></text>


<g
   transform="translate(-42.812998,-227.59106)"
   style="display:inline"
   id="g3223-1-4-1"><title
     id="title3229-1-0-1">Files</title><path
     style="fill:#ffffff;fill-rule:evenodd;stroke:#8ed8f8;stroke-width:1.00010002;stroke-miterlimit:22.92560005"
     id="path22-5-9-5"
     d="m 84.800001,147.3 h 12.3 c 1.2,0 2.3,1 2.3,2.3 v 19.5 c 0,1.2 -1,2.3 -2.3,2.3 h -12.3 c -1.2,0 -2.3,-1 -2.3,-2.3 v -19.5 c 0,-1.2 1.1,-2.3 2.3,-2.3 z"
     class="st7"
     inkscape:connector-curvature="0" /><path
     style="fill:#ffffff;fill-rule:evenodd;stroke:#8ed8f8;stroke-width:1.00010002;stroke-miterlimit:22.92560005"
     id="path24-2-4-2"
     d="m 102.9,147.3 h 12.3 c 1.2,0 2.3,1 2.3,2.3 v 19.5 c 0,1.2 -1,2.3 -2.3,2.3 h -12.3 c -1.2,0 -2.3,-1 -2.3,-2.3 v -19.5 c 0.1,-1.2 1.1,-2.3 2.3,-2.3 z"
     class="st7"
     inkscape:connector-curvature="0" /><path
     style="fill:#ffffff;fill-rule:evenodd;stroke:#8ed8f8;stroke-width:1.00010002;stroke-miterlimit:22.92560005"
     id="path26-7-8-7"
     d="m 121.1,147.3 h 12.3 c 1.2,0 2.3,1 2.3,2.3 v 19.5 c 0,1.2 -1,2.3 -2.3,2.3 h -12.3 c -1.2,0 -2.3,-1 -2.3,-2.3 v -19.5 c 0,-1.2 1,-2.3 2.3,-2.3 z"
     class="st7"
     inkscape:connector-curvature="0" /><path
     style="fill:#ffffff;fill-rule:evenodd;stroke:#8ed8f8;stroke-width:1.00010002;stroke-miterlimit:22.92560005"
     id="path28-6-8-6"
     d="m 139.2,147.3 h 12.3 c 1.2,0 2.3,1 2.3,2.3 v 19.5 c 0,1.2 -1,2.3 -2.3,2.3 h -12.3 c -1.2,0 -2.3,-1 -2.3,-2.3 v -19.5 c 0.1,-1.2 1.1,-2.3 2.3,-2.3 z"
     class="st7"
     inkscape:connector-curvature="0" /></g><g
   style="display:inline"
   transform="translate(-42.812988,-227.59106)"
   id="Text-2-2-1"><text
   transform="translate(106.3197,163.4332)"
   class="st11 st13"
   id="text45-2-4-4"
   style="font-size:11.99989986px;font-family:HelvNeueMediumforIBM"><tspan
     style="font-style:normal;font-variant:normal;font-weight:normal;font-stretch:normal;font-family:SimSun;-inkscape-font-specification:SimSun"
     id="tspan3009-1-5-2">数据</tspan></text>


</g><text
   class="st11 st12"
   id="text39-2-3"
   x="-182.75009"
   y="-89.978897"
   style="font-size:12.66639996px;font-style:normal;font-variant:normal;font-weight:normal;font-stretch:normal;text-align:start;line-height:125%;writing-mode:lr-tb;text-anchor:start;display:inline;font-family:HelvNeue Roman for IBM;-inkscape-font-specification:HelvNeue Roman for IBM"
   sodipodi:linespacing="125%"><tspan
     style="font-family:SimSun;-inkscape-font-specification:SimSun"
     id="tspan2938">容器</tspan></text>


<text
   class="st11 st12"
   id="text39-2-3-2"
   x="-40.783722"
   y="-89.244247"
   style="font-size:12.66639996px;font-style:normal;font-variant:normal;font-weight:normal;font-stretch:normal;text-align:start;line-height:125%;writing-mode:lr-tb;text-anchor:start;display:inline;font-family:HelvNeue Roman for IBM;-inkscape-font-specification:HelvNeue Roman for IBM"
   sodipodi:linespacing="125%"><tspan
     style="font-family:SimSun;-inkscape-font-specification:SimSun"
     id="tspan2940">容器</tspan></text>


<text
   y="-181.63727"
   x="-190.95596"
   class="st9 st10"
   id="text33-4-6"
   style="font-size:12.66639996px;font-style:normal;font-variant:normal;font-weight:bold;font-stretch:normal;text-align:start;line-height:125%;writing-mode:lr-tb;text-anchor:start;display:inline;font-family:HelvNeue Roman for IBM;-inkscape-font-specification:HelvNeue Roman for IBM Bold"
   sodipodi:linespacing="125%"><tspan
     style="font-size:12.66639996px;font-style:normal;font-variant:normal;font-weight:bold;font-stretch:normal;text-align:start;line-height:125%;writing-mode:lr-tb;text-anchor:start;font-family:HelvNeue Roman for IBM;-inkscape-font-specification:HelvNeue Roman for IBM Bold"
     id="tspan3657"><tspan
   style="-inkscape-font-specification:simsun;font-family:simsun"
   id="tspan2932">选项</tspan> 1</tspan></text>


<rect
   x="-237.15604"
   y="41.524651"
   class="st1"
   width="177.83952"
   height="107.44252"
   id="rect10-4-2-8-6"
   style="fill:#ffffff;fill-rule:evenodd;stroke:#0097d6;stroke-width:2.12599993;stroke-linecap:round;stroke-linejoin:round;stroke-miterlimit:22.92560005;display:inline"><title
     id="title3217-8-1-5-1">Organization</title></rect><text
   y="9.7436295"
   x="-176.28185"
   class="st9 st10"
   id="text33-4-6-7-8"
   style="font-size:12.66639996px;font-style:normal;font-variant:normal;font-weight:bold;font-stretch:normal;text-align:start;line-height:125%;writing-mode:lr-tb;text-anchor:start;display:inline;font-family:HelvNeue Roman for IBM;-inkscape-font-specification:HelvNeue Roman for IBM Bold"
   sodipodi:linespacing="125%"><tspan
     style="font-size:12.66639996px;font-style:normal;font-variant:normal;font-weight:bold;font-stretch:normal;text-align:start;line-height:125%;writing-mode:lr-tb;text-anchor:start;font-family:HelvNeue Roman for IBM;-inkscape-font-specification:HelvNeue Roman for IBM Bold"
     id="tspan3661"><tspan
   style="-inkscape-font-specification:SimSun;font-family:SimSun"
   id="tspan2944">选项</tspan> 3</tspan></text>


<path
   inkscape:connector-curvature="0"
   class="st4"
   d="m -221.25514,71.22522 h 56.77601 c 2.92149,0 5.34688,3.59477 5.34688,7.95564 v 47.14452 c 0,4.36086 -2.37026,7.95563 -5.34688,7.95563 h -56.77601 c -2.92148,0 -5.34686,-3.59477 -5.34686,-7.95563 V 79.18086 c 0.0551,-4.36087 2.42538,-7.95564 5.34686,-7.95564 z"
   id="path16-4-1-9"
   style="fill:#8ed8f8;fill-rule:evenodd;stroke:#8ed8f8;stroke-width:1.00010002;stroke-miterlimit:22.92560005;display:inline"><title
     id="title3219-5-7-2">File share</title></path><path
   inkscape:connector-curvature="0"
   id="path15239-3"
   d="m -115.40302,133.55655 0.33294,32.54115"
   style="fill:none;stroke:#000000;stroke-width:1.50000012;stroke-linecap:butt;stroke-linejoin:miter;stroke-miterlimit:4;stroke-opacity:1;stroke-dasharray:none;stroke-dashoffset:0;marker-end:none;display:inline"
   sodipodi:nodetypes="cc" /><path
   inkscape:connector-curvature="0"
   class="st6"
   d="m -216.54192,166.74908 h 132.49146 c 5.14863,0 9.43915,2.5 9.43915,5.5 v 49.20001 c 0,3 -4.29052,5.49999 -9.43915,5.49999 h -132.49146 c -5.14864,0 -9.43917,-2.49999 -9.43917,-5.49999 v -49.20001 c 0,-3 4.29053,-5.5 9.43917,-5.5 z"
   id="path20-1-5-7"
   style="fill:#d1d3d4;fill-rule:evenodd;stroke:#d1d3d4;stroke-width:1.00010002;stroke-miterlimit:22.92560005;display:inline"><title
     id="title3221-7-1-9">Volume</title></path><path
   class="st3"
   d="m -147.71076,71.91187 h 64.86521 c 3.33773,0 6.10866,3.59476 6.10866,7.95562 v 47.14453 c 0,4.36087 -2.70796,7.95565 -6.10866,7.95565 h -64.86521 c -3.33773,0 -6.10867,-3.59478 -6.10867,-7.95565 V 79.86749 c 0,-4.36086 2.70797,-7.95562 6.10867,-7.95562 z"
   id="path14-2-9-8"
   inkscape:connector-curvature="0"
   style="fill:#4ac7e9;fill-rule:evenodd;stroke:#4ac7e9;stroke-width:1.00010002;stroke-miterlimit:22.92560005;display:inline" /><text
   class="st11 st13"
   id="text43-3-7-5"
   x="-121.80214"
   y="92.540359"
   style="font-size:12.66639996px;font-style:normal;font-variant:normal;font-weight:normal;font-stretch:normal;text-align:start;line-height:125%;writing-mode:lr-tb;text-anchor:start;display:inline;font-family:HelvNeue Roman for IBM;-inkscape-font-specification:HelvNeue Roman for IBM"
   sodipodi:linespacing="125%"><tspan
     style="font-family:SimSun;-inkscape-font-specification:SimSun"
     id="tspan2952">卷</tspan></text>


<path
   inkscape:connector-curvature="0"
   class="st7"
   d="m -137.8737,98.25604 h 47.7812 c 4.66159,0 8.9347,1 8.9347,2.3 v 19.5 c 0,1.2 -3.88465,2.3 -8.9347,2.3 h -47.7812 c -4.66158,0 -8.93469,-1 -8.93469,-2.3 v -19.5 c 0,-1.2 4.27311,-2.3 8.93469,-2.3 z"
   id="path22-5-9-5-1"
   style="fill:#ffffff;fill-rule:evenodd;stroke:#8ed8f8;stroke-width:1.00010002;stroke-miterlimit:22.92560005" /><g
   style="display:inline"
   transform="translate(-229.30839,-49.043959)"
   id="Text-2-2-1-4"><text
   class="st11 st13"
   id="text45-2-4-4-1"
   style="font-size:11.99989986px;font-family:HelvNeueMediumforIBM"
   x="90.527252"
   y="163.4332"><tspan
     style="font-style:normal;font-variant:normal;font-weight:normal;font-stretch:normal;font-family:SimSun;-inkscape-font-specification:SimSun"
     id="tspan3009-1-5-2-1">配置文件</tspan></text>


</g><text
   class="st11 st12"
   id="text39-2-3-2-3"
   x="-204.4407"
   y="92.528397"
   style="font-size:12.66639996px;font-style:normal;font-variant:normal;font-weight:normal;font-stretch:normal;text-align:start;line-height:125%;writing-mode:lr-tb;text-anchor:start;display:inline;font-family:HelvNeue Roman for IBM;-inkscape-font-specification:HelvNeue Roman for IBM"
   sodipodi:linespacing="125%"><tspan
     style="font-family:SimSun;-inkscape-font-specification:SimSun"
     id="tspan2948">容器</tspan></text>


<g
   transform="translate(-265.5799,45.67873)"
   style="display:inline"
   id="g3223-1-4-1-4-8"><title
     id="title3229-1-0-1-3-7">Files</title><path
     style="fill:#ffffff;fill-rule:evenodd;stroke:#8ed8f8;stroke-width:1.00010002;stroke-miterlimit:22.92560005"
     id="path22-5-9-5-1-4"
     d="m 84.800001,147.3 h 12.3 c 1.2,0 2.3,1 2.3,2.3 v 19.5 c 0,1.2 -1,2.3 -2.3,2.3 h -12.3 c -1.2,0 -2.3,-1 -2.3,-2.3 v -19.5 c 0,-1.2 1.1,-2.3 2.3,-2.3 z"
     class="st7"
     inkscape:connector-curvature="0" /><path
     style="fill:#ffffff;fill-rule:evenodd;stroke:#8ed8f8;stroke-width:1.00010002;stroke-miterlimit:22.92560005"
     id="path24-2-4-2-2-2"
     d="m 102.9,147.3 h 12.3 c 1.2,0 2.3,1 2.3,2.3 v 19.5 c 0,1.2 -1,2.3 -2.3,2.3 h -12.3 c -1.2,0 -2.3,-1 -2.3,-2.3 v -19.5 c 0.1,-1.2 1.1,-2.3 2.3,-2.3 z"
     class="st7"
     inkscape:connector-curvature="0" /><path
     style="fill:#ffffff;fill-rule:evenodd;stroke:#8ed8f8;stroke-width:1.00010002;stroke-miterlimit:22.92560005"
     id="path26-7-8-7-3-7"
     d="m 121.1,147.3 h 12.3 c 1.2,0 2.3,1 2.3,2.3 v 19.5 c 0,1.2 -1,2.3 -2.3,2.3 h -12.3 c -1.2,0 -2.3,-1 -2.3,-2.3 v -19.5 c 0,-1.2 1,-2.3 2.3,-2.3 z"
     class="st7"
     inkscape:connector-curvature="0" /><path
     style="fill:#ffffff;fill-rule:evenodd;stroke:#8ed8f8;stroke-width:1.00010002;stroke-miterlimit:22.92560005"
     id="path28-6-8-6-3-7"
     d="m 139.2,147.3 h 12.3 c 1.2,0 2.3,1 2.3,2.3 v 19.5 c 0,1.2 -1,2.3 -2.3,2.3 h -12.3 c -1.2,0 -2.3,-1 -2.3,-2.3 v -19.5 c 0.1,-1.2 1.1,-2.3 2.3,-2.3 z"
     class="st7"
     inkscape:connector-curvature="0" /></g><g
   style="display:inline"
   transform="translate(-265.57989,45.67873)"
   id="Text-2-2-1-4-9"><text
   transform="translate(106.3197,163.4332)"
   class="st11 st13"
   id="text45-2-4-4-1-3"
   style="font-size:11.99989986px;font-family:HelvNeueMediumforIBM"><tspan
     style="font-style:normal;font-variant:normal;font-weight:normal;font-stretch:normal;font-family:SimSun;-inkscape-font-specification:SimSun"
     id="tspan3009-1-5-2-1-1">数据</tspan></text>


</g><text
   class="st11 st13"
   id="text43-3-7-5-6"
   x="-190.46492"
   y="186.12923"
   style="font-size:12.66639996px;font-style:normal;font-variant:normal;font-weight:normal;font-stretch:normal;text-align:start;line-height:125%;writing-mode:lr-tb;text-anchor:start;display:inline;font-family:HelvNeue Roman for IBM;-inkscape-font-specification:HelvNeue Roman for IBM"
   sodipodi:linespacing="125%"><tspan
     style="font-family:SimSun;-inkscape-font-specification:SimSun"
     id="tspan2954">内部部署数据库</tspan></text>


<path
   inkscape:connector-curvature="0"
   class="st6"
   d="m 44.645143,147.15228 h 77.199987 c 3,0 5.5,2.5 5.5,5.5 v 49.2 c 0,3 -2.5,5.5 -5.5,5.5 H 44.645143 c -3,0 -5.5,-2.5 -5.5,-5.5 v -49.2 c 0,-3 2.5,-5.5 5.5,-5.5 z"
   id="path20-1-5-5"
   style="fill:#d1d3d4;fill-rule:evenodd;stroke:#d1d3d4;stroke-width:1.00010002;stroke-miterlimit:22.92560005;display:inline"><title
     id="title3221-7-1-0">Volume</title></path><rect
   x="-23.526955"
   y="41.181328"
   class="st1"
   width="172.3465"
   height="176.70058"
   id="rect10-4-2-8-6-2"
   style="fill:#ffffff;fill-rule:evenodd;stroke:#0097d6;stroke-width:2.12599993;stroke-linecap:round;stroke-linejoin:round;stroke-miterlimit:22.92560005;display:inline"><title
     id="title3217-8-1-5-1-8">Organization</title></rect><path
   inkscape:connector-curvature="0"
   id="path15239"
   d="m 63.985066,130.26352 0.213018,13.84979"
   style="fill:none;stroke:#000000;stroke-width:1.50000012;stroke-linecap:butt;stroke-linejoin:miter;stroke-miterlimit:4;stroke-opacity:1;stroke-dasharray:none;stroke-dashoffset:0;marker-end:none"
   sodipodi:nodetypes="cc" /><path
   class="st2"
   d="M 1.4158291,143.0036 H 127.52781 c 6.48926,0 11.87657,3.43819 11.87657,7.60912 v 45.09106 c 0,4.17092 -5.26488,7.60911 -11.87657,7.60911 H 1.4158291 c -6.4892571,0 -11.8765531,-3.43819 -11.8765531,-7.60911 v -45.09106 c 0,-4.17093 5.387309,-7.60912 11.8765531,-7.60912 z"
   id="path12-8"
   inkscape:connector-curvature="0"
   style="fill:#0097d6;fill-rule:evenodd;stroke:#0097d6;stroke-width:1.00010002;stroke-miterlimit:22.92560005;display:inline" /><text
   y="8.5095291"
   x="43.108917"
   class="st9 st10"
   id="text33-4-6-7-8-6"
   style="font-size:12.66639996px;font-style:normal;font-variant:normal;font-weight:bold;font-stretch:normal;text-align:start;line-height:125%;writing-mode:lr-tb;text-anchor:start;display:inline;font-family:HelvNeue Roman for IBM;-inkscape-font-specification:HelvNeue Roman for IBM Bold"
   sodipodi:linespacing="125%"><tspan
     style="font-size:12.66639996px;font-style:normal;font-variant:normal;font-weight:bold;font-stretch:normal;text-align:start;line-height:125%;writing-mode:lr-tb;text-anchor:start;font-family:HelvNeue Roman for IBM;-inkscape-font-specification:HelvNeue Roman for IBM Bold"
     id="tspan3663"><tspan
   style="font-family:SimSun;-inkscape-font-specification:SimSun"
   id="tspan2946">选项</tspan> 4</tspan></text>


<path
   inkscape:connector-curvature="0"
   class="st4"
   d="M 2.1557411,72.82206 H 126.34511 c 6.39034,0 11.69553,3.3599 11.69553,7.43585 v 44.06431 c 0,4.07595 -5.18462,7.43586 -11.69553,7.43586 H 2.1557411 c -6.3903321,0 -11.6954961,-3.35991 -11.6954961,-7.43586 V 80.25791 c 0.120575,-4.07595 5.305164,-7.43585 11.6954961,-7.43585 z"
   id="path16-4-1-9-0"
   style="fill:#8ed8f8;fill-rule:evenodd;stroke:#8ed8f8;stroke-width:1.00010002;stroke-miterlimit:22.92560005;display:inline"><title
     id="title3219-5-7-2-2">File share</title></path>
<text
   class="st11 st12"
   id="text39-2-3-2-3-3"
   x="50.501747"
   y="93.378738"
   style="font-size:12.66639996px;font-style:normal;font-variant:normal;font-weight:normal;font-stretch:normal;text-align:start;line-height:125%;writing-mode:lr-tb;text-anchor:start;display:inline;font-family:HelvNeue Roman for IBM;-inkscape-font-specification:HelvNeue Roman for IBM"
   sodipodi:linespacing="125%"><tspan
     style="font-family:SimSun;-inkscape-font-specification:SimSun"
     id="tspan2950">容器</tspan></text>


<g
   transform="translate(-54.577537,22.76856)"
   style="display:inline"
   id="g3223-1-4-1-4-8-4"><title
     id="title3229-1-0-1-3-7-4">Files</title><path
     style="fill:#ffffff;fill-rule:evenodd;stroke:#8ed8f8;stroke-width:1.00010002;stroke-miterlimit:22.92560005"
     id="path22-5-9-5-1-4-6"
     d="m 84.800001,147.3 h 12.3 c 1.2,0 2.3,1 2.3,2.3 v 19.5 c 0,1.2 -1,2.3 -2.3,2.3 h -12.3 c -1.2,0 -2.3,-1 -2.3,-2.3 v -19.5 c 0,-1.2 1.1,-2.3 2.3,-2.3 z"
     class="st7"
     inkscape:connector-curvature="0" /><path
     style="fill:#ffffff;fill-rule:evenodd;stroke:#8ed8f8;stroke-width:1.00010002;stroke-miterlimit:22.92560005"
     id="path24-2-4-2-2-2-0"
     d="m 102.9,147.3 h 12.3 c 1.2,0 2.3,1 2.3,2.3 v 19.5 c 0,1.2 -1,2.3 -2.3,2.3 h -12.3 c -1.2,0 -2.3,-1 -2.3,-2.3 v -19.5 c 0.1,-1.2 1.1,-2.3 2.3,-2.3 z"
     class="st7"
     inkscape:connector-curvature="0" /><path
     style="fill:#ffffff;fill-rule:evenodd;stroke:#8ed8f8;stroke-width:1.00010002;stroke-miterlimit:22.92560005"
     id="path26-7-8-7-3-7-6"
     d="m 121.1,147.3 h 12.3 c 1.2,0 2.3,1 2.3,2.3 v 19.5 c 0,1.2 -1,2.3 -2.3,2.3 h -12.3 c -1.2,0 -2.3,-1 -2.3,-2.3 v -19.5 c 0,-1.2 1,-2.3 2.3,-2.3 z"
     class="st7"
     inkscape:connector-curvature="0" /><path
     style="fill:#ffffff;fill-rule:evenodd;stroke:#8ed8f8;stroke-width:1.00010002;stroke-miterlimit:22.92560005"
     id="path28-6-8-6-3-7-6"
     d="m 139.2,147.3 h 12.3 c 1.2,0 2.3,1 2.3,2.3 v 19.5 c 0,1.2 -1,2.3 -2.3,2.3 h -12.3 c -1.2,0 -2.3,-1 -2.3,-2.3 v -19.5 c 0.1,-1.2 1.1,-2.3 2.3,-2.3 z"
     class="st7"
     inkscape:connector-curvature="0" /></g><g
   style="display:inline"
   transform="translate(-54.577527,22.76856)"
   id="Text-2-2-1-4-9-1"><text
   transform="translate(106.3197,163.4332)"
   class="st11 st13"
   id="text45-2-4-4-1-3-8"
   style="font-size:11.99989986px;font-family:HelvNeueMediumforIBM"><tspan
     style="font-style:normal;font-variant:normal;font-weight:normal;font-stretch:normal;font-family:SimSun;-inkscape-font-specification:SimSun"
     id="tspan3009-1-5-2-1-1-4">数据</tspan></text>


</g><text
   class="st11 st13"
   id="text43-3-7-5-6-9"
   x="8.5374374"
   y="163.21907"
   style="font-size:12.66639996px;font-style:normal;font-variant:normal;font-weight:normal;font-stretch:normal;text-align:start;line-height:125%;writing-mode:lr-tb;text-anchor:start;display:inline;font-family:HelvNeue Roman for IBM;-inkscape-font-specification:HelvNeue Roman for IBM"
   sodipodi:linespacing="125%">Bluemix <tspan
   style="font-family:SimSun;-inkscape-font-specification:SimSun"
   id="tspan2956">数据库服务</tspan></text>


<flowRoot
   xml:space="preserve"
   id="flowRoot3665"
   style="font-size:17.36363602px;font-style:normal;font-variant:normal;font-weight:normal;font-stretch:normal;text-align:start;line-height:125%;letter-spacing:0px;word-spacing:0px;writing-mode:lr-tb;text-anchor:start;fill:#000000;fill-opacity:1;stroke:none;font-family:Helvetica Neue for IBM;-inkscape-font-specification:Helvetica Neue for IBM"
   transform="translate(-259.17061,-14.15714)"><flowRegion
     id="flowRegion3667"><rect
       id="rect3669"
       width="660.53613"
       height="361.85297"
       x="-64.54303"
       y="-66.247894" /></flowRegion><flowPara
     id="flowPara3671" /></flowRoot><path
   style="fill:none;stroke:#000000;stroke-width:1.50000012;stroke-linecap:butt;stroke-linejoin:miter;stroke-miterlimit:4;stroke-opacity:1;stroke-dasharray:none;stroke-dashoffset:0;marker-end:none;display:inline"
   d="m -160.03079,103.31438 5.84205,0.17122"
   id="path14485-9-1"
   inkscape:connector-curvature="0"
   sodipodi:nodetypes="cc" /><text
   y="-155.14281"
   x="-233.03934"
   class="st14 st16"
   id="text61"
   style="font-size:12.24984932px;font-style:normal;font-variant:normal;font-weight:normal;font-stretch:normal;text-align:start;line-height:125%;writing-mode:lr-tb;text-anchor:start;font-family:Helvetica Neue for IBM;-inkscape-font-specification:Helvetica Neue for IBM"
   sodipodi:linespacing="125%"><tspan
     style="font-style:normal;font-variant:normal;font-weight:normal;font-stretch:normal;font-family:SimSun;-inkscape-font-specification:SimSun"
     id="tspan3214">组织</tspan></text>

<text
   y="-128.02045"
   x="-221.28763"
   class="st14 st15"
   id="text59"
   style="font-size:12.24984932px;font-style:normal;font-variant:normal;font-weight:normal;font-stretch:normal;text-align:start;line-height:125%;writing-mode:lr-tb;text-anchor:start;font-family:Helvetica Neue for IBM;-inkscape-font-specification:Helvetica Neue for IBM"
   sodipodi:linespacing="125%"><tspan
     style="font-style:normal;font-variant:normal;font-weight:normal;font-stretch:normal;font-family:SimSun;-inkscape-font-specification:SimSun"
     id="tspan3216">空间</tspan></text>

<text
   y="-155.59042"
   x="-81.927437"
   class="st14 st16"
   id="text61-4"
   style="font-size:12.24984932px;font-style:normal;font-variant:normal;font-weight:normal;font-stretch:normal;text-align:start;line-height:125%;writing-mode:lr-tb;text-anchor:start;display:inline;font-family:Helvetica Neue for IBM;-inkscape-font-specification:Helvetica Neue for IBM"
   sodipodi:linespacing="125%"><tspan
     style="font-style:normal;font-variant:normal;font-weight:normal;font-stretch:normal;font-family:SimSun;-inkscape-font-specification:SimSun"
     id="tspan3214-8">组织</tspan></text>

<text
   y="-128.46809"
   x="-70.175735"
   class="st14 st15"
   id="text59-8"
   style="font-size:12.24984932px;font-style:normal;font-variant:normal;font-weight:normal;font-stretch:normal;text-align:start;line-height:125%;writing-mode:lr-tb;text-anchor:start;display:inline;font-family:Helvetica Neue for IBM;-inkscape-font-specification:Helvetica Neue for IBM"
   sodipodi:linespacing="125%"><tspan
     style="font-style:normal;font-variant:normal;font-weight:normal;font-stretch:normal;font-family:SimSun;-inkscape-font-specification:SimSun"
     id="tspan3216-2">空间</tspan></text>

<text
   y="32.695305"
   x="-247.64172"
   class="st14 st16"
   id="text61-5"
   style="font-size:12.24984932px;font-style:normal;font-variant:normal;font-weight:normal;font-stretch:normal;text-align:start;line-height:125%;writing-mode:lr-tb;text-anchor:start;display:inline;font-family:Helvetica Neue for IBM;-inkscape-font-specification:Helvetica Neue for IBM"
   sodipodi:linespacing="125%"><tspan
     style="font-style:normal;font-variant:normal;font-weight:normal;font-stretch:normal;font-family:SimSun;-inkscape-font-specification:SimSun"
     id="tspan3214-1">组织</tspan></text>

<text
   y="61.817642"
   x="-229.89"
   class="st14 st15"
   id="text59-7"
   style="font-size:12.24984932px;font-style:normal;font-variant:normal;font-weight:normal;font-stretch:normal;text-align:start;line-height:125%;writing-mode:lr-tb;text-anchor:start;display:inline;font-family:Helvetica Neue for IBM;-inkscape-font-specification:Helvetica Neue for IBM"
   sodipodi:linespacing="125%"><tspan
     style="font-style:normal;font-variant:normal;font-weight:normal;font-stretch:normal;font-family:SimSun;-inkscape-font-specification:SimSun"
     id="tspan3216-1">空间</tspan></text>

<text
   y="33.266731"
   x="-34.927448"
   class="st14 st16"
   id="text61-5-2"
   style="font-size:12.24984932px;font-style:normal;font-variant:normal;font-weight:normal;font-stretch:normal;text-align:start;line-height:125%;writing-mode:lr-tb;text-anchor:start;display:inline;font-family:Helvetica Neue for IBM;-inkscape-font-specification:Helvetica Neue for IBM"
   sodipodi:linespacing="125%"><tspan
     style="font-style:normal;font-variant:normal;font-weight:normal;font-stretch:normal;font-family:SimSun;-inkscape-font-specification:SimSun"
     id="tspan3214-1-7">组织</tspan></text>

<text
   y="57.531929"
   x="-9.6519279"
   class="st14 st15"
   id="text59-7-6"
   style="font-size:12.24984932px;font-style:normal;font-variant:normal;font-weight:normal;font-stretch:normal;text-align:start;line-height:125%;writing-mode:lr-tb;text-anchor:start;display:inline;font-family:Helvetica Neue for IBM;-inkscape-font-specification:Helvetica Neue for IBM"
   sodipodi:linespacing="125%"><tspan
     style="font-style:normal;font-variant:normal;font-weight:normal;font-stretch:normal;font-family:SimSun;-inkscape-font-specification:SimSun"
     id="tspan3216-1-1">空间</tspan></text>

</g>

</svg>
