<?xml version="1.0" encoding="UTF-8" standalone="no"?>
<svg
   xmlns:dc="http://purl.org/dc/elements/1.1/"
   xmlns:cc="http://creativecommons.org/ns#"
   xmlns:rdf="http://www.w3.org/1999/02/22-rdf-syntax-ns#"
   xmlns:svg="http://www.w3.org/2000/svg"
   xmlns="http://www.w3.org/2000/svg"
   xmlns:sodipodi="http://sodipodi.sourceforge.net/DTD/sodipodi-0.dtd"
   xmlns:inkscape="http://www.inkscape.org/namespaces/inkscape"
   viewBox="0 0 150 32"
   enable-background="new 0 0 150 32"
   id="svg2"
   version="1.1"
   inkscape:version="0.91 r13725"
   sodipodi:docname="button_translate.svg">
  <metadata
     id="metadata32">
    <rdf:RDF>
      <cc:Work
         rdf:about="">
        <dc:format>image/svg+xml</dc:format>
        <dc:type
           rdf:resource="http://purl.org/dc/dcmitype/StillImage" />
        <dc:title></dc:title>
      </cc:Work>
    </rdf:RDF>
  </metadata>
  <defs
     id="defs30" />
  <sodipodi:namedview
     pagecolor="#ffffff"
     bordercolor="#666666"
     borderopacity="1"
     objecttolerance="10"
     gridtolerance="10"
     guidetolerance="10"
     inkscape:pageopacity="0"
     inkscape:pageshadow="2"
     inkscape:window-width="1920"
     inkscape:window-height="996"
     id="namedview28"
     showgrid="false"
     inkscape:zoom="2.2533333"
     inkscape:cx="106.72199"
     inkscape:cy="16"
     inkscape:window-x="-8"
     inkscape:window-y="1042"
     inkscape:window-maximized="1"
     inkscape:current-layer="svg2" />
  <path
     fill="#1D3649"
     d="M3 31.5c-1.4 0-2.5-1.1-2.5-2.5v-26c0-1.4 1.1-2.5 2.5-2.5h144c1.4 0 2.5 1.1 2.5 2.5v26c0 1.4-1.1 2.5-2.5 2.5h-144z"
     id="path4" />
  <path
     fill="#152935"
     d="M147 1c1.1 0 2 .9 2 2v26c0 1.1-.9 2-2 2h-144c-1.1 0-2-.9-2-2v-26c0-1.1.9-2 2-2h144m0-1h-144c-1.7 0-3 1.4-3 3v26c0 1.6 1.3 3 3 3h144c1.6 0 3-1.4 3-3v-26c0-1.6-1.4-3-3-3z"
     id="path6" />
  <path
     fill="#94A3AB"
     d="M18.3 15.7c0 .7.1 1.5.4 2.1.3.7.7 1.2 1.2 1.7l.3.3v-8.4l-.3.3c-.5.5-.9 1.1-1.2 1.7-.2.9-.4 1.6-.4 2.3z"
     id="path12" />
  <path
     fill="#00B4A0"
     d="M27.7 11.9c-.5-.5-1.1-.9-1.7-1.2-.7-.3-1.4-.4-2.1-.4-.6 0-1.3.1-1.9.3l7.3 4.2-.3-1.2c-.4-.7-.8-1.2-1.3-1.7zM21.3 10.9l2.7 4.6h5.3v-.2l-7.8-4.5c-.1 0-.2 0-.2.1z"
     id="path14" />
  <path
     fill="#5AAAFA"
     d="M29.3 15.9h-5.3l-2.7 4.6.2.1 7.8-4.5v-.2zM25.9 20.8c.7-.3 1.2-.7 1.7-1.2s.9-1.1 1.2-1.7c.2-.4.3-.8.3-1.2l-7.3 4.2c.6.2 1.2.3 1.9.3.9 0 1.6-.2 2.2-.4z"
     id="path16" />
  <path
     fill="#94A3AB"
     d="M23.5 15.7l-2.7-4.6-.2.1v9l.1.1 2.8-4.6z"
     id="path18" />
  <path
     fill="#919191"
     d="M23.9 15.9z"
     id="path20" />
  <path
     fill="#00B4A0"
     d="M23.8 9.8c3 0 5.5 2.3 5.9 5.2v.2l2.7-4.7-2.8-4.9h-5.6l-2.7 4.7.3-.1c.6-.2 1.4-.4 2.2-.4z"
     id="path22" />
  <path
     fill="#5AAAFA"
     d="M29.7 16.1v.3c-.3 2.9-2.8 5.2-5.9 5.2-.8 0-1.6-.2-2.3-.5-.1 0-.2-.1-.2-.1l2.7 4.7h5.6l2.8-4.9-2.7-4.7z"
     id="path24" />
  <path
     fill="#94A3AB"
     d="M20.5 10.8h-5.4l-2.8 4.9 2.8 4.9h5.4l-.2-.1c-1.4-1.1-2.4-2.8-2.4-4.7 0-1.9.9-3.6 2.4-4.7.1-.2.1-.2.2-.3z"
     id="path26" />
  <text
     xml:space="preserve"
     style="font-style:normal;font-variant:normal;font-weight:300;font-stretch:normal;font-size:11.58447647px;line-height:125%;font-family:'HelvNeue Light for IBM';-inkscape-font-specification:'HelvNeue Light for IBM, Light';text-align:start;letter-spacing:0px;word-spacing:0px;writing-mode:lr-tb;text-anchor:start;fill:#000000;fill-opacity:1;stroke:none;stroke-width:1px;stroke-linecap:butt;stroke-linejoin:miter;stroke-opacity:1"
     x="39.057224"
     y="19.685783"
     id="text3360"
     sodipodi:linespacing="125%"
     transform="scale(0.96146504,1.0400794)"><tspan
       sodipodi:role="line"
       id="tspan3362"
       x="39.057224"
       y="19.685783"
       style="fill:#ffffff">部署到 <tspan
   style="font-style:normal;font-variant:normal;font-weight:bold;font-stretch:normal;font-size:11.58443356px;line-height:125%;font-family:sans-serif;-inkscape-font-specification:'sans-serif, Bold';text-align:start;writing-mode:lr-tb;text-anchor:start;fill:#ffffff"
   id="tspan3364">Bluemix</tspan></tspan></text>
</svg>
