<?xml version="1.0" encoding="UTF-8" standalone="no"?>
<svg
   xmlns:dc="http://purl.org/dc/elements/1.1/"
   xmlns:cc="http://creativecommons.org/ns#"
   xmlns:rdf="http://www.w3.org/1999/02/22-rdf-syntax-ns#"
   xmlns:svg="http://www.w3.org/2000/svg"
   xmlns="http://www.w3.org/2000/svg"
   xmlns:xlink="http://www.w3.org/1999/xlink"
   xmlns:sodipodi="http://sodipodi.sourceforge.net/DTD/sodipodi-0.dtd"
   xmlns:inkscape="http://www.inkscape.org/namespaces/inkscape"
   viewBox="0 0 150 32"
   enable-background="new 0 0 150 32"
   id="svg2"
   version="1.1"
   inkscape:version="0.48.5 r10040"
   width="100%"
   height="100%"
   sodipodi:docname="getting_started_tutorial_deploy_button.svg">
  <metadata
     id="metadata32">
    <rdf:RDF>
      <cc:Work
         rdf:about="">
        <dc:format>image/svg+xml</dc:format>
        <dc:type
           rdf:resource="http://purl.org/dc/dcmitype/StillImage" />
      </cc:Work>
    </rdf:RDF>
  </metadata>
  <defs
     id="defs30" />
  <sodipodi:namedview
     pagecolor="#ffffff"
     bordercolor="#666666"
     borderopacity="1"
     objecttolerance="10"
     gridtolerance="10"
     guidetolerance="10"
     inkscape:pageopacity="0"
     inkscape:pageshadow="2"
     inkscape:window-width="1600"
     inkscape:window-height="803"
     id="namedview28"
     showgrid="false"
     inkscape:zoom="2.26"
     inkscape:cx="-28.539824"
     inkscape:cy="16"
     inkscape:window-x="1271"
     inkscape:window-y="-9"
     inkscape:window-maximized="1"
     inkscape:current-layer="layer1" />
  <path
     fill="#1D3649"
     d="M3 31.5c-1.4 0-2.5-1.1-2.5-2.5v-26c0-1.4 1.1-2.5 2.5-2.5h144c1.4 0 2.5 1.1 2.5 2.5v26c0 1.4-1.1 2.5-2.5 2.5h-144z"
     id="path4" />
  <a
     id="a3012"
     xlink:href="https://bluemix.net/deploy?repository=https://github.com/Puquios/hello-containers"
     target="_blank">
    <path
       id="path6"
       d="M147 1c1.1 0 2 .9 2 2v26c0 1.1-.9 2-2 2h-144c-1.1 0-2-.9-2-2v-26c0-1.1.9-2 2-2h144m0-1h-144c-1.7 0-3 1.4-3 3v26c0 1.6 1.3 3 3 3h144c1.6 0 3-1.4 3-3v-26c0-1.6-1.4-3-3-3z"
       fill="#152935" />
  </a>
  <g
     fill="#fff"
     id="g8">
    <path
       d="M38 12h3c2.6.1 3.9 1.5 3.9 4.3s-1.3 4.2-3.9 4.3h-3v-8.6zm.8 7.8h1.7c2.5 0 3.5-1 3.5-3.6s-1.1-3.6-3.5-3.6h-1.7v7.2zM46.7 17.6c0 1.1.6 2.4 2 2.4 1.1 0 1.7-.6 1.9-1.6h.8c-.3 1.4-1.1 2.2-2.7 2.2-2 0-2.8-1.5-2.8-3.3 0-1.6.8-3.3 2.8-3.3 2 0 2.8 1.7 2.7 3.5h-4.7zm4-.6c0-1.1-.8-2.2-2-2.2s-1.9 1.1-2 2.2h4zM52.8 14.3h.7v1.2c.3-.9 1.2-1.4 2.2-1.4 1.9 0 2.8 1.5 2.8 3.3 0 1.8-.9 3.3-2.8 3.3-.9 0-1.8-.5-2.1-1.4v3.5h-.8v-8.5zm2.9.5c-1.7 0-2.2 1.2-2.2 2.6 0 1.3.6 2.6 2.2 2.6 1.4 0 2-1.4 2-2.6s-.6-2.6-2-2.6zM59.9 12h.8v8.6h-.8v-8.6zM67.8 17.4c0 1.8-1 3.3-2.9 3.3s-2.9-1.5-2.9-3.3c0-1.8 1-3.3 2.9-3.3s2.9 1.5 2.9 3.3zm-5.1 0c0 1.3.7 2.6 2.2 2.6s2.2-1.3 2.2-2.6-.7-2.6-2.2-2.6-2.2 1.3-2.2 2.6zM68.2 14.3h.8l2 5.3 1.9-5.3h.8l-2.7 7.2c-.4 1-.7 1.3-1.6 1.3-.3 0-.4 0-.6-.1v-.6l.5.1c.7 0 .8-.4 1.1-1l.3-.7-2.5-6.2zM78.8 14.3h1.3v.7h-1.3v4.2c0 .5.1.8.6.8h.6v.6h-.7c-1 0-1.4-.3-1.3-1.4v-4.2h-1v-.6h1.1v-1.9h.8v1.8zM86.5 17.4c0 1.8-1 3.3-2.9 3.3s-2.9-1.5-2.9-3.3c0-1.8 1-3.3 2.9-3.3s2.9 1.5 2.9 3.3zm-5.1 0c0 1.3.7 2.6 2.2 2.6s2.2-1.3 2.2-2.6-.7-2.6-2.2-2.6-2.2 1.3-2.2 2.6zM90.8 12h4c1.6 0 2.7.5 2.7 2.1 0 .9-.4 1.4-1.2 1.8 1.1.3 1.7 1.1 1.7 2.1 0 1.7-1.5 2.5-3 2.5h-4.2v-8.5zm1.9 3.4h1.9c.7 0 1.2-.3 1.2-1 0-.8-.6-1-1.3-1h-1.8v2zm0 3.7h2c.7 0 1.4-.2 1.4-1.1 0-.9-.5-1.2-1.4-1.2h-2.1v2.3zM99 12h1.7v8.6h-1.7v-8.6zM107.8 20.5h-1.6v-.9c-.4.7-1.2 1-1.9 1-1.8 0-2.3-1-2.3-2.6v-3.8h1.7v3.5c0 1 .3 1.5 1.1 1.5.9 0 1.3-.5 1.3-1.8v-3.3h1.7v6.4zM110.5 17.8c0 1.1.6 1.6 1.5 1.6.7 0 1.2-.4 1.3-.8h1.5c-.5 1.5-1.5 2.1-2.9 2.1-2 0-3.2-1.3-3.2-3.3 0-1.9 1.3-3.3 3.2-3.3 2.1 0 3.1 1.8 3 3.7h-4.4zm2.7-1.1c-.2-.9-.5-1.3-1.4-1.3-1.1 0-1.4.8-1.4 1.3h2.8zM116 14.3h1.6v.8c.4-.6 1.1-1 1.9-1 .8 0 1.5.3 1.8 1 .4-.5 1-1 1.9-1 1.3 0 2.3.6 2.3 2.2v4.2h-1.7v-3.5c0-.8-.1-1.5-1-1.5-1 0-1.1.8-1.1 1.6v3.5h-1.7v-3.6c0-.7 0-1.5-1-1.5-.3 0-1.2.2-1.2 1.4v3.6h-1.8v-6.2zM128.5 13.4h-1.7v-1.4h1.7v1.4zm-1.7.9h1.7v6.2h-1.7v-6.2zM131.4 17.3l-2-2.9h1.9l1.1 1.6 1.1-1.6h1.9l-2 2.9 2.3 3.3h-1.9l-1.3-2-1.3 2h-1.9l2.1-3.3z"
       id="path10" />
  </g>
  <path
     fill="#94A3AB"
     d="M18.3 15.7c0 .7.1 1.5.4 2.1.3.7.7 1.2 1.2 1.7l.3.3v-8.4l-.3.3c-.5.5-.9 1.1-1.2 1.7-.2.9-.4 1.6-.4 2.3z"
     id="path12" />
  <path
     fill="#00B4A0"
     d="M27.7 11.9c-.5-.5-1.1-.9-1.7-1.2-.7-.3-1.4-.4-2.1-.4-.6 0-1.3.1-1.9.3l7.3 4.2-.3-1.2c-.4-.7-.8-1.2-1.3-1.7zM21.3 10.9l2.7 4.6h5.3v-.2l-7.8-4.5c-.1 0-.2 0-.2.1z"
     id="path14" />
  <path
     fill="#5AAAFA"
     d="M29.3 15.9h-5.3l-2.7 4.6.2.1 7.8-4.5v-.2zM25.9 20.8c.7-.3 1.2-.7 1.7-1.2s.9-1.1 1.2-1.7c.2-.4.3-.8.3-1.2l-7.3 4.2c.6.2 1.2.3 1.9.3.9 0 1.6-.2 2.2-.4z"
     id="path16" />
  <path
     fill="#94A3AB"
     d="M23.5 15.7l-2.7-4.6-.2.1v9l.1.1 2.8-4.6z"
     id="path18" />
  <path
     fill="#919191"
     d="M23.9 15.9z"
     id="path20" />
  <path
     fill="#00B4A0"
     d="M23.8 9.8c3 0 5.5 2.3 5.9 5.2v.2l2.7-4.7-2.8-4.9h-5.6l-2.7 4.7.3-.1c.6-.2 1.4-.4 2.2-.4z"
     id="path22" />
  <path
     fill="#5AAAFA"
     d="M29.7 16.1v.3c-.3 2.9-2.8 5.2-5.9 5.2-.8 0-1.6-.2-2.3-.5-.1 0-.2-.1-.2-.1l2.7 4.7h5.6l2.8-4.9-2.7-4.7z"
     id="path24" />
  <path
     fill="#94A3AB"
     d="M20.5 10.8h-5.4l-2.8 4.9 2.8 4.9h5.4l-.2-.1c-1.4-1.1-2.4-2.8-2.4-4.7 0-1.9.9-3.6 2.4-4.7.1-.2.1-.2.2-.3z"
     id="path26" />
  <g
     inkscape:groupmode="layer"
     id="layer1"
     inkscape:label="Link"
     style="opacity:0">
    <rect
       style="opacity:0;fill:#ddf1ff;fill-opacity:1;stroke:#474747;stroke-width:1.50000000000000000;stroke-miterlimit:4;stroke-opacity:1;stroke-dasharray:1.50000000000000000, 6;stroke-dashoffset:0"
       id="rect3010"
       width="148.23009"
       height="30.973452"
       x="0.88495576"
       y="0.14159292" />
    <a
       id="a3051"
       xlink:href="https://bluemix.net/deploy?repository=https://github.com/IBM-Bluemix/lets-chat-bluemix"
       target="_blank">
      <path
         id="path4-1"
         d="m 3.6637184,32.013274 c -1.4,0 -2.5,-1.1 -2.5,-2.5 v -26 c 0,-1.4 1.1,-2.5 2.5,-2.5 H 147.66372 c 1.4,0 2.5,1.1 2.5,2.5 v 26 c 0,1.4 -1.1,2.5 -2.5,2.5 H 3.6637184 z"
         inkscape:connector-curvature="0"
         style="fill:#1d3649" />
    </a>
  </g>
</svg>
