<?xml version="1.0" encoding="utf-8"?>
<!-- Generator: Adobe Illustrator 19.0.0, SVG Export Plug-In . SVG Version: 6.00 Build 0)  -->
<svg version="1.1" id="Layer_1" xmlns="http://www.w3.org/2000/svg" xmlns:xlink="http://www.w3.org/1999/xlink" x="0px" y="0px"
	 viewBox="0 0 82 66" style="enable-background:new 0 0 82 66;" xml:space="preserve">
<style type="text/css">
	.st0{fill:#565656;stroke:#565656;stroke-width:1.2;stroke-miterlimit:10;}
</style>
<g>
	<g>
		<path class="st0" d="M62.9,52.7H18.1c-2.3,0-4.2-1.9-4.2-4.2V23.8c0-2.3,1.9-4.2,4.2-4.2h10v-2.3c0-3.4,2.7-6.1,6.1-6.1h12.5
			c3.4,0,6.1,2.7,6.1,6.1v2.3h10c2.3,0,4.2,1.9,4.2,4.2v24.8C67.1,50.9,65.2,52.7,62.9,52.7z M18.1,20.6c-1.7,0-3.2,1.4-3.2,3.2
			v24.8c0,1.7,1.4,3.2,3.2,3.2h44.8c1.7,0,3.2-1.4,3.2-3.2V23.8c0-1.7-1.4-3.2-3.2-3.2h-11v-3.3c0-2.8-2.3-5.1-5.1-5.1H34.2
			c-2.8,0-5.1,2.3-5.1,5.1v3.3H18.1z M49.7,20.6H31.4v-3.3c0-1.6,1.3-2.9,2.9-2.9h12.5c1.6,0,2.9,1.3,2.9,2.9V20.6z M32.4,19.6h16.3
			v-2.3c0-1-0.8-1.9-1.9-1.9H34.2c-1,0-1.9,0.8-1.9,1.9V19.6z"/>
	</g>
	<g>
		<path class="st0" d="M42.9,45.9h-4.8c-0.3,0-0.5-0.2-0.5-0.5v-6.5h-6.5c-0.3,0-0.5-0.2-0.5-0.5v-4.8c0-0.3,0.2-0.5,0.5-0.5h6.5
			v-6.5c0-0.3,0.2-0.5,0.5-0.5h4.8c0.3,0,0.5,0.2,0.5,0.5v6.5h6.5c0.3,0,0.5,0.2,0.5,0.5v4.8c0,0.3-0.2,0.5-0.5,0.5h-6.5v6.5
			C43.4,45.7,43.2,45.9,42.9,45.9z M38.6,44.9h3.8v-6.5c0-0.3,0.2-0.5,0.5-0.5h6.5v-3.8h-6.5c-0.3,0-0.5-0.2-0.5-0.5v-6.5h-3.8v6.5
			c0,0.3-0.2,0.5-0.5,0.5h-6.5v3.8h6.5c0.3,0,0.5,0.2,0.5,0.5V44.9z"/>
	</g>
</g>
</svg>
