<?xml version="1.0" encoding="UTF-8" standalone="no"?>
<!-- Generator: Adobe Illustrator 19.0.0, SVG Export Plug-In . SVG Version: 6.00 Build 0)  -->

<svg
   xmlns:dc="http://purl.org/dc/elements/1.1/"
   xmlns:cc="http://creativecommons.org/ns#"
   xmlns:rdf="http://www.w3.org/1999/02/22-rdf-syntax-ns#"
   xmlns:svg="http://www.w3.org/2000/svg"
   xmlns="http://www.w3.org/2000/svg"
   xmlns:sodipodi="http://sodipodi.sourceforge.net/DTD/sodipodi-0.dtd"
   xmlns:inkscape="http://www.inkscape.org/namespaces/inkscape"
   version="1.1"
   x="0px"
   y="0px"
   viewBox="0 0 830 625"
   xml:space="preserve"
   id="svg2"
   inkscape:version="0.48.5 r10040"
   width="100%"
   height="100%"
   sodipodi:docname="utd_architecture.svg"><title
   id="title3295">Architecture of IBM Containers</title><metadata
   id="metadata318"><rdf:RDF><cc:Work
       rdf:about=""><dc:format>image/svg+xml</dc:format><dc:type
         rdf:resource="http://purl.org/dc/dcmitype/StillImage" /><dc:title>Architecture of IBM Containers</dc:title><dc:description>A diagram of the architecture of IBM Containers.</dc:description></cc:Work></rdf:RDF></metadata><defs
   id="defs316" /><sodipodi:namedview
   pagecolor="#ffffff"
   bordercolor="#666666"
   borderopacity="1"
   objecttolerance="10"
   gridtolerance="10"
   guidetolerance="10"
   inkscape:pageopacity="0"
   inkscape:pageshadow="2"
   inkscape:window-width="1600"
   inkscape:window-height="803"
   id="namedview314"
   showgrid="false"
   inkscape:zoom="1.0824912"
   inkscape:cx="275.23196"
   inkscape:cy="312.5"
   inkscape:window-x="1271"
   inkscape:window-y="-9"
   inkscape:window-maximized="1"
   inkscape:current-layer="layer2" />
<style
   type="text/css"
   id="style4">
	.st0{fill:#E9EEF2;stroke:#4C93D8;stroke-width:3;stroke-linejoin:round;stroke-miterlimit:10;}
	.st1{fill:#EDF1F4;stroke:#5596E6;stroke-width:3;stroke-linejoin:round;stroke-miterlimit:10;}
	.st2{fill:#F7F7F7;stroke:#5AAAFA;stroke-width:3;stroke-linejoin:round;stroke-miterlimit:10;}
	.st3{fill:none;stroke:#94A3AB;stroke-width:3;stroke-miterlimit:10;stroke-dasharray:8,8;}
	.st4{fill:#94A3AB;}
	.st5{fill:none;stroke:#94A3AB;stroke-width:2;stroke-miterlimit:10;stroke-dasharray:8,8;}
	.st6{fill:#F7F7F7;}
	.st7{fill:#5AAAFA;}
	.st8{fill:#7CC7FF;}
	.st9{fill:#C0E6FF;}
	.st10{fill:none;}
	.st11{fill:#1D3649;}
	.st12{font-family:'HelvNeueMediumforIBM';}
	.st13{font-size:12px;}
	.st14{fill:#7CC7FF;stroke:#FFFFFF;stroke-miterlimit:10;}
	.st15{fill:#A4D7F7;}
	.st16{fill:none;stroke:#94A3AB;stroke-width:3;stroke-miterlimit:10;}
	.st17{fill:none;stroke:#94A3AB;stroke-width:3;stroke-miterlimit:10;stroke-dasharray:5.877,5.877;}
	.st18{fill:#C1CDD3;}
	.st19{fill:#5596E6;}
	.st20{fill:#5AAAFA;stroke:#325C80;stroke-miterlimit:10;}
	.st21{fill:#7CC7FF;stroke:#325C80;stroke-miterlimit:10;}
	.st22{fill:#4178BE;stroke:#94A3AB;stroke-miterlimit:10;}
	.st23{font-size:14px;}
	.st24{letter-spacing:1;}
	.st25{fill:#C0E6FF;stroke:#325C80;stroke-miterlimit:10;}
	.st26{font-size:11px;}
	.st27{fill:none;stroke:#94A3AB;stroke-width:3;stroke-linecap:round;stroke-linejoin:round;stroke-dasharray:8,8;}
</style>
<g
   id="Layer_1">
	<rect
   x="519"
   y="201.8"
   class="st0"
   width="295.8"
   height="228.3"
   id="rect7" />
	<rect
   x="504"
   y="216.6"
   class="st1"
   width="295.8"
   height="228.3"
   id="rect9" />
	<rect
   x="490.1"
   y="233.9"
   class="st2"
   width="295.8"
   height="237.3"
   id="rect11" />
	<g
   id="g13">
		<line
   class="st3"
   x1="390.8"
   y1="453.8"
   x2="475.9"
   y2="201.3"
   id="line15" />
		<g
   id="g17">
			<polygon
   class="st4"
   points="482.2,205.7 479.3,191.1 468.1,201    "
   id="polygon19" />
		</g>
	</g>
	<g
   id="g21">
		<line
   class="st3"
   x1="390.8"
   y1="453.8"
   x2="520.2"
   y2="338.9"
   id="line23" />
		<g
   id="g25">
			<polygon
   class="st4"
   points="523.5,345.9 528.2,331.7 513.6,334.7    "
   id="polygon27" />
		</g>
	</g>
	<g
   id="g29">
		<line
   class="st3"
   x1="388.7"
   y1="454.6"
   x2="438.8"
   y2="496"
   id="line31" />
		<g
   id="g33">
			<polygon
   class="st4"
   points="432.4,500.4 447.1,502.9 441.9,488.9    "
   id="polygon35" />
		</g>
	</g>
	<g
   id="g37">
		<line
   class="st3"
   x1="456.8"
   y1="132.1"
   x2="401.4"
   y2="98.4"
   id="line39" />
		<g
   id="g41">
			<polygon
   class="st4"
   points="407.2,93.2 392.2,92.8 399.4,106    "
   id="polygon43" />
		</g>
	</g>
	<g
   id="g45">
		<line
   class="st3"
   x1="158.1"
   y1="254.4"
   x2="256"
   y2="84.5"
   id="line47" />
		<g
   id="g49">
			<polygon
   class="st4"
   points="261.4,90.1 261.4,75.2 248.5,82.6    "
   id="polygon51" />
		</g>
	</g>
	<g
   id="g53">
		<line
   class="st3"
   x1="155.5"
   y1="262.5"
   x2="246.9"
   y2="325.6"
   id="line55" />
		<g
   id="g57">
			<polygon
   class="st4"
   points="240.9,330.5 255.8,331.7 249.4,318.2    "
   id="polygon59" />
		</g>
	</g>
	<g
   id="g61">
		<line
   class="st3"
   x1="151.2"
   y1="261.2"
   x2="256.2"
   y2="452.1"
   id="line63" />
		<g
   id="g65">
			<polygon
   class="st4"
   points="248.6,453.7 261.4,461.5 261.7,446.5    "
   id="polygon67" />
		</g>
	</g>
	<g
   id="g69">
		<line
   class="st5"
   x1="624.3"
   y1="322.4"
   x2="548.6"
   y2="384.8"
   id="line71" />
		<g
   id="g73">
			<polygon
   class="st4"
   points="546.5,380 543,389.3 552.9,387.7    "
   id="polygon75" />
		</g>
	</g>
	<g
   id="g77">
		<line
   class="st5"
   x1="666.9"
   y1="322.4"
   x2="701.6"
   y2="370.1"
   id="line79" />
		<g
   id="g81">
			<polygon
   class="st4"
   points="696.7,371.8 705.8,375.9 704.8,365.9    "
   id="polygon83" />
		</g>
	</g>
	<g
   id="g85">
		<line
   class="st5"
   x1="640.9"
   y1="322.4"
   x2="633.7"
   y2="382.2"
   id="line87" />
		<g
   id="g89">
			<polygon
   class="st4"
   points="628.9,380.2 632.8,389.3 638.8,381.4    "
   id="polygon91" />
		</g>
	</g>
</g>
<g
   id="Layer_3">
	
	
	
	
	
	
	
	
	

	
	
	
	
	
	
	
	
	

	
	

	
	
	
	
	

	
	
	
</g><g
   inkscape:groupmode="layer"
   id="layer1"
   inkscape:label="Graphics"
   sodipodi:insensitive="true"><path
   inkscape:connector-curvature="0"
   class="st6"
   d="m 677.4,366.6 c 0,2.2 -1.8,4 -3.9,4 h -82.4 c -2.2,0 -3.9,-1.8 -3.9,-4 v -15.3 c 0,-2.2 1.8,-4 3.9,-4 h 82.4 c 2.2,0 3.9,1.8 3.9,4 v 15.3 z"
   id="path94"
   style="fill:#f7f7f7" /><g
   id="g96"><title
     id="title3309">Volume server(s)</title><rect
     x="464.29999"
     y="488.5"
     class="st7"
     width="105.7"
     height="74.300003"
     id="rect98"
     style="fill:#5aaafa" /><rect
     x="455.60001"
     y="499.89999"
     class="st8"
     width="105.7"
     height="74.300003"
     id="rect100"
     style="fill:#7cc7ff" /><rect
     x="442.20001"
     y="508.89999"
     class="st9"
     width="105.7"
     height="74.300003"
     id="rect102"
     style="fill:#c0e6ff" /><rect
     x="447.10001"
     y="540.59998"
     class="st10"
     width="95.900002"
     height="18"
     id="rect104"
     style="fill:none" /></g><g
   id="g108"><title
     id="title3297">Docker Registry</title><rect
     x="288.29999"
     y="13.1"
     class="st7"
     width="105.7"
     height="74.300003"
     id="rect110"
     style="fill:#5aaafa" /><rect
     x="279.60001"
     y="24.6"
     class="st8"
     width="105.7"
     height="74.300003"
     id="rect112"
     style="fill:#7cc7ff" /><rect
     x="266.20001"
     y="33.599998"
     class="st9"
     width="105.7"
     height="74.300003"
     id="rect114"
     style="fill:#c0e6ff" /><rect
     x="277.70001"
     y="57"
     class="st10"
     width="82.099998"
     height="36.299999"
     id="rect116"
     style="fill:none" /></g><g
   id="g124"><title
     id="title3311">Build server(s)</title><g
     id="g126"><rect
       x="475.39999"
       y="93.300003"
       class="st7"
       width="105.7"
       height="74.300003"
       id="rect128"
       style="fill:#5aaafa" /><rect
       x="466.60001"
       y="104.8"
       class="st8"
       width="105.7"
       height="74.300003"
       id="rect130"
       style="fill:#7cc7ff" /><rect
       x="453.29999"
       y="113.8"
       class="st9"
       width="105.7"
       height="74.300003"
       id="rect132"
       style="fill:#c0e6ff" /></g><rect
     x="462.89999"
     y="136.60001"
     class="st10"
     width="82.099998"
     height="36.299999"
     id="rect134"
     style="fill:none" /></g><g
   id="g142"><title
     id="title3299">Secure Gateway &amp; Firewall (DataPower &amp; FortiGate)</title><rect
     x="50.200001"
     y="182.8"
     class="st14"
     width="105.7"
     height="148.5"
     id="rect144"
     style="fill:#7cc7ff;stroke:#ffffff;stroke-miterlimit:10" /><rect
     x="65"
     y="220.2"
     class="st10"
     width="74.199997"
     height="93.699997"
     id="rect146"
     style="fill:none" /></g><g
   id="g160"><title
     id="title3303">API Server(s)</title><rect
     x="288.29999"
     y="417.20001"
     class="st7"
     width="105.7"
     height="74.300003"
     id="rect162"
     style="fill:#5aaafa" /><rect
     x="279.60001"
     y="428.60001"
     class="st8"
     width="105.7"
     height="74.300003"
     id="rect164"
     style="fill:#7cc7ff" /><rect
     x="266.20001"
     y="437.60001"
     class="st9"
     width="105.7"
     height="74.300003"
     id="rect166"
     style="fill:#c0e6ff" /><rect
     x="271.20001"
     y="470.39999"
     class="st10"
     width="95.900002"
     height="12.8"
     id="rect168"
     style="fill:none" /></g><g
   id="g172"><title
     id="title3313">Consistent performance (SoftLayer)</title><ellipse
     d="m 779.70001,593.40002 c 0,10.21727 -27.08677,18.5 -60.5,18.5 -33.41323,0 -60.5,-8.28273 -60.5,-18.5 0,-10.21726 27.08677,-18.5 60.5,-18.5 33.41323,0 60.5,8.28274 60.5,18.5 z"
     sodipodi:ry="18.5"
     sodipodi:rx="60.5"
     sodipodi:cy="593.40002"
     sodipodi:cx="719.20001"
     class="st9"
     cx="719.20001"
     cy="593.40002"
     rx="60.5"
     ry="18.5"
     id="ellipse174"
     style="fill:#c0e6ff" /><polyline
     class="st9"
     points="658.7,518.9 658.7,592.9 779.7,592.9 779.7,523.2   "
     id="polyline176"
     style="fill:#c0e6ff" /><ellipse
     d="m 780,519.79999 c 0,10.21727 -27.08677,18.5 -60.5,18.5 -33.41323,0 -60.5,-8.28273 -60.5,-18.5 0,-10.21727 27.08677,-18.5 60.5,-18.5 33.41323,0 60.5,8.28273 60.5,18.5 z"
     sodipodi:ry="18.5"
     sodipodi:rx="60.5"
     sodipodi:cy="519.79999"
     sodipodi:cx="719.5"
     class="st15"
     cx="719.5"
     cy="519.79999"
     rx="60.5"
     ry="18.5"
     id="ellipse178"
     style="fill:#a4d7f7" /></g><rect
   x="673.09998"
   y="552.29999"
   class="st10"
   width="93.300003"
   height="56.900002"
   id="rect180"
   style="fill:none" /><line
   class="st10"
   x1="394"
   y1="50.199997"
   x2="701.90002"
   y2="50.199997"
   id="line190"
   style="fill:none" /><g
   id="g192"><line
     class="st3"
     x1="320.39999"
     y1="372.70001"
     x2="320.39999"
     y2="406.39999"
     id="line194"
     style="fill:none;stroke:#94a3ab;stroke-width:3;stroke-miterlimit:10;stroke-dasharray:8, 8" /><g
     id="g196"><polygon
       class="st4"
       points="327.9,404.2 312.9,404.2 320.4,417.2 "
       id="polygon198"
       style="fill:#94a3ab" /></g></g><g
   id="g200"><line
     class="st3"
     x1="570"
     y1="546.20001"
     x2="642.70001"
     y2="546.20001"
     id="line202"
     style="fill:none;stroke:#94a3ab;stroke-width:3;stroke-miterlimit:10;stroke-dasharray:8, 8" /><g
     id="g204"><polygon
       class="st4"
       points="640.6,538.7 640.6,553.7 653.5,546.2 "
       id="polygon206"
       style="fill:#94a3ab" /></g></g><g
   id="g208"><line
     class="st16"
     x1="12.5"
     y1="257.10001"
     x2="16.5"
     y2="257.10001"
     id="line210"
     style="fill:none;stroke:#94a3ab;stroke-width:3;stroke-miterlimit:10" /><line
     class="st17"
     x1="22.4"
     y1="257.10001"
     x2="31.200001"
     y2="257.10001"
     id="line212"
     style="fill:none;stroke:#94a3ab;stroke-width:3;stroke-miterlimit:10;stroke-dasharray:5.877, 5.877" /><line
     class="st16"
     x1="34.200001"
     y1="257.10001"
     x2="38.200001"
     y2="257.10001"
     id="line214"
     style="fill:none;stroke:#94a3ab;stroke-width:3;stroke-miterlimit:10" /><g
     id="g216"><polygon
       class="st4"
       points="36,249.6 36,264.6 48.9,257.1 "
       id="polygon218"
       style="fill:#94a3ab" /></g></g><g
   id="g220"><title
     id="title3301">Web UI</title><rect
     x="288.29999"
     y="281.10001"
     class="st7"
     width="105.7"
     height="74.300003"
     id="rect222"
     style="fill:#5aaafa" /><rect
     x="279.60001"
     y="292.60001"
     class="st8"
     width="105.7"
     height="74.300003"
     id="rect224"
     style="fill:#7cc7ff" /><rect
     x="266.20001"
     y="301.60001"
     class="st9"
     width="105.7"
     height="74.300003"
     id="rect226"
     style="fill:#c0e6ff" /><rect
     x="277.5"
     y="332.39999"
     class="st10"
     width="81.800003"
     height="26.4"
     id="rect228"
     style="fill:none" /></g><rect
   x="581.09998"
   y="251.39999"
   class="st4"
   width="120.8"
   height="62.400002"
   id="rect232"
   style="fill:#94a3ab" /><rect
   x="574.5"
   y="257.79999"
   class="st18"
   width="120.8"
   height="62.400002"
   id="rect234"
   style="fill:#c1cdd3"><title
     id="title3305">Controller node(s)</title></rect><rect
   x="593.40002"
   y="273.39999"
   class="st10"
   width="82.099998"
   height="36.299999"
   id="rect236"
   style="fill:none" /><rect
   x="593.40002"
   y="355.39999"
   class="st10"
   width="84"
   height="19.299999"
   id="rect244"
   style="fill:none" /><rect
   x="642.5"
   y="379.89999"
   class="st19"
   width="118.8"
   height="61.799999"
   id="rect248"
   style="fill:#5596e6" /><g
   id="g250"><path
     inkscape:connector-curvature="0"
     class="st20"
     d="m 683,427.7 c 0,1.4 -1.1,2.6 -2.6,2.6 h -16.6 c -1.4,0 -2.6,-1.2 -2.6,-2.6 V 411 c 0,-1.4 1.1,-2.6 2.6,-2.6 h 16.6 c 1.4,0 2.6,1.2 2.6,2.6 v 16.7 z"
     id="path252"
     style="fill:#5aaafa;stroke:#325c80;stroke-miterlimit:10" /><path
     inkscape:connector-curvature="0"
     class="st20"
     d="m 705.8,427.7 c 0,1.4 -1.1,2.6 -2.6,2.6 h -16.6 c -1.4,0 -2.6,-1.2 -2.6,-2.6 V 411 c 0,-1.4 1.1,-2.6 2.6,-2.6 h 16.6 c 1.4,0 2.6,1.2 2.6,2.6 v 16.7 z"
     id="path254"
     style="fill:#5aaafa;stroke:#325c80;stroke-miterlimit:10" /><path
     inkscape:connector-curvature="0"
     class="st20"
     d="m 728.7,427.7 c 0,1.4 -1.1,2.6 -2.6,2.6 h -16.6 c -1.4,0 -2.6,-1.2 -2.6,-2.6 V 411 c 0,-1.4 1.1,-2.6 2.6,-2.6 h 16.6 c 1.4,0 2.6,1.2 2.6,2.6 v 16.7 z"
     id="path256"
     style="fill:#5aaafa;stroke:#325c80;stroke-miterlimit:10" /><path
     inkscape:connector-curvature="0"
     class="st20"
     d="m 751.5,427.7 c 0,1.4 -1.1,2.6 -2.6,2.6 h -16.6 c -1.4,0 -2.6,-1.2 -2.6,-2.6 V 411 c 0,-1.4 1.1,-2.6 2.6,-2.6 H 749 c 1.4,0 2.6,1.2 2.6,2.6 v 16.7 z"
     id="path258"
     style="fill:#5aaafa;stroke:#325c80;stroke-miterlimit:10" /></g><g
   id="g260"><rect
   x="578.29999"
   y="389.29999"
   class="st7"
   width="118.8"
   height="61.799999"
   id="rect262"
   style="fill:#5aaafa" /><g
   id="g264"><path
     inkscape:connector-curvature="0"
     class="st21"
     d="m 612.3,436.9 c 0,1.4 -1.1,2.6 -2.6,2.6 h -16.6 c -1.4,0 -2.6,-1.2 -2.6,-2.6 v -16.8 c 0,-1.4 1.1,-2.6 2.6,-2.6 h 16.6 c 1.4,0 2.6,1.2 2.6,2.6 v 16.8 z"
     id="path266"
     style="fill:#7cc7ff;stroke:#325c80;stroke-miterlimit:10" /><path
     inkscape:connector-curvature="0"
     class="st21"
     d="m 635.2,436.9 c 0,1.4 -1.1,2.6 -2.6,2.6 H 616 c -1.4,0 -2.6,-1.2 -2.6,-2.6 v -16.8 c 0,-1.4 1.1,-2.6 2.6,-2.6 h 16.6 c 1.4,0 2.6,1.2 2.6,2.6 v 16.8 z"
     id="path268"
     style="fill:#7cc7ff;stroke:#325c80;stroke-miterlimit:10" /><path
     inkscape:connector-curvature="0"
     class="st21"
     d="m 658,436.9 c 0,1.4 -1.1,2.6 -2.6,2.6 h -16.6 c -1.4,0 -2.6,-1.2 -2.6,-2.6 v -16.8 c 0,-1.4 1.1,-2.6 2.6,-2.6 h 16.6 c 1.4,0 2.6,1.2 2.6,2.6 v 16.8 z"
     id="path270"
     style="fill:#7cc7ff;stroke:#325c80;stroke-miterlimit:10" /><path
     inkscape:connector-curvature="0"
     class="st21"
     d="m 680.9,436.9 c 0,1.4 -1.1,2.6 -2.6,2.6 h -16.6 c -1.4,0 -2.6,-1.2 -2.6,-2.6 v -16.8 c 0,-1.4 1.1,-2.6 2.6,-2.6 h 16.6 c 1.4,0 2.6,1.2 2.6,2.6 v 16.8 z"
     id="path272"
     style="fill:#7cc7ff;stroke:#325c80;stroke-miterlimit:10" /></g><rect
   x="655.70001"
   y="419.79999"
   class="st10"
   width="28.700001"
   height="15.3"
   id="rect274"
   style="fill:none" /><text
   transform="matrix(0.991,0,0,1,664.3329,429.8246)"
   class="st22 st12 st23 st24"
   id="text276"
   style="font-size:14px;letter-spacing:1;fill:#4178be;stroke:#94a3ab;stroke-miterlimit:10;font-family:HelvNeueMediumforIBM">...</text>

</g><rect
   x="726.29999"
   y="410.70001"
   class="st10"
   width="28.700001"
   height="15.3"
   id="rect278"
   style="fill:none" /><text
   style="font-size:11.94587803px;letter-spacing:1;fill:#4178be;stroke:#94a3ab;stroke-width:1;stroke-miterlimit:10;font-family:HelvNeueMediumforIBM"
   y="418.7749"
   x="738.31866"
   transform="scale(0.99548983,1.0045306)"
   class="st22 st12 st23 st24"
   id="text280">...</text>

<g
   id="g282"><title
   id="title3307">Compute nodes</title><rect
   x="514.09998"
   y="396.10001"
   class="st8"
   width="118.8"
   height="61.799999"
   id="rect284"
   style="fill:#7cc7ff" /><g
   id="g286"><path
     inkscape:connector-curvature="0"
     class="st25"
     d="m 548.4,444.6 c 0,1.4 -1.1,2.6 -2.6,2.6 h -16.6 c -1.4,0 -2.6,-1.2 -2.6,-2.6 v -16.8 c 0,-1.4 1.1,-2.6 2.6,-2.6 h 16.6 c 1.4,0 2.6,1.2 2.6,2.6 v 16.8 z"
     id="path288"
     style="fill:#c0e6ff;stroke:#325c80;stroke-miterlimit:10" /><path
     inkscape:connector-curvature="0"
     class="st25"
     d="m 571.2,444.6 c 0,1.4 -1.1,2.6 -2.6,2.6 H 552 c -1.4,0 -2.6,-1.2 -2.6,-2.6 v -16.8 c 0,-1.4 1.1,-2.6 2.6,-2.6 h 16.6 c 1.4,0 2.6,1.2 2.6,2.6 v 16.8 z"
     id="path290"
     style="fill:#c0e6ff;stroke:#325c80;stroke-miterlimit:10" /><path
     inkscape:connector-curvature="0"
     class="st25"
     d="m 594.1,444.6 c 0,1.4 -1.1,2.6 -2.6,2.6 h -16.6 c -1.4,0 -2.6,-1.2 -2.6,-2.6 v -16.8 c 0,-1.4 1.1,-2.6 2.6,-2.6 h 16.6 c 1.4,0 2.6,1.2 2.6,2.6 v 16.8 z"
     id="path292"
     style="fill:#c0e6ff;stroke:#325c80;stroke-miterlimit:10" /><path
     inkscape:connector-curvature="0"
     class="st25"
     d="m 616.9,444.6 c 0,1.4 -1.1,2.6 -2.6,2.6 h -16.6 c -1.4,0 -2.6,-1.2 -2.6,-2.6 v -16.8 c 0,-1.4 1.1,-2.6 2.6,-2.6 h 16.6 c 1.4,0 2.6,1.2 2.6,2.6 v 16.8 z"
     id="path294"
     style="fill:#c0e6ff;stroke:#325c80;stroke-miterlimit:10" /></g><rect
   x="513.70001"
   y="411.10001"
   class="st10"
   width="117.2"
   height="36.299999"
   id="rect296"
   style="fill:none" /><rect
   x="591.70001"
   y="427.10001"
   class="st10"
   width="28.700001"
   height="15.3"
   id="rect300"
   style="fill:none" /><text
   transform="matrix(0.991,0,0,1,600.374,437.142)"
   class="st22 st12 st23 st24"
   id="text302"
   style="font-size:14px;letter-spacing:1;fill:#4178be;stroke:#94a3ab;stroke-miterlimit:10;font-family:HelvNeueMediumforIBM">...</text>

</g><line
   class="st3"
   x1="394"
   y1="38.900002"
   x2="658"
   y2="38.900002"
   id="line304"
   style="fill:none;stroke:#94a3ab;stroke-width:3;stroke-miterlimit:10;stroke-dasharray:8, 8" /><g
   id="g306"><line
     class="st27"
     x1="658"
     y1="38.900002"
     x2="658"
     y2="184.8"
     id="line308"
     style="fill:none;stroke:#94a3ab;stroke-width:3;stroke-linecap:round;stroke-linejoin:round;stroke-dasharray:8, 8" /><g
     id="g310"><polygon
       class="st4"
       points="665.5,182.6 650.5,182.6 658,195.5 "
       id="polygon312"
       style="fill:#94a3ab" /></g></g></g><g
   inkscape:groupmode="layer"
   id="layer2"
   inkscape:label="Text"
   style="display:inline"><text
   style="font-size:11.84632874px;-inkscape-font-specification:Helvetica Neue for IBM;font-family:Helvetica Neue for IBM;font-weight:normal;font-style:normal;font-stretch:normal;font-variant:normal;text-anchor:start;text-align:start;writing-mode:lr;line-height:125%"
   y="65.26133"
   x="300.74792"
   transform="scale(0.99548983,1.0045306)"
   id="text118"
   sodipodi:linespacing="125%"><tspan
     x="300.74792"
     y="65.26133"
     class="st11 st12 st13"
     id="tspan120"
     style="font-size:11.84632874px;fill:#1d3649;font-family:Helvetica Neue for IBM;-inkscape-font-specification:Helvetica Neue for IBM;font-weight:normal;font-style:normal;font-stretch:normal;font-variant:normal;text-anchor:start;text-align:start;writing-mode:lr;line-height:125%">Docker</tspan><tspan
     x="297.76144"
     y="80.990074"
     class="st11 st12 st13"
     id="tspan122"
     style="font-size:11.84632874px;fill:#1d3649;font-family:Helvetica Neue for IBM;-inkscape-font-specification:Helvetica Neue for IBM;font-weight:normal;font-style:normal;font-stretch:normal;font-variant:normal;text-anchor:start;text-align:start;writing-mode:lr;line-height:125%">レジストリー</tspan></text>

<text
   style="font-size:11.84632874px;-inkscape-font-specification:Helvetica Neue for IBM;font-family:Helvetica Neue for IBM;font-weight:normal;font-style:normal;font-stretch:normal;font-variant:normal;text-anchor:start;text-align:start;writing-mode:lr;line-height:125%"
   y="227.72696"
   x="83.742393"
   transform="scale(0.99548983,1.0045306)"
   id="text148"
   sodipodi:linespacing="125%"><tspan
     x="83.742393"
     y="227.72696"
     class="st11 st12 st13"
     id="tspan150"
     style="font-size:11.84632874px;fill:#1d3649;font-family:Helvetica Neue for IBM;-inkscape-font-specification:Helvetica Neue for IBM;font-weight:normal;font-style:normal;font-stretch:normal;font-variant:normal;text-anchor:start;text-align:start;writing-mode:lr;line-height:125%">セキュア </tspan><tspan
     x="73.588394"
     y="243.8539"
     class="st11 st12 st13"
     id="tspan152"
     style="font-size:11.84632874px;fill:#1d3649;font-family:Helvetica Neue for IBM;-inkscape-font-specification:Helvetica Neue for IBM;font-weight:normal;font-style:normal;font-stretch:normal;font-variant:normal;text-anchor:start;text-align:start;writing-mode:lr;line-height:125%">ゲートウェイ &amp;</tspan><tspan
     x="82.149612"
     y="259.98083"
     class="st11 st12 st13"
     id="tspan154"
     style="font-size:11.84632874px;fill:#1d3649;font-family:Helvetica Neue for IBM;-inkscape-font-specification:Helvetica Neue for IBM;font-weight:normal;font-style:normal;font-stretch:normal;font-variant:normal;text-anchor:start;text-align:start;writing-mode:lr;line-height:125%">ファイアウォール </tspan><tspan
     x="65.923126"
     y="276.10776"
     class="st11 st12 st13"
     id="tspan156"
     style="font-size:11.84632874px;fill:#1d3649;font-family:Helvetica Neue for IBM;-inkscape-font-specification:Helvetica Neue for IBM;font-weight:normal;font-style:normal;font-stretch:normal;font-variant:normal;text-anchor:start;text-align:start;writing-mode:lr;line-height:125%">(DataPower &amp;</tspan><tspan
     x="75.778473"
     y="292.23471"
     class="st11 st12 st13"
     id="tspan158"
     style="font-size:11.84632874px;fill:#1d3649;font-family:Helvetica Neue for IBM;-inkscape-font-specification:Helvetica Neue for IBM;font-weight:normal;font-style:normal;font-stretch:normal;font-variant:normal;text-anchor:start;text-align:start;writing-mode:lr;line-height:125%"> FortiGate)</tspan></text>

<text
   y="339.40073"
   x="300.40851"
   transform="scale(0.99548983,1.0045306)"
   class="st11 st12 st13"
   id="text230"
   style="font-size:11.84632874px;fill:#1d3649;font-family:Helvetica Neue for IBM;-inkscape-font-specification:Helvetica Neue for IBM;font-weight:normal;font-style:normal;font-stretch:normal;font-variant:normal;text-anchor:start;text-align:start;writing-mode:lr;line-height:125%"
   sodipodi:linespacing="125%">Web UI</text>

<text
   y="476.77802"
   x="286.17349"
   transform="scale(0.99548983,1.0045306)"
   class="st11 st12 st13"
   id="text170"
   style="font-size:11.84632874px;fill:#1d3649;font-family:Helvetica Neue for IBM;-inkscape-font-specification:Helvetica Neue for IBM;font-weight:normal;font-style:normal;font-stretch:normal;font-variant:normal;text-anchor:start;text-align:start;writing-mode:lr;line-height:125%"
   sodipodi:linespacing="125%">API サーバー</text>

<text
   style="font-size:11.84632874px;-inkscape-font-specification:Helvetica Neue for IBM;font-family:Helvetica Neue for IBM;font-weight:normal;font-style:normal;font-stretch:normal;font-variant:normal;text-anchor:start;text-align:start;writing-mode:lr;line-height:125%"
   y="280.73532"
   x="610.9444"
   transform="scale(0.99548983,1.0045306)"
   id="text238"
   sodipodi:linespacing="125%"><tspan
     x="610.9444"
     y="280.73532"
     class="st11 st12 st13"
     id="tspan240"
     style="font-size:11.84632874px;fill:#1d3649;font-family:Helvetica Neue for IBM;-inkscape-font-specification:Helvetica Neue for IBM;font-weight:normal;font-style:normal;font-stretch:normal;font-variant:normal;text-anchor:start;text-align:start;writing-mode:lr;line-height:125%">コントローラー </tspan><tspan
     x="616.5191"
     y="296.46405"
     class="st11 st12 st13"
     id="tspan242"
     style="font-size:11.84632874px;fill:#1d3649;font-family:Helvetica Neue for IBM;-inkscape-font-specification:Helvetica Neue for IBM;font-weight:normal;font-style:normal;font-stretch:normal;font-variant:normal;text-anchor:start;text-align:start;writing-mode:lr;line-height:125%">ノード</tspan></text>

<text
   style="font-size:11.84632874px;fill:#1d3649;font-family:Helvetica Neue for IBM;-inkscape-font-specification:Helvetica Neue for IBM;font-weight:normal;font-style:normal;font-stretch:normal;font-variant:normal;text-anchor:start;text-align:start;writing-mode:lr;line-height:125%"
   y="362.28873"
   x="609.05988"
   transform="scale(0.99548983,1.0045306)"
   class="st11 st12 st13"
   id="text246"
   sodipodi:linespacing="125%">コンテナー</text>

<text
   y="417.03427"
   x="534.90411"
   transform="scale(0.99548983,1.0045306)"
   class="st11 st12 st26"
   id="text298"
   style="font-size:11.84632874px;fill:#1d3649;font-family:Helvetica Neue for IBM;-inkscape-font-specification:Helvetica Neue for IBM;font-weight:normal;font-style:normal;font-stretch:normal;font-variant:normal;text-anchor:start;text-align:start;writing-mode:lr;line-height:125%"
   sodipodi:linespacing="125%">計算ノード</text>

<text
   y="546.67352"
   x="452.10538"
   transform="scale(0.99548983,1.0045306)"
   class="st11 st12 st13"
   id="text106"
   style="font-size:11.84632874px;fill:#1d3649;font-family:Helvetica Neue for IBM;-inkscape-font-specification:Helvetica Neue for IBM;font-weight:normal;font-style:normal;font-stretch:normal;font-variant:normal;text-anchor:start;text-align:start;writing-mode:lr;line-height:125%"
   sodipodi:linespacing="125%">ボリューム・サーバー</text>

<text
   style="font-size:11.84632874px;-inkscape-font-specification:Helvetica Neue for IBM;font-family:Helvetica Neue for IBM;font-weight:normal;font-style:normal;font-stretch:normal;font-variant:normal;text-anchor:start;text-align:start;writing-mode:lr;line-height:125%"
   y="558.36517"
   x="694.14038"
   transform="scale(0.99548983,1.0045306)"
   id="text182"
   sodipodi:linespacing="125%"><tspan
     x="694.14038"
     y="558.36517"
     class="st11 st12 st13"
     id="tspan184"
     style="font-size:11.84632874px;fill:#1d3649;font-family:Helvetica Neue for IBM;-inkscape-font-specification:Helvetica Neue for IBM;font-weight:normal;font-style:normal;font-stretch:normal;font-variant:normal;text-anchor:start;text-align:start;writing-mode:lr;line-height:125%">一貫性のある </tspan><tspan
     x="688.26703"
     y="574.89026"
     class="st11 st12 st13"
     id="tspan186"
     style="font-size:11.84632874px;fill:#1d3649;font-family:Helvetica Neue for IBM;-inkscape-font-specification:Helvetica Neue for IBM;font-weight:normal;font-style:normal;font-stretch:normal;font-variant:normal;text-anchor:start;text-align:start;writing-mode:lr;line-height:125%">パフォーマンス </tspan><tspan
     x="693.64264"
     y="591.51495"
     class="st11 st12 st13"
     id="tspan188"
     style="font-size:11.84632874px;fill:#1d3649;font-family:Helvetica Neue for IBM;-inkscape-font-specification:Helvetica Neue for IBM;font-weight:normal;font-style:normal;font-stretch:normal;font-variant:normal;text-anchor:start;text-align:start;writing-mode:lr;line-height:125%">(SoftLayer)</tspan></text>

<text
   style="font-size:11.84632874px;-inkscape-font-specification:Helvetica Neue for IBM;font-family:Helvetica Neue for IBM;font-weight:normal;font-style:normal;font-stretch:normal;font-variant:normal;text-anchor:start;text-align:start;writing-mode:lr;line-height:125%"
   y="144.49953"
   x="492.66037"
   transform="scale(0.99548983,1.0045306)"
   id="text136"
   sodipodi:linespacing="125%"><tspan
     x="492.66037"
     y="144.49953"
     class="st11 st12 st13"
     id="tspan138"
     style="font-size:11.84632874px;fill:#1d3649;font-family:Helvetica Neue for IBM;-inkscape-font-specification:Helvetica Neue for IBM;font-weight:normal;font-style:normal;font-stretch:normal;font-variant:normal;text-anchor:start;text-align:start;writing-mode:lr;line-height:125%">ビルド</tspan><tspan
     x="482.40683"
     y="158.83459"
     class="st11 st12 st13"
     id="tspan140"
     style="font-size:11.84632874px;fill:#1d3649;font-family:Helvetica Neue for IBM;-inkscape-font-specification:Helvetica Neue for IBM;font-weight:normal;font-style:normal;font-stretch:normal;font-variant:normal;text-anchor:start;text-align:start;writing-mode:lr;line-height:125%">サーバー</tspan></text>

</g>
</svg>
