<?xml version="1.0" encoding="UTF-8" standalone="no"?>
<svg
   xmlns:dc="http://purl.org/dc/elements/1.1/"
   xmlns:cc="http://creativecommons.org/ns#"
   xmlns:rdf="http://www.w3.org/1999/02/22-rdf-syntax-ns#"
   xmlns:svg="http://www.w3.org/2000/svg"
   xmlns="http://www.w3.org/2000/svg"
   xmlns:sodipodi="http://sodipodi.sourceforge.net/DTD/sodipodi-0.dtd"
   xmlns:inkscape="http://www.inkscape.org/namespaces/inkscape"
   viewBox="0 0 716.6 257"
   id="svg2"
   version="1.1"
   inkscape:version="0.91 r13725"
   sodipodi:docname="architecture_logmet.svg"
   inkscape:export-filename="F:\jordiserratosa\IBM\BM110\ABD068\S009\spa\BM110ABD068_SPA_packfin\monitoringandlogging\images\architecture_logmet.png"
   inkscape:export-xdpi="90.050003"
   inkscape:export-ydpi="90.050003">
  <metadata
     id="metadata293">
    <rdf:RDF>
      <cc:Work
         rdf:about="">
        <dc:format>image/svg+xml</dc:format>
        <dc:type
           rdf:resource="http://purl.org/dc/dcmitype/StillImage" />
      </cc:Work>
    </rdf:RDF>
  </metadata>
  <defs
     id="defs291" />
  <sodipodi:namedview
     pagecolor="#ffffff"
     bordercolor="#666666"
     borderopacity="1"
     objecttolerance="10"
     gridtolerance="10"
     guidetolerance="10"
     inkscape:pageopacity="0"
     inkscape:pageshadow="2"
     inkscape:window-width="1618"
     inkscape:window-height="1027"
     id="namedview289"
     showgrid="false"
     inkscape:zoom="1.8141223"
     inkscape:cx="389.87668"
     inkscape:cy="120.25932"
     inkscape:window-x="54"
     inkscape:window-y="-8"
     inkscape:window-maximized="1"
     inkscape:current-layer="svg2" />
  <style
     id="style4">.st0,.st1,.st2{fill:none;stroke:#000;stroke-miterlimit:10}.st1,.st2{stroke-dasharray:11.705,11.705}.st2{stroke-dasharray:12.3803,12.3803}.st3{fill:#fff}.st4,.st5{fill:none;stroke:#000;stroke-miterlimit:10;stroke-dasharray:11.3363,11.3363}.st5{stroke-dasharray:12.43,12.43}.st6{fill:#dfe6eb}.st7{fill:#8ac642}.st8{fill:#0baed1}.st9{fill:#06446a}.st10{fill:#6aa4d9}.st11{fill:#87c3eb}.st12{fill:none;stroke:#394b54;stroke-miterlimit:10}.st13{fill:#394b54}.st14,.st15{fill:none;stroke:#000;stroke-miterlimit:10;stroke-dasharray:11.5782,11.5782}.st15{stroke-dasharray:12.4345,12.4345}.st16{fill:#00b39f}.st17{fill:#86d0c8}.st18{fill:#fff;stroke:#394b54;stroke-miterlimit:10}.st19{fill:#eec11b}.st20{fill:#f47737}.st21{fill:#8ec73f}.st22{fill:#152935}.st23,.st24{fill:none;stroke:#00b39f;stroke-miterlimit:10}.st24{stroke:#eec11b}.st25{fill:#10212d}.st26{fill:#42535c}.st27{fill:#5b6872}.st28{fill:#87c3eb;stroke:#394b54;stroke-miterlimit:10}.st29{fill:#4278bd}.st30{fill:#fff;stroke:#1c3649;stroke-miterlimit:10}.st31{font-family:'HelvNeueRomanforIBM'}.st32{font-size:12px}.st33{font-family:'HelvNeueBoldforIBM'}.st34{font-size:14px}.st35{font-size:10px}</style>
  <switch
     id="switch6">
    <g
       id="g8">
      <g
         id="Visual_elements">
        <g
           id="XMLID_86_">
          <g
             id="XMLID_259_">
            <path
               id="XMLID_278_"
               class="st0"
               d="M568.8 204.9v6h-6" />
            <path
               id="XMLID_277_"
               class="st1"
               d="M551.1 210.9H252.6" />
            <path
               id="XMLID_276_"
               class="st0"
               d="M246.8 210.9h-6v-6" />
            <path
               id="XMLID_275_"
               class="st2"
               d="M240.8 192.5V99.6" />
            <path
               id="XMLID_274_"
               class="st0"
               d="M240.8 93.4v-6h6" />
            <path
               id="XMLID_262_"
               class="st1"
               d="M258.5 87.4h298.4" />
            <path
               id="XMLID_261_"
               class="st0"
               d="M562.8 87.4h6v6" />
            <path
               id="XMLID_260_"
               class="st2"
               d="M568.8 105.8v92.9" />
          </g>
        </g>
        <path
           id="XMLID_249_"
           class="st3"
           d="M561.6 124.2h19.2v27.4h-19.2z" />
        <path
           id="XMLID_115_"
           class="st3"
           d="M222.9 97.6h34.9V200h-34.9z" />
        <g
           id="XMLID_94_">
          <g
             id="XMLID_504_">
            <path
               id="XMLID_512_"
               class="st0"
               d="M123.3 204.9v6h-6" />
            <path
               id="XMLID_511_"
               class="st4"
               d="M106 210.9H21" />
            <path
               id="XMLID_510_"
               class="st0"
               d="M15.3 210.9h-6v-6" />
            <path
               id="XMLID_509_"
               class="st5"
               d="M9.3 192.4V99.2" />
            <path
               id="XMLID_508_"
               class="st0"
               d="M9.3 93v-6h6" />
            <path
               id="XMLID_507_"
               class="st4"
               d="M26.6 87h85.1" />
            <path
               id="XMLID_506_"
               class="st0"
               d="M117.3 87h6v6" />
            <path
               id="XMLID_505_"
               class="st5"
               d="M123.3 105.4v93.2" />
          </g>
        </g>
        <g
           id="XMLID_71_">
          <circle
             id="XMLID_30_"
             class="st6"
             cx="53.8"
             cy="132.5"
             r="20" />
          <g
             id="XMLID_2_">
            <g
               id="XMLID_3_">
              <g
                 id="XMLID_4_">
                <path
                   id="XMLID_28_"
                   class="st7"
                   d="M43.1 120.5h10.1v10.1H43.1z" />
                <path
                   id="XMLID_27_"
                   class="st8"
                   d="M43.1 131.8h10.1v10.1H43.1z" />
                <path
                   id="XMLID_26_"
                   class="st8"
                   d="M54.4 120.5h10.1v10.1H54.4z" />
                <path
                   id="XMLID_25_"
                   class="st7"
                   d="M54.4 131.8h10.1v10.1H54.4z" />
                <g
                   id="XMLID_20_">
                  <path
                     id="XMLID_24_"
                     class="st3"
                     d="M44.6 121.9h.6v7.4h-.6z" />
                  <path
                     id="XMLID_23_"
                     class="st3"
                     d="M51.1 121.9h.6v7.4h-.6z" />
                  <path
                     id="XMLID_22_"
                     class="st3"
                     d="M48.9 121.9h.6v7.4h-.6z" />
                  <path
                     id="XMLID_21_"
                     class="st3"
                     d="M46.8 121.9h.6v7.4h-.6z" />
                </g>
                <g
                   id="XMLID_15_">
                  <path
                     id="XMLID_19_"
                     class="st3"
                     d="M55.9 121.9h.6v7.4h-.6z" />
                  <path
                     id="XMLID_18_"
                     class="st3"
                     d="M62.4 121.9h.6v7.4h-.6z" />
                  <path
                     id="XMLID_17_"
                     class="st3"
                     d="M60.2 121.9h.6v7.4h-.6z" />
                  <path
                     id="XMLID_16_"
                     class="st3"
                     d="M58.1 121.9h.6v7.4h-.6z" />
                </g>
                <g
                   id="XMLID_10_">
                  <path
                     id="XMLID_14_"
                     class="st3"
                     d="M44.6 133.2h.6v7.4h-.6z" />
                  <path
                     id="XMLID_13_"
                     class="st3"
                     d="M51.1 133.2h.6v7.4h-.6z" />
                  <path
                     id="XMLID_12_"
                     class="st3"
                     d="M48.9 133.2h.6v7.4h-.6z" />
                  <path
                     id="XMLID_11_"
                     class="st3"
                     d="M46.8 133.2h.6v7.4h-.6z" />
                </g>
                <g
                   id="XMLID_5_">
                  <path
                     id="XMLID_9_"
                     class="st3"
                     d="M55.9 133.2h.6v7.4h-.6z" />
                  <path
                     id="XMLID_8_"
                     class="st3"
                     d="M62.4 133.2h.6v7.4h-.6z" />
                  <path
                     id="XMLID_7_"
                     class="st3"
                     d="M60.2 133.2h.6v7.4h-.6z" />
                  <path
                     id="XMLID_6_"
                     class="st3"
                     d="M58.1 133.2h.6v7.4h-.6z" />
                </g>
              </g>
              <path
                 id="XMLID_29_"
                 class="st9"
                 d="M67.6 144.6H40.1V139h1.4v4.1h24.6V139h1.5z" />
            </g>
          </g>
        </g>
        <path
           id="XMLID_32_"
           class="st10"
           d="M186.2 0h393.3v23.3H186.2z" />
        <path
           id="XMLID_35_"
           class="st11"
           d="M579.4 0h137.2v23.3H579.4z" />
        <g
           id="XMLID_46_">
          <g
             id="XMLID_110_">
            <path
               id="XMLID_116_"
               class="st12"
               d="M261.1 133.3h19.6" />
            <g
               id="XMLID_111_">
              <path
                 id="XMLID_112_"
                 class="st13"
                 d="M279.2 138.3l8.7-5-8.7-4.9z" />
            </g>
          </g>
        </g>
        <g
           id="XMLID_54_">
          <g
             id="XMLID_243_">
            <path
               id="XMLID_247_"
               class="st12"
               d="M336.9 133.4h19.5" />
            <g
               id="XMLID_244_">
              <path
                 id="XMLID_245_"
                 class="st13"
                 d="M355 138.4l8.6-5-8.6-5z" />
            </g>
          </g>
        </g>
        <g
           id="XMLID_69_">
          <g
             id="XMLID_231_">
            <path
               id="XMLID_239_"
               class="st12"
               d="M411 133.4h19.6" />
            <g
               id="XMLID_232_">
              <path
                 id="XMLID_235_"
                 class="st13"
                 d="M429.2 138.4l8.6-5-8.6-5z" />
            </g>
          </g>
        </g>
        <g
           id="XMLID_41_">
          <g
             id="XMLID_165_">
            <path
               id="XMLID_175_"
               class="st12"
               d="M482.3 133.4h19.6" />
            <g
               id="XMLID_166_">
              <path
                 id="XMLID_171_"
                 class="st13"
                 d="M500.5 138.4l8.6-5-8.6-5z" />
            </g>
          </g>
        </g>
        <g
           id="XMLID_88_">
          <g
             id="XMLID_236_">
            <path
               id="XMLID_257_"
               class="st0"
               d="M706.1 204.9v6h-6" />
            <path
               id="XMLID_256_"
               class="st14"
               d="M688.6 210.9h-86.9" />
            <path
               id="XMLID_255_"
               class="st0"
               d="M595.9 210.9h-6v-6" />
            <path
               id="XMLID_251_"
               class="st15"
               d="M589.9 192.4V99.2" />
            <path
               id="XMLID_250_"
               class="st0"
               d="M589.9 92.9v-6h6" />
            <path
               id="XMLID_248_"
               class="st14"
               d="M607.5 86.9h86.8" />
            <path
               id="XMLID_238_"
               class="st0"
               d="M700.1 86.9h6v6" />
            <path
               id="XMLID_237_"
               class="st15"
               d="M706.1 105.4v93.2" />
          </g>
        </g>
        <path
           id="XMLID_90_"
           class="st3"
           d="M600.9 75.7h94.3v25.2h-94.3z" />
        <g
           id="XMLID_463_">
          <circle
             id="XMLID_45_"
             class="st6"
             cx="624.1"
             cy="133.7"
             r="20" />
          <g
             id="XMLID_178_">
            <g
               id="XMLID_177_">
              <path
                 id="XMLID_174_"
                 class="st16"
                 d="M609.1 132.7h1v11.4h-1z" />
              <path
                 id="XMLID_176_"
                 class="st17"
                 d="M609.1 127.9h1v4.8h-1z" />
            </g>
            <g
               id="XMLID_179_">
              <path
                 id="XMLID_181_"
                 class="st16"
                 d="M610.8 129.5h1v14.6h-1z" />
              <path
                 id="XMLID_180_"
                 class="st17"
                 d="M610.8 123.4h1v6.1h-1z" />
            </g>
            <g
               id="XMLID_182_">
              <path
                 id="XMLID_184_"
                 class="st16"
                 d="M612.5 130.7h1V144h-1z" />
              <path
                 id="XMLID_183_"
                 class="st17"
                 d="M612.5 125.2h1v5.6h-1z" />
            </g>
            <g
               id="XMLID_185_">
              <path
                 id="XMLID_187_"
                 class="st16"
                 d="M614.2 131.6h1V144h-1z" />
              <path
                 id="XMLID_186_"
                 class="st17"
                 d="M614.2 126.4h1v5.2h-1z" />
            </g>
            <g
               id="XMLID_188_">
              <path
                 id="XMLID_190_"
                 class="st16"
                 d="M615.9 132.2h1V144h-1z" />
              <path
                 id="XMLID_189_"
                 class="st17"
                 d="M615.9 127.3h1v5h-1z" />
            </g>
            <g
               id="XMLID_191_">
              <path
                 id="XMLID_193_"
                 class="st16"
                 d="M617.6 131.6h1V144h-1z" />
              <path
                 id="XMLID_192_"
                 class="st17"
                 d="M617.6 126.4h1v5.2h-1z" />
            </g>
            <g
               id="XMLID_194_">
              <path
                 id="XMLID_196_"
                 class="st16"
                 d="M619.4 131.1h1V144h-1z" />
              <path
                 id="XMLID_195_"
                 class="st17"
                 d="M619.4 125.7h1v5.4h-1z" />
            </g>
            <g
               id="XMLID_197_">
              <path
                 id="XMLID_199_"
                 class="st16"
                 d="M621.1 133h1v11h-1z" />
              <path
                 id="XMLID_198_"
                 class="st17"
                 d="M621.1 128.4h1v4.6h-1z" />
            </g>
            <g
               id="XMLID_200_">
              <path
                 id="XMLID_202_"
                 class="st16"
                 d="M622.8 134h1v10.1h-1z" />
              <path
                 id="XMLID_201_"
                 class="st17"
                 d="M622.8 129.7h1v4.2h-1z" />
            </g>
            <g
               id="XMLID_203_">
              <path
                 id="XMLID_205_"
                 class="st16"
                 d="M624.5 134.9h1v9.1h-1z" />
              <path
                 id="XMLID_204_"
                 class="st17"
                 d="M624.5 131.1h1v3.8h-1z" />
            </g>
            <g
               id="XMLID_206_">
              <path
                 id="XMLID_208_"
                 class="st16"
                 d="M626.2 134.4h1v9.7h-1z" />
              <path
                 id="XMLID_207_"
                 class="st17"
                 d="M626.2 130.3h1v4.1h-1z" />
            </g>
            <g
               id="XMLID_209_">
              <path
                 id="XMLID_211_"
                 class="st16"
                 d="M627.9 133.5h1v10.6h-1z" />
              <path
                 id="XMLID_210_"
                 class="st17"
                 d="M627.9 129h1v4.4h-1z" />
            </g>
            <g
               id="XMLID_212_">
              <path
                 id="XMLID_214_"
                 class="st16"
                 d="M629.6 132.7h1v11.4h-1z" />
              <path
                 id="XMLID_213_"
                 class="st17"
                 d="M629.6 127.9h1v4.8h-1z" />
            </g>
            <g
               id="XMLID_215_">
              <path
                 id="XMLID_217_"
                 class="st16"
                 d="M631.3 133.5h1v10.6h-1z" />
              <path
                 id="XMLID_216_"
                 class="st17"
                 d="M631.3 129h1v4.4h-1z" />
            </g>
            <g
               id="XMLID_218_">
              <path
                 id="XMLID_220_"
                 class="st16"
                 d="M633 132.2h1V144h-1z" />
              <path
                 id="XMLID_219_"
                 class="st17"
                 d="M633 127.3h1v5h-1z" />
            </g>
            <g
               id="XMLID_221_">
              <path
                 id="XMLID_223_"
                 class="st16"
                 d="M634.7 131.6h1V144h-1z" />
              <path
                 id="XMLID_222_"
                 class="st17"
                 d="M634.7 126.4h1v5.2h-1z" />
            </g>
            <g
               id="XMLID_224_">
              <path
                 id="XMLID_226_"
                 class="st16"
                 d="M636.4 130.7h1V144h-1z" />
              <path
                 id="XMLID_225_"
                 class="st17"
                 d="M636.4 125.2h1v5.6h-1z" />
            </g>
            <g
               id="XMLID_227_">
              <path
                 id="XMLID_229_"
                 class="st16"
                 d="M638.1 129.5h1v14.6h-1z" />
              <path
                 id="XMLID_228_"
                 class="st17"
                 d="M638.1 123.4h1v6.1h-1z" />
            </g>
          </g>
        </g>
        <g
           id="XMLID_66_">
          <circle
             id="XMLID_60_"
             class="st6"
             cx="674.6"
             cy="133.4"
             r="20" />
          <g
             id="XMLID_61_">
            <path
               id="XMLID_62_"
               class="st18"
               d="M659.9 124.7h29.4v17.5h-29.4z" />
            <g
               id="XMLID_63_">
              <ellipse
                 id="XMLID_159_"
                 class="st17"
                 cx="667.5"
                 cy="133.2"
                 rx="6.2"
                 ry="6.1" />
              <path
                 id="XMLID_173_"
                 class="st19"
                 d="M667.5 133.4l2.4-5.8c1.3.6 2.4 1.6 3.1 2.8l-5.5 3z" />
              <path
                 id="XMLID_333_"
                 class="st20"
                 d="M667.5 133.4l5.5-2.9c.9 1.3.9 3.8.1 5.3l-5.6-2.4z" />
              <path
                 id="XMLID_64_"
                 class="st21"
                 d="M667.6 133.4l-.9-6.2c1.4 0 1.8 0 3.2.5l-2.3 5.7z" />
            </g>
            <g
               id="XMLID_65_">
              <path
                 id="XMLID_74_"
                 class="st22"
                 d="M675.3 128.8h11.9v.7h-11.9z" />
              <path
                 id="XMLID_77_"
                 class="st22"
                 d="M675.3 130.5h11.9v.7h-11.9z" />
              <path
                 id="XMLID_91_"
                 class="st22"
                 d="M675.3 132.3h11.9v.7h-11.9z" />
              <path
                 id="XMLID_124_"
                 class="st22"
                 d="M675.3 134.1h11.9v.7h-11.9z" />
              <path
                 id="XMLID_125_"
                 class="st22"
                 d="M675.3 135.8h11.9v.7h-11.9z" />
              <path
                 id="XMLID_133_"
                 class="st22"
                 d="M675.3 137.6h11.9v.7h-11.9z" />
            </g>
          </g>
        </g>
        <g
           id="XMLID_286_">
          <circle
             id="XMLID_53_"
             class="st6"
             cx="240.9"
             cy="133.3"
             r="20" />
          <g
             id="XMLID_82_">
            <path
               id="XMLID_50_"
               class="st16"
               d="M240.1 136.5h1.5v11.6h-1.5z" />
            <circle
               id="XMLID_81_"
               class="st16"
               cx="240.9"
               cy="135.6"
               r="2.9" />
            <path
               id="XMLID_93_"
               class="st23"
               d="M251.4 129.4c-5.8-5.8-15.2-5.8-20.9 0" />
            <path
               id="XMLID_95_"
               class="st23"
               d="M254.2 128c-7.4-7.4-19.3-7.4-26.6 0" />
            <path
               id="XMLID_99_"
               class="st23"
               d="M249.2 131.2c-4.6-4.6-12-4.6-16.6 0" />
            <path
               id="XMLID_100_"
               class="st23"
               d="M247.5 133.1c-3.7-3.7-9.6-3.7-13.3 0" />
          </g>
        </g>
        <g
           id="XMLID_285_">
          <circle
             id="XMLID_68_"
             class="st6"
             cx="316.6"
             cy="133.4"
             r="20" />
          <g
             id="XMLID_102_">
            <g
               id="XMLID_233_">
              <g
                 id="XMLID_155_">
                <path
                   id="XMLID_158_"
                   class="st24"
                   d="M304.9 133.8l11.8 11.7" />
                <g
                   id="XMLID_156_">
                  <path
                     id="XMLID_157_"
                     class="st19"
                     d="M314.8 146.5l3.9 1-1-3.8z" />
                </g>
              </g>
            </g>
            <g
               id="XMLID_234_">
              <g
                 id="XMLID_146_">
                <path
                   id="XMLID_152_"
                   class="st24"
                   d="M304.9 134.4l11.8-11.8" />
                <g
                   id="XMLID_150_">
                  <path
                     id="XMLID_151_"
                     class="st19"
                     d="M317.7 124.4l1-3.8-3.9 1z" />
                </g>
              </g>
            </g>
            <g
               id="XMLID_51_">
              <g
                 id="XMLID_141_">
                <path
                   id="XMLID_144_"
                   class="st24"
                   d="M305.8 133.8h19.6" />
                <g
                   id="XMLID_142_">
                  <path
                     id="XMLID_143_"
                     class="st19"
                     d="M324.8 135.8l3.5-2-3.5-2.1z" />
                </g>
              </g>
            </g>
            <g
               id="XMLID_83_">
              <g
                 id="XMLID_135_">
                <path
                   id="XMLID_139_"
                   class="st24"
                   d="M305.8 133.4l15.4-6.4" />
                <g
                   id="XMLID_137_">
                  <path
                     id="XMLID_138_"
                     class="st19"
                     d="M321.4 129l2.4-3.1-3.9-.5z" />
                </g>
              </g>
            </g>
            <g
               id="XMLID_101_">
              <g
                 id="XMLID_119_">
                <path
                   id="XMLID_131_"
                   class="st24"
                   d="M305.8 134.4l15.4 6.4" />
                <g
                   id="XMLID_129_">
                  <path
                     id="XMLID_130_"
                     class="st19"
                     d="M319.9 142.4l3.9-.5-2.4-3.2z" />
                </g>
              </g>
            </g>
          </g>
        </g>
        <g
           id="XMLID_283_">
          <circle
             id="XMLID_76_"
             class="st6"
             cx="390.8"
             cy="133.4"
             r="20" />
          <g
             id="XMLID_254_">
            <g
               id="XMLID_163_">
              <path
                 id="XMLID_478_"
                 class="st18"
                 d="M393.8 138.1h-13.2v-16.8h6.6l6.6 4.9z" />
              <g
                 id="XMLID_162_">
                <path
                   id="XMLID_480_"
                   class="st25"
                   d="M382.7 130.5h9.2v.7h-9.2z" />
                <path
                   id="XMLID_160_"
                   class="st25"
                   d="M382.7 133.7h9.2v.7h-9.2z" />
                <path
                   id="XMLID_161_"
                   class="st25"
                   d="M382.7 132.1h9.2v.7h-9.2z" />
              </g>
              <g
                 id="XMLID_78_">
                <path
                   id="XMLID_80_"
                   class="st25"
                   d="M382.7 128.9h9.2v.7h-9.2z" />
                <path
                   id="XMLID_79_"
                   class="st25"
                   d="M382.7 127.3h9.2v.7h-9.2z" />
              </g>
              <path
                 id="XMLID_479_"
                 class="st13"
                 d="M393.8 126H387.2v-4.9z" />
            </g>
            <g
               id="XMLID_103_">
              <path
                 id="XMLID_253_"
                 class="st18"
                 d="M400.4 146.3h-13.2v-16.8h6.6l6.6 4.9z" />
              <g
                 id="XMLID_136_">
                <path
                   id="XMLID_252_"
                   class="st25"
                   d="M389.3 138.7h9.2v.7h-9.2z" />
                <path
                   id="XMLID_246_"
                   class="st25"
                   d="M389.3 141.9h9.2v.7h-9.2z" />
                <path
                   id="XMLID_167_"
                   class="st25"
                   d="M389.3 140.3h9.2v.7h-9.2z" />
              </g>
              <g
                 id="XMLID_105_">
                <path
                   id="XMLID_134_"
                   class="st25"
                   d="M389.3 137.1h9.2v.7h-9.2z" />
                <path
                   id="XMLID_106_"
                   class="st25"
                   d="M389.3 135.5h9.2v.7h-9.2z" />
              </g>
              <path
                 id="XMLID_104_"
                 class="st26"
                 d="M400.4 134.2H393.8v-4.9z" />
            </g>
          </g>
        </g>
        <g
           id="XMLID_284_">
          <circle
             id="XMLID_92_"
             class="st6"
             cx="536.8"
             cy="133.4"
             r="20" />
          <g
             id="XMLID_170_">
            <path
               id="XMLID_172_"
               class="st27"
               d="M528.1 135.8v-.2c1.4-.4 2.3-1.6 2.3-3.1 0-1.8-1.5-3.2-3.3-3.2s-3.3 1.5-3.3 3.2c0 1.4.9 2.6 2.2 3v.3c-3.1 0-4.2 2-4.2 2v1.9h10.7v-1.9c-.2.1-1.3-2-4.4-2z" />
            <path
               id="XMLID_168_"
               class="st27"
               d="M537.9 129.2v-.2c1.4-.4 2.3-1.6 2.3-3.1 0-1.8-1.5-3.2-3.3-3.2-1.8 0-3.3 1.5-3.3 3.2 0 1.4.9 2.6 2.2 3v.3c-3.1 0-4.2 2-4.2 2v1.9h10.7v-1.9c-.2 0-1.3-2-4.4-2z" />
            <path
               id="XMLID_169_"
               class="st27"
               d="M547.8 135.8v-.2c1.4-.4 2.3-1.6 2.3-3.1 0-1.8-1.5-3.2-3.3-3.2-1.8 0-3.3 1.5-3.3 3.2 0 1.4.9 2.6 2.2 3v.3c-3.1 0-4.2 2-4.2 2v1.9h10.7v-1.9c-.2.1-1.3-2-4.4-2z" />
          </g>
        </g>
        <g
           id="XMLID_282_">
          <g
             id="XMLID_72_">
            <circle
               id="XMLID_55_"
               class="st6"
               cx="462.1"
               cy="133.4"
               r="20" />
          </g>
          <g
             id="XMLID_49_">
            <path
               id="XMLID_56_"
               class="st13"
               d="M450.5 145.4c-.7-.6-.8-1.7-.2-2.4l12.6-15.5c.6-.7 1.7-.8 2.4-.2.7.6.8 1.7.2 2.4l-12.6 15.5c-.6.7-1.7.8-2.4.2z" />
            <circle
               id="XMLID_84_"
               class="st28"
               cx="464.5"
               cy="128.3"
               r="7.5" />
            <path
               id="XMLID_85_"
               class="st12"
               d="M468.9 130c.9-1.7.3-3.8-1.4-4.7" />
          </g>
        </g>
        <path
           id="XMLID_70_"
           class="st3"
           d="M345.6 70.1h118.3V105H345.6z" />
        <path
           id="XMLID_271_"
           class="st29"
           d="M0 0h186.2v23.3H0z" />
        <g
           id="XMLID_31_">
          <g
             id="XMLID_75_">
            <path
               id="XMLID_96_"
               class="st12"
               d="M557.7 133.5h22.1" />
            <g
               id="XMLID_87_">
              <path
                 id="XMLID_89_"
                 class="st13"
                 d="M578.3 138.5l8.6-5-8.6-5z" />
            </g>
          </g>
        </g>
        <g
           id="XMLID_1_">
          <g
             id="XMLID_264_">
            <path
               id="XMLID_267_"
               class="st12"
               d="M73.8 133h134" />
            <g
               id="XMLID_265_">
              <path
                 id="XMLID_266_"
                 class="st13"
                 d="M206.4 138l8.6-5-8.6-4.9z" />
            </g>
          </g>
        </g>
        <path
           id="XMLID_38_"
           class="st30"
           d="M146.8 144.7H99.6c-1.8 0-3.3-1.5-3.3-3.3v-16.5c0-1.8 1.5-3.3 3.3-3.3h47.2c1.8 0 3.3 1.5 3.3 3.3v16.5c0 1.8-1.5 3.3-3.3 3.3z" />
        <path
           id="XMLID_58_"
           class="st3"
           d="M19.2 70h94.1v34.9H19.2z" />
      </g>
      <g
         id="Text">
        <text
           id="XMLID_309_"
           transform="translate(28.54 175.261)"
           class="st31 st32"
           style="-inkscape-font-specification:'HelvNeueRomanforIBM, Normal';font-family:HelvNeueRomanforIBM;font-weight:normal;font-style:normal;font-stretch:normal;font-variant:normal;font-size:12.00000048px;text-anchor:start;text-align:start;writing-mode:lr;line-height:125%;"
           sodipodi:linespacing="125%">
          <tspan
             sodipodi:role="line"
             id="tspan3625">Contenedor</tspan>
        </text>
        <text
           id="XMLID_308_"
           transform="translate(208.081 173.604)">
          <tspan
             x="0"
             y="0"
             class="st31 st32"
             id="tspan259">Lumberjack/</tspan>
          <tspan
             x="8.6"
             y="14.4"
             class="st31 st32"
             id="tspan261">Logstash</tspan>
        </text>
        <text
           id="XMLID_307_"
           transform="translate(290.102 173.604)"
           class="st31 st32">Kafka Bus</text>
        <text
           id="XMLID_306_"
           transform="translate(365.389 173.604)"
           class="st31 st32">LogStash</text>
        <text
           id="XMLID_305_"
           transform="translate(426.438 173.604)"
           class="st31 st32">ElasticSearch</text>
        <text
           id="XMLID_304_"
           transform="translate(603.278 173.466)"
           class="st31 st32">Grafana</text>
        <text
           id="XMLID_303_"
           transform="translate(656.463 173.465)"
           class="st31 st32">Kibana</text>
        <text
           id="XMLID_273_"
           class="st31 st32"
           style="font-style:normal;font-variant:normal;font-weight:normal;font-stretch:normal;font-size:12.00000095px;line-height:125%;font-family:HelvNeueRomanforIBM;-inkscape-font-specification:'HelvNeueRomanforIBM, Normal';text-align:center;writing-mode:lr-tb;text-anchor:middle"
           sodipodi:linespacing="125%"
           x="645.646"
           y="81.442001">
          <tspan
             sodipodi:role="line"
             id="tspan3645"
             x="645.646"
             y="81.442001">Interfaz</tspan>
          <tspan
             sodipodi:role="line"
             id="tspan3647"
             x="645.646"
             y="96.442001">de usuario</tspan>
        </text>
        <text
           id="XMLID_272_"
           transform="translate(507.852 173.604)">
          <tspan
             x="0"
             y="0"
             class="st31 st32"
             id="tspan270">Multitenant</tspan>
          <tspan
             x="14"
             y="14.4"
             class="st31 st32"
             id="tspan272">Proxy</tspan>
        </text>
        <text
           id="XMLID_36_"
           transform="translate(589.949 43.927)"
           class="st33 st34">IBM Bluemix</text>
        <text
           id="XMLID_270_"
           style="font-style:normal;font-variant:normal;font-weight:normal;font-stretch:normal;font-size:12.00000095px;line-height:125%;font-family:sans-serif;-inkscape-font-specification:'sans-serif, Normal';text-align:center;writing-mode:lr-tb;text-anchor:middle"
           sodipodi:linespacing="125%"
           x="408.09698"
           y="84.528">
          <tspan
             sodipodi:role="line"
             id="tspan3639"
             x="408.09698"
             y="84.528">Red privada</tspan>
          <tspan
             sodipodi:role="line"
             id="tspan3641"
             x="408.09698"
             y="99.528">de registro</tspan>
        </text>
        <text
           id="XMLID_301_"
           transform="translate(9.384 43.927)"
           class="st33 st34">IBM Bluemix Container Service</text>
        <text
           id="XMLID_300_"
           transform="translate(196.16 43.927)"
           class="st33 st34"
           style="-inkscape-font-specification:'HelvNeueBoldforIBM, Normal';font-family:HelvNeueBoldforIBM;font-weight:normal;font-style:normal;font-stretch:normal;font-variant:normal;font-size:13.99999976px;text-anchor:start;text-align:start;writing-mode:lr;line-height:125%;"
           sodipodi:linespacing="125%">
          <tspan
             sodipodi:role="line"
             id="tspan3637">Registro</tspan>
        </text>
        <text
           id="XMLID_269_"
           transform="translate(153.108 151.554)"
           class="st31 st35"
           style="-inkscape-font-specification:'HelvNeueRomanforIBM, Normal';font-family:HelvNeueRomanforIBM;font-weight:normal;font-style:normal;font-stretch:normal;font-variant:normal;font-size:10px;text-anchor:start;text-align:start;writing-mode:lr;line-height:125%;"
           sodipodi:linespacing="125%">
          <tspan
             sodipodi:role="line"
             id="tspan3635">Cifrado SSL</tspan>
        </text>
        <text
           id="XMLID_47_"
           style="font-style:normal;font-variant:normal;font-weight:normal;font-stretch:normal;font-size:12.00000095px;line-height:125%;font-family:sans-serif;-inkscape-font-specification:'sans-serif, Normal';text-align:center;writing-mode:lr-tb;text-anchor:middle"
           sodipodi:linespacing="125%"
           x="64.498001"
           y="82.786003">
          <tspan
             sodipodi:role="line"
             id="tspan3621"
             x="64.498001"
             y="82.786003">Red privada</tspan>
          <tspan
             sodipodi:role="line"
             id="tspan3623"
             x="64.498001"
             y="97.786003">de contenedores</tspan>
        </text>
        <text
           id="XMLID_153_"
           class="st31 st32"
           style="font-style:normal;font-variant:normal;font-weight:normal;font-stretch:normal;font-size:12.00000095px;line-height:89.99999762%;font-family:HelvNeueRomanforIBM;-inkscape-font-specification:'HelvNeueRomanforIBM, Normal';text-align:center;writing-mode:lr-tb;text-anchor:middle"
           sodipodi:linespacing="89.999998%"
           x="123.54"
           y="131.08099">
          <tspan
             sodipodi:role="line"
             id="tspan3629"
             x="123.54"
             y="131.08099">Rastrea-</tspan>
          <tspan
             sodipodi:role="line"
             id="tspan3631"
             x="123.54"
             y="141.881">dor</tspan>
        </text>
      </g>
    </g>
  </switch>
</svg>
