<?xml version="1.0" encoding="UTF-8" standalone="no"?>
<svg width="248px" height="248px" viewBox="0 0 248 248" version="1.1" xmlns="http://www.w3.org/2000/svg" xmlns:xlink="http://www.w3.org/1999/xlink" xmlns:sketch="http://www.bohemiancoding.com/sketch/ns">
    <title>containers-wrecked</title>
    <description>Created with Sketch (http://www.bohemiancoding.com/sketch)</description>
    <defs></defs>
    <g id="Page-1" stroke="none" stroke-width="1" fill="none" fill-rule="evenodd" sketch:type="MSPage">
        <g id="container-service" sketch:type="MSLayerGroup" transform="translate(8.000000, 29.000000)">
            <g id="Group" sketch:type="MSShapeGroup">
                <g transform="translate(8.000000, 0.000000)">
                    <g id="top-left" transform="translate(90.000000, 50.000000) rotate(27.000000) translate(-90.000000, -50.000000) translate(53.000000, 13.000000)">
                        <rect id="Rectangle" fill="#89C541" x="0" y="0" width="73.6" height="73.6"></rect>
                        <g id="Group" transform="translate(11.000000, 10.000000)" fill="#FFFFFF">
                            <rect id="Rectangle" x="0" y="0" width="4.4" height="53.5"></rect>
                            <rect id="Rectangle" x="47" y="0" width="4.4" height="53.5"></rect>
                            <rect id="Rectangle" x="31" y="0" width="4.4" height="53.5"></rect>
                            <rect id="Rectangle" x="16" y="0" width="4.4" height="53.5"></rect>
                        </g>
                    </g>
                    <g id="top-right" transform="translate(181.000000, 48.000000) rotate(15.000000) translate(-181.000000, -48.000000) translate(144.000000, 11.000000)">
                        <rect id="Rectangle" fill="#0BAED1" x="0" y="0" width="73.6" height="73.6"></rect>
                        <g id="Group" transform="translate(11.000000, 10.000000)" fill="#FFFFFF">
                            <rect id="Rectangle" x="0" y="0" width="4.4" height="53.5"></rect>
                            <rect id="Rectangle" x="47" y="0" width="4.4" height="53.5"></rect>
                            <rect id="Rectangle" x="31" y="0" width="4.4" height="53.5"></rect>
                            <rect id="Rectangle" x="16" y="0" width="4.4" height="53.5"></rect>
                        </g>
                    </g>
                    <g id="bottom-left" transform="translate(39.000000, 122.000000) rotate(-4.000000) translate(-39.000000, -122.000000) translate(2.000000, 85.000000)">
                        <rect id="Rectangle" fill="#0BAED1" x="0" y="0" width="73.6" height="73.6"></rect>
                        <g id="Group" transform="translate(11.000000, 10.000000)" fill="#FFFFFF">
                            <rect id="Rectangle" x="0" y="0" width="4.4" height="53.5"></rect>
                            <rect id="Rectangle" x="47" y="0" width="4.4" height="53.5"></rect>
                            <rect id="Rectangle" x="31" y="0" width="4.4" height="53.5"></rect>
                            <rect id="Rectangle" x="16" y="0" width="4.4" height="53.5"></rect>
                        </g>
                    </g>
                    <g id="bottom-right" transform="translate(147.000000, 116.000000) rotate(15.000000) translate(-147.000000, -116.000000) translate(110.000000, 79.000000)">
                        <rect id="Rectangle" fill="#0A4369" x="0" y="0" width="73.6" height="73.6"></rect>
                        <g id="Group" transform="translate(11.000000, 10.000000)" fill="#FFFFFF">
                            <rect id="Rectangle" x="0" y="0" width="4.4" height="53.5"></rect>
                            <rect id="Rectangle" x="47" y="0" width="4.4" height="53.5"></rect>
                            <rect id="Rectangle" x="31" y="0" width="4.4" height="53.5"></rect>
                            <rect id="Rectangle" x="16" y="0" width="4.4" height="53.5"></rect>
                        </g>
                    </g>
                </g>
                <path d="M200,171.6 L0,171.6 L0,131.1 L10.5,131.1 L10.5,161.2 L189.5,161.2 L189.5,131.1 L200,131.1 L200,171.6 Z" id="Shape" fill="#89C541"></path>
            </g>
        </g>
    </g>
</svg>
