<?xml version="1.0" encoding="utf-8"?>
<!-- Generator: Adobe Illustrator 15.1.0, SVG Export Plug-In . SVG Version: 6.00 Build 0)  -->
<!DOCTYPE svg PUBLIC "-//W3C//DTD SVG 1.1//EN" "http://www.w3.org/Graphics/SVG/1.1/DTD/svg11.dtd">
<svg version="1.1"
	 id="svg2" inkscape:version="0.48.5 r10040" sodipodi:docname="data_options.svg" inkscape:export-ydpi="71.488312" inkscape:export-xdpi="71.488312" inkscape:export-filename="C:\FileNet\Work\Current\IDCMS1\CPS\CloudOE\containers\images\data_options.png" xmlns:sodipodi="http://sodipodi.sourceforge.net/DTD/sodipodi-0.dtd" xmlns:dc="http://purl.org/dc/elements/1.1/" xmlns:cc="http://creativecommons.org/ns#" xmlns:rdf="http://www.w3.org/1999/02/22-rdf-syntax-ns#" xmlns:svg="http://www.w3.org/2000/svg" xmlns:inkscape="http://www.inkscape.org/namespaces/inkscape"
	 xmlns="http://www.w3.org/2000/svg" xmlns:xlink="http://www.w3.org/1999/xlink" x="0px" y="0px" width="612px" height="792px"
	 viewBox="0 0 612 792" enable-background="new 0 0 612 792" xml:space="preserve">
<title  id="title3323">Options for data and file storage</title>
<sodipodi:namedview  id="namedview47" inkscape:guide-bbox="true" inkscape:snap-global="false" fit-margin-bottom="0" fit-margin-right="0" inkscape:current-layer="layer2" inkscape:window-y="-9" inkscape:window-x="-9" inkscape:window-height="983" inkscape:pageshadow="2" inkscape:pageopacity="0" inkscape:window-width="1920" inkscape:window-maximized="1" showguides="true" fit-margin-left="0" fit-margin-top="0" inkscape:cy="264.07533" inkscape:cx="186.03508" inkscape:zoom="2.1" bordercolor="#666666" guidetolerance="10" borderopacity="1" gridtolerance="10" showgrid="false" pagecolor="#ffffff" objecttolerance="10">
	
		<inkscape:grid  type="xygrid" visible="true" enabled="true" originx="-15.79246px" id="grid3372" originy="-17.165693px" snapvisiblegridlinesonly="true" empspacing="5">
		</inkscape:grid>
</sodipodi:namedview>
<g id="layer1" transform="translate(259.17061,199.15266)" inkscape:groupmode="layer" inkscape:label="Graphics">
	<g id="Artwork-4" transform="translate(-191.1,1.1000031)">
	</g>
</g>
<g id="Artwork" transform="translate(259.17061,199.15266)">
</g>
<g id="layer2" transform="translate(259.17061,199.15266)" inkscape:groupmode="layer" inkscape:label="Text">
	
		<rect id="rect12-4-1" x="51.784" y="196.862" fill="#FFFFFF" stroke="#8ED8F8" stroke-width="2.126" stroke-linecap="round" stroke-linejoin="round" stroke-miterlimit="22.9256" width="291.3" height="299.989">
	<title  id="title3371-5-5">Space</title>
	</rect>
	
		<rect id="rect12-4" x="-251.237" y="197.406" fill="#FFFFFF" stroke="#8ED8F8" stroke-width="2.126" stroke-linecap="round" stroke-linejoin="round" stroke-miterlimit="22.9256" width="291.3" height="201.407">
	<title  id="title3371-5">Space</title>
	</rect>
	
		<rect id="rect12-7" x="-20.758" y="-74.136" fill="#FFFFFF" stroke="#8ED8F8" stroke-width="2.126" stroke-linecap="round" stroke-linejoin="round" stroke-miterlimit="22.9256" width="342.97" height="217.043">
	<title  id="title3371-4">Space</title>
	</rect>
	
		<rect id="rect12" x="-230.388" y="-73.496" fill="#FFFFFF" stroke="#8ED8F8" stroke-width="2.126" stroke-linecap="round" stroke-linejoin="round" stroke-miterlimit="22.9256" width="196.797" height="217.043">
	<title  id="title3371">Space</title>
	</rect>
	
		<rect id="rect10-4-2-8" x="-8.575" y="-37.14" fill="#FFFFFF" stroke="#0097D6" stroke-width="2.126" stroke-linecap="round" stroke-linejoin="round" stroke-miterlimit="22.9256" width="318.61" height="166.994">
	<title  id="title3217-8-1-5">Organization</title>
	</rect>
	<text transform="matrix(1 0 0 1 112.9722 -87.2454)" font-family="'HelvLight-Normal'" font-size="18.0843">Opción 2</text>
	
		<rect id="rect10-4-2" x="-219.087" y="-33.361" fill="#FFFFFF" stroke="#0097D6" stroke-width="2.126" stroke-linecap="round" stroke-linejoin="round" stroke-miterlimit="22.9256" width="174.502" height="163.215">
	<title  id="title3217-8-1">Organization</title>
	</rect>
	
		<path id="path16-4" inkscape:connector-curvature="0" fill="#8ED8F8" stroke="#8ED8F8" stroke-width="1.0001" stroke-miterlimit="22.9256" d="
		M-186.777,6.213h109.109c5.614,0,10.275,5.971,10.275,13.214v78.304c0,7.243-4.556,13.214-10.275,13.214h-109.109
		c-5.614,0-10.275-5.971-10.275-13.214V19.426C-196.947,12.183-192.391,6.213-186.777,6.213L-186.777,6.213z	">
<title  id="title3219-5">File share</title>
	</path>
	
		<path id="path16-4-1" inkscape:connector-curvature="0" fill="#8ED8F8" stroke="#8ED8F8" stroke-width="1.0001" stroke-miterlimit="22.9256" d="
		M22.03,9.186h102.51c5.274,0,9.654,5.635,9.654,12.472v73.906c0,6.836-4.28,12.472-9.654,12.472H22.03
		c-5.274,0-9.653-5.636-9.653-12.472V21.658C12.476,14.821,16.755,9.186,22.03,9.186z	">
<title  id="title3219-5-7">File share</title>
	</path>
	<g id="g3223-1-4" transform="translate(-288.41827,-228.01024)">
		<title  id="title3229-1-0">Files</title>
		
			<path id="path22-5-9" inkscape:connector-curvature="0" fill="#FFFFFF" stroke="#8ED8F8" stroke-width="1.0001" stroke-miterlimit="22.9256" d="
			M108.562,285.678h17.561c1.714,0,3.284,1.428,3.284,3.284v27.841c0,1.713-1.428,3.284-3.284,3.284h-17.561
			c-1.714,0-3.284-1.428-3.284-3.284v-27.841C105.278,287.249,106.848,285.678,108.562,285.678z"/>
		
			<path id="path24-2-4" inkscape:connector-curvature="0" fill="#FFFFFF" stroke="#8ED8F8" stroke-width="1.0001" stroke-miterlimit="22.9256" d="
			M134.404,285.678h17.561c1.714,0,3.284,1.428,3.284,3.284v27.841c0,1.713-1.428,3.284-3.284,3.284h-17.561
			c-1.714,0-3.284-1.428-3.284-3.284v-27.841C131.263,287.249,132.69,285.678,134.404,285.678z"/>
		
			<path id="path26-7-8" inkscape:connector-curvature="0" fill="#FFFFFF" stroke="#8ED8F8" stroke-width="1.0001" stroke-miterlimit="22.9256" d="
			M160.389,285.678h17.562c1.713,0,3.284,1.428,3.284,3.284v27.841c0,1.713-1.428,3.284-3.284,3.284h-17.562
			c-1.713,0-3.283-1.428-3.283-3.284v-27.841C157.105,287.249,158.533,285.678,160.389,285.678z"/>
		
			<path id="path28-6-8" inkscape:connector-curvature="0" fill="#FFFFFF" stroke="#8ED8F8" stroke-width="1.0001" stroke-miterlimit="22.9256" d="
			M186.231,285.678h17.561c1.714,0,3.284,1.428,3.284,3.284v27.841c0,1.713-1.428,3.284-3.284,3.284h-17.561
			c-1.714,0-3.284-1.428-3.284-3.284v-27.841C183.09,287.249,184.517,285.678,186.231,285.678z"/>
	</g>
	<g id="Text-2-2" transform="translate(-288.41826,-228.01024)">
		<text transform="matrix(1 0 0 1 134.286 308.7121)" font-family="'Helvetica'" font-size="17.1327">Datos</text>
	</g>
	
		<path id="path20-1-5" inkscape:connector-curvature="0" fill="#D1D3D4" stroke="#D1D3D4" stroke-width="1.0001" stroke-miterlimit="22.9256" d="
		M-132.369,409.995h110.222c4.283,0,7.853,3.569,7.853,7.853v70.244c0,4.283-3.569,7.853-7.853,7.853h-110.222
		c-4.283,0-7.853-3.569-7.853-7.853v-70.244C-140.221,413.564-136.652,409.995-132.369,409.995z	">
<title  id="title3221-7-1">Volume</title>
	</path>
	
		<path id="path14485" inkscape:connector-curvature="0" sodipodi:nodetypes="cc" fill="none" stroke="#000000" stroke-width="1.5" d="
		M134.758,58.435l17.709-0.098"/>
	
		<path id="path14-2-9" inkscape:connector-curvature="0" fill="#4AC7E9" stroke="#4AC7E9" stroke-width="1.0001" stroke-miterlimit="22.9256" d="
		M162.213,8.206h112.41c5.784,0,10.586,5.747,10.586,12.719v75.373c0,6.972-4.693,12.719-10.586,12.719h-112.41
		c-5.784,0-10.586-5.747-10.586-12.719V20.925C151.627,13.953,156.321,8.206,162.213,8.206z"/>
	
		<text id="text43-3-7" sodipodi:linespacing="125%" transform="matrix(1 0 0 1 183.0503 45.7175)" enable-background="new    " font-family="'HelvLight-Normal'" font-size="18.0843">Volumen</text>
	<g id="g3223-1-4-1" transform="translate(-42.812998,-227.59106)">
		<title  id="title3229-1-0-1">Files</title>
		
			<path id="path22-5-9-5" inkscape:connector-curvature="0" fill="#FFFFFF" stroke="#8ED8F8" stroke-width="1.0001" stroke-miterlimit="22.9256" d="
			M213.616,285.857h17.562c1.713,0,3.283,1.428,3.283,3.284v27.841c0,1.713-1.428,3.284-3.283,3.284h-17.562
			c-1.713,0-3.283-1.428-3.283-3.284v-27.841C210.333,287.428,211.903,285.857,213.616,285.857z"/>
		
			<path id="path24-2-4-2" inkscape:connector-curvature="0" fill="#FFFFFF" stroke="#8ED8F8" stroke-width="1.0001" stroke-miterlimit="22.9256" d="
			M239.458,285.857h17.562c1.713,0,3.284,1.428,3.284,3.284v27.841c0,1.713-1.428,3.284-3.284,3.284h-17.562
			c-1.713,0-3.283-1.428-3.283-3.284v-27.841C236.317,287.428,237.745,285.857,239.458,285.857z"/>
		
			<path id="path26-7-8-7" inkscape:connector-curvature="0" fill="#FFFFFF" stroke="#8ED8F8" stroke-width="1.0001" stroke-miterlimit="22.9256" d="
			M265.443,285.857h17.562c1.713,0,3.283,1.428,3.283,3.284v27.841c0,1.713-1.428,3.284-3.283,3.284h-17.562
			c-1.713,0-3.284-1.428-3.284-3.284v-27.841C262.159,287.428,263.587,285.857,265.443,285.857z"/>
		
			<path id="path28-6-8-6" inkscape:connector-curvature="0" fill="#FFFFFF" stroke="#8ED8F8" stroke-width="1.0001" stroke-miterlimit="22.9256" d="
			M291.285,285.857h17.562c1.713,0,3.283,1.428,3.283,3.284v27.841c0,1.713-1.428,3.284-3.283,3.284h-17.562
			c-1.713,0-3.283-1.428-3.283-3.284v-27.841C288.145,287.428,289.572,285.857,291.285,285.857z"/>
	</g>
	<g id="Text-2-2-1" transform="translate(-42.812988,-227.59106)">
		<text transform="matrix(1 0 0 1 240.3409 308.8915)" font-family="'Helvetica'" font-size="17.1327">Datos</text>
	</g>
	
		<text id="text39-2-3" sodipodi:linespacing="125%" transform="matrix(1 0 0 1 -179.0503 44.4352)" enable-background="new    " font-family="'HelvLight-Normal'" font-size="18.0843">Contenedor</text>
	
		<text id="text39-2-3-2" sodipodi:linespacing="125%" transform="matrix(1 0 0 1 23.6402 45.4841)" enable-background="new    " font-family="'HelvLight-Normal'" font-size="18.0843">Contenedor</text>
	<text transform="matrix(1 0 0 1 -161.7778 -86.429)" font-family="'HelvLight-Normal'" font-size="18.0843">Opción 1</text>
	
		<rect id="rect10-4-2-8-6" x="-227.74" y="232.187" fill="#FFFFFF" stroke="#0097D6" stroke-width="2.126" stroke-linecap="round" stroke-linejoin="round" stroke-miterlimit="22.9256" width="253.908" height="153.399">
	<title  id="title3217-8-1-5-1">Organization</title>
	</rect>
	<text transform="matrix(1 0 0 1 -140.8276 186.8122)" font-family="'HelvLight-Normal'" font-size="18.0843">Opción 3</text>
	
		<path id="path16-4-1-9" inkscape:connector-curvature="0" fill="#8ED8F8" stroke="#8ED8F8" stroke-width="1.0001" stroke-miterlimit="22.9256" d="
		M-205.038,274.591h81.062c4.171,0,7.634,5.133,7.634,11.359v67.31c0,6.227-3.384,11.358-7.634,11.358h-81.062
		c-4.171,0-7.634-5.132-7.634-11.358v-67.31C-212.592,279.724-209.208,274.591-205.038,274.591L-205.038,274.591z	">
<title  id="title3219-5-7-2">File share</title>
	</path>
	
		<path id="path15239-3" inkscape:connector-curvature="0" sodipodi:nodetypes="cc" fill="none" stroke="#000000" stroke-width="1.5" d="
		M-53.908,363.585l0.475,46.46"/>
	
		<path id="path20-1-5-7" inkscape:connector-curvature="0" fill="#D1D3D4" stroke="#D1D3D4" stroke-width="1.0001" stroke-miterlimit="22.9256" d="
		M-198.308,410.975H-9.145c7.351,0,13.477,3.569,13.477,7.853v70.244c0,4.283-6.126,7.853-13.477,7.853h-189.163
		c-7.351,0-13.477-3.569-13.477-7.853v-70.244C-211.785,414.545-205.659,410.975-198.308,410.975z	">
<title  id="title3221-7-1-9">Volume</title>
	</path>
	
		<path id="path14-2-9-8" inkscape:connector-curvature="0" fill="#4AC7E9" stroke="#4AC7E9" stroke-width="1.0001" stroke-miterlimit="22.9256" d="
		M-100.035,275.572h92.61c4.765,0,8.722,5.133,8.722,11.358v67.311c0,6.226-3.866,11.358-8.722,11.358h-92.61
		c-4.766,0-8.722-5.133-8.722-11.358V286.93C-108.756,280.705-104.89,275.572-100.035,275.572z"/>
	
		<text id="text43-3-7-5" sodipodi:linespacing="125%" transform="matrix(1 0 0 1 -89.0327 305.0251)" enable-background="new    " font-family="'HelvLight-Normal'" font-size="18.0843">Volumen</text>
	
		<path id="path22-5-9-5-1" inkscape:connector-curvature="0" fill="#FFFFFF" stroke="#8ED8F8" stroke-width="1.0001" stroke-miterlimit="22.9256" d="
		M-85.991,313.184h68.22c6.655,0,12.756,1.428,12.756,3.284v27.841c0,1.714-5.546,3.284-12.756,3.284h-68.22
		c-6.655,0-12.756-1.428-12.756-3.284v-27.841C-98.747,314.756-92.646,313.184-85.991,313.184z"/>
	<g id="Text-2-2-1-4" transform="translate(-229.30839,-49.043959)">
		<text transform="matrix(1 0 0 1 131.0228 385.2634)" font-family="'Helvetica'" font-size="17.1327">Arch. config.</text>
	</g>
	
		<text id="text39-2-3-2-3" sodipodi:linespacing="125%" transform="matrix(1 0 0 1 -212.8745 305.0075)" enable-background="new    " font-family="'HelvLight-Normal'" font-size="18.0843">Contenedor</text>
	<g id="g3223-1-4-1-4-8" transform="translate(-265.5799,45.67873)">
		<title  id="title3229-1-0-1-3-7">Files</title>
		
			<path id="path22-5-9-5-1-4" inkscape:connector-curvature="0" fill="#FFFFFF" stroke="#8ED8F8" stroke-width="1.0001" stroke-miterlimit="22.9256" d="
			M118.33,402.745h17.562c1.713,0,3.284,1.428,3.284,3.284v27.841c0,1.714-1.428,3.284-3.284,3.284H118.33
			c-1.713,0-3.283-1.428-3.283-3.284v-27.841C115.047,404.316,116.618,402.745,118.33,402.745z"/>
		
			<path id="path24-2-4-2-2-2" inkscape:connector-curvature="0" fill="#FFFFFF" stroke="#8ED8F8" stroke-width="1.0001" stroke-miterlimit="22.9256" d="
			M144.173,402.745h17.561c1.714,0,3.284,1.428,3.284,3.284v27.841c0,1.714-1.428,3.284-3.284,3.284h-17.561
			c-1.714,0-3.284-1.428-3.284-3.284v-27.841C141.032,404.316,142.459,402.745,144.173,402.745z"/>
		
			<path id="path26-7-8-7-3-7" inkscape:connector-curvature="0" fill="#FFFFFF" stroke="#8ED8F8" stroke-width="1.0001" stroke-miterlimit="22.9256" d="
			M170.158,402.745h17.562c1.713,0,3.283,1.428,3.283,3.284v27.841c0,1.714-1.428,3.284-3.283,3.284h-17.562
			c-1.713,0-3.284-1.428-3.284-3.284v-27.841C166.873,404.316,168.301,402.745,170.158,402.745L170.158,402.745z"/>
		
			<path id="path28-6-8-6-3-7" inkscape:connector-curvature="0" fill="#FFFFFF" stroke="#8ED8F8" stroke-width="1.0001" stroke-miterlimit="22.9256" d="
			M195.999,402.745h17.562c1.713,0,3.284,1.428,3.284,3.284v27.841c0,1.714-1.428,3.284-3.284,3.284h-17.562
			c-1.713,0-3.283-1.428-3.283-3.284v-27.841C192.859,404.316,194.286,402.745,195.999,402.745z"/>
	</g>
	<g id="Text-2-2-1-4-9" transform="translate(-265.57989,45.67873)">
		<text transform="matrix(1 0 0 1 143.055 425.78)" font-family="'Helvetica'" font-size="17.1327">Datos</text>
	</g>
	
		<text id="text43-3-7-5-6" sodipodi:linespacing="125%" transform="matrix(1 0 0 1 -183.9204 438.6452)" enable-background="new    " font-family="'HelvLight-Normal'" font-size="18.0843">Base de datos local</text>
	
		<path id="path20-1-5-5" inkscape:connector-curvature="0" fill="#D1D3D4" stroke="#D1D3D4" stroke-width="1.0001" stroke-miterlimit="22.9256" d="
		M174.598,382.996H284.82c4.283,0,7.853,3.569,7.853,7.853v70.245c0,4.283-3.569,7.853-7.853,7.853H174.598
		c-4.283,0-7.853-3.569-7.853-7.853v-70.245C166.746,386.565,170.315,382.996,174.598,382.996z	">
<title  id="title3221-7-1-0">Volume</title>
	</path>
	
		<rect id="rect10-4-2-8-6-2" x="77.267" y="231.697" fill="#FFFFFF" stroke="#0097D6" stroke-width="2.126" stroke-linecap="round" stroke-linejoin="round" stroke-miterlimit="22.9256" width="246.065" height="252.282">
	<title  id="title3217-8-1-5-1-8">Organization</title>
	</rect>
	
		<path id="path15239" inkscape:connector-curvature="0" sodipodi:nodetypes="cc" fill="none" stroke="#000000" stroke-width="1.5" d="
		M202.21,358.883l0.305,19.773"/>
	
		<path id="path12-8" inkscape:connector-curvature="0" fill="#0097D6" stroke="#0097D6" stroke-width="1.0001" stroke-miterlimit="22.9256" d="
		M112.878,377.073h180.055c9.266,0,16.957,4.908,16.957,10.863v64.378c0,5.955-7.518,10.864-16.957,10.864H112.878
		c-9.265,0-16.957-4.909-16.957-10.864v-64.378C95.921,381.981,103.614,377.073,112.878,377.073z"/>
	<text transform="matrix(1 0 0 1 151.9839 185.0505)" font-family="'HelvLight-Normal'" font-size="18.0843">Opción 4</text>
	
		<path id="path16-4-1-9-0" inkscape:connector-curvature="0" fill="#8ED8F8" stroke="#8ED8F8" stroke-width="1.0001" stroke-miterlimit="22.9256" d="
		M113.935,276.872h177.31c9.124,0,16.698,4.797,16.698,10.616V350.4c0,5.819-7.402,10.617-16.698,10.617h-177.31
		c-9.124,0-16.698-4.798-16.698-10.617v-62.912C97.409,281.669,104.811,276.872,113.935,276.872z	">
<title  id="title3219-5-7-2-2">File share</title>
	</path>
	
		<text id="text39-2-3-2-3-3" sodipodi:linespacing="125%" transform="matrix(1 0 0 1 154.8277 306.2214)" enable-background="new    " font-family="'HelvLight-Normal'" font-size="18.0843">Contenedor</text>
	<g id="g3223-1-4-1-4-8-4" transform="translate(-54.577537,22.76856)">
		<title  id="title3229-1-0-1-3-7-4">Files</title>
		
			<path id="path22-5-9-5-1-4-6" inkscape:connector-curvature="0" fill="#FFFFFF" stroke="#8ED8F8" stroke-width="1.0001" stroke-miterlimit="22.9256" d="
			M208.584,392.946h17.562c1.713,0,3.284,1.428,3.284,3.283v27.841c0,1.714-1.428,3.284-3.284,3.284h-17.562
			c-1.713,0-3.283-1.428-3.283-3.284v-27.841C205.301,394.516,206.871,392.946,208.584,392.946z"/>
		
			<path id="path24-2-4-2-2-2-0" inkscape:connector-curvature="0" fill="#FFFFFF" stroke="#8ED8F8" stroke-width="1.0001" stroke-miterlimit="22.9256" d="
			M234.427,392.946h17.561c1.714,0,3.284,1.428,3.284,3.283v27.841c0,1.714-1.428,3.284-3.284,3.284h-17.561
			c-1.714,0-3.284-1.428-3.284-3.284v-27.841C231.285,394.516,232.713,392.946,234.427,392.946z"/>
		
			<path id="path26-7-8-7-3-7-6" inkscape:connector-curvature="0" fill="#FFFFFF" stroke="#8ED8F8" stroke-width="1.0001" stroke-miterlimit="22.9256" d="
			M260.411,392.946h17.562c1.713,0,3.283,1.428,3.283,3.283v27.841c0,1.714-1.428,3.284-3.283,3.284h-17.562
			c-1.713,0-3.284-1.428-3.284-3.284v-27.841C257.127,394.516,258.555,392.946,260.411,392.946z"/>
		
			<path id="path28-6-8-6-3-7-6" inkscape:connector-curvature="0" fill="#FFFFFF" stroke="#8ED8F8" stroke-width="1.0001" stroke-miterlimit="22.9256" d="
			M286.253,392.946h17.562c1.713,0,3.284,1.428,3.284,3.283v27.841c0,1.714-1.428,3.284-3.284,3.284h-17.562
			c-1.713,0-3.283-1.428-3.283-3.284v-27.841C283.112,394.516,284.54,392.946,286.253,392.946z"/>
	</g>
	<g id="Text-2-2-1-4-9-1" transform="translate(-54.577527,22.76856)">
		<text transform="matrix(1 0 0 1 234.3095 415.9802)" font-family="'Helvetica'" font-size="17.1327">Datos</text>
	</g>
	
		<text id="text43-3-7-5-6-9" sodipodi:linespacing="125%" transform="matrix(1 0 0 1 125.6451 392.9352)" enable-background="new    "><tspan x="0" y="0" font-family="'HelvLight-Normal'" font-size="18.0843">Servicio de base de </tspan><tspan x="10.552" y="21.701" font-family="'HelvLight-Normal'" font-size="18.0843">datos de Bluemix </tspan></text>
	<g id="flowRoot3665" transform="translate(-259.17061,-14.15714)">
	</g>
	
		<path id="path14485-9-1" inkscape:connector-curvature="0" sodipodi:nodetypes="cc" fill="none" stroke="#000000" stroke-width="1.5" d="
		M-117.624,320.407l8.341,0.244"/>
	<text transform="matrix(1 0 0 1 -221.8618 -48.6019)" font-family="'HelvLight-Normal'" font-size="17.4896">Organization</text>
	<text transform="matrix(1 0 0 1 -205.0835 -9.8782)" font-family="'HelvLight-Normal'" font-size="17.4896">Espacio</text>
	<text transform="matrix(1 0 0 1 -6.1137 -49.2415)" font-family="'HelvLight-Normal'" font-size="17.4896">Organización</text>
	<text transform="matrix(1 0 0 1 10.6646 -10.5179)" font-family="'HelvLight-Normal'" font-size="17.4896">Espacio</text>
	<text transform="matrix(1 0 0 1 -242.7104 219.5817)" font-family="'HelvLight-Normal'" font-size="17.4896">Organización</text>
	<text transform="matrix(1 0 0 1 -217.3657 261.1608)" font-family="'HelvLight-Normal'" font-size="17.4896">Espacio</text>
	<text transform="matrix(1 0 0 1 60.9898 220.3972)" font-family="'HelvLight-Normal'" font-size="17.4896">Organización</text>
	<text transform="matrix(1 0 0 1 97.0767 255.0417)" font-family="'HelvLight-Normal'" font-size="17.4896">Espacio</text>
</g>
</svg>
