<?xml version="1.0" encoding="utf-8"?>
<!-- Generator: Adobe Illustrator 19.0.0, SVG Export Plug-In . SVG Version: 6.00 Build 0)  -->
<svg version="1.1" id="Layer_1" xmlns="http://www.w3.org/2000/svg" xmlns:xlink="http://www.w3.org/1999/xlink" x="0px" y="0px"
	 viewBox="0 0 107 97" style="enable-background:new 0 0 107 97;" xml:space="preserve">
<style type="text/css">
	.st0{fill:none;stroke:#4F4E52;stroke-width:3;stroke-linecap:round;stroke-linejoin:round;stroke-miterlimit:10;}
	.st1{fill:none;stroke:#4F4E52;stroke-width:3;stroke-linejoin:round;stroke-miterlimit:10;}
</style>
<g>
	<g>
		<path class="st0" d="M22.5,58.1c0,0-0.7,0.1-1.4,0.3c-0.8,0.1-1.7-1-1.9-2.5l-5.6-31.6c-0.3-1.5,0.8-3,2.3-3.3l54.8-9.7
			c1.5-0.3,3,0.8,3.3,2.3l3.9,22.4"/>
		<line class="st0" x1="15.2" y1="33.6" x2="75.6" y2="22.9"/>
	</g>
	<path class="st0" d="M92.4,78.7c0,1.6-1.3,2.8-2.8,2.8H33.9c-1.6,0-2.8-1.3-2.8-2.8V46.6c0-1.6,1.3-2.8,2.8-2.8h55.7
		c1.6,0,2.8,1.3,2.8,2.8V78.7z"/>
	<g>
		<line class="st1" x1="37.1" y1="61.2" x2="46.3" y2="61.2"/>
		<line class="st1" x1="50.4" y1="61.2" x2="59.7" y2="61.2"/>
		<line class="st1" x1="63.8" y1="61.2" x2="73" y2="61.2"/>
		<line class="st1" x1="77.1" y1="61.2" x2="86.4" y2="61.2"/>
	</g>
	<path class="st0" d="M81.2,68.3c-0.8,0-3.5,0-4.4,0c-1.9,0-3.4,1.5-3.4,3.4c0,1.9,1.5,3.4,3.4,3.4c0.8,0,3.5,0,4.4,0
		c1.9,0,3.4-1.5,3.4-3.4C84.6,69.9,83.1,68.3,81.2,68.3z"/>
</g>
</svg>
