<svg id="Layer_1" data-name="Layer 1" xmlns="http://www.w3.org/2000/svg" viewBox="0 0 4086 1996.69995"><defs><style>.cls-1{fill:#0f6fff;}.cls-2{isolation:isolate;}</style></defs><title>logo-red-hat-openshift-on-ibm-cloud-light-01</title><g id="Layer_1-2" data-name="Layer 1-2"><path d="M0,584.4c0,26.9,14.8,53.7,44.3,74.1L739,1138c59.1,40.8,155.8,40.8,214.9,0L1648.7,658.7c29.6-20.4,44.3-47.3,44.3-74.1V1412.7c0,26.9-14.8,53.7-44.3,74.1L953.9,1966.09985c-59.1,40.8-155.8,40.8-214.9,0L44.3,1486.7C14.8,1466.3,0,1439.4,0,1412.5Z"/><path class="cls-1" d="M0,584.4c0,26.9,14.8,53.7,44.3,74.1L537,998.5,739.1,859.1c59.1-40.8,155.8-40.8,214.9,0l202,139.5,492.7-339.9c29.6-20.4,44.3-47.3,44.3-74.1v-.4c0-26.9-14.8-53.8-44.3-74.1L954,30.6c-59.1-40.8-155.8-40.8-214.9,0L44.3,509.9C14.8,530.3,0,557.2,0,584Z"/><g class="cls-2"><g class="cls-2"><path d="M1825.7793,587.44043h-33.59961V308.24023h111.2002q36.79688,0,57.39941,20.40039,20.59717,20.39941,20.60059,58.7998,0,30.80566-14.2002,50.59961-14.20312,19.80029-41.7998,26.2002l64,123.2002h-38l-60.40039-120H1825.7793Zm77.60059-148.7998q19.99658,0,31-10.40039,10.99658-10.396,11-29.59961v-20.7998q0-19.20117-11-29.60059-11.00684-10.396-31-10.39941H1825.7793v100.7998Z"/></g><g class="cls-2"><path d="M2116.58008,592.24023q-21.20654,0-38.20019-7.59961a82.247,82.247,0,0,1-29.20019-21.7998,99.93,99.93,0,0,1-18.79981-34q-6.60059-19.80029-6.60059-44.60059,0-24.394,6.60059-44.39941a99.70509,99.70509,0,0,1,18.79981-34.2002,82.38544,82.38544,0,0,1,29.20019-21.7998q16.99658-7.59375,38.20019-7.60059,20.79346,0,37.19922,7.5752a82.46423,82.46423,0,0,1,28,20.93164,93.30309,93.30309,0,0,1,17.80078,31.6875,125.08374,125.08374,0,0,1,6.19922,40.25586v15.15039H2057.37988v9.59961a70.5902,70.5902,0,0,0,4.20019,24.59961,58.40607,58.40607,0,0,0,12,19.80078A54.81344,54.81344,0,0,0,2092.7793,559.04a65.92669,65.92669,0,0,0,25.80078,4.80078q19.59375,0,34.19922-9.2002,14.59717-9.19775,22.60059-26.40039l22.79981,16.50684q-10.00342,21.33691-31.2002,34.41211Q2145.77295,592.2373,2116.58008,592.24023Zm0-189.2002a60.93568,60.93568,0,0,0-24,4.5752,53.94582,53.94582,0,0,0-18.60059,12.91895,60.5869,60.5869,0,0,0-12.20019,19.6748,68.016,68.016,0,0,0-4.39941,24.85059v2.78125h114v-4.375q0-27.43213-15-43.92578Q2141.37988,403.04,2116.58008,403.04Z"/><path d="M2390.57813,554.22168h-1.59961q-18.80713,38.02441-60.40039,38.01855a78.45941,78.45941,0,0,1-34.79981-7.59961A75.47574,75.47574,0,0,1,2267.17871,563.04q-11.00684-13.99658-16.80078-34-5.80225-19.99658-5.79981-44.7998,0-24.79687,5.79981-44.7998,5.79492-19.99658,16.80078-34a75.61129,75.61129,0,0,1,26.59961-21.59961,78.45985,78.45985,0,0,1,34.79981-7.60059q21.60059,0,37,9.30664,15.394,9.30908,23.40039,28.71191h1.59961V291.44043h32v296h-32Zm-53.20019,9.61914a74.34746,74.34746,0,0,0,20.60059-2.8125,51.57615,51.57615,0,0,0,17-8.24414,40.17583,40.17583,0,0,0,11.39941-13.2627,37.30121,37.30121,0,0,0,4.20019-17.89355v-77.1875a31.81121,31.81121,0,0,0-4.20019-15.88086,39.63933,39.63933,0,0,0-11.39941-12.66309,57.60337,57.60337,0,0,0-17-8.2373,69.60312,69.60312,0,0,0-20.60059-3.01855q-27.20654,0-42.79981,17.08691-15.59912,17.08154-15.59961,44.8252v35.375q0,27.75,15.59961,44.83105Q2310.17871,563.84033,2337.37793,563.84082Z"/><path d="M2762.96973,454.64063h-141.2002v132.7998h-33.59961V308.24023h33.59961V425.04h141.2002V308.24023h33.59961v279.2002h-33.59961Z"/><path d="M3017.76367,587.44043q-18,0-25.79981-9.59961-7.80029-9.60059-9.79981-24h-2q-6.80713,19.19971-22.40039,28.7998-15.60059,9.59912-37.20019,9.59961-32.80225,0-51-16.7998-18.20654-16.80029-18.2002-45.59961,0-29.19434,21.40039-44.80078,21.394-15.59912,66.59961-15.59961h40.80078V449.04q0-21.99316-12-33.59961-12-11.59717-36.80078-11.59961-18.80566,0-31.39941,8.39941a69.23186,69.23186,0,0,0-21,22.40039l-19.20019-18q8.39941-16.80029,26.79981-28.60059,18.394-11.79346,46.40039-11.7998,37.59375,0,58.39941,18.3623,20.79492,18.35742,20.80078,51.08789V559.04h23.59961v28.40039Zm-92-22.40039a81.34336,81.34336,0,0,0,22-2.7998,53.83743,53.83743,0,0,0,17.20019-8,39.57928,39.57928,0,0,0,11.20019-12,28.69873,28.69873,0,0,0,4-14.7998v-34h-42.40039q-27.60059,0-40.20019,8-12.59912,8.00684-12.59961,23.2002V533.04q0,15.20654,11,23.60059Q2906.96045,565.04,2925.76367,565.04Z"/><path d="M3126.96191,587.44043q-16.79883,0-25.39941-9.375-8.606-9.375-8.60059-24.5498V409.44043h-34V381.04h19.20019q10.39746,0,14.2002-4.19922,3.79688-4.20117,3.7998-14.60059V323.84082h28.79981V381.04h45.20019v28.40039h-45.20019V559.04h42v28.40039Z"/></g></g><g class="cls-2"><path d="M1896.58008,1132.74023q-27.20654,0-49-9.39941a99.79974,99.79974,0,0,1-37.20019-27.60059q-15.40283-18.19629-23.79981-45.2002-8.40088-27-8.40039-62.19971,0-35.19434,8.40039-62,8.39941-26.79492,23.79981-45.2002a99.04423,99.04423,0,0,1,37.20019-27.7998q21.79688-9.394,49-9.40039,26.79346,0,48.79981,9.40039a98.79315,98.79315,0,0,1,37.39941,27.7998q15.394,18.40283,23.80078,45.2002,8.39941,26.80225,8.39941,62,0,35.20386-8.39941,62.19971-8.40088,27-23.80078,45.2002a99.54478,99.54478,0,0,1-37.39941,27.60059Q1923.37647,1132.7334,1896.58008,1132.74023Zm0-29.59961a84.447,84.447,0,0,0,33.19922-6.41894,74.136,74.136,0,0,0,26.20019-18.46875,84.07,84.07,0,0,0,17-28.90039q6-16.856,6-37.73047v-46.563q0-20.86963-6-37.73145a84.134,84.134,0,0,0-17-28.90039,74.2049,74.2049,0,0,0-26.20019-18.46191,88.97838,88.97838,0,0,0-66.39941,0,74.10022,74.10022,0,0,0-26.2002,18.46191,84.02637,84.02637,0,0,0-17,28.90039q-6,16.856-6,37.73145v46.563q0,20.877,6,37.73047a83.96253,83.96253,0,0,0,17,28.90039,74.03154,74.03154,0,0,0,26.2002,18.46875A84.43116,84.43116,0,0,0,1896.58008,1103.14063Z"/><path d="M2072.17676,921.53955h32V954.7583h1.59961q7.998-19.40625,23.40039-28.71191,15.394-9.30029,37-9.30664a78.45685,78.45685,0,0,1,34.7998,7.60059,75.675,75.675,0,0,1,26.60059,21.59961q10.99658,14.00684,16.79981,34,5.79346,20.00684,5.79981,44.80029,0,24.80713-5.79981,44.7998-5.80371,20.00684-16.79981,34a75.53917,75.53917,0,0,1-26.60059,21.60059,78.4564,78.4564,0,0,1-34.7998,7.59961q-42,0-60.40039-38.01855h-1.59961v113.21875h-32Zm85.20019,182.80127q27.19629,0,42.79981-17.082,15.60058-17.08008,15.59961-44.83105v-35.375q0-27.74048-15.59961-44.82568-15.60059-17.08008-42.79981-17.08691a69.57,69.57,0,0,0-20.60059,3.01855,57.53266,57.53266,0,0,0-17,8.2373,39.63932,39.63932,0,0,0-11.39941,12.66309,31.8112,31.8112,0,0,0-4.20019,15.88086v77.188a37.3012,37.3012,0,0,0,4.20019,17.89355,40.17582,40.17582,0,0,0,11.39941,13.2627,51.51978,51.51978,0,0,0,17,8.24414A74.312,74.312,0,0,0,2157.377,1104.34082Z"/><path d="M2381.77051,1132.74023q-21.20508,0-38.19922-7.59961a82.247,82.247,0,0,1-29.20019-21.79981,99.93,99.93,0,0,1-18.79981-34q-6.60059-19.80029-6.60059-44.60059,0-24.394,6.60059-44.3999a99.70509,99.70509,0,0,1,18.79981-34.2002,82.38544,82.38544,0,0,1,29.20019-21.7998q16.99658-7.59375,38.19922-7.60059,20.79492,0,37.20019,7.5752a82.46423,82.46423,0,0,1,28,20.93164,93.28486,93.28486,0,0,1,17.79981,31.6875,125.05981,125.05981,0,0,1,6.20019,40.25635v15.15039H2322.57129v9.59961a70.61246,70.61246,0,0,0,4.19922,24.59961,58.437,58.437,0,0,0,12,19.80078A54.82633,54.82633,0,0,0,2357.9707,1099.54a65.92517,65.92517,0,0,0,25.79981,4.80078q19.59375,0,34.20019-9.20019,14.59717-9.19775,22.60059-26.40039l22.79981,16.50684q-10.00342,21.33692-31.2002,34.41211Q2410.96436,1132.73731,2381.77051,1132.74023Zm0-189.20068a60.94251,60.94251,0,0,0-24,4.5752,53.95114,53.95114,0,0,0-18.59961,12.91895,60.5869,60.5869,0,0,0-12.20019,19.6748,68.01672,68.01672,0,0,0-4.39941,24.85107v2.78125h114v-4.375q0-27.43286-15-43.92627Q2406.57129,943.53955,2381.77051,943.53955Z"/><path d="M2523.76953,1127.94043V921.53955h32V954.7583h1.59961q7.59375-17.41846,21.40039-27.71875,13.80029-10.29346,37-10.2998,31.99658,0,50.59961,20.60059,18.60058,20.606,18.60059,58.19922v132.40088h-32v-127.0752q0-55.72485-46.79981-55.7251a71.857,71.857,0,0,0-18.60059,2.40625,54.13867,54.13867,0,0,0-16.20019,7.21875,35.67147,35.67147,0,0,0-11.39941,12.22461,34.80137,34.80137,0,0,0-4.2002,17.4375v143.51318Z"/><path d="M2832.56641,1132.74023q-34.002,0-58-13a123.04671,123.04671,0,0,1-40.7998-35.7998l24.7998-20.79981q14.79492,19.60254,32.80078,29.79981,18,10.19971,42.39941,10.20019,30,0,45.7998-14.40039,15.79688-14.39941,15.80078-38.39941,0-19.998-12-30.80078-12-10.79883-39.60059-17.19922l-22.79981-5.20068q-38.39941-8.79346-58.59961-26.60059-20.20312-17.79346-20.2002-50.19922,0-18.394,6.79981-32.80078a65.78828,65.78828,0,0,1,19-24,85.8276,85.8276,0,0,1,29.20019-14.59961,132.24889,132.24889,0,0,1,37.39941-5q31.59375,0,54.2002,11.59961,22.59375,11.60742,38.20019,34l-25.20019,18.40039a87.02218,87.02218,0,0,0-28-25.2002q-16.40625-9.19629-40.79981-9.2002-26.80371,0-42.20019,11.40039-15.40283,11.39941-15.39941,34.2002,0,20.00537,13,30.2002,12.99316,10.19971,39.39941,16.19922l22.7998,5.2002q41.19434,9.20654,59.60059,28.00049,18.394,18.80713,18.39941,50a88.46427,88.46427,0,0,1-6.59961,34.7998,71.40673,71.40673,0,0,1-19,26.40039,88.36633,88.36633,0,0,1-30.20019,16.7998Q2854.96436,1132.74023,2832.56641,1132.74023Z"/><path d="M2983.36426,831.93994h32V954.7583h1.59961q7.59375-17.41846,21.40039-27.71875,13.80029-10.29346,37-10.2998,31.99658,0,50.59961,20.60059,18.60059,20.606,18.60059,58.19922v132.40088h-32v-127.0752q0-55.72485-46.79981-55.7251a71.857,71.857,0,0,0-18.60059,2.40625,54.13867,54.13867,0,0,0-16.20019,7.21875,35.67148,35.67148,0,0,0-11.39941,12.22461,34.80137,34.80137,0,0,0-4.20019,17.4375v143.51318h-32Z"/><path d="M3226.56152,873.14014q-10.40625,0-15-5-4.60254-4.99658-4.59961-13v-5.2002q0-7.99658,4.59961-13,4.59375-4.99658,15-5,10.39746,0,15,5,4.59375,5.00684,4.59961,13v5.2002q0,8.00537-4.59961,13Q3236.959,873.14551,3226.56152,873.14014Zm-16,48.39941h32v206.40088h-32Z"/><path d="M3321.76172,949.93994h-33.60059V921.53955h33.60059V879.93994q0-21.60059,11.20019-34.7998,11.19287-13.19971,34-13.2002h31.19922v28.40039h-44.39941v61.19922h44.39941v28.40039h-44.39941v178.00049h-32Z"/><path d="M3485.75684,1127.94043q-16.79883,0-25.39941-9.375-8.606-9.375-8.60059-24.54981V949.93994h-34V921.53955H3436.957q10.39746,0,14.2002-4.19922,3.79688-4.20117,3.7998-14.60059V864.34033h28.79981v57.19922H3528.957v28.40039h-45.20019V1099.54h42v28.40039Z"/><path d="M3752.9541,1132.74023a93.04183,93.04183,0,0,1-38-7.59961,81.82944,81.82944,0,0,1-29.40039-21.79981,102.59138,102.59138,0,0,1-19-34q-6.80566-19.80029-6.79981-44.60059,0-24.394,6.79981-44.3999a102.32288,102.32288,0,0,1,19-34.2002,81.96549,81.96549,0,0,1,29.40039-21.7998,93.04219,93.04219,0,0,1,38-7.60059,91.69084,91.69084,0,0,1,37.7998,7.60059,84.40472,84.40472,0,0,1,29.40039,21.7998,100.65738,100.65738,0,0,1,19.20019,34.2002q6.79688,20.00537,6.79981,44.3999,0,24.80713-6.79981,44.60059a100.913,100.913,0,0,1-19.20019,34,84.26,84.26,0,0,1-29.40039,21.79981A91.69052,91.69052,0,0,1,3752.9541,1132.74023Zm0-28.39941q25.99658,0,42.40039-16,16.396-15.99463,16.39941-48.80078v-29.59961q0-32.79419-16.39941-48.80029-16.40625-15.99463-42.40039-16-26.00684,0-42.40039,16-16.40625,16.00342-16.39941,48.80029V1039.54q0,32.80371,16.39941,48.80078Q3726.95117,1104.34277,3752.9541,1104.34082Z"/><path d="M3898.95215,1127.94043V921.53955h32V954.7583h1.59961q7.59375-17.41846,21.40039-27.71875,13.80029-10.29346,37-10.2998,31.99658,0,50.59961,20.60059,18.60058,20.606,18.60059,58.19922v132.40088h-32v-127.0752q0-55.72485-46.79981-55.7251a71.857,71.857,0,0,0-18.60059,2.40625,54.13867,54.13867,0,0,0-16.20019,7.21875,35.67147,35.67147,0,0,0-11.39941,12.22461,34.80137,34.80137,0,0,0-4.2002,17.4375v143.51318Z"/></g><g class="cls-2"><path d="M1774.98,1662.44043V1614.04h36V1431.64063h-36v-48.40039h132.7998v48.40039h-36V1614.04h36v48.40039Z"/><path d="M1958.57666,1383.24023h135.60107q34.79883,0,54.19922,19.60059,19.39746,19.60254,19.40039,52,0,16.002-4.20117,27.19922a52.36669,52.36669,0,0,1-11.19922,18.40039,42.96265,42.96265,0,0,1-16.40039,10.59961,66.04115,66.04115,0,0,1-20.19922,3.80078v2.39941a67.53194,67.53194,0,0,1,21,3.60059,59.82587,59.82587,0,0,1,20.19922,11.39941,63.0396,63.0396,0,0,1,15.40039,20.2002q6.19629,12.40283,6.19922,30.40039a88.6265,88.6265,0,0,1-5.39844,31,79.08826,79.08826,0,0,1-15,25.39941,69.94516,69.94516,0,0,1-22.80078,17,66.82861,66.82861,0,0,1-28.80078,6.2002H1958.57666Zm60.80029,114.40039h60.40039q12,0,18.79883-6.79981,6.79688-6.79687,6.80078-18.80078v-12q0-12-6.80078-18.7998-6.80567-6.79687-18.79883-6.7998H2019.377Zm0,113.59961h70q12,0,19-6.59961,6.99316-6.60059,7-18.60059v-13.59961q0-12-7-18.59961-7.002-6.60058-19-6.60059h-70Z"/><path d="M2434.17383,1479.24023h-1.19922l-20.40039,40.7998-54.40039,98.80078-53.19922-98.40039-21.20117-44h-1.19922v186H2225.373v-279.2002h64.40039l68.40039,130.7998h.80078l67.59961-130.7998H2491.373v279.2002h-57.19922Z"/><path d="M2760.16406,1667.24023q-28.40625,0-51.19922-9a101.43412,101.43412,0,0,1-38.80078-26.7998q-16.002-17.79346-24.80078-44.40039-8.80078-26.5957-8.79883-62.19922,0-35.19433,8.79883-62.60059,8.79492-27.394,24.80078-46a103.37539,103.37539,0,0,1,38.80078-28.2002q22.79883-9.59912,51.19922-9.59961,38.79492,0,64,15.7998,25.20117,15.80713,40.40039,49.7998l-52.40039,27.2002q-5.60742-17.59717-17.40039-28.2002-11.80371-10.59375-34.59961-10.59961-26.80371,0-43,17.40039-16.20117,17.39942-16.19922,50.59961v44.7998q0,33.20654,16.19922,50.60059,16.20117,17.39942,43,17.39941,22.39746,0,35.80078-12.2002a74.13935,74.13935,0,0,0,19.79883-29.39941l49.59961,28.79981q-15.59766,32.00683-41,49.40039Q2798.957,1667.24024,2760.16406,1667.24023Z"/><path d="M2963.35938,1662.44043q-30.4043,0-44.60156-14.79981-14.20312-14.79346-14.19922-42.79981V1366.44043h59.19922v250h26.40039v46Z"/><path d="M3110.95508,1667.24023q-23.20312,0-41.39844-7.59961a82.52286,82.52286,0,0,1-30.80078-22q-12.60058-14.40088-19.40039-34.79981-6.80567-20.40088-6.79883-45.60059,0-25.19971,6.79883-45.59961,6.79688-20.40088,19.40039-34.60059a83.686,83.686,0,0,1,30.80078-21.7998q18.19629-7.59375,41.39844-7.59961,23.19434,0,41.40039,7.59961a83.75032,83.75032,0,0,1,30.80078,21.7998q12.60059,14.20313,19.40039,34.60059,6.79688,20.39941,6.79883,45.59961,0,25.19971-6.79883,45.60059-6.80859,20.39942-19.40039,34.79981a82.58526,82.58526,0,0,1-30.80078,22Q3134.15039,1667.23438,3110.95508,1667.24023Zm0-46.7998q17.59863,0,27.20117-10.79981,9.60059-10.80029,9.59961-30.79981V1536.04q0-19.99658-9.59961-30.7998-9.60059-10.80029-27.20117-10.7998-17.60449,0-27.19922,10.7998-9.60058,10.80029-9.59961,30.7998v42.80078q0,20.00537,9.59961,30.79981Q3093.35645,1620.44092,3110.95508,1620.44043Z"/><path d="M3375.35352,1627.24023h-2a72.9497,72.9497,0,0,1-7.39844,15.2002,50.96615,50.96615,0,0,1-11.80078,12.7998,55.33123,55.33123,0,0,1-17,8.7998,72.88109,72.88109,0,0,1-22.59961,3.2002q-32.39942,0-49-21.39941-16.60254-21.394-16.59961-61.40039v-132h59.19922v126.7998q0,19.19971,6.80078,29.60059,6.79688,10.40625,23.19922,10.39941a47.85583,47.85583,0,0,0,13.59961-2,38.51336,38.51336,0,0,0,12-5.7998,29.88082,29.88082,0,0,0,8.40039-9.40039,26.16747,26.16747,0,0,0,3.19922-13.19922V1452.44043h59.20117v210h-59.20117Z"/><path d="M3618.55273,1627.24023h-2a52.44126,52.44126,0,0,1-7.60156,15.7998,54.67121,54.67121,0,0,1-12.59961,12.80078,58.48418,58.48418,0,0,1-16.79883,8.39941,63.45919,63.45919,0,0,1-19.40039,3q-40.00488,0-60.40039-28.2002-20.39941-28.19971-20.40039-81.7998,0-53.59717,20.40039-81.59961,20.39941-27.99463,60.40039-28a61.06318,61.06318,0,0,1,36.19922,11.20019q15.79688,11.20313,20.20117,28.79981h2V1366.44043H3677.752v296h-59.19922Zm-38.80078-8q16.79883,0,27.80078-8.2002,10.99512-8.19287,11-22.59961v-62q0-14.39942-11-22.59961-11.00683-8.19433-27.80078-8.20019-16.79883,0-27.80078,11.79981-11.00391,11.80371-11,31.7998v36.40039q0,20.00537,11,31.79981Q3562.94922,1619.24414,3579.752,1619.24023Z"/></g></g></svg>