<?xml version="1.0" encoding="utf-8"?>
<!-- Generator: Adobe Illustrator 22.0.1, SVG Export Plug-In . SVG Version: 6.00 Build 0)  -->
<svg version="1.1" xmlns="http://www.w3.org/2000/svg" xmlns:xlink="http://www.w3.org/1999/xlink" x="0px" y="0px"
	 viewBox="-121 152 716.6 257" style="enable-background:new -121 152 716.6 257;" xml:space="preserve">
<style type="text/css">
	.st0{fill:none;stroke:#000000;stroke-miterlimit:10;}
	.st1{fill:none;stroke:#000000;stroke-miterlimit:10;stroke-dasharray:11.705,11.705;}
	.st2{fill:none;stroke:#000000;stroke-miterlimit:10;stroke-dasharray:12.3803,12.3803;}
	.st3{fill:#FFFFFF;}
	.st4{fill:none;stroke:#000000;stroke-miterlimit:10;stroke-dasharray:11.3363,11.3363;}
	.st5{fill:none;stroke:#000000;stroke-miterlimit:10;stroke-dasharray:12.43,12.43;}
	.st6{fill:#DFE6EB;}
	.st7{fill:#8AC642;}
	.st8{fill:#0BAED1;}
	.st9{fill:#06446A;}
	.st10{fill:#6AA4D9;}
	.st11{fill:#87C3EB;}
	.st12{fill:none;stroke:#394B54;stroke-miterlimit:10;}
	.st13{fill:#394B54;}
	.st14{fill:none;stroke:#000000;stroke-miterlimit:10;stroke-dasharray:11.5782,11.5782;}
	.st15{fill:none;stroke:#000000;stroke-miterlimit:10;stroke-dasharray:12.4345,12.4345;}
	.st16{fill:#00B39F;}
	.st17{fill:#86D0C8;}
	.st18{fill:#FFFFFF;stroke:#394B54;stroke-miterlimit:10;}
	.st19{fill:#EEC11B;}
	.st20{fill:#F47737;}
	.st21{fill:#8EC73F;}
	.st22{fill:#152935;}
	.st23{fill:none;stroke:#00B39F;stroke-miterlimit:10;}
	.st24{fill:none;stroke:#EEC11B;stroke-miterlimit:10;}
	.st25{fill:#10212D;}
	.st26{fill:#42535C;}
	.st27{fill:#5B6872;}
	.st28{fill:#87C3EB;stroke:#394B54;stroke-miterlimit:10;}
	.st29{fill:#4278BD;}
	.st30{fill:#FFFFFF;stroke:#1C3649;stroke-miterlimit:10;}
	.st31{font-family:'HelvNeueRomanforIBM';}
	.st32{font-size:12px;}
	.st33{enable-background:new    ;}
	.st34{font-size:14px;}
	.st35{font-size:10px;}
	.st36{fill:#231F20;}
</style>
<g id="Layer_1">
	<g id="XMLID_86_">
		<g id="XMLID_259_">
			<path id="XMLID_278_" class="st0" d="M447.8,356.9v6h-6"/>
			<path id="XMLID_277_" class="st1" d="M430.1,362.9H131.6"/>
			<path id="XMLID_276_" class="st0" d="M125.8,362.9h-6v-6"/>
			<path id="XMLID_275_" class="st2" d="M119.8,344.5v-92.9"/>
			<path id="XMLID_274_" class="st0" d="M119.8,245.4v-6h6"/>
			<path id="XMLID_262_" class="st1" d="M137.5,239.4h298.4"/>
			<path id="XMLID_261_" class="st0" d="M441.8,239.4h6v6"/>
			<path id="XMLID_260_" class="st2" d="M447.8,257.8v92.9"/>
		</g>
	</g>
	<path id="XMLID_249_" class="st3" d="M440.6,276.2h19.2v27.4h-19.2V276.2z"/>
	<path id="XMLID_115_" class="st3" d="M101.9,249.6h34.9V352h-34.9V249.6z"/>
	<g id="XMLID_94_">
		<g id="XMLID_504_">
			<path id="XMLID_512_" class="st0" d="M2.3,356.9v6h-6"/>
			<path id="XMLID_511_" class="st4" d="M-15,362.9h-85"/>
			<path id="XMLID_510_" class="st0" d="M-105.7,362.9h-6v-6"/>
			<path id="XMLID_509_" class="st5" d="M-111.7,344.4v-93.2"/>
			<path id="XMLID_508_" class="st0" d="M-111.7,245v-6h6"/>
			<path id="XMLID_507_" class="st4" d="M-94.4,239h85.1"/>
			<path id="XMLID_506_" class="st0" d="M-3.7,239h6v6"/>
			<path id="XMLID_505_" class="st5" d="M2.3,257.4v93.2"/>
		</g>
	</g>
	<g id="XMLID_71_">
		<circle id="XMLID_30_" class="st6" cx="-67.2" cy="284.5" r="20"/>
		<g id="XMLID_2_">
			<g id="XMLID_3_">
				<g id="XMLID_4_">
					<path id="XMLID_28_" class="st7" d="M-77.9,272.5h10.1v10.1h-10.1V272.5z"/>
					<path id="XMLID_27_" class="st8" d="M-77.9,283.8h10.1v10.1h-10.1V283.8z"/>
					<path id="XMLID_26_" class="st8" d="M-66.6,272.5h10.1v10.1h-10.1V272.5z"/>
					<path id="XMLID_25_" class="st7" d="M-66.6,283.8h10.1v10.1h-10.1V283.8z"/>
					<g id="XMLID_20_">
						<path id="XMLID_24_" class="st3" d="M-76.4,273.9h0.6v7.4h-0.6V273.9z"/>
						<path id="XMLID_23_" class="st3" d="M-69.9,273.9h0.6v7.4h-0.6V273.9z"/>
						<path id="XMLID_22_" class="st3" d="M-72.1,273.9h0.6v7.4h-0.6V273.9z"/>
						<path id="XMLID_21_" class="st3" d="M-74.2,273.9h0.6v7.4h-0.6V273.9z"/>
					</g>
					<g id="XMLID_15_">
						<path id="XMLID_19_" class="st3" d="M-65.1,273.9h0.6v7.4h-0.6V273.9z"/>
						<path id="XMLID_18_" class="st3" d="M-58.6,273.9h0.6v7.4h-0.6V273.9z"/>
						<path id="XMLID_17_" class="st3" d="M-60.8,273.9h0.6v7.4h-0.6V273.9z"/>
						<path id="XMLID_16_" class="st3" d="M-62.9,273.9h0.6v7.4h-0.6V273.9z"/>
					</g>
					<g id="XMLID_10_">
						<path id="XMLID_14_" class="st3" d="M-76.4,285.2h0.6v7.4h-0.6V285.2z"/>
						<path id="XMLID_13_" class="st3" d="M-69.9,285.2h0.6v7.4h-0.6V285.2z"/>
						<path id="XMLID_12_" class="st3" d="M-72.1,285.2h0.6v7.4h-0.6V285.2z"/>
						<path id="XMLID_11_" class="st3" d="M-74.2,285.2h0.6v7.4h-0.6V285.2z"/>
					</g>
					<g id="XMLID_5_">
						<path id="XMLID_9_" class="st3" d="M-65.1,285.2h0.6v7.4h-0.6V285.2z"/>
						<path id="XMLID_8_" class="st3" d="M-58.6,285.2h0.6v7.4h-0.6V285.2z"/>
						<path id="XMLID_7_" class="st3" d="M-60.8,285.2h0.6v7.4h-0.6V285.2z"/>
						<path id="XMLID_6_" class="st3" d="M-62.9,285.2h0.6v7.4h-0.6V285.2z"/>
					</g>
				</g>
				<path id="XMLID_29_" class="st9" d="M-53.4,296.6h-27.5V291h1.4v4.1h24.6V291h1.5V296.6z"/>
			</g>
		</g>
	</g>
	<path id="XMLID_32_" class="st10" d="M81,152h377.5v23.3H81V152z"/>
	<path id="XMLID_35_" class="st11" d="M458.4,152h137.2v23.3H458.4V152z"/>
	<g id="XMLID_46_">
		<g id="XMLID_110_">
			<path id="XMLID_116_" class="st12" d="M140.1,285.3h19.6"/>
			<g id="XMLID_111_">
				<path id="XMLID_112_" class="st13" d="M158.2,290.3l8.7-5l-8.7-4.9V290.3z"/>
			</g>
		</g>
	</g>
	<g id="XMLID_54_">
		<g id="XMLID_243_">
			<path id="XMLID_247_" class="st12" d="M215.9,285.4h19.5"/>
			<g id="XMLID_244_">
				<path id="XMLID_245_" class="st13" d="M234,290.4l8.6-5l-8.6-5V290.4z"/>
			</g>
		</g>
	</g>
	<g id="XMLID_69_">
		<g id="XMLID_231_">
			<path id="XMLID_239_" class="st12" d="M290,285.4h19.6"/>
			<g id="XMLID_232_">
				<path id="XMLID_235_" class="st13" d="M308.2,290.4l8.6-5l-8.6-5V290.4z"/>
			</g>
		</g>
	</g>
	<g id="XMLID_41_">
		<g id="XMLID_165_">
			<path id="XMLID_175_" class="st12" d="M361.3,285.4h19.6"/>
			<g id="XMLID_166_">
				<path id="XMLID_171_" class="st13" d="M379.5,290.4l8.6-5l-8.6-5V290.4z"/>
			</g>
		</g>
	</g>
	<g id="XMLID_88_">
		<g id="XMLID_236_">
			<path id="XMLID_257_" class="st0" d="M585.1,356.9v6h-6"/>
			<path id="XMLID_256_" class="st14" d="M567.6,362.9h-86.9"/>
			<path id="XMLID_255_" class="st0" d="M474.9,362.9h-6v-6"/>
			<path id="XMLID_251_" class="st15" d="M468.9,344.4v-93.2"/>
			<path id="XMLID_250_" class="st0" d="M468.9,244.9v-6h6"/>
			<path id="XMLID_248_" class="st14" d="M486.5,238.9h86.8"/>
			<path id="XMLID_238_" class="st0" d="M579.1,238.9h6v6"/>
			<path id="XMLID_237_" class="st15" d="M585.1,257.4v93.2"/>
		</g>
	</g>
	<path id="XMLID_90_" class="st3" d="M479.9,227.7h94.3v25.2h-94.3V227.7z"/>
	<g id="XMLID_463_">
		<circle id="XMLID_45_" class="st6" cx="503.1" cy="285.7" r="20"/>
		<g id="XMLID_178_">
			<g id="XMLID_177_">
				<path id="XMLID_174_" class="st16" d="M488.1,284.7h1v11.4h-1V284.7z"/>
				<path id="XMLID_176_" class="st17" d="M488.1,279.9h1v4.8h-1V279.9z"/>
			</g>
			<g id="XMLID_179_">
				<path id="XMLID_181_" class="st16" d="M489.8,281.5h1v14.6h-1V281.5z"/>
				<path id="XMLID_180_" class="st17" d="M489.8,275.4h1v6.1h-1V275.4z"/>
			</g>
			<g id="XMLID_182_">
				<path id="XMLID_184_" class="st16" d="M491.5,282.7h1V296h-1V282.7z"/>
				<path id="XMLID_183_" class="st17" d="M491.5,277.2h1v5.6h-1V277.2z"/>
			</g>
			<g id="XMLID_185_">
				<path id="XMLID_187_" class="st16" d="M493.2,283.6h1V296h-1V283.6z"/>
				<path id="XMLID_186_" class="st17" d="M493.2,278.4h1v5.2h-1V278.4z"/>
			</g>
			<g id="XMLID_188_">
				<path id="XMLID_190_" class="st16" d="M494.9,284.2h1V296h-1V284.2z"/>
				<path id="XMLID_189_" class="st17" d="M494.9,279.3h1v5h-1V279.3z"/>
			</g>
			<g id="XMLID_191_">
				<path id="XMLID_193_" class="st16" d="M496.6,283.6h1V296h-1V283.6z"/>
				<path id="XMLID_192_" class="st17" d="M496.6,278.4h1v5.2h-1V278.4z"/>
			</g>
			<g id="XMLID_194_">
				<path id="XMLID_196_" class="st16" d="M498.4,283.1h1V296h-1V283.1z"/>
				<path id="XMLID_195_" class="st17" d="M498.4,277.7h1v5.4h-1V277.7z"/>
			</g>
			<g id="XMLID_197_">
				<path id="XMLID_199_" class="st16" d="M500.1,285h1v11h-1V285z"/>
				<path id="XMLID_198_" class="st17" d="M500.1,280.4h1v4.6h-1V280.4z"/>
			</g>
			<g id="XMLID_200_">
				<path id="XMLID_202_" class="st16" d="M501.8,286h1v10.1h-1V286z"/>
				<path id="XMLID_201_" class="st17" d="M501.8,281.7h1v4.2h-1V281.7z"/>
			</g>
			<g id="XMLID_203_">
				<path id="XMLID_205_" class="st16" d="M503.5,286.9h1v9.1h-1V286.9z"/>
				<path id="XMLID_204_" class="st17" d="M503.5,283.1h1v3.8h-1V283.1z"/>
			</g>
			<g id="XMLID_206_">
				<path id="XMLID_208_" class="st16" d="M505.2,286.4h1v9.7h-1V286.4z"/>
				<path id="XMLID_207_" class="st17" d="M505.2,282.3h1v4.1h-1V282.3z"/>
			</g>
			<g id="XMLID_209_">
				<path id="XMLID_211_" class="st16" d="M506.9,285.5h1v10.6h-1V285.5z"/>
				<path id="XMLID_210_" class="st17" d="M506.9,281h1v4.4h-1V281z"/>
			</g>
			<g id="XMLID_212_">
				<path id="XMLID_214_" class="st16" d="M508.6,284.7h1v11.4h-1V284.7z"/>
				<path id="XMLID_213_" class="st17" d="M508.6,279.9h1v4.8h-1V279.9z"/>
			</g>
			<g id="XMLID_215_">
				<path id="XMLID_217_" class="st16" d="M510.3,285.5h1v10.6h-1V285.5z"/>
				<path id="XMLID_216_" class="st17" d="M510.3,281h1v4.4h-1V281z"/>
			</g>
			<g id="XMLID_218_">
				<path id="XMLID_220_" class="st16" d="M512,284.2h1V296h-1V284.2z"/>
				<path id="XMLID_219_" class="st17" d="M512,279.3h1v5h-1V279.3z"/>
			</g>
			<g id="XMLID_221_">
				<path id="XMLID_223_" class="st16" d="M513.7,283.6h1V296h-1V283.6z"/>
				<path id="XMLID_222_" class="st17" d="M513.7,278.4h1v5.2h-1V278.4z"/>
			</g>
			<g id="XMLID_224_">
				<path id="XMLID_226_" class="st16" d="M515.4,282.7h1V296h-1V282.7z"/>
				<path id="XMLID_225_" class="st17" d="M515.4,277.2h1v5.6h-1V277.2z"/>
			</g>
			<g id="XMLID_227_">
				<path id="XMLID_229_" class="st16" d="M517.1,281.5h1v14.6h-1V281.5z"/>
				<path id="XMLID_228_" class="st17" d="M517.1,275.4h1v6.1h-1V275.4z"/>
			</g>
		</g>
	</g>
	<g id="XMLID_66_">
		<circle id="XMLID_60_" class="st6" cx="553.6" cy="285.4" r="20"/>
		<g id="XMLID_61_">
			<path id="XMLID_62_" class="st18" d="M538.9,276.7h29.4v17.5h-29.4V276.7z"/>
			<g id="XMLID_63_">
				<ellipse id="XMLID_159_" class="st17" cx="546.5" cy="285.2" rx="6.2" ry="6.1"/>
				<path id="XMLID_173_" class="st19" d="M546.5,285.4l2.4-5.8c1.3,0.6,2.4,1.6,3.1,2.8L546.5,285.4z"/>
				<path id="XMLID_333_" class="st20" d="M546.5,285.4l5.5-2.9c0.9,1.3,0.9,3.8,0.1,5.3L546.5,285.4L546.5,285.4z"/>
				<path id="XMLID_64_" class="st21" d="M546.6,285.4l-0.9-6.2c1.4,0,1.8,0,3.2,0.5L546.6,285.4z"/>
			</g>
			<g id="XMLID_65_">
				<path id="XMLID_74_" class="st22" d="M554.3,280.8h11.9v0.7h-11.9V280.8z"/>
				<path id="XMLID_77_" class="st22" d="M554.3,282.5h11.9v0.7h-11.9V282.5z"/>
				<path id="XMLID_91_" class="st22" d="M554.3,284.3h11.9v0.7h-11.9V284.3z"/>
				<path id="XMLID_124_" class="st22" d="M554.3,286.1h11.9v0.7h-11.9V286.1z"/>
				<path id="XMLID_125_" class="st22" d="M554.3,287.8h11.9v0.7h-11.9V287.8z"/>
				<path id="XMLID_133_" class="st22" d="M554.3,289.6h11.9v0.7h-11.9V289.6z"/>
			</g>
		</g>
	</g>
	<g id="XMLID_286_">
		<circle id="XMLID_53_" class="st6" cx="119.9" cy="285.3" r="20"/>
		<g id="XMLID_82_">
			<path id="XMLID_50_" class="st16" d="M119.1,288.5h1.5v11.6h-1.5V288.5z"/>
			<circle id="XMLID_81_" class="st16" cx="119.9" cy="287.6" r="2.9"/>
			<path id="XMLID_93_" class="st23" d="M130.4,281.4c-5.8-5.8-15.2-5.8-20.9,0"/>
			<path id="XMLID_95_" class="st23" d="M133.2,280c-7.4-7.4-19.3-7.4-26.6,0"/>
			<path id="XMLID_99_" class="st23" d="M128.2,283.2c-4.6-4.6-12-4.6-16.6,0"/>
			<path id="XMLID_100_" class="st23" d="M126.5,285.1c-3.7-3.7-9.6-3.7-13.3,0"/>
		</g>
	</g>
	<g id="XMLID_285_">
		<circle id="XMLID_68_" class="st6" cx="195.6" cy="285.4" r="20"/>
		<g id="XMLID_102_">
			<g id="XMLID_233_">
				<g id="XMLID_155_">
					<path id="XMLID_158_" class="st24" d="M183.9,285.8l11.8,11.7"/>
					<g id="XMLID_156_">
						<path id="XMLID_157_" class="st19" d="M193.8,298.5l3.9,1l-1-3.8L193.8,298.5z"/>
					</g>
				</g>
			</g>
			<g id="XMLID_234_">
				<g id="XMLID_146_">
					<path id="XMLID_152_" class="st24" d="M183.9,286.4l11.8-11.8"/>
					<g id="XMLID_150_">
						<path id="XMLID_151_" class="st19" d="M196.7,276.4l1-3.8l-3.9,1L196.7,276.4z"/>
					</g>
				</g>
			</g>
			<g id="XMLID_51_">
				<g id="XMLID_141_">
					<path id="XMLID_144_" class="st24" d="M184.8,285.8h19.6"/>
					<g id="XMLID_142_">
						<path id="XMLID_143_" class="st19" d="M203.8,287.8l3.5-2l-3.5-2.1V287.8z"/>
					</g>
				</g>
			</g>
			<g id="XMLID_83_">
				<g id="XMLID_135_">
					<path id="XMLID_139_" class="st24" d="M184.8,285.4l15.4-6.4"/>
					<g id="XMLID_137_">
						<path id="XMLID_138_" class="st19" d="M200.4,281l2.4-3.1l-3.9-0.5L200.4,281z"/>
					</g>
				</g>
			</g>
			<g id="XMLID_101_">
				<g id="XMLID_119_">
					<path id="XMLID_131_" class="st24" d="M184.8,286.4l15.4,6.4"/>
					<g id="XMLID_129_">
						<path id="XMLID_130_" class="st19" d="M198.9,294.4l3.9-0.5l-2.4-3.2L198.9,294.4z"/>
					</g>
				</g>
			</g>
		</g>
	</g>
	<g id="XMLID_283_">
		<circle id="XMLID_76_" class="st6" cx="269.8" cy="285.4" r="20"/>
		<g id="XMLID_254_">
			<g id="XMLID_163_">
				<path id="XMLID_478_" class="st18" d="M272.8,290.1h-13.2v-16.8h6.6l6.6,4.9V290.1z"/>
				<g id="XMLID_162_">
					<path id="XMLID_480_" class="st25" d="M261.7,282.5h9.2v0.7h-9.2V282.5z"/>
					<path id="XMLID_160_" class="st25" d="M261.7,285.7h9.2v0.7h-9.2V285.7z"/>
					<path id="XMLID_161_" class="st25" d="M261.7,284.1h9.2v0.7h-9.2V284.1z"/>
				</g>
				<g id="XMLID_78_">
					<path id="XMLID_80_" class="st25" d="M261.7,280.9h9.2v0.7h-9.2V280.9z"/>
					<path id="XMLID_79_" class="st25" d="M261.7,279.3h9.2v0.7h-9.2V279.3z"/>
				</g>
				<path id="XMLID_479_" class="st13" d="M272.8,278h-6.6v-4.9L272.8,278z"/>
			</g>
			<g id="XMLID_103_">
				<path id="XMLID_253_" class="st18" d="M279.4,298.3h-13.2v-16.8h6.6l6.6,4.9V298.3z"/>
				<g id="XMLID_136_">
					<path id="XMLID_252_" class="st25" d="M268.3,290.7h9.2v0.7h-9.2V290.7z"/>
					<path id="XMLID_246_" class="st25" d="M268.3,293.9h9.2v0.7h-9.2V293.9z"/>
					<path id="XMLID_167_" class="st25" d="M268.3,292.3h9.2v0.7h-9.2V292.3z"/>
				</g>
				<g id="XMLID_105_">
					<path id="XMLID_134_" class="st25" d="M268.3,289.1h9.2v0.7h-9.2V289.1z"/>
					<path id="XMLID_106_" class="st25" d="M268.3,287.5h9.2v0.7h-9.2V287.5z"/>
				</g>
				<path id="XMLID_104_" class="st26" d="M279.4,286.2h-6.6v-4.9L279.4,286.2z"/>
			</g>
		</g>
	</g>
	<g id="XMLID_284_">
		<circle id="XMLID_92_" class="st6" cx="415.8" cy="285.4" r="20"/>
		<g id="XMLID_170_">
			<path id="XMLID_172_" class="st27" d="M407.1,287.8v-0.2c1.4-0.4,2.3-1.6,2.3-3.1c0-1.8-1.5-3.2-3.3-3.2s-3.3,1.5-3.3,3.2
				c0,1.4,0.9,2.6,2.2,3v0.3c-3.1,0-4.2,2-4.2,2v1.9h10.7v-1.9C411.3,289.9,410.2,287.8,407.1,287.8z"/>
			<path id="XMLID_168_" class="st27" d="M416.9,281.2V281c1.4-0.4,2.3-1.6,2.3-3.1c0-1.8-1.5-3.2-3.3-3.2s-3.3,1.5-3.3,3.2
				c0,1.4,0.9,2.6,2.2,3v0.3c-3.1,0-4.2,2-4.2,2v1.9h10.7v-1.9C421.1,283.2,420,281.2,416.9,281.2z"/>
			<path id="XMLID_169_" class="st27" d="M426.8,287.8v-0.2c1.4-0.4,2.3-1.6,2.3-3.1c0-1.8-1.5-3.2-3.3-3.2s-3.3,1.5-3.3,3.2
				c0,1.4,0.9,2.6,2.2,3v0.3c-3.1,0-4.2,2-4.2,2v1.9h10.7v-1.9C431,289.9,429.9,287.8,426.8,287.8z"/>
		</g>
	</g>
	<g id="XMLID_282_">
		<g id="XMLID_72_">
			<circle id="XMLID_55_" class="st6" cx="341.1" cy="285.4" r="20"/>
		</g>
		<g id="XMLID_49_">
			<path id="XMLID_56_" class="st13" d="M329.5,297.4c-0.7-0.6-0.8-1.7-0.2-2.4l12.6-15.5c0.6-0.7,1.7-0.8,2.4-0.2
				c0.7,0.6,0.8,1.7,0.2,2.4l-12.6,15.5C331.3,297.9,330.2,298,329.5,297.4z"/>
			<circle id="XMLID_84_" class="st28" cx="343.5" cy="280.3" r="7.5"/>
			<path id="XMLID_85_" class="st12" d="M347.9,282c0.9-1.7,0.3-3.8-1.4-4.7"/>
		</g>
	</g>
	<path id="XMLID_70_" class="st3" d="M224.6,222.1h118.3V257H224.6V222.1z"/>
	<path id="XMLID_271_" class="st29" d="M-121,152H81v23.3h-202V152z"/>
	<g id="XMLID_31_">
		<g id="XMLID_75_">
			<path id="XMLID_96_" class="st12" d="M436.7,285.5h22.1"/>
			<g id="XMLID_87_">
				<path id="XMLID_89_" class="st13" d="M457.3,290.5l8.6-5l-8.6-5V290.5z"/>
			</g>
		</g>
	</g>
	<g id="XMLID_1_">
		<g id="XMLID_264_">
			<path id="XMLID_267_" class="st12" d="M-47.2,285h134"/>
			<g id="XMLID_265_">
				<path id="XMLID_266_" class="st13" d="M85.4,290l8.6-5l-8.6-4.9V290z"/>
			</g>
		</g>
	</g>
	<path id="XMLID_38_" class="st30" d="M25.8,296.7h-47.2c-1.8,0-3.3-1.5-3.3-3.3v-16.5c0-1.8,1.5-3.3,3.3-3.3h47.2
		c1.8,0,3.3,1.5,3.3,3.3v16.5C29.1,295.2,27.6,296.7,25.8,296.7z"/>
	<path id="XMLID_58_" class="st3" d="M-101.8,222h94.1v34.9h-94.1V222z"/>
	<text id="XMLID_309_" transform="matrix(1 0 0 1 -92.46 327.261)" class="st31 st32">Container</text>
	<text transform="matrix(1 0 0 1 87.081 325.604)" class="st31 st32">Lumberjack/</text>
	<text transform="matrix(1 0 0 1 95.681 340.004)" class="st31 st32">Logstash</text>
	<text id="XMLID_307_" transform="matrix(1 0 0 1 169.102 325.604)" class="st31 st32">Kafka-Bus</text>
	<text id="XMLID_306_" transform="matrix(1 0 0 1 244.389 325.604)" class="st31 st32">LogStash</text>
	<text id="XMLID_305_" transform="matrix(1 0 0 1 305.438 325.604)" class="st31 st32">ElasticSearch</text>
	<text id="XMLID_304_" transform="matrix(1 0 0 1 482.278 325.466)" class="st31 st32">Grafana</text>
	<text id="XMLID_303_" transform="matrix(1 0 0 1 535.463 325.465)" class="st31 st32">Kibana</text>
	<text id="XMLID_273_" transform="matrix(1 0 0 1 498.8164 235.442)" class="st33"><tspan x="0" y="0" class="st31 st32">Benutzer-</tspan><tspan x="-5.2" y="14.4" class="st31 st32">schnittstelle</tspan></text>
	<text transform="matrix(1 0 0 1 400.0024 323.604)" class="st33"><tspan x="0" y="0" class="st31 st32">Multi-</tspan><tspan x="-5.9" y="14.4" class="st31 st32">Tenant-</tspan></text>
	<text transform="matrix(1 0 0 1 399.852 352.004)" class="st31 st32">Proxy</text>
	<text id="XMLID_36_" transform="matrix(1 0 0 1 468.949 195.927)" class="st31 st34">IBM Cloud</text>
	<text transform="matrix(1 0 0 1 240.097 236.528)" class="st31 st32">Protokollierung </text>
	<text transform="matrix(1 0 0 1 243.597 250.928)" class="st31 st32">Privates Netz</text>
	<text id="XMLID_300_" transform="matrix(1 0 0 1 75.16 195.927)" class="st31 st32">     Protokollierung</text>
	<text id="XMLID_269_" transform="matrix(1 0 0 1 32.7335 303.554)" class="st33"><tspan x="0" y="0" class="st31 st35">über SSL </tspan><tspan x="-6.9" y="12" class="st31 st35">verschlüsselt</tspan></text>
	<text transform="matrix(1 0 0 1 -85.502 234.786)" class="st31 st32">Container</text>
	<text transform="matrix(1 0 0 1 -94.902 249.186)" class="st31 st32">Privates Netz</text>
	<text id="XMLID_153_" transform="matrix(1 0 0 1 -17.46 289.081)" class="st31 st32">Crawler</text>
</g>
<g id="Layer_2">
	<text id="XMLID_301_" transform="matrix(1 0 0 1 -111.616 195.927)" class="st36 st31 st34">IBM Cloud Container Service</text>
</g>
</svg>
