<?xml version="1.0" encoding="utf-8"?>
<!-- Generator: Adobe Illustrator 19.0.0, SVG Export Plug-In . SVG Version: 6.00 Build 0)  -->
<svg version="1.1" baseProfile="basic" xmlns="http://www.w3.org/2000/svg" xmlns:xlink="http://www.w3.org/1999/xlink" x="0px"
	 y="0px" viewBox="0 0 546.3 326.2" xml:space="preserve">
<g id="Base_Area">
	
		<rect x="0.5" y="0.5" fill-rule="evenodd" clip-rule="evenodd" fill="#FFFFFF" stroke="#FFFFFF" stroke-width="1.0001" stroke-miterlimit="22.9256" width="545.3" height="325.2"/>
</g>
<g id="Artwork">
	
		<path fill-rule="evenodd" clip-rule="evenodd" fill="#57B0D1" stroke="#474E56" stroke-width="1.0001" stroke-miterlimit="22.9256" d="
		M197.5,39.4h327.1c3.1,0,5.7,2.6,5.7,5.7v258.1c0,3.1-2.6,5.7-5.7,5.7H197.5c-3.1,0-5.7-2.6-5.7-5.7V45.1
		C191.8,42,194.3,39.4,197.5,39.4z"/>
	
		<path fill-rule="evenodd" clip-rule="evenodd" fill="#FFFFFF" stroke="#474E56" stroke-width="1.0001" stroke-miterlimit="22.9256" d="
		M214.7,57.3h292.6c3.1,0,5.7,2.6,5.7,5.7v81.7c0,3.1-2.6,5.7-5.7,5.7H214.7c-3.1,0-5.7-2.6-5.7-5.7V62.9
		C209,59.8,211.5,57.3,214.7,57.3z"/>
	
		<rect x="223.5" y="92.1" fill-rule="evenodd" clip-rule="evenodd" fill="#57B0D1" stroke="#474E56" stroke-width="1.0001" stroke-linejoin="round" stroke-miterlimit="22.9256" width="113.8" height="39.6"/>
	<g>
		<line fill="none" stroke="#474E56" stroke-miterlimit="22.9256" x1="340.7" y1="111.9" x2="376.2" y2="111.9"/>
		<g>
			<polygon fill="#474E56" points="375.3,114.9 380.5,111.9 375.3,108.9 			"/>
		</g>
	</g>
	
		<rect x="384.5" y="92.1" fill-rule="evenodd" clip-rule="evenodd" fill="#57B0D1" stroke="#474E56" stroke-width="1.0001" stroke-linejoin="round" stroke-miterlimit="22.9256" width="113.8" height="39.6"/>
	
		<path fill-rule="evenodd" clip-rule="evenodd" fill="#FFFFFF" stroke="#474E56" stroke-width="1.0001" stroke-miterlimit="22.9256" d="
		M214.7,199h292.6c3.1,0,5.7,2.6,5.7,5.7v81.7c0,3.1-2.6,5.7-5.7,5.7H214.7c-3.1,0-5.7-2.6-5.7-5.7v-81.7
		C209,201.5,211.5,199,214.7,199z"/>
	<g>
		
			<line fill="none" stroke="#474E56" stroke-miterlimit="22.9256" stroke-dasharray="5.0003,3.0002" x1="465.2" y1="236.4" x2="465" y2="139.9"/>
		<g>
			<polygon fill="#474E56" points="468,140.8 465,135.6 462,140.8 			"/>
		</g>
	</g>
	
		<path fill-rule="evenodd" clip-rule="evenodd" fill="#C5C6C6" stroke="#474E56" stroke-width="1.0001" stroke-linejoin="round" stroke-miterlimit="22.9256" d="
		M390.2,233.8h102.4c3.1,0,5.7,2.6,5.7,5.7v28.3c0,3.1-2.6,5.7-5.7,5.7H390.2c-3.1,0-5.7-2.6-5.7-5.7v-28.3
		C384.5,236.3,387.1,233.8,390.2,233.8z"/>
	<g>
		
			<line fill="none" stroke="#474E56" stroke-miterlimit="22.9256" stroke-dasharray="5.0003,3.0002" x1="258.3" y1="236.4" x2="258.1" y2="139.9"/>
		<g>
			<polygon fill="#474E56" points="261.1,140.8 258.1,135.6 255.1,140.8 			"/>
		</g>
	</g>
	
		<path fill-rule="evenodd" clip-rule="evenodd" fill="#C5C6C6" stroke="#474E56" stroke-width="1.0001" stroke-linejoin="round" stroke-miterlimit="22.9256" d="
		M229.2,233.8h102.4c3.1,0,5.7,2.6,5.7,5.7v28.3c0,3.1-2.6,5.7-5.7,5.7H229.2c-3.1,0-5.7-2.6-5.7-5.7v-28.3
		C223.5,236.3,226.1,233.8,229.2,233.8z"/>
	<g>
		
			<line fill="none" stroke="#474E56" stroke-miterlimit="22.9256" stroke-dasharray="5.0003,3.0002" x1="100.2" y1="111.9" x2="215.2" y2="111.9"/>
		<g>
			<polygon fill="#474E56" points="101.1,114.8 95.9,111.9 101.1,108.9 			"/>
		</g>
		<g>
			<polygon fill="#474E56" points="214.3,114.9 219.5,111.9 214.3,108.9 			"/>
		</g>
	</g>
	
		<path fill-rule="evenodd" clip-rule="evenodd" fill="#FFFFFF" stroke="#474E56" stroke-width="1.0001" stroke-miterlimit="22.9256" d="
		M21.9,57.3h64.3c3.1,0,5.7,2.6,5.7,5.7v81.7c0,3.1-2.6,5.7-5.7,5.7H21.9c-3.1,0-5.7-2.6-5.7-5.7V62.9
		C16.2,59.8,18.8,57.3,21.9,57.3z"/>
	
		<polygon fill-rule="evenodd" clip-rule="evenodd" fill="#FFFFFF" stroke="#A9D9E4" stroke-width="2.0001" stroke-miterlimit="22.9256" points="
		37,110.9 44.4,115.1 51.8,119.4 51.8,127.9 51.8,136.4 44.4,140.6 37,144.9 29.7,140.6 22.3,136.4 22.3,127.9 22.3,119.4 
		29.7,115.1 	"/>
	<path fill="#A9D9E4" stroke="#A9D9E4" stroke-width="1.0001" stroke-miterlimit="22.9256" d="M40.4,132.8c0-2-1.6,0.1-3.6,0.1
		c-1.9,0-3.5-2.2-3.5-0.1c-1.2,0-2.3,0-3.5,0c0-4.1,3.2-7.4,7-7.4c3.9,0,7,3.3,7,7.4C42.8,132.8,44,132.8,40.4,132.8z"/>
	
		<rect x="29.9" y="132.2" fill-rule="evenodd" clip-rule="evenodd" fill="#A9D9E4" stroke="#A9D9E4" stroke-width="1.0001" stroke-miterlimit="22.9256" width="14.1" height="4"/>
	
		<path fill-rule="evenodd" clip-rule="evenodd" fill="#A9D9E4" stroke="#A9D9E4" stroke-width="1.0001" stroke-miterlimit="22.9256" d="
		M36.9,125.3c2.6,0,4.6-2,4.6-4.4c0-2.4-2.1-4.4-4.6-4.4c-2.6,0-4.6,2-4.6,4.4C32.3,123.3,34.4,125.3,36.9,125.3z"/>
	
		<polygon fill-rule="evenodd" clip-rule="evenodd" fill="#FFFFFF" stroke="#4CACCC" stroke-width="2.0001" stroke-miterlimit="22.9256" points="
		71,110.9 78.4,115.1 85.8,119.4 85.8,127.9 85.8,136.4 78.4,140.6 71,144.9 63.7,140.6 56.3,136.4 56.3,127.9 56.3,119.4 
		63.7,115.1 	"/>
	<path fill="#4CACCC" stroke="#4CACCC" stroke-width="1.0001" stroke-miterlimit="22.9256" d="M74.5,132.3c0-2-1.7,0.1-3.6,0.1
		c-2,0-3.5-2.2-3.5-0.1c-1.2,0-2.4,0-3.5,0c0-4.1,3.2-7.4,7.1-7.4c3.9,0,7.1,3.3,7.1,7.4C76.8,132.3,78,132.3,74.5,132.3z"/>
	
		<rect x="63.9" y="131.7" fill-rule="evenodd" clip-rule="evenodd" fill="#4CACCC" stroke="#4CACCC" stroke-width="1.0001" stroke-miterlimit="22.9256" width="14.1" height="4"/>
	
		<path fill-rule="evenodd" clip-rule="evenodd" fill="#4CACCC" stroke="#4CACCC" stroke-width="1.0001" stroke-miterlimit="22.9256" d="
		M70.9,124.7c2.6,0,4.7-2,4.7-4.4c0-2.4-2.1-4.4-4.7-4.4s-4.7,2-4.7,4.4C66.3,122.8,68.4,124.7,70.9,124.7z"/>
	
		<polygon fill-rule="evenodd" clip-rule="evenodd" fill="#FFFFFF" stroke="#318099" stroke-width="2.0001" stroke-miterlimit="22.9256" points="
		54.1,81.4 61.5,85.6 68.9,89.9 68.9,98.4 68.9,106.9 61.5,111.1 54.1,115.4 46.8,111.1 39.4,106.9 39.4,98.4 39.4,89.9 46.8,85.6 	
		"/>
	<path fill="#318099" stroke="#318099" stroke-width="1.0001" stroke-miterlimit="22.9256" d="M57.7,103c0-2.1-1.7,0.1-3.6,0.1
		c-2,0-3.5-2.2-3.5-0.1c-1.2,0-2.4,0-3.6,0c0-4.1,3.2-7.5,7.1-7.5c3.9,0,7.1,3.3,7.1,7.5C60,103,61.2,103,57.7,103z"/>
	
		<rect x="47" y="102.3" fill-rule="evenodd" clip-rule="evenodd" fill="#318099" stroke="#318099" stroke-width="1.0001" stroke-miterlimit="22.9256" width="14.2" height="4.1"/>
	
		<path fill-rule="evenodd" clip-rule="evenodd" fill="#318099" stroke="#318099" stroke-width="1.0001" stroke-miterlimit="22.9256" d="
		M54.1,95.3c2.6,0,4.7-2,4.7-4.4c0-2.4-2.1-4.4-4.7-4.4c-2.6,0-4.7,2-4.7,4.4C49.4,93.3,51.5,95.3,54.1,95.3z"/>
</g>
<g id="Text">
	<g>
		<path fill="#474E56" d="M244.4,250.1v7.9h-1.3v-7.9H244.4z"/>
		<path fill="#474E56" d="M248,252.1c0.5,0,1,0.1,1.4,0.4c0.4,0.3,0.7,0.6,0.9,1c0.2,0.4,0.4,0.9,0.4,1.5c0,0.1,0,0.3,0,0.4h-4.2
			c0,0.5,0.1,0.9,0.4,1.2c0.3,0.3,0.7,0.5,1.1,0.5c0.4,0,0.7-0.1,0.9-0.2s0.4-0.4,0.5-0.7h1.2c-0.1,0.6-0.4,1.1-0.9,1.4
			s-1,0.5-1.7,0.5c-0.8,0-1.5-0.3-2-0.8c-0.5-0.5-0.8-1.3-0.8-2.2c0-0.6,0.1-1.1,0.4-1.6c0.3-0.5,0.6-0.8,1-1.1
			C247.1,252.2,247.5,252.1,248,252.1z M249.5,254.6c0-0.4-0.2-0.8-0.5-1.1c-0.3-0.3-0.6-0.4-1-0.4c-0.4,0-0.8,0.1-1,0.4
			c-0.3,0.3-0.4,0.6-0.5,1.1H249.5z"/>
		<path fill="#474E56" d="M253.2,250.5v1.7h1.1v0.9h-1.1v3.1c0,0.3,0,0.5,0.1,0.6c0.1,0.1,0.3,0.1,0.5,0.1c0.3,0,0.5,0,0.5,0v1
			c-0.4,0-0.6,0.1-0.8,0.1c-0.6,0-1-0.1-1.2-0.3c-0.2-0.2-0.3-0.6-0.3-1.2v-3.3H251v-0.9h0.9v-1.7H253.2z"/>
		<path fill="#474E56" d="M257.4,252.1c0.7,0,1.2,0.1,1.7,0.4c0.4,0.3,0.7,0.7,0.7,1.3h-1.3c-0.1-0.5-0.5-0.8-1.2-0.8
			c-0.3,0-0.6,0-0.7,0.1c-0.2,0.1-0.3,0.2-0.3,0.4c0,0.2,0.1,0.4,0.3,0.5c0.2,0.1,0.6,0.2,1.1,0.3c0.8,0.1,1.4,0.4,1.7,0.6
			c0.4,0.3,0.5,0.6,0.5,1.1c0,0.6-0.2,1-0.7,1.3c-0.5,0.3-1.1,0.5-1.8,0.5s-1.4-0.2-1.8-0.5c-0.4-0.3-0.7-0.8-0.7-1.5h1.3
			c0.1,0.7,0.5,1,1.3,1c0.8,0,1.3-0.2,1.3-0.7c0-0.2-0.1-0.4-0.4-0.6c-0.3-0.1-0.8-0.3-1.4-0.4c-1.2-0.2-1.8-0.8-1.8-1.7
			c0-0.5,0.2-0.9,0.7-1.2C256.1,252.2,256.7,252.1,257.4,252.1z"/>
		<path fill="#474E56" d="M263.9,254.4v1.2h-3.2v-1.2H263.9z"/>
		<path fill="#474E56" d="M267.6,252.1c0.7,0,1.3,0.2,1.8,0.5s0.7,0.9,0.8,1.5h-1.3c-0.1-0.3-0.2-0.6-0.4-0.8
			c-0.2-0.2-0.5-0.3-0.9-0.3c-0.5,0-0.9,0.2-1.1,0.5s-0.4,0.9-0.4,1.6c0,0.6,0.1,1,0.4,1.4c0.3,0.4,0.6,0.5,1.1,0.5
			c0.4,0,0.7-0.1,0.9-0.3c0.2-0.2,0.4-0.5,0.5-1h1.3c-0.1,0.8-0.4,1.3-0.9,1.7c-0.4,0.4-1,0.6-1.8,0.6c-0.8,0-1.5-0.3-2-0.8
			c-0.5-0.5-0.8-1.2-0.8-2.2c0-0.9,0.2-1.7,0.7-2.2C266.1,252.4,266.7,252.1,267.6,252.1z"/>
		<path fill="#474E56" d="M272.2,250.1v2.9h0c0.2-0.3,0.4-0.5,0.7-0.7s0.6-0.2,1-0.2c0.7,0,1.2,0.2,1.5,0.5s0.5,0.8,0.5,1.4v3.9
			h-1.3v-3.5c0-0.9-0.4-1.3-1.1-1.3c-0.4,0-0.7,0.1-1,0.4c-0.3,0.3-0.4,0.6-0.4,1v3.4H271v-7.9H272.2z"/>
		<path fill="#474E56" d="M279.6,252.1c0.7,0,1.3,0.2,1.7,0.4c0.4,0.3,0.6,0.7,0.6,1.2v3c0,0.1,0,0.2,0.1,0.3c0,0.1,0.1,0.1,0.3,0.1
			c0.1,0,0.2,0,0.3,0v0.9c-0.4,0.1-0.6,0.1-0.8,0.1c-0.6,0-0.9-0.2-1-0.7c-0.2,0.2-0.5,0.4-0.9,0.5c-0.4,0.1-0.7,0.2-1.1,0.2
			c-0.6,0-1.1-0.2-1.4-0.5c-0.4-0.3-0.5-0.7-0.5-1.2c0-0.5,0.2-0.9,0.5-1.2c0.3-0.3,0.9-0.5,1.7-0.6l0.5-0.1c0.4,0,0.7-0.1,0.8-0.1
			c0.1-0.1,0.3-0.1,0.3-0.2s0.1-0.2,0.1-0.4c0-0.5-0.4-0.8-1.2-0.8c-0.8,0-1.2,0.3-1.3,0.9H277c0-0.6,0.3-1.1,0.7-1.4
			C278.1,252.3,278.8,252.1,279.6,252.1z M278,256.3c0,0.2,0.1,0.4,0.3,0.6c0.2,0.1,0.5,0.2,0.8,0.2c0.4,0,0.8-0.1,1.1-0.3
			c0.3-0.2,0.4-0.4,0.4-0.7v-1c-0.2,0.1-0.5,0.2-0.8,0.3l-0.5,0.1C278.4,255.5,278,255.8,278,256.3z"/>
		<path fill="#474E56" d="M284.7,250.5v1.7h1.1v0.9h-1.1v3.1c0,0.3,0,0.5,0.1,0.6c0.1,0.1,0.3,0.1,0.5,0.1c0.3,0,0.5,0,0.5,0v1
			c-0.4,0-0.6,0.1-0.8,0.1c-0.6,0-1-0.1-1.2-0.3c-0.2-0.2-0.3-0.6-0.3-1.2v-3.3h-0.9v-0.9h0.9v-1.7H284.7z"/>
		<path fill="#474E56" d="M290.5,250.1v1.2h-1.3v-1.2H290.5z M290.5,252.2v5.7h-1.3v-5.7H290.5z"/>
		<path fill="#474E56" d="M294.6,252.1c0.4,0,0.7,0.1,1,0.2c0.3,0.2,0.5,0.4,0.6,0.7c0.4-0.6,1-0.9,1.8-0.9c1.3,0,1.9,0.6,1.9,1.9v4
			h-1.3v-3.4c0-0.6-0.1-1-0.2-1.1s-0.4-0.3-0.8-0.3c-0.8,0-1.2,0.5-1.2,1.5v3.4h-1.3v-3.7c0-0.4-0.1-0.6-0.2-0.8
			c-0.1-0.2-0.4-0.3-0.8-0.3c-0.4,0-0.7,0.1-0.9,0.4s-0.4,0.6-0.4,1v3.4h-1.3v-5.7h1.2v0.8h0c0.2-0.3,0.5-0.6,0.7-0.7
			C293.9,252.2,294.2,252.1,294.6,252.1z"/>
		<path fill="#474E56" d="M303.5,252.1c0.7,0,1.3,0.2,1.7,0.4c0.4,0.3,0.6,0.7,0.6,1.2v3c0,0.1,0,0.2,0.1,0.3s0.1,0.1,0.3,0.1
			c0.1,0,0.2,0,0.3,0v0.9c-0.4,0.1-0.6,0.1-0.8,0.1c-0.6,0-0.9-0.2-1-0.7c-0.2,0.2-0.5,0.4-0.9,0.5c-0.4,0.1-0.7,0.2-1.1,0.2
			c-0.6,0-1.1-0.2-1.4-0.5c-0.4-0.3-0.5-0.7-0.5-1.2c0-0.5,0.1-0.9,0.5-1.2s0.9-0.5,1.7-0.6l0.5-0.1c0.4,0,0.7-0.1,0.8-0.1
			s0.3-0.1,0.3-0.2c0.1-0.1,0.1-0.2,0.1-0.4c0-0.5-0.4-0.8-1.2-0.8c-0.8,0-1.2,0.3-1.3,0.9h-1.3c0-0.6,0.3-1.1,0.7-1.4
			C302.1,252.3,302.7,252.1,303.5,252.1z M302,256.3c0,0.2,0.1,0.4,0.3,0.6s0.5,0.2,0.8,0.2c0.4,0,0.8-0.1,1.1-0.3
			c0.3-0.2,0.4-0.4,0.4-0.7v-1c-0.2,0.1-0.5,0.2-0.8,0.3l-0.5,0.1C302.4,255.5,302,255.8,302,256.3z"/>
		<path fill="#474E56" d="M309.4,252.1c0.8,0,1.4,0.3,1.7,0.9h0v-0.8h1.3v5.4c0,0.8-0.2,1.4-0.7,1.8c-0.5,0.4-1.2,0.6-2.1,0.6
			c-0.7,0-1.3-0.2-1.8-0.5c-0.5-0.3-0.7-0.8-0.7-1.3h1.3c0.1,0.3,0.2,0.5,0.4,0.6s0.5,0.2,1,0.2c1,0,1.5-0.5,1.5-1.4v-0.9h0
			c-0.4,0.7-1,1-1.7,1c-0.8,0-1.4-0.3-1.9-0.8c-0.4-0.5-0.7-1.3-0.7-2.2c0-0.8,0.2-1.5,0.7-2.1C308.1,252.4,308.7,252.1,309.4,252.1
			z M308.1,255.1c0,0.6,0.1,1,0.4,1.4c0.3,0.4,0.6,0.5,1.1,0.5c0.5,0,0.9-0.2,1.1-0.5c0.3-0.4,0.4-0.8,0.4-1.4c0-0.6-0.1-1-0.4-1.4
			s-0.6-0.5-1.1-0.5c-0.5,0-0.8,0.2-1.1,0.5C308.3,254,308.1,254.5,308.1,255.1z"/>
		<path fill="#474E56" d="M316.1,252.1c0.5,0,1,0.1,1.4,0.4c0.4,0.3,0.7,0.6,0.9,1c0.2,0.4,0.3,0.9,0.4,1.5c0,0.1,0,0.3,0,0.4h-4.2
			c0,0.5,0.1,0.9,0.4,1.2c0.3,0.3,0.7,0.5,1.1,0.5c0.4,0,0.7-0.1,0.9-0.2c0.2-0.2,0.4-0.4,0.5-0.7h1.2c-0.1,0.6-0.4,1.1-0.9,1.4
			c-0.5,0.3-1,0.5-1.7,0.5c-0.8,0-1.5-0.3-2-0.8c-0.5-0.5-0.8-1.3-0.8-2.2c0-0.6,0.1-1.1,0.4-1.6c0.3-0.5,0.6-0.8,1-1.1
			C315.2,252.2,315.6,252.1,316.1,252.1z M317.6,254.6c0-0.4-0.2-0.8-0.5-1.1c-0.3-0.3-0.6-0.4-1-0.4c-0.4,0-0.8,0.1-1,0.4
			s-0.4,0.6-0.5,1.1H317.6z"/>
	</g>
	<g>
		<path fill="#474E56" d="M103.9,99.1c0.8,0,1.5,0.2,1.9,0.6c0.5,0.4,0.7,1,0.7,1.8c0,0.8-0.2,1.4-0.7,1.8s-1.1,0.6-1.9,0.6h-2.1v3
			h-1.4v-7.9H103.9z M103.8,102.8c0.4,0,0.7-0.1,1-0.4c0.2-0.2,0.4-0.6,0.4-0.9c0-0.9-0.4-1.3-1.3-1.3h-2.1v2.6H103.8z"/>
		<path fill="#474E56" d="M108.5,101.3v3.5c0,0.9,0.4,1.3,1.1,1.3c0.9,0,1.4-0.5,1.4-1.5v-3.3h1.3v5.7H111v-0.8h0
			c-0.2,0.3-0.4,0.5-0.7,0.7c-0.3,0.2-0.6,0.3-0.9,0.3c-0.7,0-1.3-0.2-1.6-0.5c-0.3-0.4-0.5-0.9-0.5-1.6v-3.7H108.5z"/>
		<path fill="#474E56" d="M114.6,99.1v2.9h0c0.2-0.3,0.4-0.5,0.7-0.7c0.3-0.2,0.6-0.2,1-0.2c0.8,0,1.5,0.3,1.9,0.8
			c0.5,0.5,0.7,1.3,0.7,2.2c0,0.9-0.2,1.6-0.7,2.2c-0.4,0.5-1,0.8-1.8,0.8c-1,0-1.6-0.3-2-0.9h0v0.8h-1.2v-7.9H114.6z M114.5,104.1
			c0,0.6,0.1,1.1,0.4,1.4c0.3,0.4,0.7,0.6,1.2,0.6c0.5,0,0.9-0.2,1.1-0.5c0.3-0.4,0.4-0.8,0.4-1.5c0-0.6-0.1-1.1-0.4-1.4
			c-0.3-0.4-0.7-0.6-1.1-0.6c-0.5,0-0.9,0.2-1.2,0.5C114.7,103,114.5,103.5,114.5,104.1z"/>
		<path fill="#474E56" d="M121.2,99.1v7.9h-1.3v-7.9H121.2z"/>
		<path fill="#474E56" d="M123.6,99.1v1.2h-1.3v-1.2H123.6z M123.6,101.3v5.7h-1.3v-5.7H123.6z"/>
		<path fill="#474E56" d="M127.3,101.1c0.7,0,1.3,0.2,1.8,0.5s0.7,0.9,0.8,1.5h-1.3c-0.1-0.3-0.2-0.6-0.4-0.8
			c-0.2-0.2-0.5-0.3-0.9-0.3c-0.5,0-0.9,0.2-1.1,0.5s-0.4,0.9-0.4,1.6c0,0.6,0.1,1,0.4,1.4c0.3,0.4,0.6,0.5,1.1,0.5
			c0.4,0,0.7-0.1,0.9-0.3c0.2-0.2,0.4-0.5,0.5-1h1.3c-0.1,0.8-0.4,1.3-0.9,1.7c-0.4,0.4-1,0.6-1.8,0.6c-0.8,0-1.5-0.3-2-0.8
			c-0.5-0.5-0.8-1.2-0.8-2.2c0-0.9,0.2-1.7,0.7-2.2C125.7,101.4,126.4,101.1,127.3,101.1z"/>
		<path fill="#474E56" d="M134.6,99.1v7.9h-1.4v-7.9H134.6z"/>
		<path fill="#474E56" d="M139.5,99.1c0.8,0,1.5,0.2,1.9,0.6c0.5,0.4,0.7,1,0.7,1.8c0,0.8-0.2,1.4-0.7,1.8s-1.1,0.6-1.9,0.6h-2.1v3
			H136v-7.9H139.5z M139.4,102.8c0.4,0,0.7-0.1,1-0.4c0.2-0.2,0.4-0.6,0.4-0.9c0-0.9-0.4-1.3-1.3-1.3h-2.1v2.6H139.4z"/>
		<path fill="#474E56" d="M148,101.1c0.7,0,1.3,0.2,1.7,0.4c0.4,0.3,0.6,0.7,0.6,1.2v3c0,0.1,0,0.2,0.1,0.3c0,0.1,0.1,0.1,0.3,0.1
			c0.1,0,0.2,0,0.3,0v0.9c-0.4,0.1-0.6,0.1-0.8,0.1c-0.6,0-0.9-0.2-1-0.7c-0.2,0.2-0.5,0.4-0.9,0.5c-0.4,0.1-0.7,0.2-1.1,0.2
			c-0.6,0-1.1-0.2-1.4-0.5c-0.4-0.3-0.5-0.7-0.5-1.2c0-0.5,0.2-0.9,0.5-1.2c0.3-0.3,0.9-0.5,1.7-0.6l0.5-0.1c0.4,0,0.7-0.1,0.8-0.1
			c0.1-0.1,0.3-0.1,0.3-0.2s0.1-0.2,0.1-0.4c0-0.5-0.4-0.8-1.2-0.8c-0.8,0-1.2,0.3-1.3,0.9h-1.3c0-0.6,0.3-1.1,0.7-1.4
			C146.6,101.3,147.2,101.1,148,101.1z M146.4,105.3c0,0.2,0.1,0.4,0.3,0.6c0.2,0.1,0.5,0.2,0.8,0.2c0.4,0,0.8-0.1,1.1-0.3
			c0.3-0.2,0.4-0.4,0.4-0.7v-1c-0.2,0.1-0.5,0.2-0.8,0.3l-0.5,0.1C146.8,104.5,146.4,104.8,146.4,105.3z"/>
		<path fill="#474E56" d="M157,99.1v7.9h-1.2v-0.8h0c-0.3,0.6-0.9,0.9-1.8,0.9c-0.8,0-1.5-0.3-1.9-0.8c-0.5-0.6-0.7-1.3-0.7-2.2
			c0-0.9,0.2-1.6,0.7-2.2c0.4-0.5,1-0.8,1.8-0.8c0.4,0,0.8,0.1,1.1,0.2c0.3,0.2,0.6,0.4,0.8,0.7h0v-2.9H157z M152.6,104.2
			c0,0.6,0.1,1,0.4,1.4s0.7,0.5,1.1,0.5c0.5,0,0.9-0.2,1.2-0.6c0.3-0.4,0.4-0.9,0.4-1.4c0-0.6-0.1-1.1-0.4-1.5
			c-0.3-0.4-0.7-0.5-1.2-0.5c-0.5,0-0.9,0.2-1.2,0.6S152.6,103.5,152.6,104.2z"/>
		<path fill="#474E56" d="M163.5,99.1v7.9h-1.2v-0.8h0c-0.3,0.6-0.9,0.9-1.8,0.9c-0.8,0-1.5-0.3-1.9-0.8c-0.5-0.6-0.7-1.3-0.7-2.2
			c0-0.9,0.2-1.6,0.7-2.2c0.4-0.5,1-0.8,1.8-0.8c0.4,0,0.8,0.1,1.1,0.2c0.3,0.2,0.6,0.4,0.8,0.7h0v-2.9H163.5z M159.1,104.2
			c0,0.6,0.1,1,0.4,1.4s0.7,0.5,1.1,0.5c0.5,0,0.9-0.2,1.2-0.6c0.3-0.4,0.4-0.9,0.4-1.4c0-0.6-0.1-1.1-0.4-1.5
			c-0.3-0.4-0.7-0.5-1.2-0.5c-0.5,0-0.9,0.2-1.2,0.6S159.1,103.5,159.1,104.2z"/>
		<path fill="#474E56" d="M167.4,101.1c0.3,0,0.4,0,0.5,0v1.2c-0.2,0-0.4-0.1-0.5-0.1c-0.5,0-0.9,0.2-1.1,0.6
			c-0.3,0.4-0.4,0.8-0.4,1.3v2.8h-1.3v-5.7h1.2v1.1h0c0.1-0.4,0.3-0.7,0.7-0.9C166.8,101.2,167.1,101.1,167.4,101.1z"/>
		<path fill="#474E56" d="M170.8,101.1c0.5,0,1,0.1,1.4,0.4c0.4,0.3,0.7,0.6,0.9,1c0.2,0.4,0.4,0.9,0.4,1.5c0,0.1,0,0.3,0,0.4h-4.2
			c0,0.5,0.1,0.9,0.4,1.2c0.3,0.3,0.7,0.5,1.1,0.5c0.4,0,0.7-0.1,0.9-0.2s0.4-0.4,0.5-0.7h1.2c-0.1,0.6-0.4,1.1-0.9,1.4
			s-1,0.5-1.7,0.5c-0.8,0-1.5-0.3-2-0.8c-0.5-0.5-0.8-1.3-0.8-2.2c0-0.6,0.1-1.1,0.4-1.6c0.3-0.5,0.6-0.8,1-1.1
			C169.8,101.2,170.2,101.1,170.8,101.1z M172.2,103.6c0-0.4-0.2-0.8-0.5-1.1c-0.3-0.3-0.6-0.4-1-0.4c-0.4,0-0.8,0.1-1,0.4
			c-0.3,0.3-0.4,0.6-0.5,1.1H172.2z"/>
		<path fill="#474E56" d="M176.6,101.1c0.7,0,1.2,0.1,1.7,0.4c0.4,0.3,0.7,0.7,0.7,1.3h-1.3c-0.1-0.5-0.5-0.8-1.2-0.8
			c-0.3,0-0.6,0-0.7,0.1c-0.2,0.1-0.3,0.2-0.3,0.4c0,0.2,0.1,0.4,0.3,0.5c0.2,0.1,0.6,0.2,1.1,0.3c0.8,0.1,1.4,0.4,1.7,0.6
			c0.4,0.3,0.5,0.6,0.5,1.1c0,0.6-0.2,1-0.7,1.3c-0.5,0.3-1.1,0.5-1.8,0.5s-1.4-0.2-1.8-0.5c-0.4-0.3-0.7-0.8-0.7-1.5h1.3
			c0.1,0.7,0.5,1,1.3,1c0.8,0,1.3-0.2,1.3-0.7c0-0.2-0.1-0.4-0.4-0.6c-0.3-0.1-0.8-0.3-1.4-0.4c-1.2-0.2-1.8-0.8-1.8-1.7
			c0-0.5,0.2-0.9,0.7-1.2C175.3,101.3,175.9,101.1,176.6,101.1z"/>
		<path fill="#474E56" d="M182.3,101.1c0.7,0,1.2,0.1,1.7,0.4c0.4,0.3,0.7,0.7,0.7,1.3h-1.3c-0.1-0.5-0.5-0.8-1.2-0.8
			c-0.3,0-0.6,0-0.7,0.1c-0.2,0.1-0.3,0.2-0.3,0.4c0,0.2,0.1,0.4,0.3,0.5c0.2,0.1,0.6,0.2,1.1,0.3c0.8,0.1,1.4,0.4,1.7,0.6
			c0.4,0.3,0.5,0.6,0.5,1.1c0,0.6-0.2,1-0.7,1.3c-0.5,0.3-1.1,0.5-1.8,0.5s-1.4-0.2-1.8-0.5c-0.4-0.3-0.7-0.8-0.7-1.5h1.3
			c0.1,0.7,0.5,1,1.3,1c0.8,0,1.3-0.2,1.3-0.7c0-0.2-0.1-0.4-0.4-0.6c-0.3-0.1-0.8-0.3-1.4-0.4c-1.2-0.2-1.8-0.8-1.8-1.7
			c0-0.5,0.2-0.9,0.7-1.2C181.1,101.3,181.6,101.1,182.3,101.1z"/>
	</g>
	<g>
		<path fill="#474E56" d="M37.5,68.5v7.9h-1.4v-7.9H37.5z"/>
		<path fill="#474E56" d="M41.8,70.5c0.7,0,1.2,0.2,1.5,0.5s0.5,0.8,0.5,1.4v3.9h-1.3v-3.6c0-0.9-0.4-1.3-1.1-1.3
			c-0.4,0-0.7,0.1-1,0.4S40,72.6,40,73v3.4h-1.3v-5.7h1.2v0.8l0,0C40.4,70.8,41,70.5,41.8,70.5z"/>
		<path fill="#474E56" d="M46.3,69v1.7h1.1v0.9h-1.1v3.1c0,0.3,0,0.5,0.1,0.6c0.1,0.1,0.3,0.1,0.5,0.1c0.3,0,0.5,0,0.5,0v1
			c-0.4,0-0.6,0.1-0.8,0.1c-0.6,0-1-0.1-1.2-0.3c-0.2-0.2-0.3-0.6-0.3-1.2v-3.3h-0.9v-0.9h0.9V69H46.3z"/>
		<path fill="#474E56" d="M50.5,70.5c0.5,0,1,0.1,1.4,0.4c0.4,0.3,0.7,0.6,0.9,1c0.2,0.4,0.4,0.9,0.4,1.5c0,0.1,0,0.3,0,0.4H49
			c0,0.5,0.1,0.9,0.4,1.2c0.3,0.3,0.7,0.5,1.1,0.5c0.4,0,0.7-0.1,0.9-0.2s0.4-0.4,0.5-0.7h1.2c-0.1,0.6-0.4,1.1-0.9,1.4
			s-1,0.5-1.7,0.5c-0.8,0-1.5-0.3-2-0.8c-0.5-0.5-0.8-1.3-0.8-2.2c0-0.6,0.1-1.1,0.4-1.6c0.3-0.5,0.6-0.8,1-1.1
			C49.5,70.6,50,70.5,50.5,70.5z M51.9,73c0-0.4-0.2-0.8-0.5-1.1c-0.3-0.3-0.6-0.4-1-0.4c-0.4,0-0.8,0.1-1,0.4
			C49.2,72.2,49,72.5,49,73H51.9z"/>
		<path fill="#474E56" d="M56.9,70.5c0.3,0,0.4,0,0.5,0v1.2c-0.2,0-0.4-0.1-0.5-0.1c-0.5,0-0.9,0.2-1.1,0.6
			c-0.3,0.4-0.4,0.8-0.4,1.3v2.8h-1.3v-5.7h1.2v1.1h0c0.1-0.4,0.3-0.7,0.7-0.9C56.3,70.6,56.6,70.5,56.9,70.5z"/>
		<path fill="#474E56" d="M61.1,70.5c0.7,0,1.2,0.2,1.5,0.5s0.5,0.8,0.5,1.4v3.9h-1.3v-3.6c0-0.9-0.4-1.3-1.1-1.3
			c-0.4,0-0.7,0.1-1,0.4s-0.4,0.6-0.4,1v3.4h-1.3v-5.7h1.2v0.8l0,0C59.8,70.8,60.4,70.5,61.1,70.5z"/>
		<path fill="#474E56" d="M66.7,70.5c0.5,0,1,0.1,1.4,0.4c0.4,0.3,0.7,0.6,0.9,1c0.2,0.4,0.4,0.9,0.4,1.5c0,0.1,0,0.3,0,0.4h-4.2
			c0,0.5,0.1,0.9,0.4,1.2c0.3,0.3,0.7,0.5,1.1,0.5c0.4,0,0.7-0.1,0.9-0.2s0.4-0.4,0.5-0.7h1.2c-0.1,0.6-0.4,1.1-0.9,1.4
			s-1,0.5-1.7,0.5c-0.8,0-1.5-0.3-2-0.8c-0.5-0.5-0.8-1.3-0.8-2.2c0-0.6,0.1-1.1,0.4-1.6c0.3-0.5,0.6-0.8,1-1.1
			C65.7,70.6,66.2,70.5,66.7,70.5z M68.1,73c0-0.4-0.2-0.8-0.5-1.1c-0.3-0.3-0.6-0.4-1-0.4c-0.4,0-0.8,0.1-1,0.4
			c-0.3,0.3-0.4,0.6-0.5,1.1H68.1z"/>
		<path fill="#474E56" d="M71.8,69v1.7h1.1v0.9h-1.1v3.1c0,0.3,0,0.5,0.1,0.6c0.1,0.1,0.3,0.1,0.5,0.1c0.3,0,0.5,0,0.5,0v1
			c-0.4,0-0.6,0.1-0.8,0.1c-0.6,0-1-0.1-1.2-0.3c-0.2-0.2-0.3-0.6-0.3-1.2v-3.3h-0.9v-0.9h0.9V69H71.8z"/>
	</g>
	<g>
		<path fill="#474E56" d="M284.7,210.2c0.8,0,1.5,0.2,1.9,0.6c0.5,0.4,0.7,1,0.7,1.8c0,0.8-0.2,1.4-0.7,1.8
			c-0.5,0.4-1.1,0.6-1.9,0.6h-2.1v3h-1.4v-7.9H284.7z M284.6,213.9c0.4,0,0.7-0.1,1-0.4c0.2-0.2,0.4-0.6,0.4-0.9
			c0-0.9-0.4-1.3-1.3-1.3h-2.1v2.6H284.6z"/>
		<path fill="#474E56" d="M290.9,212.2c0.3,0,0.4,0,0.5,0v1.2c-0.2,0-0.4-0.1-0.5-0.1c-0.5,0-0.9,0.2-1.1,0.6
			c-0.3,0.4-0.4,0.8-0.4,1.3v2.8h-1.3v-5.7h1.2v1.1h0c0.1-0.4,0.3-0.7,0.7-0.9C290.3,212.4,290.6,212.2,290.9,212.2z"/>
		<path fill="#474E56" d="M293.5,210.2v1.2h-1.3v-1.2H293.5z M293.5,212.4v5.7h-1.3v-5.7H293.5z"/>
		<path fill="#474E56" d="M295.4,212.4l1.4,4.4h0l1.4-4.4h1.3l-2,5.7h-1.4l-2.1-5.7H295.4z"/>
		<path fill="#474E56" d="M302.4,212.2c0.7,0,1.3,0.2,1.7,0.4c0.4,0.3,0.6,0.7,0.6,1.2v3c0,0.1,0,0.2,0.1,0.3s0.1,0.1,0.3,0.1
			c0.1,0,0.2,0,0.3,0v0.9c-0.4,0.1-0.6,0.1-0.8,0.1c-0.6,0-0.9-0.2-1-0.7c-0.2,0.2-0.5,0.4-0.9,0.5c-0.4,0.1-0.7,0.2-1.1,0.2
			c-0.6,0-1.1-0.2-1.4-0.5c-0.4-0.3-0.5-0.7-0.5-1.2c0-0.5,0.1-0.9,0.5-1.2s0.9-0.5,1.7-0.6l0.5-0.1c0.4,0,0.7-0.1,0.8-0.1
			s0.3-0.1,0.3-0.2c0.1-0.1,0.1-0.2,0.1-0.4c0-0.5-0.4-0.8-1.2-0.8c-0.8,0-1.2,0.3-1.3,0.9h-1.3c0-0.6,0.3-1.1,0.7-1.4
			C301,212.4,301.6,212.2,302.4,212.2z M300.9,216.5c0,0.2,0.1,0.4,0.3,0.6s0.5,0.2,0.8,0.2c0.4,0,0.8-0.1,1.1-0.3
			c0.3-0.2,0.4-0.4,0.4-0.7v-1c-0.2,0.1-0.5,0.2-0.8,0.3l-0.5,0.1C301.3,215.6,300.9,215.9,300.9,216.5z"/>
		<path fill="#474E56" d="M307.6,210.7v1.7h1.1v0.9h-1.1v3.1c0,0.3,0,0.5,0.1,0.6c0.1,0.1,0.3,0.1,0.5,0.1c0.3,0,0.5,0,0.5,0v1
			c-0.4,0-0.6,0.1-0.8,0.1c-0.6,0-1-0.1-1.2-0.3c-0.2-0.2-0.3-0.6-0.3-1.2v-3.3h-0.9v-0.9h0.9v-1.7H307.6z"/>
		<path fill="#474E56" d="M311.8,212.2c0.5,0,1,0.1,1.4,0.4c0.4,0.3,0.7,0.6,0.9,1c0.2,0.4,0.3,0.9,0.4,1.5c0,0.1,0,0.3,0,0.4h-4.2
			c0,0.5,0.1,0.9,0.4,1.2c0.3,0.3,0.7,0.5,1.1,0.5c0.4,0,0.7-0.1,0.9-0.2c0.2-0.2,0.4-0.4,0.5-0.7h1.2c-0.1,0.6-0.4,1.1-0.9,1.4
			c-0.5,0.3-1,0.5-1.7,0.5c-0.8,0-1.5-0.3-2-0.8c-0.5-0.5-0.8-1.3-0.8-2.2c0-0.6,0.1-1.1,0.4-1.6c0.3-0.5,0.6-0.8,1-1.1
			C310.8,212.4,311.2,212.2,311.8,212.2z M313.2,214.7c0-0.4-0.2-0.8-0.5-1.1c-0.3-0.3-0.6-0.4-1-0.4c-0.4,0-0.8,0.1-1,0.4
			s-0.4,0.6-0.5,1.1H313.2z"/>
		<path fill="#474E56" d="M321.8,210.2c0.7,0,1.3,0.2,1.7,0.5c0.4,0.3,0.6,0.8,0.6,1.4c0,0.8-0.4,1.3-1.1,1.7v0
			c0.5,0.1,0.8,0.3,1.1,0.7c0.3,0.4,0.4,0.8,0.4,1.3c0,0.7-0.2,1.2-0.7,1.6s-1.2,0.6-2.1,0.6H318v-7.9H321.8z M321.6,213.5
			c0.3,0,0.6-0.1,0.8-0.3c0.2-0.2,0.3-0.5,0.3-0.8c0-0.7-0.4-1.1-1.1-1.1h-2.3v2.2H321.6z M321.8,217c0.4,0,0.7-0.1,0.9-0.3
			c0.2-0.2,0.3-0.5,0.3-0.9c0-0.4-0.1-0.7-0.4-0.9s-0.5-0.3-0.9-0.3h-2.5v2.5H321.8z"/>
		<path fill="#474E56" d="M326.6,210.2v7.9h-1.3v-7.9H326.6z"/>
		<path fill="#474E56" d="M329,212.4v3.5c0,0.9,0.4,1.3,1.1,1.3c0.9,0,1.4-0.5,1.4-1.5v-3.3h1.3v5.7h-1.2v-0.8h0
			c-0.2,0.3-0.4,0.5-0.7,0.7c-0.3,0.2-0.6,0.3-0.9,0.3c-0.7,0-1.3-0.2-1.6-0.5c-0.3-0.4-0.5-0.9-0.5-1.6v-3.7H329z"/>
		<path fill="#474E56" d="M336.3,212.2c0.5,0,1,0.1,1.4,0.4c0.4,0.3,0.7,0.6,0.9,1c0.2,0.4,0.3,0.9,0.4,1.5c0,0.1,0,0.3,0,0.4h-4.2
			c0,0.5,0.1,0.9,0.4,1.2c0.3,0.3,0.7,0.5,1.1,0.5c0.4,0,0.7-0.1,0.9-0.2c0.2-0.2,0.4-0.4,0.5-0.7h1.2c-0.1,0.6-0.4,1.1-0.9,1.4
			c-0.5,0.3-1,0.5-1.7,0.5c-0.8,0-1.5-0.3-2-0.8c-0.5-0.5-0.8-1.3-0.8-2.2c0-0.6,0.1-1.1,0.4-1.6c0.3-0.5,0.6-0.8,1-1.1
			C335.3,212.4,335.8,212.2,336.3,212.2z M337.7,214.7c0-0.4-0.2-0.8-0.5-1.1c-0.3-0.3-0.6-0.4-1-0.4c-0.4,0-0.8,0.1-1,0.4
			s-0.4,0.6-0.5,1.1H337.7z"/>
		<path fill="#474E56" d="M342.8,212.2c0.4,0,0.7,0.1,1,0.2c0.3,0.2,0.5,0.4,0.6,0.7c0.4-0.6,1-0.9,1.8-0.9c1.3,0,1.9,0.6,1.9,1.9v4
			h-1.3v-3.4c0-0.6-0.1-1-0.2-1.1s-0.4-0.3-0.8-0.3c-0.8,0-1.2,0.5-1.2,1.5v3.4h-1.3v-3.7c0-0.4-0.1-0.6-0.2-0.8
			c-0.1-0.2-0.4-0.3-0.8-0.3c-0.4,0-0.7,0.1-0.9,0.4s-0.4,0.6-0.4,1v3.4h-1.3v-5.7h1.2v0.8h0c0.2-0.3,0.5-0.6,0.7-0.7
			C342.1,212.3,342.4,212.2,342.8,212.2z"/>
		<path fill="#474E56" d="M350.5,210.2v1.2h-1.3v-1.2H350.5z M350.5,212.4v5.7h-1.3v-5.7H350.5z"/>
		<path fill="#474E56" d="M352.7,212.4l1.2,1.7l1.2-1.7h1.5l-1.9,2.6l2.2,3.1h-1.5l-1.4-2.1l-1.4,2.1H351l2.1-3l-2-2.7H352.7z"/>
		<path fill="#474E56" d="M361.1,210.2v1.2h-1.3v-1.2H361.1z M361.1,212.4v5.7h-1.3v-5.7H361.1z"/>
		<path fill="#474E56" d="M365.2,212.2c0.4,0,0.7,0.1,1,0.2c0.3,0.2,0.5,0.4,0.6,0.7c0.4-0.6,1-0.9,1.8-0.9c1.3,0,1.9,0.6,1.9,1.9v4
			h-1.3v-3.4c0-0.6-0.1-1-0.2-1.1s-0.4-0.3-0.8-0.3c-0.8,0-1.2,0.5-1.2,1.5v3.4h-1.3v-3.7c0-0.4-0.1-0.6-0.2-0.8
			c-0.1-0.2-0.4-0.3-0.8-0.3c-0.4,0-0.7,0.1-0.9,0.4s-0.4,0.6-0.4,1v3.4h-1.3v-5.7h1.2v0.8h0c0.2-0.3,0.5-0.6,0.7-0.7
			C364.5,212.3,364.8,212.2,365.2,212.2z"/>
		<path fill="#474E56" d="M374.1,212.2c0.7,0,1.3,0.2,1.7,0.4c0.4,0.3,0.6,0.7,0.6,1.2v3c0,0.1,0,0.2,0.1,0.3s0.1,0.1,0.3,0.1
			c0.1,0,0.2,0,0.3,0v0.9c-0.4,0.1-0.6,0.1-0.8,0.1c-0.6,0-0.9-0.2-1-0.7c-0.2,0.2-0.5,0.4-0.9,0.5c-0.4,0.1-0.7,0.2-1.1,0.2
			c-0.6,0-1.1-0.2-1.4-0.5c-0.4-0.3-0.5-0.7-0.5-1.2c0-0.5,0.1-0.9,0.5-1.2s0.9-0.5,1.7-0.6l0.5-0.1c0.4,0,0.7-0.1,0.8-0.1
			s0.3-0.1,0.3-0.2c0.1-0.1,0.1-0.2,0.1-0.4c0-0.5-0.4-0.8-1.2-0.8c-0.8,0-1.2,0.3-1.3,0.9h-1.3c0-0.6,0.3-1.1,0.7-1.4
			C372.7,212.4,373.3,212.2,374.1,212.2z M372.6,216.5c0,0.2,0.1,0.4,0.3,0.6s0.5,0.2,0.8,0.2c0.4,0,0.8-0.1,1.1-0.3
			c0.3-0.2,0.4-0.4,0.4-0.7v-1c-0.2,0.1-0.5,0.2-0.8,0.3l-0.5,0.1C373,215.6,372.6,215.9,372.6,216.5z"/>
		<path fill="#474E56" d="M380,212.2c0.8,0,1.4,0.3,1.7,0.9h0v-0.8h1.3v5.4c0,0.8-0.2,1.4-0.7,1.8c-0.5,0.4-1.2,0.6-2.1,0.6
			c-0.7,0-1.3-0.2-1.8-0.5c-0.5-0.3-0.7-0.8-0.7-1.3h1.3c0.1,0.3,0.2,0.5,0.4,0.6s0.5,0.2,1,0.2c1,0,1.5-0.5,1.5-1.4v-0.9h0
			c-0.4,0.7-1,1-1.7,1c-0.8,0-1.4-0.3-1.9-0.8c-0.4-0.5-0.7-1.3-0.7-2.2c0-0.8,0.2-1.5,0.7-2.1C378.7,212.5,379.3,212.2,380,212.2z
			 M378.7,215.2c0,0.6,0.1,1,0.4,1.4c0.3,0.4,0.6,0.5,1.1,0.5c0.5,0,0.9-0.2,1.1-0.5c0.3-0.4,0.4-0.8,0.4-1.4c0-0.6-0.1-1-0.4-1.4
			s-0.6-0.5-1.1-0.5c-0.5,0-0.8,0.2-1.1,0.5C378.9,214.1,378.7,214.6,378.7,215.2z"/>
		<path fill="#474E56" d="M386.7,212.2c0.5,0,1,0.1,1.4,0.4c0.4,0.3,0.7,0.6,0.9,1c0.2,0.4,0.3,0.9,0.4,1.5c0,0.1,0,0.3,0,0.4h-4.2
			c0,0.5,0.1,0.9,0.4,1.2c0.3,0.3,0.7,0.5,1.1,0.5c0.4,0,0.7-0.1,0.9-0.2c0.2-0.2,0.4-0.4,0.5-0.7h1.2c-0.1,0.6-0.4,1.1-0.9,1.4
			c-0.5,0.3-1,0.5-1.7,0.5c-0.8,0-1.5-0.3-2-0.8c-0.5-0.5-0.8-1.3-0.8-2.2c0-0.6,0.1-1.1,0.4-1.6c0.3-0.5,0.6-0.8,1-1.1
			C385.8,212.4,386.2,212.2,386.7,212.2z M388.2,214.7c0-0.4-0.2-0.8-0.5-1.1c-0.3-0.3-0.6-0.4-1-0.4c-0.4,0-0.8,0.1-1,0.4
			s-0.4,0.6-0.5,1.1H388.2z"/>
		<path fill="#474E56" d="M395.7,212.2c0.3,0,0.4,0,0.5,0v1.2c-0.2,0-0.4-0.1-0.5-0.1c-0.5,0-0.9,0.2-1.1,0.6
			c-0.3,0.4-0.4,0.8-0.4,1.3v2.8h-1.3v-5.7h1.2v1.1h0c0.1-0.4,0.3-0.7,0.7-0.9C395,212.4,395.3,212.2,395.7,212.2z"/>
		<path fill="#474E56" d="M399,212.2c0.5,0,1,0.1,1.4,0.4c0.4,0.3,0.7,0.6,0.9,1c0.2,0.4,0.3,0.9,0.4,1.5c0,0.1,0,0.3,0,0.4h-4.2
			c0,0.5,0.1,0.9,0.4,1.2c0.3,0.3,0.7,0.5,1.1,0.5c0.4,0,0.7-0.1,0.9-0.2c0.2-0.2,0.4-0.4,0.5-0.7h1.2c-0.1,0.6-0.4,1.1-0.9,1.4
			c-0.5,0.3-1,0.5-1.7,0.5c-0.8,0-1.5-0.3-2-0.8c-0.5-0.5-0.8-1.3-0.8-2.2c0-0.6,0.1-1.1,0.4-1.6c0.3-0.5,0.6-0.8,1-1.1
			C398,212.4,398.5,212.2,399,212.2z M400.4,214.7c0-0.4-0.2-0.8-0.5-1.1c-0.3-0.3-0.6-0.4-1-0.4c-0.4,0-0.8,0.1-1,0.4
			s-0.4,0.6-0.5,1.1H400.4z"/>
		<path fill="#474E56" d="M405.5,212.2c0.8,0,1.5,0.3,2,0.8c0.5,0.6,0.7,1.3,0.7,2.2c0,0.9-0.2,1.6-0.7,2.1c-0.4,0.5-1,0.8-1.8,0.8
			c-0.4,0-0.8-0.1-1.1-0.2c-0.3-0.2-0.6-0.4-0.8-0.7h0v2.8h-1.3v-7.8h1.2v0.8h0C404.1,212.5,404.7,212.2,405.5,212.2z M403.8,215.2
			c0,0.6,0.1,1.1,0.4,1.4c0.3,0.4,0.7,0.6,1.2,0.6c0.5,0,0.9-0.2,1.1-0.5c0.3-0.4,0.4-0.8,0.4-1.5c0-0.6-0.1-1-0.4-1.4
			c-0.3-0.4-0.7-0.6-1.2-0.6c-0.5,0-0.9,0.2-1.2,0.5C403.9,214.1,403.8,214.6,403.8,215.2z"/>
		<path fill="#474E56" d="M411.7,212.2c0.9,0,1.5,0.3,2.1,0.8c0.5,0.5,0.8,1.3,0.8,2.2c0,0.9-0.3,1.6-0.8,2.2
			c-0.5,0.5-1.2,0.8-2.1,0.8c-0.9,0-1.6-0.3-2.1-0.8s-0.8-1.3-0.8-2.2c0-0.9,0.3-1.6,0.8-2.2C410.2,212.5,410.9,212.2,411.7,212.2z
			 M410.1,215.2c0,0.6,0.1,1.1,0.4,1.4c0.3,0.4,0.7,0.6,1.2,0.6c0.5,0,0.9-0.2,1.2-0.6c0.3-0.4,0.4-0.9,0.4-1.4
			c0-0.6-0.1-1.1-0.4-1.5c-0.3-0.4-0.7-0.6-1.2-0.6c-0.5,0-0.9,0.2-1.2,0.6S410.1,214.6,410.1,215.2z"/>
		<path fill="#474E56" d="M417.7,212.2c0.7,0,1.2,0.1,1.7,0.4c0.4,0.3,0.7,0.7,0.7,1.3h-1.3c-0.1-0.5-0.5-0.8-1.2-0.8
			c-0.3,0-0.6,0-0.7,0.1c-0.2,0.1-0.3,0.2-0.3,0.4c0,0.2,0.1,0.4,0.3,0.5c0.2,0.1,0.6,0.2,1.1,0.3c0.8,0.1,1.4,0.4,1.7,0.6
			c0.4,0.3,0.5,0.6,0.5,1.1c0,0.6-0.2,1-0.7,1.3c-0.5,0.3-1.1,0.5-1.8,0.5c-0.8,0-1.4-0.2-1.8-0.5s-0.7-0.8-0.7-1.5h1.3
			c0.1,0.7,0.5,1,1.3,1c0.8,0,1.3-0.2,1.3-0.7c0-0.2-0.1-0.4-0.4-0.6c-0.3-0.1-0.8-0.3-1.4-0.4c-1.2-0.2-1.8-0.8-1.8-1.7
			c0-0.5,0.2-0.9,0.7-1.2C416.5,212.4,417,212.2,417.7,212.2z"/>
		<path fill="#474E56" d="M422.4,210.2v1.2h-1.3v-1.2H422.4z M422.4,212.4v5.7h-1.3v-5.7H422.4z"/>
		<path fill="#474E56" d="M425.2,210.7v1.7h1.1v0.9h-1.1v3.1c0,0.3,0,0.5,0.1,0.6c0.1,0.1,0.3,0.1,0.5,0.1c0.3,0,0.5,0,0.5,0v1
			c-0.4,0-0.6,0.1-0.8,0.1c-0.6,0-1-0.1-1.2-0.3c-0.2-0.2-0.3-0.6-0.3-1.2v-3.3H423v-0.9h0.9v-1.7H425.2z"/>
		<path fill="#474E56" d="M429.5,212.2c0.9,0,1.5,0.3,2.1,0.8c0.5,0.5,0.8,1.3,0.8,2.2c0,0.9-0.3,1.6-0.8,2.2
			c-0.5,0.5-1.2,0.8-2.1,0.8c-0.9,0-1.6-0.3-2.1-0.8s-0.8-1.3-0.8-2.2c0-0.9,0.3-1.6,0.8-2.2C427.9,212.5,428.6,212.2,429.5,212.2z
			 M427.9,215.2c0,0.6,0.1,1.1,0.4,1.4c0.3,0.4,0.7,0.6,1.2,0.6c0.5,0,0.9-0.2,1.2-0.6c0.3-0.4,0.4-0.9,0.4-1.4
			c0-0.6-0.1-1.1-0.4-1.5c-0.3-0.4-0.7-0.6-1.2-0.6c-0.5,0-0.9,0.2-1.2,0.6S427.9,214.6,427.9,215.2z"/>
		<path fill="#474E56" d="M436.1,212.2c0.3,0,0.4,0,0.5,0v1.2c-0.2,0-0.4-0.1-0.5-0.1c-0.5,0-0.9,0.2-1.1,0.6
			c-0.3,0.4-0.4,0.8-0.4,1.3v2.8h-1.3v-5.7h1.2v1.1h0c0.1-0.4,0.3-0.7,0.7-0.9C435.4,212.4,435.7,212.2,436.1,212.2z"/>
		<path fill="#474E56" d="M438.4,212.4l1.5,4.2h0l1.4-4.2h1.3l-2.2,5.9c-0.3,0.7-0.5,1.3-0.8,1.6s-0.7,0.4-1.2,0.4
			c-0.3,0-0.5,0-0.9-0.1v-1.1c0.3,0.1,0.5,0.1,0.6,0.1c0.4,0,0.7-0.2,0.8-0.5l0.2-0.7l-2.2-5.7H438.4z"/>
	</g>
	<g>
		<path fill="#474E56" d="M395.7,108.4v7.9h-1.3v-7.9H395.7z"/>
		<path fill="#474E56" d="M399.4,110.4c0.7,0,1.3,0.2,1.8,0.5s0.7,0.9,0.8,1.5h-1.3c-0.1-0.3-0.2-0.6-0.4-0.8
			c-0.2-0.2-0.5-0.3-0.9-0.3c-0.5,0-0.9,0.2-1.1,0.5s-0.4,0.9-0.4,1.6c0,0.6,0.1,1,0.4,1.4c0.3,0.4,0.6,0.5,1.1,0.5
			c0.4,0,0.7-0.1,0.9-0.3c0.2-0.2,0.4-0.5,0.5-1h1.3c-0.1,0.8-0.4,1.3-0.9,1.7c-0.4,0.4-1,0.6-1.8,0.6c-0.8,0-1.5-0.3-2-0.8
			c-0.5-0.5-0.8-1.2-0.8-2.2c0-0.9,0.2-1.7,0.7-2.2S398.5,110.4,399.4,110.4z"/>
		<path fill="#474E56" d="M405.9,112.6v1.2h-3.2v-1.2H405.9z"/>
		<path fill="#474E56" d="M410,110.4c0.4,0,0.7,0.1,1,0.2c0.3,0.2,0.5,0.4,0.6,0.7c0.4-0.6,1-0.9,1.8-0.9c1.3,0,1.9,0.6,1.9,1.9v4
			h-1.3v-3.4c0-0.6-0.1-1-0.2-1.1s-0.4-0.3-0.8-0.3c-0.8,0-1.2,0.5-1.2,1.5v3.4h-1.3v-3.7c0-0.4-0.1-0.6-0.2-0.8
			c-0.1-0.2-0.4-0.3-0.8-0.3c-0.4,0-0.7,0.1-0.9,0.4s-0.4,0.6-0.4,1v3.4h-1.3v-5.7h1.2v0.8h0c0.2-0.3,0.5-0.6,0.7-0.7
			C409.3,110.4,409.6,110.4,410,110.4z"/>
		<path fill="#474E56" d="M419,110.4c0.9,0,1.5,0.3,2.1,0.8c0.5,0.5,0.8,1.3,0.8,2.2c0,0.9-0.3,1.6-0.8,2.2
			c-0.5,0.5-1.2,0.8-2.1,0.8c-0.9,0-1.6-0.3-2.1-0.8s-0.8-1.3-0.8-2.2c0-0.9,0.3-1.6,0.8-2.2C417.5,110.6,418.2,110.4,419,110.4z
			 M417.4,113.4c0,0.6,0.1,1.1,0.4,1.4c0.3,0.4,0.7,0.6,1.2,0.6c0.5,0,0.9-0.2,1.2-0.6c0.3-0.4,0.4-0.9,0.4-1.4
			c0-0.6-0.1-1.1-0.4-1.5c-0.3-0.4-0.7-0.6-1.2-0.6c-0.5,0-0.9,0.2-1.2,0.6S417.4,112.8,417.4,113.4z"/>
		<path fill="#474E56" d="M425.7,110.4c0.7,0,1.2,0.2,1.5,0.5c0.3,0.3,0.5,0.8,0.5,1.4v3.9h-1.3v-3.6c0-0.9-0.4-1.3-1.1-1.3
			c-0.4,0-0.7,0.1-1,0.4s-0.4,0.6-0.4,1v3.4h-1.3v-5.7h1.2v0.8l0,0C424.4,110.7,425,110.4,425.7,110.4z"/>
		<path fill="#474E56" d="M431.2,110.4c0.8,0,1.4,0.3,1.7,0.9h0v-0.8h1.3v5.4c0,0.8-0.2,1.4-0.7,1.8c-0.5,0.4-1.2,0.6-2.1,0.6
			c-0.7,0-1.3-0.2-1.8-0.5c-0.5-0.3-0.7-0.8-0.7-1.3h1.3c0.1,0.3,0.2,0.5,0.4,0.6s0.5,0.2,1,0.2c1,0,1.5-0.5,1.5-1.4v-0.9h0
			c-0.4,0.7-1,1-1.7,1c-0.8,0-1.4-0.3-1.9-0.8c-0.4-0.5-0.7-1.3-0.7-2.2c0-0.8,0.2-1.5,0.7-2.1C429.8,110.6,430.4,110.4,431.2,110.4
			z M429.9,113.3c0,0.6,0.1,1,0.4,1.4c0.3,0.4,0.6,0.5,1.1,0.5c0.5,0,0.9-0.2,1.1-0.5c0.3-0.4,0.4-0.8,0.4-1.4c0-0.6-0.1-1-0.4-1.4
			s-0.6-0.5-1.1-0.5c-0.5,0-0.8,0.2-1.1,0.5C430,112.3,429.9,112.7,429.9,113.3z"/>
		<path fill="#474E56" d="M438,110.4c0.9,0,1.5,0.3,2.1,0.8c0.5,0.5,0.8,1.3,0.8,2.2c0,0.9-0.3,1.6-0.8,2.2
			c-0.5,0.5-1.2,0.8-2.1,0.8c-0.9,0-1.6-0.3-2.1-0.8s-0.8-1.3-0.8-2.2c0-0.9,0.3-1.6,0.8-2.2C436.5,110.6,437.2,110.4,438,110.4z
			 M436.4,113.4c0,0.6,0.1,1.1,0.4,1.4c0.3,0.4,0.7,0.6,1.2,0.6c0.5,0,0.9-0.2,1.2-0.6c0.3-0.4,0.4-0.9,0.4-1.4
			c0-0.6-0.1-1.1-0.4-1.5c-0.3-0.4-0.7-0.6-1.2-0.6c-0.5,0-0.9,0.2-1.2,0.6S436.4,112.8,436.4,113.4z"/>
		<path fill="#474E56" d="M446.8,110.4c0.7,0,1.3,0.2,1.8,0.5s0.7,0.9,0.8,1.5h-1.3c-0.1-0.3-0.2-0.6-0.4-0.8
			c-0.2-0.2-0.5-0.3-0.9-0.3c-0.5,0-0.9,0.2-1.1,0.5s-0.4,0.9-0.4,1.6c0,0.6,0.1,1,0.4,1.4c0.3,0.4,0.6,0.5,1.1,0.5
			c0.4,0,0.7-0.1,0.9-0.3c0.2-0.2,0.4-0.5,0.5-1h1.3c-0.1,0.8-0.4,1.3-0.9,1.7c-0.4,0.4-1,0.6-1.8,0.6c-0.8,0-1.5-0.3-2-0.8
			c-0.5-0.5-0.8-1.2-0.8-2.2c0-0.9,0.2-1.7,0.7-2.2S446,110.4,446.8,110.4z"/>
		<path fill="#474E56" d="M452.9,110.4c0.9,0,1.5,0.3,2.1,0.8c0.5,0.5,0.8,1.3,0.8,2.2c0,0.9-0.3,1.6-0.8,2.2
			c-0.5,0.5-1.2,0.8-2.1,0.8c-0.9,0-1.6-0.3-2.1-0.8s-0.8-1.3-0.8-2.2c0-0.9,0.3-1.6,0.8-2.2C451.3,110.6,452,110.4,452.9,110.4z
			 M451.3,113.4c0,0.6,0.1,1.1,0.4,1.4c0.3,0.4,0.7,0.6,1.2,0.6c0.5,0,0.9-0.2,1.2-0.6c0.3-0.4,0.4-0.9,0.4-1.4
			c0-0.6-0.1-1.1-0.4-1.5c-0.3-0.4-0.7-0.6-1.2-0.6c-0.5,0-0.9,0.2-1.2,0.6S451.3,112.8,451.3,113.4z"/>
		<path fill="#474E56" d="M459.6,110.4c0.7,0,1.2,0.2,1.5,0.5c0.3,0.3,0.5,0.8,0.5,1.4v3.9h-1.3v-3.6c0-0.9-0.4-1.3-1.1-1.3
			c-0.4,0-0.7,0.1-1,0.4s-0.4,0.6-0.4,1v3.4h-1.3v-5.7h1.2v0.8l0,0C458.2,110.7,458.8,110.4,459.6,110.4z"/>
		<path fill="#474E56" d="M464.2,108.8v1.7h1.1v0.9h-1.1v3.1c0,0.3,0,0.5,0.1,0.6c0.1,0.1,0.3,0.1,0.5,0.1c0.3,0,0.5,0,0.5,0v1
			c-0.4,0-0.6,0.1-0.8,0.1c-0.6,0-1-0.1-1.2-0.3c-0.2-0.2-0.3-0.6-0.3-1.2v-3.3H462v-0.9h0.9v-1.7H464.2z"/>
		<path fill="#474E56" d="M468.6,110.4c0.7,0,1.3,0.2,1.7,0.4c0.4,0.3,0.6,0.7,0.6,1.2v3c0,0.1,0,0.2,0.1,0.3s0.1,0.1,0.3,0.1
			c0.1,0,0.2,0,0.3,0v0.9c-0.4,0.1-0.6,0.1-0.8,0.1c-0.6,0-0.9-0.2-1-0.7c-0.2,0.2-0.5,0.4-0.9,0.5c-0.4,0.1-0.7,0.2-1.1,0.2
			c-0.6,0-1.1-0.2-1.4-0.5c-0.4-0.3-0.5-0.7-0.5-1.2c0-0.5,0.1-0.9,0.5-1.2s0.9-0.5,1.7-0.6l0.5-0.1c0.4,0,0.7-0.1,0.8-0.1
			s0.3-0.1,0.3-0.2c0.1-0.1,0.1-0.2,0.1-0.4c0-0.5-0.4-0.8-1.2-0.8c-0.8,0-1.2,0.3-1.3,0.9H466c0-0.6,0.3-1.1,0.7-1.4
			C467.2,110.5,467.8,110.4,468.6,110.4z M467.1,114.6c0,0.2,0.1,0.4,0.3,0.6s0.5,0.2,0.8,0.2c0.4,0,0.8-0.1,1.1-0.3
			c0.3-0.2,0.4-0.4,0.4-0.7v-1c-0.2,0.1-0.5,0.2-0.8,0.3l-0.5,0.1C467.4,113.8,467.1,114.1,467.1,114.6z"/>
		<path fill="#474E56" d="M473.4,108.4v1.2h-1.3v-1.2H473.4z M473.4,110.5v5.7h-1.3v-5.7H473.4z"/>
		<path fill="#474E56" d="M477.5,110.4c0.7,0,1.2,0.2,1.5,0.5c0.3,0.3,0.5,0.8,0.5,1.4v3.9h-1.3v-3.6c0-0.9-0.4-1.3-1.1-1.3
			c-0.4,0-0.7,0.1-1,0.4s-0.4,0.6-0.4,1v3.4h-1.3v-5.7h1.2v0.8l0,0C476.2,110.7,476.8,110.4,477.5,110.4z"/>
		<path fill="#474E56" d="M483.1,110.4c0.5,0,1,0.1,1.4,0.4c0.4,0.3,0.7,0.6,0.9,1c0.2,0.4,0.3,0.9,0.4,1.5c0,0.1,0,0.3,0,0.4h-4.2
			c0,0.5,0.1,0.9,0.4,1.2c0.3,0.3,0.7,0.5,1.1,0.5c0.4,0,0.7-0.1,0.9-0.2c0.2-0.2,0.4-0.4,0.5-0.7h1.2c-0.1,0.6-0.4,1.1-0.9,1.4
			c-0.5,0.3-1,0.5-1.7,0.5c-0.8,0-1.5-0.3-2-0.8c-0.5-0.5-0.8-1.3-0.8-2.2c0-0.6,0.1-1.1,0.4-1.6c0.3-0.5,0.6-0.8,1-1.1
			C482.1,110.5,482.6,110.4,483.1,110.4z M484.5,112.9c0-0.4-0.2-0.8-0.5-1.1c-0.3-0.3-0.6-0.4-1-0.4c-0.4,0-0.8,0.1-1,0.4
			s-0.4,0.6-0.5,1.1H484.5z"/>
		<path fill="#474E56" d="M489.5,110.4c0.3,0,0.4,0,0.5,0v1.2c-0.2,0-0.4-0.1-0.5-0.1c-0.5,0-0.9,0.2-1.1,0.6
			c-0.3,0.4-0.4,0.8-0.4,1.3v2.8h-1.3v-5.7h1.2v1.1h0c0.1-0.4,0.3-0.7,0.7-0.9C488.8,110.5,489.2,110.4,489.5,110.4z"/>
	</g>
	<g>
		<path fill="#474E56" d="M411.6,252.1c0.4,0,0.7,0.1,1,0.2c0.3,0.2,0.5,0.4,0.6,0.7c0.4-0.6,1-0.9,1.8-0.9c1.3,0,1.9,0.6,1.9,1.9v4
			h-1.3v-3.4c0-0.6-0.1-1-0.2-1.1s-0.4-0.3-0.8-0.3c-0.8,0-1.2,0.5-1.2,1.5v3.4h-1.3v-3.7c0-0.4-0.1-0.6-0.2-0.8
			c-0.1-0.2-0.4-0.3-0.8-0.3c-0.4,0-0.7,0.1-0.9,0.4s-0.4,0.6-0.4,1v3.4h-1.3v-5.7h1.2v0.8h0c0.2-0.3,0.5-0.6,0.7-0.7
			C410.8,252.2,411.2,252.1,411.6,252.1z"/>
		<path fill="#474E56" d="M420.6,252.1c0.9,0,1.5,0.3,2.1,0.8c0.5,0.5,0.8,1.3,0.8,2.2c0,0.9-0.3,1.6-0.8,2.2
			c-0.5,0.5-1.2,0.8-2.1,0.8c-0.9,0-1.6-0.3-2.1-0.8s-0.8-1.3-0.8-2.2c0-0.9,0.3-1.6,0.8-2.2C419,252.4,419.7,252.1,420.6,252.1z
			 M418.9,255.1c0,0.6,0.1,1.1,0.4,1.4c0.3,0.4,0.7,0.6,1.2,0.6c0.5,0,0.9-0.2,1.2-0.6c0.3-0.4,0.4-0.9,0.4-1.4
			c0-0.6-0.1-1.1-0.4-1.5c-0.3-0.4-0.7-0.6-1.2-0.6c-0.5,0-0.9,0.2-1.2,0.6S418.9,254.5,418.9,255.1z"/>
		<path fill="#474E56" d="M427.3,252.1c0.7,0,1.2,0.2,1.5,0.5c0.3,0.3,0.5,0.8,0.5,1.4v3.9H428v-3.6c0-0.9-0.4-1.3-1.1-1.3
			c-0.4,0-0.7,0.1-1,0.4s-0.4,0.6-0.4,1v3.4h-1.3v-5.7h1.2v0.8l0,0C425.9,252.4,426.5,252.1,427.3,252.1z"/>
		<path fill="#474E56" d="M432.7,252.1c0.8,0,1.4,0.3,1.7,0.9h0v-0.8h1.3v5.4c0,0.8-0.2,1.4-0.7,1.8c-0.5,0.4-1.2,0.6-2.1,0.6
			c-0.7,0-1.3-0.2-1.8-0.5c-0.5-0.3-0.7-0.8-0.7-1.3h1.3c0.1,0.3,0.2,0.5,0.4,0.6s0.5,0.2,1,0.2c1,0,1.5-0.5,1.5-1.4v-0.9h0
			c-0.4,0.7-1,1-1.7,1c-0.8,0-1.4-0.3-1.9-0.8c-0.4-0.5-0.7-1.3-0.7-2.2c0-0.8,0.2-1.5,0.7-2.1C431.3,252.4,432,252.1,432.7,252.1z
			 M431.4,255.1c0,0.6,0.1,1,0.4,1.4c0.3,0.4,0.6,0.5,1.1,0.5c0.5,0,0.9-0.2,1.1-0.5c0.3-0.4,0.4-0.8,0.4-1.4c0-0.6-0.1-1-0.4-1.4
			s-0.6-0.5-1.1-0.5c-0.5,0-0.8,0.2-1.1,0.5C431.5,254,431.4,254.5,431.4,255.1z"/>
		<path fill="#474E56" d="M439.6,252.1c0.9,0,1.5,0.3,2.1,0.8c0.5,0.5,0.8,1.3,0.8,2.2c0,0.9-0.3,1.6-0.8,2.2
			c-0.5,0.5-1.2,0.8-2.1,0.8c-0.9,0-1.6-0.3-2.1-0.8s-0.8-1.3-0.8-2.2c0-0.9,0.3-1.6,0.8-2.2C438,252.4,438.7,252.1,439.6,252.1z
			 M437.9,255.1c0,0.6,0.1,1.1,0.4,1.4c0.3,0.4,0.7,0.6,1.2,0.6c0.5,0,0.9-0.2,1.2-0.6c0.3-0.4,0.4-0.9,0.4-1.4
			c0-0.6-0.1-1.1-0.4-1.5c-0.3-0.4-0.7-0.6-1.2-0.6c-0.5,0-0.9,0.2-1.2,0.6S437.9,254.5,437.9,255.1z"/>
		<path fill="#474E56" d="M447.1,250.1v1.2h-1.3v-1.2H447.1z M447.1,252.2v5.7h-1.3v-5.7H447.1z"/>
		<path fill="#474E56" d="M451.2,252.1c0.4,0,0.7,0.1,1,0.2c0.3,0.2,0.5,0.4,0.6,0.7c0.4-0.6,1-0.9,1.8-0.9c1.3,0,1.9,0.6,1.9,1.9v4
			h-1.3v-3.4c0-0.6-0.1-1-0.2-1.1s-0.4-0.3-0.8-0.3c-0.8,0-1.2,0.5-1.2,1.5v3.4h-1.3v-3.7c0-0.4-0.1-0.6-0.2-0.8
			c-0.1-0.2-0.4-0.3-0.8-0.3c-0.4,0-0.7,0.1-0.9,0.4s-0.4,0.6-0.4,1v3.4h-1.3v-5.7h1.2v0.8h0c0.2-0.3,0.5-0.6,0.7-0.7
			C450.5,252.2,450.8,252.1,451.2,252.1z"/>
		<path fill="#474E56" d="M460.1,252.1c0.7,0,1.3,0.2,1.7,0.4c0.4,0.3,0.6,0.7,0.6,1.2v3c0,0.1,0,0.2,0.1,0.3s0.1,0.1,0.3,0.1
			c0.1,0,0.2,0,0.3,0v0.9c-0.4,0.1-0.6,0.1-0.8,0.1c-0.6,0-0.9-0.2-1-0.7c-0.2,0.2-0.5,0.4-0.9,0.5c-0.4,0.1-0.7,0.2-1.1,0.2
			c-0.6,0-1.1-0.2-1.4-0.5c-0.4-0.3-0.5-0.7-0.5-1.2c0-0.5,0.1-0.9,0.5-1.2s0.9-0.5,1.7-0.6l0.5-0.1c0.4,0,0.7-0.1,0.8-0.1
			s0.3-0.1,0.3-0.2c0.1-0.1,0.1-0.2,0.1-0.4c0-0.5-0.4-0.8-1.2-0.8c-0.8,0-1.2,0.3-1.3,0.9h-1.3c0-0.6,0.3-1.1,0.7-1.4
			C458.7,252.3,459.3,252.1,460.1,252.1z M458.6,256.3c0,0.2,0.1,0.4,0.3,0.6s0.5,0.2,0.8,0.2c0.4,0,0.8-0.1,1.1-0.3
			c0.3-0.2,0.4-0.4,0.4-0.7v-1c-0.2,0.1-0.5,0.2-0.8,0.3l-0.5,0.1C459,255.5,458.6,255.8,458.6,256.3z"/>
		<path fill="#474E56" d="M466,252.1c0.8,0,1.4,0.3,1.7,0.9h0v-0.8h1.3v5.4c0,0.8-0.2,1.4-0.7,1.8c-0.5,0.4-1.2,0.6-2.1,0.6
			c-0.7,0-1.3-0.2-1.8-0.5c-0.5-0.3-0.7-0.8-0.7-1.3h1.3c0.1,0.3,0.2,0.5,0.4,0.6s0.5,0.2,1,0.2c1,0,1.5-0.5,1.5-1.4v-0.9h0
			c-0.4,0.7-1,1-1.7,1c-0.8,0-1.4-0.3-1.9-0.8c-0.4-0.5-0.7-1.3-0.7-2.2c0-0.8,0.2-1.5,0.7-2.1C464.7,252.4,465.3,252.1,466,252.1z
			 M464.7,255.1c0,0.6,0.1,1,0.4,1.4c0.3,0.4,0.6,0.5,1.1,0.5c0.5,0,0.9-0.2,1.1-0.5c0.3-0.4,0.4-0.8,0.4-1.4c0-0.6-0.1-1-0.4-1.4
			s-0.6-0.5-1.1-0.5c-0.5,0-0.8,0.2-1.1,0.5C464.8,254,464.7,254.5,464.7,255.1z"/>
		<path fill="#474E56" d="M472.7,252.1c0.5,0,1,0.1,1.4,0.4c0.4,0.3,0.7,0.6,0.9,1c0.2,0.4,0.3,0.9,0.4,1.5c0,0.1,0,0.3,0,0.4h-4.2
			c0,0.5,0.1,0.9,0.4,1.2c0.3,0.3,0.7,0.5,1.1,0.5c0.4,0,0.7-0.1,0.9-0.2c0.2-0.2,0.4-0.4,0.5-0.7h1.2c-0.1,0.6-0.4,1.1-0.9,1.4
			c-0.5,0.3-1,0.5-1.7,0.5c-0.8,0-1.5-0.3-2-0.8c-0.5-0.5-0.8-1.3-0.8-2.2c0-0.6,0.1-1.1,0.4-1.6c0.3-0.5,0.6-0.8,1-1.1
			C471.8,252.2,472.2,252.1,472.7,252.1z M474.2,254.6c0-0.4-0.2-0.8-0.5-1.1c-0.3-0.3-0.6-0.4-1-0.4c-0.4,0-0.8,0.1-1,0.4
			s-0.4,0.6-0.5,1.1H474.2z"/>
	</g>
	<g>
		<path fill="#474E56" d="M236.6,108.4v7.9h-1.3v-7.9H236.6z"/>
		<path fill="#474E56" d="M240.2,110.4c0.5,0,1,0.1,1.4,0.4c0.4,0.3,0.7,0.6,0.9,1c0.2,0.4,0.4,0.9,0.4,1.5c0,0.1,0,0.3,0,0.4h-4.2
			c0,0.5,0.1,0.9,0.4,1.2c0.3,0.3,0.7,0.5,1.1,0.5c0.4,0,0.7-0.1,0.9-0.2s0.4-0.4,0.5-0.7h1.2c-0.1,0.6-0.4,1.1-0.9,1.4
			s-1,0.5-1.7,0.5c-0.8,0-1.5-0.3-2-0.8c-0.5-0.5-0.8-1.3-0.8-2.2c0-0.6,0.1-1.1,0.4-1.6c0.3-0.5,0.6-0.8,1-1.1
			C239.2,110.5,239.7,110.4,240.2,110.4z M241.6,112.9c0-0.4-0.2-0.8-0.5-1.1c-0.3-0.3-0.6-0.4-1-0.4c-0.4,0-0.8,0.1-1,0.4
			c-0.3,0.3-0.4,0.6-0.5,1.1H241.6z"/>
		<path fill="#474E56" d="M245.3,108.8v1.7h1.1v0.9h-1.1v3.1c0,0.3,0,0.5,0.1,0.6c0.1,0.1,0.3,0.1,0.5,0.1c0.3,0,0.5,0,0.5,0v1
			c-0.4,0-0.6,0.1-0.8,0.1c-0.6,0-1-0.1-1.2-0.3c-0.2-0.2-0.3-0.6-0.3-1.2v-3.3h-0.9v-0.9h0.9v-1.7H245.3z"/>
		<path fill="#474E56" d="M249.6,110.4c0.7,0,1.2,0.1,1.7,0.4c0.4,0.3,0.7,0.7,0.7,1.3h-1.3c-0.1-0.5-0.5-0.8-1.2-0.8
			c-0.3,0-0.6,0-0.7,0.1c-0.2,0.1-0.3,0.2-0.3,0.4c0,0.2,0.1,0.4,0.3,0.5c0.2,0.1,0.6,0.2,1.1,0.3c0.8,0.1,1.4,0.4,1.7,0.6
			c0.4,0.3,0.5,0.6,0.5,1.1c0,0.6-0.2,1-0.7,1.3c-0.5,0.3-1.1,0.5-1.8,0.5s-1.4-0.2-1.8-0.5c-0.4-0.3-0.7-0.8-0.7-1.5h1.3
			c0.1,0.7,0.5,1,1.3,1c0.8,0,1.3-0.2,1.3-0.7c0-0.2-0.1-0.4-0.4-0.6c-0.3-0.1-0.8-0.3-1.4-0.4c-1.2-0.2-1.8-0.8-1.8-1.7
			c0-0.5,0.2-0.9,0.7-1.2C248.3,110.5,248.8,110.4,249.6,110.4z"/>
		<path fill="#474E56" d="M256.1,112.6v1.2h-3.2v-1.2H256.1z"/>
		<path fill="#474E56" d="M259.8,110.4c0.7,0,1.3,0.2,1.8,0.5s0.7,0.9,0.8,1.5h-1.3c-0.1-0.3-0.2-0.6-0.4-0.8
			c-0.2-0.2-0.5-0.3-0.9-0.3c-0.5,0-0.9,0.2-1.1,0.5s-0.4,0.9-0.4,1.6c0,0.6,0.1,1,0.4,1.4c0.3,0.4,0.6,0.5,1.1,0.5
			c0.4,0,0.7-0.1,0.9-0.3c0.2-0.2,0.4-0.5,0.5-1h1.3c-0.1,0.8-0.4,1.3-0.9,1.7c-0.4,0.4-1,0.6-1.8,0.6c-0.8,0-1.5-0.3-2-0.8
			c-0.5-0.5-0.8-1.2-0.8-2.2c0-0.9,0.2-1.7,0.7-2.2C258.2,110.6,258.9,110.4,259.8,110.4z"/>
		<path fill="#474E56" d="M264.4,108.4v2.9h0c0.2-0.3,0.4-0.5,0.7-0.7s0.6-0.2,1-0.2c0.7,0,1.2,0.2,1.5,0.5s0.5,0.8,0.5,1.4v3.9
			h-1.3v-3.5c0-0.9-0.4-1.3-1.1-1.3c-0.4,0-0.7,0.1-1,0.4c-0.3,0.3-0.4,0.6-0.4,1v3.4h-1.3v-7.9H264.4z"/>
		<path fill="#474E56" d="M271.7,110.4c0.7,0,1.3,0.2,1.7,0.4c0.4,0.3,0.6,0.7,0.6,1.2v3c0,0.1,0,0.2,0.1,0.3c0,0.1,0.1,0.1,0.3,0.1
			c0.1,0,0.2,0,0.3,0v0.9c-0.4,0.1-0.6,0.1-0.8,0.1c-0.6,0-0.9-0.2-1-0.7c-0.2,0.2-0.5,0.4-0.9,0.5c-0.4,0.1-0.7,0.2-1.1,0.2
			c-0.6,0-1.1-0.2-1.4-0.5c-0.4-0.3-0.5-0.7-0.5-1.2c0-0.5,0.2-0.9,0.5-1.2c0.3-0.3,0.9-0.5,1.7-0.6l0.5-0.1c0.4,0,0.7-0.1,0.8-0.1
			c0.1-0.1,0.3-0.1,0.3-0.2s0.1-0.2,0.1-0.4c0-0.5-0.4-0.8-1.2-0.8c-0.8,0-1.2,0.3-1.3,0.9h-1.3c0-0.6,0.3-1.1,0.7-1.4
			C270.3,110.5,270.9,110.4,271.7,110.4z M270.2,114.6c0,0.2,0.1,0.4,0.3,0.6c0.2,0.1,0.5,0.2,0.8,0.2c0.4,0,0.8-0.1,1.1-0.3
			c0.3-0.2,0.4-0.4,0.4-0.7v-1c-0.2,0.1-0.5,0.2-0.8,0.3l-0.5,0.1C270.6,113.8,270.2,114.1,270.2,114.6z"/>
		<path fill="#474E56" d="M276.9,108.8v1.7h1.1v0.9h-1.1v3.1c0,0.3,0,0.5,0.1,0.6c0.1,0.1,0.3,0.1,0.5,0.1c0.3,0,0.5,0,0.5,0v1
			c-0.4,0-0.6,0.1-0.8,0.1c-0.6,0-1-0.1-1.2-0.3c-0.2-0.2-0.3-0.6-0.3-1.2v-3.3h-0.9v-0.9h0.9v-1.7H276.9z"/>
		<path fill="#474E56" d="M283.9,110.4c0.7,0,1.3,0.2,1.8,0.5c0.5,0.4,0.7,0.9,0.8,1.5h-1.3c-0.1-0.3-0.2-0.6-0.4-0.8
			c-0.2-0.2-0.5-0.3-0.9-0.3c-0.5,0-0.9,0.2-1.1,0.5s-0.4,0.9-0.4,1.6c0,0.6,0.1,1,0.4,1.4c0.3,0.4,0.6,0.5,1.1,0.5
			c0.4,0,0.7-0.1,0.9-0.3c0.2-0.2,0.4-0.5,0.5-1h1.3c-0.1,0.8-0.4,1.3-0.9,1.7c-0.4,0.4-1,0.6-1.8,0.6c-0.8,0-1.5-0.3-2-0.8
			c-0.5-0.5-0.8-1.2-0.8-2.2c0-0.9,0.2-1.7,0.7-2.2C282.4,110.6,283.1,110.4,283.9,110.4z"/>
		<path fill="#474E56" d="M290,110.4c0.9,0,1.5,0.3,2.1,0.8c0.5,0.5,0.8,1.3,0.8,2.2c0,0.9-0.3,1.6-0.8,2.2
			c-0.5,0.5-1.2,0.8-2.1,0.8c-0.9,0-1.6-0.3-2.1-0.8s-0.8-1.3-0.8-2.2c0-0.9,0.3-1.6,0.8-2.2C288.4,110.6,289.1,110.4,290,110.4z
			 M288.4,113.4c0,0.6,0.1,1.1,0.4,1.4c0.3,0.4,0.7,0.6,1.2,0.6c0.5,0,0.9-0.2,1.2-0.6c0.3-0.4,0.4-0.9,0.4-1.4
			c0-0.6-0.1-1.1-0.4-1.5c-0.3-0.4-0.7-0.6-1.2-0.6c-0.5,0-0.9,0.2-1.2,0.6S288.4,112.8,288.4,113.4z"/>
		<path fill="#474E56" d="M296.7,110.4c0.7,0,1.2,0.2,1.5,0.5c0.3,0.3,0.5,0.8,0.5,1.4v3.9h-1.3v-3.6c0-0.9-0.4-1.3-1.1-1.3
			c-0.4,0-0.7,0.1-1,0.4s-0.4,0.6-0.4,1v3.4h-1.3v-5.7h1.2v0.8l0,0C295.3,110.7,295.9,110.4,296.7,110.4z"/>
		<path fill="#474E56" d="M301.3,108.8v1.7h1.1v0.9h-1.1v3.1c0,0.3,0,0.5,0.1,0.6c0.1,0.1,0.3,0.1,0.5,0.1c0.3,0,0.5,0,0.5,0v1
			c-0.4,0-0.6,0.1-0.8,0.1c-0.6,0-1-0.1-1.2-0.3c-0.2-0.2-0.3-0.6-0.3-1.2v-3.3h-0.9v-0.9h0.9v-1.7H301.3z"/>
		<path fill="#474E56" d="M305.7,110.4c0.7,0,1.3,0.2,1.7,0.4c0.4,0.3,0.6,0.7,0.6,1.2v3c0,0.1,0,0.2,0.1,0.3s0.1,0.1,0.3,0.1
			c0.1,0,0.2,0,0.3,0v0.9c-0.4,0.1-0.6,0.1-0.8,0.1c-0.6,0-0.9-0.2-1-0.7c-0.2,0.2-0.5,0.4-0.9,0.5c-0.4,0.1-0.7,0.2-1.1,0.2
			c-0.6,0-1.1-0.2-1.4-0.5c-0.4-0.3-0.5-0.7-0.5-1.2c0-0.5,0.1-0.9,0.5-1.2s0.9-0.5,1.7-0.6l0.5-0.1c0.4,0,0.7-0.1,0.8-0.1
			s0.3-0.1,0.3-0.2c0.1-0.1,0.1-0.2,0.1-0.4c0-0.5-0.4-0.8-1.2-0.8c-0.8,0-1.2,0.3-1.3,0.9h-1.3c0-0.6,0.3-1.1,0.7-1.4
			C304.3,110.5,304.9,110.4,305.7,110.4z M304.2,114.6c0,0.2,0.1,0.4,0.3,0.6s0.5,0.2,0.8,0.2c0.4,0,0.8-0.1,1.1-0.3
			c0.3-0.2,0.4-0.4,0.4-0.7v-1c-0.2,0.1-0.5,0.2-0.8,0.3l-0.5,0.1C304.5,113.8,304.2,114.1,304.2,114.6z"/>
		<path fill="#474E56" d="M310.5,108.4v1.2h-1.3v-1.2H310.5z M310.5,110.5v5.7h-1.3v-5.7H310.5z"/>
		<path fill="#474E56" d="M314.6,110.4c0.7,0,1.2,0.2,1.5,0.5c0.3,0.3,0.5,0.8,0.5,1.4v3.9h-1.3v-3.6c0-0.9-0.4-1.3-1.1-1.3
			c-0.4,0-0.7,0.1-1,0.4s-0.4,0.6-0.4,1v3.4h-1.3v-5.7h1.2v0.8l0,0C313.3,110.7,313.9,110.4,314.6,110.4z"/>
		<path fill="#474E56" d="M320.2,110.4c0.5,0,1,0.1,1.4,0.4c0.4,0.3,0.7,0.6,0.9,1c0.2,0.4,0.3,0.9,0.4,1.5c0,0.1,0,0.3,0,0.4h-4.2
			c0,0.5,0.1,0.9,0.4,1.2c0.3,0.3,0.7,0.5,1.1,0.5c0.4,0,0.7-0.1,0.9-0.2c0.2-0.2,0.4-0.4,0.5-0.7h1.2c-0.1,0.6-0.4,1.1-0.9,1.4
			c-0.5,0.3-1,0.5-1.7,0.5c-0.8,0-1.5-0.3-2-0.8c-0.5-0.5-0.8-1.3-0.8-2.2c0-0.6,0.1-1.1,0.4-1.6c0.3-0.5,0.6-0.8,1-1.1
			C319.2,110.5,319.7,110.4,320.2,110.4z M321.6,112.9c0-0.4-0.2-0.8-0.5-1.1c-0.3-0.3-0.6-0.4-1-0.4c-0.4,0-0.8,0.1-1,0.4
			s-0.4,0.6-0.5,1.1H321.6z"/>
		<path fill="#474E56" d="M326.6,110.4c0.3,0,0.4,0,0.5,0v1.2c-0.2,0-0.4-0.1-0.5-0.1c-0.5,0-0.9,0.2-1.1,0.6
			c-0.3,0.4-0.4,0.8-0.4,1.3v2.8h-1.3v-5.7h1.2v1.1h0c0.1-0.4,0.3-0.7,0.7-0.9C325.9,110.5,326.3,110.4,326.6,110.4z"/>
	</g>
	<g>
		<path fill="#474E56" d="M354.8,99.1v7.9h-1.3v-7.9H354.8z"/>
		<path fill="#474E56" d="M357.2,99.1v1.2H356v-1.2H357.2z M357.2,101.3v5.7H356v-5.7H357.2z"/>
		<path fill="#474E56" d="M361.3,101.1c0.7,0,1.2,0.2,1.5,0.5c0.3,0.3,0.5,0.8,0.5,1.4v3.9h-1.3v-3.6c0-0.9-0.4-1.3-1.1-1.3
			c-0.4,0-0.7,0.1-1,0.4s-0.4,0.6-0.4,1v3.4h-1.3v-5.7h1.2v0.8l0,0C360,101.5,360.6,101.1,361.3,101.1z"/>
		<path fill="#474E56" d="M365.8,99.1v4.5l2.3-2.3h1.5l-2.2,2.1l2.4,3.6h-1.5l-1.7-2.8l-0.7,0.7v2h-1.3v-7.9H365.8z"/>
	</g>
	<g>
		<path fill="#474E56" d="M349.2,68.3c0.9,0,1.6,0.2,2.2,0.7c0.6,0.5,0.8,1.1,0.8,1.8h-1.4v0c-0.1-0.9-0.7-1.4-1.7-1.4
			c-0.4,0-0.8,0.1-1,0.3c-0.3,0.2-0.4,0.4-0.4,0.8c0,0.5,0.3,0.9,1,1l2.1,0.5c0.5,0.1,0.9,0.4,1.2,0.7s0.5,0.8,0.5,1.3
			c0,0.7-0.3,1.3-0.8,1.8c-0.6,0.5-1.3,0.7-2.3,0.7c-1,0-1.8-0.2-2.4-0.7c-0.6-0.5-0.9-1.2-0.9-2.1h1.4c0,0.6,0.2,1,0.5,1.3
			c0.4,0.3,0.8,0.4,1.4,0.4c0.5,0,0.9-0.1,1.2-0.3c0.3-0.2,0.4-0.5,0.4-0.9c0-0.5-0.2-0.8-0.6-1c-0.3-0.1-1-0.3-2.2-0.6
			c-1.2-0.3-1.8-1-1.8-2c0-0.7,0.3-1.3,0.8-1.7S348.4,68.3,349.2,68.3z"/>
		<path fill="#474E56" d="M356.3,70.5c0.8,0,1.5,0.3,2,0.8c0.5,0.6,0.7,1.3,0.7,2.2c0,0.9-0.2,1.6-0.7,2.1c-0.4,0.5-1,0.8-1.8,0.8
			c-0.4,0-0.8-0.1-1.1-0.2c-0.3-0.2-0.6-0.4-0.8-0.7h0v2.8h-1.3v-7.8h1.2v0.8h0C354.9,70.8,355.5,70.5,356.3,70.5z M354.5,73.5
			c0,0.6,0.1,1.1,0.4,1.4c0.3,0.4,0.7,0.6,1.2,0.6c0.5,0,0.9-0.2,1.1-0.5c0.3-0.4,0.4-0.8,0.4-1.5c0-0.6-0.1-1-0.4-1.4
			c-0.3-0.4-0.7-0.6-1.2-0.6c-0.5,0-0.9,0.2-1.2,0.5C354.7,72.4,354.5,72.9,354.5,73.5z"/>
		<path fill="#474E56" d="M362.3,70.5c0.7,0,1.3,0.2,1.7,0.4c0.4,0.3,0.6,0.7,0.6,1.2v3c0,0.1,0,0.2,0.1,0.3s0.1,0.1,0.3,0.1
			c0.1,0,0.2,0,0.3,0v0.9c-0.4,0.1-0.6,0.1-0.8,0.1c-0.6,0-0.9-0.2-1-0.7c-0.2,0.2-0.5,0.4-0.9,0.5c-0.4,0.1-0.7,0.2-1.1,0.2
			c-0.6,0-1.1-0.2-1.4-0.5c-0.4-0.3-0.5-0.7-0.5-1.2c0-0.5,0.1-0.9,0.5-1.2s0.9-0.5,1.7-0.6l0.5-0.1c0.4,0,0.7-0.1,0.8-0.1
			s0.3-0.1,0.3-0.2c0.1-0.1,0.1-0.2,0.1-0.4c0-0.5-0.4-0.8-1.2-0.8c-0.8,0-1.2,0.3-1.3,0.9h-1.3c0-0.6,0.3-1.1,0.7-1.4
			C360.9,70.7,361.5,70.5,362.3,70.5z M360.8,74.7c0,0.2,0.1,0.4,0.3,0.6s0.5,0.2,0.8,0.2c0.4,0,0.8-0.1,1.1-0.3
			c0.3-0.2,0.4-0.4,0.4-0.7v-1c-0.2,0.1-0.5,0.2-0.8,0.3l-0.5,0.1C361.2,73.9,360.8,74.2,360.8,74.7z"/>
		<path fill="#474E56" d="M368.5,70.5c0.7,0,1.3,0.2,1.8,0.5s0.7,0.9,0.8,1.5h-1.3c-0.1-0.3-0.2-0.6-0.4-0.8
			c-0.2-0.2-0.5-0.3-0.9-0.3c-0.5,0-0.9,0.2-1.1,0.5s-0.4,0.9-0.4,1.6c0,0.6,0.1,1,0.4,1.4c0.3,0.4,0.6,0.5,1.1,0.5
			c0.4,0,0.7-0.1,0.9-0.3c0.2-0.2,0.4-0.5,0.5-1h1.3c-0.1,0.8-0.4,1.3-0.9,1.7c-0.4,0.4-1,0.6-1.8,0.6c-0.8,0-1.5-0.3-2-0.8
			c-0.5-0.5-0.8-1.2-0.8-2.2c0-0.9,0.2-1.7,0.7-2.2S367.6,70.5,368.5,70.5z"/>
		<path fill="#474E56" d="M374.4,70.5c0.5,0,1,0.1,1.4,0.4c0.4,0.3,0.7,0.6,0.9,1c0.2,0.4,0.3,0.9,0.4,1.5c0,0.1,0,0.3,0,0.4h-4.2
			c0,0.5,0.1,0.9,0.4,1.2c0.3,0.3,0.7,0.5,1.1,0.5c0.4,0,0.7-0.1,0.9-0.2c0.2-0.2,0.4-0.4,0.5-0.7h1.2c-0.1,0.6-0.4,1.1-0.9,1.4
			c-0.5,0.3-1,0.5-1.7,0.5c-0.8,0-1.5-0.3-2-0.8c-0.5-0.5-0.8-1.3-0.8-2.2c0-0.6,0.1-1.1,0.4-1.6c0.3-0.5,0.6-0.8,1-1.1
			C373.4,70.6,373.8,70.5,374.4,70.5z M375.8,73c0-0.4-0.2-0.8-0.5-1.1c-0.3-0.3-0.6-0.4-1-0.4c-0.4,0-0.8,0.1-1,0.4
			s-0.4,0.6-0.5,1.1H375.8z"/>
	</g>
	<g>
		<path fill="#474E56" d="M307,18.5c1.8,0,2.7,0.7,2.7,2.1c0,0.8-0.4,1.4-1.2,1.8c0.5,0.2,0.9,0.4,1.2,0.8c0.3,0.4,0.4,0.8,0.4,1.4
			c0,0.8-0.3,1.4-0.8,1.8S308,27,307.1,27h-4.2v-8.6H307z M306.7,21.9c0.8,0,1.1-0.3,1.1-1c0-0.7-0.4-1-1.3-1h-1.8v2H306.7z
			 M306.8,25.6c0.9,0,1.4-0.4,1.4-1.1c0-0.8-0.4-1.2-1.3-1.2h-2.1v2.4H306.8z"/>
		<path fill="#474E56" d="M312.7,18.5V27H311v-8.6H312.7z"/>
		<path fill="#474E56" d="M315.6,20.8v3.5c0,0.5,0.1,0.9,0.2,1.1c0.2,0.3,0.4,0.4,0.9,0.4c0.5,0,0.8-0.1,1-0.4
			c0.2-0.3,0.3-0.7,0.3-1.3v-3.3h1.7V27h-1.6v-0.9h0c-0.4,0.7-1.1,1-1.9,1c-0.8,0-1.4-0.2-1.7-0.6c-0.3-0.4-0.5-1-0.5-1.9v-3.9
			H315.6z"/>
		<path fill="#474E56" d="M323.7,20.6c0.6,0,1.1,0.1,1.6,0.4s0.8,0.7,1.1,1.2c0.3,0.5,0.4,1.1,0.4,1.8c0,0.1,0,0.2,0,0.3h-4.5
			c0,0.5,0.1,0.9,0.4,1.2c0.2,0.3,0.6,0.4,1.1,0.4c0.3,0,0.6-0.1,0.9-0.2c0.3-0.2,0.4-0.3,0.5-0.6h1.5c-0.4,1.4-1.4,2.1-2.9,2.1
			c-0.6,0-1.1-0.1-1.6-0.4c-0.5-0.2-0.9-0.6-1.2-1.1c-0.3-0.5-0.4-1.1-0.4-1.8c0-0.6,0.1-1.2,0.4-1.7s0.7-0.9,1.2-1.2
			C322.6,20.8,323.1,20.6,323.7,20.6z M325,23.3c-0.1-0.5-0.2-0.8-0.4-1c-0.2-0.2-0.5-0.3-0.9-0.3c-0.4,0-0.7,0.1-1,0.4
			s-0.4,0.6-0.4,1H325z"/>
		<path fill="#474E56" d="M331.2,20.6c0.9,0,1.5,0.3,1.8,1c0.5-0.7,1.1-1,1.9-1c0.8,0,1.3,0.2,1.7,0.6c0.4,0.4,0.5,0.9,0.5,1.6V27
			h-1.7v-3.6c0-0.5-0.1-0.9-0.2-1.1s-0.4-0.3-0.8-0.3c-0.8,0-1.1,0.5-1.1,1.6V27h-1.7v-3.7c0-0.5-0.1-0.9-0.3-1.1
			c-0.2-0.2-0.4-0.3-0.8-0.3c-0.3,0-0.6,0.1-0.8,0.4c-0.2,0.3-0.3,0.6-0.3,1V27h-1.7v-6.2h1.6v0.8h0C329.8,21,330.4,20.6,331.2,20.6
			z"/>
		<path fill="#474E56" d="M340,18.5v1.4h-1.7v-1.4H340z M340,20.8V27h-1.7v-6.2H340z"/>
		<path fill="#474E56" d="M342.7,20.8l1.1,1.6l1.1-1.6h1.9l-2,2.9L347,27H345l-1.3-2l-1.3,2h-1.9l2.2-3.3l-2-2.9H342.7z"/>
		<path fill="#474E56" d="M354.3,18.2c1.3,0,2.3,0.4,3.1,1.3c0.8,0.8,1.2,1.9,1.2,3.3c0,1.3-0.4,2.4-1.2,3.2c-0.8,0.8-1.8,1.2-3,1.2
			c-1.3,0-2.3-0.4-3.1-1.2c-0.8-0.8-1.2-1.9-1.2-3.2c0-1.3,0.4-2.4,1.2-3.3C352,18.7,353,18.2,354.3,18.2z M352,22.8
			c0,0.9,0.2,1.6,0.6,2.1s1,0.8,1.7,0.8c0.7,0,1.3-0.3,1.7-0.8c0.4-0.5,0.6-1.2,0.6-2.1c0-0.9-0.2-1.6-0.6-2.2s-1-0.8-1.7-0.8
			c-0.7,0-1.3,0.3-1.7,0.8S352,21.9,352,22.8z"/>
		<path fill="#474E56" d="M363,20.6c0.1,0,0.3,0,0.4,0.1v1.6c-0.2,0-0.4-0.1-0.6-0.1c-1.1,0-1.7,0.7-1.7,2V27h-1.7v-6.2h1.6V22h0
			c0.2-0.4,0.4-0.7,0.8-1C362.2,20.8,362.6,20.6,363,20.6z"/>
		<path fill="#474E56" d="M366.2,20.6c0.9,0,1.5,0.3,1.8,1h0v-0.8h1.6v5.8c0,0.9-0.3,1.6-0.8,2c-0.6,0.5-1.3,0.7-2.4,0.7
			c-0.8,0-1.4-0.2-1.9-0.6c-0.5-0.4-0.8-0.9-0.8-1.4h1.7c0.1,0.6,0.6,0.9,1.3,0.9c0.4,0,0.8-0.1,1-0.4c0.2-0.3,0.4-0.6,0.4-1.1v-0.9
			h0c-0.2,0.3-0.4,0.5-0.7,0.7c-0.3,0.2-0.7,0.3-1.1,0.3c-0.8,0-1.5-0.3-1.9-0.8c-0.5-0.5-0.7-1.3-0.7-2.3c0-0.9,0.2-1.6,0.7-2.2
			C364.8,20.9,365.4,20.6,366.2,20.6z M365.2,23.7c0,0.6,0.1,1,0.4,1.4c0.2,0.3,0.6,0.5,1,0.5c0.4,0,0.8-0.2,1.1-0.5
			s0.4-0.7,0.4-1.3c0-0.6-0.1-1.1-0.4-1.4c-0.3-0.3-0.6-0.5-1.1-0.5c-0.4,0-0.8,0.2-1,0.5S365.2,23.2,365.2,23.7z"/>
		<path fill="#474E56" d="M373.6,20.6c1.8,0,2.7,0.6,2.7,1.8v3.3c0,0.6,0.1,1,0.2,1.3h-1.7c-0.1-0.2-0.1-0.4-0.1-0.6
			c-0.5,0.5-1.2,0.8-2.1,0.8c-0.6,0-1.2-0.2-1.5-0.5c-0.4-0.3-0.6-0.8-0.6-1.4c0-0.6,0.2-1,0.5-1.3c0.4-0.3,1-0.5,2-0.6
			c0.7-0.1,1.1-0.2,1.3-0.3c0.2-0.1,0.3-0.3,0.3-0.5c0-0.3-0.1-0.5-0.3-0.6s-0.4-0.2-0.8-0.2c-0.4,0-0.6,0.1-0.8,0.2
			c-0.2,0.1-0.3,0.4-0.3,0.7h-1.7c0-0.7,0.3-1.2,0.8-1.5C372.1,20.8,372.8,20.6,373.6,20.6z M372.2,25.3c0,0.5,0.3,0.8,1,0.8
			c0.9,0,1.4-0.5,1.4-1.4V24c-0.1,0.1-0.5,0.2-1,0.3c-0.5,0.1-0.8,0.2-1.1,0.3C372.3,24.7,372.2,24.9,372.2,25.3z"/>
		<path fill="#474E56" d="M381.2,20.6c0.8,0,1.4,0.2,1.7,0.6c0.4,0.4,0.5,1,0.5,1.9V27h-1.7v-3.5c0-0.5-0.1-0.9-0.2-1.1
			S381,22,380.6,22c-0.5,0-0.8,0.1-1,0.4c-0.2,0.3-0.3,0.7-0.3,1.4V27h-1.7v-6.2h1.6v0.9h0C379.7,21,380.3,20.6,381.2,20.6z"/>
		<path fill="#474E56" d="M386.3,18.5v1.4h-1.7v-1.4H386.3z M386.3,20.8V27h-1.7v-6.2H386.3z"/>
		<path fill="#474E56" d="M392.6,20.8v1.3l-3.2,3.6h3.5V27h-5.7v-1.3l3.2-3.6h-3v-1.3H392.6z"/>
		<path fill="#474E56" d="M396.5,20.6c1.8,0,2.7,0.6,2.7,1.8v3.3c0,0.6,0.1,1,0.2,1.3h-1.7c-0.1-0.2-0.1-0.4-0.1-0.6
			c-0.5,0.5-1.2,0.8-2.1,0.8c-0.6,0-1.2-0.2-1.5-0.5c-0.4-0.3-0.6-0.8-0.6-1.4c0-0.6,0.2-1,0.5-1.3c0.4-0.3,1-0.5,2-0.6
			c0.7-0.1,1.1-0.2,1.3-0.3c0.2-0.1,0.3-0.3,0.3-0.5c0-0.3-0.1-0.5-0.3-0.6s-0.4-0.2-0.8-0.2c-0.4,0-0.6,0.1-0.8,0.2
			c-0.2,0.1-0.3,0.4-0.3,0.7h-1.7c0-0.7,0.3-1.2,0.8-1.5C394.9,20.8,395.6,20.6,396.5,20.6z M395.1,25.3c0,0.5,0.3,0.8,1,0.8
			c0.9,0,1.4-0.5,1.4-1.4V24c-0.1,0.1-0.5,0.2-1,0.3c-0.5,0.1-0.8,0.2-1.1,0.3C395.2,24.7,395.1,24.9,395.1,25.3z"/>
		<path fill="#474E56" d="M402.5,19v1.9h1.2V22h-1.2V25c0,0.3,0,0.5,0.1,0.6c0.1,0.1,0.3,0.1,0.6,0.1c0.2,0,0.4,0,0.5,0V27
			c-0.2,0-0.6,0.1-1,0.1c-0.7,0-1.1-0.1-1.5-0.3c-0.3-0.2-0.5-0.6-0.5-1.2V22h-1v-1.1h1V19H402.5z"/>
		<path fill="#474E56" d="M406.4,18.5v1.4h-1.7v-1.4H406.4z M406.4,20.8V27h-1.7v-6.2H406.4z"/>
		<path fill="#474E56" d="M410.5,20.6c1,0,1.8,0.3,2.4,0.9s0.9,1.4,0.9,2.4c0,1-0.3,1.8-0.9,2.4c-0.6,0.6-1.4,0.9-2.3,0.9
			c-1,0-1.8-0.3-2.3-0.9c-0.6-0.6-0.9-1.4-0.9-2.4c0-1,0.3-1.8,0.9-2.4C408.8,20.9,409.6,20.6,410.5,20.6z M409,23.9
			c0,0.6,0.1,1.1,0.4,1.5c0.3,0.3,0.6,0.5,1.1,0.5c0.5,0,0.9-0.2,1.1-0.5s0.4-0.8,0.4-1.5c0-0.6-0.1-1.1-0.4-1.5
			c-0.3-0.3-0.6-0.5-1.1-0.5c-0.5,0-0.8,0.2-1.1,0.5C409.2,22.8,409,23.3,409,23.9z"/>
		<path fill="#474E56" d="M418.2,20.6c0.8,0,1.4,0.2,1.7,0.6c0.4,0.4,0.5,1,0.5,1.9V27h-1.7v-3.5c0-0.5-0.1-0.9-0.2-1.1
			s-0.4-0.4-0.8-0.4c-0.5,0-0.8,0.1-1,0.4c-0.2,0.3-0.3,0.7-0.3,1.4V27h-1.7v-6.2h1.6v0.9h0C416.7,21,417.4,20.6,418.2,20.6z"/>
	</g>
	<g>
	</g>
</g>
</svg>
