<?xml version="1.0" encoding="UTF-8" standalone="no"?>
<!-- Generator: Adobe Illustrator 19.0.0, SVG Export Plug-In . SVG Version: 6.00 Build 0)  -->

<svg
   xmlns:dc="http://purl.org/dc/elements/1.1/"
   xmlns:cc="http://creativecommons.org/ns#"
   xmlns:rdf="http://www.w3.org/1999/02/22-rdf-syntax-ns#"
   xmlns:svg="http://www.w3.org/2000/svg"
   xmlns="http://www.w3.org/2000/svg"
   xmlns:sodipodi="http://sodipodi.sourceforge.net/DTD/sodipodi-0.dtd"
   xmlns:inkscape="http://www.inkscape.org/namespaces/inkscape"
   version="1.1"
   id="Layer_1"
   x="0px"
   y="0px"
   viewBox="-121 152 716.6 257"
   style="enable-background:new -121 152 716.6 257;"
   xml:space="preserve"
   inkscape:version="0.91 r13725"
   sodipodi:docname="architecture_logmet.svg"
   inkscape:export-filename="C:\$sajan\BM120\FRE\BM120ABD068\S007\translation\images\architecture_logmet.png"
   inkscape:export-xdpi="90"
   inkscape:export-ydpi="90"><metadata
     id="metadata289"><rdf:RDF><cc:Work
         rdf:about=""><dc:format>image/svg+xml</dc:format><dc:type
           rdf:resource="http://purl.org/dc/dcmitype/StillImage" /></cc:Work></rdf:RDF></metadata><defs
     id="defs287" /><sodipodi:namedview
     pagecolor="#ffffff"
     bordercolor="#666666"
     borderopacity="1"
     objecttolerance="10"
     gridtolerance="10"
     guidetolerance="10"
     inkscape:pageopacity="0"
     inkscape:pageshadow="2"
     inkscape:window-width="1440"
     inkscape:window-height="848"
     id="namedview285"
     showgrid="false"
     inkscape:zoom="1.5906449"
     inkscape:cx="151.70541"
     inkscape:cy="116.00165"
     inkscape:window-x="-8"
     inkscape:window-y="-8"
     inkscape:window-maximized="1"
     inkscape:current-layer="Layer_1" /><style
     type="text/css"
     id="style3">
	.st0{fill:none;stroke:#000000;stroke-miterlimit:10;}
	.st1{fill:none;stroke:#000000;stroke-miterlimit:10;stroke-dasharray:11.705,11.705;}
	.st2{fill:none;stroke:#000000;stroke-miterlimit:10;stroke-dasharray:12.3803,12.3803;}
	.st3{fill:#FFFFFF;}
	.st4{fill:none;stroke:#000000;stroke-miterlimit:10;stroke-dasharray:11.3363,11.3363;}
	.st5{fill:none;stroke:#000000;stroke-miterlimit:10;stroke-dasharray:12.43,12.43;}
	.st6{fill:#DFE6EB;}
	.st7{fill:#8AC642;}
	.st8{fill:#0BAED1;}
	.st9{fill:#06446A;}
	.st10{fill:#6AA4D9;}
	.st11{fill:#87C3EB;}
	.st12{fill:none;stroke:#394B54;stroke-miterlimit:10;}
	.st13{fill:#394B54;}
	.st14{fill:none;stroke:#000000;stroke-miterlimit:10;stroke-dasharray:11.5782,11.5782;}
	.st15{fill:none;stroke:#000000;stroke-miterlimit:10;stroke-dasharray:12.4345,12.4345;}
	.st16{fill:#00B39F;}
	.st17{fill:#86D0C8;}
	.st18{fill:#FFFFFF;stroke:#394B54;stroke-miterlimit:10;}
	.st19{fill:#EEC11B;}
	.st20{fill:#F47737;}
	.st21{fill:#8EC73F;}
	.st22{fill:#152935;}
	.st23{fill:none;stroke:#00B39F;stroke-miterlimit:10;}
	.st24{fill:none;stroke:#EEC11B;stroke-miterlimit:10;}
	.st25{fill:#10212D;}
	.st26{fill:#42535C;}
	.st27{fill:#5B6872;}
	.st28{fill:#87C3EB;stroke:#394B54;stroke-miterlimit:10;}
	.st29{fill:#4278BD;}
	.st30{fill:#FFFFFF;stroke:#1C3649;stroke-miterlimit:10;}
	.st31{font-family:'HelveticaNeueforIBM-Roman';}
	.st32{font-size:12px;}
	.st33{font-size:14px;}
	.st34{enable-background:new    ;}
	.st35{font-size:10px;}
</style><g
     id="XMLID_86_"><g
       id="XMLID_259_"><path
         style="fill:none;stroke:#000000;stroke-miterlimit:10"
         inkscape:connector-curvature="0"
         d="m 447.8,356.9 0,6 -6,0"
         class="st0"
         id="XMLID_278_" /><path
         style="fill:none;stroke:#000000;stroke-miterlimit:10;stroke-dasharray:11.705, 11.705"
         inkscape:connector-curvature="0"
         d="m 430.1,362.9 -298.5,0"
         class="st1"
         id="XMLID_277_" /><path
         style="fill:none;stroke:#000000;stroke-miterlimit:10"
         inkscape:connector-curvature="0"
         d="m 125.8,362.9 -6,0 0,-6"
         class="st0"
         id="XMLID_276_" /><path
         style="fill:none;stroke:#000000;stroke-miterlimit:10;stroke-dasharray:12.3803, 12.3803"
         inkscape:connector-curvature="0"
         d="m 119.8,344.5 0,-92.9"
         class="st2"
         id="XMLID_275_" /><path
         style="fill:none;stroke:#000000;stroke-miterlimit:10"
         inkscape:connector-curvature="0"
         d="m 119.8,245.4 0,-6 6,0"
         class="st0"
         id="XMLID_274_" /><path
         style="fill:none;stroke:#000000;stroke-miterlimit:10;stroke-dasharray:11.705, 11.705"
         inkscape:connector-curvature="0"
         d="m 137.5,239.4 298.4,0"
         class="st1"
         id="XMLID_262_" /><path
         style="fill:none;stroke:#000000;stroke-miterlimit:10"
         inkscape:connector-curvature="0"
         d="m 441.8,239.4 6,0 0,6"
         class="st0"
         id="XMLID_261_" /><path
         style="fill:none;stroke:#000000;stroke-miterlimit:10;stroke-dasharray:12.3803, 12.3803"
         inkscape:connector-curvature="0"
         d="m 447.8,257.8 0,92.9"
         class="st2"
         id="XMLID_260_" /></g></g><path
     style="fill:#ffffff"
     inkscape:connector-curvature="0"
     d="m 440.6,276.2 19.2,0 0,27.4 -19.2,0 0,-27.4 z"
     class="st3"
     id="XMLID_249_" /><path
     style="fill:#ffffff"
     inkscape:connector-curvature="0"
     d="m 101.9,249.6 34.9,0 0,102.4 -34.9,0 0,-102.4 z"
     class="st3"
     id="XMLID_115_" /><g
     id="XMLID_94_"><g
       id="XMLID_504_"><path
         style="fill:none;stroke:#000000;stroke-miterlimit:10"
         inkscape:connector-curvature="0"
         d="m 2.3,356.9 0,6 -6,0"
         class="st0"
         id="XMLID_512_" /><path
         style="fill:none;stroke:#000000;stroke-miterlimit:10;stroke-dasharray:11.3363, 11.3363"
         inkscape:connector-curvature="0"
         d="m -15,362.9 -85,0"
         class="st4"
         id="XMLID_511_" /><path
         style="fill:none;stroke:#000000;stroke-miterlimit:10"
         inkscape:connector-curvature="0"
         d="m -105.7,362.9 -6,0 0,-6"
         class="st0"
         id="XMLID_510_" /><path
         style="fill:none;stroke:#000000;stroke-miterlimit:10;stroke-dasharray:12.43, 12.43"
         inkscape:connector-curvature="0"
         d="m -111.7,344.4 0,-93.2"
         class="st5"
         id="XMLID_509_" /><path
         style="fill:none;stroke:#000000;stroke-miterlimit:10"
         inkscape:connector-curvature="0"
         d="m -111.7,245 0,-6 6,0"
         class="st0"
         id="XMLID_508_" /><path
         style="fill:none;stroke:#000000;stroke-miterlimit:10;stroke-dasharray:11.3363, 11.3363"
         inkscape:connector-curvature="0"
         d="m -94.4,239 85.1,0"
         class="st4"
         id="XMLID_507_" /><path
         style="fill:none;stroke:#000000;stroke-miterlimit:10"
         inkscape:connector-curvature="0"
         d="m -3.7,239 6,0 0,6"
         class="st0"
         id="XMLID_506_" /><path
         style="fill:none;stroke:#000000;stroke-miterlimit:10;stroke-dasharray:12.43, 12.43"
         inkscape:connector-curvature="0"
         d="m 2.3,257.4 0,93.2"
         class="st5"
         id="XMLID_505_" /></g></g><g
     id="XMLID_71_"><circle
       style="fill:#dfe6eb"
       r="20"
       cy="284.5"
       cx="-67.199997"
       class="st6"
       id="XMLID_30_" /><g
       id="XMLID_2_"><g
         id="XMLID_3_"><g
           id="XMLID_4_"><path
             style="fill:#8ac642"
             inkscape:connector-curvature="0"
             d="m -77.9,272.5 10.1,0 0,10.1 -10.1,0 0,-10.1 z"
             class="st7"
             id="XMLID_28_" /><path
             style="fill:#0baed1"
             inkscape:connector-curvature="0"
             d="m -77.9,283.8 10.1,0 0,10.1 -10.1,0 0,-10.1 z"
             class="st8"
             id="XMLID_27_" /><path
             style="fill:#0baed1"
             inkscape:connector-curvature="0"
             d="m -66.6,272.5 10.1,0 0,10.1 -10.1,0 0,-10.1 z"
             class="st8"
             id="XMLID_26_" /><path
             style="fill:#8ac642"
             inkscape:connector-curvature="0"
             d="m -66.6,283.8 10.1,0 0,10.1 -10.1,0 0,-10.1 z"
             class="st7"
             id="XMLID_25_" /><g
             id="XMLID_20_"><path
               style="fill:#ffffff"
               inkscape:connector-curvature="0"
               d="m -76.4,273.9 0.6,0 0,7.4 -0.6,0 0,-7.4 z"
               class="st3"
               id="XMLID_24_" /><path
               style="fill:#ffffff"
               inkscape:connector-curvature="0"
               d="m -69.9,273.9 0.6,0 0,7.4 -0.6,0 0,-7.4 z"
               class="st3"
               id="XMLID_23_" /><path
               style="fill:#ffffff"
               inkscape:connector-curvature="0"
               d="m -72.1,273.9 0.6,0 0,7.4 -0.6,0 0,-7.4 z"
               class="st3"
               id="XMLID_22_" /><path
               style="fill:#ffffff"
               inkscape:connector-curvature="0"
               d="m -74.2,273.9 0.6,0 0,7.4 -0.6,0 0,-7.4 z"
               class="st3"
               id="XMLID_21_" /></g><g
             id="XMLID_15_"><path
               style="fill:#ffffff"
               inkscape:connector-curvature="0"
               d="m -65.1,273.9 0.6,0 0,7.4 -0.6,0 0,-7.4 z"
               class="st3"
               id="XMLID_19_" /><path
               style="fill:#ffffff"
               inkscape:connector-curvature="0"
               d="m -58.6,273.9 0.6,0 0,7.4 -0.6,0 0,-7.4 z"
               class="st3"
               id="XMLID_18_" /><path
               style="fill:#ffffff"
               inkscape:connector-curvature="0"
               d="m -60.8,273.9 0.6,0 0,7.4 -0.6,0 0,-7.4 z"
               class="st3"
               id="XMLID_17_" /><path
               style="fill:#ffffff"
               inkscape:connector-curvature="0"
               d="m -62.9,273.9 0.6,0 0,7.4 -0.6,0 0,-7.4 z"
               class="st3"
               id="XMLID_16_" /></g><g
             id="XMLID_10_"><path
               style="fill:#ffffff"
               inkscape:connector-curvature="0"
               d="m -76.4,285.2 0.6,0 0,7.4 -0.6,0 0,-7.4 z"
               class="st3"
               id="XMLID_14_" /><path
               style="fill:#ffffff"
               inkscape:connector-curvature="0"
               d="m -69.9,285.2 0.6,0 0,7.4 -0.6,0 0,-7.4 z"
               class="st3"
               id="XMLID_13_" /><path
               style="fill:#ffffff"
               inkscape:connector-curvature="0"
               d="m -72.1,285.2 0.6,0 0,7.4 -0.6,0 0,-7.4 z"
               class="st3"
               id="XMLID_12_" /><path
               style="fill:#ffffff"
               inkscape:connector-curvature="0"
               d="m -74.2,285.2 0.6,0 0,7.4 -0.6,0 0,-7.4 z"
               class="st3"
               id="XMLID_11_" /></g><g
             id="XMLID_5_"><path
               style="fill:#ffffff"
               inkscape:connector-curvature="0"
               d="m -65.1,285.2 0.6,0 0,7.4 -0.6,0 0,-7.4 z"
               class="st3"
               id="XMLID_9_" /><path
               style="fill:#ffffff"
               inkscape:connector-curvature="0"
               d="m -58.6,285.2 0.6,0 0,7.4 -0.6,0 0,-7.4 z"
               class="st3"
               id="XMLID_8_" /><path
               style="fill:#ffffff"
               inkscape:connector-curvature="0"
               d="m -60.8,285.2 0.6,0 0,7.4 -0.6,0 0,-7.4 z"
               class="st3"
               id="XMLID_7_" /><path
               style="fill:#ffffff"
               inkscape:connector-curvature="0"
               d="m -62.9,285.2 0.6,0 0,7.4 -0.6,0 0,-7.4 z"
               class="st3"
               id="XMLID_6_" /></g></g><path
           style="fill:#06446a"
           inkscape:connector-curvature="0"
           d="m -53.4,296.6 -27.5,0 0,-5.6 1.4,0 0,4.1 24.6,0 0,-4.1 1.5,0 0,5.6 z"
           class="st9"
           id="XMLID_29_" /></g></g></g><path
     style="fill:#6aa4d9"
     inkscape:connector-curvature="0"
     d="m 81,152 377.5,0 0,23.3 -377.5,0 0,-23.3 z"
     class="st10"
     id="XMLID_32_" /><path
     style="fill:#87c3eb"
     inkscape:connector-curvature="0"
     d="m 458.4,152 137.2,0 0,23.3 -137.2,0 0,-23.3 z"
     class="st11"
     id="XMLID_35_" /><g
     id="XMLID_46_"><g
       id="XMLID_110_"><path
         style="fill:none;stroke:#394b54;stroke-miterlimit:10"
         inkscape:connector-curvature="0"
         d="m 140.1,285.3 19.6,0"
         class="st12"
         id="XMLID_116_" /><g
         id="XMLID_111_"><path
           style="fill:#394b54"
           inkscape:connector-curvature="0"
           d="m 158.2,290.3 8.7,-5 -8.7,-4.9 0,9.9 z"
           class="st13"
           id="XMLID_112_" /></g></g></g><g
     id="XMLID_54_"><g
       id="XMLID_243_"><path
         style="fill:none;stroke:#394b54;stroke-miterlimit:10"
         inkscape:connector-curvature="0"
         d="m 215.9,285.4 19.5,0"
         class="st12"
         id="XMLID_247_" /><g
         id="XMLID_244_"><path
           style="fill:#394b54"
           inkscape:connector-curvature="0"
           d="m 234,290.4 8.6,-5 -8.6,-5 0,10 z"
           class="st13"
           id="XMLID_245_" /></g></g></g><g
     id="XMLID_69_"><g
       id="XMLID_231_"><path
         style="fill:none;stroke:#394b54;stroke-miterlimit:10"
         inkscape:connector-curvature="0"
         d="m 290,285.4 19.6,0"
         class="st12"
         id="XMLID_239_" /><g
         id="XMLID_232_"><path
           style="fill:#394b54"
           inkscape:connector-curvature="0"
           d="m 308.2,290.4 8.6,-5 -8.6,-5 0,10 z"
           class="st13"
           id="XMLID_235_" /></g></g></g><g
     id="XMLID_41_"><g
       id="XMLID_165_"><path
         style="fill:none;stroke:#394b54;stroke-miterlimit:10"
         inkscape:connector-curvature="0"
         d="m 361.3,285.4 19.6,0"
         class="st12"
         id="XMLID_175_" /><g
         id="XMLID_166_"><path
           style="fill:#394b54"
           inkscape:connector-curvature="0"
           d="m 379.5,290.4 8.6,-5 -8.6,-5 0,10 z"
           class="st13"
           id="XMLID_171_" /></g></g></g><g
     id="XMLID_88_"><g
       id="XMLID_236_"><path
         style="fill:none;stroke:#000000;stroke-miterlimit:10"
         inkscape:connector-curvature="0"
         d="m 585.1,356.9 0,6 -6,0"
         class="st0"
         id="XMLID_257_" /><path
         style="fill:none;stroke:#000000;stroke-miterlimit:10;stroke-dasharray:11.5782, 11.5782"
         inkscape:connector-curvature="0"
         d="m 567.6,362.9 -86.9,0"
         class="st14"
         id="XMLID_256_" /><path
         style="fill:none;stroke:#000000;stroke-miterlimit:10"
         inkscape:connector-curvature="0"
         d="m 474.9,362.9 -6,0 0,-6"
         class="st0"
         id="XMLID_255_" /><path
         style="fill:none;stroke:#000000;stroke-miterlimit:10;stroke-dasharray:12.4345, 12.4345"
         inkscape:connector-curvature="0"
         d="m 468.9,344.4 0,-93.2"
         class="st15"
         id="XMLID_251_" /><path
         style="fill:none;stroke:#000000;stroke-miterlimit:10"
         inkscape:connector-curvature="0"
         d="m 468.9,244.9 0,-6 6,0"
         class="st0"
         id="XMLID_250_" /><path
         style="fill:none;stroke:#000000;stroke-miterlimit:10;stroke-dasharray:11.5782, 11.5782"
         inkscape:connector-curvature="0"
         d="m 486.5,238.9 86.8,0"
         class="st14"
         id="XMLID_248_" /><path
         style="fill:none;stroke:#000000;stroke-miterlimit:10"
         inkscape:connector-curvature="0"
         d="m 579.1,238.9 6,0 0,6"
         class="st0"
         id="XMLID_238_" /><path
         style="fill:none;stroke:#000000;stroke-miterlimit:10;stroke-dasharray:12.4345, 12.4345"
         inkscape:connector-curvature="0"
         d="m 585.1,257.4 0,93.2"
         class="st15"
         id="XMLID_237_" /></g></g><path
     style="fill:#ffffff"
     inkscape:connector-curvature="0"
     d="m 479.9,227.7 94.3,0 0,25.2 -94.3,0 0,-25.2 z"
     class="st3"
     id="XMLID_90_" /><g
     id="XMLID_463_"><circle
       style="fill:#dfe6eb"
       r="20"
       cy="285.70001"
       cx="503.10001"
       class="st6"
       id="XMLID_45_" /><g
       id="XMLID_178_"><g
         id="XMLID_177_"><path
           style="fill:#00b39f"
           inkscape:connector-curvature="0"
           d="m 488.1,284.7 1,0 0,11.4 -1,0 0,-11.4 z"
           class="st16"
           id="XMLID_174_" /><path
           style="fill:#86d0c8"
           inkscape:connector-curvature="0"
           d="m 488.1,279.9 1,0 0,4.8 -1,0 0,-4.8 z"
           class="st17"
           id="XMLID_176_" /></g><g
         id="XMLID_179_"><path
           style="fill:#00b39f"
           inkscape:connector-curvature="0"
           d="m 489.8,281.5 1,0 0,14.6 -1,0 0,-14.6 z"
           class="st16"
           id="XMLID_181_" /><path
           style="fill:#86d0c8"
           inkscape:connector-curvature="0"
           d="m 489.8,275.4 1,0 0,6.1 -1,0 0,-6.1 z"
           class="st17"
           id="XMLID_180_" /></g><g
         id="XMLID_182_"><path
           style="fill:#00b39f"
           inkscape:connector-curvature="0"
           d="m 491.5,282.7 1,0 0,13.3 -1,0 0,-13.3 z"
           class="st16"
           id="XMLID_184_" /><path
           style="fill:#86d0c8"
           inkscape:connector-curvature="0"
           d="m 491.5,277.2 1,0 0,5.6 -1,0 0,-5.6 z"
           class="st17"
           id="XMLID_183_" /></g><g
         id="XMLID_185_"><path
           style="fill:#00b39f"
           inkscape:connector-curvature="0"
           d="m 493.2,283.6 1,0 0,12.4 -1,0 0,-12.4 z"
           class="st16"
           id="XMLID_187_" /><path
           style="fill:#86d0c8"
           inkscape:connector-curvature="0"
           d="m 493.2,278.4 1,0 0,5.2 -1,0 0,-5.2 z"
           class="st17"
           id="XMLID_186_" /></g><g
         id="XMLID_188_"><path
           style="fill:#00b39f"
           inkscape:connector-curvature="0"
           d="m 494.9,284.2 1,0 0,11.8 -1,0 0,-11.8 z"
           class="st16"
           id="XMLID_190_" /><path
           style="fill:#86d0c8"
           inkscape:connector-curvature="0"
           d="m 494.9,279.3 1,0 0,5 -1,0 0,-5 z"
           class="st17"
           id="XMLID_189_" /></g><g
         id="XMLID_191_"><path
           style="fill:#00b39f"
           inkscape:connector-curvature="0"
           d="m 496.6,283.6 1,0 0,12.4 -1,0 0,-12.4 z"
           class="st16"
           id="XMLID_193_" /><path
           style="fill:#86d0c8"
           inkscape:connector-curvature="0"
           d="m 496.6,278.4 1,0 0,5.2 -1,0 0,-5.2 z"
           class="st17"
           id="XMLID_192_" /></g><g
         id="XMLID_194_"><path
           style="fill:#00b39f"
           inkscape:connector-curvature="0"
           d="m 498.4,283.1 1,0 0,12.9 -1,0 0,-12.9 z"
           class="st16"
           id="XMLID_196_" /><path
           style="fill:#86d0c8"
           inkscape:connector-curvature="0"
           d="m 498.4,277.7 1,0 0,5.4 -1,0 0,-5.4 z"
           class="st17"
           id="XMLID_195_" /></g><g
         id="XMLID_197_"><path
           style="fill:#00b39f"
           inkscape:connector-curvature="0"
           d="m 500.1,285 1,0 0,11 -1,0 0,-11 z"
           class="st16"
           id="XMLID_199_" /><path
           style="fill:#86d0c8"
           inkscape:connector-curvature="0"
           d="m 500.1,280.4 1,0 0,4.6 -1,0 0,-4.6 z"
           class="st17"
           id="XMLID_198_" /></g><g
         id="XMLID_200_"><path
           style="fill:#00b39f"
           inkscape:connector-curvature="0"
           d="m 501.8,286 1,0 0,10.1 -1,0 0,-10.1 z"
           class="st16"
           id="XMLID_202_" /><path
           style="fill:#86d0c8"
           inkscape:connector-curvature="0"
           d="m 501.8,281.7 1,0 0,4.2 -1,0 0,-4.2 z"
           class="st17"
           id="XMLID_201_" /></g><g
         id="XMLID_203_"><path
           style="fill:#00b39f"
           inkscape:connector-curvature="0"
           d="m 503.5,286.9 1,0 0,9.1 -1,0 0,-9.1 z"
           class="st16"
           id="XMLID_205_" /><path
           style="fill:#86d0c8"
           inkscape:connector-curvature="0"
           d="m 503.5,283.1 1,0 0,3.8 -1,0 0,-3.8 z"
           class="st17"
           id="XMLID_204_" /></g><g
         id="XMLID_206_"><path
           style="fill:#00b39f"
           inkscape:connector-curvature="0"
           d="m 505.2,286.4 1,0 0,9.7 -1,0 0,-9.7 z"
           class="st16"
           id="XMLID_208_" /><path
           style="fill:#86d0c8"
           inkscape:connector-curvature="0"
           d="m 505.2,282.3 1,0 0,4.1 -1,0 0,-4.1 z"
           class="st17"
           id="XMLID_207_" /></g><g
         id="XMLID_209_"><path
           style="fill:#00b39f"
           inkscape:connector-curvature="0"
           d="m 506.9,285.5 1,0 0,10.6 -1,0 0,-10.6 z"
           class="st16"
           id="XMLID_211_" /><path
           style="fill:#86d0c8"
           inkscape:connector-curvature="0"
           d="m 506.9,281 1,0 0,4.4 -1,0 0,-4.4 z"
           class="st17"
           id="XMLID_210_" /></g><g
         id="XMLID_212_"><path
           style="fill:#00b39f"
           inkscape:connector-curvature="0"
           d="m 508.6,284.7 1,0 0,11.4 -1,0 0,-11.4 z"
           class="st16"
           id="XMLID_214_" /><path
           style="fill:#86d0c8"
           inkscape:connector-curvature="0"
           d="m 508.6,279.9 1,0 0,4.8 -1,0 0,-4.8 z"
           class="st17"
           id="XMLID_213_" /></g><g
         id="XMLID_215_"><path
           style="fill:#00b39f"
           inkscape:connector-curvature="0"
           d="m 510.3,285.5 1,0 0,10.6 -1,0 0,-10.6 z"
           class="st16"
           id="XMLID_217_" /><path
           style="fill:#86d0c8"
           inkscape:connector-curvature="0"
           d="m 510.3,281 1,0 0,4.4 -1,0 0,-4.4 z"
           class="st17"
           id="XMLID_216_" /></g><g
         id="XMLID_218_"><path
           style="fill:#00b39f"
           inkscape:connector-curvature="0"
           d="m 512,284.2 1,0 0,11.8 -1,0 0,-11.8 z"
           class="st16"
           id="XMLID_220_" /><path
           style="fill:#86d0c8"
           inkscape:connector-curvature="0"
           d="m 512,279.3 1,0 0,5 -1,0 0,-5 z"
           class="st17"
           id="XMLID_219_" /></g><g
         id="XMLID_221_"><path
           style="fill:#00b39f"
           inkscape:connector-curvature="0"
           d="m 513.7,283.6 1,0 0,12.4 -1,0 0,-12.4 z"
           class="st16"
           id="XMLID_223_" /><path
           style="fill:#86d0c8"
           inkscape:connector-curvature="0"
           d="m 513.7,278.4 1,0 0,5.2 -1,0 0,-5.2 z"
           class="st17"
           id="XMLID_222_" /></g><g
         id="XMLID_224_"><path
           style="fill:#00b39f"
           inkscape:connector-curvature="0"
           d="m 515.4,282.7 1,0 0,13.3 -1,0 0,-13.3 z"
           class="st16"
           id="XMLID_226_" /><path
           style="fill:#86d0c8"
           inkscape:connector-curvature="0"
           d="m 515.4,277.2 1,0 0,5.6 -1,0 0,-5.6 z"
           class="st17"
           id="XMLID_225_" /></g><g
         id="XMLID_227_"><path
           style="fill:#00b39f"
           inkscape:connector-curvature="0"
           d="m 517.1,281.5 1,0 0,14.6 -1,0 0,-14.6 z"
           class="st16"
           id="XMLID_229_" /><path
           style="fill:#86d0c8"
           inkscape:connector-curvature="0"
           d="m 517.1,275.4 1,0 0,6.1 -1,0 0,-6.1 z"
           class="st17"
           id="XMLID_228_" /></g></g></g><g
     id="XMLID_66_"><circle
       style="fill:#dfe6eb"
       r="20"
       cy="285.39999"
       cx="553.59998"
       class="st6"
       id="XMLID_60_" /><g
       id="XMLID_61_"><path
         style="fill:#ffffff;stroke:#394b54;stroke-miterlimit:10"
         inkscape:connector-curvature="0"
         d="m 538.9,276.7 29.4,0 0,17.5 -29.4,0 0,-17.5 z"
         class="st18"
         id="XMLID_62_" /><g
         id="XMLID_63_"><ellipse
           style="fill:#86d0c8"
           ry="6.0999999"
           rx="6.1999998"
           cy="285.20001"
           cx="546.5"
           class="st17"
           id="XMLID_159_" /><path
           style="fill:#eec11b"
           inkscape:connector-curvature="0"
           d="m 546.5,285.4 2.4,-5.8 c 1.3,0.6 2.4,1.6 3.1,2.8 l -5.5,3 z"
           class="st19"
           id="XMLID_173_" /><path
           style="fill:#f47737"
           inkscape:connector-curvature="0"
           d="m 546.5,285.4 5.5,-2.9 c 0.9,1.3 0.9,3.8 0.1,5.3 l -5.6,-2.4 0,0 z"
           class="st20"
           id="XMLID_333_" /><path
           style="fill:#8ec73f"
           inkscape:connector-curvature="0"
           d="m 546.6,285.4 -0.9,-6.2 c 1.4,0 1.8,0 3.2,0.5 l -2.3,5.7 z"
           class="st21"
           id="XMLID_64_" /></g><g
         id="XMLID_65_"><path
           style="fill:#152935"
           inkscape:connector-curvature="0"
           d="m 554.3,280.8 11.9,0 0,0.7 -11.9,0 0,-0.7 z"
           class="st22"
           id="XMLID_74_" /><path
           style="fill:#152935"
           inkscape:connector-curvature="0"
           d="m 554.3,282.5 11.9,0 0,0.7 -11.9,0 0,-0.7 z"
           class="st22"
           id="XMLID_77_" /><path
           style="fill:#152935"
           inkscape:connector-curvature="0"
           d="m 554.3,284.3 11.9,0 0,0.7 -11.9,0 0,-0.7 z"
           class="st22"
           id="XMLID_91_" /><path
           style="fill:#152935"
           inkscape:connector-curvature="0"
           d="m 554.3,286.1 11.9,0 0,0.7 -11.9,0 0,-0.7 z"
           class="st22"
           id="XMLID_124_" /><path
           style="fill:#152935"
           inkscape:connector-curvature="0"
           d="m 554.3,287.8 11.9,0 0,0.7 -11.9,0 0,-0.7 z"
           class="st22"
           id="XMLID_125_" /><path
           style="fill:#152935"
           inkscape:connector-curvature="0"
           d="m 554.3,289.6 11.9,0 0,0.7 -11.9,0 0,-0.7 z"
           class="st22"
           id="XMLID_133_" /></g></g></g><g
     id="XMLID_286_"><circle
       style="fill:#dfe6eb"
       r="20"
       cy="285.29999"
       cx="119.9"
       class="st6"
       id="XMLID_53_" /><g
       id="XMLID_82_"><path
         style="fill:#00b39f"
         inkscape:connector-curvature="0"
         d="m 119.1,288.5 1.5,0 0,11.6 -1.5,0 0,-11.6 z"
         class="st16"
         id="XMLID_50_" /><circle
         style="fill:#00b39f"
         r="2.9000001"
         cy="287.60001"
         cx="119.9"
         class="st16"
         id="XMLID_81_" /><path
         style="fill:none;stroke:#00b39f;stroke-miterlimit:10"
         inkscape:connector-curvature="0"
         d="m 130.4,281.4 c -5.8,-5.8 -15.2,-5.8 -20.9,0"
         class="st23"
         id="XMLID_93_" /><path
         style="fill:none;stroke:#00b39f;stroke-miterlimit:10"
         inkscape:connector-curvature="0"
         d="m 133.2,280 c -7.4,-7.4 -19.3,-7.4 -26.6,0"
         class="st23"
         id="XMLID_95_" /><path
         style="fill:none;stroke:#00b39f;stroke-miterlimit:10"
         inkscape:connector-curvature="0"
         d="m 128.2,283.2 c -4.6,-4.6 -12,-4.6 -16.6,0"
         class="st23"
         id="XMLID_99_" /><path
         style="fill:none;stroke:#00b39f;stroke-miterlimit:10"
         inkscape:connector-curvature="0"
         d="m 126.5,285.1 c -3.7,-3.7 -9.6,-3.7 -13.3,0"
         class="st23"
         id="XMLID_100_" /></g></g><g
     id="XMLID_285_"><circle
       style="fill:#dfe6eb"
       r="20"
       cy="285.39999"
       cx="195.60001"
       class="st6"
       id="XMLID_68_" /><g
       id="XMLID_102_"><g
         id="XMLID_233_"><g
           id="XMLID_155_"><path
             style="fill:none;stroke:#eec11b;stroke-miterlimit:10"
             inkscape:connector-curvature="0"
             d="m 183.9,285.8 11.8,11.7"
             class="st24"
             id="XMLID_158_" /><g
             id="XMLID_156_"><path
               style="fill:#eec11b"
               inkscape:connector-curvature="0"
               d="m 193.8,298.5 3.9,1 -1,-3.8 -2.9,2.8 z"
               class="st19"
               id="XMLID_157_" /></g></g></g><g
         id="XMLID_234_"><g
           id="XMLID_146_"><path
             style="fill:none;stroke:#eec11b;stroke-miterlimit:10"
             inkscape:connector-curvature="0"
             d="m 183.9,286.4 11.8,-11.8"
             class="st24"
             id="XMLID_152_" /><g
             id="XMLID_150_"><path
               style="fill:#eec11b"
               inkscape:connector-curvature="0"
               d="m 196.7,276.4 1,-3.8 -3.9,1 2.9,2.8 z"
               class="st19"
               id="XMLID_151_" /></g></g></g><g
         id="XMLID_51_"><g
           id="XMLID_141_"><path
             style="fill:none;stroke:#eec11b;stroke-miterlimit:10"
             inkscape:connector-curvature="0"
             d="m 184.8,285.8 19.6,0"
             class="st24"
             id="XMLID_144_" /><g
             id="XMLID_142_"><path
               style="fill:#eec11b"
               inkscape:connector-curvature="0"
               d="m 203.8,287.8 3.5,-2 -3.5,-2.1 0,4.1 z"
               class="st19"
               id="XMLID_143_" /></g></g></g><g
         id="XMLID_83_"><g
           id="XMLID_135_"><path
             style="fill:none;stroke:#eec11b;stroke-miterlimit:10"
             inkscape:connector-curvature="0"
             d="M 184.8,285.4 200.2,279"
             class="st24"
             id="XMLID_139_" /><g
             id="XMLID_137_"><path
               style="fill:#eec11b"
               inkscape:connector-curvature="0"
               d="m 200.4,281 2.4,-3.1 -3.9,-0.5 1.5,3.6 z"
               class="st19"
               id="XMLID_138_" /></g></g></g><g
         id="XMLID_101_"><g
           id="XMLID_119_"><path
             style="fill:none;stroke:#eec11b;stroke-miterlimit:10"
             inkscape:connector-curvature="0"
             d="m 184.8,286.4 15.4,6.4"
             class="st24"
             id="XMLID_131_" /><g
             id="XMLID_129_"><path
               style="fill:#eec11b"
               inkscape:connector-curvature="0"
               d="m 198.9,294.4 3.9,-0.5 -2.4,-3.2 -1.5,3.7 z"
               class="st19"
               id="XMLID_130_" /></g></g></g></g></g><g
     id="XMLID_283_"><circle
       style="fill:#dfe6eb"
       r="20"
       cy="285.39999"
       cx="269.79999"
       class="st6"
       id="XMLID_76_" /><g
       id="XMLID_254_"><g
         id="XMLID_163_"><path
           style="fill:#ffffff;stroke:#394b54;stroke-miterlimit:10"
           inkscape:connector-curvature="0"
           d="m 272.8,290.1 -13.2,0 0,-16.8 6.6,0 6.6,4.9 0,11.9 z"
           class="st18"
           id="XMLID_478_" /><g
           id="XMLID_162_"><path
             style="fill:#10212d"
             inkscape:connector-curvature="0"
             d="m 261.7,282.5 9.2,0 0,0.7 -9.2,0 0,-0.7 z"
             class="st25"
             id="XMLID_480_" /><path
             style="fill:#10212d"
             inkscape:connector-curvature="0"
             d="m 261.7,285.7 9.2,0 0,0.7 -9.2,0 0,-0.7 z"
             class="st25"
             id="XMLID_160_" /><path
             style="fill:#10212d"
             inkscape:connector-curvature="0"
             d="m 261.7,284.1 9.2,0 0,0.7 -9.2,0 0,-0.7 z"
             class="st25"
             id="XMLID_161_" /></g><g
           id="XMLID_78_"><path
             style="fill:#10212d"
             inkscape:connector-curvature="0"
             d="m 261.7,280.9 9.2,0 0,0.7 -9.2,0 0,-0.7 z"
             class="st25"
             id="XMLID_80_" /><path
             style="fill:#10212d"
             inkscape:connector-curvature="0"
             d="m 261.7,279.3 9.2,0 0,0.7 -9.2,0 0,-0.7 z"
             class="st25"
             id="XMLID_79_" /></g><path
           style="fill:#394b54"
           inkscape:connector-curvature="0"
           d="m 272.8,278 -6.6,0 0,-4.9 6.6,4.9 z"
           class="st13"
           id="XMLID_479_" /></g><g
         id="XMLID_103_"><path
           style="fill:#ffffff;stroke:#394b54;stroke-miterlimit:10"
           inkscape:connector-curvature="0"
           d="m 279.4,298.3 -13.2,0 0,-16.8 6.6,0 6.6,4.9 0,11.9 z"
           class="st18"
           id="XMLID_253_" /><g
           id="XMLID_136_"><path
             style="fill:#10212d"
             inkscape:connector-curvature="0"
             d="m 268.3,290.7 9.2,0 0,0.7 -9.2,0 0,-0.7 z"
             class="st25"
             id="XMLID_252_" /><path
             style="fill:#10212d"
             inkscape:connector-curvature="0"
             d="m 268.3,293.9 9.2,0 0,0.7 -9.2,0 0,-0.7 z"
             class="st25"
             id="XMLID_246_" /><path
             style="fill:#10212d"
             inkscape:connector-curvature="0"
             d="m 268.3,292.3 9.2,0 0,0.7 -9.2,0 0,-0.7 z"
             class="st25"
             id="XMLID_167_" /></g><g
           id="XMLID_105_"><path
             style="fill:#10212d"
             inkscape:connector-curvature="0"
             d="m 268.3,289.1 9.2,0 0,0.7 -9.2,0 0,-0.7 z"
             class="st25"
             id="XMLID_134_" /><path
             style="fill:#10212d"
             inkscape:connector-curvature="0"
             d="m 268.3,287.5 9.2,0 0,0.7 -9.2,0 0,-0.7 z"
             class="st25"
             id="XMLID_106_" /></g><path
           style="fill:#42535c"
           inkscape:connector-curvature="0"
           d="m 279.4,286.2 -6.6,0 0,-4.9 6.6,4.9 z"
           class="st26"
           id="XMLID_104_" /></g></g></g><g
     id="XMLID_284_"><circle
       style="fill:#dfe6eb"
       r="20"
       cy="285.39999"
       cx="415.79999"
       class="st6"
       id="XMLID_92_" /><g
       id="XMLID_170_"><path
         style="fill:#5b6872"
         inkscape:connector-curvature="0"
         d="m 407.1,287.8 0,-0.2 c 1.4,-0.4 2.3,-1.6 2.3,-3.1 0,-1.8 -1.5,-3.2 -3.3,-3.2 -1.8,0 -3.3,1.5 -3.3,3.2 0,1.4 0.9,2.6 2.2,3 l 0,0.3 c -3.1,0 -4.2,2 -4.2,2 l 0,1.9 10.7,0 0,-1.9 c -0.2,0.1 -1.3,-2 -4.4,-2 z"
         class="st27"
         id="XMLID_172_" /><path
         style="fill:#5b6872"
         inkscape:connector-curvature="0"
         d="m 416.9,281.2 0,-0.2 c 1.4,-0.4 2.3,-1.6 2.3,-3.1 0,-1.8 -1.5,-3.2 -3.3,-3.2 -1.8,0 -3.3,1.5 -3.3,3.2 0,1.4 0.9,2.6 2.2,3 l 0,0.3 c -3.1,0 -4.2,2 -4.2,2 l 0,1.9 10.7,0 0,-1.9 c -0.2,0 -1.3,-2 -4.4,-2 z"
         class="st27"
         id="XMLID_168_" /><path
         style="fill:#5b6872"
         inkscape:connector-curvature="0"
         d="m 426.8,287.8 0,-0.2 c 1.4,-0.4 2.3,-1.6 2.3,-3.1 0,-1.8 -1.5,-3.2 -3.3,-3.2 -1.8,0 -3.3,1.5 -3.3,3.2 0,1.4 0.9,2.6 2.2,3 l 0,0.3 c -3.1,0 -4.2,2 -4.2,2 l 0,1.9 10.7,0 0,-1.9 c -0.2,0.1 -1.3,-2 -4.4,-2 z"
         class="st27"
         id="XMLID_169_" /></g></g><g
     id="XMLID_282_"><g
       id="XMLID_72_"><circle
         style="fill:#dfe6eb"
         r="20"
         cy="285.39999"
         cx="341.10001"
         class="st6"
         id="XMLID_55_" /></g><g
       id="XMLID_49_"><path
         style="fill:#394b54"
         inkscape:connector-curvature="0"
         d="m 329.5,297.4 c -0.7,-0.6 -0.8,-1.7 -0.2,-2.4 l 12.6,-15.5 c 0.6,-0.7 1.7,-0.8 2.4,-0.2 0.7,0.6 0.8,1.7 0.2,2.4 l -12.6,15.5 c -0.6,0.7 -1.7,0.8 -2.4,0.2 z"
         class="st13"
         id="XMLID_56_" /><circle
         style="fill:#87c3eb;stroke:#394b54;stroke-miterlimit:10"
         r="7.5"
         cy="280.29999"
         cx="343.5"
         class="st28"
         id="XMLID_84_" /><path
         style="fill:none;stroke:#394b54;stroke-miterlimit:10"
         inkscape:connector-curvature="0"
         d="m 347.9,282 c 0.9,-1.7 0.3,-3.8 -1.4,-4.7"
         class="st12"
         id="XMLID_85_" /></g></g><path
     style="fill:#ffffff"
     inkscape:connector-curvature="0"
     d="m 224.6,222.1 118.3,0 0,34.9 -118.3,0 0,-34.9 z"
     class="st3"
     id="XMLID_70_" /><path
     style="fill:#4278bd"
     inkscape:connector-curvature="0"
     d="m -121,152 202,0 0,23.3 -202,0 0,-23.3 z"
     class="st29"
     id="XMLID_271_" /><g
     id="XMLID_31_"><g
       id="XMLID_75_"><path
         style="fill:none;stroke:#394b54;stroke-miterlimit:10"
         inkscape:connector-curvature="0"
         d="m 436.7,285.5 22.1,0"
         class="st12"
         id="XMLID_96_" /><g
         id="XMLID_87_"><path
           style="fill:#394b54"
           inkscape:connector-curvature="0"
           d="m 457.3,290.5 8.6,-5 -8.6,-5 0,10 z"
           class="st13"
           id="XMLID_89_" /></g></g></g><g
     id="XMLID_1_"><g
       id="XMLID_264_"><path
         style="fill:none;stroke:#394b54;stroke-miterlimit:10"
         inkscape:connector-curvature="0"
         d="m -47.2,285 134,0"
         class="st12"
         id="XMLID_267_" /><g
         id="XMLID_265_"><path
           style="fill:#394b54"
           inkscape:connector-curvature="0"
           d="m 85.4,290 8.6,-5 -8.6,-4.9 0,9.9 z"
           class="st13"
           id="XMLID_266_" /></g></g></g><path
     style="fill:#ffffff;stroke:#1c3649;stroke-miterlimit:10"
     inkscape:connector-curvature="0"
     d="m 25.8,296.7 -47.2,0 c -1.8,0 -3.3,-1.5 -3.3,-3.3 l 0,-16.5 c 0,-1.8 1.5,-3.3 3.3,-3.3 l 47.2,0 c 1.8,0 3.3,1.5 3.3,3.3 l 0,16.5 c 0,1.8 -1.5,3.3 -3.3,3.3 z"
     class="st30"
     id="XMLID_38_" /><path
     style="fill:#ffffff"
     inkscape:connector-curvature="0"
     d="m -101.8,222 94.1,0 0,34.9 -94.1,0 0,-34.9 z"
     class="st3"
     id="XMLID_58_" /><text
     id="XMLID_309_"
     class="st31 st32"
     style="font-size:12px;font-family:HelveticaNeueforIBM-Roman"
     x="-92.459999"
     y="327.26099">Conteneur</text>
<text
     class="st31 st32"
     id="text254"
     style="font-size:12px;font-family:HelveticaNeueforIBM-Roman"
     x="83.081001"
     y="325.604">Lumberjack/</text>
<text
     class="st31 st32"
     id="text256"
     style="font-size:12px;font-family:HelveticaNeueforIBM-Roman"
     x="91.681"
     y="340.004">Logstash</text>
<text
     id="XMLID_307_"
     class="st31 st32"
     style="font-size:12px;font-family:HelveticaNeueforIBM-Roman"
     x="165.10201"
     y="325.604">Kafka Bus</text>
<text
     id="XMLID_306_"
     class="st31 st32"
     style="font-size:12px;font-family:HelveticaNeueforIBM-Roman"
     x="240.38901"
     y="325.604">LogStash</text>
<text
     id="XMLID_305_"
     class="st31 st32"
     style="font-size:12px;font-family:HelveticaNeueforIBM-Roman"
     x="301.43799"
     y="325.604">ElasticSearch</text>
<text
     id="XMLID_304_"
     class="st31 st32"
     style="font-size:12px;font-family:HelveticaNeueforIBM-Roman"
     x="482.27802"
     y="325.466">Grafana</text>
<text
     id="XMLID_303_"
     class="st31 st32"
     style="font-size:12px;font-family:HelveticaNeueforIBM-Roman"
     x="535.46301"
     y="325.465">Kibana</text>
<text
     id="XMLID_273_"
     class="st31 st32"
     x="478.646"
     y="243.442"
     style="font-size:12px;font-family:HelveticaNeueforIBM-Roman"><tspan
       style="font-size:10px"
       id="tspan3617">Interface utilisateur</tspan></text>
<text
     class="st31 st32"
     id="text264"
     style="font-style:normal;font-variant:normal;font-weight:normal;font-stretch:normal;font-size:12.00000095px;line-height:125%;font-family:HelveticaNeueforIBM-Roman;-inkscape-font-specification:'HelveticaNeueforIBM-Roman, Normal';text-align:center;writing-mode:lr-tb;text-anchor:middle"
     x="416.85199"
     y="325.604"
     sodipodi:linespacing="125%"><tspan
       sodipodi:role="line"
       id="tspan3921"
       x="416.85199"
       y="325.604">Proxy de</tspan><tspan
       sodipodi:role="line"
       id="tspan3923"
       x="416.85199"
       y="340.604">service</tspan><tspan
       sodipodi:role="line"
       id="tspan3925"
       x="416.85199"
       y="355.604">partagé</tspan></text>
<text
     id="XMLID_36_"
     class="st31 st33"
     style="font-size:14px;font-family:HelveticaNeueforIBM-Roman"
     x="468.94901"
     y="195.927">IBM Bluemix</text>
<text
     class="st31 st32"
     id="text269"
     style="font-size:12px;font-family:HelveticaNeueforIBM-Roman"
     x="247.09698"
     y="236.528">Réseau privé </text>
<text
     class="st31 st32"
     id="text271"
     style="font-size:12px;font-family:HelveticaNeueforIBM-Roman"
     x="233.597"
     y="250.92799">de journalisation</text>
<text
     id="XMLID_301_"
     class="st31 st33"
     style="font-size:13.99999976px;font-family:HelveticaNeueforIBM-Roman;-inkscape-font-specification:'HelveticaNeueforIBM-Roman, Normal';font-weight:normal;font-style:normal;font-stretch:normal;font-variant:normal;text-anchor:start;text-align:start;writing-mode:lr;line-height:125%;"
     x="-111.616"
     y="195.927"
     sodipodi:linespacing="125%"><tspan
       sodipodi:role="line"
       id="tspan3605">IBM Bluemix </tspan><tspan
       sodipodi:role="line"
       id="tspan3607">Container Service</tspan></text>
<text
     id="XMLID_300_"
     class="st34"
     style="enable-background:new"
     x="75.160004"
     y="195.927"><tspan
       x="75.160004"
       y="195.927"
       class="st31 st32"
       id="tspan275"
       style="font-size:12px;font-family:HelveticaNeueforIBM-Roman" /><tspan
       x="89.459999"
       y="195.927"
       class="st31 st33"
       id="tspan277"
       style="font-size:14px;font-family:HelveticaNeueforIBM-Roman">Journalisation</tspan></text>
<text
     id="XMLID_269_"
     class="st31 st35"
     style="font-size:10px;font-family:HelveticaNeueforIBM-Roman"
     x="32.108002"
     y="303.55399">Chiffré SSL</text>
<text
     class="st31 st32"
     id="text280"
     style="font-size:12px;font-family:HelveticaNeueforIBM-Roman"
     x="-96.501999"
     y="234.786">Réseau privé </text>
<text
     class="st31 st32"
     id="text282"
     style="font-size:12px;font-family:HelveticaNeueforIBM-Roman"
     x="-104.902"
     y="249.186">de journalisation</text>
<text
     id="XMLID_153_"
     class="st31 st32"
     sodipodi:linespacing="125%"
     x="-21.459999"
     y="283.08099"
     style="font-size:12px;line-height:125%;font-family:HelveticaNeueforIBM-Roman"><tspan
       sodipodi:role="line"
       id="tspan3621"
       style="font-style:normal;font-variant:normal;font-weight:normal;font-stretch:normal;font-size:8.75px;line-height:125%;font-family:HelveticaNeueforIBM-Roman;-inkscape-font-specification:'HelveticaNeueforIBM-Roman, Normal';text-align:start;writing-mode:lr-tb;text-anchor:start"
       x="-21.459999"
       y="283.08099">Moteur de</tspan><tspan
       sodipodi:role="line"
       id="tspan3623"
       style="font-style:normal;font-variant:normal;font-weight:normal;font-stretch:normal;font-size:8.75px;line-height:125%;font-family:HelveticaNeueforIBM-Roman;-inkscape-font-specification:'HelveticaNeueforIBM-Roman, Normal';text-align:start;writing-mode:lr-tb;text-anchor:start"
       x="-21.459999"
       y="294.01849">balayage</tspan></text>
</svg>
