<?xml version="1.0" encoding="UTF-8" standalone="no"?>
<svg id="Layer_1" data-name="Layer 1" xmlns="http://www.w3.org/2000/svg" viewBox="0 0 1036.53 587.29"><defs><style>.cls-1{fill:#8c9ba5;}.cls-2{fill:#5a6872;}.cls-17,.cls-3{font-size:12px;}.cls-3{font-family:HelvNeue Roman for IBM;}.cls-4,.cls-6{fill:#10212d;}.cls-10,.cls-12,.cls-13,.cls-18,.cls-19,.cls-20,.cls-21,.cls-26,.cls-27,.cls-28,.cls-29,.cls-5,.cls-7,.cls-8,.cls-9{fill:none;}.cls-18,.cls-19,.cls-20,.cls-21,.cls-26,.cls-27,.cls-28,.cls-29,.cls-5,.cls-6{stroke:#10212d;}.cls-10,.cls-12,.cls-13,.cls-15,.cls-16,.cls-18,.cls-19,.cls-20,.cls-21,.cls-26,.cls-27,.cls-28,.cls-29,.cls-5,.cls-6,.cls-8,.cls-9{stroke-miterlimit:10;}.cls-8{stroke:#734199;}.cls-10,.cls-12,.cls-13,.cls-8,.cls-9{stroke-width:6px;}.cls-9{stroke:#4278bd;}.cls-10{stroke:#eec11b;}.cls-11{fill:#eec11b;}.cls-12{stroke:#f05253;}.cls-13{stroke:#00b39f;}.cls-14,.cls-16{fill:#87c3eb;}.cls-15{fill:#fff;stroke:#a9a9aa;}.cls-16{stroke:#87c3eb;}.cls-17{font-family:Myriad Pro;}.cls-18{stroke-dasharray:7.76 7.76;}.cls-19{stroke-dasharray:8.23 8.23;}.cls-20{stroke-dasharray:8.09 8.09;}.cls-21{stroke-dasharray:8.11 8.11;}.cls-22{fill:#4278bd;}.cls-23{fill:#734199;}.cls-24{fill:#00b39f;}.cls-25{fill:#f05253;}.cls-26{stroke-dasharray:8.25 8.25;}.cls-27{stroke-dasharray:7.69 7.69;}.cls-28{stroke-dasharray:7.8 7.8;}.cls-29{stroke-dasharray:7.41 7.41;}</style></defs><title>cs_org_ov</title><rect id="_Rectangle_" data-name="&lt;Rectangle&gt;" class="cls-1" x="515.79" width="513.13" height="15.6"/><rect id="_Rectangle_2" data-name="&lt;Rectangle&gt;" class="cls-2" width="515.79" height="15.6"/><text class="cls-3" transform="translate(732.96 30.42)">Cu<tspan x="14.84" y="0">s</tspan><tspan x="20.69" y="0">t</tspan><tspan x="24.01" y="0">o</tspan><tspan x="30.78" y="0">m</tspan><tspan x="40.74" y="0">er </tspan><tspan x="53.93" y="0">A</tspan><tspan x="61.69" y="0">cc</tspan><tspan x="74.39" y="0">ou</tspan><tspan x="87.56" y="0">n</tspan><tspan x="93.79" y="0">t</tspan></text><text class="cls-3" transform="translate(211.16 29.69)">IBM M<tspan x="33.95" y="0">a</tspan><tspan x="40.43" y="0">nag</tspan><tspan x="59.89" y="0">e</tspan><tspan x="66.41" y="0">d Ma</tspan><tspan x="92.65" y="0">s</tspan><tspan x="98.5" y="0">t</tspan><tspan x="101.82" y="0">er</tspan></text><text class="cls-3" transform="translate(773.69 572.86)">P<tspan x="7.58" y="0">r</tspan><tspan x="11.75" y="0">i</tspan><tspan x="14.1" y="0">v</tspan><tspan x="19.56" y="0">a</tspan><tspan x="25.86" y="0">t</tspan><tspan x="29.18" y="0">e V</tspan><tspan x="45.86" y="0">L</tspan><tspan x="53.27" y="0">AN</tspan></text><text class="cls-3" transform="translate(968.09 102.98) scale(1.01 1)">Public V<tspan x="42.24" y="0">L</tspan><tspan x="49.64" y="0">AN</tspan></text><g id="_Group_" data-name="&lt;Group&gt;"><line class="cls-4" x1="808.12" y1="506.91" x2="808.12" y2="553.91"/><line class="cls-5" x1="808.62" y1="511.91" x2="808.62" y2="548.91"/><polygon class="cls-4" points="804.97 512.91 808.46 506.87 811.95 512.91 804.97 512.91"/><polygon class="cls-4" points="804.97 547.91 808.46 553.95 811.95 547.91 804.97 547.91"/></g><text class="cls-3" transform="translate(8.85 102.91)">Public V<tspan x="42.24" y="0">L</tspan><tspan x="49.64" y="0">AN</tspan></text><rect id="_Rectangle_3" data-name="&lt;Rectangle&gt;" class="cls-6" x="797.71" y="-117.85" width="6.3" height="455.12" transform="translate(919.09 -691.07) rotate(90.07)"/><rect id="_Rectangle_4" data-name="&lt;Rectangle&gt;" class="cls-6" x="797.72" y="330.76" width="6.3" height="455.11" transform="translate(1367.69 -241.97) rotate(90.07)"/><rect id="_Rectangle_5" data-name="&lt;Rectangle&gt;" class="cls-6" x="217.91" y="-111.28" width="6.92" height="441.74" transform="translate(338.82 -111.71) rotate(90.07)"/><line id="_Path_" data-name="&lt;Path&gt;" class="cls-5" x1="678.62" y1="84.91" x2="678.62" y2="105.91"/><line id="_Path_2" data-name="&lt;Path&gt;" class="cls-5" x1="678.12" y1="85.41" x2="399.12" y2="85.41"/><line id="_Path_3" data-name="&lt;Path&gt;" class="cls-6" x1="399.62" y1="85.91" x2="399.62" y2="106.91"/><text x="7.6" y="-0.05"/><text x="7.6" y="-0.05"/><g id="_Group_2" data-name="&lt;Group&gt;"><line class="cls-4" x1="820.12" y1="112.91" x2="820.12" y2="151.91"/><line class="cls-5" x1="819.62" y1="117.91" x2="819.62" y2="146.91"/><polygon class="cls-4" points="816.63 118.91 820.12 112.86 823.61 118.91 816.63 118.91"/><polygon class="cls-4" points="816.63 145.91 820.12 151.95 823.61 145.91 816.63 145.91"/></g><rect id="_Rectangle_6" data-name="&lt;Rectangle&gt;" class="cls-6" x="218.28" y="139.49" width="6.19" height="441.74" transform="translate(589.59 139.35) rotate(90.07)"/><text class="cls-3" transform="translate(194.2 377.56)">P<tspan x="7.58" y="0">r</tspan><tspan x="11.75" y="0">i</tspan><tspan x="14.1" y="0">v</tspan><tspan x="19.56" y="0">a</tspan><tspan x="25.86" y="0">t</tspan><tspan x="29.18" y="0">e V</tspan><tspan x="45.86" y="0">L</tspan><tspan x="53.27" y="0">AN</tspan></text><text x="7.6" y="-0.05"/><line class="cls-7" x1="399.7" y1="390.57" x2="399.7" y2="290.57"/><line class="cls-7" x1="45.19" y1="496.17" x2="45.19" y2="296.17"/><line class="cls-8" x1="668.62" y1="92.48" x2="668.62" y2="126.05"/><g id="_Group_3" data-name="&lt;Group&gt;"><line class="cls-4" x1="288.12" y1="112.91" x2="288.12" y2="151.91"/><line class="cls-5" x1="288.62" y1="117.91" x2="288.62" y2="146.91"/><polygon class="cls-4" points="285.11 118.91 288.6 112.86 292.09 118.91 285.11 118.91"/><polygon class="cls-4" points="285.11 145.91 288.6 151.95 292.09 145.91 285.11 145.91"/></g><line class="cls-8" x1="668.62" y1="123.07" x2="802.37" y2="123.07"/><polyline class="cls-8" points="298.6 178.63 298.6 124.04 298.94 124.04 409.62 124.04 409.62 95.41 668.62 95.41"/><line class="cls-9" x1="376.64" y1="65.47" x2="697.77" y2="65.41"/><line class="cls-9" x1="698.62" y1="62.37" x2="698.62" y2="86.28"/><line class="cls-9" x1="379.62" y1="65.81" x2="379.62" y2="88.18"/><line class="cls-9" x1="695.65" y1="86.28" x2="827.92" y2="86.28"/><polyline class="cls-9" points="268.6 182.77 268.6 85.98 268.6 85.17 378.59 85.17"/><line class="cls-9" x1="829.98" y1="83.26" x2="830.12" y2="173.61"/><line class="cls-8" x1="800.12" y1="120.13" x2="800.12" y2="177.74"/><line class="cls-10" x1="366.64" y1="55.41" x2="424.33" y2="55.41"/><path class="cls-11" d="M425.78,55.46C421.52,57,416.23,59.74,413,62.6l2.58-7.13L413,48.33C416.23,51.19,421.52,53.88,425.78,55.46Z" transform="translate(7.6 -0.05)"/><polyline class="cls-10" points="259.63 172.84 259.63 76.05 259.63 75.24 369.62 75.24 369.62 74.55 369.62 55.41"/><line class="cls-12" x1="386.6" y1="74.95" x2="688.62" y2="75.41"/><line class="cls-12" x1="688.62" y1="72.41" x2="688.62" y2="99.26"/><line class="cls-12" x1="690.29" y1="96.28" x2="811.03" y2="96.28"/><line class="cls-12" x1="810.12" y1="93.3" x2="810.12" y2="172.74"/><line class="cls-12" x1="389.62" y1="75.18" x2="389.62" y2="97.23"/><polyline class="cls-12" points="279.3 188.54 279.3 97.39 279.3 95.17 392.48 95.17"/><line class="cls-13" x1="658.62" y1="102.45" x2="658.62" y2="135.91"/><line class="cls-13" x1="658.41" y1="133.07" x2="789.21" y2="133.07"/><polyline class="cls-13" points="308.6 177.19 308.6 133.97 419.62 134.04 419.62 103.44 419.62 105.41 658.62 105.41"/><line class="cls-13" x1="790.12" y1="130.06" x2="790.12" y2="179.67"/><line class="cls-13" x1="416.56" y1="105.4" x2="424.73" y2="105.4"/><rect id="_Rectangle_7" data-name="&lt;Rectangle&gt;" class="cls-14" x="8.11" y="152.21" width="441.74" height="156.88"/><line class="cls-12" x1="105.05" y1="185.77" x2="105.05" y2="254.62"/><rect id="_Rectangle_8" data-name="&lt;Rectangle&gt;" class="cls-15" x="16.15" y="254.72" width="96.25" height="23.47"/><text class="cls-3" transform="translate(24.82 270.31)">k<tspan x="5.92" y="0">u</tspan><tspan x="12.32" y="0">b</tspan><tspan x="19.31" y="0">e-</tspan><tspan x="30.52" y="0">a</tspan><tspan x="37" y="0">pi</tspan><tspan x="46.25" y="0">s</tspan><tspan x="52.16" y="0">e</tspan><tspan x="58.62" y="0">r</tspan><tspan x="63.16" y="0">v</tspan><tspan x="68.56" y="0">er</tspan></text><rect id="_Rectangle_9" data-name="&lt;Rectangle&gt;" class="cls-15" x="132.4" y="254.72" width="135.69" height="23.47"/><text class="cls-3" transform="translate(135.5 270.31)">k<tspan x="5.92" y="0">u</tspan><tspan x="12.32" y="0">b</tspan><tspan x="19.31" y="0">e-</tspan><tspan x="30.52" y="0">c</tspan><tspan x="36.86" y="0">o</tspan><tspan x="43.63" y="0">n</tspan><tspan x="49.86" y="0">t</tspan><tspan x="53.56" y="0">r</tspan><tspan x="57.26" y="0">olle</tspan><tspan x="75.22" y="0">r</tspan><tspan x="78.43" y="0">-m</tspan><tspan x="93.2" y="0">a</tspan><tspan x="99.68" y="0">nager</tspan></text><rect id="_Rectangle_10" data-name="&lt;Rectangle&gt;" class="cls-15" x="288.09" y="254.72" width="96.25" height="23.47"/><text class="cls-3" transform="translate(295.37 270.31)">k<tspan x="5.92" y="0">u</tspan><tspan x="12.32" y="0">b</tspan><tspan x="19.31" y="0">e-</tspan><tspan x="30.52" y="0">s</tspan><tspan x="36.43" y="0">c</tspan><tspan x="42.82" y="0">h</tspan><tspan x="49.16" y="0">e</tspan><tspan x="55.68" y="0">duler</tspan></text><rect id="_Rectangle_11" data-name="&lt;Rectangle&gt;" class="cls-15" x="404.35" y="254.72" width="37.46" height="23.47"/><text class="cls-3" transform="translate(411.62 270.31)">e<tspan x="6.34" y="0">t</tspan><tspan x="9.66" y="0">c</tspan><tspan x="16.01" y="0">d</tspan></text><rect id="_Rectangle_12" data-name="&lt;Rectangle&gt;" class="cls-16" x="580.9" y="152.21" width="455.12" height="354.28"/><rect id="_Rectangle_13" data-name="&lt;Rectangle&gt;" class="cls-15" x="853.51" y="408.33" width="139.66" height="23.47"/><text class="cls-3" transform="translate(882.94 423.92)">Cu<tspan x="14.84" y="0">s</tspan><tspan x="20.69" y="0">t</tspan><tspan x="24.01" y="0">o</tspan><tspan x="30.78" y="0">m</tspan><tspan x="40.74" y="0">er </tspan><tspan x="53.93" y="0">P</tspan><tspan x="61.16" y="0">o</tspan><tspan x="67.99" y="0">ds</tspan></text><rect id="_Rectangle_14" data-name="&lt;Rectangle&gt;" class="cls-15" x="853.51" y="235.02" width="139.66" height="23.47"/><text class="cls-3" transform="translate(858.09 250.61)">IBM <tspan x="23.82" y="0">L</tspan><tspan x="30.49" y="0">o</tspan><tspan x="37.32" y="0">ggi</tspan><tspan x="53.06" y="0">n</tspan><tspan x="59.41" y="0">g </tspan><tspan x="68.96" y="0">a</tspan><tspan x="75.44" y="0">n</tspan><tspan x="81.79" y="0">d M</tspan><tspan x="101.68" y="0">e</tspan><tspan x="108.01" y="0">t</tspan><tspan x="111.71" y="0">r</tspan><tspan x="115.87" y="0">ics</tspan></text><rect id="_Rectangle_15" data-name="&lt;Rectangle&gt;" class="cls-15" x="853.51" y="266.49" width="139.66" height="23.47"/><text class="cls-3" transform="translate(865.6 282.08)">IBM I<tspan x="26.68" y="0">n</tspan><tspan x="33.02" y="0">g</tspan><tspan x="39.72" y="0">r</tspan><tspan x="43.43" y="0">e</tspan><tspan x="49.87" y="0">s</tspan><tspan x="55.9" y="0">s </tspan><tspan x="64.66" y="0">C</tspan><tspan x="73.23" y="0">o</tspan><tspan x="80" y="0">n</tspan><tspan x="86.23" y="0">t</tspan><tspan x="89.93" y="0">r</tspan><tspan x="93.64" y="0">oller</tspan></text><rect id="_Rectangle_16" data-name="&lt;Rectangle&gt;" class="cls-15" x="853.51" y="297.95" width="139.66" height="23.47"/><text class="cls-3" transform="translate(873.45 313.55)">IBM <tspan x="23.82" y="0">L</tspan><tspan x="30.49" y="0">oad </tspan><tspan x="53.38" y="0">B</tspan><tspan x="61.43" y="0">a</tspan><tspan x="67.88" y="0">l</tspan><tspan x="70.25" y="0">a</tspan><tspan x="76.73" y="0">n</tspan><tspan x="83.08" y="0">c</tspan><tspan x="89.42" y="0">er</tspan></text><rect id="_Rectangle_17" data-name="&lt;Rectangle&gt;" class="cls-15" x="966.94" y="182.8" width="66.52" height="23.47"/><text class="cls-3" transform="translate(969.22 198.4)">c<tspan x="6.38" y="0">a</tspan><tspan x="12.84" y="0">li</tspan><tspan x="17.56" y="0">c</tspan><tspan x="23.9" y="0">o-</tspan><tspan x="35.42" y="0">n</tspan><tspan x="41.77" y="0">o</tspan><tspan x="48.6" y="0">de</tspan></text><rect id="_Rectangle_18" data-name="&lt;Rectangle&gt;" class="cls-15" x="899.44" y="158.09" width="66.52" height="23.47"/><text class="cls-3" transform="translate(902.11 173.68)">c<tspan x="6.38" y="0">a</tspan><tspan x="12.84" y="0">li</tspan><tspan x="17.56" y="0">c</tspan><tspan x="23.9" y="0">o-ip</tspan><tspan x="44.68" y="0">a</tspan><tspan x="51.16" y="0">m</tspan></text><rect id="_Rectangle_19" data-name="&lt;Rectangle&gt;" class="cls-15" x="966.94" y="158.09" width="66.52" height="23.47"/><text class="cls-3" transform="translate(974.91 173.68)">c<tspan x="6.38" y="0">a</tspan><tspan x="12.84" y="0">li</tspan><tspan x="17.56" y="0">c</tspan><tspan x="23.9" y="0">o-cni</tspan></text><text class="cls-17" transform="translate(875.76 467.82)">default namespa<tspan x="83.85" y="0">c</tspan><tspan x="89.16" y="0">e</tspan></text><text class="cls-17" transform="translate(621.22 467.82)">k<tspan x="5.68" y="0">ube</tspan><tspan x="25.13" y="0">r</tspan><tspan x="29.1" y="0">ne</tspan><tspan x="41.77" y="0">t</tspan><tspan x="45.67" y="0">es-s</tspan><tspan x="64.87" y="0">y</tspan><tspan x="70.45" y="0">s</tspan><tspan x="75.2" y="0">t</tspan><tspan x="79.1" y="0">em namespa</tspan><tspan x="143.49" y="0">c</tspan><tspan x="148.8" y="0">e</tspan></text><text class="cls-17" transform="translate(864.33 336.2)">ibm-s<tspan x="28.08" y="0">y</tspan><tspan x="33.66" y="0">s</tspan><tspan x="38.41" y="0">t</tspan><tspan x="42.31" y="0">em namespa</tspan><tspan x="106.7" y="0">c</tspan><tspan x="112.01" y="0">e</tspan></text><rect id="_Rectangle_20" data-name="&lt;Rectangle&gt;" class="cls-15" x="899.44" y="182.8" width="66.52" height="23.47"/><text class="cls-3" transform="translate(913.62 198.39)">k<tspan x="5.92" y="0">u</tspan><tspan x="12.32" y="0">b</tspan><tspan x="19.31" y="0">el</tspan><tspan x="28.13" y="0">e</tspan><tspan x="34.46" y="0">t</tspan></text><polyline class="cls-5" points="791.91 472.77 791.91 476.77 787.91 476.77"/><line class="cls-18" x1="780.15" y1="476.77" x2="613.21" y2="476.77"/><polyline class="cls-5" points="609.33 476.77 605.33 476.77 605.33 472.77"/><line class="cls-19" x1="605.33" y1="464.53" x2="605.33" y2="221.69"/><polyline class="cls-5" points="605.33 217.57 605.33 213.57 609.33 213.57"/><line class="cls-18" x1="617.09" y1="213.57" x2="784.03" y2="213.57"/><polyline class="cls-5" points="787.91 213.57 791.91 213.57 791.91 217.57"/><line class="cls-19" x1="791.91" y1="225.8" x2="791.91" y2="468.65"/><polyline class="cls-5" points="1016.63 338.87 1016.63 342.87 1012.63 342.87"/><line class="cls-18" x1="1004.87" y1="342.87" x2="837.93" y2="342.87"/><polyline class="cls-5" points="834.05 342.87 830.05 342.87 830.05 338.87"/><line class="cls-20" x1="830.05" y1="330.78" x2="830.05" y2="221.62"/><polyline class="cls-5" points="830.05 217.57 830.05 213.57 834.05 213.57"/><line class="cls-18" x1="841.81" y1="213.57" x2="1008.75" y2="213.57"/><polyline class="cls-5" points="1012.63 213.57 1016.63 213.57 1016.63 217.57"/><line class="cls-20" x1="1016.63" y1="225.66" x2="1016.63" y2="334.82"/><polyline class="cls-5" points="1016.63 472.77 1016.63 476.77 1012.63 476.77"/><line class="cls-18" x1="1004.87" y1="476.77" x2="837.93" y2="476.77"/><polyline class="cls-5" points="834.05 476.77 830.05 476.77 830.05 472.77"/><line class="cls-21" x1="830.05" y1="464.66" x2="830.05" y2="371.42"/><polyline class="cls-5" points="830.05 367.36 830.05 363.36 834.05 363.36"/><line class="cls-18" x1="841.81" y1="363.36" x2="1008.75" y2="363.36"/><polyline class="cls-5" points="1012.63 363.36 1016.63 363.36 1016.63 367.36"/><line class="cls-21" x1="1016.63" y1="375.47" x2="1016.63" y2="468.71"/><g id="_Group_4" data-name="&lt;Group&gt;"><line class="cls-4" x1="229.12" y1="308.91" x2="229.12" y2="355.91"/><line class="cls-5" x1="228.62" y1="313.91" x2="228.62" y2="350.91"/><polygon class="cls-4" points="225.49 314.91 228.98 308.87 232.47 314.91 225.49 314.91"/><polygon class="cls-4" points="225.49 349.91 228.98 355.95 232.47 349.91 225.49 349.91"/></g><text class="cls-3" transform="translate(580.91 148.54)">W<tspan x="10.27" y="0">o</tspan><tspan x="17.04" y="0">r</tspan><tspan x="21.22" y="0">k</tspan><tspan x="26.84" y="0">er N</tspan><tspan x="48.49" y="0">o</tspan><tspan x="55.32" y="0">de</tspan></text><text class="cls-3" transform="translate(9.2 148.18)">Ma<tspan x="16.49" y="0">s</tspan><tspan x="22.33" y="0">t</tspan><tspan x="25.66" y="0">er </tspan></text><line class="cls-10" x1="75.05" y1="155.77" x2="75.05" y2="245.01"/><path class="cls-11" d="M67.45,254.12c-1.58-4.26-4.28-9.54-7.13-12.82l7.13,2.58,7.13-2.58C71.73,244.57,69,249.86,67.45,254.12Z" transform="translate(7.6 -0.05)"/><line class="cls-9" x1="90.05" y1="170.78" x2="90.05" y2="245.01"/><path class="cls-22" d="M82.45,254.12c-1.58-4.26-4.28-9.54-7.13-12.82l7.13,2.58,7.13-2.58C86.73,244.57,84,249.86,82.45,254.12Z" transform="translate(7.6 -0.05)"/><line class="cls-12" x1="105.05" y1="188.77" x2="135.7" y2="188.77"/><polyline class="cls-10" points="259.63 150.6 259.63 158.77 75.05 158.77"/><polyline class="cls-8" points="298.6 152.21 298.6 199.79 298.6 203.77 238.74 203.77"/><path class="cls-23" d="M222.08,203.82c4.26-1.58,9.54-4.28,12.82-7.13l-2.58,7.13,2.58,7.13C231.63,208.1,226.34,205.4,222.08,203.82Z" transform="translate(7.6 -0.05)"/><polyline class="cls-12" points="279.3 148.54 279.3 188.54 279.3 188.77 229.69 188.77"/><polyline class="cls-9" points="268.6 150.6 268.6 173.77 90.05 173.77"/><polyline class="cls-13" points="416.16 188.77 308.6 188.77 308.6 187.2 308.6 148.54"/><line class="cls-13" x1="416.56" y1="185.73" x2="416.56" y2="243.72"/><path class="cls-24" d="M409,252.83c-1.58-4.26-4.28-9.54-7.13-12.82l7.13,2.58,7.13-2.58C413.24,243.28,410.54,248.57,409,252.83Z" transform="translate(7.6 -0.05)"/><rect id="_Rectangle_21" data-name="&lt;Rectangle&gt;" class="cls-15" x="133.51" y="184.2" width="96.02" height="23.47"/><text class="cls-3" transform="translate(140.09 199.79)">o<tspan x="6.77" y="0">p</tspan><tspan x="13.73" y="0">e</tspan><tspan x="20.18" y="0">n</tspan><tspan x="26.39" y="0">vpn-</tspan><tspan x="50.21" y="0">s</tspan><tspan x="56.12" y="0">e</tspan><tspan x="62.58" y="0">r</tspan><tspan x="67.12" y="0">v</tspan><tspan x="72.52" y="0">er</tspan></text><line class="cls-13" x1="790.12" y1="148.59" x2="790.12" y2="179.2"/><line class="cls-8" x1="800.12" y1="148.94" x2="800.12" y2="192.24"/><line class="cls-12" x1="810.12" y1="93.3" x2="810.12" y2="205.27"/><line class="cls-9" x1="830.05" y1="143.96" x2="830.05" y2="192.24"/><line class="cls-13" x1="635.92" y1="176.27" x2="790.12" y2="176.27"/><line class="cls-8" x1="763" y1="189.27" x2="803.11" y2="189.27"/><line class="cls-9" x1="830.05" y1="189.28" x2="899.44" y2="189.28"/><line class="cls-12" x1="810.12" y1="202.28" x2="889.56" y2="202.28"/><path class="cls-25" d="M891,202.34c-4.26,1.58-9.54,4.28-12.82,7.13l2.58-7.13-2.58-7.13C881.46,198.06,886.75,200.76,891,202.34Z" transform="translate(7.6 -0.05)"/><line class="cls-13" x1="635.92" y1="173.28" x2="635.92" y2="270.31"/><line class="cls-8" x1="765.98" y1="191.27" x2="765.98" y2="239.03"/><line class="cls-12" x1="778.98" y1="420.07" x2="844.46" y2="420.07"/><path class="cls-25" d="M845.91,420.12c-4.26,1.58-9.54,4.28-12.82,7.13l2.58-7.13L833.09,413C836.36,415.84,841.65,418.54,845.91,420.12Z" transform="translate(7.6 -0.05)"/><rect id="_Rectangle_22" data-name="&lt;Rectangle&gt;" class="cls-15" x="628.79" y="301.97" width="139.66" height="23.47"/><text class="cls-3" transform="translate(643.19 317.56)">IBM <tspan x="23.82" y="0">S</tspan><tspan x="31.38" y="0">t</tspan><tspan x="34.7" y="0">o</tspan><tspan x="41.47" y="0">r</tspan><tspan x="45.28" y="0">age P</tspan><tspan x="75.23" y="0">r</tspan><tspan x="78.94" y="0">o</tspan><tspan x="85.49" y="0">vider</tspan></text><rect id="_Rectangle_23" data-name="&lt;Rectangle&gt;" class="cls-15" x="628.79" y="427.84" width="139.66" height="23.47"/><text class="cls-3" transform="translate(675.74 443.43)">h<tspan x="6.35" y="0">e</tspan><tspan x="12.8" y="0">a</tspan><tspan x="19.28" y="0">p</tspan><tspan x="26.24" y="0">s</tspan><tspan x="32.09" y="0">t</tspan><tspan x="35.41" y="0">er</tspan></text><rect id="_Rectangle_24" data-name="&lt;Rectangle&gt;" class="cls-15" x="628.79" y="270.5" width="139.66" height="23.47"/><text class="cls-3" transform="translate(638.87 286.09)">c<tspan x="6.38" y="0">a</tspan><tspan x="12.84" y="0">li</tspan><tspan x="17.56" y="0">c</tspan><tspan x="23.9" y="0">o-</tspan><tspan x="35.42" y="0">p</tspan><tspan x="42.38" y="0">olicy-</tspan><tspan x="70.91" y="0">c</tspan><tspan x="77.26" y="0">o</tspan><tspan x="84.02" y="0">n</tspan><tspan x="90.25" y="0">t</tspan><tspan x="93.95" y="0">r</tspan><tspan x="97.66" y="0">oller</tspan></text><rect id="_Rectangle_25" data-name="&lt;Rectangle&gt;" class="cls-15" x="628.79" y="364.9" width="139.66" height="23.47"/><text class="cls-3" transform="translate(655.16 380.5)">k<tspan x="5.92" y="0">u</tspan><tspan x="12.32" y="0">b</tspan><tspan x="19.31" y="0">e-dash</tspan><tspan x="56.09" y="0">b</tspan><tspan x="63.07" y="0">o</tspan><tspan x="69.84" y="0">a</tspan><tspan x="76.32" y="0">r</tspan><tspan x="80.03" y="0">d</tspan></text><rect id="_Rectangle_26" data-name="&lt;Rectangle&gt;" class="cls-15" x="628.79" y="396.37" width="139.66" height="23.47"/><text class="cls-3" transform="translate(673.76 411.97)">k<tspan x="5.92" y="0">u</tspan><tspan x="12.32" y="0">b</tspan><tspan x="19.31" y="0">e-dns</tspan></text><rect id="_Rectangle_27" data-name="&lt;Rectangle&gt;" class="cls-15" x="628.79" y="333.43" width="139.66" height="23.47"/><text class="cls-3" transform="translate(668.79 349.03)">k<tspan x="5.92" y="0">u</tspan><tspan x="12.32" y="0">b</tspan><tspan x="19.31" y="0">e-p</tspan><tspan x="37.42" y="0">r</tspan><tspan x="41.12" y="0">o</tspan><tspan x="47.58" y="0">x</tspan><tspan x="53.76" y="0">y</tspan></text><polyline class="cls-5" points="598.2 118.49 598.2 122.49 594.2 122.49"/><line class="cls-26" x1="585.95" y1="122.49" x2="441.51" y2="122.49"/><polyline class="cls-5" points="437.38 122.49 433.38 122.49 433.38 118.49"/><line class="cls-27" x1="433.38" y1="110.8" x2="433.38" y2="53.12"/><polyline class="cls-5" points="433.38 49.27 433.38 45.27 437.38 45.27"/><line class="cls-26" x1="445.63" y1="45.27" x2="590.08" y2="45.27"/><polyline class="cls-5" points="594.2 45.27 598.2 45.27 598.2 49.27"/><line class="cls-27" x1="598.2" y1="56.96" x2="598.2" y2="114.64"/><line class="cls-12" x1="775.98" y1="202.27" x2="808.47" y2="202.27"/><line class="cls-12" x1="778.98" y1="202.27" x2="778.98" y2="423.04"/><rect id="_Rectangle_28" data-name="&lt;Rectangle&gt;" class="cls-15" x="645.19" y="239.03" width="139.66" height="23.47"/><text class="cls-3" transform="translate(676.18 254.62)">o<tspan x="6.77" y="0">p</tspan><tspan x="13.73" y="0">e</tspan><tspan x="20.18" y="0">n</tspan><tspan x="26.39" y="0">vpn-clie</tspan><tspan x="67.76" y="0">n</tspan><tspan x="73.99" y="0">t</tspan></text><polyline class="cls-5" points="362.96 145.42 362.96 149.42 358.96 149.42"/><line class="cls-28" x1="351.16" y1="149.42" x2="323.86" y2="149.42"/><polyline class="cls-5" points="319.96 149.42 315.96 149.42 315.96 145.42"/><line class="cls-29" x1="315.96" y1="138.01" x2="315.96" y2="52.75"/><polyline class="cls-5" points="315.96 49.05 315.96 45.05 319.96 45.05"/><line class="cls-28" x1="327.76" y1="45.05" x2="355.06" y2="45.05"/><polyline class="cls-5" points="358.96 45.05 362.96 45.05 362.96 49.05"/><line class="cls-29" x1="362.96" y1="56.46" x2="362.96" y2="141.72"/><text class="cls-17" transform="translate(320.27 65.44)">F<tspan x="5.53" y="0">i</tspan><tspan x="8.34" y="0">r</tspan><tspan x="12.14" y="0">e</tspan><tspan x="18.16" y="0">w</tspan><tspan x="26.94" y="0">all</tspan></text><text class="cls-17" transform="translate(438.2 58.99)">Bluemix <tspan x="42.88" y="0">I</tspan><tspan x="45.86" y="0">nf</tspan><tspan x="56.03" y="0">r</tspan><tspan x="59.89" y="0">astru</tspan><tspan x="84.94" y="0">c</tspan><tspan x="90.47" y="0">tu</tspan><tspan x="101.05" y="0">r</tspan><tspan x="104.85" y="0">e ne</tspan><tspan x="126.08" y="0">t</tspan><tspan x="130.16" y="0">w</tspan><tspan x="138.87" y="0">o</tspan><tspan x="145.46" y="0">r</tspan><tspan x="149.43" y="0">k</tspan></text><text class="cls-3" transform="translate(35.39 404.73)">K<tspan x="7.46" y="0">e</tspan><tspan x="13.69" y="0">y </tspan></text><line class="cls-7" x1="45.19" y1="476.77" x2="85.71" y2="476.77"/><line class="cls-7" x1="45.19" y1="496.17" x2="90.82" y2="496.17"/><line class="cls-10" x1="26.52" y1="431.8" x2="66.06" y2="431.8"/><line class="cls-13" x1="26.52" y1="571.8" x2="66.06" y2="571.8"/><line class="cls-12" x1="26.52" y1="501.8" x2="66.06" y2="501.8"/><line class="cls-8" x1="26.52" y1="536.8" x2="66.06" y2="536.8"/><line class="cls-9" x1="26.52" y1="466.8" x2="66.06" y2="466.8"/><text x="7.6" y="-0.05"/><text class="cls-17" transform="translate(85.71 428.12)">A<tspan x="7.31" y="0">ll</tspan><tspan x="12.97" y="0">o</tspan><tspan x="19.48" y="0">w</tspan><tspan x="28.24" y="0">s </tspan><tspan x="35.53" y="0">y</tspan><tspan x="41.06" y="0">our users </tspan><tspan x="89.33" y="0">t</tspan><tspan x="93.23" y="0">o a</tspan><tspan x="108.14" y="0">cc</tspan><tspan x="118.75" y="0">ess the </tspan><tspan x="156" y="0">k</tspan><tspan x="161.67" y="0">up</tspan><tspan x="175.11" y="0">e</tspan><tspan x="181.46" y="0">-apise</tspan><tspan x="211.33" y="0">r</tspan><tspan x="215.55" y="0">v</tspan><tspan x="221.21" y="0">e</tspan><tspan x="227.22" y="0">r</tspan><tspan x="230.5" y="0">, which </tspan><tspan x="0" y="14.4">c</tspan><tspan x="5.3" y="14.4">onfigu</tspan><tspan x="38.15" y="14.4">r</tspan><tspan x="41.95" y="14.4">es d</tspan><tspan x="62.03" y="14.4">a</tspan><tspan x="67.76" y="14.4">ta </tspan><tspan x="80.06" y="14.4">f</tspan><tspan x="83.41" y="14.4">or API obje</tspan><tspan x="137.95" y="14.4">c</tspan><tspan x="143.48" y="14.4">t</tspan><tspan x="147.45" y="14.4">s</tspan><tspan x="152.07" y="14.4">.</tspan></text><text class="cls-17" transform="translate(85.71 470.32)">T<tspan x="5.88" y="0">he </tspan><tspan x="21.1" y="0">k</tspan><tspan x="26.77" y="0">ubelet </tspan><tspan x="61.58" y="0">c</tspan><tspan x="66.89" y="0">ommunic</tspan><tspan x="114.95" y="0">a</tspan><tspan x="120.68" y="0">t</tspan><tspan x="124.58" y="0">es the health of the pods </tspan><tspan x="250.84" y="0">t</tspan><tspan x="254.74" y="0">o the </tspan><tspan x="283.06" y="0">k</tspan><tspan x="288.74" y="0">ub</tspan><tspan x="302.18" y="0">e</tspan><tspan x="308.53" y="0">-apise</tspan><tspan x="338.39" y="0">r</tspan><tspan x="342.62" y="0">v</tspan><tspan x="348.27" y="0">e</tspan><tspan x="354.28" y="0">r</tspan><tspan x="357.57" y="0">.</tspan></text><text class="cls-17" transform="translate(85.71 498.12)">S<tspan x="5.99" y="0">ecu</tspan><tspan x="23.99" y="0">r</tspan><tspan x="27.79" y="0">ely </tspan><tspan x="44.83" y="0">c</tspan><tspan x="50.14" y="0">onne</tspan><tspan x="76.06" y="0">c</tspan><tspan x="81.59" y="0">ts the IBM managed mas</tspan><tspan x="204.42" y="0">t</tspan><tspan x="208.32" y="0">ers </tspan><tspan x="225.55" y="0">t</tspan><tspan x="229.45" y="0">o </tspan><tspan x="238.58" y="0">y</tspan><tspan x="244.11" y="0">our </tspan><tspan x="263.78" y="0">w</tspan><tspan x="272.49" y="0">o</tspan><tspan x="279.08" y="0">r</tspan><tspan x="283.05" y="0">ker nodes</tspan><tspan x="0" y="14.4">and sends pod specific</tspan><tspan x="113.4" y="14.4">a</tspan><tspan x="119.13" y="14.4">tions </tspan><tspan x="146.46" y="14.4">t</tspan><tspan x="150.36" y="14.4">o the </tspan><tspan x="178.68" y="14.4">k</tspan><tspan x="184.35" y="14.4">ubelet on each nod</tspan><tspan x="281.35" y="14.4">e</tspan><tspan x="287.22" y="14.4">.</tspan></text><text class="cls-17" transform="translate(85.71 540.32)">S<tspan x="5.99" y="0">ecu</tspan><tspan x="23.99" y="0">r</tspan><tspan x="27.79" y="0">ely </tspan><tspan x="44.83" y="0">c</tspan><tspan x="50.14" y="0">onne</tspan><tspan x="76.06" y="0">c</tspan><tspan x="81.59" y="0">ts </tspan><tspan x="92.85" y="0">y</tspan><tspan x="98.39" y="0">our </tspan><tspan x="118.05" y="0">w</tspan><tspan x="126.77" y="0">o</tspan><tspan x="133.35" y="0">r</tspan><tspan x="137.33" y="0">ker nodes </tspan><tspan x="188.76" y="0">t</tspan><tspan x="192.66" y="0">o the IBM managed mas</tspan><tspan x="313.35" y="0">t</tspan><tspan x="317.25" y="0">er</tspan><tspan x="327.19" y="0">s</tspan><tspan x="331.81" y="0">.</tspan></text><text class="cls-17" transform="translate(85.71 571.8)">M<tspan x="9.72" y="0">anages ne</tspan><tspan x="60.63" y="0">t</tspan><tspan x="64.71" y="0">w</tspan><tspan x="73.43" y="0">o</tspan><tspan x="80.01" y="0">r</tspan><tspan x="83.99" y="0">k poli</tspan><tspan x="111.21" y="0">c</tspan><tspan x="116.81" y="0">y</tspan><tspan x="121.99" y="0">.</tspan></text></svg>
