<?xml version="1.0" encoding="UTF-8"?><svg id="Layer_1" xmlns="http://www.w3.org/2000/svg" viewBox="0 0 717.67 369.21"><defs><style>.cls-1{fill:#00b39f;}.cls-2{stroke-dasharray:8;}.cls-2,.cls-3{stroke:#00b39f;}.cls-2,.cls-3,.cls-4,.cls-5,.cls-6{stroke-miterlimit:10;}.cls-2,.cls-7,.cls-4,.cls-8,.cls-9,.cls-6{fill:#fff;}.cls-3{fill:none;}.cls-10{letter-spacing:0em;}.cls-4{fill-rule:evenodd;}.cls-4,.cls-5,.cls-6{stroke:#4278bd;}.cls-11{letter-spacing:0em;}.cls-5{fill:#4278bd;}.cls-8{font-size:20px;}.cls-8,.cls-9,.cls-12,.cls-13,.cls-14{font-family:IBMPlexSans, 'IBM Plex Sans';}.cls-9,.cls-14{font-size:14px;}.cls-15{letter-spacing:-.02em;}.cls-16{letter-spacing:-.01em;}.cls-17{letter-spacing:-.01em;}.cls-18{letter-spacing:-.02em;}.cls-19{letter-spacing:-.02em;}.cls-20{letter-spacing:-.02em;}.cls-12{font-size:11px;}.cls-21{letter-spacing:0em;}.cls-22{letter-spacing:0em;}.cls-23{letter-spacing:0em;}.cls-24{letter-spacing:0em;}.cls-25{letter-spacing:0em;}.cls-26{letter-spacing:0em;}.cls-13{font-size:12px;}.cls-27{letter-spacing:0em;}.cls-28{letter-spacing:0em;}.cls-29{letter-spacing:0em;}.cls-30{letter-spacing:0em;}.cls-31{letter-spacing:0em;}.cls-32{letter-spacing:0em;}.cls-33{letter-spacing:0em;}.cls-34{letter-spacing:0em;}.cls-35{letter-spacing:.01em;}.cls-36{letter-spacing:0em;}</style></defs><rect class="cls-2" x="10.6" y=".5" width="674.89" height="368.21" rx="12" ry="12"/><rect class="cls-6" x="327.02" y="-3.69" width="310.23" height="384.43" rx="12" ry="12" transform="translate(293.62 670.66) rotate(-90)"/><rect class="cls-5" x="302.97" y="85.96" width="200.61" height="184.14" rx="12" ry="12" transform="translate(225.24 581.3) rotate(-90)"/><text class="cls-9" transform="translate(370.4 98.52)"><tspan x="0" y="0">API se</tspan><tspan class="cls-36" x="40.86" y="0">r</tspan><tspan class="cls-31" x="46.14" y="0">v</tspan><tspan x="52.92" y="0">er</tspan></text><text class="cls-8" transform="translate(516.73 134.68)"><tspan class="cls-16" x="0" y="0">W</tspan><tspan x="17.52" y="0">or</tspan><tspan class="cls-19" x="36.06" y="0">k</tspan><tspan x="46.26" y="0">er 2</tspan></text><rect class="cls-7" x="326.13" y="173.25" width="156" height="38.04" rx="12" ry="12" transform="translate(211.86 596.4) rotate(-90)"/><text class="cls-13" transform="translate(400.75 231.06) rotate(-90)"><tspan x="0" y="0">Authorization</tspan></text><rect class="cls-7" x="384.91" y="172.83" width="156" height="38.04" rx="12" ry="12" transform="translate(271.06 654.76) rotate(-90)"/><text class="cls-13" transform="translate(459.55 242.32) rotate(-90)"><tspan x="0" y="0">Admi</tspan><tspan class="cls-24" x="28.13" y="0">s</tspan><tspan x="33.9" y="0">sion Cont</tspan><tspan class="cls-25" x="84.31" y="0">r</tspan><tspan x="88.65" y="0">ol</tspan></text><rect class="cls-7" x="266.13" y="173.98" width="156" height="38.04" rx="12" ry="12" transform="translate(151.13 537.13) rotate(-90)"/><text class="cls-13" transform="translate(341.75 231.52) rotate(-90)"><tspan x="0" y="0">Authentication</tspan></text><path class="cls-4" d="M555,167.77v36h.98c2.06,5,14.31,6.06,29.11,6.06s27.04-1.06,29.11-6.06h-.19v-36h-59Z"/><ellipse class="cls-6" cx="585.09" cy="167.35" rx="29.42" ry="7.08"/><path class="cls-4" d="M575,177.77v36h.98c2.06,5,14.31,6.06,29.11,6.06s27.04-1.06,29.11-6.06h-.19v-36h-59Z"/><ellipse class="cls-6" cx="605.09" cy="177.35" rx="29.42" ry="7.08"/><path class="cls-4" d="M596,189.77v36h.98c2.06,5,14.31,6.06,29.11,6.06s27.04-1.06,29.11-6.06h-.19v-36h-59Z"/><ellipse class="cls-6" cx="626.09" cy="189.35" rx="29.42" ry="7.08"/><text class="cls-14" transform="translate(611.79 216.04)"><tspan x="0" y="0">e</tspan><tspan class="cls-27" x="7.69" y="0">t</tspan><tspan class="cls-22" x="12.54" y="0">c</tspan><tspan x="19.5" y="0">d</tspan></text><text class="cls-14" transform="translate(460.3 59.81)"><tspan x="0" y="0">Ma</tspan><tspan class="cls-33" x="18.84" y="0">s</tspan><tspan class="cls-27" x="25.56" y="0">t</tspan><tspan x="30.42" y="0">er</tspan></text><rect class="cls-6" x="75.24" y="155.59" width="126.9" height="219.62" rx="12" ry="12" transform="translate(-126.71 404.1) rotate(-90)"/><text class="cls-14" transform="translate(103.72 218.29)"><tspan class="cls-17" x="0" y="0">W</tspan><tspan x="12.26" y="0">or</tspan><tspan class="cls-20" x="25.24" y="0">k</tspan><tspan x="32.38" y="0">er node</tspan></text><path d="M128.8,122.51c5.39,0,9.67,4.28,9.67,9.67s-4.28,9.67-9.67,9.67-9.67-4.28-9.67-9.67,4.28-9.67,9.67-9.67ZM128.8,119.75c-6.9,0-12.43,5.52-12.43,12.43s5.52,12.43,12.43,12.43,12.43-5.52,12.43-12.43-5.52-12.43-12.43-12.43Z"/><path d="M128.8,113.67c-12.15,0-22.09,9.94-22.09,22.09s9.94,22.09,22.09,22.09,22.09-9.94,22.09-22.09-9.94-22.09-22.09-22.09ZM138.88,147.23h-20.16c-1.66,0-3.04.69-3.87,1.8-3.31-3.45-5.39-8.15-5.39-13.26,0-10.63,8.7-19.33,19.33-19.33s19.33,8.7,19.33,19.33c0,5.11-2.07,9.8-5.39,13.26-.83-1.1-2.35-1.8-3.87-1.8Z"/><text class="cls-14" transform="translate(320.32 16.74)"><tspan x="0" y="0">Clu</tspan><tspan class="cls-33" x="20.45" y="0">s</tspan><tspan class="cls-26" x="27.17" y="0">t</tspan><tspan x="32.03" y="0">er</tspan></text><line class="cls-3" x1="155.5" y1="135.77" x2="318.5" y2="135.77"/><polygon class="cls-1" points="316.5 140.75 325.14 135.77 316.5 130.78 316.5 140.75"/><line class="cls-3" x1="365.5" y1="135.77" x2="377.5" y2="135.77"/><polygon class="cls-1" points="376.5 140.75 385.14 135.77 376.5 130.78 376.5 140.75"/><line class="cls-3" x1="423.5" y1="135.77" x2="435.5" y2="135.77"/><polygon class="cls-1" points="434.5 140.75 443.14 135.77 434.5 130.78 434.5 140.75"/><line class="cls-3" x1="225.5" y1="246.77" x2="317.5" y2="246.77"/><polygon class="cls-1" points="316.5 251.75 325.14 246.77 316.5 241.78 316.5 251.75"/><line class="cls-3" x1="363.5" y1="246.77" x2="375.5" y2="246.77"/><polygon class="cls-1" points="374.5 251.75 383.14 246.77 374.5 241.78 374.5 251.75"/><line class="cls-3" x1="423.5" y1="246.77" x2="435.5" y2="246.77"/><polygon class="cls-1" points="434.5 251.75 443.14 246.77 434.5 241.78 434.5 251.75"/><line class="cls-3" x1="482.5" y1="192.77" x2="548.5" y2="192.77"/><polygon class="cls-1" points="547.5 197.75 556.14 192.77 547.5 187.78 547.5 197.75"/><text class="cls-12" transform="translate(93.17 171.35)"><tspan x="0" y="0">Human user</tspan></text><text/><line class="cls-3" x1="312.5" y1="309.77" x2="242.5" y2="309.77"/><polygon class="cls-1" points="244.5 304.78 235.87 309.77 244.5 314.75 244.5 304.78"/><rect class="cls-6" x="387.09" y="220.61" width="33.98" height="182.51" rx="12" ry="12" transform="translate(92.22 715.95) rotate(-90)"/><line class="cls-3" x1="404" y1="278.27" x2="404" y2="287.27"/><polygon class="cls-1" points="398.82 286.27 403.81 294.9 408.8 286.27 398.82 286.27"/><text class="cls-14" transform="translate(343.77 316.13)"><tspan class="cls-20" x="0" y="0">k</tspan><tspan x="7.14" y="0">onnectivity se</tspan><tspan class="cls-35" x="94.12" y="0">r</tspan><tspan class="cls-32" x="99.4" y="0">v</tspan><tspan x="106.17" y="0">er</tspan></text><rect class="cls-6" x="39.05" y="289.63" width="196.54" height="30.7" rx="12" ry="12"/><text class="cls-14" transform="translate(79.05 308.08)"><tspan class="cls-18" x="0" y="0">k</tspan><tspan x="7.14" y="0">onnectivity client</tspan></text><line class="cls-3" x1="186" y1="289.27" x2="186" y2="267.27"/><polygon class="cls-1" points="191.06 268.27 186.07 259.63 181.09 268.27 191.06 268.27"/><line class="cls-3" x1="74" y1="288.27" x2="74" y2="266.27"/><polygon class="cls-1" points="79.06 267.27 74.07 258.63 69.09 267.27 79.06 267.27"/><rect class="cls-6" x="40.07" y="234.77" width="78" height="24"/><text class="cls-14" transform="translate(55.37 250.73)"><tspan class="cls-29" x="0" y="0">k</tspan><tspan x="7.24" y="0">ubelet</tspan></text><rect class="cls-6" x="147.07" y="234.77" width="78" height="24"/><text class="cls-14" transform="translate(159.77 250.73)"><tspan x="0" y="0">App pod</tspan></text><text class="cls-13" transform="translate(355.19 241.3) rotate(-90)"><tspan x="0" y="0">( TLS </tspan><tspan class="cls-24" x="29.53" y="0">c</tspan><tspan x="35.5" y="0">e</tspan><tspan class="cls-34" x="42.08" y="0">r</tspan><tspan x="46.54" y="0">tifica</tspan><tspan class="cls-28" x="72.99" y="0">t</tspan><tspan x="77.16" y="0">es )</tspan></text><text class="cls-13" transform="translate(415.19 210.84) rotate(-90)"><tspan x="0" y="0">(R</tspan><tspan class="cls-30" x="11.7" y="0">B</tspan><tspan class="cls-15" x="19.42" y="0">A</tspan><tspan class="cls-11" x="26.93" y="0">C)</tspan></text><text class="cls-13" transform="translate(473.98 248.49) rotate(-90)"><tspan x="0" y="0">(admi</tspan><tspan class="cls-21" x="30.86" y="0">s</tspan><tspan class="cls-10" x="36.64" y="0">sion </tspan><tspan class="cls-21" x="61.85" y="0">c</tspan><tspan class="cls-10" x="67.81" y="0">ont</tspan><tspan class="cls-23" x="85.56" y="0">r</tspan><tspan class="cls-10" x="89.9" y="0">o</tspan><tspan class="cls-23" x="96.62" y="0">l</tspan><tspan class="cls-10" x="99.83" y="0">ler)</tspan></text></svg>