<?xml version="1.0" encoding="utf-8"?>
<!-- Generator: Adobe Illustrator 22.0.0, SVG Export Plug-In . SVG Version: 6.00 Build 0)  -->
<svg version="1.1" id="Layer_1" xmlns="http://www.w3.org/2000/svg" xmlns:xlink="http://www.w3.org/1999/xlink" x="0px" y="0px"
	 viewBox="0 0 30.7 30.4" style="enable-background:new 0 0 30.7 30.4;" xml:space="preserve">
<style type="text/css">
	.st0{fill:none;stroke:#000000;stroke-width:0.72;stroke-miterlimit:10;}
	.st1{fill:none;stroke:#000000;stroke-width:0.72;stroke-linejoin:round;stroke-miterlimit:10;}
</style>
<g id="app_developer">
	<g id="app_developer_1_">
		<polyline class="st0" points="2.4,5.4 3.9,6.9 2.4,8.4 		"/>
		<polyline class="st0" points="27.6,15.1 25.9,16.9 25.9,19.4 		"/>
		<path d="M2.9,1.9c0,0.3-0.2,0.5-0.5,0.5S1.9,2.2,1.9,1.9s0.2-0.5,0.5-0.5S2.9,1.6,2.9,1.9z M4.4,1.4c-0.3,0-0.5,0.2-0.5,0.5
			s0.2,0.5,0.5,0.5s0.5-0.2,0.5-0.5S4.7,1.4,4.4,1.4z M6.4,1.4c-0.3,0-0.5,0.2-0.5,0.5s0.2,0.5,0.5,0.5s0.5-0.2,0.5-0.5
			S6.7,1.4,6.4,1.4z M17.4,5.4c-0.3,0-0.5,0.2-0.5,0.5s0.2,0.5,0.5,0.5s0.5-0.2,0.5-0.5S17.7,5.4,17.4,5.4z M19.4,5.4
			c-0.3,0-0.5,0.2-0.5,0.5s0.2,0.5,0.5,0.5s0.5-0.2,0.5-0.5S19.7,5.4,19.4,5.4z M21.4,5.4c-0.3,0-0.5,0.2-0.5,0.5s0.2,0.5,0.5,0.5
			s0.5-0.2,0.5-0.5S21.7,5.4,21.4,5.4z M4.4,23.4c-0.3,0-0.5,0.2-0.5,0.5s0.2,0.5,0.5,0.5s0.5-0.2,0.5-0.5S4.7,23.4,4.4,23.4z"/>
		<path class="st1" d="M0.4,13.4v-13h12v13H0.4z M12.4,3.4h-12 M4.4,9.4h3 M2.9,18.4h3 M2.9,20.4h3 M18.9,21.4h11.5v-17h-15v11
			 M15.4,7.4h15 M1.4,22.4h6 M7.4,17c0-0.3-0.3-0.6-0.6-0.6H2c-0.3,0-0.6,0.3-0.6,0.6v7.8c0,0.3,0.3,0.6,0.6,0.6h4.8
			c0.3,0,0.6-0.3,0.6-0.6V17z M25.9,14.4c-1.4,0-2.5,1.1-2.5,2.5s1.1,2.5,2.5,2.5s2.5-1.1,2.5-2.5S27.3,14.4,25.9,14.4z M17.4,9.4h4
			 M24.4,9.4h4 M17.4,11.4h4 M17.4,13.4h4 M24.4,11.4h4 M22.4,30.4l0-0.5c0-3.3-2.3-6.1-5.4-6.8c1.4-0.6,2.4-2,2.4-3.7
			c0-2.2-1.8-4-4-4s-4,1.8-4,4c0,1.6,1,3,2.4,3.7c-3.1,0.7-5.4,3.5-5.4,6.8l0,0.5"/>
	</g>
</g>
<g id="Layer_1_1_">
</g>
</svg>
