<?xml version="1.0" encoding="utf-8"?>
<!-- Generator: Adobe Illustrator 26.5.0, SVG Export Plug-In . SVG Version: 6.00 Build 0)  -->
<svg version="1.1" id="Layer_1" xmlns="http://www.w3.org/2000/svg" xmlns:xlink="http://www.w3.org/1999/xlink" x="0px" y="0px"
	 width="91.6px" height="122px" viewBox="0 0 91.6 122" style="enable-background:new 0 0 91.6 122;" xml:space="preserve">
<style type="text/css">
	.st0{fill:#FFFFFF;}
	.st1{fill:#326CE5;}
	.st2{fill:#326DE5;}
	.st3{fill:none;}
</style>
<path class="st0" d="M39.3,95.9c-0.1-0.1-0.2-0.2-0.4-0.3c-0.1-0.1-0.3-0.1-0.5-0.1c-0.2,0-0.4,0-0.5,0.1c-0.1,0.1-0.3,0.2-0.4,0.3
	c-0.1,0.1-0.2,0.2-0.2,0.4c-0.1,0.1-0.1,0.3-0.1,0.4h2.4c0-0.2,0-0.3-0.1-0.4C39.4,96.2,39.4,96,39.3,95.9L39.3,95.9z M31.2,95.6
	c-0.2,0-0.4,0-0.5,0.1c-0.2,0.1-0.3,0.1-0.4,0.2v3.3c0.1,0,0.2,0,0.3,0.1H31c0.5,0,0.9-0.2,1.1-0.5s0.4-0.8,0.4-1.3
	C32.5,96.2,32,95.6,31.2,95.6L31.2,95.6z M58.4,95.9c-0.1-0.1-0.2-0.2-0.4-0.3c-0.1-0.1-0.3-0.1-0.5-0.1c-0.2,0-0.4,0-0.5,0.1
	c-0.1,0.1-0.3,0.2-0.4,0.3c-0.1,0.1-0.2,0.2-0.2,0.4c-0.1,0.1-0.1,0.3-0.1,0.4h2.4c0-0.2,0-0.3-0.1-0.4C58.6,96.2,58.5,96,58.4,95.9
	L58.4,95.9z M70.5,95.9c-0.1-0.1-0.2-0.2-0.4-0.3c-0.1-0.1-0.3-0.1-0.5-0.1c-0.2,0-0.4,0-0.5,0.1c-0.1,0.1-0.3,0.2-0.4,0.3
	c-0.1,0.1-0.2,0.2-0.2,0.4c-0.1,0.1-0.1,0.3-0.1,0.4h2.4c0-0.2,0-0.3-0.1-0.4C70.7,96.2,70.6,96,70.5,95.9L70.5,95.9z"/>
<path class="st0" d="M9.8,28.1v82h72.9v-82H9.8z M34,86.7L21.7,71.5c-0.1-0.1-0.1-0.2-0.2-0.3c-0.5-0.8-0.7-1.7-0.5-2.6l4.4-19
	c0.2-1,0.9-1.8,1.8-2.3L45,38.9c0.4-0.2,0.8-0.3,1.3-0.3c0.6,0,1.1,0.1,1.6,0.3l17.7,8.5c0.9,0.4,1.6,1.3,1.8,2.3l4.4,19
	c0.2,1,0,2-0.6,2.9L58.9,86.8c-0.6,0.8-1.6,1.3-2.6,1.3H36.6C35.6,88,34.6,87.5,34,86.7L34,86.7z M18.5,100.5
	c-0.1-0.2-0.3-0.4-0.4-0.7c-0.2-0.3-0.3-0.5-0.5-0.8c-0.2-0.3-0.4-0.5-0.6-0.7c-0.2-0.2-0.4-0.4-0.6-0.6v2.7h-1.8v-9l1.8-0.3v5.3
	c0.2-0.2,0.4-0.4,0.5-0.6c0.2-0.2,0.4-0.4,0.5-0.6c0.2-0.2,0.4-0.4,0.5-0.6c0.2-0.2,0.3-0.4,0.4-0.5h2.1c-0.4,0.5-0.8,0.9-1.2,1.4
	c-0.4,0.4-0.8,0.9-1.3,1.4c0.2,0.2,0.5,0.5,0.8,0.8c0.3,0.3,0.5,0.6,0.8,0.9c0.2,0.3,0.5,0.6,0.6,1s0.4,0.6,0.5,0.9H18.5z
	 M26.7,100.3c-0.3,0.1-0.7,0.2-1.2,0.2c-0.5,0.1-1,0.1-1.5,0.1c-0.5,0-1-0.1-1.3-0.2s-0.6-0.4-0.8-0.6c-0.2-0.3-0.4-0.6-0.4-0.9
	c-0.1-0.4-0.1-0.8-0.1-1.2v-3.5h1.8v3.3c0,0.6,0.1,1,0.2,1.2s0.4,0.4,0.9,0.4h0.4c0.1,0,0.3,0,0.4-0.1v-4.9h1.8L26.7,100.3
	L26.7,100.3z M34.1,98.8c-0.1,0.4-0.4,0.8-0.6,1.1c-0.3,0.3-0.6,0.5-1,0.7c-0.4,0.2-0.9,0.2-1.4,0.2c-0.2,0-0.4,0-0.7,0
	c-0.2,0-0.5,0-0.7-0.1c-0.2,0-0.4-0.1-0.6-0.1c-0.2-0.1-0.4-0.1-0.5-0.1v-8.8l1.8-0.3v3.2c0.2-0.1,0.4-0.2,0.6-0.2
	c0.2-0.1,0.5-0.1,0.7-0.1c0.5,0,0.8,0.1,1.2,0.2c0.4,0.2,0.6,0.4,0.9,0.6c0.2,0.3,0.4,0.6,0.5,1.1c0.1,0.4,0.2,0.8,0.2,1.3
	C34.3,97.9,34.2,98.4,34.1,98.8z M41.3,97.7c0,0.1,0,0.2,0,0.3h-4.1c0,0.4,0.2,0.6,0.5,0.9c0.3,0.2,0.7,0.3,1.2,0.3
	c0.3,0,0.6,0,1-0.1c0.3-0.1,0.6-0.1,0.8-0.2l0.2,1.5c-0.1,0.1-0.2,0.1-0.4,0.1c-0.2,0.1-0.4,0.1-0.5,0.1c-0.2,0-0.4,0.1-0.6,0.1
	c-0.2,0-0.5,0-0.7,0c-0.6,0-1.1-0.1-1.5-0.2c-0.4-0.2-0.8-0.4-1.1-0.7c-0.3-0.3-0.5-0.6-0.6-1.1c-0.1-0.4-0.2-0.8-0.2-1.3
	c0-0.6,0.1-1.1,0.2-1.5c0.2-0.4,0.4-0.8,0.7-1.1s0.6-0.5,1-0.6c0.4-0.1,0.8-0.2,1.1-0.2c0.9,0,1.6,0.3,2.1,0.8
	c0.5,0.5,0.8,1.3,0.8,2.4C41.3,97.4,41.3,97.5,41.3,97.7L41.3,97.7z M46.5,95.8c-0.2,0-0.4-0.1-0.6-0.1c-0.2-0.1-0.5-0.1-0.7-0.1
	c-0.1,0-0.2,0-0.4,0c-0.2,0-0.3,0-0.4,0.1v4.8h-1.8v-6c0.3-0.1,0.7-0.2,1.1-0.3c0.4-0.1,0.9-0.2,1.5-0.2c0.1,0,0.2,0,0.4,0
	c0.1,0,0.3,0,0.4,0.1c0.1,0,0.3,0,0.4,0.1c0.1,0,0.2,0.1,0.4,0.1L46.5,95.8L46.5,95.8z M53.2,100.5h-1.8v-3.3c0-0.6-0.1-1-0.2-1.2
	c-0.2-0.2-0.4-0.4-0.9-0.4c-0.1,0-0.3,0-0.4,0c-0.1,0-0.3,0-0.4,0v4.8h-1.8v-6.1c0.3-0.1,0.7-0.2,1.2-0.2c0.5-0.1,1-0.1,1.5-0.1
	c0.5,0,1,0.1,1.3,0.2s0.6,0.3,0.9,0.6c0.2,0.3,0.4,0.6,0.4,0.9c0.1,0.4,0.1,0.8,0.1,1.2L53.2,100.5L53.2,100.5z M60.4,97.7
	c0,0.1,0,0.2,0,0.3h-4.1c0,0.4,0.2,0.6,0.5,0.9c0.3,0.2,0.7,0.3,1.2,0.3c0.3,0,0.6,0,1-0.1c0.3-0.1,0.6-0.1,0.8-0.2l0.2,1.5
	c-0.1,0.1-0.2,0.1-0.4,0.1c-0.2,0.1-0.4,0.1-0.5,0.1s-0.4,0.1-0.6,0.1c-0.2,0-0.5,0-0.7,0c-0.6,0-1.1-0.1-1.5-0.2
	c-0.4-0.2-0.8-0.4-1.1-0.7c-0.3-0.3-0.5-0.6-0.6-1.1s-0.2-0.8-0.2-1.3c0-0.6,0.1-1.1,0.2-1.5c0.2-0.4,0.4-0.8,0.7-1.1
	c0.3-0.3,0.6-0.5,1-0.6c0.4-0.1,0.8-0.2,1.1-0.2c0.9,0,1.6,0.3,2.1,0.8c0.5,0.5,0.8,1.3,0.8,2.4L60.4,97.7L60.4,97.7z M65.2,100.6
	c-0.3,0.1-0.6,0.1-1,0.1c-0.5,0-0.9-0.1-1.2-0.2s-0.6-0.3-0.8-0.5c-0.2-0.2-0.3-0.5-0.4-0.9c-0.1-0.3-0.1-0.7-0.1-1.1v-5.3l1.8-0.3
	v1.9h2.2v1.5h-2.2V98c0,0.4,0.1,0.7,0.2,0.9c0.1,0.2,0.4,0.3,0.8,0.3c0.2,0,0.4,0,0.6-0.1c0.2,0,0.4-0.1,0.6-0.2l0.2,1.4
	C65.7,100.5,65.5,100.5,65.2,100.6L65.2,100.6z M72.5,97.7c0,0.1,0,0.2,0,0.3h-4.1c0,0.4,0.2,0.6,0.5,0.9c0.3,0.2,0.7,0.3,1.2,0.3
	c0.3,0,0.6,0,1-0.1c0.3-0.1,0.6-0.1,0.8-0.2l0.2,1.5c-0.1,0.1-0.2,0.1-0.4,0.1c-0.2,0.1-0.4,0.1-0.5,0.1s-0.4,0.1-0.6,0.1
	c-0.2,0-0.5,0-0.7,0c-0.6,0-1.1-0.1-1.5-0.2c-0.4-0.2-0.8-0.4-1.1-0.7c-0.3-0.3-0.5-0.6-0.6-1.1s-0.2-0.8-0.2-1.3
	c0-0.6,0.1-1.1,0.2-1.5c0.2-0.4,0.4-0.8,0.7-1.1s0.6-0.5,1-0.6c0.4-0.1,0.8-0.2,1.1-0.2c0.9,0,1.6,0.3,2.1,0.8
	c0.5,0.5,0.8,1.3,0.8,2.4L72.5,97.7L72.5,97.7z M77.7,100.2c-0.5,0.3-1.1,0.5-2,0.5c-0.6,0-1-0.1-1.4-0.1c-0.4-0.1-0.6-0.2-0.8-0.2
	l0.3-1.5c0.3,0.1,0.6,0.2,0.9,0.3c0.3,0.1,0.6,0.1,0.9,0.1c0.3,0,0.6,0,0.7-0.1c0.1-0.1,0.2-0.2,0.2-0.4c0-0.1-0.1-0.3-0.3-0.4
	c-0.2-0.1-0.4-0.2-0.8-0.4c-0.3-0.1-0.5-0.2-0.8-0.3c-0.2-0.1-0.4-0.2-0.6-0.4c-0.2-0.2-0.3-0.4-0.4-0.6c-0.1-0.2-0.1-0.5-0.1-0.8
	c0-0.6,0.2-1.1,0.6-1.4s1.1-0.5,1.8-0.5c0.4,0,0.8,0,1.1,0.1c0.4,0.1,0.6,0.1,0.8,0.2l-0.3,1.4c-0.2-0.1-0.4-0.1-0.7-0.2
	s-0.5-0.1-0.8-0.1c-0.6,0-0.8,0.2-0.8,0.5c0,0.1,0,0.1,0,0.2c0,0.1,0.1,0.1,0.1,0.2c0.1,0.1,0.2,0.1,0.3,0.2
	c0.1,0.1,0.3,0.1,0.5,0.2c0.4,0.1,0.7,0.3,1,0.4c0.3,0.1,0.5,0.3,0.6,0.5c0.2,0.2,0.3,0.4,0.3,0.5s0.1,0.4,0.1,0.7
	C78.4,99.4,78.1,99.9,77.7,100.2L77.7,100.2z"/>
<path class="st1" d="M67.5,21.3c0.2,0,0.3,0,0.4,0c0.1,0,0.2,0,0.3-0.1V18c-0.1-0.1-0.2-0.1-0.4-0.2s-0.4-0.1-0.5-0.1
	c-0.8,0-1.2,0.6-1.2,1.7c0,0.5,0.1,1,0.4,1.3C66.6,21.1,67,21.3,67.5,21.3L67.5,21.3z M32.5,18.5c-0.1-0.1-0.1-0.3-0.2-0.4
	c-0.1-0.1-0.2-0.2-0.4-0.3c-0.1-0.1-0.3-0.1-0.5-0.1c-0.2,0-0.4,0-0.5,0.1c-0.1,0.1-0.3,0.2-0.4,0.3c-0.1,0.1-0.2,0.2-0.2,0.4
	c-0.1,0.1-0.1,0.3-0.1,0.4h2.3C32.6,18.8,32.6,18.6,32.5,18.5L32.5,18.5z M61.4,18.5c-0.1-0.1-0.1-0.3-0.2-0.4
	c-0.1-0.1-0.2-0.2-0.4-0.3c-0.1-0.1-0.3-0.1-0.5-0.1c-0.2,0-0.4,0-0.5,0.1c-0.1,0.1-0.3,0.2-0.4,0.3c-0.1,0.1-0.2,0.2-0.2,0.4
	c-0.1,0.1-0.1,0.3-0.1,0.4h2.3C61.5,18.8,61.5,18.6,61.4,18.5L61.4,18.5z"/>
<path class="st0" d="M23.6,21.9c0.3,0.3,0.6,0.5,1,0.7c0.4,0.2,0.9,0.2,1.5,0.2c0.4,0,0.7,0,1-0.1c0.3-0.1,0.6-0.1,0.8-0.2l-0.2-1.4
	c-0.2,0.1-0.4,0.2-0.7,0.2c-0.2,0-0.5,0.1-0.7,0.1c-0.6,0-1-0.2-1.3-0.5c-0.2-0.3-0.4-0.7-0.4-1.3c0-0.5,0.1-0.9,0.4-1.3
	c0.2-0.3,0.6-0.5,1.2-0.5c0.2,0,0.5,0,0.7,0.1c0.2,0.1,0.4,0.1,0.5,0.2l0.4-1.4c-0.3-0.1-0.5-0.2-0.8-0.2c-0.3-0.1-0.6-0.1-0.9-0.1
	c-0.5,0-0.9,0.1-1.3,0.3c-0.4,0.2-0.7,0.4-1,0.7c-0.3,0.3-0.5,0.6-0.6,1.1c-0.1,0.4-0.2,0.8-0.2,1.3c0,0.5,0.1,0.9,0.2,1.3
	C23.2,21.2,23.4,21.6,23.6,21.9L23.6,21.9z M29.3,21.9c0.3,0.3,0.6,0.5,1,0.7s0.9,0.2,1.5,0.2c0.2,0,0.4,0,0.7,0
	c0.2,0,0.4-0.1,0.6-0.1c0.2,0,0.4-0.1,0.5-0.1c0.2-0.1,0.3-0.1,0.4-0.1L33.7,21c-0.2,0.1-0.5,0.2-0.8,0.2c-0.3,0.1-0.6,0.1-0.9,0.1
	c-0.5,0-0.9-0.1-1.2-0.3c-0.3-0.2-0.5-0.5-0.5-0.9h4c0-0.1,0-0.2,0-0.3v-0.3c0-1.1-0.2-1.8-0.8-2.4c-0.5-0.5-1.2-0.8-2.1-0.8
	c-0.4,0-0.8,0.1-1.1,0.2c-0.4,0.1-0.7,0.4-0.9,0.6c-0.3,0.3-0.5,0.6-0.7,1c-0.2,0.4-0.2,0.9-0.2,1.5c0,0.5,0.1,0.9,0.2,1.3
	C28.8,21.2,29,21.6,29.3,21.9z M30.4,18.5c0.1-0.1,0.1-0.3,0.2-0.4c0.1-0.1,0.2-0.2,0.4-0.3c0.1-0.1,0.3-0.1,0.5-0.1
	c0.2,0,0.4,0,0.5,0.1c0.1,0.1,0.2,0.2,0.4,0.3c0.1,0.1,0.2,0.2,0.2,0.4c0.1,0.1,0.1,0.3,0.1,0.4h-2.3C30.3,18.8,30.4,18.6,30.4,18.5
	L30.4,18.5z M37.4,17.9c0.1,0,0.2-0.1,0.4-0.1c0.2,0,0.3,0,0.4,0c0.2,0,0.5,0,0.7,0.1c0.2,0.1,0.4,0.1,0.6,0.1l0.3-1.5
	c-0.1,0-0.2-0.1-0.4-0.1L39,16.3c-0.1,0-0.3,0-0.4-0.1c-0.1,0-0.2,0-0.4,0c-0.5,0-1,0.1-1.4,0.1c-0.4,0.1-0.8,0.2-1.1,0.3v5.9h1.8
	C37.4,22.6,37.4,17.9,37.4,17.9z M41.1,22c0.2,0.2,0.4,0.4,0.8,0.5s0.7,0.2,1.2,0.2c0.4,0,0.7,0,1-0.1c0.3-0.1,0.5-0.1,0.7-0.2
	l-0.2-1.4c-0.2,0.1-0.4,0.1-0.5,0.1c-0.2,0-0.4,0.1-0.6,0.1c-0.4,0-0.6-0.1-0.8-0.3c-0.1-0.2-0.2-0.5-0.2-0.9v-2.2h2.1v-1.5h-2.1
	v-1.8l-1.8,0.3v5.2c0,0.4,0,0.8,0.1,1.1C40.8,21.5,40.9,21.8,41.1,22L41.1,22z M45.9,16.4h1.8v6.2h-1.8V16.4z M46.7,15.7
	c0.3,0,0.5-0.1,0.7-0.3c0.2-0.2,0.3-0.4,0.3-0.8c0-0.3-0.1-0.6-0.3-0.8c-0.2-0.2-0.5-0.3-0.7-0.3c-0.3,0-0.5,0.1-0.7,0.3
	c-0.2,0.2-0.3,0.4-0.3,0.8s0.1,0.6,0.3,0.8C46.2,15.6,46.5,15.7,46.7,15.7z M55.1,15.7c0.3,0,0.5-0.1,0.7-0.3
	c0.2-0.2,0.3-0.4,0.3-0.8c0-0.3-0.1-0.6-0.3-0.8c-0.2-0.2-0.5-0.3-0.7-0.3s-0.5,0.1-0.7,0.3c-0.2,0.2-0.3,0.4-0.3,0.8
	s0.1,0.6,0.3,0.8C54.6,15.6,54.8,15.7,55.1,15.7z M54.2,16.4H56v6.2h-1.8V16.4z M51.1,17.9h2.2v-1.5h-2.2v-0.3c0-0.2,0-0.3,0.1-0.5
	c0-0.1,0.1-0.3,0.2-0.4c0.1-0.1,0.2-0.2,0.4-0.2C51.8,15,52,15,52.2,15c0.2,0,0.3,0,0.5,0c0.2,0,0.3,0.1,0.4,0.1l0.3-1.4
	c-0.2-0.1-0.3-0.1-0.5-0.2c-0.2-0.1-0.5-0.1-0.8-0.1c-0.9,0-1.6,0.2-2,0.7c-0.5,0.5-0.7,1.1-0.7,1.9v6.5h1.8L51.1,17.9L51.1,17.9z
	 M58.2,21.9c0.3,0.3,0.6,0.5,1,0.7c0.4,0.2,0.9,0.2,1.5,0.2c0.2,0,0.4,0,0.7,0c0.2,0,0.4-0.1,0.6-0.1c0.2,0,0.4-0.1,0.5-0.1
	c0.2-0.1,0.3-0.1,0.4-0.1L62.6,21c-0.2,0.1-0.5,0.2-0.8,0.2c-0.3,0.1-0.6,0.1-0.9,0.1c-0.5,0-0.9-0.1-1.2-0.3
	c-0.3-0.2-0.5-0.5-0.5-0.9h4c0-0.1,0-0.2,0-0.3v-0.3c0-1.1-0.3-1.8-0.8-2.4c-0.5-0.5-1.2-0.8-2.1-0.8c-0.4,0-0.8,0.1-1.1,0.2
	s-0.7,0.4-0.9,0.6c-0.3,0.3-0.5,0.6-0.7,1c-0.2,0.4-0.2,0.9-0.2,1.5c0,0.5,0.1,0.9,0.2,1.3C57.7,21.2,57.9,21.6,58.2,21.9z
	 M59.3,18.5c0.1-0.1,0.1-0.3,0.2-0.4c0.1-0.1,0.2-0.2,0.4-0.3c0.1-0.1,0.3-0.1,0.5-0.1c0.2,0,0.4,0,0.5,0.1s0.2,0.2,0.4,0.3
	c0.1,0.1,0.2,0.2,0.2,0.4c0.1,0.1,0.1,0.3,0.1,0.4h-2.3C59.2,18.8,59.2,18.6,59.3,18.5L59.3,18.5z M65.1,21.9c0.3,0.3,0.6,0.5,1,0.6
	c0.4,0.2,0.9,0.2,1.4,0.2c0.2,0,0.4,0,0.7,0c0.2,0,0.5-0.1,0.7-0.1c0.2,0,0.4-0.1,0.6-0.1c0.2-0.1,0.4-0.1,0.5-0.1v-9l-1.8,0.3v2.8
	c-0.2-0.1-0.4-0.2-0.6-0.2c-0.2-0.1-0.4-0.1-0.6-0.1c-0.4,0-0.8,0.1-1.2,0.2c-0.4,0.2-0.6,0.4-0.9,0.6c-0.2,0.3-0.4,0.6-0.5,1
	s-0.2,0.9-0.2,1.4c0,0.5,0.1,0.9,0.2,1.3S64.8,21.6,65.1,21.9L65.1,21.9z M67.3,17.8c0.2,0,0.4,0,0.5,0.1c0.2,0.1,0.3,0.1,0.4,0.2
	v3.2c-0.1,0-0.2,0-0.3,0.1c-0.1,0-0.3,0-0.4,0c-0.5,0-0.8-0.2-1.1-0.5c-0.2-0.3-0.4-0.8-0.4-1.3C66.1,18.3,66.5,17.8,67.3,17.8
	L67.3,17.8z"/>
<path class="st1" d="M52.8,73.2C52.8,73.2,52.8,73.2,52.8,73.2C52.8,73.2,52.8,73.2,52.8,73.2z M55,71c0.8-0.9,1.3-2,1.7-3.1
	l-5.5-0.9c-0.1,0-0.1,0-0.2,0c-0.1,0-0.2,0-0.4,0.1c-0.5,0.2-0.6,0.8-0.5,1.2l2.1,5.2C53.4,72.8,54.3,72,55,71L55,71z M40.5,73.4
	l2.1-5.1l0,0c0.1-0.2,0.1-0.4,0.1-0.6c-0.1-0.4-0.5-0.7-0.9-0.7c-0.1,0-0.1,0-0.2,0l-5.5,0.9c0.4,1.1,1,2.2,1.8,3.2
	C38.6,72,39.5,72.8,40.5,73.4L40.5,73.4z M38.8,56.3l4.6,3.2c0.2,0.1,0.4,0.2,0.5,0.2c0.5,0,0.9-0.4,0.9-0.9h0l0.3-5.5
	c-0.4,0.1-0.8,0.1-1.1,0.2C42,53.9,40.2,54.9,38.8,56.3L38.8,56.3z M51.2,54.3c-1.1-0.5-2.2-0.9-3.4-1l0.3,5.5
	c0,0.2,0.1,0.4,0.2,0.5c0.3,0.4,0.9,0.5,1.3,0.2h0l4.5-3.2C53.3,55.5,52.3,54.8,51.2,54.3L51.2,54.3z M51.4,62.6
	c-0.1,0.5,0.2,1,0.6,1.1v0l5.4,1.5c0.1-1.2,0-2.4-0.2-3.5c-0.3-1.2-0.7-2.3-1.3-3.3l-4.1,3.7C51.5,62.3,51.4,62.4,51.4,62.6
	L51.4,62.6z M48.9,74.9c0.4-0.1,0.7-0.2,1.1-0.3l-2.7-4.8h0c-0.1-0.2-0.2-0.3-0.4-0.4c-0.1-0.1-0.3-0.1-0.4-0.1h0
	c-0.3,0-0.6,0.2-0.8,0.5L43,74.6C44.9,75.2,46.9,75.3,48.9,74.9z M54.8,71.4C54.8,71.4,54.8,71.4,54.8,71.4
	C54.8,71.4,54.8,71.4,54.8,71.4z M37.1,58.4c-0.6,1-1.1,2.1-1.3,3.3c-0.3,1.2-0.4,2.4-0.2,3.6l5.3-1.5v0c0.2-0.1,0.4-0.2,0.5-0.3
	c0.3-0.4,0.3-0.9-0.1-1.3v0L37.1,58.4z M45.6,62.4l-1.1,1.3l0.4,1.6l1.5,0.8l1.5-0.8l0.4-1.6l-1.1-1.3H45.6z"/>
<path class="st1" d="M56.3,88c1,0,2-0.5,2.6-1.3l12.3-15.2c0.6-0.8,0.9-1.9,0.6-2.9l-4.4-19c-0.2-1-0.9-1.8-1.8-2.3l-17.7-8.5
	c-0.5-0.2-1.1-0.4-1.6-0.3c-0.5,0-0.9,0.1-1.3,0.3l-17.7,8.5c-0.9,0.4-1.6,1.3-1.8,2.3l-4.4,19c-0.2,0.9,0,1.8,0.5,2.6
	c0.1,0.1,0.1,0.2,0.2,0.3L34,86.8c0.6,0.8,1.6,1.3,2.6,1.3L56.3,88L56.3,88z M39.3,76.5l0.2-0.5c-2.9-1.7-5.1-4.4-6.1-7.6l-0.5,0.1
	c0,0,0,0-0.1,0c-0.1-0.1-0.4-0.2-0.6-0.2c-0.6,0.1-1.1,0.3-1.8,0.5h0c-0.1,0.1-0.2,0.1-0.3,0.1c-0.2,0.1-0.4,0.2-0.6,0.2
	c-0.1,0-0.1,0-0.2,0.1c0,0-0.1,0-0.1,0c-0.6,0.1-1.2-0.2-1.4-0.8c-0.1-0.6,0.3-1.2,0.9-1.3c0,0,0.1,0,0.1,0c0.1,0,0.1,0,0.2-0.1
	c0.2-0.1,0.5-0.1,0.7-0.1c0.1,0,0.2,0,0.4,0h0c0.7-0.1,1.3-0.1,1.9-0.3c0.2-0.1,0.3-0.2,0.4-0.4l0.1-0.1l0.4-0.1
	c-0.5-3.3,0.3-6.7,2.2-9.6l-0.3-0.3v-0.1c0-0.2-0.1-0.4-0.2-0.6c-0.4-0.4-0.9-0.7-1.6-1.1c-0.1-0.1-0.2-0.1-0.3-0.2
	c-0.2-0.1-0.4-0.2-0.6-0.4c-0.1,0-0.1-0.1-0.2-0.1c0,0-0.1,0-0.1-0.1c-0.2-0.2-0.4-0.5-0.5-0.8c-0.1-0.3,0-0.6,0.2-0.8
	c0.2-0.2,0.5-0.4,0.8-0.4h0c0.3,0,0.5,0.1,0.8,0.3c0,0,0.1,0,0.1,0.1c0.1,0.1,0.1,0.1,0.2,0.1c0.2,0.2,0.3,0.3,0.5,0.5
	c0.1,0.1,0.1,0.2,0.2,0.2l0,0c0.5,0.5,0.9,0.9,1.4,1.3c0.2,0.1,0.4,0.1,0.5,0.1h0.1c0.1,0.1,0.3,0.2,0.4,0.3c1.9-2,4.3-3.3,6.9-4
	c0.6-0.1,1.3-0.2,1.9-0.3l0-0.4c0.1-0.1,0.3-0.3,0.4-0.5c0.1-0.6,0-1.2-0.1-1.9v0c0-0.1,0-0.2-0.1-0.3c-0.1-0.2-0.1-0.4-0.1-0.7
	v-0.3c0-0.6,0.5-1.2,1.1-1.2s1.1,0.5,1.1,1.2v0.3c0,0.2-0.1,0.5-0.1,0.7c0,0.1-0.1,0.2-0.1,0.3v0.1c-0.1,0.7-0.2,1.3-0.1,1.9
	c0,0.2,0.2,0.4,0.3,0.5l0.1,0.1c0,0.1,0,0.3,0,0.5c1.7,0.2,3.3,0.6,4.8,1.3c1.5,0.7,2.9,1.7,4,2.9l0.4-0.3h0.1c0.2,0,0.4,0,0.6-0.1
	c0.5-0.3,0.9-0.8,1.4-1.3l0,0c0.1-0.1,0.2-0.2,0.2-0.2c0.1-0.2,0.3-0.3,0.5-0.5c0.1,0,0.1-0.1,0.2-0.1c0,0,0.1,0,0.1-0.1
	c0.5-0.4,1.2-0.4,1.6,0.1c0.4,0.5,0.2,1.2-0.3,1.6c0,0-0.1,0-0.1,0.1C61,53.9,61,53.9,60.9,54c-0.2,0.1-0.4,0.2-0.6,0.4
	c-0.1,0.1-0.2,0.1-0.3,0.2c-0.6,0.4-1.2,0.7-1.6,1.1c-0.2,0.2-0.2,0.4-0.2,0.5v0.1c0,0-0.1,0.1-0.2,0.1c-0.1,0.1-0.2,0.1-0.2,0.2
	c0.9,1.4,1.6,2.9,2,4.6c0.4,1.6,0.5,3.3,0.2,5l0.4,0.1c0,0,0,0,0,0.1c0.1,0.1,0.2,0.4,0.4,0.4c0.5,0.2,1.2,0.2,1.9,0.3h0
	c0.1,0,0.2,0,0.4,0c0.2,0,0.4,0,0.7,0.1c0.1,0,0.1,0,0.2,0.1c0.1,0,0.1,0,0.1,0c0.6,0.2,1,0.7,0.9,1.3c-0.1,0.6-0.8,0.9-1.4,0.8
	c0,0-0.1,0-0.1,0s-0.1,0-0.2,0c-0.2-0.1-0.4-0.1-0.6-0.2c-0.1-0.1-0.2-0.1-0.3-0.1h0c-0.7-0.2-1.3-0.5-1.8-0.5h-0.1
	c-0.2,0-0.3,0.1-0.5,0.2c0,0-0.1,0-0.1,0.1c-0.1,0-0.3-0.1-0.5-0.1c-0.5,1.6-1.3,3.1-2.3,4.4s-2.3,2.4-3.8,3.3c0,0,0,0.1,0.1,0.1
	c0.1,0.1,0.1,0.2,0.1,0.3c0,0,0,0.1,0,0.1c-0.1,0.2-0.1,0.3-0.1,0.5c0.2,0.5,0.5,1.1,0.9,1.7c0.1,0.1,0.1,0.2,0.2,0.3
	c0.1,0.2,0.2,0.4,0.4,0.6c0,0.1,0.1,0.1,0.1,0.2c0,0,0,0.1,0.1,0.1c0.3,0.6,0.1,1.3-0.5,1.5c-0.3,0.1-0.6,0.1-0.8,0
	c-0.3-0.1-0.5-0.3-0.6-0.6c0,0,0-0.1,0-0.1c0-0.1-0.1-0.1-0.1-0.2c-0.1-0.2-0.2-0.4-0.2-0.6c0-0.1-0.1-0.2-0.1-0.3v0
	c-0.2-0.7-0.4-1.3-0.7-1.8c-0.1-0.2-0.3-0.2-0.5-0.3c0,0-0.1,0-0.1,0c0,0-0.1-0.1-0.1-0.2c-0.1-0.1-0.1-0.2-0.1-0.2
	c-0.6,0.2-1.2,0.4-1.8,0.5c-2.7,0.6-5.4,0.4-8-0.6l-0.2,0.4c-0.2,0.1-0.4,0.1-0.5,0.2c-0.3,0.3-0.4,0.8-0.6,1.3
	c-0.1,0.2-0.1,0.4-0.2,0.6c0,0.1-0.1,0.2-0.1,0.3c-0.1,0.2-0.1,0.4-0.2,0.6c0,0.1-0.1,0.1-0.1,0.2c0,0,0,0.1-0.1,0.1
	c-0.2,0.4-0.6,0.7-1.1,0.7c-0.1,0-0.3,0-0.4-0.1c-0.5-0.2-0.7-0.9-0.5-1.5c0,0,0-0.1,0.1-0.1s0.1-0.1,0.1-0.2
	c0.1-0.2,0.2-0.4,0.4-0.6c0.1-0.1,0.1-0.2,0.2-0.3c0.4-0.6,0.8-1.2,1-1.7C39.4,76.9,39.3,76.6,39.3,76.5L39.3,76.5z"/>
<path class="st0" d="M38.4,78.8c-0.1,0.1-0.1,0.2-0.2,0.3c-0.1,0.2-0.2,0.4-0.4,0.6c0,0.1-0.1,0.1-0.1,0.2c0,0,0,0.1-0.1,0.1
	c-0.3,0.6-0.1,1.3,0.5,1.5c0.1,0.1,0.3,0.1,0.4,0.1c0.4,0,0.8-0.3,1.1-0.7c0,0,0-0.1,0.1-0.1c0-0.1,0.1-0.1,0.1-0.2
	c0.1-0.2,0.2-0.4,0.2-0.6c0-0.1,0.1-0.2,0.1-0.3c0.1-0.2,0.2-0.4,0.2-0.6c0.2-0.5,0.3-0.9,0.6-1.3c0.1-0.1,0.3-0.2,0.5-0.2l0.2-0.4
	c2.6,1,5.3,1.2,8,0.6c0.6-0.1,1.2-0.3,1.8-0.5c0,0.1,0.1,0.1,0.1,0.2c0.1,0.1,0.1,0.2,0.1,0.2c0,0,0.1,0,0.1,0
	c0.2,0.1,0.3,0.1,0.5,0.3c0.3,0.5,0.5,1.1,0.7,1.8v0c0,0.1,0.1,0.2,0.1,0.3c0.1,0.2,0.1,0.4,0.2,0.6c0,0.1,0.1,0.1,0.1,0.2
	c0,0,0,0.1,0,0.1c0.1,0.3,0.4,0.5,0.6,0.6c0.3,0.1,0.6,0.1,0.8,0c0.5-0.2,0.7-0.9,0.5-1.5c0,0,0-0.1-0.1-0.1c0-0.1-0.1-0.1-0.1-0.2
	c-0.1-0.2-0.2-0.4-0.4-0.6c-0.1-0.1-0.1-0.2-0.2-0.3c-0.4-0.6-0.7-1.2-0.9-1.7c-0.1-0.2,0-0.4,0.1-0.5c0,0,0-0.1,0-0.1
	c0,0-0.1-0.2-0.1-0.3c0-0.1,0-0.1-0.1-0.1c1.5-0.9,2.7-2,3.8-3.3s1.8-2.8,2.3-4.4c0.1,0,0.4,0.1,0.5,0.1c0,0,0.1,0,0.1-0.1
	c0.1-0.1,0.2-0.2,0.5-0.2h0.1c0.6,0.1,1.1,0.3,1.8,0.5h0c0.1,0.1,0.2,0.1,0.3,0.1c0.2,0.1,0.4,0.2,0.6,0.2c0.1,0,0.1,0,0.2,0
	c0,0,0.1,0,0.1,0c0.6,0.1,1.2-0.2,1.4-0.8s-0.3-1.2-0.9-1.3c0,0-0.1,0-0.1,0c-0.1,0-0.1,0-0.2-0.1C63.6,67,63.4,67,63.1,67
	c-0.1,0-0.2,0-0.4,0h0c-0.7-0.1-1.3-0.1-1.9-0.3c-0.2-0.1-0.4-0.3-0.4-0.4c0,0,0,0,0-0.1L60,66.1c0.2-1.6,0.2-3.3-0.2-5
	c-0.4-1.6-1.1-3.2-2-4.6c0.1-0.1,0.1-0.1,0.2-0.2s0.1-0.1,0.2-0.1v-0.1c0-0.2,0-0.4,0.2-0.5c0.4-0.4,0.9-0.7,1.6-1.1
	c0.1-0.1,0.2-0.1,0.3-0.2c0.2-0.1,0.4-0.2,0.6-0.4c0.1,0,0.1-0.1,0.2-0.1c0,0,0.1-0.1,0.1-0.1c0.5-0.4,0.6-1.1,0.3-1.6
	c-0.4-0.5-1.1-0.5-1.6-0.1c0,0-0.1,0-0.1,0.1c-0.1,0.1-0.1,0.1-0.2,0.1c-0.2,0.2-0.3,0.3-0.5,0.5c-0.1,0.1-0.1,0.2-0.2,0.2l0,0
	c-0.5,0.5-0.9,0.9-1.4,1.3c-0.2,0.1-0.4,0.1-0.6,0.1h-0.1l-0.4,0.3c-1.2-1.2-2.5-2.2-4-2.9c-1.5-0.7-3.1-1.2-4.8-1.3
	c0-0.1,0-0.4,0-0.5L47.4,50c-0.1-0.1-0.2-0.2-0.3-0.5c-0.1-0.6,0-1.2,0.1-1.9v-0.1c0-0.1,0-0.2,0.1-0.3c0.1-0.2,0.1-0.4,0.1-0.7
	v-0.3c0-0.6-0.5-1.2-1.1-1.2s-1.1,0.5-1.1,1.2v0.3c0,0.2,0.1,0.5,0.1,0.7c0,0.1,0.1,0.2,0.1,0.3v0c0.1,0.7,0.2,1.3,0.1,1.9
	c-0.1,0.2-0.2,0.4-0.4,0.5l0,0.4c-0.6,0.1-1.3,0.2-1.9,0.3c-2.7,0.6-5.1,2-6.9,4c-0.1-0.1-0.3-0.2-0.4-0.3h-0.1
	c-0.2,0-0.3,0.1-0.5-0.1c-0.5-0.3-0.9-0.8-1.4-1.3l0,0c-0.1-0.1-0.2-0.2-0.2-0.2c-0.1-0.2-0.3-0.3-0.5-0.5c-0.1-0.1-0.1-0.1-0.2-0.1
	c0,0-0.1,0-0.1-0.1c-0.2-0.2-0.5-0.3-0.8-0.3h0c-0.3,0-0.6,0.1-0.8,0.4c-0.2,0.2-0.2,0.5-0.2,0.8c0.1,0.3,0.2,0.6,0.5,0.8
	c0,0,0.1,0,0.1,0.1c0.1,0.1,0.1,0.1,0.2,0.1c0.2,0.1,0.4,0.2,0.6,0.4c0.1,0.1,0.2,0.1,0.3,0.2c0.6,0.4,1.2,0.7,1.6,1.1
	c0.1,0.2,0.2,0.4,0.2,0.6v0.1l0.3,0.3c-1.9,2.8-2.6,6.2-2.2,9.6l-0.4,0.1l-0.1,0.1c-0.1,0.2-0.3,0.4-0.4,0.4
	c-0.5,0.2-1.2,0.2-1.9,0.3h0c-0.1,0-0.2,0-0.4,0c-0.2,0-0.4,0-0.7,0.1c-0.1,0-0.1,0-0.2,0.1c0,0-0.1,0-0.1,0c-0.6,0.2-1,0.7-0.9,1.3
	c0.1,0.6,0.8,0.9,1.4,0.8c0,0,0.1,0,0.1,0c0.1,0,0.1,0,0.2-0.1c0.2-0.1,0.4-0.1,0.6-0.2c0.1-0.1,0.2-0.1,0.3-0.1h0
	c0.7-0.2,1.3-0.5,1.8-0.5c0.2,0,0.4,0.1,0.6,0.2c0,0,0,0,0.1,0l0.5-0.1c1,3.2,3.2,5.9,6.1,7.6l-0.2,0.5c0.1,0.2,0.1,0.4,0.1,0.6
	C39.2,77.6,38.8,78.1,38.4,78.8L38.4,78.8z M41.2,62.1c0.4,0.3,0.4,0.9,0.1,1.3c-0.1,0.2-0.3,0.3-0.5,0.3v0l-5.3,1.5
	c-0.1-1.2-0.1-2.4,0.2-3.6c0.3-1.2,0.7-2.3,1.3-3.3L41.2,62.1z M41.6,67h0.2c0.4,0,0.8,0.3,0.9,0.7c0.1,0.2,0,0.4-0.1,0.6l0,0
	l-2.1,5.1c-1-0.6-1.9-1.4-2.6-2.3c-0.8-0.9-1.3-2-1.8-3.2L41.6,67L41.6,67z M49.6,59.5c-0.4,0.3-1,0.2-1.3-0.2
	c-0.1-0.2-0.2-0.4-0.2-0.5l-0.3-5.5c1.2,0.1,2.3,0.5,3.4,1c1.1,0.5,2,1.2,2.9,2L49.6,59.5L49.6,59.5z M44.8,58.8
	c-0.1,0.5-0.5,0.9-0.9,0.9c-0.2,0-0.4-0.1-0.5-0.2l-4.6-3.2c1.5-1.4,3.3-2.4,5.3-2.9c0.4-0.1,0.7-0.1,1.1-0.2L44.8,58.8L44.8,58.8z
	 M45.6,69.7c0.2-0.3,0.5-0.5,0.8-0.5h0c0.1,0,0.3,0,0.4,0.1c0.2,0.1,0.3,0.2,0.4,0.4h0l2.7,4.8c-0.4,0.1-0.7,0.2-1.1,0.3
	c-2,0.5-4,0.4-6-0.3L45.6,69.7L45.6,69.7z M48,65.4l-1.5,0.7l-1.5-0.7l-0.4-1.6l1.1-1.3h1.7l1.1,1.3L48,65.4z M50.3,68.3
	c-0.2-0.5,0-1,0.5-1.2C50.8,67,51,67,51.1,67c0.1,0,0.1,0,0.2,0l5.5,0.9c-0.4,1.1-1,2.2-1.7,3.1c-0.8,0.9-1.6,1.8-2.7,2.4L50.3,68.3
	L50.3,68.3z M54.8,71.4C54.8,71.4,54.8,71.4,54.8,71.4C54.8,71.4,54.8,71.4,54.8,71.4z M51.7,62.1l4.1-3.7c0.6,1,1.1,2.2,1.3,3.3
	s0.4,2.4,0.2,3.5L52,63.7v0c-0.5-0.1-0.8-0.6-0.6-1.1C51.4,62.4,51.5,62.3,51.7,62.1L51.7,62.1z M52.8,73.2
	C52.8,73.2,52.8,73.2,52.8,73.2C52.8,73.2,52.8,73.2,52.8,73.2z"/>
<path class="st2" d="M19.4,98.7c-0.2-0.3-0.5-0.6-0.8-0.9c-0.3-0.3-0.5-0.6-0.8-0.8c0.5-0.5,0.9-0.9,1.3-1.4
	c0.4-0.5,0.8-0.9,1.2-1.4h-2.1c-0.1,0.1-0.2,0.3-0.4,0.5c-0.2,0.2-0.3,0.4-0.5,0.6c-0.2,0.2-0.4,0.4-0.5,0.6s-0.4,0.4-0.5,0.6v-5.3
	l-1.8,0.3v9h1.8v-2.7c0.2,0.2,0.4,0.4,0.6,0.6c0.2,0.2,0.4,0.5,0.6,0.7s0.4,0.5,0.5,0.8c0.2,0.2,0.3,0.5,0.4,0.7h2
	c-0.1-0.3-0.3-0.6-0.5-0.9C19.8,99.4,19.6,99,19.4,98.7z M24.9,99.1c-0.1,0-0.2,0-0.4,0.1h-0.4c-0.4,0-0.7-0.1-0.9-0.4
	c-0.2-0.2-0.2-0.7-0.2-1.2v-3.3h-1.8v3.5c0,0.4,0.1,0.8,0.1,1.2c0.1,0.4,0.2,0.7,0.4,0.9c0.2,0.3,0.5,0.5,0.8,0.6
	c0.4,0.1,0.8,0.2,1.3,0.2s1,0,1.5-0.1s0.9-0.2,1.2-0.2v-6.1H25L24.9,99.1L24.9,99.1z M33.6,95c-0.2-0.3-0.5-0.5-0.9-0.6
	c-0.4-0.2-0.7-0.2-1.2-0.2c-0.2,0-0.5,0-0.7,0.1c-0.2,0.1-0.4,0.1-0.6,0.2v-3.2l-1.8,0.3v8.8c0.2,0.1,0.4,0.1,0.5,0.1
	c0.2,0,0.4,0.1,0.6,0.1c0.2,0,0.5,0.1,0.7,0.1c0.2,0,0.5,0,0.7,0c0.5,0,1-0.1,1.4-0.2c0.4-0.2,0.8-0.4,1-0.7
	c0.3-0.3,0.5-0.6,0.6-1.1c0.2-0.4,0.2-0.9,0.2-1.4c0-0.5-0.1-0.9-0.2-1.3C34,95.6,33.8,95.3,33.6,95z M32.1,98.7
	c-0.2,0.3-0.6,0.5-1.1,0.5h-0.4c-0.1,0-0.2,0-0.3-0.1v-3.3c0.1-0.1,0.3-0.1,0.4-0.2c0.2-0.1,0.4-0.1,0.5-0.1c0.8,0,1.3,0.6,1.3,1.7
	C32.5,97.9,32.3,98.4,32.1,98.7L32.1,98.7z M38.4,94.1c-0.4,0-0.8,0.1-1.1,0.2c-0.4,0.1-0.7,0.4-1,0.6c-0.3,0.3-0.5,0.6-0.7,1.1
	c-0.2,0.4-0.2,0.9-0.2,1.5c0,0.5,0.1,0.9,0.2,1.3s0.4,0.8,0.6,1.1c0.3,0.3,0.6,0.5,1.1,0.7c0.4,0.2,0.9,0.2,1.5,0.2
	c0.2,0,0.5,0,0.7,0c0.2,0,0.4-0.1,0.6-0.1c0.2,0,0.4-0.1,0.5-0.1c0.2-0.1,0.3-0.1,0.4-0.1l-0.2-1.5c-0.2,0.1-0.5,0.2-0.8,0.2
	c-0.3,0.1-0.6,0.1-1,0.1c-0.5,0-0.9-0.1-1.2-0.3c-0.3-0.2-0.5-0.5-0.5-0.9h4.1c0-0.1,0-0.2,0-0.3v-0.4c0-1.1-0.3-1.9-0.8-2.4
	C40,94.4,39.3,94.1,38.4,94.1L38.4,94.1z M37.2,96.8c0-0.2,0.1-0.3,0.1-0.4c0.1-0.2,0.1-0.3,0.2-0.4c0.1-0.1,0.2-0.2,0.4-0.3
	s0.3-0.1,0.5-0.1c0.2,0,0.4,0,0.5,0.1s0.3,0.2,0.4,0.3c0.1,0.1,0.2,0.2,0.2,0.4c0.1,0.1,0.1,0.3,0.1,0.4L37.2,96.8L37.2,96.8z
	 M46,94.2c-0.1,0-0.3,0-0.4-0.1c-0.1,0-0.2,0-0.4,0c-0.5,0-1,0.1-1.5,0.2c-0.4,0.1-0.8,0.2-1.1,0.3v6h1.8v-4.8
	c0.1,0,0.2-0.1,0.4-0.1c0.2,0,0.3,0,0.4,0c0.2,0,0.5,0,0.7,0.1c0.2,0,0.4,0.1,0.6,0.1l0.3-1.5c-0.1,0-0.2-0.1-0.4-0.1
	C46.3,94.2,46.1,94.2,46,94.2L46,94.2z M52.6,94.9c-0.2-0.3-0.5-0.5-0.9-0.6c-0.4-0.1-0.8-0.2-1.3-0.2c-0.5,0-1,0-1.5,0.1
	c-0.5,0.1-0.9,0.2-1.2,0.2v6.1h1.8v-4.8c0.1,0,0.2,0,0.4,0c0.1,0,0.3,0,0.4,0c0.4,0,0.7,0.1,0.9,0.4c0.2,0.2,0.2,0.6,0.2,1.2v3.3
	h1.8V97c0-0.4-0.1-0.8-0.1-1.2C52.9,95.5,52.8,95.2,52.6,94.9L52.6,94.9z M57.5,94.1c-0.4,0-0.8,0.1-1.1,0.2c-0.4,0.1-0.7,0.4-1,0.6
	c-0.3,0.3-0.5,0.6-0.7,1.1c-0.2,0.4-0.2,0.9-0.2,1.5c0,0.5,0.1,0.9,0.2,1.3s0.4,0.8,0.6,1.1c0.3,0.3,0.6,0.5,1.1,0.7
	c0.4,0.2,0.9,0.2,1.5,0.2c0.2,0,0.5,0,0.7,0c0.2,0,0.4-0.1,0.6-0.1c0.2,0,0.4-0.1,0.5-0.1c0.2-0.1,0.3-0.1,0.4-0.1l-0.2-1.5
	C59.6,99,59.4,99,59,99.1c-0.3,0.1-0.6,0.1-1,0.1c-0.5,0-0.9-0.1-1.2-0.3c-0.3-0.2-0.5-0.5-0.5-0.9h4.1c0-0.1,0-0.2,0-0.3v-0.4
	c0-1.1-0.3-1.9-0.8-2.4C59.1,94.4,58.4,94.1,57.5,94.1L57.5,94.1z M56.3,96.8c0-0.2,0.1-0.3,0.1-0.4c0.1-0.2,0.1-0.3,0.2-0.4
	c0.1-0.1,0.2-0.2,0.4-0.3c0.1-0.1,0.3-0.1,0.5-0.1c0.2,0,0.4,0,0.5,0.1s0.3,0.2,0.4,0.3c0.1,0.1,0.2,0.2,0.2,0.4s0.1,0.3,0.1,0.4
	L56.3,96.8L56.3,96.8z M65.1,99.1c-0.2,0-0.4,0.1-0.6,0.1c-0.4,0-0.7-0.1-0.8-0.3c-0.1-0.2-0.2-0.5-0.2-0.9v-2.2h2.2v-1.5h-2.2v-1.9
	l-1.8,0.3V98c0,0.4,0,0.8,0.1,1.1c0.1,0.3,0.2,0.6,0.4,0.9c0.2,0.2,0.5,0.4,0.8,0.5s0.7,0.2,1.2,0.2c0.4,0,0.7,0,1-0.1
	c0.3-0.1,0.5-0.1,0.7-0.2L65.7,99C65.5,99.1,65.3,99.1,65.1,99.1L65.1,99.1z M69.6,94.1c-0.4,0-0.8,0.1-1.1,0.2
	c-0.4,0.1-0.7,0.4-1,0.6c-0.3,0.3-0.5,0.6-0.7,1.1c-0.2,0.4-0.2,0.9-0.2,1.5c0,0.5,0.1,0.9,0.2,1.3s0.4,0.8,0.6,1.1
	c0.3,0.3,0.6,0.5,1.1,0.7c0.4,0.2,0.9,0.2,1.5,0.2c0.2,0,0.5,0,0.7,0c0.2,0,0.4-0.1,0.6-0.1c0.2,0,0.4-0.1,0.5-0.1
	c0.2-0.1,0.3-0.1,0.4-0.1l-0.2-1.5c-0.2,0.1-0.5,0.2-0.8,0.2c-0.3,0.1-0.6,0.1-1,0.1c-0.5,0-0.9-0.1-1.2-0.3
	c-0.3-0.2-0.5-0.5-0.5-0.9h4.1c0-0.1,0-0.2,0-0.3v-0.4c0-1.1-0.3-1.9-0.8-2.4C71.2,94.4,70.5,94.1,69.6,94.1L69.6,94.1z M68.4,96.8
	c0-0.2,0.1-0.3,0.1-0.4c0.1-0.2,0.1-0.3,0.2-0.4c0.1-0.1,0.2-0.2,0.4-0.3s0.3-0.1,0.5-0.1c0.2,0,0.4,0,0.5,0.1s0.3,0.2,0.4,0.3
	c0.1,0.1,0.2,0.2,0.2,0.4c0.1,0.1,0.1,0.3,0.1,0.4L68.4,96.8L68.4,96.8z M78,97.6c-0.1-0.2-0.4-0.3-0.6-0.5c-0.3-0.1-0.6-0.3-1-0.4
	c-0.2-0.1-0.4-0.1-0.5-0.2c-0.1-0.1-0.2-0.1-0.3-0.2c-0.1-0.1-0.1-0.1-0.1-0.2c0-0.1,0-0.1,0-0.2c0-0.3,0.3-0.5,0.8-0.5
	c0.3,0,0.6,0,0.8,0.1c0.2,0.1,0.5,0.1,0.7,0.2l0.3-1.4c-0.2-0.1-0.5-0.2-0.8-0.2c-0.4-0.1-0.7-0.1-1.1-0.1c-0.8,0-1.4,0.2-1.8,0.5
	c-0.4,0.4-0.6,0.8-0.6,1.4c0,0.3,0.1,0.6,0.1,0.8c0.1,0.2,0.2,0.4,0.4,0.6c0.2,0.2,0.4,0.3,0.6,0.4c0.2,0.1,0.5,0.2,0.8,0.3
	c0.4,0.1,0.6,0.3,0.8,0.4c0.2,0.1,0.3,0.2,0.3,0.4c0,0.2-0.1,0.3-0.2,0.4s-0.4,0.1-0.7,0.1c-0.3,0-0.6,0-0.9-0.1
	c-0.3-0.1-0.6-0.2-0.9-0.3l-0.3,1.5c0.1,0.1,0.4,0.1,0.8,0.2c0.4,0.1,0.8,0.1,1.4,0.1c0.9,0,1.5-0.2,2-0.5c0.5-0.3,0.7-0.8,0.7-1.4
	c0-0.3,0-0.5-0.1-0.7C78.2,97.9,78.1,97.7,78,97.6L78,97.6z"/>
<path class="st3" d="M9.8,28.1h72.9v82H9.8V28.1z"/>
<path class="st1" d="M85,27.1v-6.9c0-6.8-5.5-12.3-12.3-12.3H20.1c-6.7,0-12.3,5.5-12.3,12.3v92H85L85,27.1L85,27.1z M64.3,18.3
	c0.1-0.4,0.3-0.8,0.5-1c0.2-0.3,0.5-0.5,0.9-0.6c0.4-0.2,0.7-0.2,1.2-0.2c0.2,0,0.5,0,0.6,0.1c0.2,0.1,0.4,0.1,0.6,0.2v-2.8l1.8-0.3
	v9c-0.2,0.1-0.4,0.1-0.5,0.1c-0.2,0.1-0.4,0.1-0.6,0.1c-0.2,0-0.5,0.1-0.7,0.1c-0.2,0-0.5,0-0.7,0c-0.5,0-1-0.1-1.4-0.2
	c-0.4-0.2-0.7-0.4-1-0.6c-0.3-0.3-0.5-0.6-0.6-1c-0.1-0.4-0.2-0.8-0.2-1.3C64.1,19.1,64.2,18.7,64.3,18.3L64.3,18.3z M57.6,18.2
	c0.2-0.4,0.4-0.8,0.7-1c0.3-0.3,0.6-0.5,0.9-0.6c0.4-0.1,0.7-0.2,1.1-0.2c0.9,0,1.6,0.3,2.1,0.8c0.5,0.5,0.8,1.3,0.8,2.4v0.3
	c0,0.1,0,0.2,0,0.3h-4c0,0.4,0.2,0.6,0.5,0.9c0.3,0.2,0.7,0.3,1.2,0.3c0.3,0,0.6,0,0.9-0.1c0.3-0.1,0.6-0.1,0.8-0.2l0.2,1.4
	c-0.1,0.1-0.2,0.1-0.4,0.1c-0.2,0.1-0.3,0.1-0.5,0.1c-0.2,0-0.4,0.1-0.6,0.1c-0.2,0-0.4,0-0.7,0c-0.6,0-1.1-0.1-1.5-0.2
	c-0.4-0.2-0.8-0.4-1-0.7c-0.3-0.3-0.5-0.6-0.6-1c-0.1-0.4-0.2-0.8-0.2-1.3C57.3,19.1,57.4,18.6,57.6,18.2z M54.5,13.9
	c0.2-0.2,0.5-0.3,0.7-0.3c0.3,0,0.5,0.1,0.7,0.3c0.2,0.2,0.3,0.4,0.3,0.8c0,0.3-0.1,0.6-0.3,0.8c-0.2,0.2-0.5,0.3-0.7,0.3
	c-0.3,0-0.5-0.1-0.7-0.3c-0.2-0.2-0.3-0.4-0.3-0.8C54.2,14.4,54.3,14.1,54.5,13.9z M56.1,16.5v6.2h-1.8v-6.2H56.1z M49.4,16.2
	c0-0.8,0.2-1.4,0.7-1.9s1.1-0.7,2-0.7c0.3,0,0.6,0,0.8,0.1c0.2,0.1,0.4,0.1,0.5,0.2l-0.3,1.4c-0.1-0.1-0.3-0.1-0.4-0.1
	c-0.2,0-0.3,0-0.5,0c-0.2,0-0.4,0-0.5,0.1c-0.1,0.1-0.3,0.1-0.4,0.2c-0.1,0.1-0.1,0.2-0.2,0.4c0,0.1-0.1,0.3-0.1,0.5v0.3h2.2V18
	h-2.2v4.7h-1.8L49.4,16.2L49.4,16.2z M46.2,13.9c0.2-0.2,0.5-0.3,0.7-0.3c0.3,0,0.5,0.1,0.7,0.3c0.2,0.2,0.3,0.4,0.3,0.8
	c0,0.3-0.1,0.6-0.3,0.8c-0.2,0.2-0.5,0.3-0.7,0.3c-0.3,0-0.5-0.1-0.7-0.3c-0.2-0.2-0.3-0.4-0.3-0.8C45.9,14.4,45.9,14.1,46.2,13.9z
	 M47.8,16.5v6.2H46v-6.2H47.8z M40.7,14.9l1.8-0.3v1.8h2.1v1.5h-2.1v2.2c0,0.4,0.1,0.7,0.2,0.9s0.4,0.3,0.8,0.3c0.2,0,0.4,0,0.6-0.1
	c0.2,0,0.4-0.1,0.5-0.1l0.2,1.4c-0.2,0.1-0.5,0.2-0.7,0.2c-0.3,0.1-0.6,0.1-1,0.1c-0.5,0-0.9-0.1-1.2-0.2c-0.3-0.1-0.6-0.3-0.8-0.5
	c-0.2-0.2-0.3-0.5-0.4-0.8c-0.1-0.3-0.1-0.7-0.1-1.1L40.7,14.9L40.7,14.9z M35.8,16.8c0.3-0.1,0.7-0.2,1.1-0.3
	c0.4-0.1,0.9-0.1,1.4-0.1c0.1,0,0.2,0,0.4,0c0.1,0,0.3,0,0.4,0.1l0.4,0.1c0.1,0,0.2,0.1,0.4,0.1l-0.3,1.5c-0.2,0-0.4-0.1-0.6-0.1
	s-0.4-0.1-0.7-0.1c-0.1,0-0.2,0-0.4,0c-0.2,0-0.3,0.1-0.4,0.1v4.7h-1.8C35.8,22.7,35.8,16.8,35.8,16.8z M28.9,18.2
	c0.2-0.4,0.4-0.8,0.7-1c0.3-0.3,0.6-0.5,0.9-0.6c0.4-0.1,0.7-0.2,1.1-0.2c0.9,0,1.6,0.3,2.1,0.8c0.5,0.5,0.8,1.3,0.8,2.4v0.3
	c0,0.1,0,0.2,0,0.3h-4c0,0.4,0.2,0.6,0.5,0.9c0.3,0.2,0.7,0.3,1.2,0.3c0.3,0,0.6,0,0.9-0.1c0.3-0.1,0.6-0.1,0.8-0.2l0.2,1.4
	c-0.1,0.1-0.2,0.1-0.4,0.1c-0.2,0.1-0.3,0.1-0.5,0.1c-0.2,0-0.4,0.1-0.6,0.1c-0.2,0-0.4,0-0.7,0c-0.6,0-1.1-0.1-1.5-0.2
	c-0.4-0.2-0.8-0.4-1-0.7c-0.3-0.3-0.5-0.6-0.6-1c-0.1-0.4-0.2-0.8-0.2-1.3C28.6,19.1,28.7,18.6,28.9,18.2z M23.2,18.3
	c0.1-0.4,0.4-0.8,0.6-1.1s0.6-0.5,1-0.7c0.4-0.2,0.8-0.3,1.3-0.3c0.3,0,0.6,0,0.9,0.1c0.3,0.1,0.5,0.1,0.8,0.2L27.5,18
	c-0.2-0.1-0.4-0.1-0.5-0.2c-0.2-0.1-0.4-0.1-0.7-0.1c-0.5,0-0.9,0.2-1.2,0.5c-0.3,0.3-0.4,0.8-0.4,1.3c0,0.6,0.1,1,0.4,1.3
	s0.6,0.5,1.3,0.5c0.2,0,0.4,0,0.7-0.1c0.2,0,0.5-0.1,0.7-0.2l0.2,1.4c-0.2,0.1-0.5,0.2-0.8,0.2c-0.3,0.1-0.6,0.1-1,0.1
	c-0.6,0-1.1-0.1-1.5-0.2c-0.4-0.1-0.7-0.4-1-0.6c-0.3-0.3-0.5-0.6-0.6-1c-0.1-0.4-0.2-0.8-0.2-1.3C23,19.1,23.1,18.7,23.2,18.3z
	 M82.8,110.2H9.8v-82h72.9L82.8,110.2L82.8,110.2z"/>
<path class="st1" d="M61.4,18.5c-0.1-0.1-0.1-0.3-0.2-0.4C61.1,18,61,18,60.8,17.9c-0.1-0.1-0.3-0.1-0.5-0.1c-0.2,0-0.4,0-0.5,0.1
	c-0.1,0.1-0.3,0.2-0.4,0.3c-0.1,0.1-0.2,0.2-0.2,0.4c-0.1,0.1-0.1,0.3-0.1,0.4h2.3C61.5,18.8,61.4,18.7,61.4,18.5L61.4,18.5z
	 M67.4,21.4c0.2,0,0.3,0,0.4,0c0.1,0,0.2,0,0.3-0.1v-3.2C68,18,67.9,18,67.7,17.9c-0.2-0.1-0.4-0.1-0.5-0.1c-0.8,0-1.2,0.6-1.2,1.7
	c0,0.5,0.1,1,0.4,1.3C66.5,21.2,66.9,21.4,67.4,21.4L67.4,21.4z M32.7,18.5c-0.1-0.1-0.1-0.3-0.2-0.4c-0.1-0.1-0.2-0.2-0.4-0.3
	c-0.1-0.1-0.3-0.1-0.5-0.1c-0.2,0-0.4,0-0.5,0.1c-0.1,0.1-0.3,0.2-0.4,0.3c-0.1,0.1-0.2,0.2-0.2,0.4c-0.1,0.1-0.1,0.3-0.1,0.4h2.3
	C32.7,18.8,32.7,18.7,32.7,18.5L32.7,18.5z"/>
<path class="st0" d="M23.8,21.9c0.3,0.3,0.6,0.5,1,0.7c0.4,0.2,0.9,0.2,1.5,0.2c0.4,0,0.7,0,1-0.1c0.3-0.1,0.6-0.1,0.8-0.2l-0.2-1.4
	c-0.2,0.1-0.4,0.2-0.7,0.2c-0.2,0-0.5,0.1-0.7,0.1c-0.6,0-1-0.2-1.3-0.5c-0.2-0.3-0.4-0.7-0.4-1.3c0-0.5,0.1-0.9,0.4-1.3
	c0.2-0.3,0.6-0.5,1.2-0.5c0.2,0,0.5,0,0.7,0.1c0.2,0.1,0.4,0.1,0.5,0.2l0.4-1.4c-0.3-0.1-0.5-0.2-0.8-0.2c-0.3-0.1-0.6-0.1-0.9-0.1
	c-0.5,0-0.9,0.1-1.3,0.3c-0.4,0.2-0.7,0.4-1,0.7c-0.3,0.3-0.5,0.6-0.6,1.1c-0.1,0.4-0.2,0.8-0.2,1.3c0,0.5,0.1,0.9,0.2,1.3
	C23.3,21.3,23.5,21.6,23.8,21.9L23.8,21.9z M29.4,21.9c0.3,0.3,0.6,0.5,1,0.7s0.9,0.2,1.5,0.2c0.2,0,0.4,0,0.7,0
	c0.2,0,0.4-0.1,0.6-0.1c0.2,0,0.4-0.1,0.5-0.1c0.2-0.1,0.3-0.1,0.4-0.1l-0.2-1.4c-0.2,0.1-0.5,0.2-0.8,0.2c-0.3,0.1-0.6,0.1-0.9,0.1
	c-0.5,0-0.9-0.1-1.2-0.3c-0.3-0.2-0.5-0.5-0.5-0.9h4c0-0.1,0-0.2,0-0.3v-0.3c0-1.1-0.3-1.8-0.8-2.4c-0.5-0.5-1.2-0.8-2.1-0.8
	c-0.4,0-0.8,0.1-1.1,0.2c-0.4,0.1-0.7,0.4-0.9,0.6c-0.3,0.3-0.5,0.6-0.7,1c-0.2,0.4-0.2,0.9-0.2,1.5c0,0.5,0.1,0.9,0.2,1.3
	C29,21.3,29.1,21.6,29.4,21.9z M30.5,18.5c0.1-0.1,0.1-0.3,0.2-0.4c0.1-0.1,0.2-0.2,0.4-0.3c0.1-0.1,0.3-0.1,0.5-0.1
	c0.2,0,0.4,0,0.5,0.1c0.1,0.1,0.2,0.2,0.4,0.3c0.1,0.1,0.2,0.2,0.2,0.4c0.1,0.1,0.1,0.3,0.1,0.4h-2.3C30.4,18.8,30.5,18.7,30.5,18.5
	L30.5,18.5z M37.6,18c0.1,0,0.2-0.1,0.4-0.1c0.2,0,0.3,0,0.4,0c0.2,0,0.5,0,0.7,0.1c0.2,0.1,0.4,0.1,0.6,0.1l0.3-1.5
	c-0.1,0-0.2-0.1-0.4-0.1l-0.4-0.1c-0.1,0-0.3,0-0.4-0.1c-0.1,0-0.2,0-0.4,0c-0.5,0-1,0.1-1.4,0.1c-0.4,0.1-0.8,0.2-1.1,0.3v5.9h1.8
	C37.6,22.7,37.6,18,37.6,18z M41.2,22.1c0.2,0.2,0.4,0.4,0.8,0.5s0.7,0.2,1.2,0.2c0.4,0,0.7,0,1-0.1c0.3-0.1,0.5-0.1,0.7-0.2
	l-0.2-1.4c-0.2,0.1-0.4,0.1-0.5,0.1s-0.4,0.1-0.6,0.1c-0.4,0-0.6-0.1-0.8-0.3c-0.1-0.2-0.2-0.5-0.2-0.9v-2.2h2.1v-1.5h-2.1v-1.8
	l-1.8,0.3v5.2c0,0.4,0,0.8,0.1,1.1C40.9,21.6,41,21.9,41.2,22.1L41.2,22.1z M46,16.5h1.8v6.2H46V16.5z M46.9,15.8
	c0.3,0,0.5-0.1,0.7-0.3c0.2-0.2,0.3-0.4,0.3-0.8c0-0.3-0.1-0.6-0.3-0.8c-0.2-0.2-0.5-0.3-0.7-0.3c-0.3,0-0.5,0.1-0.7,0.3
	c-0.2,0.2-0.3,0.4-0.3,0.8c0,0.3,0.1,0.6,0.3,0.8C46.4,15.6,46.6,15.8,46.9,15.8z M51.2,18h2.2v-1.5h-2.2v-0.3c0-0.2,0-0.3,0.1-0.5
	c0-0.1,0.1-0.3,0.2-0.4c0.1-0.1,0.2-0.2,0.4-0.2c0.1-0.1,0.3-0.1,0.5-0.1c0.2,0,0.3,0,0.5,0c0.2,0,0.3,0.1,0.4,0.1l0.3-1.4
	c-0.2-0.1-0.3-0.1-0.5-0.2c-0.2-0.1-0.5-0.1-0.8-0.1c-0.9,0-1.6,0.2-2,0.7c-0.5,0.5-0.7,1.1-0.7,1.9v6.5h1.8L51.2,18L51.2,18z
	 M55.3,15.8c0.3,0,0.5-0.1,0.7-0.3c0.2-0.2,0.3-0.4,0.3-0.8c0-0.3-0.1-0.6-0.3-0.8c-0.2-0.2-0.5-0.3-0.7-0.3c-0.3,0-0.5,0.1-0.7,0.3
	c-0.2,0.2-0.3,0.4-0.3,0.8c0,0.3,0.1,0.6,0.3,0.8C54.7,15.6,55,15.8,55.3,15.8z M54.4,16.5h1.8v6.2h-1.8V16.5z M58.1,21.9
	c0.3,0.3,0.6,0.5,1,0.7c0.4,0.2,0.9,0.2,1.5,0.2c0.2,0,0.4,0,0.7,0c0.2,0,0.4-0.1,0.6-0.1c0.2,0,0.4-0.1,0.5-0.1s0.3-0.1,0.4-0.1
	l-0.2-1.4c-0.2,0.1-0.5,0.2-0.8,0.2c-0.3,0.1-0.6,0.1-0.9,0.1c-0.5,0-0.9-0.1-1.2-0.3c-0.3-0.2-0.5-0.5-0.5-0.9h4c0-0.1,0-0.2,0-0.3
	v-0.3c0-1.1-0.3-1.8-0.8-2.4c-0.5-0.5-1.2-0.8-2.1-0.8c-0.4,0-0.8,0.1-1.1,0.2c-0.4,0.1-0.7,0.4-0.9,0.6c-0.3,0.3-0.5,0.6-0.7,1
	c-0.2,0.4-0.2,0.9-0.2,1.5c0,0.5,0.1,0.9,0.2,1.3C57.7,21.3,57.8,21.6,58.1,21.9z M59.2,18.5c0.1-0.1,0.1-0.3,0.2-0.4
	c0.1-0.1,0.2-0.2,0.4-0.3c0.1-0.1,0.3-0.1,0.5-0.1c0.2,0,0.4,0,0.5,0.1c0.1,0.1,0.2,0.2,0.4,0.3c0.1,0.1,0.2,0.2,0.2,0.4
	c0.1,0.1,0.1,0.3,0.1,0.4h-2.3C59.2,18.8,59.2,18.7,59.2,18.5L59.2,18.5z M65,22c0.3,0.3,0.6,0.5,1,0.6c0.4,0.2,0.9,0.2,1.4,0.2
	c0.2,0,0.4,0,0.7,0c0.2,0,0.5-0.1,0.7-0.1c0.2,0,0.4-0.1,0.6-0.1c0.2-0.1,0.4-0.1,0.5-0.1v-9l-1.8,0.3v2.8c-0.2-0.1-0.4-0.2-0.6-0.2
	c-0.2-0.1-0.4-0.1-0.6-0.1c-0.4,0-0.8,0.1-1.2,0.2c-0.4,0.2-0.6,0.4-0.9,0.6c-0.2,0.3-0.4,0.6-0.5,1s-0.2,0.9-0.2,1.4
	c0,0.5,0.1,0.9,0.2,1.3S64.7,21.7,65,22L65,22z M67.2,17.9c0.2,0,0.4,0,0.5,0.1s0.3,0.1,0.4,0.2v3.2c-0.1,0-0.2,0-0.3,0.1
	c-0.1,0-0.3,0-0.4,0c-0.5,0-0.8-0.2-1.1-0.5s-0.4-0.8-0.4-1.3C65.9,18.4,66.3,17.9,67.2,17.9L67.2,17.9z"/>
</svg>
