<?xml version="1.0" encoding="utf-8"?>
<!-- Generator: Adobe Illustrator 27.0.1, SVG Export Plug-In . SVG Version: 6.00 Build 0)  -->
<svg version="1.1" id="Layer_1" xmlns="http://www.w3.org/2000/svg" xmlns:xlink="http://www.w3.org/1999/xlink" x="0px" y="0px"
	 width="1080px" height="125.5px" viewBox="0 0 1080 125.5" style="enable-background:new 0 0 1080 125.5;" xml:space="preserve">
<style type="text/css">
	.st0{fill:#FFFFFF;}
	.st1{fill:#326CE5;}
	.st2{fill:#326DE5;}
	.st3{fill:none;}
</style>
<g>
	<path class="st0" d="M532.9,98.6c-0.1-0.1-0.2-0.2-0.4-0.3c-0.1-0.1-0.3-0.1-0.5-0.1s-0.4,0-0.5,0.1s-0.3,0.2-0.4,0.3
		c-0.1,0.1-0.2,0.2-0.2,0.4c-0.1,0.1-0.1,0.3-0.1,0.4h2.4c0-0.2,0-0.3-0.1-0.4C533,98.9,533,98.7,532.9,98.6L532.9,98.6z
		 M524.8,98.3c-0.2,0-0.4,0-0.5,0.1c-0.2,0.1-0.3,0.1-0.4,0.2v3.3c0.1,0,0.2,0,0.3,0.1h0.4c0.5,0,0.9-0.2,1.1-0.5
		c0.2-0.3,0.4-0.8,0.4-1.3C526.1,98.9,525.6,98.3,524.8,98.3L524.8,98.3z M552,98.6c-0.1-0.1-0.2-0.2-0.4-0.3
		c-0.1-0.1-0.3-0.1-0.5-0.1s-0.4,0-0.5,0.1s-0.3,0.2-0.4,0.3c-0.1,0.1-0.2,0.2-0.2,0.4c-0.1,0.1-0.1,0.3-0.1,0.4h2.4
		c0-0.2,0-0.3-0.1-0.4C552.2,98.9,552.1,98.7,552,98.6L552,98.6z M564.1,98.6c-0.1-0.1-0.2-0.2-0.4-0.3c-0.1-0.1-0.3-0.1-0.5-0.1
		c-0.2,0-0.4,0-0.5,0.1c-0.1,0.1-0.3,0.2-0.4,0.3c-0.1,0.1-0.2,0.2-0.2,0.4c-0.1,0.1-0.1,0.3-0.1,0.4h2.4c0-0.2,0-0.3-0.1-0.4
		C564.3,98.9,564.2,98.7,564.1,98.6L564.1,98.6z"/>
	<path class="st0" d="M503.4,30.8v82h72.9v-82C576.3,30.8,503.4,30.8,503.4,30.8z M527.6,89.4l-12.3-15.2c-0.1-0.1-0.1-0.2-0.2-0.3
		c-0.5-0.8-0.7-1.7-0.5-2.6l4.4-19c0.2-1,0.9-1.8,1.8-2.3l17.8-8.4c0.4-0.2,0.8-0.3,1.3-0.3c0.6,0,1.1,0.1,1.6,0.3l17.7,8.5
		c0.9,0.4,1.6,1.3,1.8,2.3l4.4,19c0.2,1,0,2-0.6,2.9l-12.3,15.2c-0.6,0.8-1.6,1.3-2.6,1.3h-19.7C529.2,90.7,528.2,90.2,527.6,89.4
		L527.6,89.4z M512.1,103.2c-0.1-0.2-0.3-0.4-0.4-0.7c-0.2-0.3-0.3-0.5-0.5-0.8s-0.4-0.5-0.6-0.7s-0.4-0.4-0.6-0.6v2.7h-1.8v-9
		l1.8-0.3v5.3c0.2-0.2,0.4-0.4,0.5-0.6c0.2-0.2,0.4-0.4,0.5-0.6c0.2-0.2,0.4-0.4,0.5-0.6c0.2-0.2,0.3-0.4,0.4-0.5h2.1
		c-0.4,0.5-0.8,0.9-1.2,1.4c-0.4,0.4-0.8,0.9-1.3,1.4c0.2,0.2,0.5,0.5,0.8,0.8c0.3,0.3,0.5,0.6,0.8,0.9c0.2,0.3,0.5,0.6,0.6,1
		s0.4,0.6,0.5,0.9L512.1,103.2L512.1,103.2z M520.3,103c-0.3,0.1-0.7,0.2-1.2,0.2c-0.5,0.1-1,0.1-1.5,0.1s-1-0.1-1.3-0.2
		s-0.6-0.4-0.8-0.6c-0.2-0.3-0.4-0.6-0.4-0.9c-0.1-0.4-0.1-0.8-0.1-1.2v-3.5h1.8v3.3c0,0.6,0.1,1,0.2,1.2s0.4,0.4,0.9,0.4h0.4
		c0.1,0,0.3,0,0.4-0.1v-4.9h1.8L520.3,103L520.3,103z M527.7,101.5c-0.1,0.4-0.4,0.8-0.6,1.1c-0.3,0.3-0.6,0.5-1,0.7
		s-0.9,0.2-1.4,0.2c-0.2,0-0.4,0-0.7,0c-0.2,0-0.5,0-0.7-0.1c-0.2,0-0.4-0.1-0.6-0.1c-0.2-0.1-0.4-0.1-0.5-0.1v-8.8l1.8-0.3v3.2
		c0.2-0.1,0.4-0.2,0.6-0.2c0.2-0.1,0.5-0.1,0.7-0.1c0.5,0,0.8,0.1,1.2,0.2c0.4,0.2,0.6,0.4,0.9,0.6c0.2,0.3,0.4,0.6,0.5,1.1
		c0.1,0.4,0.2,0.8,0.2,1.3C527.9,100.6,527.8,101.1,527.7,101.5z M534.9,100.4c0,0.1,0,0.2,0,0.3h-4.1c0,0.4,0.2,0.6,0.5,0.9
		c0.3,0.2,0.7,0.3,1.2,0.3c0.3,0,0.6,0,1-0.1c0.3-0.1,0.6-0.1,0.8-0.2l0.2,1.5c-0.1,0.1-0.2,0.1-0.4,0.1c-0.2,0.1-0.4,0.1-0.5,0.1
		c-0.2,0-0.4,0.1-0.6,0.1s-0.5,0-0.7,0c-0.6,0-1.1-0.1-1.5-0.2c-0.4-0.2-0.8-0.4-1.1-0.7c-0.3-0.3-0.5-0.6-0.6-1.1
		c-0.1-0.4-0.2-0.8-0.2-1.3c0-0.6,0.1-1.1,0.2-1.5c0.2-0.4,0.4-0.8,0.7-1.1c0.3-0.3,0.6-0.5,1-0.6s0.8-0.2,1.1-0.2
		c0.9,0,1.6,0.3,2.1,0.8s0.8,1.3,0.8,2.4C534.9,100.1,534.9,100.2,534.9,100.4L534.9,100.4z M540.1,98.5c-0.2,0-0.4-0.1-0.6-0.1
		c-0.2-0.1-0.5-0.1-0.7-0.1c-0.1,0-0.2,0-0.4,0s-0.3,0-0.4,0.1v4.8h-1.8v-6c0.3-0.1,0.7-0.2,1.1-0.3c0.4-0.1,0.9-0.2,1.5-0.2
		c0.1,0,0.2,0,0.4,0c0.1,0,0.3,0,0.4,0.1c0.1,0,0.3,0,0.4,0.1c0.1,0,0.2,0.1,0.4,0.1L540.1,98.5L540.1,98.5z M546.8,103.2H545v-3.3
		c0-0.6-0.1-1-0.2-1.2c-0.2-0.2-0.4-0.4-0.9-0.4c-0.1,0-0.3,0-0.4,0s-0.3,0-0.4,0v4.8h-1.8V97c0.3-0.1,0.7-0.2,1.2-0.2
		c0.5-0.1,1-0.1,1.5-0.1s1,0.1,1.3,0.2c0.3,0.1,0.6,0.3,0.9,0.6c0.2,0.3,0.4,0.6,0.4,0.9c0.1,0.4,0.1,0.8,0.1,1.2L546.8,103.2
		L546.8,103.2z M554,100.4c0,0.1,0,0.2,0,0.3h-4.1c0,0.4,0.2,0.6,0.5,0.9c0.3,0.2,0.7,0.3,1.2,0.3c0.3,0,0.6,0,1-0.1
		c0.3-0.1,0.6-0.1,0.8-0.2l0.2,1.5c-0.1,0.1-0.2,0.1-0.4,0.1c-0.2,0.1-0.4,0.1-0.5,0.1c-0.1,0-0.4,0.1-0.6,0.1s-0.5,0-0.7,0
		c-0.6,0-1.1-0.1-1.5-0.2c-0.4-0.2-0.8-0.4-1.1-0.7c-0.3-0.3-0.5-0.6-0.6-1.1s-0.2-0.8-0.2-1.3c0-0.6,0.1-1.1,0.2-1.5
		c0.2-0.4,0.4-0.8,0.7-1.1c0.3-0.3,0.6-0.5,1-0.6s0.8-0.2,1.1-0.2c0.9,0,1.6,0.3,2.1,0.8s0.8,1.3,0.8,2.4L554,100.4L554,100.4z
		 M558.8,103.3c-0.3,0.1-0.6,0.1-1,0.1c-0.5,0-0.9-0.1-1.2-0.2c-0.3-0.1-0.6-0.3-0.8-0.5s-0.3-0.5-0.4-0.9c-0.1-0.3-0.1-0.7-0.1-1.1
		v-5.3l1.8-0.3V97h2.2v1.5h-2.2v2.2c0,0.4,0.1,0.7,0.2,0.9c0.1,0.2,0.4,0.3,0.8,0.3c0.2,0,0.4,0,0.6-0.1c0.2,0,0.4-0.1,0.6-0.2
		l0.2,1.4C559.3,103.2,559.1,103.2,558.8,103.3L558.8,103.3z M566.1,100.4c0,0.1,0,0.2,0,0.3H562c0,0.4,0.2,0.6,0.5,0.9
		c0.3,0.2,0.7,0.3,1.2,0.3c0.3,0,0.6,0,1-0.1c0.3-0.1,0.6-0.1,0.8-0.2l0.2,1.5c-0.1,0.1-0.2,0.1-0.4,0.1c-0.2,0.1-0.4,0.1-0.5,0.1
		s-0.4,0.1-0.6,0.1c-0.2,0-0.5,0-0.7,0c-0.6,0-1.1-0.1-1.5-0.2c-0.4-0.2-0.8-0.4-1.1-0.7c-0.3-0.3-0.5-0.6-0.6-1.1
		c-0.1-0.5-0.2-0.8-0.2-1.3c0-0.6,0.1-1.1,0.2-1.5c0.2-0.4,0.4-0.8,0.7-1.1c0.3-0.3,0.6-0.5,1-0.6c0.4-0.1,0.8-0.2,1.1-0.2
		c0.9,0,1.6,0.3,2.1,0.8s0.8,1.3,0.8,2.4L566.1,100.4L566.1,100.4z M571.3,102.9c-0.5,0.3-1.1,0.5-2,0.5c-0.6,0-1-0.1-1.4-0.1
		c-0.4-0.1-0.6-0.2-0.8-0.2l0.3-1.5c0.3,0.1,0.6,0.2,0.9,0.3c0.3,0.1,0.6,0.1,0.9,0.1c0.3,0,0.6,0,0.7-0.1c0.1-0.1,0.2-0.2,0.2-0.4
		c0-0.1-0.1-0.3-0.3-0.4c-0.2-0.1-0.4-0.2-0.8-0.4c-0.3-0.1-0.5-0.2-0.8-0.3c-0.2-0.1-0.4-0.2-0.6-0.4c-0.2-0.2-0.3-0.4-0.4-0.6
		c-0.1-0.2-0.1-0.5-0.1-0.8c0-0.6,0.2-1.1,0.6-1.4c0.4-0.3,1.1-0.5,1.8-0.5c0.4,0,0.8,0,1.1,0.1c0.4,0.1,0.6,0.1,0.8,0.2l-0.3,1.4
		c-0.2-0.1-0.4-0.1-0.7-0.2c-0.3-0.1-0.5-0.1-0.8-0.1c-0.6,0-0.8,0.2-0.8,0.5c0,0.1,0,0.1,0,0.2s0.1,0.1,0.1,0.2
		c0.1,0.1,0.2,0.1,0.3,0.2s0.3,0.1,0.5,0.2c0.4,0.1,0.7,0.3,1,0.4c0.3,0.1,0.5,0.3,0.6,0.5c0.2,0.2,0.3,0.4,0.3,0.5s0.1,0.4,0.1,0.7
		C572,102.1,571.7,102.6,571.3,102.9L571.3,102.9z"/>
	<path class="st1" d="M561.1,24c0.2,0,0.3,0,0.4,0c0.1,0,0.2,0,0.3-0.1v-3.2c-0.1-0.1-0.2-0.1-0.4-0.2s-0.4-0.1-0.5-0.1
		c-0.8,0-1.2,0.6-1.2,1.7c0,0.5,0.1,1,0.4,1.3C560.2,23.8,560.6,24,561.1,24L561.1,24z M526.1,21.2c-0.1-0.1-0.1-0.3-0.2-0.4
		s-0.2-0.2-0.4-0.3c-0.1-0.1-0.3-0.1-0.5-0.1c-0.2,0-0.4,0-0.5,0.1c-0.1,0.1-0.3,0.2-0.4,0.3c-0.1,0.1-0.2,0.2-0.2,0.4
		c-0.1,0.1-0.1,0.3-0.1,0.4h2.3C526.2,21.5,526.2,21.3,526.1,21.2L526.1,21.2z M555,21.2c-0.1-0.1-0.1-0.3-0.2-0.4
		c-0.1-0.1-0.2-0.2-0.4-0.3c-0.1-0.1-0.3-0.1-0.5-0.1s-0.4,0-0.5,0.1s-0.3,0.2-0.4,0.3c-0.1,0.1-0.2,0.2-0.2,0.4
		c-0.1,0.1-0.1,0.3-0.1,0.4h2.3C555.1,21.5,555.1,21.3,555,21.2L555,21.2z"/>
	<path class="st0" d="M517.2,24.6c0.3,0.3,0.6,0.5,1,0.7c0.4,0.2,0.9,0.2,1.5,0.2c0.4,0,0.7,0,1-0.1c0.3-0.1,0.6-0.1,0.8-0.2
		l-0.2-1.4c-0.2,0.1-0.4,0.2-0.7,0.2c-0.2,0-0.5,0.1-0.7,0.1c-0.6,0-1-0.2-1.3-0.5c-0.2-0.3-0.4-0.7-0.4-1.3c0-0.5,0.1-0.9,0.4-1.3
		c0.2-0.3,0.6-0.5,1.2-0.5c0.2,0,0.5,0,0.7,0.1c0.2,0.1,0.4,0.1,0.5,0.2l0.4-1.4c-0.3-0.1-0.5-0.2-0.8-0.2c-0.3-0.1-0.6-0.1-0.9-0.1
		c-0.5,0-0.9,0.1-1.3,0.3c-0.4,0.2-0.7,0.4-1,0.7c-0.3,0.3-0.5,0.6-0.6,1.1c-0.1,0.4-0.2,0.8-0.2,1.3s0.1,0.9,0.2,1.3
		C516.8,23.9,517,24.3,517.2,24.6L517.2,24.6z M522.9,24.6c0.3,0.3,0.6,0.5,1,0.7c0.4,0.2,0.9,0.2,1.5,0.2c0.2,0,0.4,0,0.7,0
		c0.2,0,0.4-0.1,0.6-0.1s0.4-0.1,0.5-0.1c0.2-0.1,0.3-0.1,0.4-0.1l-0.3-1.5c-0.2,0.1-0.5,0.2-0.8,0.2c-0.3,0.1-0.6,0.1-0.9,0.1
		c-0.5,0-0.9-0.1-1.2-0.3c-0.3-0.2-0.5-0.5-0.5-0.9h4c0-0.1,0-0.2,0-0.3v-0.3c0-1.1-0.2-1.8-0.8-2.4c-0.5-0.5-1.2-0.8-2.1-0.8
		c-0.4,0-0.8,0.1-1.1,0.2c-0.4,0.1-0.7,0.4-0.9,0.6c-0.3,0.3-0.5,0.6-0.7,1c-0.2,0.4-0.2,0.9-0.2,1.5c0,0.5,0.1,0.9,0.2,1.3
		C522.4,23.9,522.6,24.3,522.9,24.6z M524,21.2c0.1-0.1,0.1-0.3,0.2-0.4c0.1-0.1,0.2-0.2,0.4-0.3c0.1-0.1,0.3-0.1,0.5-0.1
		s0.4,0,0.5,0.1s0.2,0.2,0.4,0.3c0.1,0.1,0.2,0.2,0.2,0.4c0.1,0.1,0.1,0.3,0.1,0.4H524C523.9,21.5,524,21.3,524,21.2L524,21.2z
		 M531,20.6c0.1,0,0.2-0.1,0.4-0.1s0.3,0,0.4,0c0.2,0,0.5,0,0.7,0.1c0.2,0.1,0.4,0.1,0.6,0.1l0.3-1.5c-0.1,0-0.2-0.1-0.4-0.1
		l-0.4-0.1c-0.1,0-0.3,0-0.4-0.1c-0.1,0-0.2,0-0.4,0c-0.5,0-1,0.1-1.4,0.1c-0.4,0.1-0.8,0.2-1.1,0.3v5.9h1.8
		C531,25.3,531,20.6,531,20.6z M534.7,24.7c0.2,0.2,0.4,0.4,0.8,0.5c0.4,0.1,0.7,0.2,1.2,0.2c0.4,0,0.7,0,1-0.1
		c0.3-0.1,0.5-0.1,0.7-0.2l-0.2-1.4c-0.2,0.1-0.4,0.1-0.5,0.1c-0.2,0-0.4,0.1-0.6,0.1c-0.4,0-0.6-0.1-0.8-0.3
		c-0.1-0.2-0.2-0.5-0.2-0.9v-2.2h2.1V19h-2.1v-1.8l-1.8,0.3v5.2c0,0.4,0,0.8,0.1,1.1C534.4,24.2,534.5,24.5,534.7,24.7L534.7,24.7z
		 M539.5,19.1h1.8v6.2h-1.8V19.1z M540.3,18.4c0.3,0,0.5-0.1,0.7-0.3c0.2-0.2,0.3-0.4,0.3-0.8c0-0.3-0.1-0.6-0.3-0.8
		c-0.2-0.2-0.5-0.3-0.7-0.3c-0.3,0-0.5,0.1-0.7,0.3c-0.2,0.2-0.3,0.4-0.3,0.8c0,0.4,0.1,0.6,0.3,0.8
		C539.8,18.3,540.1,18.4,540.3,18.4z M548.7,18.4c0.3,0,0.5-0.1,0.7-0.3c0.2-0.2,0.3-0.4,0.3-0.8c0-0.3-0.1-0.6-0.3-0.8
		c-0.2-0.2-0.5-0.3-0.7-0.3c-0.2,0-0.5,0.1-0.7,0.3c-0.2,0.2-0.3,0.4-0.3,0.8c0,0.4,0.1,0.6,0.3,0.8
		C548.2,18.3,548.4,18.4,548.7,18.4z M547.8,19.1h1.8v6.2h-1.8V19.1z M544.7,20.6h2.2v-1.5h-2.2v-0.3c0-0.2,0-0.3,0.1-0.5
		c0-0.1,0.1-0.3,0.2-0.4s0.2-0.2,0.4-0.2c0,0,0.2,0,0.4,0s0.3,0,0.5,0s0.3,0.1,0.4,0.1l0.3-1.4c-0.2-0.1-0.3-0.1-0.5-0.2
		c-0.2-0.1-0.5-0.1-0.8-0.1c-0.9,0-1.6,0.2-2,0.7c-0.5,0.5-0.7,1.1-0.7,1.9v6.5h1.8L544.7,20.6L544.7,20.6z M551.8,24.6
		c0.3,0.3,0.6,0.5,1,0.7s0.9,0.2,1.5,0.2c0.2,0,0.4,0,0.7,0c0.2,0,0.4-0.1,0.6-0.1c0.2,0,0.4-0.1,0.5-0.1c0.2-0.1,0.3-0.1,0.4-0.1
		l-0.3-1.5c-0.2,0.1-0.5,0.2-0.8,0.2c-0.3,0.1-0.6,0.1-0.9,0.1c-0.5,0-0.9-0.1-1.2-0.3c-0.3-0.2-0.5-0.5-0.5-0.9h4
		c0-0.1,0-0.2,0-0.3v-0.3c0-1.1-0.3-1.8-0.8-2.4c-0.5-0.5-1.2-0.8-2.1-0.8c-0.4,0-0.8,0.1-1.1,0.2s-0.7,0.4-0.9,0.6
		c-0.3,0.3-0.5,0.6-0.7,1c-0.2,0.4-0.2,0.9-0.2,1.5c0,0.5,0.1,0.9,0.2,1.3C551.3,23.9,551.5,24.3,551.8,24.6z M552.9,21.2
		c0.1-0.1,0.1-0.3,0.2-0.4c0.1-0.1,0.2-0.2,0.4-0.3c0.1-0.1,0.3-0.1,0.5-0.1s0.4,0,0.5,0.1s0.2,0.2,0.4,0.3c0.1,0.1,0.2,0.2,0.2,0.4
		c0.1,0.1,0.1,0.3,0.1,0.4h-2.3C552.8,21.5,552.8,21.3,552.9,21.2L552.9,21.2z M558.7,24.6c0.3,0.3,0.6,0.5,1,0.6
		c0.4,0.2,0.9,0.2,1.4,0.2c0.2,0,0.4,0,0.7,0c0.2,0,0.5-0.1,0.7-0.1s0.4-0.1,0.6-0.1c0.2-0.1,0.4-0.1,0.5-0.1v-9l-1.8,0.3v2.8
		c-0.2-0.1-0.4-0.2-0.6-0.2c-0.2-0.1-0.4-0.1-0.6-0.1c-0.4,0-0.8,0.1-1.2,0.2c-0.4,0.2-0.6,0.4-0.9,0.6c-0.2,0.3-0.4,0.6-0.5,1
		s-0.2,0.9-0.2,1.4s0.1,0.9,0.2,1.3C558.1,23.8,558.4,24.3,558.7,24.6L558.7,24.6z M560.9,20.5c0.2,0,0.4,0,0.5,0.1
		c0.2,0.1,0.3,0.1,0.4,0.2V24c-0.1,0-0.2,0-0.3,0.1c-0.1,0-0.3,0-0.4,0c-0.5,0-0.8-0.2-1.1-0.5c-0.2-0.3-0.4-0.8-0.4-1.3
		C559.7,21,560.1,20.5,560.9,20.5L560.9,20.5z"/>
	<path class="st1" d="M546.4,75.9L546.4,75.9L546.4,75.9z M548.6,73.7c0.8-0.9,1.3-2,1.7-3.1l-5.5-0.9c-0.1,0-0.1,0-0.2,0
		s-0.2,0-0.4,0.1c-0.5,0.2-0.6,0.8-0.5,1.2l2.1,5.2C547,75.5,547.9,74.7,548.6,73.7L548.6,73.7z M534.1,76.1l2.1-5.1l0,0
		c0.1-0.2,0.1-0.4,0.1-0.6c-0.1-0.4-0.5-0.7-0.9-0.7c-0.1,0-0.1,0-0.2,0l-5.5,0.9c0.4,1.1,1,2.2,1.8,3.2
		C532.2,74.7,533.1,75.5,534.1,76.1L534.1,76.1z M532.4,59l4.6,3.2c0.2,0.1,0.4,0.2,0.5,0.2c0.5,0,0.9-0.4,0.9-0.9l0,0l0.3-5.5
		c-0.4,0.1-0.8,0.1-1.1,0.2C535.6,56.6,533.8,57.6,532.4,59L532.4,59z M544.8,57c-1.1-0.5-2.2-0.9-3.4-1l0.3,5.5
		c0,0.2,0.1,0.4,0.2,0.5c0.3,0.4,0.9,0.5,1.3,0.2l0,0l4.5-3.2C546.9,58.2,545.9,57.5,544.8,57L544.8,57z M545,65.3
		c-0.1,0.5,0.2,1,0.6,1.1l0,0l5.4,1.5c0.1-1.2,0-2.4-0.2-3.5c-0.3-1.2-0.7-2.3-1.3-3.3l-4.1,3.7C545.1,65,545,65.1,545,65.3
		L545,65.3z M542.5,77.6c0.4-0.1,0.7-0.2,1.1-0.3l-2.7-4.8l0,0c-0.1-0.2-0.2-0.3-0.4-0.4c-0.1-0.1-0.3-0.1-0.4-0.1l0,0
		c-0.3,0-0.6,0.2-0.8,0.5l-2.7,4.8C538.5,77.9,540.5,78,542.5,77.6z M548.4,74.1L548.4,74.1L548.4,74.1z M530.7,61.1
		c-0.6,1-1.1,2.1-1.3,3.3c-0.3,1.2-0.4,2.4-0.2,3.6l5.3-1.5l0,0c0.2-0.1,0.4-0.2,0.5-0.3c0.3-0.4,0.3-0.9-0.1-1.3l0,0L530.7,61.1z
		 M539.2,65.1l-1.1,1.3l0.4,1.6l1.5,0.8l1.5-0.8l0.4-1.6l-1.1-1.3C540.8,65.1,539.2,65.1,539.2,65.1z"/>
	<path class="st1" d="M549.9,90.7c1,0,2-0.5,2.6-1.3l12.3-15.2c0.6-0.8,0.9-1.9,0.6-2.9l-4.4-19c-0.2-1-0.9-1.8-1.8-2.3l-17.7-8.5
		c-0.5-0.2-1.1-0.4-1.6-0.3c-0.5,0-0.9,0.1-1.3,0.3L520.9,50c-0.9,0.4-1.6,1.3-1.8,2.3l-4.4,19c-0.2,0.9,0,1.8,0.5,2.6
		c0.1,0.1,0.1,0.2,0.2,0.3l12.2,15.3c0.6,0.8,1.6,1.3,2.6,1.3L549.9,90.7L549.9,90.7z M532.9,79.2l0.2-0.5c-2.9-1.7-5.1-4.4-6.1-7.6
		l-0.5,0.1c0,0,0,0-0.1,0c-0.1-0.1-0.4-0.2-0.6-0.2c-0.6,0.1-1.1,0.3-1.8,0.5l0,0c-0.1,0.1-0.2,0.1-0.3,0.1
		c-0.2,0.1-0.4,0.2-0.6,0.2c-0.1,0-0.1,0-0.2,0.1h-0.1c-0.6,0.1-1.2-0.2-1.4-0.8c-0.1-0.6,0.3-1.2,0.9-1.3h0.1c0.1,0,0.1,0,0.2-0.1
		c0.2-0.1,0.5-0.1,0.7-0.1c0.1,0,0.2,0,0.4,0l0,0c0.7-0.1,1.3-0.1,1.9-0.3c0.2-0.1,0.3-0.2,0.4-0.4l0.1-0.1l0.4-0.1
		c-0.5-3.3,0.3-6.7,2.2-9.6l-0.3-0.3v-0.1c0-0.2-0.1-0.4-0.2-0.6c-0.4-0.4-0.9-0.7-1.6-1.1c-0.1-0.1-0.2-0.1-0.3-0.2
		c-0.2-0.1-0.4-0.2-0.6-0.4c-0.1,0-0.1-0.1-0.2-0.1c0,0-0.1,0-0.1-0.1c-0.2-0.2-0.4-0.5-0.5-0.8c-0.1-0.3,0-0.6,0.2-0.8
		c0.2-0.2,0.5-0.4,0.8-0.4l0,0c0.3,0,0.5,0.1,0.8,0.3c0,0,0.1,0,0.1,0.1c0.1,0.1,0.1,0.1,0.2,0.1c0.2,0.2,0.3,0.3,0.5,0.5
		c0.1,0.1,0.1,0.2,0.2,0.2l0,0c0.5,0.5,0.9,0.9,1.4,1.3c0.2,0.1,0.4,0.1,0.5,0.1h0.1c0.1,0.1,0.3,0.2,0.4,0.3c1.9-2,4.3-3.3,6.9-4
		c0.6-0.1,1.3-0.2,1.9-0.3v-0.4c0.1-0.1,0.3-0.3,0.4-0.5c0.1-0.6,0-1.2-0.1-1.9l0,0c0-0.1,0-0.2-0.1-0.3c-0.1-0.2-0.1-0.4-0.1-0.7
		v-0.3c0-0.6,0.5-1.2,1.1-1.2s1.1,0.5,1.1,1.2V49c0,0.2-0.1,0.5-0.1,0.7c0,0.1-0.1,0.2-0.1,0.3v0.1c-0.1,0.7-0.2,1.3-0.1,1.9
		c0,0.2,0.2,0.4,0.3,0.5l0.1,0.1c0,0.1,0,0.3,0,0.5c1.7,0.2,3.3,0.6,4.8,1.3s2.9,1.7,4,2.9l0.4-0.3h0.1c0.2,0,0.4,0,0.6-0.1
		c0.5-0.3,0.9-0.8,1.4-1.3l0,0c0.1-0.1,0.2-0.2,0.2-0.2c0.1-0.2,0.3-0.3,0.5-0.5c0.1,0,0.1-0.1,0.2-0.1c0,0,0.1,0,0.1-0.1
		c0.5-0.4,1.2-0.4,1.6,0.1c0.4,0.5,0.2,1.2-0.3,1.6c0,0-0.1,0-0.1,0.1c-0.2,0.1-0.2,0.1-0.3,0.2c-0.2,0.1-0.4,0.2-0.6,0.4
		c-0.1,0.1-0.2,0.1-0.3,0.2c-0.6,0.4-1.2,0.7-1.6,1.1c-0.2,0.2-0.2,0.4-0.2,0.5V59c0,0-0.1,0.1-0.2,0.1c-0.1,0.1-0.2,0.1-0.2,0.2
		c0.9,1.4,1.6,2.9,2,4.6c0.4,1.6,0.5,3.3,0.2,5L554,69c0,0,0,0,0,0.1c0.1,0.1,0.2,0.4,0.4,0.4c0.5,0.2,1.2,0.2,1.9,0.3l0,0
		c0.1,0,0.2,0,0.4,0c0.2,0,0.4,0,0.7,0.1c0.1,0,0.1,0,0.2,0.1c0.1,0,0.1,0,0.1,0c0.6,0.2,1,0.7,0.9,1.3c-0.1,0.6-0.8,0.9-1.4,0.8
		h-0.1c0,0-0.1,0-0.2,0c-0.2-0.1-0.4-0.1-0.6-0.2c-0.1-0.1-0.2-0.1-0.3-0.1l0,0c-0.7-0.2-1.3-0.5-1.8-0.5h-0.1
		c-0.2,0-0.3,0.1-0.5,0.2c0,0-0.1,0-0.1,0.1c-0.1,0-0.3-0.1-0.5-0.1c-0.5,1.6-1.3,3.1-2.3,4.4s-2.3,2.4-3.8,3.3c0,0,0,0.1,0.1,0.1
		c0.1,0.1,0.1,0.2,0.1,0.3v0.1c-0.1,0.2-0.1,0.3-0.1,0.5c0.2,0.5,0.5,1.1,0.9,1.7c0.1,0.1,0.1,0.2,0.2,0.3c0.1,0.2,0.2,0.4,0.4,0.6
		c0,0.1,0.1,0.1,0.1,0.2c0,0,0,0.1,0.1,0.1c0.3,0.6,0.1,1.3-0.5,1.5c-0.3,0.1-0.6,0.1-0.8,0c-0.3-0.1-0.5-0.3-0.6-0.6v-0.1
		c0-0.1-0.1-0.1-0.1-0.2c-0.1-0.2-0.2-0.4-0.2-0.6c0-0.1-0.1-0.2-0.1-0.3l0,0c-0.2-0.7-0.4-1.3-0.7-1.8c-0.1-0.2-0.3-0.2-0.5-0.3
		h-0.1c0,0-0.1-0.1-0.1-0.2c-0.1-0.1-0.1-0.2-0.1-0.2c-0.6,0.2-1.2,0.4-1.8,0.5c-2.7,0.6-5.4,0.4-8-0.6l-0.2,0.4
		c-0.2,0.1-0.4,0.1-0.5,0.2c-0.3,0.3-0.4,0.8-0.6,1.3c-0.1,0.2-0.1,0.4-0.2,0.6c0,0.1-0.1,0.2-0.1,0.3c-0.1,0.2-0.1,0.4-0.2,0.6
		c0,0.1-0.1,0.1-0.1,0.2c0,0,0,0.1-0.1,0.1c-0.2,0.4-0.6,0.7-1.1,0.7c-0.1,0-0.3,0-0.4-0.1c-0.5-0.2-0.7-0.9-0.5-1.5
		c0,0,0-0.1,0.1-0.1c0.1,0,0.1-0.1,0.1-0.2c0.1-0.2,0.2-0.4,0.4-0.6c0.1-0.1,0.1-0.2,0.2-0.3c0.4-0.6,0.8-1.2,1-1.7
		C533,79.6,532.9,79.3,532.9,79.2L532.9,79.2z"/>
	<path class="st0" d="M532,81.5c-0.1,0.1-0.1,0.2-0.2,0.3c-0.1,0.2-0.2,0.4-0.4,0.6c0,0.1-0.1,0.1-0.1,0.2c0,0,0,0.1-0.1,0.1
		c-0.3,0.6-0.1,1.3,0.5,1.5c0.1,0.1,0.3,0.1,0.4,0.1c0.4,0,0.8-0.3,1.1-0.7c0,0,0-0.1,0.1-0.1c0-0.1,0.1-0.1,0.1-0.2
		c0.1-0.2,0.2-0.4,0.2-0.6c0-0.1,0.1-0.2,0.1-0.3c0.1-0.2,0.2-0.4,0.2-0.6c0.2-0.5,0.3-0.9,0.6-1.3c0.1-0.1,0.3-0.2,0.5-0.2l0.2-0.4
		c2.6,1,5.3,1.2,8,0.6c0.6-0.1,1.2-0.3,1.8-0.5c0,0.1,0.1,0.1,0.1,0.2c0.1,0.1,0.1,0.2,0.1,0.2h0.1c0.2,0.1,0.3,0.1,0.5,0.3
		c0.3,0.5,0.5,1.1,0.7,1.8l0,0c0,0.1,0.1,0.2,0.1,0.3c0.1,0.2,0.1,0.4,0.2,0.6c0,0.1,0.1,0.1,0.1,0.2v0.1c0.1,0.3,0.4,0.5,0.6,0.6
		c0.3,0.1,0.6,0.1,0.8,0c0.5-0.2,0.7-0.9,0.5-1.5c0,0,0-0.1-0.1-0.1c0-0.1-0.1-0.1-0.1-0.2c-0.1-0.2-0.2-0.4-0.4-0.6
		c-0.1-0.1-0.1-0.2-0.2-0.3c-0.4-0.6-0.7-1.2-0.9-1.7c-0.1-0.2,0-0.4,0.1-0.5v-0.1c0,0-0.1-0.2-0.1-0.3c0-0.1,0-0.1-0.1-0.1
		c1.5-0.9,2.7-2,3.8-3.3s1.8-2.8,2.3-4.4c0.1,0,0.4,0.1,0.5,0.1c0,0,0.1,0,0.1-0.1c0.1-0.1,0.2-0.2,0.5-0.2h0.1
		c0.6,0.1,1.1,0.3,1.8,0.5l0,0c0.1,0.1,0.2,0.1,0.3,0.1c0.2,0.1,0.4,0.2,0.6,0.2c0.1,0,0.1,0,0.2,0h0.1c0.6,0.1,1.2-0.2,1.4-0.8
		s-0.3-1.2-0.9-1.3h-0.1c-0.1,0-0.1,0-0.2-0.1c-0.3,0.1-0.5,0.1-0.8,0.1c-0.1,0-0.2,0-0.4,0l0,0c-0.7-0.1-1.3-0.1-1.9-0.3
		c-0.2-0.1-0.4-0.3-0.4-0.4c0,0,0,0,0-0.1l-0.4-0.1c0.2-1.6,0.2-3.3-0.2-5c-0.4-1.6-1.1-3.2-2-4.6c0.1-0.1,0.1-0.1,0.2-0.2
		s0.1-0.1,0.2-0.1v-0.1c0-0.2,0-0.4,0.2-0.5c0.4-0.4,0.9-0.7,1.6-1.1c0.1-0.1,0.2-0.1,0.3-0.2c0.2-0.1,0.4-0.2,0.6-0.4
		c0.1,0,0.1-0.1,0.2-0.1l0.1-0.1c0.5-0.4,0.6-1.1,0.3-1.6c-0.4-0.5-1.1-0.5-1.6-0.1c0,0-0.1,0-0.1,0.1c-0.1,0.1-0.1,0.1-0.2,0.1
		c-0.2,0.2-0.3,0.3-0.5,0.5c-0.1,0.1-0.1,0.2-0.2,0.2l0,0c-0.5,0.5-0.9,0.9-1.4,1.3c-0.2,0.1-0.4,0.1-0.6,0.1h-0.1l-0.4,0.3
		c-1.2-1.2-2.5-2.2-4-2.9s-3.1-1.2-4.8-1.3c0-0.1,0-0.4,0-0.5l-0.2,0.1c-0.1-0.1-0.2-0.2-0.3-0.5c-0.1-0.6,0-1.2,0.1-1.9v-0.1
		c0-0.1,0-0.2,0.1-0.3c0.1-0.2,0.1-0.4,0.1-0.7v-0.3c0-0.6-0.5-1.2-1.1-1.2c-0.6,0-1.1,0.5-1.1,1.2v0.3c0,0.2,0.1,0.5,0.1,0.7
		c0,0.1,0.1,0.2,0.1,0.3l0,0c0.1,0.7,0.2,1.3,0.1,1.9c-0.1,0.2-0.2,0.4-0.4,0.5V53c-0.6,0.1-1.3,0.2-1.9,0.3c-2.7,0.6-5.1,2-6.9,4
		c-0.1-0.1-0.3-0.2-0.4-0.3h-0.1c-0.2,0-0.3,0.1-0.5-0.1c-0.5-0.3-0.9-0.8-1.4-1.3l0,0c-0.1-0.1-0.2-0.2-0.2-0.2
		c-0.1-0.2-0.3-0.3-0.5-0.5c-0.1-0.1-0.1-0.1-0.2-0.1c0,0-0.1,0-0.1-0.1c-0.2-0.2-0.5-0.3-0.8-0.3l0,0c-0.3,0-0.6,0.1-0.8,0.4
		c-0.2,0.2-0.2,0.5-0.2,0.8c0.1,0.3,0.2,0.6,0.5,0.8c0,0,0.1,0,0.1,0.1c0.1,0.1,0.1,0.1,0.2,0.1c0.2,0.1,0.4,0.2,0.6,0.4
		c0.1,0.1,0.2,0.1,0.3,0.2c0.6,0.4,1.2,0.7,1.6,1.1c0.1,0.2,0.2,0.4,0.2,0.6V59l0.3,0.3c-1.9,2.8-2.6,6.2-2.2,9.6l-0.4,0.1l-0.1,0.1
		c-0.1,0.2-0.3,0.4-0.4,0.4c-0.5,0.2-1.2,0.2-1.9,0.3l0,0c-0.1,0-0.2,0-0.4,0c-0.2,0-0.4,0-0.7,0.1c-0.1,0-0.1,0-0.2,0.1h-0.1
		c-0.6,0.2-1,0.7-0.9,1.3c0.1,0.6,0.8,0.9,1.4,0.8h0.1c0.1,0,0.1,0,0.2-0.1c0.2-0.1,0.4-0.1,0.6-0.2c0.1-0.1,0.2-0.1,0.3-0.1l0,0
		c0.7-0.2,1.3-0.5,1.8-0.5c0.2,0,0.4,0.1,0.6,0.2c0,0,0,0,0.1,0l0.5-0.1c1,3.2,3.2,5.9,6.1,7.6l-0.2,0.5c0.1,0.2,0.1,0.4,0.1,0.6
		C532.8,80.3,532.4,80.8,532,81.5L532,81.5z M534.8,64.8c0.4,0.3,0.4,0.9,0.1,1.3c-0.1,0.2-0.3,0.3-0.5,0.3l0,0l-5.3,1.5
		c-0.1-1.2-0.1-2.4,0.2-3.6c0.3-1.2,0.7-2.3,1.3-3.3L534.8,64.8z M535.2,69.7h0.2c0.4,0,0.8,0.3,0.9,0.7c0.1,0.2,0,0.4-0.1,0.6l0,0
		l-2.1,5.1c-1-0.6-1.9-1.4-2.6-2.3c-0.8-0.9-1.3-2-1.8-3.2L535.2,69.7L535.2,69.7z M543.2,62.2c-0.4,0.3-1,0.2-1.3-0.2
		c-0.1-0.2-0.2-0.4-0.2-0.5l-0.3-5.5c1.2,0.1,2.3,0.5,3.4,1s2,1.2,2.9,2L543.2,62.2L543.2,62.2z M538.4,61.5
		c-0.1,0.5-0.5,0.9-0.9,0.9c-0.2,0-0.4-0.1-0.5-0.2l-4.6-3.2c1.5-1.4,3.3-2.4,5.3-2.9c0.4-0.1,0.7-0.1,1.1-0.2L538.4,61.5
		L538.4,61.5z M539.2,72.4c0.2-0.3,0.5-0.5,0.8-0.5l0,0c0.1,0,0.3,0,0.4,0.1c0.2,0.1,0.3,0.2,0.4,0.4l0,0l2.7,4.8
		c-0.4,0.1-0.7,0.2-1.1,0.3c-2,0.5-4,0.4-6-0.3L539.2,72.4L539.2,72.4z M541.6,68.1l-1.5,0.7l-1.5-0.7l-0.4-1.6l1.1-1.3h1.7l1.1,1.3
		L541.6,68.1z M543.9,71c-0.2-0.5,0-1,0.5-1.2c0-0.1,0.2-0.1,0.3-0.1c0.1,0,0.1,0,0.2,0l5.5,0.9c-0.4,1.1-1,2.2-1.7,3.1
		c-0.8,0.9-1.6,1.8-2.7,2.4L543.9,71L543.9,71z M548.4,74.1L548.4,74.1L548.4,74.1z M545.3,64.8l4.1-3.7c0.6,1,1.1,2.2,1.3,3.3
		c0.2,1.1,0.4,2.4,0.2,3.5l-5.3-1.5l0,0c-0.5-0.1-0.8-0.6-0.6-1.1C545,65.1,545.1,65,545.3,64.8L545.3,64.8z M546.4,75.9L546.4,75.9
		L546.4,75.9z"/>
	<path class="st2" d="M513,101.4c-0.2-0.3-0.5-0.6-0.8-0.9c-0.3-0.3-0.5-0.6-0.8-0.8c0.5-0.5,0.9-0.9,1.3-1.4
		c0.4-0.5,0.8-0.9,1.2-1.4h-2.1c-0.1,0.1-0.2,0.3-0.4,0.5s-0.3,0.4-0.5,0.6s-0.4,0.4-0.5,0.6s-0.4,0.4-0.5,0.6v-5.3l-1.8,0.3v9h1.8
		v-2.7c0.2,0.2,0.4,0.4,0.6,0.6s0.4,0.5,0.6,0.7s0.4,0.5,0.5,0.8c0.2,0.2,0.3,0.5,0.4,0.7h2c-0.1-0.3-0.3-0.6-0.5-0.9
		C513.4,102.1,513.2,101.7,513,101.4z M518.5,101.8c-0.1,0-0.2,0-0.4,0.1h-0.4c-0.4,0-0.7-0.1-0.9-0.4c-0.2-0.2-0.2-0.7-0.2-1.2V97
		h-1.8v3.5c0,0.4,0.1,0.8,0.1,1.2c0.1,0.4,0.2,0.7,0.4,0.9c0.2,0.3,0.5,0.5,0.8,0.6c0.4,0.1,0.8,0.2,1.3,0.2s1,0,1.5-0.1
		s0.9-0.2,1.2-0.2V97h-1.5L518.5,101.8L518.5,101.8z M527.2,97.7c-0.2-0.3-0.5-0.5-0.9-0.6c-0.4-0.2-0.7-0.2-1.2-0.2
		c-0.2,0-0.5,0-0.7,0.1s-0.4,0.1-0.6,0.2V94l-1.8,0.3v8.8c0.2,0.1,0.4,0.1,0.5,0.1c0.2,0,0.4,0.1,0.6,0.1s0.5,0.1,0.7,0.1
		s0.5,0,0.7,0c0.5,0,1-0.1,1.4-0.2c0.4-0.2,0.8-0.4,1-0.7c0.3-0.3,0.5-0.6,0.6-1.1c0.2-0.4,0.2-0.9,0.2-1.4s-0.1-0.9-0.2-1.3
		C527.6,98.3,527.4,98,527.2,97.7z M525.7,101.4c-0.2,0.3-0.6,0.5-1.1,0.5h-0.4c-0.1,0-0.2,0-0.3-0.1v-3.3c0.1-0.1,0.3-0.1,0.4-0.2
		c0.2-0.1,0.4-0.1,0.5-0.1c0.8,0,1.3,0.6,1.3,1.7C526.1,100.6,525.9,101.1,525.7,101.4L525.7,101.4z M532,96.8
		c-0.4,0-0.8,0.1-1.1,0.2c-0.4,0.1-0.7,0.4-1,0.6c-0.3,0.3-0.5,0.6-0.7,1.1c-0.2,0.4-0.2,0.9-0.2,1.5c0,0.5,0.1,0.9,0.2,1.3
		s0.4,0.8,0.6,1.1c0.3,0.3,0.6,0.5,1.1,0.7c0.4,0.2,0.9,0.2,1.5,0.2c0.2,0,0.5,0,0.7,0s0.4-0.1,0.6-0.1c0.2,0,0.4-0.1,0.5-0.1
		c0.2-0.1,0.3-0.1,0.4-0.1l-0.2-1.5c-0.2,0.1-0.5,0.2-0.8,0.2c-0.3,0.1-0.6,0.1-1,0.1c-0.5,0-0.9-0.1-1.2-0.3
		c-0.3-0.2-0.5-0.5-0.5-0.9h4.1c0-0.1,0-0.2,0-0.3v-0.4c0-1.1-0.3-1.9-0.8-2.4C533.6,97.1,532.9,96.8,532,96.8L532,96.8z
		 M530.8,99.5c0-0.2,0.1-0.3,0.1-0.4c0.1-0.2,0.1-0.3,0.2-0.4c0.1-0.1,0.2-0.2,0.4-0.3s0.3-0.1,0.5-0.1s0.4,0,0.5,0.1
		s0.3,0.2,0.4,0.3c0.1,0.1,0.2,0.2,0.2,0.4c0.1,0.1,0.1,0.3,0.1,0.4H530.8L530.8,99.5z M539.6,96.9c-0.1,0-0.3,0-0.4-0.1
		c-0.1,0-0.2,0-0.4,0c-0.5,0-1,0.1-1.5,0.2c-0.4,0.1-0.8,0.2-1.1,0.3v6h1.8v-4.8c0.1,0,0.2-0.1,0.4-0.1s0.3,0,0.4,0
		c0.2,0,0.5,0,0.7,0.1c0.2,0,0.4,0.1,0.6,0.1l0.3-1.5c-0.1,0-0.2-0.1-0.4-0.1C539.9,96.9,539.7,96.9,539.6,96.9L539.6,96.9z
		 M546.2,97.6c-0.2-0.3-0.5-0.5-0.9-0.6s-0.8-0.2-1.3-0.2s-1,0-1.5,0.1s-0.9,0.2-1.2,0.2v6.1h1.8v-4.8c0.1,0,0.2,0,0.4,0
		c0.1,0,0.3,0,0.4,0c0.4,0,0.7,0.1,0.9,0.4c0.2,0.2,0.2,0.6,0.2,1.2v3.3h1.8v-3.6c0-0.4-0.1-0.8-0.1-1.2
		C546.5,98.2,546.4,97.9,546.2,97.6L546.2,97.6z M551.1,96.8c-0.4,0-0.8,0.1-1.1,0.2c-0.4,0.1-0.7,0.4-1,0.6
		c-0.3,0.3-0.5,0.6-0.7,1.1c-0.2,0.4-0.2,0.9-0.2,1.5c0,0.5,0.1,0.9,0.2,1.3c0.1,0.4,0.4,0.8,0.6,1.1c0.3,0.3,0.6,0.5,1.1,0.7
		c0.4,0.2,0.9,0.2,1.5,0.2c0.2,0,0.5,0,0.7,0c0.2,0,0.4-0.1,0.6-0.1s0.4-0.1,0.5-0.1c0.2-0.1,0.3-0.1,0.4-0.1l-0.2-1.5
		c-0.3,0-0.5,0-0.9,0.1c-0.3,0.1-0.6,0.1-1,0.1c-0.5,0-0.9-0.1-1.2-0.3c-0.3-0.2-0.5-0.5-0.5-0.9h4.1c0-0.1,0-0.2,0-0.3V100
		c0-1.1-0.3-1.9-0.8-2.4C552.7,97.1,552,96.8,551.1,96.8L551.1,96.8z M549.9,99.5c0-0.2,0.1-0.3,0.1-0.4c0.1-0.2,0.1-0.3,0.2-0.4
		s0.2-0.2,0.4-0.3c0.1-0.1,0.3-0.1,0.5-0.1c0.2,0,0.4,0,0.5,0.1c0.1,0.1,0.3,0.2,0.4,0.3c0.1,0.1,0.2,0.2,0.2,0.4s0.1,0.3,0.1,0.4
		H549.9L549.9,99.5z M558.7,101.8c-0.2,0-0.4,0.1-0.6,0.1c-0.4,0-0.7-0.1-0.8-0.3c-0.1-0.2-0.2-0.5-0.2-0.9v-2.2h2.2V97h-2.2v-1.9
		l-1.8,0.3v5.3c0,0.4,0,0.8,0.1,1.1c0.1,0.3,0.2,0.6,0.4,0.9c0.2,0.2,0.5,0.4,0.8,0.5s0.7,0.2,1.2,0.2c0.4,0,0.7,0,1-0.1
		s0.5-0.1,0.7-0.2l-0.2-1.4C559.1,101.8,558.9,101.8,558.7,101.8L558.7,101.8z M563.2,96.8c-0.4,0-0.8,0.1-1.1,0.2
		c-0.4,0.1-0.7,0.4-1,0.6c-0.3,0.3-0.5,0.6-0.7,1.1c-0.2,0.4-0.2,0.9-0.2,1.5c0,0.5,0.1,0.9,0.2,1.3s0.4,0.8,0.6,1.1
		c0.3,0.3,0.6,0.5,1.1,0.7c0.4,0.2,0.9,0.2,1.5,0.2c0.2,0,0.5,0,0.7,0s0.4-0.1,0.6-0.1c0.2,0,0.4-0.1,0.5-0.1
		c0.2-0.1,0.3-0.1,0.4-0.1l-0.2-1.5c-0.2,0.1-0.5,0.2-0.8,0.2c-0.3,0.1-0.6,0.1-1,0.1c-0.5,0-0.9-0.1-1.2-0.3
		c-0.3-0.2-0.5-0.5-0.5-0.9h4.1c0-0.1,0-0.2,0-0.3v-0.4c0-1.1-0.3-1.9-0.8-2.4C564.8,97.1,564.1,96.8,563.2,96.8L563.2,96.8z
		 M562,99.5c0-0.2,0.1-0.3,0.1-0.4c0.1-0.2,0.1-0.3,0.2-0.4s0.2-0.2,0.4-0.3c0.2-0.1,0.3-0.1,0.5-0.1c0.2,0,0.4,0,0.5,0.1
		c0.1,0.1,0.3,0.2,0.4,0.3c0.1,0.1,0.2,0.2,0.2,0.4c0.1,0.1,0.1,0.3,0.1,0.4H562L562,99.5z M571.6,100.3c-0.1-0.2-0.4-0.3-0.6-0.5
		c-0.3-0.1-0.6-0.3-1-0.4c-0.2-0.1-0.4-0.1-0.5-0.2c-0.1-0.1-0.2-0.1-0.3-0.2s-0.1-0.1-0.1-0.2s0-0.1,0-0.2c0-0.3,0.3-0.5,0.8-0.5
		c0.3,0,0.6,0,0.8,0.1c0.2,0.1,0.5,0.1,0.7,0.2l0.3-1.4c-0.2-0.1-0.5-0.2-0.8-0.2c-0.4-0.1-0.7-0.1-1.1-0.1c-0.8,0-1.4,0.2-1.8,0.5
		c-0.4,0.4-0.6,0.8-0.6,1.4c0,0.3,0.1,0.6,0.1,0.8c0.1,0.2,0.2,0.4,0.4,0.6s0.4,0.3,0.6,0.4c0.2,0.1,0.5,0.2,0.8,0.3
		c0.4,0.1,0.6,0.3,0.8,0.4c0.2,0.1,0.3,0.2,0.3,0.4c0,0.2-0.1,0.3-0.2,0.4c-0.1,0.1-0.4,0.1-0.7,0.1c-0.3,0-0.6,0-0.9-0.1
		s-0.6-0.2-0.9-0.3l-0.3,1.5c0.1,0.1,0.4,0.1,0.8,0.2c0.4,0.1,0.8,0.1,1.4,0.1c0.9,0,1.5-0.2,2-0.5s0.7-0.8,0.7-1.4
		c0-0.3,0-0.5-0.1-0.7C571.8,100.6,571.7,100.4,571.6,100.3L571.6,100.3z"/>
	<path class="st3" d="M503.4,30.8h72.9v82h-72.9V30.8z"/>
	<path class="st1" d="M578.6,29.8v-6.9c0-6.8-5.5-12.3-12.3-12.3h-52.6c-6.7,0-12.3,5.5-12.3,12.3v92h77.2V29.8L578.6,29.8z
		 M557.9,21c0.1-0.4,0.3-0.8,0.5-1c0.2-0.3,0.5-0.5,0.9-0.6c0.4-0.2,0.7-0.2,1.2-0.2c0.2,0,0.5,0,0.6,0.1c0.2,0.1,0.4,0.1,0.6,0.2
		v-2.8l1.8-0.3v9c-0.2,0.1-0.4,0.1-0.5,0.1c-0.2,0.1-0.4,0.1-0.6,0.1c-0.2,0-0.5,0.1-0.7,0.1c-0.2,0-0.5,0-0.7,0
		c-0.5,0-1-0.1-1.4-0.2c-0.4-0.2-0.7-0.4-1-0.6c-0.3-0.3-0.5-0.6-0.6-1c-0.1-0.4-0.2-0.8-0.2-1.3C557.7,21.8,557.8,21.4,557.9,21
		L557.9,21z M551.2,20.9c0.2-0.4,0.4-0.8,0.7-1c0.3-0.3,0.6-0.5,0.9-0.6c0.4-0.1,0.7-0.2,1.1-0.2c0.9,0,1.6,0.3,2.1,0.8
		s0.8,1.3,0.8,2.4v0.3c0,0.1,0,0.2,0,0.3h-4c0,0.4,0.2,0.6,0.5,0.9c0.3,0.2,0.7,0.3,1.2,0.3c0.3,0,0.6,0,0.9-0.1
		c0.3-0.1,0.6-0.1,0.8-0.2l0.2,1.4c-0.1,0.1-0.2,0.1-0.4,0.1c-0.2,0.1-0.3,0.1-0.5,0.1s-0.4,0.1-0.6,0.1c-0.2,0-0.4,0-0.7,0
		c-0.6,0-1.1-0.1-1.5-0.2c-0.4-0.2-0.8-0.4-1-0.7c-0.3-0.3-0.5-0.6-0.6-1s-0.2-0.8-0.2-1.3C550.9,21.8,551,21.3,551.2,20.9z
		 M548.1,16.6c0.2-0.2,0.5-0.3,0.7-0.3c0.3,0,0.5,0.1,0.7,0.3c0.2,0.2,0.3,0.4,0.3,0.8c0,0.3-0.1,0.6-0.3,0.8
		c-0.2,0.2-0.5,0.3-0.7,0.3c-0.3,0-0.5-0.1-0.7-0.3c-0.2-0.2-0.3-0.4-0.3-0.8C547.8,17.1,547.9,16.8,548.1,16.6z M549.7,19.2v6.2
		h-1.8v-6.2H549.7z M543,18.9c0-0.8,0.2-1.4,0.7-1.9s1.1-0.7,2-0.7c0.3,0,0.6,0,0.8,0.1c0.2,0.1,0.4,0.1,0.5,0.2l-0.3,1.4
		c-0.1-0.1-0.3-0.1-0.4-0.1c-0.2,0-0.3,0-0.5,0s-0.4,0-0.5,0.1s-0.3,0.1-0.4,0.2c-0.1,0.1-0.1,0.2-0.2,0.4c0,0.1-0.1,0.3-0.1,0.5
		v0.3h2.2v1.3h-2.2v4.7h-1.8L543,18.9L543,18.9z M539.8,16.6c0.2-0.2,0.5-0.3,0.7-0.3c0.3,0,0.5,0.1,0.7,0.3
		c0.2,0.2,0.3,0.4,0.3,0.8c0,0.3-0.1,0.6-0.3,0.8c-0.2,0.2-0.5,0.3-0.7,0.3c-0.3,0-0.5-0.1-0.7-0.3c-0.2-0.2-0.3-0.4-0.3-0.8
		C539.5,17.1,539.5,16.8,539.8,16.6z M541.4,19.2v6.2h-1.8v-6.2H541.4z M534.3,17.6l1.8-0.3v1.8h2.1v1.5h-2.1v2.2
		c0,0.4,0.1,0.7,0.2,0.9s0.4,0.3,0.8,0.3c0.2,0,0.4,0,0.6-0.1c0.2,0,0.4-0.1,0.5-0.1l0.2,1.4c-0.2,0.1-0.5,0.2-0.7,0.2
		c-0.3,0.1-0.6,0.1-1,0.1c-0.5,0-0.9-0.1-1.2-0.2c-0.3-0.1-0.6-0.3-0.8-0.5c-0.2-0.2-0.3-0.5-0.4-0.8s-0.1-0.7-0.1-1.1L534.3,17.6
		L534.3,17.6z M529.4,19.5c0.3-0.1,0.7-0.2,1.1-0.3c0.4-0.1,0.9-0.1,1.4-0.1c0.1,0,0.2,0,0.4,0c0.1,0,0.3,0,0.4,0.1l0.4,0.1
		c0.1,0,0.2,0.1,0.4,0.1l-0.3,1.5c-0.2,0-0.4-0.1-0.6-0.1s-0.4-0.1-0.7-0.1c-0.1,0-0.2,0-0.4,0c-0.2,0-0.3,0.1-0.4,0.1v4.7h-1.8
		C529.4,25.4,529.4,19.5,529.4,19.5z M522.5,20.9c0.2-0.4,0.4-0.8,0.7-1c0.3-0.3,0.6-0.5,0.9-0.6c0.4-0.1,0.7-0.2,1.1-0.2
		c0.9,0,1.6,0.3,2.1,0.8s0.8,1.3,0.8,2.4v0.3c0,0.1,0,0.2,0,0.3h-4c0,0.4,0.2,0.6,0.5,0.9c0.3,0.2,0.7,0.3,1.2,0.3
		c0.3,0,0.6,0,0.9-0.1c0.3-0.1,0.6-0.1,0.8-0.2l0.2,1.4c-0.1,0.1-0.2,0.1-0.4,0.1c-0.2,0.1-0.3,0.1-0.5,0.1s-0.4,0.1-0.6,0.1
		c-0.2,0-0.4,0-0.7,0c-0.6,0-1.1-0.1-1.5-0.2c-0.4-0.2-0.8-0.4-1-0.7c-0.3-0.3-0.5-0.6-0.6-1s-0.2-0.8-0.2-1.3
		C522.2,21.8,522.3,21.3,522.5,20.9z M516.8,21c0.1-0.4,0.4-0.8,0.6-1.1c0.2-0.3,0.6-0.5,1-0.7c0.4-0.2,0.8-0.3,1.3-0.3
		c0.3,0,0.6,0,0.9,0.1s0.5,0.1,0.8,0.2l-0.3,1.5c-0.2-0.1-0.4-0.1-0.5-0.2c-0.2-0.1-0.4-0.1-0.7-0.1c-0.5,0-0.9,0.2-1.2,0.5
		c-0.3,0.3-0.4,0.8-0.4,1.3c0,0.6,0.1,1,0.4,1.3s0.6,0.5,1.3,0.5c0.2,0,0.4,0,0.7-0.1c0.2,0,0.5-0.1,0.7-0.2l0.2,1.4
		c-0.2,0.1-0.5,0.2-0.8,0.2c-0.3,0.1-0.6,0.1-1,0.1c-0.6,0-1.1-0.1-1.5-0.2s-0.7-0.4-1-0.6c-0.3-0.3-0.5-0.6-0.6-1
		c-0.1-0.4-0.2-0.8-0.2-1.3C516.6,21.8,516.7,21.4,516.8,21z M576.4,112.9h-73v-82h72.9L576.4,112.9L576.4,112.9z"/>
	<path class="st1" d="M555,21.2c-0.1-0.1-0.1-0.3-0.2-0.4c-0.1-0.1-0.2-0.1-0.4-0.2c-0.1-0.1-0.3-0.1-0.5-0.1s-0.4,0-0.5,0.1
		s-0.3,0.2-0.4,0.3c-0.1,0.1-0.2,0.2-0.2,0.4c-0.1,0.1-0.1,0.3-0.1,0.4h2.3C555.1,21.5,555,21.4,555,21.2L555,21.2z M561,24.1
		c0.2,0,0.3,0,0.4,0s0.2,0,0.3-0.1v-3.2c-0.1-0.1-0.2-0.1-0.4-0.2c-0.2-0.1-0.4-0.1-0.5-0.1c-0.8,0-1.2,0.6-1.2,1.7
		c0,0.5,0.1,1,0.4,1.3C560.1,23.9,560.5,24.1,561,24.1L561,24.1z M526.3,21.2c-0.1-0.1-0.1-0.3-0.2-0.4s-0.2-0.2-0.4-0.3
		c-0.1-0.1-0.3-0.1-0.5-0.1c-0.2,0-0.4,0-0.5,0.1c-0.1,0.1-0.3,0.2-0.4,0.3c-0.1,0.1-0.2,0.2-0.2,0.4c-0.1,0.1-0.1,0.3-0.1,0.4h2.3
		C526.3,21.5,526.3,21.4,526.3,21.2L526.3,21.2z"/>
	<path class="st0" d="M517.4,24.6c0.3,0.3,0.6,0.5,1,0.7c0.4,0.2,0.9,0.2,1.5,0.2c0.4,0,0.7,0,1-0.1c0.3-0.1,0.6-0.1,0.8-0.2
		l-0.2-1.4c-0.2,0.1-0.4,0.2-0.7,0.2c-0.2,0-0.5,0.1-0.7,0.1c-0.6,0-1-0.2-1.3-0.5c-0.2-0.3-0.4-0.7-0.4-1.3c0-0.5,0.1-0.9,0.4-1.3
		c0.2-0.3,0.6-0.5,1.2-0.5c0.2,0,0.5,0,0.7,0.1c0.2,0.1,0.4,0.1,0.5,0.2l0.4-1.4c-0.3-0.1-0.5-0.2-0.8-0.2c-0.3-0.1-0.6-0.1-0.9-0.1
		c-0.5,0-0.9,0.1-1.3,0.3c-0.4,0.2-0.7,0.4-1,0.7c-0.3,0.3-0.5,0.6-0.6,1.1c-0.1,0.4-0.2,0.8-0.2,1.3s0.1,0.9,0.2,1.3
		C516.9,24,517.1,24.3,517.4,24.6L517.4,24.6z M523,24.6c0.3,0.3,0.6,0.5,1,0.7c0.4,0.2,0.9,0.2,1.5,0.2c0.2,0,0.4,0,0.7,0
		c0.2,0,0.4-0.1,0.6-0.1s0.4-0.1,0.5-0.1c0.2-0.1,0.3-0.1,0.4-0.1l-0.2-1.4c-0.2,0.1-0.5,0.2-0.8,0.2c-0.3,0.1-0.6,0.1-0.9,0.1
		c-0.5,0-0.9-0.1-1.2-0.3c-0.3-0.2-0.5-0.5-0.5-0.9h4c0-0.1,0-0.2,0-0.3v-0.3c0-1.1-0.3-1.8-0.8-2.4c-0.5-0.5-1.2-0.8-2.1-0.8
		c-0.4,0-0.8,0.1-1.1,0.2c-0.4,0.1-0.7,0.4-0.9,0.6c-0.3,0.3-0.5,0.6-0.7,1c-0.2,0.4-0.2,0.9-0.2,1.5c0,0.5,0.1,0.9,0.2,1.3
		C522.6,24,522.7,24.3,523,24.6z M524.1,21.2c0.1-0.1,0.1-0.3,0.2-0.4s0.2-0.2,0.4-0.3c0.1-0.1,0.3-0.1,0.5-0.1c0.2,0,0.4,0,0.5,0.1
		c0.1,0.1,0.2,0.2,0.4,0.3c0.1,0.1,0.2,0.2,0.2,0.4c0.1,0.1,0.1,0.3,0.1,0.4h-2.3C524,21.5,524.1,21.4,524.1,21.2L524.1,21.2z
		 M531.2,20.7c0.1,0,0.2-0.1,0.4-0.1c0.2,0,0.3,0,0.4,0c0.2,0,0.5,0,0.7,0.1c0.2,0.1,0.4,0.1,0.6,0.1l0.3-1.5
		c-0.1,0-0.2-0.1-0.4-0.1l-0.4-0.1c-0.1,0-0.3,0-0.4-0.1c-0.1,0-0.2,0-0.4,0c-0.5,0-1,0.1-1.4,0.1c-0.4,0.1-0.8,0.2-1.1,0.3v5.9h1.8
		C531.2,25.4,531.2,20.7,531.2,20.7z M534.8,24.8c0.2,0.2,0.4,0.4,0.8,0.5s0.7,0.2,1.2,0.2c0.4,0,0.7,0,1-0.1s0.5-0.1,0.7-0.2
		l-0.2-1.4c-0.2,0.1-0.4,0.1-0.5,0.1s-0.4,0.1-0.6,0.1c-0.4,0-0.6-0.1-0.8-0.3c-0.1-0.2-0.2-0.5-0.2-0.9v-2.2h2.1v-1.5h-2.1v-1.8
		l-1.8,0.3v5.2c0,0.4,0,0.8,0.1,1.1C534.5,24.3,534.6,24.6,534.8,24.8L534.8,24.8z M539.6,19.2h1.8v6.2h-1.8V19.2z M540.5,18.5
		c0.3,0,0.5-0.1,0.7-0.3c0.2-0.2,0.3-0.4,0.3-0.8c0-0.3-0.1-0.6-0.3-0.8c-0.2-0.2-0.5-0.3-0.7-0.3c-0.3,0-0.5,0.1-0.7,0.3
		c-0.2,0.2-0.3,0.4-0.3,0.8c0,0.3,0.1,0.6,0.3,0.8C540,18.3,540.2,18.5,540.5,18.5z M544.8,20.7h2.2v-1.5h-2.2v-0.3
		c0-0.2,0-0.3,0.1-0.5c0-0.1,0.1-0.3,0.2-0.4c0.1-0.1,0.2-0.2,0.4-0.2c0.1-0.1,0.3-0.1,0.5-0.1s0.3,0,0.5,0s0.3,0.1,0.4,0.1l0.3-1.4
		c-0.2-0.1-0.3-0.1-0.5-0.2c-0.2-0.1-0.5-0.1-0.8-0.1c-0.9,0-1.6,0.2-2,0.7c-0.5,0.5-0.7,1.1-0.7,1.9v6.5h1.8L544.8,20.7L544.8,20.7
		z M548.9,18.5c0.3,0,0.5-0.1,0.7-0.3c0.2-0.2,0.3-0.4,0.3-0.8c0-0.3-0.1-0.6-0.3-0.8c-0.2-0.2-0.5-0.3-0.7-0.3
		c-0.3,0-0.5,0.1-0.7,0.3c-0.2,0.2-0.3,0.4-0.3,0.8c0,0.3,0.1,0.6,0.3,0.8C548.3,18.3,548.6,18.5,548.9,18.5z M548,19.2h1.8v6.2H548
		V19.2z M551.7,24.6c0.3,0.3,0.6,0.5,1,0.7c0.4,0.2,0.9,0.2,1.5,0.2c0.2,0,0.4,0,0.7,0c0.2,0,0.4-0.1,0.6-0.1s0.4-0.1,0.5-0.1
		s0.3-0.1,0.4-0.1l-0.2-1.4c-0.2,0.1-0.5,0.2-0.8,0.2c-0.3,0.1-0.6,0.1-0.9,0.1c-0.5,0-0.9-0.1-1.2-0.3c-0.3-0.2-0.5-0.5-0.5-0.9h4
		c0-0.1,0-0.2,0-0.3v-0.3c0-1.1-0.3-1.8-0.8-2.4c-0.5-0.5-1.2-0.8-2.1-0.8c-0.4,0-0.8,0.1-1.1,0.2c-0.4,0.1-0.7,0.4-0.9,0.6
		c-0.3,0.3-0.5,0.6-0.7,1c-0.2,0.4-0.2,0.9-0.2,1.5c0,0.5,0.1,0.9,0.2,1.3C551.3,24,551.4,24.3,551.7,24.6z M552.8,21.2
		c0.1-0.1,0.1-0.3,0.2-0.4s0.2-0.2,0.4-0.3c0.1-0.1,0.3-0.1,0.5-0.1c0.2,0,0.4,0,0.5,0.1c0.1,0.1,0.2,0.2,0.4,0.3
		c0.1,0.1,0.2,0.2,0.2,0.4c0.1,0.1,0.1,0.3,0.1,0.4h-2.3C552.8,21.5,552.8,21.4,552.8,21.2L552.8,21.2z M558.6,24.7
		c0.3,0.3,0.6,0.5,1,0.6c0.4,0.2,0.9,0.2,1.4,0.2c0.2,0,0.4,0,0.7,0c0.2,0,0.5-0.1,0.7-0.1c0.2,0,0.4-0.1,0.6-0.1
		c0.2-0.1,0.4-0.1,0.5-0.1v-9l-1.8,0.3v2.8c-0.2-0.1-0.4-0.2-0.6-0.2c-0.2-0.1-0.4-0.1-0.6-0.1c-0.4,0-0.8,0.1-1.2,0.2
		c-0.4,0.2-0.6,0.4-0.9,0.6c-0.2,0.3-0.4,0.6-0.5,1c-0.1,0.4-0.2,0.9-0.2,1.4s0.1,0.9,0.2,1.3C558,23.9,558.3,24.4,558.6,24.7
		L558.6,24.7z M560.8,20.6c0.2,0,0.4,0,0.5,0.1s0.3,0.1,0.4,0.2v3.2c-0.1,0-0.2,0-0.3,0.1c-0.1,0-0.3,0-0.4,0
		c-0.5,0-0.8-0.2-1.1-0.5c-0.3-0.3-0.4-0.8-0.4-1.3C559.5,21.1,559.9,20.6,560.8,20.6L560.8,20.6z"/>
</g>
</svg>
