<?xml version="1.0" encoding="utf-8"?>
<!-- Generator: Adobe Illustrator 26.0.1, SVG Export Plug-In . SVG Version: 6.00 Build 0)  -->
<svg version="1.1" id="Layer_1" xmlns="http://www.w3.org/2000/svg" xmlns:xlink="http://www.w3.org/1999/xlink" x="0px" y="0px"
	 width="850.4px" height="122px" viewBox="0 0 850.4 122" style="enable-background:new 0 0 850.4 122;" xml:space="preserve">
<style type="text/css">
	.st0{fill:#FFFFFF;}
	.st1{fill:#326CE5;}
	.st2{fill:#326DE5;}
	.st3{fill:none;}
</style>
<path class="st0" d="M417.7,95.9c-0.1-0.1-0.2-0.2-0.4-0.3c-0.1-0.1-0.3-0.1-0.5-0.1c-0.2,0-0.4,0-0.5,0.1s-0.3,0.2-0.4,0.3
	c-0.1,0.1-0.2,0.2-0.2,0.4c-0.1,0.1-0.1,0.3-0.1,0.4h2.4c0-0.2,0-0.3-0.1-0.4C417.8,96.2,417.8,96,417.7,95.9L417.7,95.9z
	 M409.6,95.6c-0.2,0-0.4,0-0.5,0.1c-0.2,0.1-0.3,0.1-0.4,0.2v3.3c0.1,0,0.2,0,0.3,0.1h0.4c0.5,0,0.9-0.2,1.1-0.5
	c0.2-0.3,0.4-0.8,0.4-1.3C410.9,96.2,410.4,95.6,409.6,95.6L409.6,95.6z M436.8,95.9c-0.1-0.1-0.2-0.2-0.4-0.3
	c-0.1-0.1-0.3-0.1-0.5-0.1c-0.2,0-0.4,0-0.5,0.1c-0.1,0.1-0.3,0.2-0.4,0.3c-0.1,0.1-0.2,0.2-0.2,0.4c-0.1,0.1-0.1,0.3-0.1,0.4h2.4
	c0-0.2,0-0.3-0.1-0.4C437,96.2,436.9,96,436.8,95.9L436.8,95.9z M448.9,95.9c-0.1-0.1-0.2-0.2-0.4-0.3c-0.1-0.1-0.3-0.1-0.5-0.1
	c-0.2,0-0.4,0-0.5,0.1c-0.1,0.1-0.3,0.2-0.4,0.3c-0.1,0.1-0.2,0.2-0.2,0.4c-0.1,0.1-0.1,0.3-0.1,0.4h2.4c0-0.2,0-0.3-0.1-0.4
	C449.1,96.2,449,96,448.9,95.9L448.9,95.9z"/>
<path class="st0" d="M388.2,28.1v82h72.9v-82C461.1,28.1,388.2,28.1,388.2,28.1z M412.4,86.7l-12.3-15.2c-0.1-0.1-0.1-0.2-0.2-0.3
	c-0.5-0.8-0.7-1.7-0.5-2.6l4.4-19c0.2-1,0.9-1.8,1.8-2.3l17.8-8.4c0.4-0.2,0.8-0.3,1.3-0.3c0.6,0,1.1,0.1,1.6,0.3l17.7,8.5
	c0.9,0.4,1.6,1.3,1.8,2.3l4.4,19c0.2,1,0,2-0.6,2.9l-12.3,15.2c-0.6,0.8-1.6,1.3-2.6,1.3H415C414,88,413,87.5,412.4,86.7L412.4,86.7
	z M396.9,100.5c-0.1-0.2-0.3-0.4-0.4-0.7c-0.2-0.3-0.3-0.5-0.5-0.8c-0.2-0.3-0.4-0.5-0.6-0.7c-0.2-0.2-0.4-0.4-0.6-0.6v2.7H393v-9
	l1.8-0.3v5.3c0.2-0.2,0.4-0.4,0.5-0.6c0.2-0.2,0.4-0.4,0.5-0.6c0.2-0.2,0.4-0.4,0.5-0.6c0.2-0.2,0.3-0.4,0.4-0.5h2.1
	c-0.4,0.5-0.8,0.9-1.2,1.4c-0.4,0.4-0.8,0.9-1.3,1.4c0.2,0.2,0.5,0.5,0.8,0.8c0.3,0.3,0.5,0.6,0.8,0.9c0.2,0.3,0.5,0.6,0.6,1
	c0.1,0.4,0.4,0.6,0.5,0.9L396.9,100.5L396.9,100.5z M405.1,100.3c-0.3,0.1-0.7,0.2-1.2,0.2c-0.5,0.1-1,0.1-1.5,0.1s-1-0.1-1.3-0.2
	c-0.3-0.1-0.6-0.4-0.8-0.6c-0.2-0.3-0.4-0.6-0.4-0.9c-0.1-0.4-0.1-0.8-0.1-1.2v-3.5h1.8v3.3c0,0.6,0.1,1,0.2,1.2s0.4,0.4,0.9,0.4
	h0.4c0.1,0,0.3,0,0.4-0.1v-4.9h1.8L405.1,100.3L405.1,100.3z M412.5,98.8c-0.1,0.4-0.4,0.8-0.6,1.1c-0.3,0.3-0.6,0.5-1,0.7
	c-0.4,0.2-0.9,0.2-1.4,0.2c-0.2,0-0.4,0-0.7,0c-0.2,0-0.5,0-0.7-0.1c-0.2,0-0.4-0.1-0.6-0.1c-0.2-0.1-0.4-0.1-0.5-0.1v-8.8l1.8-0.3
	v3.2c0.2-0.1,0.4-0.2,0.6-0.2c0.2-0.1,0.5-0.1,0.7-0.1c0.5,0,0.8,0.1,1.2,0.2c0.4,0.2,0.6,0.4,0.9,0.6c0.2,0.3,0.4,0.6,0.5,1.1
	c0.1,0.4,0.2,0.8,0.2,1.3C412.7,97.9,412.6,98.4,412.5,98.8z M419.7,97.7c0,0.1,0,0.2,0,0.3h-4.1c0,0.4,0.2,0.6,0.5,0.9
	c0.3,0.2,0.7,0.3,1.2,0.3c0.3,0,0.6,0,1-0.1c0.3-0.1,0.6-0.1,0.8-0.2l0.2,1.5c-0.1,0.1-0.2,0.1-0.4,0.1c-0.2,0.1-0.4,0.1-0.5,0.1
	c-0.2,0-0.4,0.1-0.6,0.1c-0.2,0-0.5,0-0.7,0c-0.6,0-1.1-0.1-1.5-0.2c-0.4-0.2-0.8-0.4-1.1-0.7c-0.3-0.3-0.5-0.6-0.6-1.1
	c-0.1-0.4-0.2-0.8-0.2-1.3c0-0.6,0.1-1.1,0.2-1.5c0.2-0.4,0.4-0.8,0.7-1.1c0.3-0.3,0.6-0.5,1-0.6c0.4-0.1,0.8-0.2,1.1-0.2
	c0.9,0,1.6,0.3,2.1,0.8s0.8,1.3,0.8,2.4C419.7,97.4,419.7,97.5,419.7,97.7L419.7,97.7z M424.9,95.8c-0.2,0-0.4-0.1-0.6-0.1
	c-0.2-0.1-0.5-0.1-0.7-0.1c-0.1,0-0.2,0-0.4,0s-0.3,0-0.4,0.1v4.8H421v-6c0.3-0.1,0.7-0.2,1.1-0.3c0.4-0.1,0.9-0.2,1.5-0.2
	c0.1,0,0.2,0,0.4,0c0.1,0,0.3,0,0.4,0.1c0.1,0,0.3,0,0.4,0.1c0.1,0,0.2,0.1,0.4,0.1L424.9,95.8L424.9,95.8z M431.6,100.5h-1.8v-3.3
	c0-0.6-0.1-1-0.2-1.2c-0.2-0.2-0.4-0.4-0.9-0.4c-0.1,0-0.3,0-0.4,0s-0.3,0-0.4,0v4.8h-1.8v-6.1c0.3-0.1,0.7-0.2,1.2-0.2
	c0.5-0.1,1-0.1,1.5-0.1s1,0.1,1.3,0.2c0.3,0.1,0.6,0.3,0.9,0.6c0.2,0.3,0.4,0.6,0.4,0.9c0.1,0.4,0.1,0.8,0.1,1.2L431.6,100.5
	L431.6,100.5z M438.8,97.7c0,0.1,0,0.2,0,0.3h-4.1c0,0.4,0.2,0.6,0.5,0.9c0.3,0.2,0.7,0.3,1.2,0.3c0.3,0,0.6,0,1-0.1
	c0.3-0.1,0.6-0.1,0.8-0.2l0.2,1.5c-0.1,0.1-0.2,0.1-0.4,0.1c-0.2,0.1-0.4,0.1-0.5,0.1c-0.1,0-0.4,0.1-0.6,0.1c-0.2,0-0.5,0-0.7,0
	c-0.6,0-1.1-0.1-1.5-0.2c-0.4-0.2-0.8-0.4-1.1-0.7c-0.3-0.3-0.5-0.6-0.6-1.1c-0.1-0.5-0.2-0.8-0.2-1.3c0-0.6,0.1-1.1,0.2-1.5
	c0.2-0.4,0.4-0.8,0.7-1.1c0.3-0.3,0.6-0.5,1-0.6c0.4-0.1,0.8-0.2,1.1-0.2c0.9,0,1.6,0.3,2.1,0.8s0.8,1.3,0.8,2.4L438.8,97.7
	L438.8,97.7z M443.6,100.6c-0.3,0.1-0.6,0.1-1,0.1c-0.5,0-0.9-0.1-1.2-0.2c-0.3-0.1-0.6-0.3-0.8-0.5c-0.2-0.2-0.3-0.5-0.4-0.9
	c-0.1-0.3-0.1-0.7-0.1-1.1v-5.3l1.8-0.3v1.9h2.2v1.5h-2.2V98c0,0.4,0.1,0.7,0.2,0.9c0.1,0.2,0.4,0.3,0.8,0.3c0.2,0,0.4,0,0.6-0.1
	c0.2,0,0.4-0.1,0.6-0.2l0.2,1.4C444.1,100.5,443.9,100.5,443.6,100.6L443.6,100.6z M450.9,97.7c0,0.1,0,0.2,0,0.3h-4.1
	c0,0.4,0.2,0.6,0.5,0.9c0.3,0.2,0.7,0.3,1.2,0.3c0.3,0,0.6,0,1-0.1c0.3-0.1,0.6-0.1,0.8-0.2l0.2,1.5c-0.1,0.1-0.2,0.1-0.4,0.1
	c-0.2,0.1-0.4,0.1-0.5,0.1s-0.4,0.1-0.6,0.1c-0.2,0-0.5,0-0.7,0c-0.6,0-1.1-0.1-1.5-0.2c-0.4-0.2-0.8-0.4-1.1-0.7
	c-0.3-0.3-0.5-0.6-0.6-1.1c-0.1-0.5-0.2-0.8-0.2-1.3c0-0.6,0.1-1.1,0.2-1.5c0.2-0.4,0.4-0.8,0.7-1.1s0.6-0.5,1-0.6s0.8-0.2,1.1-0.2
	c0.9,0,1.6,0.3,2.1,0.8s0.8,1.3,0.8,2.4L450.9,97.7L450.9,97.7z M456.1,100.2c-0.5,0.3-1.1,0.5-2,0.5c-0.6,0-1-0.1-1.4-0.1
	c-0.4-0.1-0.6-0.2-0.8-0.2l0.3-1.5c0.3,0.1,0.6,0.2,0.9,0.3c0.3,0.1,0.6,0.1,0.9,0.1c0.3,0,0.6,0,0.7-0.1s0.2-0.2,0.2-0.4
	c0-0.1-0.1-0.3-0.3-0.4s-0.4-0.2-0.8-0.4c-0.3-0.1-0.5-0.2-0.8-0.3c-0.2-0.1-0.4-0.2-0.6-0.4c-0.2-0.2-0.3-0.4-0.4-0.6
	s-0.1-0.5-0.1-0.8c0-0.6,0.2-1.1,0.6-1.4s1.1-0.5,1.8-0.5c0.4,0,0.8,0,1.1,0.1c0.4,0.1,0.6,0.1,0.8,0.2l-0.3,1.4
	c-0.2-0.1-0.4-0.1-0.7-0.2c-0.3-0.1-0.5-0.1-0.8-0.1c-0.6,0-0.8,0.2-0.8,0.5c0,0.1,0,0.1,0,0.2s0.1,0.1,0.1,0.2
	c0.1,0.1,0.2,0.1,0.3,0.2s0.3,0.1,0.5,0.2c0.4,0.1,0.7,0.3,1,0.4c0.3,0.1,0.5,0.3,0.6,0.5c0.2,0.2,0.3,0.4,0.3,0.5s0.1,0.4,0.1,0.7
	C456.8,99.4,456.5,99.9,456.1,100.2L456.1,100.2z"/>
<path class="st1" d="M445.9,21.3c0.2,0,0.3,0,0.4,0s0.2,0,0.3-0.1V18c-0.1-0.1-0.2-0.1-0.4-0.2s-0.4-0.1-0.5-0.1
	c-0.8,0-1.2,0.6-1.2,1.7c0,0.5,0.1,1,0.4,1.3C445,21.1,445.4,21.3,445.9,21.3L445.9,21.3z M410.9,18.5c-0.1-0.1-0.1-0.3-0.2-0.4
	s-0.2-0.2-0.4-0.3c-0.1-0.1-0.3-0.1-0.5-0.1c-0.2,0-0.4,0-0.5,0.1s-0.3,0.2-0.4,0.3c-0.1,0.1-0.2,0.2-0.2,0.4
	c-0.1,0.1-0.1,0.3-0.1,0.4h2.3C411,18.8,411,18.6,410.9,18.5L410.9,18.5z M439.8,18.5c-0.1-0.1-0.1-0.3-0.2-0.4
	c-0.1-0.1-0.2-0.2-0.4-0.3c-0.1-0.1-0.3-0.1-0.5-0.1s-0.4,0-0.5,0.1s-0.3,0.2-0.4,0.3c-0.1,0.1-0.2,0.2-0.2,0.4
	c-0.1,0.1-0.1,0.3-0.1,0.4h2.3C439.9,18.8,439.9,18.6,439.8,18.5L439.8,18.5z"/>
<path class="st0" d="M402,21.9c0.3,0.3,0.6,0.5,1,0.7c0.4,0.2,0.9,0.2,1.5,0.2c0.4,0,0.7,0,1-0.1c0.3-0.1,0.6-0.1,0.8-0.2l-0.2-1.4
	c-0.2,0.1-0.4,0.2-0.7,0.2c-0.2,0-0.5,0.1-0.7,0.1c-0.6,0-1-0.2-1.3-0.5c-0.2-0.3-0.4-0.7-0.4-1.3c0-0.5,0.1-0.9,0.4-1.3
	c0.2-0.3,0.6-0.5,1.2-0.5c0.2,0,0.5,0,0.7,0.1c0.2,0.1,0.4,0.1,0.5,0.2l0.4-1.4c-0.3-0.1-0.5-0.2-0.8-0.2c-0.3-0.1-0.6-0.1-0.9-0.1
	c-0.5,0-0.9,0.1-1.3,0.3c-0.4,0.2-0.7,0.4-1,0.7c-0.3,0.3-0.5,0.6-0.6,1.1c-0.1,0.4-0.2,0.8-0.2,1.3s0.1,0.9,0.2,1.3
	C401.6,21.2,401.8,21.6,402,21.9L402,21.9z M407.7,21.9c0.3,0.3,0.6,0.5,1,0.7s0.9,0.2,1.5,0.2c0.2,0,0.4,0,0.7,0
	c0.2,0,0.4-0.1,0.6-0.1c0.2,0,0.4-0.1,0.5-0.1c0.2-0.1,0.3-0.1,0.4-0.1l-0.3-1.5c-0.2,0.1-0.5,0.2-0.8,0.2c-0.3,0.1-0.6,0.1-0.9,0.1
	c-0.5,0-0.9-0.1-1.2-0.3c-0.3-0.2-0.5-0.5-0.5-0.9h4c0-0.1,0-0.2,0-0.3v-0.3c0-1.1-0.2-1.8-0.8-2.4c-0.5-0.5-1.2-0.8-2.1-0.8
	c-0.4,0-0.8,0.1-1.1,0.2c-0.4,0.1-0.7,0.4-0.9,0.6c-0.3,0.3-0.5,0.6-0.7,1c-0.2,0.4-0.2,0.9-0.2,1.5c0,0.5,0.1,0.9,0.2,1.3
	C407.2,21.2,407.4,21.6,407.7,21.9z M408.8,18.5c0.1-0.1,0.1-0.3,0.2-0.4c0.1-0.1,0.2-0.2,0.4-0.3c0.1-0.1,0.3-0.1,0.5-0.1
	c0.2,0,0.4,0,0.5,0.1c0.1,0.1,0.2,0.2,0.4,0.3c0.1,0.1,0.2,0.2,0.2,0.4c0.1,0.1,0.1,0.3,0.1,0.4h-2.3
	C408.7,18.8,408.8,18.6,408.8,18.5L408.8,18.5z M415.8,17.9c0.1,0,0.2-0.1,0.4-0.1c0.2,0,0.3,0,0.4,0c0.2,0,0.5,0,0.7,0.1
	s0.4,0.1,0.6,0.1l0.3-1.5c-0.1,0-0.2-0.1-0.4-0.1l-0.4-0.1c-0.1,0-0.3,0-0.4-0.1c-0.1,0-0.2,0-0.4,0c-0.5,0-1,0.1-1.4,0.1
	c-0.4,0.1-0.8,0.2-1.1,0.3v5.9h1.8C415.8,22.6,415.8,17.9,415.8,17.9z M419.5,22c0.2,0.2,0.4,0.4,0.8,0.5s0.7,0.2,1.2,0.2
	c0.4,0,0.7,0,1-0.1c0.3-0.1,0.5-0.1,0.7-0.2L423,21c-0.2,0.1-0.4,0.1-0.5,0.1c-0.2,0-0.4,0.1-0.6,0.1c-0.4,0-0.6-0.1-0.8-0.3
	c-0.1-0.2-0.2-0.5-0.2-0.9v-2.2h2.1v-1.5h-2.1v-1.8l-1.8,0.3V20c0,0.4,0,0.8,0.1,1.1C419.2,21.5,419.3,21.8,419.5,22L419.5,22z
	 M424.3,16.4h1.8v6.2h-1.8V16.4z M425.1,15.7c0.3,0,0.5-0.1,0.7-0.3s0.3-0.4,0.3-0.8c0-0.3-0.1-0.6-0.3-0.8s-0.5-0.3-0.7-0.3
	c-0.3,0-0.5,0.1-0.7,0.3c-0.2,0.2-0.3,0.4-0.3,0.8s0.1,0.6,0.3,0.8C424.6,15.6,424.9,15.7,425.1,15.7z M433.5,15.7
	c0.3,0,0.5-0.1,0.7-0.3s0.3-0.4,0.3-0.8c0-0.3-0.1-0.6-0.3-0.8s-0.5-0.3-0.7-0.3c-0.2,0-0.5,0.1-0.7,0.3c-0.2,0.2-0.3,0.4-0.3,0.8
	s0.1,0.6,0.3,0.8C433,15.6,433.2,15.7,433.5,15.7z M432.6,16.4h1.8v6.2h-1.8V16.4z M429.5,17.9h2.2v-1.5h-2.2v-0.3
	c0-0.2,0-0.3,0.1-0.5c0-0.1,0.1-0.3,0.2-0.4c0.1-0.1,0.2-0.2,0.4-0.2c0,0,0.2,0,0.4,0c0.2,0,0.3,0,0.5,0c0.2,0,0.3,0.1,0.4,0.1
	l0.3-1.4c-0.2-0.1-0.3-0.1-0.5-0.2c-0.2-0.1-0.5-0.1-0.8-0.1c-0.9,0-1.6,0.2-2,0.7c-0.5,0.5-0.7,1.1-0.7,1.9v6.5h1.8L429.5,17.9
	L429.5,17.9z M436.6,21.9c0.3,0.3,0.6,0.5,1,0.7c0.4,0.2,0.9,0.2,1.5,0.2c0.2,0,0.4,0,0.7,0c0.2,0,0.4-0.1,0.6-0.1
	c0.2,0,0.4-0.1,0.5-0.1c0.2-0.1,0.3-0.1,0.4-0.1L441,21c-0.2,0.1-0.5,0.2-0.8,0.2c-0.3,0.1-0.6,0.1-0.9,0.1c-0.5,0-0.9-0.1-1.2-0.3
	c-0.3-0.2-0.5-0.5-0.5-0.9h4c0-0.1,0-0.2,0-0.3v-0.3c0-1.1-0.3-1.8-0.8-2.4c-0.5-0.5-1.2-0.8-2.1-0.8c-0.4,0-0.8,0.1-1.1,0.2
	c-0.3,0.1-0.7,0.4-0.9,0.6c-0.3,0.3-0.5,0.6-0.7,1c-0.2,0.4-0.2,0.9-0.2,1.5c0,0.5,0.1,0.9,0.2,1.3
	C436.1,21.2,436.3,21.6,436.6,21.9z M437.7,18.5c0.1-0.1,0.1-0.3,0.2-0.4c0.1-0.1,0.2-0.2,0.4-0.3c0.1-0.1,0.3-0.1,0.5-0.1
	s0.4,0,0.5,0.1s0.2,0.2,0.4,0.3c0.1,0.1,0.2,0.2,0.2,0.4c0.1,0.1,0.1,0.3,0.1,0.4h-2.3C437.6,18.8,437.6,18.6,437.7,18.5L437.7,18.5
	z M443.5,21.9c0.3,0.3,0.6,0.5,1,0.6c0.4,0.2,0.9,0.2,1.4,0.2c0.2,0,0.4,0,0.7,0c0.2,0,0.5-0.1,0.7-0.1c0.2,0,0.4-0.1,0.6-0.1
	c0.2-0.1,0.4-0.1,0.5-0.1v-9l-1.8,0.3v2.8c-0.2-0.1-0.4-0.2-0.6-0.2c-0.2-0.1-0.4-0.1-0.6-0.1c-0.4,0-0.8,0.1-1.2,0.2
	c-0.4,0.2-0.6,0.4-0.9,0.6c-0.2,0.3-0.4,0.6-0.5,1c-0.1,0.4-0.2,0.9-0.2,1.4s0.1,0.9,0.2,1.3C442.9,21.1,443.2,21.6,443.5,21.9
	L443.5,21.9z M445.7,17.8c0.2,0,0.4,0,0.5,0.1c0.2,0.1,0.3,0.1,0.4,0.2v3.2c-0.1,0-0.2,0-0.3,0.1c-0.1,0-0.3,0-0.4,0
	c-0.5,0-0.8-0.2-1.1-0.5c-0.2-0.3-0.4-0.8-0.4-1.3C444.5,18.3,444.9,17.8,445.7,17.8L445.7,17.8z"/>
<path class="st1" d="M431.2,73.2L431.2,73.2L431.2,73.2z M433.4,71c0.8-0.9,1.3-2,1.7-3.1l-5.5-0.9c-0.1,0-0.1,0-0.2,0
	s-0.2,0-0.4,0.1c-0.5,0.2-0.6,0.8-0.5,1.2l2.1,5.2C431.8,72.8,432.7,72,433.4,71L433.4,71z M418.9,73.4l2.1-5.1l0,0
	c0.1-0.2,0.1-0.4,0.1-0.6c-0.1-0.4-0.5-0.7-0.9-0.7c-0.1,0-0.1,0-0.2,0l-5.5,0.9c0.4,1.1,1,2.2,1.8,3.2
	C417,72,417.9,72.8,418.9,73.4L418.9,73.4z M417.2,56.3l4.6,3.2c0.2,0.1,0.4,0.2,0.5,0.2c0.5,0,0.9-0.4,0.9-0.9l0,0l0.3-5.5
	c-0.4,0.1-0.8,0.1-1.1,0.2C420.4,53.9,418.6,54.9,417.2,56.3L417.2,56.3z M429.6,54.3c-1.1-0.5-2.2-0.9-3.4-1l0.3,5.5
	c0,0.2,0.1,0.4,0.2,0.5c0.3,0.4,0.9,0.5,1.3,0.2l0,0l4.5-3.2C431.7,55.5,430.7,54.8,429.6,54.3L429.6,54.3z M429.8,62.6
	c-0.1,0.5,0.2,1,0.6,1.1l0,0l5.4,1.5c0.1-1.2,0-2.4-0.2-3.5c-0.3-1.2-0.7-2.3-1.3-3.3l-4.1,3.7C429.9,62.3,429.8,62.4,429.8,62.6
	L429.8,62.6z M427.3,74.9c0.4-0.1,0.7-0.2,1.1-0.3l-2.7-4.8l0,0c-0.1-0.2-0.2-0.3-0.4-0.4c-0.1-0.1-0.3-0.1-0.4-0.1l0,0
	c-0.3,0-0.6,0.2-0.8,0.5l-2.7,4.8C423.3,75.2,425.3,75.3,427.3,74.9z M433.2,71.4L433.2,71.4L433.2,71.4z M415.5,58.4
	c-0.6,1-1.1,2.1-1.3,3.3c-0.3,1.2-0.4,2.4-0.2,3.6l5.3-1.5l0,0c0.2-0.1,0.4-0.2,0.5-0.3c0.3-0.4,0.3-0.9-0.1-1.3l0,0L415.5,58.4z
	 M424,62.4l-1.1,1.3l0.4,1.6l1.5,0.8l1.5-0.8l0.4-1.6l-1.1-1.3C425.6,62.4,424,62.4,424,62.4z"/>
<path class="st1" d="M434.7,88c1,0,2-0.5,2.6-1.3l12.3-15.2c0.6-0.8,0.9-1.9,0.6-2.9l-4.4-19c-0.2-1-0.9-1.8-1.8-2.3l-17.7-8.5
	c-0.5-0.2-1.1-0.4-1.6-0.3c-0.5,0-0.9,0.1-1.3,0.3l-17.7,8.5c-0.9,0.4-1.6,1.3-1.8,2.3l-4.4,19c-0.2,0.9,0,1.8,0.5,2.6
	c0.1,0.1,0.1,0.2,0.2,0.3l12.2,15.3c0.6,0.8,1.6,1.3,2.6,1.3L434.7,88L434.7,88z M417.7,76.5l0.2-0.5c-2.9-1.7-5.1-4.4-6.1-7.6
	l-0.5,0.1c0,0,0,0-0.1,0c-0.1-0.1-0.4-0.2-0.6-0.2c-0.6,0.1-1.1,0.3-1.8,0.5l0,0c-0.1,0.1-0.2,0.1-0.3,0.1c-0.2,0.1-0.4,0.2-0.6,0.2
	c-0.1,0-0.1,0-0.2,0.1h-0.1c-0.6,0.1-1.2-0.2-1.4-0.8c-0.1-0.6,0.3-1.2,0.9-1.3h0.1c0.1,0,0.1,0,0.2-0.1c0.2-0.1,0.5-0.1,0.7-0.1
	c0.1,0,0.2,0,0.4,0l0,0c0.7-0.1,1.3-0.1,1.9-0.3c0.2-0.1,0.3-0.2,0.4-0.4l0.1-0.1l0.4-0.1c-0.5-3.3,0.3-6.7,2.2-9.6l-0.3-0.3V56
	c0-0.2-0.1-0.4-0.2-0.6c-0.4-0.4-0.9-0.7-1.6-1.1c-0.1-0.1-0.2-0.1-0.3-0.2c-0.2-0.1-0.4-0.2-0.6-0.4c-0.1,0-0.1-0.1-0.2-0.1
	c0,0-0.1,0-0.1-0.1c-0.2-0.2-0.4-0.5-0.5-0.8c-0.1-0.3,0-0.6,0.2-0.8s0.5-0.4,0.8-0.4l0,0c0.3,0,0.5,0.1,0.8,0.3c0,0,0.1,0,0.1,0.1
	c0.1,0.1,0.1,0.1,0.2,0.1c0.2,0.2,0.3,0.3,0.5,0.5c0.1,0.1,0.1,0.2,0.2,0.2l0,0c0.5,0.5,0.9,0.9,1.4,1.3c0.2,0.1,0.4,0.1,0.5,0.1
	h0.1c0.1,0.1,0.3,0.2,0.4,0.3c1.9-2,4.3-3.3,6.9-4c0.6-0.1,1.3-0.2,1.9-0.3v-0.4c0.1-0.1,0.3-0.3,0.4-0.5c0.1-0.6,0-1.2-0.1-1.9l0,0
	c0-0.1,0-0.2-0.1-0.3c-0.1-0.2-0.1-0.4-0.1-0.7V46c0-0.6,0.5-1.2,1.1-1.2c0.6,0,1.1,0.5,1.1,1.2v0.3c0,0.2-0.1,0.5-0.1,0.7
	c0,0.1-0.1,0.2-0.1,0.3v0.1c-0.1,0.7-0.2,1.3-0.1,1.9c0,0.2,0.2,0.4,0.3,0.5l0.1,0.1c0,0.1,0,0.3,0,0.5c1.7,0.2,3.3,0.6,4.8,1.3
	s2.9,1.7,4,2.9l0.4-0.3h0.1c0.2,0,0.4,0,0.6-0.1c0.5-0.3,0.9-0.8,1.4-1.3l0,0c0.1-0.1,0.2-0.2,0.2-0.2c0.1-0.2,0.3-0.3,0.5-0.5
	c0.1,0,0.1-0.1,0.2-0.1c0,0,0.1,0,0.1-0.1c0.5-0.4,1.2-0.4,1.6,0.1s0.2,1.2-0.3,1.6c0,0-0.1,0-0.1,0.1c-0.2,0.1-0.2,0.1-0.3,0.2
	c-0.2,0.1-0.4,0.2-0.6,0.4c-0.1,0.1-0.2,0.1-0.3,0.2c-0.6,0.4-1.2,0.7-1.6,1.1c-0.2,0.2-0.2,0.4-0.2,0.5v0.1c0,0-0.1,0.1-0.2,0.1
	c-0.1,0.1-0.2,0.1-0.2,0.2c0.9,1.4,1.6,2.9,2,4.6c0.4,1.6,0.5,3.3,0.2,5l0.4,0.1c0,0,0,0,0,0.1c0.1,0.1,0.2,0.4,0.4,0.4
	c0.5,0.2,1.2,0.2,1.9,0.3l0,0c0.1,0,0.2,0,0.4,0c0.2,0,0.4,0,0.7,0.1c0.1,0,0.1,0,0.2,0.1c0.1,0,0.1,0,0.1,0c0.6,0.2,1,0.7,0.9,1.3
	c-0.1,0.6-0.8,0.9-1.4,0.8h-0.1c0,0-0.1,0-0.2,0c-0.2-0.1-0.4-0.1-0.6-0.2c-0.1-0.1-0.2-0.1-0.3-0.1l0,0c-0.7-0.2-1.3-0.5-1.8-0.5
	h-0.1c-0.2,0-0.3,0.1-0.5,0.2c0,0-0.1,0-0.1,0.1c-0.1,0-0.3-0.1-0.5-0.1c-0.5,1.6-1.3,3.1-2.3,4.4s-2.3,2.4-3.8,3.3
	c0,0,0,0.1,0.1,0.1c0.1,0.1,0.1,0.2,0.1,0.3V77c-0.1,0.2-0.1,0.3-0.1,0.5c0.2,0.5,0.5,1.1,0.9,1.7c0.1,0.1,0.1,0.2,0.2,0.3
	c0.1,0.2,0.2,0.4,0.4,0.6c0,0.1,0.1,0.1,0.1,0.2c0,0,0,0.1,0.1,0.1c0.3,0.6,0.1,1.3-0.5,1.5c-0.3,0.1-0.6,0.1-0.8,0
	c-0.3-0.1-0.5-0.3-0.6-0.6v-0.1c0-0.1-0.1-0.1-0.1-0.2c-0.1-0.2-0.2-0.4-0.2-0.6c0-0.1-0.1-0.2-0.1-0.3l0,0
	c-0.2-0.7-0.4-1.3-0.7-1.8c-0.1-0.2-0.3-0.2-0.5-0.3h-0.1c0,0-0.1-0.1-0.1-0.2c-0.1-0.1-0.1-0.2-0.1-0.2c-0.6,0.2-1.2,0.4-1.8,0.5
	c-2.7,0.6-5.4,0.4-8-0.6l-0.2,0.4c-0.2,0.1-0.4,0.1-0.5,0.2c-0.3,0.3-0.4,0.8-0.6,1.3c-0.1,0.2-0.1,0.4-0.2,0.6
	c0,0.1-0.1,0.2-0.1,0.3c-0.1,0.2-0.1,0.4-0.2,0.6c0,0.1-0.1,0.1-0.1,0.2c0,0,0,0.1-0.1,0.1c-0.2,0.4-0.6,0.7-1.1,0.7
	c-0.1,0-0.3,0-0.4-0.1c-0.5-0.2-0.7-0.9-0.5-1.5c0,0,0-0.1,0.1-0.1c0.1,0,0.1-0.1,0.1-0.2c0.1-0.2,0.2-0.4,0.4-0.6
	c0.1-0.1,0.1-0.2,0.2-0.3c0.4-0.6,0.8-1.2,1-1.7C417.8,76.9,417.7,76.6,417.7,76.5L417.7,76.5z"/>
<path class="st0" d="M416.8,78.8c-0.1,0.1-0.1,0.2-0.2,0.3c-0.1,0.2-0.2,0.4-0.4,0.6c0,0.1-0.1,0.1-0.1,0.2c0,0,0,0.1-0.1,0.1
	c-0.3,0.6-0.1,1.3,0.5,1.5c0.1,0.1,0.3,0.1,0.4,0.1c0.4,0,0.8-0.3,1.1-0.7c0,0,0-0.1,0.1-0.1c0-0.1,0.1-0.1,0.1-0.2
	c0.1-0.2,0.2-0.4,0.2-0.6c0-0.1,0.1-0.2,0.1-0.3c0.1-0.2,0.2-0.4,0.2-0.6c0.2-0.5,0.3-0.9,0.6-1.3c0.1-0.1,0.3-0.2,0.5-0.2l0.2-0.4
	c2.6,1,5.3,1.2,8,0.6c0.6-0.1,1.2-0.3,1.8-0.5c0,0.1,0.1,0.1,0.1,0.2c0.1,0.1,0.1,0.2,0.1,0.2h0.1c0.2,0.1,0.3,0.1,0.5,0.3
	c0.3,0.5,0.5,1.1,0.7,1.8l0,0c0,0.1,0.1,0.2,0.1,0.3c0.1,0.2,0.1,0.4,0.2,0.6c0,0.1,0.1,0.1,0.1,0.2V81c0.1,0.3,0.4,0.5,0.6,0.6
	c0.3,0.1,0.6,0.1,0.8,0c0.5-0.2,0.7-0.9,0.5-1.5c0,0,0-0.1-0.1-0.1c0-0.1-0.1-0.1-0.1-0.2c-0.1-0.2-0.2-0.4-0.4-0.6
	c-0.1-0.1-0.1-0.2-0.2-0.3c-0.4-0.6-0.7-1.2-0.9-1.7c-0.1-0.2,0-0.4,0.1-0.5v-0.1c0,0-0.1-0.2-0.1-0.3c0-0.1,0-0.1-0.1-0.1
	c1.5-0.9,2.7-2,3.8-3.3s1.8-2.8,2.3-4.4c0.1,0,0.4,0.1,0.5,0.1c0,0,0.1,0,0.1-0.1c0.1-0.1,0.2-0.2,0.5-0.2h0.1
	c0.6,0.1,1.1,0.3,1.8,0.5l0,0c0.1,0.1,0.2,0.1,0.3,0.1c0.2,0.1,0.4,0.2,0.6,0.2c0.1,0,0.1,0,0.2,0h0.1c0.6,0.1,1.2-0.2,1.4-0.8
	s-0.3-1.2-0.9-1.3h-0.1c-0.1,0-0.1,0-0.2-0.1c-0.3,0.1-0.5,0.1-0.8,0.1c-0.1,0-0.2,0-0.4,0l0,0c-0.7-0.1-1.3-0.1-1.9-0.3
	c-0.2-0.1-0.4-0.3-0.4-0.4c0,0,0,0,0-0.1l-0.4-0.1c0.2-1.6,0.2-3.3-0.2-5c-0.4-1.6-1.1-3.2-2-4.6c0.1-0.1,0.1-0.1,0.2-0.2
	s0.1-0.1,0.2-0.1v-0.1c0-0.2,0-0.4,0.2-0.5c0.4-0.4,0.9-0.7,1.6-1.1c0.1-0.1,0.2-0.1,0.3-0.2c0.2-0.1,0.4-0.2,0.6-0.4
	c0.1,0,0.1-0.1,0.2-0.1l0.1-0.1c0.5-0.4,0.6-1.1,0.3-1.6c-0.4-0.5-1.1-0.5-1.6-0.1c0,0-0.1,0-0.1,0.1c-0.1,0.1-0.1,0.1-0.2,0.1
	c-0.2,0.2-0.3,0.3-0.5,0.5c-0.1,0.1-0.1,0.2-0.2,0.2l0,0c-0.5,0.5-0.9,0.9-1.4,1.3c-0.2,0.1-0.4,0.1-0.6,0.1h-0.1l-0.4,0.3
	c-1.2-1.2-2.5-2.2-4-2.9s-3.1-1.2-4.8-1.3c0-0.1,0-0.4,0-0.5l-0.2,0.1c-0.1-0.1-0.2-0.2-0.3-0.5c-0.1-0.6,0-1.2,0.1-1.9v-0.1
	c0-0.1,0-0.2,0.1-0.3c0.1-0.2,0.1-0.4,0.1-0.7v-0.3c0-0.6-0.5-1.2-1.1-1.2s-1.1,0.5-1.1,1.2v0.3c0,0.2,0.1,0.5,0.1,0.7
	c0,0.1,0.1,0.2,0.1,0.3l0,0c0.1,0.7,0.2,1.3,0.1,1.9c-0.1,0.2-0.2,0.4-0.4,0.5v0.4c-0.6,0.1-1.3,0.2-1.9,0.3c-2.7,0.6-5.1,2-6.9,4
	c-0.1-0.1-0.3-0.2-0.4-0.3h-0.1c-0.2,0-0.3,0.1-0.5-0.1c-0.5-0.3-0.9-0.8-1.4-1.3l0,0c-0.1-0.1-0.2-0.2-0.2-0.2
	c-0.1-0.2-0.3-0.3-0.5-0.5c-0.1-0.1-0.1-0.1-0.2-0.1c0,0-0.1,0-0.1-0.1c-0.2-0.2-0.5-0.3-0.8-0.3l0,0c-0.3,0-0.6,0.1-0.8,0.4
	c-0.2,0.2-0.2,0.5-0.2,0.8c0.1,0.3,0.2,0.6,0.5,0.8c0,0,0.1,0,0.1,0.1c0.1,0.1,0.1,0.1,0.2,0.1c0.2,0.1,0.4,0.2,0.6,0.4
	c0.1,0.1,0.2,0.1,0.3,0.2c0.6,0.4,1.2,0.7,1.6,1.1c0.1,0.2,0.2,0.4,0.2,0.6v0.1l0.3,0.3c-1.9,2.8-2.6,6.2-2.2,9.6l-0.4,0.1l-0.1,0.1
	c-0.1,0.2-0.3,0.4-0.4,0.4c-0.5,0.2-1.2,0.2-1.9,0.3l0,0c-0.1,0-0.2,0-0.4,0c-0.2,0-0.4,0-0.7,0.1c-0.1,0-0.1,0-0.2,0.1h-0.1
	c-0.6,0.2-1,0.7-0.9,1.3c0.1,0.6,0.8,0.9,1.4,0.8h0.1c0.1,0,0.1,0,0.2-0.1c0.2-0.1,0.4-0.1,0.6-0.2c0.1-0.1,0.2-0.1,0.3-0.1l0,0
	c0.7-0.2,1.3-0.5,1.8-0.5c0.2,0,0.4,0.1,0.6,0.2c0,0,0,0,0.1,0l0.5-0.1c1,3.2,3.2,5.9,6.1,7.6l-0.2,0.5c0.1,0.2,0.1,0.4,0.1,0.6
	C417.6,77.6,417.2,78.1,416.8,78.8L416.8,78.8z M419.6,62.1c0.4,0.3,0.4,0.9,0.1,1.3c-0.1,0.2-0.3,0.3-0.5,0.3l0,0l-5.3,1.5
	c-0.1-1.2-0.1-2.4,0.2-3.6c0.3-1.2,0.7-2.3,1.3-3.3L419.6,62.1z M420,67h0.2c0.4,0,0.8,0.3,0.9,0.7c0.1,0.2,0,0.4-0.1,0.6l0,0
	l-2.1,5.1c-1-0.6-1.9-1.4-2.6-2.3c-0.8-0.9-1.3-2-1.8-3.2L420,67L420,67z M428,59.5c-0.4,0.3-1,0.2-1.3-0.2
	c-0.1-0.2-0.2-0.4-0.2-0.5l-0.3-5.5c1.2,0.1,2.3,0.5,3.4,1s2,1.2,2.9,2L428,59.5L428,59.5z M423.2,58.8c-0.1,0.5-0.5,0.9-0.9,0.9
	c-0.2,0-0.4-0.1-0.5-0.2l-4.6-3.2c1.5-1.4,3.3-2.4,5.3-2.9c0.4-0.1,0.7-0.1,1.1-0.2L423.2,58.8L423.2,58.8z M424,69.7
	c0.2-0.3,0.5-0.5,0.8-0.5l0,0c0.1,0,0.3,0,0.4,0.1c0.2,0.1,0.3,0.2,0.4,0.4l0,0l2.7,4.8c-0.4,0.1-0.7,0.2-1.1,0.3
	c-2,0.5-4,0.4-6-0.3L424,69.7L424,69.7z M426.4,65.4l-1.5,0.7l-1.5-0.7l-0.4-1.6l1.1-1.3h1.7l1.1,1.3L426.4,65.4z M428.7,68.3
	c-0.2-0.5,0-1,0.5-1.2c0-0.1,0.2-0.1,0.3-0.1c0.1,0,0.1,0,0.2,0l5.5,0.9c-0.4,1.1-1,2.2-1.7,3.1c-0.8,0.9-1.6,1.8-2.7,2.4
	L428.7,68.3L428.7,68.3z M433.2,71.4L433.2,71.4L433.2,71.4z M430.1,62.1l4.1-3.7c0.6,1,1.1,2.2,1.3,3.3c0.2,1.1,0.4,2.4,0.2,3.5
	l-5.3-1.5l0,0c-0.5-0.1-0.8-0.6-0.6-1.1C429.8,62.4,429.9,62.3,430.1,62.1L430.1,62.1z M431.2,73.2L431.2,73.2L431.2,73.2z"/>
<path class="st2" d="M397.8,98.7c-0.2-0.3-0.5-0.6-0.8-0.9c-0.3-0.3-0.5-0.6-0.8-0.8c0.5-0.5,0.9-0.9,1.3-1.4
	c0.4-0.5,0.8-0.9,1.2-1.4h-2.1c-0.1,0.1-0.2,0.3-0.4,0.5s-0.3,0.4-0.5,0.6s-0.4,0.4-0.5,0.6s-0.4,0.4-0.5,0.6v-5.3l-1.8,0.3v9h1.8
	v-2.7c0.2,0.2,0.4,0.4,0.6,0.6s0.4,0.5,0.6,0.7c0.2,0.2,0.4,0.5,0.5,0.8c0.2,0.2,0.3,0.5,0.4,0.7h2c-0.1-0.3-0.3-0.6-0.5-0.9
	C398.2,99.4,398,99,397.8,98.7z M403.3,99.1c-0.1,0-0.2,0-0.4,0.1h-0.4c-0.4,0-0.7-0.1-0.9-0.4c-0.2-0.2-0.2-0.7-0.2-1.2v-3.3h-1.8
	v3.5c0,0.4,0.1,0.8,0.1,1.2c0.1,0.4,0.2,0.7,0.4,0.9c0.2,0.3,0.5,0.5,0.8,0.6c0.4,0.1,0.8,0.2,1.3,0.2s1,0,1.5-0.1s0.9-0.2,1.2-0.2
	v-6.1h-1.5L403.3,99.1L403.3,99.1z M412,95c-0.2-0.3-0.5-0.5-0.9-0.6c-0.4-0.2-0.7-0.2-1.2-0.2c-0.2,0-0.5,0-0.7,0.1
	s-0.4,0.1-0.6,0.2v-3.2l-1.8,0.3v8.8c0.2,0.1,0.4,0.1,0.5,0.1c0.2,0,0.4,0.1,0.6,0.1c0.2,0,0.5,0.1,0.7,0.1c0.2,0,0.5,0,0.7,0
	c0.5,0,1-0.1,1.4-0.2c0.4-0.2,0.8-0.4,1-0.7c0.3-0.3,0.5-0.6,0.6-1.1c0.2-0.4,0.2-0.9,0.2-1.4s-0.1-0.9-0.2-1.3
	C412.4,95.6,412.2,95.3,412,95z M410.5,98.7c-0.2,0.3-0.6,0.5-1.1,0.5H409c-0.1,0-0.2,0-0.3-0.1v-3.3c0.1-0.1,0.3-0.1,0.4-0.2
	c0.2-0.1,0.4-0.1,0.5-0.1c0.8,0,1.3,0.6,1.3,1.7C410.9,97.9,410.7,98.4,410.5,98.7L410.5,98.7z M416.8,94.1c-0.4,0-0.8,0.1-1.1,0.2
	c-0.4,0.1-0.7,0.4-1,0.6c-0.3,0.3-0.5,0.6-0.7,1.1c-0.2,0.4-0.2,0.9-0.2,1.5c0,0.5,0.1,0.9,0.2,1.3c0.1,0.4,0.4,0.8,0.6,1.1
	c0.3,0.3,0.6,0.5,1.1,0.7c0.4,0.2,0.9,0.2,1.5,0.2c0.2,0,0.5,0,0.7,0c0.2,0,0.4-0.1,0.6-0.1c0.2,0,0.4-0.1,0.5-0.1
	c0.2-0.1,0.3-0.1,0.4-0.1l-0.2-1.5c-0.2,0.1-0.5,0.2-0.8,0.2c-0.3,0.1-0.6,0.1-1,0.1c-0.5,0-0.9-0.1-1.2-0.3
	c-0.3-0.2-0.5-0.5-0.5-0.9h4.1c0-0.1,0-0.2,0-0.3v-0.4c0-1.1-0.3-1.9-0.8-2.4C418.4,94.4,417.7,94.1,416.8,94.1L416.8,94.1z
	 M415.6,96.8c0-0.2,0.1-0.3,0.1-0.4c0.1-0.2,0.1-0.3,0.2-0.4c0.1-0.1,0.2-0.2,0.4-0.3s0.3-0.1,0.5-0.1s0.4,0,0.5,0.1
	s0.3,0.2,0.4,0.3c0.1,0.1,0.2,0.2,0.2,0.4c0.1,0.1,0.1,0.3,0.1,0.4H415.6L415.6,96.8z M424.4,94.2c-0.1,0-0.3,0-0.4-0.1
	c-0.1,0-0.2,0-0.4,0c-0.5,0-1,0.1-1.5,0.2c-0.4,0.1-0.8,0.2-1.1,0.3v6h1.8v-4.8c0.1,0,0.2-0.1,0.4-0.1s0.3,0,0.4,0
	c0.2,0,0.5,0,0.7,0.1c0.2,0,0.4,0.1,0.6,0.1l0.3-1.5c-0.1,0-0.2-0.1-0.4-0.1C424.7,94.2,424.5,94.2,424.4,94.2L424.4,94.2z
	 M431,94.9c-0.2-0.3-0.5-0.5-0.9-0.6s-0.8-0.2-1.3-0.2s-1,0-1.5,0.1s-0.9,0.2-1.2,0.2v6.1h1.8v-4.8c0.1,0,0.2,0,0.4,0
	c0.1,0,0.3,0,0.4,0c0.4,0,0.7,0.1,0.9,0.4c0.2,0.2,0.2,0.6,0.2,1.2v3.3h1.8V97c0-0.4-0.1-0.8-0.1-1.2
	C431.3,95.5,431.2,95.2,431,94.9L431,94.9z M435.9,94.1c-0.4,0-0.8,0.1-1.1,0.2c-0.4,0.1-0.7,0.4-1,0.6c-0.3,0.3-0.5,0.6-0.7,1.1
	c-0.2,0.4-0.2,0.9-0.2,1.5c0,0.5,0.1,0.9,0.2,1.3s0.4,0.8,0.6,1.1c0.3,0.3,0.6,0.5,1.1,0.7c0.4,0.2,0.9,0.2,1.5,0.2
	c0.2,0,0.5,0,0.7,0c0.2,0,0.4-0.1,0.6-0.1c0.2,0,0.4-0.1,0.5-0.1c0.2-0.1,0.3-0.1,0.4-0.1l-0.2-1.5c-0.3,0-0.5,0-0.9,0.1
	c-0.3,0.1-0.6,0.1-1,0.1c-0.5,0-0.9-0.1-1.2-0.3c-0.3-0.2-0.5-0.5-0.5-0.9h4.1c0-0.1,0-0.2,0-0.3v-0.4c0-1.1-0.3-1.9-0.8-2.4
	C437.5,94.4,436.8,94.1,435.9,94.1L435.9,94.1z M434.7,96.8c0-0.2,0.1-0.3,0.1-0.4c0.1-0.2,0.1-0.3,0.2-0.4c0.1-0.1,0.2-0.2,0.4-0.3
	c0.1-0.1,0.3-0.1,0.5-0.1c0.2,0,0.4,0,0.5,0.1c0.1,0.1,0.3,0.2,0.4,0.3c0.1,0.1,0.2,0.2,0.2,0.4s0.1,0.3,0.1,0.4H434.7L434.7,96.8z
	 M443.5,99.1c-0.2,0-0.4,0.1-0.6,0.1c-0.4,0-0.7-0.1-0.8-0.3c-0.1-0.2-0.2-0.5-0.2-0.9v-2.2h2.2v-1.5h-2.2v-1.9l-1.8,0.3V98
	c0,0.4,0,0.8,0.1,1.1c0.1,0.3,0.2,0.6,0.4,0.9c0.2,0.2,0.5,0.4,0.8,0.5c0.3,0.1,0.7,0.2,1.2,0.2c0.4,0,0.7,0,1-0.1
	c0.3-0.1,0.5-0.1,0.7-0.2l-0.2-1.4C443.9,99.1,443.7,99.1,443.5,99.1L443.5,99.1z M448,94.1c-0.4,0-0.8,0.1-1.1,0.2
	c-0.4,0.1-0.7,0.4-1,0.6c-0.3,0.3-0.5,0.6-0.7,1.1c-0.2,0.4-0.2,0.9-0.2,1.5c0,0.5,0.1,0.9,0.2,1.3s0.4,0.8,0.6,1.1
	c0.3,0.3,0.6,0.5,1.1,0.7c0.4,0.2,0.9,0.2,1.5,0.2c0.2,0,0.5,0,0.7,0c0.2,0,0.4-0.1,0.6-0.1c0.2,0,0.4-0.1,0.5-0.1
	c0.2-0.1,0.3-0.1,0.4-0.1l-0.2-1.5c-0.2,0.1-0.5,0.2-0.8,0.2c-0.3,0.1-0.6,0.1-1,0.1c-0.5,0-0.9-0.1-1.2-0.3
	c-0.3-0.2-0.5-0.5-0.5-0.9h4.1c0-0.1,0-0.2,0-0.3v-0.4c0-1.1-0.3-1.9-0.8-2.4C449.6,94.4,448.9,94.1,448,94.1L448,94.1z M446.8,96.8
	c0-0.2,0.1-0.3,0.1-0.4c0.1-0.2,0.1-0.3,0.2-0.4s0.2-0.2,0.4-0.3c0.2-0.1,0.3-0.1,0.5-0.1c0.2,0,0.4,0,0.5,0.1
	c0.1,0.1,0.3,0.2,0.4,0.3c0.1,0.1,0.2,0.2,0.2,0.4c0.1,0.1,0.1,0.3,0.1,0.4H446.8L446.8,96.8z M456.4,97.6c-0.1-0.2-0.4-0.3-0.6-0.5
	c-0.3-0.1-0.6-0.3-1-0.4c-0.2-0.1-0.4-0.1-0.5-0.2s-0.2-0.1-0.3-0.2c-0.1-0.1-0.1-0.1-0.1-0.2s0-0.1,0-0.2c0-0.3,0.3-0.5,0.8-0.5
	c0.3,0,0.6,0,0.8,0.1c0.2,0.1,0.5,0.1,0.7,0.2l0.3-1.4c-0.2-0.1-0.5-0.2-0.8-0.2c-0.4-0.1-0.7-0.1-1.1-0.1c-0.8,0-1.4,0.2-1.8,0.5
	c-0.4,0.4-0.6,0.8-0.6,1.4c0,0.3,0.1,0.6,0.1,0.8c0.1,0.2,0.2,0.4,0.4,0.6s0.4,0.3,0.6,0.4c0.2,0.1,0.5,0.2,0.8,0.3
	c0.4,0.1,0.6,0.3,0.8,0.4c0.2,0.1,0.3,0.2,0.3,0.4c0,0.2-0.1,0.3-0.2,0.4s-0.4,0.1-0.7,0.1c-0.3,0-0.6,0-0.9-0.1
	c-0.3-0.1-0.6-0.2-0.9-0.3l-0.3,1.5c0.1,0.1,0.4,0.1,0.8,0.2s0.8,0.1,1.4,0.1c0.9,0,1.5-0.2,2-0.5s0.7-0.8,0.7-1.4
	c0-0.3,0-0.5-0.1-0.7C456.6,97.9,456.5,97.7,456.4,97.6L456.4,97.6z"/>
<path class="st3" d="M388.2,28.1h72.9v82h-72.9V28.1z"/>
<path class="st1" d="M463.4,27.1v-6.9c0-6.8-5.5-12.3-12.3-12.3h-52.6c-6.7,0-12.3,5.5-12.3,12.3v92h77.2V27.1L463.4,27.1z
	 M442.7,18.3c0.1-0.4,0.3-0.8,0.5-1c0.2-0.3,0.5-0.5,0.9-0.6c0.4-0.2,0.7-0.2,1.2-0.2c0.2,0,0.5,0,0.6,0.1c0.2,0.1,0.4,0.1,0.6,0.2
	V14l1.8-0.3v9c-0.2,0.1-0.4,0.1-0.5,0.1c-0.2,0.1-0.4,0.1-0.6,0.1c-0.2,0-0.5,0.1-0.7,0.1c-0.2,0-0.5,0-0.7,0c-0.5,0-1-0.1-1.4-0.2
	c-0.4-0.2-0.7-0.4-1-0.6c-0.3-0.3-0.5-0.6-0.6-1s-0.2-0.8-0.2-1.3C442.5,19.1,442.6,18.7,442.7,18.3L442.7,18.3z M436,18.2
	c0.2-0.4,0.4-0.8,0.7-1c0.3-0.3,0.6-0.5,0.9-0.6c0.4-0.1,0.7-0.2,1.1-0.2c0.9,0,1.6,0.3,2.1,0.8s0.8,1.3,0.8,2.4v0.3
	c0,0.1,0,0.2,0,0.3h-4c0,0.4,0.2,0.6,0.5,0.9c0.3,0.2,0.7,0.3,1.2,0.3c0.3,0,0.6,0,0.9-0.1s0.6-0.1,0.8-0.2l0.2,1.4
	c-0.1,0.1-0.2,0.1-0.4,0.1c-0.2,0.1-0.3,0.1-0.5,0.1c-0.2,0-0.4,0.1-0.6,0.1s-0.4,0-0.7,0c-0.6,0-1.1-0.1-1.5-0.2
	c-0.4-0.2-0.8-0.4-1-0.7c-0.3-0.3-0.5-0.6-0.6-1c-0.1-0.4-0.2-0.8-0.2-1.3C435.7,19.1,435.8,18.6,436,18.2z M432.9,13.9
	c0.2-0.2,0.5-0.3,0.7-0.3c0.3,0,0.5,0.1,0.7,0.3s0.3,0.4,0.3,0.8c0,0.3-0.1,0.6-0.3,0.8s-0.5,0.3-0.7,0.3c-0.3,0-0.5-0.1-0.7-0.3
	c-0.2-0.2-0.3-0.4-0.3-0.8C432.6,14.4,432.7,14.1,432.9,13.9z M434.5,16.5v6.2h-1.8v-6.2H434.5z M427.8,16.2c0-0.8,0.2-1.4,0.7-1.9
	s1.1-0.7,2-0.7c0.3,0,0.6,0,0.8,0.1s0.4,0.1,0.5,0.2l-0.3,1.4c-0.1-0.1-0.3-0.1-0.4-0.1c-0.2,0-0.3,0-0.5,0c-0.2,0-0.4,0-0.5,0.1
	c-0.1,0.1-0.3,0.1-0.4,0.2c-0.1,0.1-0.1,0.2-0.2,0.4c0,0.1-0.1,0.3-0.1,0.5v0.3h2.2V18h-2.2v4.7h-1.8L427.8,16.2L427.8,16.2z
	 M424.6,13.9c0.2-0.2,0.5-0.3,0.7-0.3c0.3,0,0.5,0.1,0.7,0.3c0.2,0.2,0.3,0.4,0.3,0.8c0,0.3-0.1,0.6-0.3,0.8
	c-0.2,0.2-0.5,0.3-0.7,0.3c-0.3,0-0.5-0.1-0.7-0.3c-0.2-0.2-0.3-0.4-0.3-0.8C424.3,14.4,424.3,14.1,424.6,13.9z M426.2,16.5v6.2
	h-1.8v-6.2H426.2z M419.1,14.9l1.8-0.3v1.8h2.1v1.5h-2.1v2.2c0,0.4,0.1,0.7,0.2,0.9s0.4,0.3,0.8,0.3c0.2,0,0.4,0,0.6-0.1
	c0.2,0,0.4-0.1,0.5-0.1l0.2,1.4c-0.2,0.1-0.5,0.2-0.7,0.2c-0.3,0.1-0.6,0.1-1,0.1c-0.5,0-0.9-0.1-1.2-0.2c-0.3-0.1-0.6-0.3-0.8-0.5
	c-0.2-0.2-0.3-0.5-0.4-0.8s-0.1-0.7-0.1-1.1L419.1,14.9L419.1,14.9z M414.2,16.8c0.3-0.1,0.7-0.2,1.1-0.3c0.4-0.1,0.9-0.1,1.4-0.1
	c0.1,0,0.2,0,0.4,0c0.1,0,0.3,0,0.4,0.1l0.4,0.1c0.1,0,0.2,0.1,0.4,0.1l-0.3,1.5c-0.2,0-0.4-0.1-0.6-0.1c-0.2,0-0.4-0.1-0.7-0.1
	c-0.1,0-0.2,0-0.4,0s-0.3,0.1-0.4,0.1v4.7h-1.8C414.2,22.7,414.2,16.8,414.2,16.8z M407.3,18.2c0.2-0.4,0.4-0.8,0.7-1
	c0.3-0.3,0.6-0.5,0.9-0.6c0.4-0.1,0.7-0.2,1.1-0.2c0.9,0,1.6,0.3,2.1,0.8s0.8,1.3,0.8,2.4v0.3c0,0.1,0,0.2,0,0.3h-4
	c0,0.4,0.2,0.6,0.5,0.9c0.3,0.2,0.7,0.3,1.2,0.3c0.3,0,0.6,0,0.9-0.1c0.3-0.1,0.6-0.1,0.8-0.2l0.2,1.4c-0.1,0.1-0.2,0.1-0.4,0.1
	c-0.2,0.1-0.3,0.1-0.5,0.1c-0.2,0-0.4,0.1-0.6,0.1c-0.2,0-0.4,0-0.7,0c-0.6,0-1.1-0.1-1.5-0.2c-0.4-0.2-0.8-0.4-1-0.7
	c-0.3-0.3-0.5-0.6-0.6-1s-0.2-0.8-0.2-1.3C407,19.1,407.1,18.6,407.3,18.2z M401.6,18.3c0.1-0.4,0.4-0.8,0.6-1.1s0.6-0.5,1-0.7
	s0.8-0.3,1.3-0.3c0.3,0,0.6,0,0.9,0.1c0.3,0.1,0.5,0.1,0.8,0.2l-0.3,1.5c-0.2-0.1-0.4-0.1-0.5-0.2c-0.2-0.1-0.4-0.1-0.7-0.1
	c-0.5,0-0.9,0.2-1.2,0.5c-0.3,0.3-0.4,0.8-0.4,1.3c0,0.6,0.1,1,0.4,1.3c0.3,0.3,0.6,0.5,1.3,0.5c0.2,0,0.4,0,0.7-0.1
	c0.2,0,0.5-0.1,0.7-0.2l0.2,1.4c-0.2,0.1-0.5,0.2-0.8,0.2c-0.3,0.1-0.6,0.1-1,0.1c-0.6,0-1.1-0.1-1.5-0.2s-0.7-0.4-1-0.6
	c-0.3-0.3-0.5-0.6-0.6-1c-0.1-0.4-0.2-0.8-0.2-1.3C401.4,19.1,401.5,18.7,401.6,18.3z M461.2,110.2h-73v-82h72.9L461.2,110.2
	L461.2,110.2z"/>
<path class="st1" d="M439.8,18.5c-0.1-0.1-0.1-0.3-0.2-0.4s-0.2-0.1-0.4-0.2c-0.1-0.1-0.3-0.1-0.5-0.1s-0.4,0-0.5,0.1
	s-0.3,0.2-0.4,0.3c-0.1,0.1-0.2,0.2-0.2,0.4c-0.1,0.1-0.1,0.3-0.1,0.4h2.3C439.9,18.8,439.8,18.7,439.8,18.5L439.8,18.5z
	 M445.8,21.4c0.2,0,0.3,0,0.4,0s0.2,0,0.3-0.1v-3.2c-0.1-0.1-0.2-0.1-0.4-0.2c-0.2-0.1-0.4-0.1-0.5-0.1c-0.8,0-1.2,0.6-1.2,1.7
	c0,0.5,0.1,1,0.4,1.3C444.9,21.2,445.3,21.4,445.8,21.4L445.8,21.4z M411.1,18.5c-0.1-0.1-0.1-0.3-0.2-0.4s-0.2-0.2-0.4-0.3
	c-0.1-0.1-0.3-0.1-0.5-0.1c-0.2,0-0.4,0-0.5,0.1c-0.1,0.1-0.3,0.2-0.4,0.3c-0.1,0.1-0.2,0.2-0.2,0.4c-0.1,0.1-0.1,0.3-0.1,0.4h2.3
	C411.1,18.8,411.1,18.7,411.1,18.5L411.1,18.5z"/>
<path class="st0" d="M402.2,21.9c0.3,0.3,0.6,0.5,1,0.7s0.9,0.2,1.5,0.2c0.4,0,0.7,0,1-0.1s0.6-0.1,0.8-0.2l-0.2-1.4
	c-0.2,0.1-0.4,0.2-0.7,0.2c-0.2,0-0.5,0.1-0.7,0.1c-0.6,0-1-0.2-1.3-0.5c-0.2-0.3-0.4-0.7-0.4-1.3c0-0.5,0.1-0.9,0.4-1.3
	c0.2-0.3,0.6-0.5,1.2-0.5c0.2,0,0.5,0,0.7,0.1c0.2,0.1,0.4,0.1,0.5,0.2l0.4-1.4c-0.3-0.1-0.5-0.2-0.8-0.2c-0.3-0.1-0.6-0.1-0.9-0.1
	c-0.5,0-0.9,0.1-1.3,0.3c-0.4,0.2-0.7,0.4-1,0.7c-0.3,0.3-0.5,0.6-0.6,1.1c-0.1,0.4-0.2,0.8-0.2,1.3s0.1,0.9,0.2,1.3
	C401.7,21.3,401.9,21.6,402.2,21.9L402.2,21.9z M407.8,21.9c0.3,0.3,0.6,0.5,1,0.7s0.9,0.2,1.5,0.2c0.2,0,0.4,0,0.7,0
	c0.2,0,0.4-0.1,0.6-0.1c0.2,0,0.4-0.1,0.5-0.1c0.2-0.1,0.3-0.1,0.4-0.1l-0.2-1.4c-0.2,0.1-0.5,0.2-0.8,0.2c-0.3,0.1-0.6,0.1-0.9,0.1
	c-0.5,0-0.9-0.1-1.2-0.3c-0.3-0.2-0.5-0.5-0.5-0.9h4c0-0.1,0-0.2,0-0.3v-0.3c0-1.1-0.3-1.8-0.8-2.4c-0.5-0.5-1.2-0.8-2.1-0.8
	c-0.4,0-0.8,0.1-1.1,0.2c-0.4,0.1-0.7,0.4-0.9,0.6c-0.3,0.3-0.5,0.6-0.7,1c-0.2,0.4-0.2,0.9-0.2,1.5c0,0.5,0.1,0.9,0.2,1.3
	C407.4,21.3,407.5,21.6,407.8,21.9z M408.9,18.5c0.1-0.1,0.1-0.3,0.2-0.4s0.2-0.2,0.4-0.3c0.1-0.1,0.3-0.1,0.5-0.1
	c0.2,0,0.4,0,0.5,0.1c0.1,0.1,0.2,0.2,0.4,0.3c0.1,0.1,0.2,0.2,0.2,0.4c0.1,0.1,0.1,0.3,0.1,0.4h-2.3
	C408.8,18.8,408.9,18.7,408.9,18.5L408.9,18.5z M416,18c0.1,0,0.2-0.1,0.4-0.1c0.2,0,0.3,0,0.4,0c0.2,0,0.5,0,0.7,0.1
	c0.2,0.1,0.4,0.1,0.6,0.1l0.3-1.5c-0.1,0-0.2-0.1-0.4-0.1l-0.4-0.1c-0.1,0-0.3,0-0.4-0.1c-0.1,0-0.2,0-0.4,0c-0.5,0-1,0.1-1.4,0.1
	c-0.4,0.1-0.8,0.2-1.1,0.3v5.9h1.8C416,22.7,416,18,416,18z M419.6,22.1c0.2,0.2,0.4,0.4,0.8,0.5s0.7,0.2,1.2,0.2c0.4,0,0.7,0,1-0.1
	c0.3-0.1,0.5-0.1,0.7-0.2l-0.2-1.4c-0.2,0.1-0.4,0.1-0.5,0.1c-0.1,0-0.4,0.1-0.6,0.1c-0.4,0-0.6-0.1-0.8-0.3
	c-0.1-0.2-0.2-0.5-0.2-0.9v-2.2h2.1v-1.5H421v-1.8l-1.8,0.3v5.2c0,0.4,0,0.8,0.1,1.1C419.3,21.6,419.4,21.9,419.6,22.1L419.6,22.1z
	 M424.4,16.5h1.8v6.2h-1.8V16.5z M425.3,15.8c0.3,0,0.5-0.1,0.7-0.3c0.2-0.2,0.3-0.4,0.3-0.8c0-0.3-0.1-0.6-0.3-0.8
	c-0.2-0.2-0.5-0.3-0.7-0.3c-0.3,0-0.5,0.1-0.7,0.3c-0.2,0.2-0.3,0.4-0.3,0.8c0,0.3,0.1,0.6,0.3,0.8C424.8,15.6,425,15.8,425.3,15.8z
	 M429.6,18h2.2v-1.5h-2.2v-0.3c0-0.2,0-0.3,0.1-0.5c0-0.1,0.1-0.3,0.2-0.4c0.1-0.1,0.2-0.2,0.4-0.2c0.1-0.1,0.3-0.1,0.5-0.1
	s0.3,0,0.5,0s0.3,0.1,0.4,0.1l0.3-1.4c-0.2-0.1-0.3-0.1-0.5-0.2c-0.2-0.1-0.5-0.1-0.8-0.1c-0.9,0-1.6,0.2-2,0.7
	c-0.5,0.5-0.7,1.1-0.7,1.9v6.5h1.8L429.6,18L429.6,18z M433.7,15.8c0.3,0,0.5-0.1,0.7-0.3c0.2-0.2,0.3-0.4,0.3-0.8
	c0-0.3-0.1-0.6-0.3-0.8c-0.2-0.2-0.5-0.3-0.7-0.3c-0.3,0-0.5,0.1-0.7,0.3c-0.2,0.2-0.3,0.4-0.3,0.8c0,0.3,0.1,0.6,0.3,0.8
	C433.1,15.6,433.4,15.8,433.7,15.8z M432.8,16.5h1.8v6.2h-1.8V16.5z M436.5,21.9c0.3,0.3,0.6,0.5,1,0.7c0.4,0.2,0.9,0.2,1.5,0.2
	c0.2,0,0.4,0,0.7,0c0.2,0,0.4-0.1,0.6-0.1c0.2,0,0.4-0.1,0.5-0.1s0.3-0.1,0.4-0.1l-0.2-1.4c-0.2,0.1-0.5,0.2-0.8,0.2
	c-0.3,0.1-0.6,0.1-0.9,0.1c-0.5,0-0.9-0.1-1.2-0.3c-0.3-0.2-0.5-0.5-0.5-0.9h4c0-0.1,0-0.2,0-0.3v-0.3c0-1.1-0.3-1.8-0.8-2.4
	c-0.5-0.5-1.2-0.8-2.1-0.8c-0.4,0-0.8,0.1-1.1,0.2c-0.4,0.1-0.7,0.4-0.9,0.6c-0.3,0.3-0.5,0.6-0.7,1c-0.2,0.4-0.2,0.9-0.2,1.5
	c0,0.5,0.1,0.9,0.2,1.3C436.1,21.3,436.2,21.6,436.5,21.9z M437.6,18.5c0.1-0.1,0.1-0.3,0.2-0.4s0.2-0.2,0.4-0.3
	c0.1-0.1,0.3-0.1,0.5-0.1c0.2,0,0.4,0,0.5,0.1s0.2,0.2,0.4,0.3c0.1,0.1,0.2,0.2,0.2,0.4c0.1,0.1,0.1,0.3,0.1,0.4h-2.3
	C437.6,18.8,437.6,18.7,437.6,18.5L437.6,18.5z M443.4,22c0.3,0.3,0.6,0.5,1,0.6c0.4,0.2,0.9,0.2,1.4,0.2c0.2,0,0.4,0,0.7,0
	c0.2,0,0.5-0.1,0.7-0.1c0.2,0,0.4-0.1,0.6-0.1c0.2-0.1,0.4-0.1,0.5-0.1v-9l-1.8,0.3v2.8c-0.2-0.1-0.4-0.2-0.6-0.2
	c-0.2-0.1-0.4-0.1-0.6-0.1c-0.4,0-0.8,0.1-1.2,0.2c-0.4,0.2-0.6,0.4-0.9,0.6c-0.2,0.3-0.4,0.6-0.5,1s-0.2,0.9-0.2,1.4
	s0.1,0.9,0.2,1.3S443.1,21.7,443.4,22L443.4,22z M445.6,17.9c0.2,0,0.4,0,0.5,0.1s0.3,0.1,0.4,0.2v3.2c-0.1,0-0.2,0-0.3,0.1
	c-0.1,0-0.3,0-0.4,0c-0.5,0-0.8-0.2-1.1-0.5s-0.4-0.8-0.4-1.3C444.3,18.4,444.7,17.9,445.6,17.9L445.6,17.9z"/>
</svg>
