<svg width="1080" height="720" viewBox="0 0 1080 720" fill="none" xmlns="http://www.w3.org/2000/svg">
<rect width="1080" height="720" fill="#F4F4F4"/>
<rect x="64.5" y="656.5" width="15" height="15" fill="#F4F4F4"/>
<rect x="64.5" y="656.5" width="15" height="15" stroke="#8D8D8D"/>
<text fill="#6F6F6F" xml:space="preserve" style="white-space: pre" font-family="IBM Plex Sans" font-size="14" letter-spacing="0.16px"><tspan x="88" y="669.25">Prescribed node</tspan></text>
<path d="M256.561 257.768L277.732 278.939C278.318 279.525 278.318 280.475 277.732 281.061L256.561 302.232C255.975 302.818 255.025 302.818 254.439 302.232L233.268 281.061C232.682 280.475 232.682 279.525 233.268 278.939L254.439 257.768C255.025 257.182 255.975 257.182 256.561 257.768Z" fill="#CAC5C4" stroke="#CAC5C4"/>
<rect width="20" height="20" transform="translate(246 270)" fill="white" fill-opacity="0.01" style="mix-blend-mode:multiply"/>
<path d="M256 271.25C254.269 271.25 252.578 271.763 251.139 272.725C249.7 273.686 248.578 275.053 247.916 276.652C247.254 278.25 247.081 280.01 247.418 281.707C247.756 283.404 248.589 284.963 249.813 286.187C251.037 287.411 252.596 288.244 254.293 288.582C255.99 288.919 257.75 288.746 259.348 288.084C260.947 287.422 262.314 286.3 263.275 284.861C264.237 283.422 264.75 281.731 264.75 280C264.75 277.679 263.828 275.454 262.187 273.813C260.546 272.172 258.321 271.25 256 271.25ZM256 287.5C254.517 287.5 253.067 287.06 251.833 286.236C250.6 285.412 249.639 284.241 249.071 282.87C248.503 281.5 248.355 279.992 248.644 278.537C248.934 277.082 249.648 275.746 250.697 274.697C251.746 273.648 253.082 272.933 254.537 272.644C255.992 272.355 257.5 272.503 258.87 273.071C260.241 273.639 261.412 274.6 262.236 275.833C263.06 277.067 263.5 278.517 263.5 280C263.5 281.989 262.71 283.897 261.303 285.303C259.897 286.71 257.989 287.5 256 287.5Z" fill="black"/>
<path d="M256 285.625C256.518 285.625 256.938 285.205 256.938 284.688C256.938 284.17 256.518 283.75 256 283.75C255.482 283.75 255.063 284.17 255.063 284.688C255.063 285.205 255.482 285.625 256 285.625Z" fill="black"/>
<path d="M256.625 275H255.688C255.318 274.999 254.952 275.071 254.61 275.212C254.269 275.353 253.958 275.561 253.697 275.822C253.436 276.083 253.228 276.394 253.087 276.735C252.946 277.077 252.874 277.443 252.875 277.812V278.125H254.125V277.812C254.125 277.398 254.29 277.001 254.583 276.708C254.876 276.415 255.273 276.25 255.688 276.25H256.625C257.039 276.25 257.437 276.415 257.73 276.708C258.023 277.001 258.188 277.398 258.188 277.812C258.188 278.227 258.023 278.624 257.73 278.917C257.437 279.21 257.039 279.375 256.625 279.375H255.375V282.188H256.625V280.625C257.371 280.625 258.086 280.329 258.614 279.801C259.141 279.274 259.438 278.558 259.438 277.812C259.438 277.067 259.141 276.351 258.614 275.824C258.086 275.296 257.371 275 256.625 275Z" fill="black"/>
<text fill="black" xml:space="preserve" style="white-space: pre" font-family="IBM Plex Sans" font-size="14" letter-spacing="0.16px"><tspan x="169.218" y="326.25">Do you need to implement &#10;</tspan><tspan x="185.917" y="344.25">custom routing rules?</tspan></text>
<rect width="100" height="92" transform="translate(78 376)" fill="white" fill-opacity="0.01" style="mix-blend-mode:multiply"/>
<rect x="104.5" y="376.5" width="47" height="47" fill="#D9FBFB"/>
<path d="M105 377H151V423H105V377Z" fill="white"/>
<path d="M105 377H151V423H105V377Z" fill="#D9FBFB"/>
<rect width="20" height="20" transform="translate(118 390)" fill="white" fill-opacity="0.01" style="mix-blend-mode:multiply"/>
<path d="M123 408.75H119.25V405H123V408.75ZM120.5 407.5H121.75V406.25H120.5V407.5Z" fill="#161616"/>
<path d="M129.875 408.75H126.125V405H129.875V408.75ZM127.375 407.5H128.625V406.25H127.375V407.5Z" fill="#161616"/>
<path d="M136.75 408.75H133V405H136.75V408.75ZM134.25 407.5H135.5V406.25H134.25V407.5Z" fill="#161616"/>
<path d="M128 396.25C127.506 396.25 127.022 396.103 126.611 395.829C126.2 395.554 125.88 395.164 125.69 394.707C125.501 394.25 125.452 393.747 125.548 393.262C125.644 392.777 125.883 392.332 126.232 391.982C126.582 391.633 127.027 391.395 127.512 391.298C127.997 391.202 128.5 391.251 128.957 391.44C129.414 391.63 129.804 391.95 130.079 392.361C130.353 392.772 130.5 393.256 130.5 393.75C130.499 394.413 130.236 395.048 129.767 395.517C129.298 395.986 128.663 396.249 128 396.25ZM128 392.5C127.753 392.5 127.511 392.573 127.306 392.711C127.1 392.848 126.94 393.043 126.845 393.272C126.751 393.5 126.726 393.751 126.774 393.994C126.822 394.236 126.941 394.459 127.116 394.634C127.291 394.809 127.514 394.928 127.756 394.976C127.999 395.024 128.25 394.999 128.478 394.905C128.707 394.81 128.902 394.65 129.039 394.444C129.177 394.239 129.25 393.997 129.25 393.75C129.25 393.419 129.118 393.101 128.884 392.866C128.649 392.632 128.331 392.5 128 392.5Z" fill="#161616"/>
<path d="M134.25 400H131.125C130.462 399.999 129.827 399.736 129.358 399.267C128.889 398.798 128.626 398.163 128.625 397.5H127.375C127.374 398.163 127.111 398.798 126.642 399.267C126.173 399.736 125.538 399.999 124.875 400H121.75C121.419 400 121.101 400.132 120.867 400.367C120.632 400.601 120.5 400.919 120.5 401.25V403.75H121.75V401.25H124.875C125.799 401.25 126.69 400.907 127.375 400.288V403.75H128.625V400.288C129.31 400.907 130.201 401.25 131.125 401.25H134.25V403.75H135.5V401.25C135.5 400.919 135.368 400.601 135.133 400.367C134.899 400.132 134.581 400 134.25 400Z" fill="#161616"/>
<rect x="104.5" y="376.5" width="47" height="47" stroke="#009D9A"/>
<text fill="black" xml:space="preserve" style="white-space: pre" font-family="IBM Plex Sans" font-size="14" font-weight="600" letter-spacing="0.16px"><tspan x="80.248" y="446.25">Network Load &#10;</tspan><tspan x="78.4248" y="464.25">Balancer (NLB)</tspan></text>
<rect width="48" height="48" transform="translate(232 112)" fill="#6F6F6F"/>
<rect width="20" height="20" transform="translate(246 126)" fill="white" fill-opacity="0.01" style="mix-blend-mode:multiply"/>
<path d="M264.75 142.25H257.25V143.5H264.75V142.25Z" fill="white"/>
<path d="M264.75 139.125H257.25V140.375H264.75V139.125Z" fill="white"/>
<path d="M264.75 136H257.25V137.25H264.75V136Z" fill="white"/>
<path d="M254.75 141.625H251.938C250.766 141.625 249.637 141.187 248.773 140.397C247.909 139.606 247.372 138.521 247.268 137.354C247.165 136.188 247.502 135.024 248.213 134.094C248.924 133.164 249.958 132.533 251.111 132.327C251.404 130.8 252.255 129.436 253.499 128.503C254.743 127.569 256.291 127.133 257.839 127.28C259.387 127.426 260.825 128.145 261.872 129.295C262.919 130.445 263.5 131.945 263.5 133.5H262.25C262.25 132.221 261.76 130.991 260.881 130.062C260.002 129.133 258.8 128.577 257.523 128.507C256.246 128.437 254.991 128.86 254.016 129.687C253.041 130.515 252.42 131.685 252.281 132.956L252.225 133.477L251.702 133.512C250.812 133.572 249.981 133.975 249.383 134.637C248.786 135.299 248.469 136.167 248.499 137.058C248.53 137.949 248.906 138.793 249.547 139.412C250.189 140.031 251.046 140.376 251.938 140.375H254.75V141.625Z" fill="white"/>
<text fill="black" xml:space="preserve" style="white-space: pre" font-family="IBM Plex Sans" font-size="14" font-weight="600" letter-spacing="0.16px"><tspan x="232.599" y="182.25">Classic</tspan></text>
<rect width="48" height="48" transform="translate(791 114)" fill="#6F6F6F"/>
<rect width="20" height="20" transform="translate(805 128)" fill="white" fill-opacity="0.01" style="mix-blend-mode:multiply"/>
<path d="M819.634 141.75L811.25 133.366V129.25H806.25V134.25H810.366L818.75 142.634V146.75H823.75V141.75H819.634ZM810 133H807.5V130.5H810V133ZM822.5 145.5H820V143H822.5V145.5Z" fill="white"/>
<path d="M823.75 131.75C823.751 131.142 823.531 130.554 823.129 130.098C822.728 129.641 822.173 129.347 821.57 129.27C820.967 129.193 820.357 129.339 819.854 129.681C819.351 130.023 818.99 130.536 818.839 131.125H813.125V132.375H818.839C818.951 132.805 819.175 133.197 819.489 133.511C819.803 133.825 820.195 134.049 820.625 134.161V139.875H821.875V134.161C822.41 134.023 822.885 133.712 823.224 133.276C823.563 132.839 823.748 132.303 823.75 131.75ZM821.25 133C821.003 133 820.761 132.927 820.556 132.789C820.35 132.652 820.19 132.457 820.095 132.228C820.001 132 819.976 131.749 820.024 131.506C820.072 131.264 820.191 131.041 820.366 130.866C820.541 130.691 820.764 130.572 821.006 130.524C821.249 130.476 821.5 130.501 821.728 130.595C821.957 130.69 822.152 130.85 822.289 131.056C822.427 131.261 822.5 131.503 822.5 131.75C822.5 132.081 822.368 132.399 822.133 132.634C821.899 132.868 821.581 133 821.25 133Z" fill="white"/>
<path d="M816.875 143.625H811.161C811.049 143.195 810.825 142.803 810.511 142.489C810.197 142.175 809.805 141.951 809.375 141.839V136.125H808.125V141.839C807.699 141.948 807.309 142.168 806.995 142.477C806.681 142.786 806.455 143.172 806.339 143.597C806.222 144.021 806.22 144.469 806.333 144.895C806.446 145.32 806.669 145.708 806.981 146.019C807.292 146.331 807.68 146.554 808.106 146.667C808.531 146.78 808.979 146.778 809.403 146.662C809.828 146.545 810.214 146.319 810.523 146.005C810.832 145.691 811.052 145.301 811.161 144.875H816.875V143.625ZM808.75 145.5C808.503 145.5 808.261 145.427 808.056 145.289C807.85 145.152 807.69 144.957 807.595 144.728C807.501 144.5 807.476 144.249 807.524 144.006C807.572 143.764 807.691 143.541 807.866 143.366C808.041 143.191 808.264 143.072 808.506 143.024C808.749 142.976 809 143.001 809.228 143.095C809.457 143.19 809.652 143.35 809.789 143.556C809.927 143.761 810 144.003 810 144.25C810 144.581 809.868 144.899 809.633 145.134C809.399 145.368 809.081 145.5 808.75 145.5Z" fill="white"/>
<text fill="black" xml:space="preserve" style="white-space: pre" font-family="IBM Plex Sans" font-size="14" font-weight="600" letter-spacing="0.16px"><tspan x="792.645" y="184.25">Virtual&#10;</tspan><tspan x="770.495" y="202.25">Private Cloud</tspan></text>
<path d="M256 257L258.887 252L253.113 252L256 257ZM256.5 252.5L256.5 192L255.5 192L255.5 252.5L256.5 252.5Z" fill="#726E6E"/>
<path d="M666.061 378.768L687.232 399.939C687.818 400.525 687.818 401.475 687.232 402.061L666.061 423.232C665.475 423.818 664.525 423.818 663.939 423.232L642.768 402.061C642.182 401.475 642.182 400.525 642.768 399.939L663.939 378.768C664.525 378.182 665.475 378.182 666.061 378.768Z" fill="#CAC5C4" stroke="#CAC5C4"/>
<rect width="20" height="20" transform="translate(655 391)" fill="white" fill-opacity="0.01" style="mix-blend-mode:multiply"/>
<path d="M665 392.25C663.269 392.25 661.578 392.763 660.139 393.725C658.7 394.686 657.578 396.053 656.916 397.652C656.254 399.25 656.081 401.01 656.418 402.707C656.756 404.404 657.589 405.963 658.813 407.187C660.037 408.411 661.596 409.244 663.293 409.582C664.99 409.919 666.75 409.746 668.348 409.084C669.947 408.422 671.314 407.3 672.275 405.861C673.237 404.422 673.75 402.731 673.75 401C673.75 398.679 672.828 396.454 671.187 394.813C669.546 393.172 667.321 392.25 665 392.25ZM665 408.5C663.517 408.5 662.067 408.06 660.833 407.236C659.6 406.412 658.639 405.241 658.071 403.87C657.503 402.5 657.355 400.992 657.644 399.537C657.934 398.082 658.648 396.746 659.697 395.697C660.746 394.648 662.082 393.933 663.537 393.644C664.992 393.355 666.5 393.503 667.87 394.071C669.241 394.639 670.412 395.6 671.236 396.833C672.06 398.067 672.5 399.517 672.5 401C672.5 402.989 671.71 404.897 670.303 406.303C668.897 407.71 666.989 408.5 665 408.5Z" fill="black"/>
<path d="M665 406.625C665.518 406.625 665.938 406.205 665.938 405.688C665.938 405.17 665.518 404.75 665 404.75C664.482 404.75 664.063 405.17 664.063 405.688C664.063 406.205 664.482 406.625 665 406.625Z" fill="black"/>
<path d="M665.625 396H664.688C664.318 395.999 663.952 396.071 663.61 396.212C663.269 396.353 662.958 396.561 662.697 396.822C662.436 397.083 662.228 397.394 662.087 397.735C661.946 398.077 661.874 398.443 661.875 398.812V399.125H663.125V398.812C663.125 398.398 663.29 398.001 663.583 397.708C663.876 397.415 664.273 397.25 664.688 397.25H665.625C666.039 397.25 666.437 397.415 666.73 397.708C667.023 398.001 667.188 398.398 667.188 398.812C667.188 399.227 667.023 399.624 666.73 399.917C666.437 400.21 666.039 400.375 665.625 400.375H664.375V403.188H665.625V401.625C666.371 401.625 667.086 401.329 667.614 400.801C668.141 400.274 668.438 399.558 668.438 398.812C668.438 398.067 668.141 397.351 667.614 396.824C667.086 396.296 666.371 396 665.625 396Z" fill="black"/>
<text fill="black" xml:space="preserve" style="white-space: pre" font-family="IBM Plex Sans" font-size="14" letter-spacing="0.16px"><tspan x="635.241" y="447.25">Single or &#10;</tspan><tspan x="627.088" y="465.25">multi-zone?</tspan></text>
<path d="M817 258L819.887 253H814.113L817 258ZM817.5 253.5L817.5 208L816.5 208L816.5 253.5H817.5Z" fill="#726E6E"/>
<rect width="65" height="92" transform="translate(352 376)" fill="white" fill-opacity="0.01" style="mix-blend-mode:multiply"/>
<rect x="361" y="376.5" width="47" height="47" fill="#FFF0F7"/>
<path d="M361.5 377H407.5V423H361.5V377Z" fill="white"/>
<path d="M361.5 377H407.5V423H361.5V377Z" fill="#FFF0F7"/>
<rect width="20" height="20" transform="translate(374.5 390)" fill="white" fill-opacity="0.01" style="mix-blend-mode:multiply"/>
<path d="M387.625 394.375L384.5 391.25L381.375 394.375L382.256 395.262L383.875 393.654V398.125H385.125V393.621L386.744 395.262L387.625 394.375Z" fill="#161616"/>
<path d="M387.625 405.625L384.5 408.75L381.375 405.625L382.256 404.738L383.875 406.346V401.875H385.125V406.379L386.744 404.738L387.625 405.625Z" fill="#161616"/>
<path d="M389.5 396.875L386.375 400L389.5 403.125L390.387 402.244L388.779 400.625H393.25V399.375H388.746L390.387 397.756L389.5 396.875Z" fill="#161616"/>
<path d="M379.5 396.875L382.625 400L379.5 403.125L378.613 402.244L380.221 400.625H375.75V399.375H380.254L378.613 397.756L379.5 396.875Z" fill="#161616"/>
<rect x="361" y="376.5" width="47" height="47" stroke="#EE5396"/>
<text fill="black" xml:space="preserve" style="white-space: pre" font-family="IBM Plex Sans" font-size="14" font-weight="600" letter-spacing="0.16px"><tspan x="359.575" y="446.25">Ingress&#10;</tspan><tspan x="352.091" y="464.25">controller </tspan></text>
<rect width="100" height="110" transform="translate(478 496)" fill="white" fill-opacity="0.01" style="mix-blend-mode:multiply"/>
<rect x="504.5" y="496.5" width="47" height="47" fill="#D9FBFB"/>
<path d="M505 497H551V543H505V497Z" fill="white"/>
<path d="M505 497H551V543H505V497Z" fill="#D9FBFB"/>
<rect width="20" height="20" transform="translate(518 510)" fill="white" fill-opacity="0.01" style="mix-blend-mode:multiply"/>
<path d="M523 528.75H519.25V525H523V528.75ZM520.5 527.5H521.75V526.25H520.5V527.5Z" fill="#161616"/>
<path d="M529.875 528.75H526.125V525H529.875V528.75ZM527.375 527.5H528.625V526.25H527.375V527.5Z" fill="#161616"/>
<path d="M536.75 528.75H533V525H536.75V528.75ZM534.25 527.5H535.5V526.25H534.25V527.5Z" fill="#161616"/>
<path d="M528 516.25C527.506 516.25 527.022 516.103 526.611 515.829C526.2 515.554 525.88 515.164 525.69 514.707C525.501 514.25 525.452 513.747 525.548 513.262C525.644 512.777 525.883 512.332 526.232 511.982C526.582 511.633 527.027 511.395 527.512 511.298C527.997 511.202 528.5 511.251 528.957 511.44C529.414 511.63 529.804 511.95 530.079 512.361C530.353 512.772 530.5 513.256 530.5 513.75C530.499 514.413 530.236 515.048 529.767 515.517C529.298 515.986 528.663 516.249 528 516.25ZM528 512.5C527.753 512.5 527.511 512.573 527.306 512.711C527.1 512.848 526.94 513.043 526.845 513.272C526.751 513.5 526.726 513.751 526.774 513.994C526.822 514.236 526.941 514.459 527.116 514.634C527.291 514.809 527.514 514.928 527.756 514.976C527.999 515.024 528.25 514.999 528.478 514.905C528.707 514.81 528.902 514.65 529.039 514.444C529.177 514.239 529.25 513.997 529.25 513.75C529.25 513.419 529.118 513.101 528.884 512.866C528.649 512.632 528.331 512.5 528 512.5Z" fill="#161616"/>
<path d="M534.25 520H531.125C530.462 519.999 529.827 519.736 529.358 519.267C528.889 518.798 528.626 518.163 528.625 517.5H527.375C527.374 518.163 527.111 518.798 526.642 519.267C526.173 519.736 525.538 519.999 524.875 520H521.75C521.419 520 521.101 520.132 520.867 520.367C520.632 520.601 520.5 520.919 520.5 521.25V523.75H521.75V521.25H524.875C525.799 521.25 526.69 520.907 527.375 520.288V523.75H528.625V520.288C529.31 520.907 530.201 521.25 531.125 521.25H534.25V523.75H535.5V521.25C535.5 520.919 535.368 520.601 535.133 520.367C534.899 520.132 534.581 520 534.25 520Z" fill="#161616"/>
<rect x="504.5" y="496.5" width="47" height="47" stroke="#009D9A"/>
<text fill="black" xml:space="preserve" style="white-space: pre" font-family="IBM Plex Sans" font-size="14" font-weight="600" letter-spacing="0.16px"><tspan x="480.248" y="566.25">Network Load &#10;</tspan><tspan x="478.425" y="584.25">Balancer (NLB)&#10;</tspan></text>
<rect width="95" height="128" transform="translate(754 488)" fill="white" fill-opacity="0.01" style="mix-blend-mode:multiply"/>
<rect x="778" y="488.5" width="47" height="47" fill="#F6F2FF"/>
<path d="M778.5 489H824.5V535H778.5V489Z" fill="white"/>
<path d="M778.5 489H824.5V535H778.5V489Z" fill="#F6F2FF"/>
<rect width="20" height="20" transform="translate(791.5 502)" fill="white" fill-opacity="0.01" style="mix-blend-mode:multiply"/>
<path d="M796.5 518.25H794V520.75H796.5V518.25Z" fill="black"/>
<path d="M802.75 518.25H800.25V520.75H802.75V518.25Z" fill="black"/>
<path d="M809 518.25H806.5V520.75H809V518.25Z" fill="black"/>
<path d="M807.125 512H802.125V510.75H800.875V512H795.875C795.544 512 795.226 512.132 794.992 512.367C794.757 512.601 794.625 512.919 794.625 513.25V517H795.875V513.25H800.875V517H802.125V513.25H807.125V517H808.375V513.25C808.375 512.919 808.243 512.601 808.008 512.367C807.774 512.132 807.456 512 807.125 512Z" fill="black"/>
<path d="M797.125 503.25V509.5H805.875V503.25H797.125ZM798.375 504.5H799.625V508.25H798.375V504.5ZM804.625 508.25H800.875V504.5H804.625V508.25Z" fill="black"/>
<rect x="778" y="488.5" width="47" height="47" stroke="#A56EFF"/>
<text fill="black" xml:space="preserve" style="white-space: pre" font-family="IBM Plex Sans" font-size="14" font-weight="600" letter-spacing="0.16px"><tspan x="763.526" y="558.25">Application&#10;</tspan><tspan x="754.411" y="576.25">Load Balancer&#10;</tspan><tspan x="783.468" y="594.25">(ALB)&#10;</tspan></text>
<rect width="65" height="92" transform="translate(920 488)" fill="white" fill-opacity="0.01" style="mix-blend-mode:multiply"/>
<rect x="929" y="488.5" width="47" height="47" fill="#FFF0F7"/>
<path d="M929.5 489H975.5V535H929.5V489Z" fill="white"/>
<path d="M929.5 489H975.5V535H929.5V489Z" fill="#FFF0F7"/>
<rect width="20" height="20" transform="translate(942.5 502)" fill="white" fill-opacity="0.01" style="mix-blend-mode:multiply"/>
<path d="M955.625 506.375L952.5 503.25L949.375 506.375L950.256 507.262L951.875 505.654V510.125H953.125V505.621L954.744 507.262L955.625 506.375Z" fill="#161616"/>
<path d="M955.625 517.625L952.5 520.75L949.375 517.625L950.256 516.738L951.875 518.346V513.875H953.125V518.379L954.744 516.738L955.625 517.625Z" fill="#161616"/>
<path d="M957.5 508.875L954.375 512L957.5 515.125L958.387 514.244L956.779 512.625H961.25V511.375H956.746L958.387 509.756L957.5 508.875Z" fill="#161616"/>
<path d="M947.5 508.875L950.625 512L947.5 515.125L946.613 514.244L948.221 512.625H943.75V511.375H948.254L946.613 509.756L947.5 508.875Z" fill="#161616"/>
<rect x="929" y="488.5" width="47" height="47" stroke="#EE5396"/>
<text fill="black" xml:space="preserve" style="white-space: pre" font-family="IBM Plex Sans" font-size="14" font-weight="600" letter-spacing="0.16px"><tspan x="927.575" y="558.25">Ingress&#10;</tspan><tspan x="920.091" y="576.25">controller </tspan></text>
<path d="M583.026 400.01L583.026 400.51L583.026 400.51L583.026 400.01ZM528 496L525.113 491L530.887 491L528 496ZM536.001 400.001L536.001 400.501L536.001 400.001ZM528 408.001L528.5 408.001L528 408.001ZM643 400.51H583.026V399.51H643V400.51ZM583.026 400.51L536.001 400.501L536.002 399.501L583.026 399.51L583.026 400.51ZM528.5 408.001L528.5 491.5L527.5 491.5L527.5 408.001L528.5 408.001ZM536.001 400.501C531.859 400.501 528.5 403.859 528.5 408.001L527.5 408.001C527.5 403.306 531.307 399.501 536.002 399.501L536.001 400.501Z" fill="#726E6E"/>
<path d="M726.246 281.01L726.246 281.51L726.246 281.51L726.246 281.01ZM665 378L662.113 373L667.887 373L665 378ZM673.001 281.001L673.001 280.501L673.001 281.001ZM793 281.51H726.246V280.51H793V281.51ZM726.246 281.51L673.001 281.501L673.001 280.501L726.246 280.51L726.246 281.51ZM665.5 289.001L665.5 373.5L664.5 373.5L664.5 289.001L665.5 289.001ZM673.001 281.501C668.859 281.501 665.5 284.859 665.5 289.001L664.5 289.001C664.5 284.306 668.306 280.501 673.001 280.501L673.001 281.501Z" fill="#726E6E"/>
<path d="M897.496 281.009V281.509L897.496 281.509L897.496 281.009ZM953 488L955.887 483H950.113L953 488ZM837 281.509H897.496V280.509H837V281.509ZM897.496 281.509L944.999 281.501L944.999 280.501L897.495 280.509L897.496 281.509ZM952.5 289.001V483.5H953.5V289.001H952.5ZM944.999 281.501C949.141 281.501 952.5 284.859 952.5 289.001H953.5C953.5 284.306 949.694 280.501 944.999 280.501L944.999 281.501Z" fill="#726E6E"/>
<path d="M746.931 400.009L746.931 400.509L746.931 400.509L746.931 400.009ZM801 488L803.887 483H798.113L801 488ZM688 400.509H746.931V399.509H688V400.509ZM746.931 400.509L792.999 400.501L792.999 399.501L746.931 399.509L746.931 400.509ZM800.5 408.001V483.5H801.5V408.001H800.5ZM792.999 400.501C797.141 400.501 800.5 403.859 800.5 408.001H801.5C801.5 403.306 797.694 399.501 792.999 399.501L792.999 400.501Z" fill="#726E6E"/>
<path d="M178.241 280.01L178.241 280.51L178.241 280.51L178.241 280.01ZM128 376L125.113 371L130.887 371L128 376ZM136.002 280.002L136.001 280.502L136.002 280.002ZM128 288.002L128.5 288.002L128 288.002ZM233 280.51H178.241V279.51H233V280.51ZM178.241 280.51L136.001 280.502L136.002 279.502L178.241 279.51L178.241 280.51ZM128.5 288.002L128.5 371.5L127.5 371.5L127.5 288.002L128.5 288.002ZM136.001 280.502C131.859 280.501 128.5 283.859 128.5 288.002L127.5 288.002C127.5 283.307 131.307 279.501 136.002 279.502L136.001 280.502Z" fill="#726E6E"/>
<path d="M311.535 81.0032L311.535 81.5032L311.535 81.5032L311.535 81.0032ZM256 112L253.113 107H258.887L256 112ZM264 81.0005L264 81.5005L264 81.0005ZM513 81.5L311.535 81.5032L311.535 80.5032L513 80.5L513 81.5ZM311.535 81.5032L264 81.5005L264 80.5005L311.535 80.5032L311.535 81.5032ZM256.5 89.0005V107.5H255.5V89.0005H256.5ZM264 81.5005C259.858 81.5002 256.5 84.8582 256.5 89.0005H255.5C255.5 84.3059 259.306 80.5002 264 80.5005L264 81.5005Z" fill="#726E6E"/>
<path d="M749.741 81.0033L749.741 81.5033L749.741 81.5033L749.741 81.0033ZM815 113L817.887 108H812.113L815 113ZM807 81.0004L807 81.5004L807 81.0004ZM513 81.5L749.741 81.5033L749.741 80.5033L513 80.5L513 81.5ZM749.741 81.5033L807 81.5004L807 80.5004L749.741 80.5033L749.741 81.5033ZM814.5 89.0004V108.5H815.5V89.0004H814.5ZM807 81.5004C811.142 81.5002 814.5 84.8581 814.5 89.0004H815.5C815.5 84.3058 811.694 80.5002 807 80.5004L807 81.5004Z" fill="#726E6E"/>
<path d="M333.759 280.01L333.759 280.51L333.759 280.51L333.759 280.01ZM384 377L386.887 372H381.113L384 377ZM375.998 280.002L375.999 280.502L375.998 280.002ZM279 280.51H333.759V279.51H279V280.51ZM333.759 280.51L375.999 280.502L375.998 279.502L333.759 279.51L333.759 280.51ZM383.5 288.002V372.5H384.5V288.002H383.5ZM375.999 280.502C380.141 280.501 383.5 283.859 383.5 288.002H384.5C384.5 283.307 380.693 279.501 375.998 279.502L375.999 280.502Z" fill="#726E6E"/>
<rect x="555.5" y="392.5" width="50" height="15" rx="7.5" fill="white"/>
<text fill="black" xml:space="preserve" style="white-space: pre" font-family="IBM Plex Sans" font-size="12" letter-spacing="0.32px"><tspan x="563" y="403.5">Single</tspan></text>
<rect x="555.5" y="392.5" width="50" height="15" rx="7.5" stroke="black"/>
<rect x="730.5" y="392.5" width="44" height="15" rx="7.5" fill="white"/>
<text fill="black" xml:space="preserve" style="white-space: pre" font-family="IBM Plex Sans" font-size="12" letter-spacing="0.32px"><tspan x="738" y="403.5">Multi</tspan></text>
<rect x="730.5" y="392.5" width="44" height="15" rx="7.5" stroke="black"/>
<rect x="689.5" y="273.5" width="31" height="15" rx="7.5" fill="white"/>
<text fill="black" xml:space="preserve" style="white-space: pre" font-family="IBM Plex Sans" font-size="12" letter-spacing="0.32px"><tspan x="697" y="284.5">No</tspan></text>
<rect x="689.5" y="273.5" width="31" height="15" rx="7.5" stroke="black"/>
<rect x="892.5" y="273.5" width="35" height="15" rx="7.5" fill="white"/>
<text fill="black" xml:space="preserve" style="white-space: pre" font-family="IBM Plex Sans" font-size="12" letter-spacing="0.32px"><tspan x="900" y="284.5">Yes</tspan></text>
<rect x="892.5" y="273.5" width="35" height="15" rx="7.5" stroke="black"/>
<rect x="159.5" y="272.5" width="31" height="15" rx="7.5" fill="white"/>
<text fill="black" xml:space="preserve" style="white-space: pre" font-family="IBM Plex Sans" font-size="12" letter-spacing="0.32px"><tspan x="167" y="283.5">No</tspan></text>
<rect x="159.5" y="272.5" width="31" height="15" rx="7.5" stroke="black"/>
<rect x="317.5" y="272.5" width="35" height="15" rx="7.5" fill="white"/>
<text fill="black" xml:space="preserve" style="white-space: pre" font-family="IBM Plex Sans" font-size="12" letter-spacing="0.32px"><tspan x="325" y="283.5">Yes</tspan></text>
<rect x="317.5" y="272.5" width="35" height="15" rx="7.5" stroke="black"/>
<path d="M817.561 259.768L838.732 280.939C839.318 281.525 839.318 282.475 838.732 283.061L817.561 304.232C816.975 304.818 816.025 304.818 815.439 304.232L794.268 283.061C793.682 282.475 793.682 281.525 794.268 280.939L815.439 259.768C816.025 259.182 816.975 259.182 817.561 259.768Z" fill="#CAC5C4" stroke="#CAC5C4"/>
<rect width="20" height="20" transform="translate(807 272)" fill="white" fill-opacity="0.01" style="mix-blend-mode:multiply"/>
<path d="M817 273.25C815.269 273.25 813.578 273.763 812.139 274.725C810.7 275.686 809.578 277.053 808.916 278.652C808.254 280.25 808.081 282.01 808.418 283.707C808.756 285.404 809.589 286.963 810.813 288.187C812.037 289.411 813.596 290.244 815.293 290.582C816.99 290.919 818.75 290.746 820.348 290.084C821.947 289.422 823.314 288.3 824.275 286.861C825.237 285.422 825.75 283.731 825.75 282C825.75 279.679 824.828 277.454 823.187 275.813C821.546 274.172 819.321 273.25 817 273.25ZM817 289.5C815.517 289.5 814.067 289.06 812.833 288.236C811.6 287.412 810.639 286.241 810.071 284.87C809.503 283.5 809.355 281.992 809.644 280.537C809.934 279.082 810.648 277.746 811.697 276.697C812.746 275.648 814.082 274.933 815.537 274.644C816.992 274.355 818.5 274.503 819.87 275.071C821.241 275.639 822.412 276.6 823.236 277.833C824.06 279.067 824.5 280.517 824.5 282C824.5 283.989 823.71 285.897 822.303 287.303C820.897 288.71 818.989 289.5 817 289.5Z" fill="black"/>
<path d="M817 287.625C817.518 287.625 817.938 287.205 817.938 286.688C817.938 286.17 817.518 285.75 817 285.75C816.482 285.75 816.063 286.17 816.063 286.688C816.063 287.205 816.482 287.625 817 287.625Z" fill="black"/>
<path d="M817.625 277H816.688C816.318 276.999 815.952 277.071 815.61 277.212C815.269 277.353 814.958 277.561 814.697 277.822C814.436 278.083 814.228 278.394 814.087 278.735C813.946 279.077 813.874 279.443 813.875 279.812V280.125H815.125V279.812C815.125 279.398 815.29 279.001 815.583 278.708C815.876 278.415 816.273 278.25 816.688 278.25H817.625C818.039 278.25 818.437 278.415 818.73 278.708C819.023 279.001 819.188 279.398 819.188 279.812C819.188 280.227 819.023 280.624 818.73 280.917C818.437 281.21 818.039 281.375 817.625 281.375H816.375V284.188H817.625V282.625C818.371 282.625 819.086 282.329 819.614 281.801C820.141 281.274 820.438 280.558 820.438 279.812C820.438 279.067 820.141 278.351 819.614 277.824C819.086 277.296 818.371 277 817.625 277Z" fill="black"/>
<text fill="black" xml:space="preserve" style="white-space: pre" font-family="IBM Plex Sans" font-size="14" letter-spacing="0.16px"><tspan x="730.218" y="328.25">Do you need to implement &#10;</tspan><tspan x="746.917" y="346.25">custom routing rules?</tspan></text>
<path d="M537.061 59.7678L558.232 80.9393C558.818 81.5251 558.818 82.4749 558.232 83.0607L537.061 104.232C536.475 104.818 535.525 104.818 534.939 104.232L513.768 83.0607C513.182 82.4749 513.182 81.5251 513.768 80.9393L534.939 59.7678C535.525 59.182 536.475 59.182 537.061 59.7678Z" fill="#CAC5C4" stroke="#CAC5C4"/>
<rect width="20" height="20" transform="translate(526 72)" fill="white" fill-opacity="0.01" style="mix-blend-mode:multiply"/>
<path d="M536 73.25C534.269 73.25 532.578 73.7632 531.139 74.7246C529.7 75.6861 528.578 77.0527 527.916 78.6515C527.254 80.2504 527.081 82.0097 527.418 83.707C527.756 85.4044 528.589 86.9635 529.813 88.1872C531.037 89.4109 532.596 90.2443 534.293 90.5819C535.99 90.9195 537.75 90.7462 539.348 90.0839C540.947 89.4217 542.314 88.3002 543.275 86.8612C544.237 85.4223 544.75 83.7306 544.75 82C544.75 79.6794 543.828 77.4538 542.187 75.8128C540.546 74.1719 538.321 73.25 536 73.25ZM536 89.5C534.517 89.5 533.067 89.0601 531.833 88.236C530.6 87.4119 529.639 86.2406 529.071 84.8701C528.503 83.4997 528.355 81.9917 528.644 80.5368C528.934 79.082 529.648 77.7456 530.697 76.6967C531.746 75.6478 533.082 74.9335 534.537 74.6441C535.992 74.3547 537.5 74.5032 538.87 75.0709C540.241 75.6386 541.412 76.5999 542.236 77.8332C543.06 79.0666 543.5 80.5166 543.5 82C543.5 83.9891 542.71 85.8968 541.303 87.3033C539.897 88.7098 537.989 89.5 536 89.5Z" fill="black"/>
<path d="M536 87.625C536.518 87.625 536.938 87.2053 536.938 86.6875C536.938 86.1697 536.518 85.75 536 85.75C535.482 85.75 535.063 86.1697 535.063 86.6875C535.063 87.2053 535.482 87.625 536 87.625Z" fill="black"/>
<path d="M536.625 77H535.688C535.318 76.9992 534.952 77.0714 534.61 77.2124C534.269 77.3535 533.958 77.5606 533.697 77.8219C533.436 78.0833 533.228 78.3936 533.087 78.7352C532.946 79.0768 532.874 79.4429 532.875 79.8125V80.125H534.125V79.8125C534.125 79.3981 534.29 79.0007 534.583 78.7076C534.876 78.4146 535.273 78.25 535.688 78.25H536.625C537.039 78.25 537.437 78.4146 537.73 78.7076C538.023 79.0007 538.188 79.3981 538.188 79.8125C538.188 80.2269 538.023 80.6243 537.73 80.9174C537.437 81.2104 537.039 81.375 536.625 81.375H535.375V84.1875H536.625V82.625C537.371 82.625 538.086 82.3287 538.614 81.8012C539.141 81.2738 539.438 80.5584 539.438 79.8125C539.438 79.0666 539.141 78.3512 538.614 77.8238C538.086 77.2963 537.371 77 536.625 77Z" fill="black"/>
<text fill="black" xml:space="preserve" style="white-space: pre" font-family="IBM Plex Sans" font-size="14" font-weight="600" letter-spacing="0.16px"><tspan x="464.382" y="128.25">Cluster infrastructure</tspan></text>
</svg>
