<svg width="1080" height="540" viewBox="0 0 1080 540" fill="none" xmlns="http://www.w3.org/2000/svg">
<rect width="1080" height="540" fill="#F4F4F4"/>
<path d="M73.5 483L68.5 480.113V485.887L73.5 483ZM69 482.5H49V483.5H69V482.5Z" fill="#736F6F"/>
<path d="M82.732 478.228V483.996C82.732 486.838 83.6 488.168 86.204 488.168C88.808 488.168 89.76 486.838 89.76 483.996V478.228H88.584V484.276C88.584 486.138 87.982 487.118 86.246 487.118C84.51 487.118 83.908 486.138 83.908 484.276V478.228H82.732ZM94.5083 488.168C96.1603 488.168 97.1823 487.314 97.1823 485.914C97.1823 484.822 96.5663 484.122 94.9703 483.884L94.4103 483.8C93.5143 483.66 93.0243 483.38 93.0243 482.68C93.0243 481.994 93.5143 481.56 94.4383 481.56C95.3623 481.56 95.9783 481.994 96.3003 482.442L97.0423 481.77C96.4543 481.042 95.6843 480.608 94.5223 480.608C93.0523 480.608 91.9463 481.308 91.9463 482.736C91.9463 484.08 92.9403 484.626 94.2703 484.822L94.8443 484.906C95.7963 485.046 96.1043 485.48 96.1043 486.04C96.1043 486.782 95.5443 487.216 94.5923 487.216C93.6823 487.216 93.0103 486.81 92.4503 486.11L91.6523 486.754C92.2963 487.608 93.1783 488.168 94.5083 488.168ZM102.037 488.168C103.395 488.168 104.431 487.496 104.893 486.516L104.095 485.942C103.717 486.74 103.017 487.188 102.107 487.188C100.763 487.188 99.9645 486.25 99.9645 485.004V484.668H105.159V484.136C105.159 482.092 103.969 480.608 102.037 480.608C100.077 480.608 98.7885 482.092 98.7885 484.388C98.7885 486.684 100.077 488.168 102.037 488.168ZM102.037 481.546C103.185 481.546 103.955 482.4 103.955 483.674V483.828H99.9645V483.73C99.9645 482.47 100.819 481.546 102.037 481.546ZM108.284 488V483.1C108.284 482.414 109.012 481.896 110.216 481.896H110.874V480.776H110.44C109.264 480.776 108.606 481.42 108.354 482.106H108.284V480.776H107.164V488H108.284ZM118.929 488V487.02H117.459V481.756H119.041V480.776H117.459V478.774H116.451V480.118C116.451 480.608 116.297 480.776 115.821 480.776H115.149V481.756H116.339V486.81C116.339 487.51 116.759 488 117.529 488H118.929ZM122.122 488V483.1C122.122 482.414 122.85 481.896 124.054 481.896H124.712V480.776H124.278C123.102 480.776 122.444 481.42 122.192 482.106H122.122V480.776H121.002V488H122.122ZM132.127 488V487.02H131.301V483.044C131.301 481.518 130.265 480.608 128.529 480.608C127.227 480.608 126.359 481.252 125.967 482.022L126.639 482.652C127.031 481.994 127.605 481.574 128.473 481.574C129.621 481.574 130.181 482.134 130.181 483.156V483.87H128.753C126.653 483.87 125.673 484.626 125.673 485.984C125.673 487.328 126.569 488.168 128.095 488.168C129.103 488.168 129.873 487.706 130.181 486.824H130.251C130.335 487.496 130.671 488 131.497 488H132.127ZM128.277 487.216C127.409 487.216 126.849 486.81 126.849 486.096V485.802C126.849 485.102 127.423 484.71 128.697 484.71H130.181V485.9C130.181 486.642 129.383 487.216 128.277 487.216ZM134.278 488H135.398V481.756H136.952V480.776H135.398V478.62H136.952V477.64H135.86C134.796 477.64 134.278 478.326 134.278 479.32V480.776H133.102V481.756H134.278V488ZM138.977 488H140.097V481.756H143.023V488H144.143V480.776H140.097V478.62H141.651V477.64H140.559C139.495 477.64 138.977 478.326 138.977 479.32V480.776H137.801V481.756H138.977V488ZM143.583 479.082C144.059 479.082 144.269 478.83 144.269 478.452V478.27C144.269 477.892 144.059 477.64 143.583 477.64C143.107 477.64 142.897 477.892 142.897 478.27V478.452C142.897 478.83 143.107 479.082 143.583 479.082ZM149.376 488.168C150.748 488.168 151.686 487.496 152.148 486.46L151.336 485.914C150.944 486.74 150.286 487.174 149.376 487.174C148.046 487.174 147.36 486.264 147.36 485.004V483.772C147.36 482.512 148.046 481.602 149.376 481.602C150.258 481.602 150.874 482.036 151.14 482.778L152.078 482.302C151.658 481.308 150.804 480.608 149.376 480.608C147.346 480.608 146.156 482.078 146.156 484.388C146.156 486.698 147.346 488.168 149.376 488.168Z" fill="#6F6F6F"/>
<path d="M194 483L189 480.113V485.887L194 483ZM190.938 482.5H188.896V483.5H190.938V482.5ZM186.854 482.5H184.812V483.5H186.854V482.5ZM182.771 482.5H180.729V483.5H182.771V482.5ZM178.687 482.5H176.646V483.5H178.687V482.5ZM174.604 482.5H172.562V483.5H174.604V482.5ZM170.521 482.5H169.5V483.5H170.521V482.5Z" fill="#736F6F"/>
<path d="M206.046 488.168C208.146 488.168 209.406 487.02 209.406 485.228C209.406 483.772 208.58 482.932 206.676 482.498L205.878 482.316C204.646 482.036 204.044 481.616 204.044 480.692C204.044 479.642 204.814 479.096 206.06 479.096C207.194 479.096 207.936 479.558 208.468 480.3L209.35 479.656C208.622 478.62 207.586 478.06 206.116 478.06C204.198 478.06 202.882 478.998 202.882 480.734C202.882 482.232 203.862 483.016 205.64 483.422L206.438 483.604C207.726 483.898 208.244 484.36 208.244 485.284C208.244 486.404 207.488 487.132 206.088 487.132C204.954 487.132 204.142 486.642 203.456 485.732L202.588 486.46C203.372 487.524 204.478 488.168 206.046 488.168ZM214.187 485.69L213.795 486.866H213.725L213.389 485.69L211.653 480.776H210.533L213.235 488.28L212.689 489.82H211.555V490.8H212.129C213.193 490.8 213.487 490.548 213.809 489.68L217.043 480.776H215.937L214.187 485.69ZM220.746 488.168C222.398 488.168 223.42 487.314 223.42 485.914C223.42 484.822 222.804 484.122 221.208 483.884L220.648 483.8C219.752 483.66 219.262 483.38 219.262 482.68C219.262 481.994 219.752 481.56 220.676 481.56C221.6 481.56 222.216 481.994 222.538 482.442L223.28 481.77C222.692 481.042 221.922 480.608 220.76 480.608C219.29 480.608 218.184 481.308 218.184 482.736C218.184 484.08 219.178 484.626 220.508 484.822L221.082 484.906C222.034 485.046 222.342 485.48 222.342 486.04C222.342 486.782 221.782 487.216 220.83 487.216C219.92 487.216 219.248 486.81 218.688 486.11L217.89 486.754C218.534 487.608 219.416 488.168 220.746 488.168ZM228.459 488V487.02H226.989V481.756H228.571V480.776H226.989V478.774H225.981V480.118C225.981 480.608 225.827 480.776 225.351 480.776H224.679V481.756H225.869V486.81C225.869 487.51 226.289 488 227.059 488H228.459ZM233.192 488.168C234.55 488.168 235.586 487.496 236.048 486.516L235.25 485.942C234.872 486.74 234.172 487.188 233.262 487.188C231.918 487.188 231.12 486.25 231.12 485.004V484.668H236.314V484.136C236.314 482.092 235.124 480.608 233.192 480.608C231.232 480.608 229.944 482.092 229.944 484.388C229.944 486.684 231.232 488.168 233.192 488.168ZM233.192 481.546C234.34 481.546 235.11 482.4 235.11 483.674V483.828H231.12V483.73C231.12 482.47 231.974 481.546 233.192 481.546ZM239.44 488V482.988C239.44 482.064 240.28 481.616 241.162 481.616C242.226 481.616 242.716 482.274 242.716 483.562V488H243.836V482.988C243.836 482.064 244.648 481.616 245.53 481.616C246.622 481.616 247.112 482.288 247.112 483.562V488H248.232V483.366C248.232 481.616 247.35 480.608 245.88 480.608C244.648 480.608 243.948 481.294 243.682 482.078H243.654C243.262 481.042 242.394 480.608 241.442 480.608C240.322 480.608 239.818 481.21 239.496 481.952H239.44V480.776H238.32V488H239.44ZM256.859 488.168C258.231 488.168 259.169 487.496 259.631 486.46L258.819 485.914C258.427 486.74 257.769 487.174 256.859 487.174C255.529 487.174 254.843 486.264 254.843 485.004V483.772C254.843 482.512 255.529 481.602 256.859 481.602C257.741 481.602 258.357 482.036 258.623 482.778L259.561 482.302C259.141 481.308 258.287 480.608 256.859 480.608C254.829 480.608 253.639 482.078 253.639 484.388C253.639 486.698 254.829 488.168 256.859 488.168ZM264.02 488.168C265.952 488.168 267.282 486.684 267.282 484.388C267.282 482.092 265.952 480.608 264.02 480.608C262.088 480.608 260.758 482.092 260.758 484.388C260.758 486.684 262.088 488.168 264.02 488.168ZM264.02 487.174C262.816 487.174 261.962 486.432 261.962 484.906V483.87C261.962 482.344 262.816 481.602 264.02 481.602C265.224 481.602 266.078 482.344 266.078 483.87V484.906C266.078 486.432 265.224 487.174 264.02 487.174ZM270.404 488V482.988C270.404 482.064 271.272 481.616 272.168 481.616C273.246 481.616 273.806 482.274 273.806 483.562V488H274.926V483.366C274.926 481.616 273.988 480.608 272.504 480.608C271.426 480.608 270.81 481.14 270.46 481.952H270.404V480.776H269.284V488H270.404ZM277.793 488H278.913V481.756H281.839V488H282.959V480.776H278.913V478.62H280.467V477.64H279.375C278.311 477.64 277.793 478.326 277.793 479.32V480.776H276.617V481.756H277.793V488ZM282.399 479.082C282.875 479.082 283.085 478.83 283.085 478.452V478.27C283.085 477.892 282.875 477.64 282.399 477.64C281.923 477.64 281.713 477.892 281.713 478.27V478.452C281.713 478.83 281.923 479.082 282.399 479.082ZM291.595 488.798C291.595 487.608 290.825 486.88 289.033 486.88H287.493C286.835 486.88 286.387 486.768 286.387 486.334C286.387 485.886 286.863 485.648 287.339 485.522C287.549 485.564 287.801 485.592 288.039 485.592C289.691 485.592 290.769 484.57 290.769 483.1C290.769 482.33 290.461 481.686 289.943 481.238V480.776H291.315V479.796H290.237C289.635 479.796 289.397 480.202 289.397 480.762V480.888C289.005 480.706 288.543 480.608 288.025 480.608C286.387 480.608 285.309 481.63 285.309 483.1C285.309 484.108 285.813 484.906 286.667 485.312V485.368C285.939 485.55 285.421 485.9 285.421 486.628C285.421 487.118 285.659 487.44 286.065 487.636V487.79C285.351 487.986 284.917 488.406 284.917 489.19C284.917 490.324 285.841 490.968 288.095 490.968C290.419 490.968 291.595 490.282 291.595 488.798ZM290.545 488.882C290.545 489.666 289.817 490.058 288.571 490.058H287.535C286.401 490.058 285.967 489.54 285.967 488.91C285.967 488.462 286.177 488.14 286.639 487.93H289.047C290.167 487.93 290.545 488.308 290.545 488.882ZM288.039 484.696C287.087 484.696 286.485 484.248 286.485 483.296V482.904C286.485 481.952 287.087 481.504 288.039 481.504C288.991 481.504 289.593 481.952 289.593 482.904V483.296C289.593 484.248 288.991 484.696 288.039 484.696ZM297.458 488H298.578V480.776H297.458V485.774C297.458 486.726 296.59 487.16 295.708 487.16C294.63 487.16 294.056 486.502 294.056 485.214V480.776H292.936V485.41C292.936 487.16 293.888 488.168 295.372 488.168C296.576 488.168 297.122 487.51 297.402 486.824H297.458V488ZM302.244 488V483.1C302.244 482.414 302.972 481.896 304.176 481.896H304.834V480.776H304.4C303.224 480.776 302.566 481.42 302.314 482.106H302.244V480.776H301.124V488H302.244ZM312.249 488V487.02H311.423V483.044C311.423 481.518 310.387 480.608 308.651 480.608C307.349 480.608 306.481 481.252 306.089 482.022L306.761 482.652C307.153 481.994 307.727 481.574 308.595 481.574C309.743 481.574 310.303 482.134 310.303 483.156V483.87H308.875C306.775 483.87 305.795 484.626 305.795 485.984C305.795 487.328 306.691 488.168 308.217 488.168C309.225 488.168 309.995 487.706 310.303 486.824H310.373C310.457 487.496 310.793 488 311.619 488H312.249ZM308.399 487.216C307.531 487.216 306.971 486.81 306.971 486.096V485.802C306.971 485.102 307.545 484.71 308.819 484.71H310.303V485.9C310.303 486.642 309.505 487.216 308.399 487.216ZM317.004 488V487.02H315.534V481.756H317.116V480.776H315.534V478.774H314.526V480.118C314.526 480.608 314.372 480.776 313.896 480.776H313.224V481.756H314.414V486.81C314.414 487.51 314.834 488 315.604 488H317.004ZM319.636 479.082C320.112 479.082 320.322 478.83 320.322 478.452V478.27C320.322 477.892 320.112 477.64 319.636 477.64C319.16 477.64 318.95 477.892 318.95 478.27V478.452C318.95 478.83 319.16 479.082 319.636 479.082ZM319.076 488H320.196V480.776H319.076V488ZM325.466 488.168C327.398 488.168 328.728 486.684 328.728 484.388C328.728 482.092 327.398 480.608 325.466 480.608C323.534 480.608 322.204 482.092 322.204 484.388C322.204 486.684 323.534 488.168 325.466 488.168ZM325.466 487.174C324.262 487.174 323.408 486.432 323.408 484.906V483.87C323.408 482.344 324.262 481.602 325.466 481.602C326.67 481.602 327.524 482.344 327.524 483.87V484.906C327.524 486.432 326.67 487.174 325.466 487.174ZM331.85 488V482.988C331.85 482.064 332.718 481.616 333.614 481.616C334.692 481.616 335.252 482.274 335.252 483.562V488H336.372V483.366C336.372 481.616 335.434 480.608 333.95 480.608C332.872 480.608 332.256 481.14 331.906 481.952H331.85V480.776H330.73V488H331.85Z" fill="#6F6F6F"/>
<rect x="288.5" y="128.5" width="695" height="272" fill="white"/>
<path d="M292 128H288V176H292V128Z" fill="#6F6F6F"/>
<path d="M312.942 157.168C314.692 157.168 315.854 156.314 316.554 154.858L315.056 153.976C314.734 154.858 314.048 155.53 312.942 155.53C311.57 155.53 310.688 154.578 310.688 152.898V151.358C310.688 149.692 311.57 148.698 312.942 148.698C314.034 148.698 314.65 149.286 314.93 150.154L316.512 149.314C315.826 147.802 314.692 147.06 312.942 147.06C310.366 147.06 308.728 148.894 308.728 152.184C308.728 155.474 310.366 157.168 312.942 157.168ZM320.936 157V155.572H319.97V146.64H318.178V155.236C318.178 156.356 318.752 157 319.97 157H320.936ZM324.26 157.168C325.352 157.168 326.15 156.678 326.388 155.74H326.472C326.584 156.496 327.06 157 327.83 157H328.824V155.572H328.096V152.128C328.096 150.462 327.046 149.524 325.072 149.524C323.602 149.524 322.748 150.084 322.216 150.924L323.28 151.876C323.63 151.372 324.106 150.952 324.946 150.952C325.898 150.952 326.304 151.428 326.304 152.24V152.772H325.058C323.07 152.772 321.936 153.514 321.936 155.012C321.936 156.314 322.776 157.168 324.26 157.168ZM324.862 155.866C324.162 155.866 323.756 155.572 323.756 154.984V154.746C323.756 154.172 324.218 153.85 325.156 153.85H326.304V154.816C326.304 155.502 325.66 155.866 324.862 155.866ZM332.828 157.168C334.648 157.168 335.838 156.188 335.838 154.774C335.838 153.556 335.068 152.842 333.472 152.618L332.73 152.52C332.044 152.408 331.778 152.184 331.778 151.694C331.778 151.246 332.114 150.938 332.884 150.938C333.598 150.938 334.214 151.274 334.634 151.722L335.684 150.672C334.984 149.944 334.256 149.524 332.828 149.524C331.162 149.524 330.056 150.42 330.056 151.834C330.056 153.164 330.924 153.85 332.492 154.046L333.22 154.144C333.864 154.228 334.116 154.494 334.116 154.914C334.116 155.432 333.752 155.754 332.898 155.754C332.072 155.754 331.428 155.376 330.896 154.76L329.804 155.824C330.532 156.664 331.442 157.168 332.828 157.168ZM339.879 157.168C341.699 157.168 342.889 156.188 342.889 154.774C342.889 153.556 342.119 152.842 340.523 152.618L339.781 152.52C339.095 152.408 338.829 152.184 338.829 151.694C338.829 151.246 339.165 150.938 339.935 150.938C340.649 150.938 341.265 151.274 341.685 151.722L342.735 150.672C342.035 149.944 341.307 149.524 339.879 149.524C338.213 149.524 337.107 150.42 337.107 151.834C337.107 153.164 337.975 153.85 339.543 154.046L340.271 154.144C340.915 154.228 341.167 154.494 341.167 154.914C341.167 155.432 340.803 155.754 339.949 155.754C339.123 155.754 338.479 155.376 337.947 154.76L336.855 155.824C337.583 156.664 338.493 157.168 339.879 157.168ZM345.527 148.628C346.255 148.628 346.577 148.25 346.577 147.732V147.452C346.577 146.934 346.255 146.556 345.527 146.556C344.785 146.556 344.477 146.934 344.477 147.452V147.732C344.477 148.25 344.785 148.628 345.527 148.628ZM344.631 157H346.423V149.692H344.631V157ZM351.544 157.168C352.958 157.168 353.98 156.524 354.456 155.236L353.084 154.578C352.818 155.236 352.398 155.726 351.544 155.726C350.55 155.726 350.046 155.04 350.046 154.018V152.688C350.046 151.666 350.55 150.966 351.544 150.966C352.314 150.966 352.776 151.414 352.944 152.03L354.414 151.372C353.98 150.224 353.014 149.524 351.544 149.524C349.388 149.524 348.17 150.994 348.17 153.332C348.17 155.684 349.388 157.168 351.544 157.168ZM360.362 148.628C361.09 148.628 361.412 148.25 361.412 147.732V147.452C361.412 146.934 361.09 146.556 360.362 146.556C359.62 146.556 359.312 146.934 359.312 147.452V147.732C359.312 148.25 359.62 148.628 360.362 148.628ZM359.466 157H361.258V149.692H359.466V157ZM365.288 157V152.17C365.288 151.386 366.002 150.994 366.744 150.994C367.598 150.994 367.948 151.526 367.948 152.562V157H369.74V152.38C369.74 150.56 368.9 149.524 367.402 149.524C366.268 149.524 365.652 150.126 365.358 150.91H365.288V149.692H363.496V157H365.288ZM372.25 157H374.042V151.106H375.54V149.692H374.042V148.068H375.54V146.64H374.266C372.95 146.64 372.25 147.354 372.25 148.642V149.692H371.172V151.106H372.25V157ZM378.733 157V152.52C378.733 151.722 379.363 151.386 380.567 151.386H381.127V149.692H380.735C379.573 149.692 378.985 150.434 378.803 151.204H378.733V149.692H376.941V157H378.733ZM384.252 157.168C385.344 157.168 386.142 156.678 386.38 155.74H386.464C386.576 156.496 387.052 157 387.822 157H388.816V155.572H388.088V152.128C388.088 150.462 387.038 149.524 385.064 149.524C383.594 149.524 382.74 150.084 382.208 150.924L383.272 151.876C383.622 151.372 384.098 150.952 384.938 150.952C385.89 150.952 386.296 151.428 386.296 152.24V152.772H385.05C383.062 152.772 381.928 153.514 381.928 155.012C381.928 156.314 382.768 157.168 384.252 157.168ZM384.854 155.866C384.154 155.866 383.748 155.572 383.748 154.984V154.746C383.748 154.172 384.21 153.85 385.148 153.85H386.296V154.816C386.296 155.502 385.652 155.866 384.854 155.866ZM392.821 157.168C394.641 157.168 395.831 156.188 395.831 154.774C395.831 153.556 395.061 152.842 393.465 152.618L392.723 152.52C392.037 152.408 391.771 152.184 391.771 151.694C391.771 151.246 392.107 150.938 392.877 150.938C393.591 150.938 394.207 151.274 394.627 151.722L395.677 150.672C394.977 149.944 394.249 149.524 392.821 149.524C391.155 149.524 390.049 150.42 390.049 151.834C390.049 153.164 390.917 153.85 392.485 154.046L393.213 154.144C393.857 154.228 394.109 154.494 394.109 154.914C394.109 155.432 393.745 155.754 392.891 155.754C392.065 155.754 391.421 155.376 390.889 154.76L389.797 155.824C390.525 156.664 391.435 157.168 392.821 157.168ZM399.745 157H401.033V155.572H399.647V151.12H401.145V149.692H399.647V147.69H398.037V148.936C398.037 149.44 397.869 149.692 397.337 149.692H396.777V151.12H397.855V155.138C397.855 156.328 398.513 157 399.745 157ZM404.652 157V152.52C404.652 151.722 405.282 151.386 406.486 151.386H407.046V149.692H406.654C405.492 149.692 404.904 150.434 404.722 151.204H404.652V149.692H402.86V157H404.652ZM412.884 157H414.676V149.692H412.884V154.522C412.884 155.306 412.17 155.684 411.456 155.684C410.602 155.684 410.224 155.138 410.224 154.13V149.692H408.432V154.312C408.432 156.132 409.272 157.168 410.77 157.168C411.974 157.168 412.562 156.51 412.814 155.782H412.884V157ZM419.79 157.168C421.204 157.168 422.226 156.524 422.702 155.236L421.33 154.578C421.064 155.236 420.644 155.726 419.79 155.726C418.796 155.726 418.292 155.04 418.292 154.018V152.688C418.292 151.666 418.796 150.966 419.79 150.966C420.56 150.966 421.022 151.414 421.19 152.03L422.66 151.372C422.226 150.224 421.26 149.524 419.79 149.524C417.634 149.524 416.416 150.994 416.416 153.332C416.416 155.684 417.634 157.168 419.79 157.168ZM426.526 157H427.814V155.572H426.428V151.12H427.926V149.692H426.428V147.69H424.818V148.936C424.818 149.44 424.65 149.692 424.118 149.692H423.558V151.12H424.636V155.138C424.636 156.328 425.294 157 426.526 157ZM434.008 157H435.8V149.692H434.008V154.522C434.008 155.306 433.294 155.684 432.58 155.684C431.726 155.684 431.348 155.138 431.348 154.13V149.692H429.556V154.312C429.556 156.132 430.396 157.168 431.894 157.168C433.098 157.168 433.686 156.51 433.938 155.782H434.008V157ZM439.823 157V152.52C439.823 151.722 440.453 151.386 441.657 151.386H442.217V149.692H441.825C440.663 149.692 440.075 150.434 439.893 151.204H439.823V149.692H438.031V157H439.823ZM446.573 157.168C447.931 157.168 448.995 156.65 449.597 155.824L448.631 154.746C448.183 155.32 447.651 155.74 446.769 155.74C445.593 155.74 444.991 155.026 444.991 153.976V153.794H449.849V153.206C449.849 151.204 448.799 149.524 446.517 149.524C444.375 149.524 443.129 151.022 443.129 153.332C443.129 155.67 444.417 157.168 446.573 157.168ZM446.545 150.868C447.469 150.868 447.987 151.554 447.987 152.562V152.688H444.991V152.576C444.991 151.568 445.607 150.868 446.545 150.868Z" fill="black"/>
<rect x="288.5" y="128.5" width="695" height="272" stroke="#6F6F6F"/>
<rect x="696.5" y="184.5" width="135" height="167" fill="#F4F4F4"/>
<rect x="697" y="185" width="134" height="166" fill="#F4F4F4"/>
<g clip-path="url(#clip0_1218_55429)">
<path d="M716.732 213L717.978 207.834L718.608 205.258H718.636L719.238 207.834L720.484 213H722.57L724.908 203.228H723.144L722.15 207.918L721.534 210.914H721.492L720.806 207.918L719.686 203.228H717.642L716.522 207.918L715.822 210.914H715.78L715.178 207.918L714.212 203.228H712.364L714.632 213H716.732ZM729.069 213.168C731.169 213.168 732.471 211.684 732.471 209.332C732.471 206.994 731.169 205.524 729.069 205.524C726.983 205.524 725.681 206.994 725.681 209.332C725.681 211.684 726.983 213.168 729.069 213.168ZM729.069 211.726C728.145 211.726 727.557 211.124 727.557 210.018V208.66C727.557 207.568 728.145 206.966 729.069 206.966C730.007 206.966 730.595 207.568 730.595 208.66V210.018C730.595 211.124 730.007 211.726 729.069 211.726ZM736.011 213V208.52C736.011 207.722 736.641 207.386 737.845 207.386H738.405V205.692H738.013C736.851 205.692 736.263 206.434 736.081 207.204H736.011V205.692H734.219V213H736.011ZM739.875 213H741.667V210.774L742.633 209.724L744.509 213H746.637L743.851 208.52L746.371 205.692H744.341L742.703 207.568L741.737 208.884H741.667V202.64H739.875V213ZM750.509 213.168C751.867 213.168 752.931 212.65 753.533 211.824L752.567 210.746C752.119 211.32 751.587 211.74 750.705 211.74C749.529 211.74 748.927 211.026 748.927 209.976V209.794H753.785V209.206C753.785 207.204 752.735 205.524 750.453 205.524C748.311 205.524 747.065 207.022 747.065 209.332C747.065 211.67 748.353 213.168 750.509 213.168ZM750.481 206.868C751.405 206.868 751.923 207.554 751.923 208.562V208.688H748.927V208.576C748.927 207.568 749.543 206.868 750.481 206.868ZM757.314 213V208.52C757.314 207.722 757.944 207.386 759.148 207.386H759.708V205.692H759.316C758.154 205.692 757.566 206.434 757.384 207.204H757.314V205.692H755.522V213H757.314ZM766.438 213V208.17C766.438 207.386 767.152 206.994 767.894 206.994C768.748 206.994 769.098 207.526 769.098 208.562V213H770.89V208.38C770.89 206.56 770.05 205.524 768.552 205.524C767.418 205.524 766.802 206.126 766.508 206.91H766.438V205.692H764.646V213H766.438ZM775.935 213.168C778.035 213.168 779.337 211.684 779.337 209.332C779.337 206.994 778.035 205.524 775.935 205.524C773.849 205.524 772.547 206.994 772.547 209.332C772.547 211.684 773.849 213.168 775.935 213.168ZM775.935 211.726C775.011 211.726 774.423 211.124 774.423 210.018V208.66C774.423 207.568 775.011 206.966 775.935 206.966C776.873 206.966 777.461 207.568 777.461 208.66V210.018C777.461 211.124 776.873 211.726 775.935 211.726ZM785.621 213H787.413V202.64H785.621V206.896H785.551C785.299 206.056 784.501 205.524 783.535 205.524C781.701 205.524 780.679 206.896 780.679 209.332C780.679 211.782 781.701 213.168 783.535 213.168C784.501 213.168 785.285 212.608 785.551 211.782H785.621V213ZM784.109 211.684C783.185 211.684 782.555 211.012 782.555 209.976V208.716C782.555 207.68 783.185 206.994 784.109 206.994C784.963 206.994 785.621 207.456 785.621 208.17V210.494C785.621 211.25 784.963 211.684 784.109 211.684ZM792.594 213.168C793.952 213.168 795.016 212.65 795.618 211.824L794.652 210.746C794.204 211.32 793.672 211.74 792.79 211.74C791.614 211.74 791.012 211.026 791.012 209.976V209.794H795.87V209.206C795.87 207.204 794.82 205.524 792.538 205.524C790.396 205.524 789.15 207.022 789.15 209.332C789.15 211.67 790.438 213.168 792.594 213.168ZM792.566 206.868C793.49 206.868 794.008 207.554 794.008 208.562V208.688H791.012V208.576C791.012 207.568 791.628 206.868 792.566 206.868ZM807.683 211.446H802.909L804.967 209.752C806.325 208.632 807.431 207.596 807.431 205.972C807.431 204.292 806.255 203.06 804.197 203.06C802.209 203.06 801.159 204.194 800.739 205.496L802.335 206.112C802.559 205.314 803.035 204.656 804.043 204.656C804.841 204.656 805.485 205.132 805.485 205.986V206.168C805.485 207.022 805.009 207.694 803.973 208.604L800.907 211.292V213H807.683V211.446Z" fill="black"/>
<line x1="698" y1="184" x2="698" y2="232" stroke="#878D96" stroke-width="4"/>
</g>
<rect x="696.5" y="184.5" width="135" height="167" stroke="#878D96"/>
<rect width="48" height="48" transform="translate(736.5 248)" fill="#8D8D8D"/>
<rect width="20" height="20" transform="translate(750.5 262)" fill="white" style="mix-blend-mode:multiply"/>
<path d="M768 269.5H763V264.5H768V269.5ZM764.25 268.25H766.75V265.75H764.25V268.25Z" fill="white"/>
<path d="M761.125 271.375V267.625H756.125V276.375H764.875V271.375H761.125ZM757.375 268.875H759.875V271.375H757.375V268.875ZM759.875 275.125H757.375V272.625H759.875V275.125ZM763.625 275.125H761.125V272.625H763.625V275.125Z" fill="white"/>
<path d="M766.75 279.5H754.25C753.919 279.5 753.601 279.368 753.367 279.133C753.132 278.899 753 278.581 753 278.25V265.75C753 265.419 753.132 265.101 753.367 264.867C753.601 264.632 753.919 264.5 754.25 264.5H760.5V265.75H754.25V278.25H766.75V272H768V278.25C768 278.581 767.868 278.899 767.633 279.133C767.399 279.368 767.081 279.5 766.75 279.5Z" fill="white"/>
<path d="M733.022 318.168C734.772 318.168 735.934 317.314 736.634 315.858L735.136 314.976C734.814 315.858 734.128 316.53 733.022 316.53C731.65 316.53 730.768 315.578 730.768 313.898V312.358C730.768 310.692 731.65 309.698 733.022 309.698C734.114 309.698 734.73 310.286 735.01 311.154L736.592 310.314C735.906 308.802 734.772 308.06 733.022 308.06C730.446 308.06 728.808 309.894 728.808 313.184C728.808 316.474 730.446 318.168 733.022 318.168ZM741.156 318.168C743.256 318.168 744.558 316.684 744.558 314.332C744.558 311.994 743.256 310.524 741.156 310.524C739.07 310.524 737.768 311.994 737.768 314.332C737.768 316.684 739.07 318.168 741.156 318.168ZM741.156 316.726C740.232 316.726 739.644 316.124 739.644 315.018V313.66C739.644 312.568 740.232 311.966 741.156 311.966C742.094 311.966 742.682 312.568 742.682 313.66V315.018C742.682 316.124 742.094 316.726 741.156 316.726ZM748.099 318V313.17C748.099 312.386 748.813 311.994 749.555 311.994C750.409 311.994 750.759 312.526 750.759 313.562V318H752.551V313.38C752.551 311.56 751.711 310.524 750.213 310.524C749.079 310.524 748.463 311.126 748.169 311.91H748.099V310.692H746.307V318H748.099ZM756.979 318H758.267V316.572H756.881V312.12H758.379V310.692H756.881V308.69H755.271V309.936C755.271 310.44 755.103 310.692 754.571 310.692H754.011V312.12H755.089V316.138C755.089 317.328 755.747 318 756.979 318ZM761.9 318.168C762.992 318.168 763.79 317.678 764.028 316.74H764.112C764.224 317.496 764.7 318 765.47 318H766.464V316.572H765.736V313.128C765.736 311.462 764.686 310.524 762.712 310.524C761.242 310.524 760.388 311.084 759.856 311.924L760.92 312.876C761.27 312.372 761.746 311.952 762.586 311.952C763.538 311.952 763.944 312.428 763.944 313.24V313.772H762.698C760.71 313.772 759.576 314.514 759.576 316.012C759.576 317.314 760.416 318.168 761.9 318.168ZM762.502 316.866C761.802 316.866 761.396 316.572 761.396 315.984V315.746C761.396 315.172 761.858 314.85 762.796 314.85H763.944V315.816C763.944 316.502 763.3 316.866 762.502 316.866ZM768.97 309.628C769.698 309.628 770.02 309.25 770.02 308.732V308.452C770.02 307.934 769.698 307.556 768.97 307.556C768.228 307.556 767.92 307.934 767.92 308.452V308.732C767.92 309.25 768.228 309.628 768.97 309.628ZM768.074 318H769.866V310.692H768.074V318ZM773.895 318V313.17C773.895 312.386 774.609 311.994 775.351 311.994C776.205 311.994 776.555 312.526 776.555 313.562V318H778.347V313.38C778.347 311.56 777.507 310.524 776.009 310.524C774.875 310.524 774.259 311.126 773.965 311.91H773.895V310.692H772.103V318H773.895ZM783.448 318.168C784.806 318.168 785.87 317.65 786.472 316.824L785.506 315.746C785.058 316.32 784.526 316.74 783.644 316.74C782.468 316.74 781.866 316.026 781.866 314.976V314.794H786.724V314.206C786.724 312.204 785.674 310.524 783.392 310.524C781.25 310.524 780.004 312.022 780.004 314.332C780.004 316.67 781.292 318.168 783.448 318.168ZM783.42 311.868C784.344 311.868 784.862 312.554 784.862 313.562V313.688H781.866V313.576C781.866 312.568 782.482 311.868 783.42 311.868ZM790.252 318V313.52C790.252 312.722 790.882 312.386 792.086 312.386H792.646V310.692H792.254C791.092 310.692 790.504 311.434 790.322 312.204H790.252V310.692H788.46V318H790.252Z" fill="black"/>
<rect x="544.5" y="184.5" width="135" height="167" fill="#F4F4F4"/>
<rect x="545" y="185" width="134" height="166" fill="#F4F4F4"/>
<g clip-path="url(#clip1_1218_55429)">
<path d="M564.732 213L565.978 207.834L566.608 205.258H566.636L567.238 207.834L568.484 213H570.57L572.908 203.228H571.144L570.15 207.918L569.534 210.914H569.492L568.806 207.918L567.686 203.228H565.642L564.522 207.918L563.822 210.914H563.78L563.178 207.918L562.212 203.228H560.364L562.632 213H564.732ZM577.069 213.168C579.169 213.168 580.471 211.684 580.471 209.332C580.471 206.994 579.169 205.524 577.069 205.524C574.983 205.524 573.681 206.994 573.681 209.332C573.681 211.684 574.983 213.168 577.069 213.168ZM577.069 211.726C576.145 211.726 575.557 211.124 575.557 210.018V208.66C575.557 207.568 576.145 206.966 577.069 206.966C578.007 206.966 578.595 207.568 578.595 208.66V210.018C578.595 211.124 578.007 211.726 577.069 211.726ZM584.011 213V208.52C584.011 207.722 584.641 207.386 585.845 207.386H586.405V205.692H586.013C584.851 205.692 584.263 206.434 584.081 207.204H584.011V205.692H582.219V213H584.011ZM587.875 213H589.667V210.774L590.633 209.724L592.509 213H594.637L591.851 208.52L594.371 205.692H592.341L590.703 207.568L589.737 208.884H589.667V202.64H587.875V213ZM598.509 213.168C599.867 213.168 600.931 212.65 601.533 211.824L600.567 210.746C600.119 211.32 599.587 211.74 598.705 211.74C597.529 211.74 596.927 211.026 596.927 209.976V209.794H601.785V209.206C601.785 207.204 600.735 205.524 598.453 205.524C596.311 205.524 595.065 207.022 595.065 209.332C595.065 211.67 596.353 213.168 598.509 213.168ZM598.481 206.868C599.405 206.868 599.923 207.554 599.923 208.562V208.688H596.927V208.576C596.927 207.568 597.543 206.868 598.481 206.868ZM605.314 213V208.52C605.314 207.722 605.944 207.386 607.148 207.386H607.708V205.692H607.316C606.154 205.692 605.566 206.434 605.384 207.204H605.314V205.692H603.522V213H605.314ZM614.438 213V208.17C614.438 207.386 615.152 206.994 615.894 206.994C616.748 206.994 617.098 207.526 617.098 208.562V213H618.89V208.38C618.89 206.56 618.05 205.524 616.552 205.524C615.418 205.524 614.802 206.126 614.508 206.91H614.438V205.692H612.646V213H614.438ZM623.935 213.168C626.035 213.168 627.337 211.684 627.337 209.332C627.337 206.994 626.035 205.524 623.935 205.524C621.849 205.524 620.547 206.994 620.547 209.332C620.547 211.684 621.849 213.168 623.935 213.168ZM623.935 211.726C623.011 211.726 622.423 211.124 622.423 210.018V208.66C622.423 207.568 623.011 206.966 623.935 206.966C624.873 206.966 625.461 207.568 625.461 208.66V210.018C625.461 211.124 624.873 211.726 623.935 211.726ZM633.621 213H635.413V202.64H633.621V206.896H633.551C633.299 206.056 632.501 205.524 631.535 205.524C629.701 205.524 628.679 206.896 628.679 209.332C628.679 211.782 629.701 213.168 631.535 213.168C632.501 213.168 633.285 212.608 633.551 211.782H633.621V213ZM632.109 211.684C631.185 211.684 630.555 211.012 630.555 209.976V208.716C630.555 207.68 631.185 206.994 632.109 206.994C632.963 206.994 633.621 207.456 633.621 208.17V210.494C633.621 211.25 632.963 211.684 632.109 211.684ZM640.594 213.168C641.952 213.168 643.016 212.65 643.618 211.824L642.652 210.746C642.204 211.32 641.672 211.74 640.79 211.74C639.614 211.74 639.012 211.026 639.012 209.976V209.794H643.87V209.206C643.87 207.204 642.82 205.524 640.538 205.524C638.396 205.524 637.15 207.022 637.15 209.332C637.15 211.67 638.438 213.168 640.594 213.168ZM640.566 206.868C641.49 206.868 642.008 207.554 642.008 208.562V208.688H639.012V208.576C639.012 207.568 639.628 206.868 640.566 206.868ZM656.047 213V211.502H653.807V203.228H651.021L648.599 206.112L649.747 207.078L651.875 204.558H652.001V211.502H649.313V213H656.047Z" fill="black"/>
<line x1="546" y1="184" x2="546" y2="232" stroke="#878D96" stroke-width="4"/>
</g>
<rect x="544.5" y="184.5" width="135" height="167" stroke="#878D96"/>
<rect width="48" height="48" transform="translate(591.5 248)" fill="#8D8D8D"/>
<rect width="20" height="20" transform="translate(605.5 262)" fill="white" style="mix-blend-mode:multiply"/>
<path d="M623 269.5H618V264.5H623V269.5ZM619.25 268.25H621.75V265.75H619.25V268.25Z" fill="white"/>
<path d="M616.125 271.375V267.625H611.125V276.375H619.875V271.375H616.125ZM612.375 268.875H614.875V271.375H612.375V268.875ZM614.875 275.125H612.375V272.625H614.875V275.125ZM618.625 275.125H616.125V272.625H618.625V275.125Z" fill="white"/>
<path d="M621.75 279.5H609.25C608.919 279.5 608.601 279.368 608.367 279.133C608.132 278.899 608 278.581 608 278.25V265.75C608 265.419 608.132 265.101 608.367 264.867C608.601 264.632 608.919 264.5 609.25 264.5H615.5V265.75H609.25V278.25H621.75V272H623V278.25C623 278.581 622.868 278.899 622.633 279.133C622.399 279.368 622.081 279.5 621.75 279.5Z" fill="white"/>
<path d="M588.022 318.168C589.772 318.168 590.934 317.314 591.634 315.858L590.136 314.976C589.814 315.858 589.128 316.53 588.022 316.53C586.65 316.53 585.768 315.578 585.768 313.898V312.358C585.768 310.692 586.65 309.698 588.022 309.698C589.114 309.698 589.73 310.286 590.01 311.154L591.592 310.314C590.906 308.802 589.772 308.06 588.022 308.06C585.446 308.06 583.808 309.894 583.808 313.184C583.808 316.474 585.446 318.168 588.022 318.168ZM596.156 318.168C598.256 318.168 599.558 316.684 599.558 314.332C599.558 311.994 598.256 310.524 596.156 310.524C594.07 310.524 592.768 311.994 592.768 314.332C592.768 316.684 594.07 318.168 596.156 318.168ZM596.156 316.726C595.232 316.726 594.644 316.124 594.644 315.018V313.66C594.644 312.568 595.232 311.966 596.156 311.966C597.094 311.966 597.682 312.568 597.682 313.66V315.018C597.682 316.124 597.094 316.726 596.156 316.726ZM603.099 318V313.17C603.099 312.386 603.813 311.994 604.555 311.994C605.409 311.994 605.759 312.526 605.759 313.562V318H607.551V313.38C607.551 311.56 606.711 310.524 605.213 310.524C604.079 310.524 603.463 311.126 603.169 311.91H603.099V310.692H601.307V318H603.099ZM611.979 318H613.267V316.572H611.881V312.12H613.379V310.692H611.881V308.69H610.271V309.936C610.271 310.44 610.103 310.692 609.571 310.692H609.011V312.12H610.089V316.138C610.089 317.328 610.747 318 611.979 318ZM616.9 318.168C617.992 318.168 618.79 317.678 619.028 316.74H619.112C619.224 317.496 619.7 318 620.47 318H621.464V316.572H620.736V313.128C620.736 311.462 619.686 310.524 617.712 310.524C616.242 310.524 615.388 311.084 614.856 311.924L615.92 312.876C616.27 312.372 616.746 311.952 617.586 311.952C618.538 311.952 618.944 312.428 618.944 313.24V313.772H617.698C615.71 313.772 614.576 314.514 614.576 316.012C614.576 317.314 615.416 318.168 616.9 318.168ZM617.502 316.866C616.802 316.866 616.396 316.572 616.396 315.984V315.746C616.396 315.172 616.858 314.85 617.796 314.85H618.944V315.816C618.944 316.502 618.3 316.866 617.502 316.866ZM623.97 309.628C624.698 309.628 625.02 309.25 625.02 308.732V308.452C625.02 307.934 624.698 307.556 623.97 307.556C623.228 307.556 622.92 307.934 622.92 308.452V308.732C622.92 309.25 623.228 309.628 623.97 309.628ZM623.074 318H624.866V310.692H623.074V318ZM628.895 318V313.17C628.895 312.386 629.609 311.994 630.351 311.994C631.205 311.994 631.555 312.526 631.555 313.562V318H633.347V313.38C633.347 311.56 632.507 310.524 631.009 310.524C629.875 310.524 629.259 311.126 628.965 311.91H628.895V310.692H627.103V318H628.895ZM638.448 318.168C639.806 318.168 640.87 317.65 641.472 316.824L640.506 315.746C640.058 316.32 639.526 316.74 638.644 316.74C637.468 316.74 636.866 316.026 636.866 314.976V314.794H641.724V314.206C641.724 312.204 640.674 310.524 638.392 310.524C636.25 310.524 635.004 312.022 635.004 314.332C635.004 316.67 636.292 318.168 638.448 318.168ZM638.42 311.868C639.344 311.868 639.862 312.554 639.862 313.562V313.688H636.866V313.576C636.866 312.568 637.482 311.868 638.42 311.868ZM645.252 318V313.52C645.252 312.722 645.882 312.386 647.086 312.386H647.646V310.692H647.254C646.092 310.692 645.504 311.434 645.322 312.204H645.252V310.692H643.46V318H645.252Z" fill="black"/>
<path d="M831 272L836 274.887L836 269.113L831 272ZM833.906 272.5L835.844 272.5L835.844 271.5L833.906 271.5L833.906 272.5ZM837.781 272.5L839.719 272.5L839.719 271.5L837.781 271.5L837.781 272.5ZM841.656 272.5L843.594 272.5L843.594 271.5L841.656 271.5L841.656 272.5ZM845.531 272.5L847.469 272.5L847.469 271.5L845.531 271.5L845.531 272.5ZM849.406 272.5L851.344 272.5L851.344 271.5L849.406 271.5L849.406 272.5ZM853.281 272.5L855.219 272.5L855.219 271.5L853.281 271.5L853.281 272.5ZM857.156 272.5L859.094 272.5L859.094 271.5L857.156 271.5L857.156 272.5ZM861.031 272.5L862.969 272.5L862.969 271.5L861.031 271.5L861.031 272.5ZM864.906 272.5L866.844 272.5L866.844 271.5L864.906 271.5L864.906 272.5ZM868.781 272.5L870.719 272.5L870.719 271.5L868.781 271.5L868.781 272.5ZM872.656 272.5L874.594 272.5L874.594 271.5L872.656 271.5L872.656 272.5ZM876.531 272.5L878.469 272.5L878.469 271.5L876.531 271.5L876.531 272.5ZM880.406 272.5L882.344 272.5L882.344 271.5L880.406 271.5L880.406 272.5ZM884.281 272.5L886.219 272.5L886.219 271.5L884.281 271.5L884.281 272.5ZM888.156 272.5L890.094 272.5L890.094 271.5L888.156 271.5L888.156 272.5ZM892.031 272.5L893 272.5L893 271.5L892.031 271.5L892.031 272.5Z" fill="#736F6F"/>
<rect width="76" height="74" transform="translate(866 248)" fill="white" style="mix-blend-mode:multiply"/>
<rect width="48" height="48" transform="translate(880 248)" fill="#8D8D8D"/>
<rect width="20" height="20" transform="translate(894 262)" fill="white" style="mix-blend-mode:multiply"/>
<path d="M897.75 280.75H910.25C910.582 280.75 910.899 280.618 911.134 280.383C911.368 280.149 911.5 279.831 911.5 279.5V275.75C911.5 275.418 911.368 275.1 911.134 274.866C910.899 274.631 910.582 274.5 910.25 274.5H897.75C897.418 274.5 897.101 274.631 896.866 274.866C896.632 275.1 896.5 275.418 896.5 275.75V279.5C896.5 279.831 896.632 280.149 896.866 280.383C897.101 280.618 897.418 280.75 897.75 280.75ZM897.75 275.75H910.25V279.5H897.75V275.75Z" fill="white"/>
<path d="M899.625 278.25C899.97 278.25 900.25 277.97 900.25 277.625C900.25 277.279 899.97 277 899.625 277C899.28 277 899 277.279 899 277.625C899 277.97 899.28 278.25 899.625 278.25Z" fill="white"/>
<path d="M910.25 263.25L909.369 264.131L910.981 265.75H907.947C907.504 264.797 906.732 264.037 905.773 263.607C904.814 263.178 903.733 263.109 902.727 263.413C901.721 263.717 900.859 264.374 900.299 265.262C899.738 266.15 899.517 267.211 899.675 268.25H897.019L898.631 266.631L897.75 265.75L894.625 268.875L897.75 272L898.631 271.118L897.019 269.5H900.053C900.496 270.452 901.268 271.213 902.227 271.642C903.186 272.071 904.267 272.14 905.273 271.836C906.279 271.532 907.141 270.876 907.701 269.987C908.262 269.099 908.483 268.038 908.325 267H910.981L909.369 268.618L910.25 269.5L913.375 266.375L910.25 263.25ZM907.125 267.625C907.127 268.28 906.923 268.919 906.541 269.451C906.159 269.983 905.619 270.381 904.998 270.589C904.377 270.797 903.706 270.803 903.081 270.608C902.456 270.412 901.908 270.024 901.516 269.5H904V268.25H900.938C900.794 267.555 900.891 266.833 901.212 266.201C901.534 265.569 902.062 265.066 902.708 264.775C903.355 264.484 904.081 264.421 904.767 264.599C905.454 264.776 906.06 265.182 906.484 265.75H904V267H907.062C907.104 267.205 907.125 267.415 907.125 267.625Z" fill="white"/>
<path d="M867.122 318H868.914V315.774L869.88 314.724L871.756 318H873.884L871.098 313.52L873.618 310.692H871.588L869.95 312.568L868.984 313.884H868.914V307.64H867.122V318ZM879.374 318H881.166V310.692H879.374V315.522C879.374 316.306 878.66 316.684 877.946 316.684C877.092 316.684 876.714 316.138 876.714 315.13V310.692H874.922V315.312C874.922 317.132 875.762 318.168 877.26 318.168C878.464 318.168 879.052 317.51 879.304 316.782H879.374V318ZM883.397 318H885.189V316.782H885.245C885.525 317.608 886.295 318.168 887.261 318.168C889.109 318.168 890.131 316.782 890.131 314.332C890.131 311.896 889.109 310.524 887.261 310.524C886.295 310.524 885.511 311.056 885.245 311.896H885.189V307.64H883.397V318ZM886.687 316.684C885.833 316.684 885.189 316.25 885.189 315.494V313.17C885.189 312.456 885.833 311.994 886.687 311.994C887.611 311.994 888.255 312.68 888.255 313.716V314.976C888.255 316.012 887.611 316.684 886.687 316.684ZM894.905 318.168C896.263 318.168 897.327 317.65 897.929 316.824L896.963 315.746C896.515 316.32 895.983 316.74 895.101 316.74C893.925 316.74 893.323 316.026 893.323 314.976V314.794H898.181V314.206C898.181 312.204 897.131 310.524 894.849 310.524C892.707 310.524 891.461 312.022 891.461 314.332C891.461 316.67 892.749 318.168 894.905 318.168ZM894.877 311.868C895.801 311.868 896.319 312.554 896.319 313.562V313.688H893.323V313.576C893.323 312.568 893.939 311.868 894.877 311.868ZM903.835 314.626V312.848H899.831V314.626H903.835ZM905.847 320.8H907.639V316.782H907.695C907.975 317.608 908.745 318.168 909.711 318.168C911.559 318.168 912.581 316.782 912.581 314.332C912.581 311.896 911.559 310.524 909.711 310.524C908.745 310.524 907.961 311.056 907.695 311.896H907.639V310.692H905.847V320.8ZM909.137 316.684C908.283 316.684 907.639 316.25 907.639 315.494V313.17C907.639 312.456 908.283 311.994 909.137 311.994C910.061 311.994 910.705 312.68 910.705 313.716V314.976C910.705 316.012 910.061 316.684 909.137 316.684ZM916.194 318V313.52C916.194 312.722 916.824 312.386 918.028 312.386H918.588V310.692H918.196C917.034 310.692 916.446 311.434 916.264 312.204H916.194V310.692H914.402V318H916.194ZM922.888 318.168C924.988 318.168 926.29 316.684 926.29 314.332C926.29 311.994 924.988 310.524 922.888 310.524C920.802 310.524 919.5 311.994 919.5 314.332C919.5 316.684 920.802 318.168 922.888 318.168ZM922.888 316.726C921.964 316.726 921.376 316.124 921.376 315.018V313.66C921.376 312.568 921.964 311.966 922.888 311.966C923.826 311.966 924.414 312.568 924.414 313.66V315.018C924.414 316.124 923.826 316.726 922.888 316.726ZM927.063 318H928.967L930.507 315.48H930.563L932.103 318H934.147L931.655 314.318L934.133 310.692H932.229L930.731 313.114H930.675L929.163 310.692H927.119L929.555 314.29L927.063 318ZM938.815 314.556L938.311 316.404H938.227L937.751 314.556L936.477 310.692H934.699L937.317 318.35L936.981 319.372H935.665V320.8H936.743C937.947 320.8 938.465 320.352 938.829 319.302L941.769 310.692H940.089L938.815 314.556Z" fill="black"/>
<path fill-rule="evenodd" clip-rule="evenodd" d="M339 269.113L344 272L339 274.887L339 272.5L102 272.5L102 271.5L339 271.5L339 269.113Z" fill="#8F8B8B"/>
<path fill-rule="evenodd" clip-rule="evenodd" d="M436 269.113L441 272L436 274.887V272.5H243V271.5H436V269.113Z" fill="#8F8B8B"/>
<path fill-rule="evenodd" clip-rule="evenodd" d="M587 269.113L592 272L587 274.887V272.5H387V271.5H587V269.113Z" fill="#8F8B8B"/>
<rect width="91" height="110" transform="translate(322 248)" fill="white" style="mix-blend-mode:multiply"/>
<rect x="344" y="248.5" width="47" height="47" fill="#D9FBFB"/>
<path d="M344.5 249H390.5V295H344.5V249Z" fill="white"/>
<path d="M344.5 249H390.5V295H344.5V249Z" fill="#D9FBFB"/>
<rect width="20" height="20" transform="translate(357.5 262)" fill="white" style="mix-blend-mode:multiply"/>
<path d="M362.5 280.75H358.75V277H362.5V280.75ZM360 279.5H361.25V278.25H360V279.5Z" fill="#161616"/>
<path d="M369.375 280.75H365.625V277H369.375V280.75ZM366.875 279.5H368.125V278.25H366.875V279.5Z" fill="#161616"/>
<path d="M376.25 280.75H372.5V277H376.25V280.75ZM373.75 279.5H375V278.25H373.75V279.5Z" fill="#161616"/>
<path d="M367.5 268.25C367.006 268.25 366.522 268.103 366.111 267.829C365.7 267.554 365.38 267.164 365.19 266.707C365.001 266.25 364.952 265.747 365.048 265.262C365.144 264.777 365.383 264.332 365.732 263.982C366.082 263.633 366.527 263.395 367.012 263.298C367.497 263.202 368 263.251 368.457 263.44C368.914 263.63 369.304 263.95 369.579 264.361C369.853 264.772 370 265.256 370 265.75C369.999 266.413 369.736 267.048 369.267 267.517C368.798 267.986 368.163 268.249 367.5 268.25ZM367.5 264.5C367.253 264.5 367.011 264.573 366.806 264.711C366.6 264.848 366.44 265.043 366.345 265.272C366.251 265.5 366.226 265.751 366.274 265.994C366.322 266.236 366.441 266.459 366.616 266.634C366.791 266.809 367.014 266.928 367.256 266.976C367.499 267.024 367.75 266.999 367.978 266.905C368.207 266.81 368.402 266.65 368.539 266.444C368.677 266.239 368.75 265.997 368.75 265.75C368.75 265.419 368.618 265.101 368.384 264.866C368.149 264.632 367.831 264.5 367.5 264.5Z" fill="#161616"/>
<path d="M373.75 272H370.625C369.962 271.999 369.327 271.736 368.858 271.267C368.389 270.798 368.126 270.163 368.125 269.5H366.875C366.874 270.163 366.611 270.798 366.142 271.267C365.673 271.736 365.038 271.999 364.375 272H361.25C360.919 272 360.601 272.132 360.367 272.367C360.132 272.601 360 272.919 360 273.25V275.75H361.25V273.25H364.375C365.299 273.25 366.19 272.907 366.875 272.288V275.75H368.125V272.288C368.81 272.907 369.701 273.25 370.625 273.25H373.75V275.75H375V273.25C375 272.919 374.868 272.601 374.633 272.367C374.399 272.132 374.081 272 373.75 272Z" fill="#161616"/>
<rect x="344" y="248.5" width="47" height="47" stroke="#009D9A"/>
<path d="M346.058 318H348.088V308.228H346.338V315.27H346.296L345.288 313.24L342.348 308.228H340.318V318H342.068V310.958H342.11L343.118 312.988L346.058 318ZM353.383 318.168C354.741 318.168 355.805 317.65 356.407 316.824L355.441 315.746C354.993 316.32 354.461 316.74 353.579 316.74C352.403 316.74 351.801 316.026 351.801 314.976V314.794H356.659V314.206C356.659 312.204 355.609 310.524 353.327 310.524C351.185 310.524 349.939 312.022 349.939 314.332C349.939 316.67 351.227 318.168 353.383 318.168ZM353.355 311.868C354.279 311.868 354.797 312.554 354.797 313.562V313.688H351.801V313.576C351.801 312.568 352.417 311.868 353.355 311.868ZM360.678 318H361.966V316.572H360.58V312.12H362.078V310.692H360.58V308.69H358.97V309.936C358.97 310.44 358.802 310.692 358.27 310.692H357.71V312.12H358.788V316.138C358.788 317.328 359.446 318 360.678 318ZM365.094 318H366.998L367.922 314.78L368.454 312.792H368.496L369.042 314.78L369.98 318H371.912L373.914 310.692H372.248L371.52 313.702L370.946 316.208H370.89L370.204 313.702L369.322 310.692H367.698L366.844 313.702L366.172 316.208H366.116L365.542 313.702L364.8 310.692H363.078L365.094 318ZM378.198 318.168C380.298 318.168 381.6 316.684 381.6 314.332C381.6 311.994 380.298 310.524 378.198 310.524C376.112 310.524 374.81 311.994 374.81 314.332C374.81 316.684 376.112 318.168 378.198 318.168ZM378.198 316.726C377.274 316.726 376.686 316.124 376.686 315.018V313.66C376.686 312.568 377.274 311.966 378.198 311.966C379.136 311.966 379.724 312.568 379.724 313.66V315.018C379.724 316.124 379.136 316.726 378.198 316.726ZM385.14 318V313.52C385.14 312.722 385.77 312.386 386.974 312.386H387.534V310.692H387.142C385.98 310.692 385.392 311.434 385.21 312.204H385.14V310.692H383.348V318H385.14ZM389.004 318H390.796V315.774L391.762 314.724L393.638 318H395.766L392.98 313.52L395.5 310.692H393.47L391.832 312.568L390.866 313.884H390.796V307.64H389.004V318ZM328.991 336V334.362H325.141V326.228H323.293V336H328.991ZM333.403 336.168C335.503 336.168 336.805 334.684 336.805 332.332C336.805 329.994 335.503 328.524 333.403 328.524C331.317 328.524 330.015 329.994 330.015 332.332C330.015 334.684 331.317 336.168 333.403 336.168ZM333.403 334.726C332.479 334.726 331.891 334.124 331.891 333.018V331.66C331.891 330.568 332.479 329.966 333.403 329.966C334.341 329.966 334.929 330.568 334.929 331.66V333.018C334.929 334.124 334.341 334.726 333.403 334.726ZM340.36 336.168C341.452 336.168 342.25 335.678 342.488 334.74H342.572C342.684 335.496 343.16 336 343.93 336H344.924V334.572H344.196V331.128C344.196 329.462 343.146 328.524 341.172 328.524C339.702 328.524 338.848 329.084 338.316 329.924L339.38 330.876C339.73 330.372 340.206 329.952 341.046 329.952C341.998 329.952 342.404 330.428 342.404 331.24V331.772H341.158C339.17 331.772 338.036 332.514 338.036 334.012C338.036 335.314 338.876 336.168 340.36 336.168ZM340.962 334.866C340.262 334.866 339.856 334.572 339.856 333.984V333.746C339.856 333.172 340.318 332.85 341.256 332.85H342.404V333.816C342.404 334.502 341.76 334.866 340.962 334.866ZM351.07 336H352.862V325.64H351.07V329.896H351C350.748 329.056 349.95 328.524 348.984 328.524C347.15 328.524 346.128 329.896 346.128 332.332C346.128 334.782 347.15 336.168 348.984 336.168C349.95 336.168 350.734 335.608 351 334.782H351.07V336ZM349.558 334.684C348.634 334.684 348.004 334.012 348.004 332.976V331.716C348.004 330.68 348.634 329.994 349.558 329.994C350.412 329.994 351.07 330.456 351.07 331.17V333.494C351.07 334.25 350.412 334.684 349.558 334.684ZM355.201 336H360.157C361.599 336 362.677 334.768 362.677 333.2C362.677 331.534 361.417 330.932 360.563 330.918V330.834C361.459 330.778 362.313 330.218 362.313 328.734C362.313 327.222 361.333 326.228 359.723 326.228H355.201V336ZM357.049 331.814H359.625C360.325 331.814 360.745 332.206 360.745 332.892V333.368C360.745 334.054 360.325 334.432 359.625 334.432H357.049V331.814ZM357.049 327.796H359.331C360.003 327.796 360.395 328.174 360.395 328.832V329.266C360.395 329.91 360.003 330.302 359.331 330.302H357.049V327.796ZM366.338 336.168C367.43 336.168 368.228 335.678 368.466 334.74H368.55C368.662 335.496 369.138 336 369.908 336H370.902V334.572H370.174V331.128C370.174 329.462 369.124 328.524 367.15 328.524C365.68 328.524 364.826 329.084 364.294 329.924L365.358 330.876C365.708 330.372 366.184 329.952 367.024 329.952C367.976 329.952 368.382 330.428 368.382 331.24V331.772H367.136C365.148 331.772 364.014 332.514 364.014 334.012C364.014 335.314 364.854 336.168 366.338 336.168ZM366.94 334.866C366.24 334.866 365.834 334.572 365.834 333.984V333.746C365.834 333.172 366.296 332.85 367.234 332.85H368.382V333.816C368.382 334.502 367.738 334.866 366.94 334.866ZM375.27 336V334.572H374.304V325.64H372.512V334.236C372.512 335.356 373.086 336 374.304 336H375.27ZM378.594 336.168C379.686 336.168 380.484 335.678 380.722 334.74H380.806C380.918 335.496 381.394 336 382.164 336H383.158V334.572H382.43V331.128C382.43 329.462 381.38 328.524 379.406 328.524C377.936 328.524 377.082 329.084 376.55 329.924L377.614 330.876C377.964 330.372 378.44 329.952 379.28 329.952C380.232 329.952 380.638 330.428 380.638 331.24V331.772H379.392C377.404 331.772 376.27 332.514 376.27 334.012C376.27 335.314 377.11 336.168 378.594 336.168ZM379.196 334.866C378.496 334.866 378.09 334.572 378.09 333.984V333.746C378.09 333.172 378.552 332.85 379.49 332.85H380.638V333.816C380.638 334.502 379.994 334.866 379.196 334.866ZM386.56 336V331.17C386.56 330.386 387.274 329.994 388.016 329.994C388.87 329.994 389.22 330.526 389.22 331.562V336H391.012V331.38C391.012 329.56 390.172 328.524 388.674 328.524C387.54 328.524 386.924 329.126 386.63 329.91H386.56V328.692H384.768V336H386.56ZM396.042 336.168C397.456 336.168 398.478 335.524 398.954 334.236L397.582 333.578C397.316 334.236 396.896 334.726 396.042 334.726C395.048 334.726 394.544 334.04 394.544 333.018V331.688C394.544 330.666 395.048 329.966 396.042 329.966C396.812 329.966 397.274 330.414 397.442 331.03L398.912 330.372C398.478 329.224 397.512 328.524 396.042 328.524C393.886 328.524 392.668 329.994 392.668 332.332C392.668 334.684 393.886 336.168 396.042 336.168ZM403.382 336.168C404.74 336.168 405.804 335.65 406.406 334.824L405.44 333.746C404.992 334.32 404.46 334.74 403.578 334.74C402.402 334.74 401.8 334.026 401.8 332.976V332.794H406.658V332.206C406.658 330.204 405.608 328.524 403.326 328.524C401.184 328.524 399.938 330.022 399.938 332.332C399.938 334.67 401.226 336.168 403.382 336.168ZM403.354 329.868C404.278 329.868 404.796 330.554 404.796 331.562V331.688H401.8V331.576C401.8 330.568 402.416 329.868 403.354 329.868ZM410.187 336V331.52C410.187 330.722 410.817 330.386 412.021 330.386H412.581V328.692H412.189C411.027 328.692 410.439 329.434 410.257 330.204H410.187V328.692H408.395V336H410.187ZM330.841 349.632C330.841 352.362 331.933 354.756 333.305 355.932H334.999C333.501 354.574 332.521 352.488 332.521 350.164V349.128C332.521 346.86 333.487 344.76 334.999 343.36H333.305C331.905 344.578 330.841 346.93 330.841 349.632ZM339.204 354.168C341.542 354.168 342.872 352.908 342.872 351.06C342.872 349.45 341.948 348.568 339.974 348.218L339.064 348.05C338.126 347.882 337.706 347.574 337.706 346.832C337.706 346.104 338.252 345.684 339.302 345.684C340.338 345.684 341.01 346.09 341.486 346.692L342.746 345.502C341.962 344.564 340.87 344.06 339.4 344.06C337.216 344.06 335.858 345.194 335.858 346.944C335.858 348.54 336.81 349.478 338.784 349.786L339.708 349.926C340.73 350.108 341.038 350.514 341.038 351.172C341.038 351.998 340.45 352.544 339.316 352.544C338.308 352.544 337.482 352.124 336.81 351.34L335.564 352.544C336.39 353.51 337.538 354.168 339.204 354.168ZM345.669 345.628C346.397 345.628 346.719 345.25 346.719 344.732V344.452C346.719 343.934 346.397 343.556 345.669 343.556C344.927 343.556 344.619 343.934 344.619 344.452V344.732C344.619 345.25 344.927 345.628 345.669 345.628ZM344.773 354H346.565V346.692H344.773V354ZM350.594 354V349.17C350.594 348.386 351.308 347.994 352.05 347.994C352.904 347.994 353.254 348.526 353.254 349.562V354H355.046V349.38C355.046 347.56 354.206 346.524 352.708 346.524C351.574 346.524 350.958 347.126 350.664 347.91H350.594V346.692H348.802V354H350.594ZM363.786 354.616C363.786 353.3 363.016 352.53 361.224 352.53H359.264C358.62 352.53 358.312 352.348 358.312 351.984C358.312 351.662 358.55 351.452 358.83 351.326C359.152 351.41 359.53 351.452 359.95 351.452C361.938 351.452 362.974 350.472 362.974 349.002C362.974 348.106 362.596 347.392 361.84 346.972V346.776H363.394V345.404H362.26C361.588 345.404 361.224 345.754 361.224 346.468V346.706C360.86 346.58 360.398 346.524 359.95 346.524C357.976 346.524 356.926 347.518 356.926 349.002C356.926 349.968 357.374 350.724 358.256 351.13V351.186C357.556 351.34 356.912 351.718 356.912 352.474C356.912 353.062 357.248 353.538 357.85 353.692V353.846C357.038 353.972 356.548 354.434 356.548 355.246C356.548 356.324 357.486 356.968 359.95 356.968C362.75 356.968 363.786 356.142 363.786 354.616ZM362.106 354.826C362.106 355.442 361.588 355.736 360.426 355.736H359.53C358.41 355.736 357.99 355.4 357.99 354.84C357.99 354.546 358.102 354.28 358.368 354.084H360.86C361.77 354.084 362.106 354.364 362.106 354.826ZM359.95 350.234C359.096 350.234 358.634 349.842 358.634 349.114V348.876C358.634 348.134 359.096 347.756 359.95 347.756C360.804 347.756 361.266 348.134 361.266 348.876V349.114C361.266 349.842 360.804 350.234 359.95 350.234ZM367.739 354V352.572H366.773V343.64H364.981V352.236C364.981 353.356 365.555 354 366.773 354H367.739ZM372.211 354.168C373.569 354.168 374.633 353.65 375.235 352.824L374.269 351.746C373.821 352.32 373.289 352.74 372.407 352.74C371.231 352.74 370.629 352.026 370.629 350.976V350.794H375.487V350.206C375.487 348.204 374.437 346.524 372.155 346.524C370.013 346.524 368.767 348.022 368.767 350.332C368.767 352.67 370.055 354.168 372.211 354.168ZM372.183 347.868C373.107 347.868 373.625 348.554 373.625 349.562V349.688H370.629V349.576C370.629 348.568 371.245 347.868 372.183 347.868ZM381.14 350.626V348.848H377.136V350.626H381.14ZM391.012 354L387.764 344.228H385.468L382.192 354H384.068L384.838 351.508H388.31L389.094 354H391.012ZM387.862 349.926H385.286L386.532 345.908H386.602L387.862 349.926ZM399.318 352.362H394.11L399.178 345.88V344.228H392.248V345.866H397.05L391.996 352.348V354H399.318V352.362ZM404.16 349.632C404.16 346.93 403.096 344.578 401.696 343.36H400.002C401.514 344.76 402.48 346.86 402.48 349.128V350.164C402.48 352.488 401.5 354.574 400.002 355.932H401.696C403.068 354.756 404.16 352.362 404.16 349.632Z" fill="black"/>
<circle cx="96" cy="272" r="24" fill="#161616"/>
<rect width="20" height="20" transform="translate(86 262)" fill="white" style="mix-blend-mode:multiply"/>
<path d="M96 264.5C96.6181 264.5 97.2223 264.683 97.7362 265.027C98.2501 265.37 98.6506 265.858 98.8871 266.429C99.1236 267 99.1855 267.628 99.065 268.235C98.9444 268.841 98.6467 269.398 98.2097 269.835C97.7727 270.272 97.2158 270.569 96.6097 270.69C96.0035 270.811 95.3751 270.749 94.8041 270.512C94.2331 270.276 93.745 269.875 93.4017 269.361C93.0583 268.847 92.875 268.243 92.875 267.625C92.875 266.796 93.2042 266.001 93.7903 265.415C94.3763 264.829 95.1712 264.5 96 264.5ZM96 263.25C95.1347 263.25 94.2888 263.507 93.5694 263.987C92.8499 264.468 92.2892 265.151 91.958 265.951C91.6269 266.75 91.5403 267.63 91.7091 268.479C91.8779 269.327 92.2946 270.107 92.9064 270.719C93.5183 271.33 94.2978 271.747 95.1465 271.916C95.9951 272.085 96.8748 271.998 97.6742 271.667C98.4737 271.336 99.1569 270.775 99.6377 270.056C100.118 269.336 100.375 268.49 100.375 267.625C100.375 266.465 99.9141 265.352 99.0936 264.531C98.2731 263.711 97.1603 263.25 96 263.25Z" fill="white"/>
<path d="M102.25 280.75H101V277.625C101 277.215 100.919 276.808 100.762 276.429C100.605 276.05 100.375 275.705 100.085 275.415C99.7945 275.125 99.45 274.895 99.0709 274.738C98.6917 274.581 98.2854 274.5 97.875 274.5H94.125C93.2962 274.5 92.5013 274.829 91.9153 275.415C91.3292 276.001 91 276.796 91 277.625V280.75H89.75V277.625C89.75 276.465 90.2109 275.352 91.0314 274.531C91.8519 273.711 92.9647 273.25 94.125 273.25H97.875C99.0353 273.25 100.148 273.711 100.969 274.531C101.789 275.352 102.25 276.465 102.25 277.625V280.75Z" fill="white"/>
<path d="M81.8605 308.228V313.996C81.8605 316.866 82.8545 318.168 85.5985 318.168C88.3425 318.168 89.3645 316.866 89.3645 313.996V308.228H87.5445V314.234C87.5445 315.76 87.0125 316.53 85.6125 316.53C84.2125 316.53 83.6805 315.76 83.6805 314.234V308.228H81.8605ZM94.0385 318.168C95.8585 318.168 97.0485 317.188 97.0485 315.774C97.0485 314.556 96.2785 313.842 94.6825 313.618L93.9405 313.52C93.2545 313.408 92.9885 313.184 92.9885 312.694C92.9885 312.246 93.3245 311.938 94.0945 311.938C94.8085 311.938 95.4245 312.274 95.8445 312.722L96.8945 311.672C96.1945 310.944 95.4665 310.524 94.0385 310.524C92.3725 310.524 91.2665 311.42 91.2665 312.834C91.2665 314.164 92.1345 314.85 93.7025 315.046L94.4305 315.144C95.0745 315.228 95.3265 315.494 95.3265 315.914C95.3265 316.432 94.9625 316.754 94.1085 316.754C93.2825 316.754 92.6385 316.376 92.1065 315.76L91.0145 316.824C91.7425 317.664 92.6525 318.168 94.0385 318.168ZM101.745 318.168C103.103 318.168 104.167 317.65 104.769 316.824L103.803 315.746C103.355 316.32 102.823 316.74 101.941 316.74C100.765 316.74 100.163 316.026 100.163 314.976V314.794H105.021V314.206C105.021 312.204 103.971 310.524 101.689 310.524C99.5468 310.524 98.3008 312.022 98.3008 314.332C98.3008 316.67 99.5888 318.168 101.745 318.168ZM101.717 311.868C102.641 311.868 103.159 312.554 103.159 313.562V313.688H100.163V313.576C100.163 312.568 100.779 311.868 101.717 311.868ZM108.549 318V313.52C108.549 312.722 109.179 312.386 110.383 312.386H110.943V310.692H110.551C109.389 310.692 108.801 311.434 108.619 312.204H108.549V310.692H106.757V318H108.549Z" fill="black"/>
<rect width="63" height="74" transform="translate(433 248)" fill="white" style="mix-blend-mode:multiply"/>
<rect x="441" y="248.5" width="47" height="47" fill="#EDF5FF"/>
<path d="M441.5 249H487.5V295H441.5V249Z" fill="white"/>
<path d="M441.5 249H487.5V295H441.5V249Z" fill="#EDF5FF"/>
<rect width="20" height="20" transform="translate(454.5 262)" fill="white" style="mix-blend-mode:multiply"/>
<path d="M470.125 268.875C469.405 268.876 468.707 269.125 468.15 269.581C467.592 270.036 467.208 270.67 467.063 271.375H461.937C461.782 270.616 461.351 269.942 460.727 269.483C460.103 269.024 459.331 268.813 458.561 268.891C457.79 268.969 457.076 269.33 456.557 269.904C456.038 270.479 455.75 271.226 455.75 272C455.75 272.774 456.038 273.521 456.557 274.096C457.076 274.67 457.79 275.031 458.561 275.109C459.331 275.187 460.103 274.976 460.727 274.517C461.351 274.058 461.782 273.384 461.937 272.625H467.063C467.181 273.204 467.462 273.738 467.871 274.165C468.281 274.591 468.803 274.893 469.377 275.034C469.951 275.176 470.554 275.151 471.115 274.964C471.676 274.777 472.172 274.434 472.546 273.976C472.92 273.518 473.156 272.964 473.227 272.377C473.299 271.79 473.202 271.195 472.948 270.66C472.695 270.126 472.295 269.675 471.795 269.359C471.296 269.043 470.716 268.875 470.125 268.875ZM470.125 273.875C469.754 273.875 469.392 273.765 469.083 273.559C468.775 273.353 468.535 273.06 468.393 272.718C468.251 272.375 468.214 271.998 468.286 271.634C468.358 271.27 468.537 270.936 468.799 270.674C469.061 270.412 469.396 270.233 469.759 270.161C470.123 270.089 470.5 270.126 470.843 270.268C471.185 270.41 471.478 270.65 471.684 270.958C471.89 271.267 472 271.629 472 272C472 272.497 471.802 272.974 471.45 273.325C471.099 273.677 470.622 273.874 470.125 273.875Z" fill="black"/>
<rect x="441" y="248.5" width="47" height="47" stroke="#0F62FE"/>
<path d="M440.217 318H442.247V308.228H440.497V315.27H440.455L439.447 313.24L436.507 308.228H434.477V318H436.227V310.958H436.269L437.277 312.988L440.217 318ZM447.485 318.168C449.585 318.168 450.887 316.684 450.887 314.332C450.887 311.994 449.585 310.524 447.485 310.524C445.399 310.524 444.097 311.994 444.097 314.332C444.097 316.684 445.399 318.168 447.485 318.168ZM447.485 316.726C446.561 316.726 445.973 316.124 445.973 315.018V313.66C445.973 312.568 446.561 311.966 447.485 311.966C448.423 311.966 449.011 312.568 449.011 313.66V315.018C449.011 316.124 448.423 316.726 447.485 316.726ZM457.172 318H458.964V307.64H457.172V311.896H457.102C456.85 311.056 456.052 310.524 455.086 310.524C453.252 310.524 452.23 311.896 452.23 314.332C452.23 316.782 453.252 318.168 455.086 318.168C456.052 318.168 456.836 317.608 457.102 316.782H457.172V318ZM455.66 316.684C454.736 316.684 454.106 316.012 454.106 314.976V313.716C454.106 312.68 454.736 311.994 455.66 311.994C456.514 311.994 457.172 312.456 457.172 313.17V315.494C457.172 316.25 456.514 316.684 455.66 316.684ZM464.144 318.168C465.502 318.168 466.566 317.65 467.168 316.824L466.202 315.746C465.754 316.32 465.222 316.74 464.34 316.74C463.164 316.74 462.562 316.026 462.562 314.976V314.794H467.42V314.206C467.42 312.204 466.37 310.524 464.088 310.524C461.946 310.524 460.7 312.022 460.7 314.332C460.7 316.67 461.988 318.168 464.144 318.168ZM464.116 311.868C465.04 311.868 465.558 312.554 465.558 313.562V313.688H462.562V313.576C462.562 312.568 463.178 311.868 464.116 311.868ZM469.157 320.8H470.949V316.782H471.005C471.285 317.608 472.055 318.168 473.021 318.168C474.869 318.168 475.891 316.782 475.891 314.332C475.891 311.896 474.869 310.524 473.021 310.524C472.055 310.524 471.271 311.056 471.005 311.896H470.949V310.692H469.157V320.8ZM472.447 316.684C471.593 316.684 470.949 316.25 470.949 315.494V313.17C470.949 312.456 471.593 311.994 472.447 311.994C473.371 311.994 474.015 312.68 474.015 313.716V314.976C474.015 316.012 473.371 316.684 472.447 316.684ZM480.61 318.168C482.71 318.168 484.012 316.684 484.012 314.332C484.012 311.994 482.71 310.524 480.61 310.524C478.524 310.524 477.222 311.994 477.222 314.332C477.222 316.684 478.524 318.168 480.61 318.168ZM480.61 316.726C479.686 316.726 479.098 316.124 479.098 315.018V313.66C479.098 312.568 479.686 311.966 480.61 311.966C481.548 311.966 482.136 312.568 482.136 313.66V315.018C482.136 316.124 481.548 316.726 480.61 316.726ZM487.552 318V313.52C487.552 312.722 488.182 312.386 489.386 312.386H489.946V310.692H489.554C488.392 310.692 487.804 311.434 487.622 312.204H487.552V310.692H485.76V318H487.552ZM493.753 318H495.041V316.572H493.655V312.12H495.153V310.692H493.655V308.69H492.045V309.936C492.045 310.44 491.877 310.692 491.345 310.692H490.785V312.12H491.863V316.138C491.863 317.328 492.521 318 493.753 318Z" fill="black"/>
<path fill-rule="evenodd" clip-rule="evenodd" d="M488 272.5L520 272.5C524.142 272.5 527.5 275.858 527.5 280L527.5 358L528.5 358L528.5 280C528.5 275.306 524.694 271.5 520 271.5L488 271.5L488 272.5Z" fill="#8F8B8B"/>
<path fill-rule="evenodd" clip-rule="evenodd" d="M528.5 360L528.5 338L527.5 338L527.5 360C527.5 364.694 531.306 368.5 536 368.5L704 368.5C708.694 368.5 712.5 364.694 712.5 360L712.5 359.203L711.5 359.203L711.5 360C711.5 364.142 708.142 367.5 704 367.5L536 367.5C531.858 367.5 528.5 364.142 528.5 360Z" fill="#8F8B8B"/>
<path fill-rule="evenodd" clip-rule="evenodd" d="M712.5 361V274.844C712.5 273.549 713.549 272.5 714.844 272.5H733V274.887L738 272L733 269.113V271.5H714.844C712.997 271.5 711.5 272.997 711.5 274.844V361H712.5Z" fill="#8F8B8B"/>
<defs>
<clipPath id="clip0_1218_55429">
<rect width="136" height="48" fill="white" transform="translate(696 184)"/>
</clipPath>
<clipPath id="clip1_1218_55429">
<rect width="136" height="48" fill="white" transform="translate(544 184)"/>
</clipPath>
</defs>
</svg>
