<svg width="1080" height="311" viewBox="0 0 1080 311" fill="none" xmlns="http://www.w3.org/2000/svg">
<rect width="1080" height="311" fill="#F4F4F4"/>
<path d="M310 68L318 72L310 76V68Z" fill="#8F8B8B"/>
<path d="M214.121 72.0312L311.206 72.0317" stroke="#8F8B8B"/>
<rect x="177.5" y="64.5" width="87" height="15" rx="7.5" fill="white"/>
<path d="M187.124 76V72.208H190.76V71.32H187.124V68.512H191.108V67.624H186.116V76H187.124ZM193.769 76V71.8C193.769 71.212 194.393 70.768 195.425 70.768H195.989V69.808H195.617C194.609 69.808 194.045 70.36 193.829 70.948H193.769V69.808H192.809V76H193.769ZM199.816 76.144C201.472 76.144 202.612 74.872 202.612 72.904C202.612 70.936 201.472 69.664 199.816 69.664C198.16 69.664 197.02 70.936 197.02 72.904C197.02 74.872 198.16 76.144 199.816 76.144ZM199.816 75.292C198.784 75.292 198.052 74.656 198.052 73.348V72.46C198.052 71.152 198.784 70.516 199.816 70.516C200.848 70.516 201.58 71.152 201.58 72.46V73.348C201.58 74.656 200.848 75.292 199.816 75.292ZM205.471 76V71.704C205.471 70.912 206.191 70.528 206.947 70.528C207.859 70.528 208.279 71.092 208.279 72.196V76H209.239V71.704C209.239 70.912 209.935 70.528 210.691 70.528C211.627 70.528 212.047 71.104 212.047 72.196V76H213.007V72.028C213.007 70.528 212.251 69.664 210.991 69.664C209.935 69.664 209.335 70.252 209.107 70.924H209.083C208.747 70.036 208.003 69.664 207.187 69.664C206.227 69.664 205.795 70.18 205.519 70.816H205.471V69.808H204.511V76H205.471ZM220.324 76.144C221.74 76.144 222.616 75.412 222.616 74.212C222.616 73.276 222.088 72.676 220.72 72.472L220.24 72.4C219.472 72.28 219.052 72.04 219.052 71.44C219.052 70.852 219.472 70.48 220.264 70.48C221.056 70.48 221.584 70.852 221.86 71.236L222.496 70.66C221.992 70.036 221.332 69.664 220.336 69.664C219.076 69.664 218.128 70.264 218.128 71.488C218.128 72.64 218.98 73.108 220.12 73.276L220.612 73.348C221.428 73.468 221.692 73.84 221.692 74.32C221.692 74.956 221.212 75.328 220.396 75.328C219.616 75.328 219.04 74.98 218.56 74.38L217.876 74.932C218.428 75.664 219.184 76.144 220.324 76.144ZM227.117 76V75.16H225.857V70.648H227.213V69.808H225.857V68.092H224.993V69.244C224.993 69.664 224.861 69.808 224.453 69.808H223.877V70.648H224.897V74.98C224.897 75.58 225.257 76 225.917 76H227.117ZM231.358 76.144C232.522 76.144 233.41 75.568 233.806 74.728L233.122 74.236C232.798 74.92 232.198 75.304 231.418 75.304C230.266 75.304 229.582 74.5 229.582 73.432V73.144H234.034V72.688C234.034 70.936 233.014 69.664 231.358 69.664C229.678 69.664 228.574 70.936 228.574 72.904C228.574 74.872 229.678 76.144 231.358 76.144ZM231.358 70.468C232.342 70.468 233.002 71.2 233.002 72.292V72.424H229.582V72.34C229.582 71.26 230.314 70.468 231.358 70.468ZM235.935 78.4H236.895V74.992H236.943C237.315 75.76 237.903 76.144 238.755 76.144C240.303 76.144 241.275 74.884 241.275 72.904C241.275 70.924 240.303 69.664 238.755 69.664C237.903 69.664 237.267 70.036 236.943 70.816H236.895V69.808H235.935V78.4ZM238.491 75.28C237.615 75.28 236.895 74.824 236.895 74.02V71.716C236.895 71.032 237.615 70.528 238.491 70.528C239.571 70.528 240.243 71.272 240.243 72.376V73.432C240.243 74.536 239.571 75.28 238.491 75.28ZM251.748 75.112H247.344L249.6 73.084C250.668 72.124 251.436 71.212 251.436 69.916C251.436 68.488 250.5 67.48 248.868 67.48C247.248 67.48 246.504 68.464 246.18 69.448L247.08 69.796C247.308 69.004 247.788 68.38 248.82 68.38C249.852 68.38 250.368 69.016 250.368 69.94V70.084C250.368 70.888 249.768 71.728 248.988 72.448L246.252 74.968V76H251.748V75.112ZM254.5 76.144C255.004 76.144 255.232 75.856 255.232 75.448V75.292C255.232 74.884 255.004 74.596 254.5 74.596C253.996 74.596 253.768 74.884 253.768 75.292V75.448C253.768 75.856 253.996 76.144 254.5 76.144Z" fill="black"/>
<rect x="177.5" y="64.5" width="87" height="15" rx="7.5" stroke="#393939"/>
<path d="M833.609 217H768.109H683H781.39" stroke="#8F8B8B"/>
<path d="M535.609 152H470.109H385H483.39" stroke="#8F8B8B"/>
<path d="M774 213L782 217L774 221V213Z" fill="#8F8B8B"/>
<rect x="782.5" y="209.5" width="94" height="15" rx="7.5" fill="white"/>
<path d="M794.068 221.144C795.46 221.144 796.48 220.412 797.008 219.236L796.204 218.732C795.868 219.644 795.136 220.244 794.068 220.244C792.628 220.244 791.776 219.2 791.776 217.484V216.236C791.776 214.52 792.628 213.38 794.068 213.38C795.1 213.38 795.796 213.944 796.132 214.808L796.948 214.316C796.42 213.152 795.46 212.48 794.068 212.48C791.956 212.48 790.696 214.064 790.696 216.86C790.696 219.656 791.956 221.144 794.068 221.144ZM801.133 221.144C802.789 221.144 803.929 219.872 803.929 217.904C803.929 215.936 802.789 214.664 801.133 214.664C799.477 214.664 798.337 215.936 798.337 217.904C798.337 219.872 799.477 221.144 801.133 221.144ZM801.133 220.292C800.101 220.292 799.369 219.656 799.369 218.348V217.46C799.369 216.152 800.101 215.516 801.133 215.516C802.165 215.516 802.897 216.152 802.897 217.46V218.348C802.897 219.656 802.165 220.292 801.133 220.292ZM807.688 221.144C809.104 221.144 809.98 220.412 809.98 219.212C809.98 218.276 809.452 217.676 808.084 217.472L807.604 217.4C806.836 217.28 806.416 217.04 806.416 216.44C806.416 215.852 806.836 215.48 807.628 215.48C808.42 215.48 808.948 215.852 809.224 216.236L809.86 215.66C809.356 215.036 808.696 214.664 807.7 214.664C806.44 214.664 805.492 215.264 805.492 216.488C805.492 217.64 806.344 218.108 807.484 218.276L807.976 218.348C808.792 218.468 809.056 218.84 809.056 219.32C809.056 219.956 808.576 220.328 807.76 220.328C806.98 220.328 806.404 219.98 805.924 219.38L805.24 219.932C805.792 220.664 806.548 221.144 807.688 221.144ZM814.482 221V220.16H813.222V215.648H814.578V214.808H813.222V213.092H812.358V214.244C812.358 214.664 812.226 214.808 811.818 214.808H811.242V215.648H812.262V219.98C812.262 220.58 812.622 221 813.282 221H814.482ZM821.925 221.144C823.089 221.144 823.977 220.568 824.373 219.728L823.689 219.236C823.365 219.92 822.765 220.304 821.985 220.304C820.833 220.304 820.149 219.5 820.149 218.432V218.144H824.601V217.688C824.601 215.936 823.581 214.664 821.925 214.664C820.245 214.664 819.141 215.936 819.141 217.904C819.141 219.872 820.245 221.144 821.925 221.144ZM821.925 215.468C822.909 215.468 823.569 216.2 823.569 217.292V217.424H820.149V217.34C820.149 216.26 820.881 215.468 821.925 215.468ZM828.362 221.144C829.778 221.144 830.654 220.412 830.654 219.212C830.654 218.276 830.126 217.676 828.758 217.472L828.278 217.4C827.51 217.28 827.09 217.04 827.09 216.44C827.09 215.852 827.51 215.48 828.302 215.48C829.094 215.48 829.622 215.852 829.898 216.236L830.534 215.66C830.03 215.036 829.37 214.664 828.374 214.664C827.114 214.664 826.166 215.264 826.166 216.488C826.166 217.64 827.018 218.108 828.158 218.276L828.65 218.348C829.466 218.468 829.73 218.84 829.73 219.32C829.73 219.956 829.25 220.328 828.434 220.328C827.654 220.328 827.078 219.98 826.598 219.38L825.914 219.932C826.466 220.664 827.222 221.144 828.362 221.144ZM835.156 221V220.16H833.896V215.648H835.252V214.808H833.896V213.092H833.032V214.244C833.032 214.664 832.9 214.808 832.492 214.808H831.916V215.648H832.936V219.98C832.936 220.58 833.296 221 833.956 221H835.156ZM837.595 213.356C838.003 213.356 838.183 213.14 838.183 212.816V212.66C838.183 212.336 838.003 212.12 837.595 212.12C837.187 212.12 837.007 212.336 837.007 212.66V212.816C837.007 213.14 837.187 213.356 837.595 213.356ZM837.115 221H838.075V214.808H837.115V221ZM841.395 221V216.704C841.395 215.912 842.115 215.528 842.871 215.528C843.783 215.528 844.203 216.092 844.203 217.196V221H845.163V216.704C845.163 215.912 845.859 215.528 846.615 215.528C847.551 215.528 847.971 216.104 847.971 217.196V221H848.931V217.028C848.931 215.528 848.175 214.664 846.915 214.664C845.859 214.664 845.259 215.252 845.031 215.924H845.007C844.671 215.036 843.927 214.664 843.111 214.664C842.151 214.664 841.719 215.18 841.443 215.816H841.395V214.808H840.435V221H841.395ZM856.272 221V220.16H855.564V216.752C855.564 215.444 854.676 214.664 853.188 214.664C852.072 214.664 851.328 215.216 850.992 215.876L851.568 216.416C851.904 215.852 852.396 215.492 853.14 215.492C854.124 215.492 854.604 215.972 854.604 216.848V217.46H853.38C851.58 217.46 850.74 218.108 850.74 219.272C850.74 220.424 851.508 221.144 852.816 221.144C853.68 221.144 854.34 220.748 854.604 219.992H854.664C854.736 220.568 855.024 221 855.732 221H856.272ZM852.972 220.328C852.228 220.328 851.748 219.98 851.748 219.368V219.116C851.748 218.516 852.24 218.18 853.332 218.18H854.604V219.2C854.604 219.836 853.92 220.328 852.972 220.328ZM860.53 221V220.16H859.27V215.648H860.626V214.808H859.27V213.092H858.406V214.244C858.406 214.664 858.274 214.808 857.866 214.808H857.29V215.648H858.31V219.98C858.31 220.58 858.67 221 859.33 221H860.53ZM864.77 221.144C865.934 221.144 866.822 220.568 867.218 219.728L866.534 219.236C866.21 219.92 865.61 220.304 864.83 220.304C863.678 220.304 862.994 219.5 862.994 218.432V218.144H867.446V217.688C867.446 215.936 866.426 214.664 864.77 214.664C863.09 214.664 861.986 215.936 861.986 217.904C861.986 219.872 863.09 221.144 864.77 221.144ZM864.77 215.468C865.754 215.468 866.414 216.2 866.414 217.292V217.424H862.994V217.34C862.994 216.26 863.726 215.468 864.77 215.468Z" fill="black"/>
<rect x="782.5" y="209.5" width="94" height="15" rx="7.5" stroke="black"/>
<rect x="543.5" y="192.5" width="159" height="47" fill="white"/>
<g clip-path="url(#clip0_700_40563)">
<line x1="545" y1="192" x2="545" y2="240" stroke="#8D8D8D" stroke-width="4"/>
<path d="M560.148 221H561.898V213.986H561.954L562.71 215.54L564.712 219.236L566.714 215.54L567.47 213.986H567.526V221H569.276V211.228H567.274L564.796 216.002H564.74L562.234 211.228H560.148V221ZM575.994 221H577.786V213.692H575.994V218.522C575.994 219.306 575.28 219.684 574.566 219.684C573.712 219.684 573.334 219.138 573.334 218.13V213.692H571.542V218.312C571.542 220.132 572.382 221.168 573.88 221.168C575.084 221.168 575.672 220.51 575.924 219.782H575.994V221ZM582.774 221V219.572H581.808V210.64H580.016V219.236C580.016 220.356 580.59 221 581.808 221H582.774ZM586.505 221H587.793V219.572H586.407V215.12H587.905V213.692H586.407V211.69H584.797V212.936C584.797 213.44 584.629 213.692 584.097 213.692H583.537V215.12H584.615V219.138C584.615 220.328 585.273 221 586.505 221ZM590.515 212.628C591.243 212.628 591.565 212.25 591.565 211.732V211.452C591.565 210.934 591.243 210.556 590.515 210.556C589.773 210.556 589.465 210.934 589.465 211.452V211.732C589.465 212.25 589.773 212.628 590.515 212.628ZM589.619 221H591.411V213.692H589.619V221ZM597.428 217.626V215.848H593.424V217.626H597.428ZM604.71 221V219.572H600.79L604.612 215.078V213.692H598.844V215.106H602.512L598.718 219.572V221H604.71ZM609.171 221.168C611.271 221.168 612.573 219.684 612.573 217.332C612.573 214.994 611.271 213.524 609.171 213.524C607.085 213.524 605.783 214.994 605.783 217.332C605.783 219.684 607.085 221.168 609.171 221.168ZM609.171 219.726C608.247 219.726 607.659 219.124 607.659 218.018V216.66C607.659 215.568 608.247 214.966 609.171 214.966C610.109 214.966 610.697 215.568 610.697 216.66V218.018C610.697 219.124 610.109 219.726 609.171 219.726ZM616.114 221V216.17C616.114 215.386 616.828 214.994 617.57 214.994C618.424 214.994 618.774 215.526 618.774 216.562V221H620.566V216.38C620.566 214.56 619.726 213.524 618.228 213.524C617.094 213.524 616.478 214.126 616.184 214.91H616.114V213.692H614.322V221H616.114ZM625.666 221.168C627.024 221.168 628.088 220.65 628.69 219.824L627.724 218.746C627.276 219.32 626.744 219.74 625.862 219.74C624.686 219.74 624.084 219.026 624.084 217.976V217.794H628.942V217.206C628.942 215.204 627.892 213.524 625.61 213.524C623.468 213.524 622.222 215.022 622.222 217.332C622.222 219.67 623.51 221.168 625.666 221.168ZM625.638 214.868C626.562 214.868 627.08 215.554 627.08 216.562V216.688H624.084V216.576C624.084 215.568 624.7 214.868 625.638 214.868Z" fill="black"/>
</g>
<rect x="543.5" y="192.5" width="159" height="47" stroke="#8D8D8D"/>
<rect x="543.5" y="128.5" width="159" height="47" fill="white"/>
<g clip-path="url(#clip1_700_40563)">
<line x1="545" y1="128" x2="545" y2="176" stroke="#8D8D8D" stroke-width="4"/>
<path d="M563.186 157.168C565.524 157.168 566.854 155.908 566.854 154.06C566.854 152.45 565.93 151.568 563.956 151.218L563.046 151.05C562.108 150.882 561.688 150.574 561.688 149.832C561.688 149.104 562.234 148.684 563.284 148.684C564.32 148.684 564.992 149.09 565.468 149.692L566.728 148.502C565.944 147.564 564.852 147.06 563.382 147.06C561.198 147.06 559.84 148.194 559.84 149.944C559.84 151.54 560.792 152.478 562.766 152.786L563.69 152.926C564.712 153.108 565.02 153.514 565.02 154.172C565.02 154.998 564.432 155.544 563.298 155.544C562.29 155.544 561.464 155.124 560.792 154.34L559.546 155.544C560.372 156.51 561.52 157.168 563.186 157.168ZM569.651 148.628C570.379 148.628 570.701 148.25 570.701 147.732V147.452C570.701 146.934 570.379 146.556 569.651 146.556C568.909 146.556 568.601 146.934 568.601 147.452V147.732C568.601 148.25 568.909 148.628 569.651 148.628ZM568.755 157H570.547V149.692H568.755V157ZM574.576 157V152.17C574.576 151.386 575.29 150.994 576.032 150.994C576.886 150.994 577.236 151.526 577.236 152.562V157H579.028V152.38C579.028 150.56 578.188 149.524 576.69 149.524C575.556 149.524 574.94 150.126 574.646 150.91H574.576V149.692H572.784V157H574.576ZM587.768 157.616C587.768 156.3 586.998 155.53 585.206 155.53H583.246C582.602 155.53 582.294 155.348 582.294 154.984C582.294 154.662 582.532 154.452 582.812 154.326C583.134 154.41 583.512 154.452 583.932 154.452C585.92 154.452 586.956 153.472 586.956 152.002C586.956 151.106 586.578 150.392 585.822 149.972V149.776H587.376V148.404H586.242C585.57 148.404 585.206 148.754 585.206 149.468V149.706C584.842 149.58 584.38 149.524 583.932 149.524C581.958 149.524 580.908 150.518 580.908 152.002C580.908 152.968 581.356 153.724 582.238 154.13V154.186C581.538 154.34 580.894 154.718 580.894 155.474C580.894 156.062 581.23 156.538 581.832 156.692V156.846C581.02 156.972 580.53 157.434 580.53 158.246C580.53 159.324 581.468 159.968 583.932 159.968C586.732 159.968 587.768 159.142 587.768 157.616ZM586.088 157.826C586.088 158.442 585.57 158.736 584.408 158.736H583.512C582.392 158.736 581.972 158.4 581.972 157.84C581.972 157.546 582.084 157.28 582.35 157.084H584.842C585.752 157.084 586.088 157.364 586.088 157.826ZM583.932 153.234C583.078 153.234 582.616 152.842 582.616 152.114V151.876C582.616 151.134 583.078 150.756 583.932 150.756C584.786 150.756 585.248 151.134 585.248 151.876V152.114C585.248 152.842 584.786 153.234 583.932 153.234ZM591.721 157V155.572H590.755V146.64H588.963V155.236C588.963 156.356 589.537 157 590.755 157H591.721ZM596.192 157.168C597.55 157.168 598.614 156.65 599.216 155.824L598.25 154.746C597.802 155.32 597.27 155.74 596.388 155.74C595.212 155.74 594.61 155.026 594.61 153.976V153.794H599.468V153.206C599.468 151.204 598.418 149.524 596.136 149.524C593.994 149.524 592.748 151.022 592.748 153.332C592.748 155.67 594.036 157.168 596.192 157.168ZM596.164 150.868C597.088 150.868 597.606 151.554 597.606 152.562V152.688H594.61V152.576C594.61 151.568 595.226 150.868 596.164 150.868ZM610.148 157V155.572H606.228L610.05 151.078V149.692H604.282V151.106H607.95L604.156 155.572V157H610.148ZM614.609 157.168C616.709 157.168 618.011 155.684 618.011 153.332C618.011 150.994 616.709 149.524 614.609 149.524C612.523 149.524 611.221 150.994 611.221 153.332C611.221 155.684 612.523 157.168 614.609 157.168ZM614.609 155.726C613.685 155.726 613.097 155.124 613.097 154.018V152.66C613.097 151.568 613.685 150.966 614.609 150.966C615.547 150.966 616.135 151.568 616.135 152.66V154.018C616.135 155.124 615.547 155.726 614.609 155.726ZM621.551 157V152.17C621.551 151.386 622.265 150.994 623.007 150.994C623.861 150.994 624.211 151.526 624.211 152.562V157H626.003V152.38C626.003 150.56 625.163 149.524 623.665 149.524C622.531 149.524 621.915 150.126 621.621 150.91H621.551V149.692H619.759V157H621.551ZM631.104 157.168C632.462 157.168 633.526 156.65 634.128 155.824L633.162 154.746C632.714 155.32 632.182 155.74 631.3 155.74C630.124 155.74 629.522 155.026 629.522 153.976V153.794H634.38V153.206C634.38 151.204 633.33 149.524 631.048 149.524C628.906 149.524 627.66 151.022 627.66 153.332C627.66 155.67 628.948 157.168 631.104 157.168ZM631.076 150.868C632 150.868 632.518 151.554 632.518 152.562V152.688H629.522V152.576C629.522 151.568 630.138 150.868 631.076 150.868Z" fill="black"/>
</g>
<rect x="543.5" y="128.5" width="159" height="47" stroke="#8D8D8D"/>
<path d="M394 152H327C322.582 152 319 155.582 319 160V209C319 213.418 322.582 217 327 217H545" stroke="#8F8B8B"/>
<path d="M535 148L543 152L535 156V148Z" fill="#8F8B8B"/>
<path d="M535 213L543 217L535 221V213Z" fill="#8F8B8B"/>
<path d="M320.5 56C320.5 51.8579 323.858 48.5 328 48.5H695C699.142 48.5 702.5 51.8579 702.5 56V88C702.5 92.1421 699.142 95.5 695 95.5H328C323.858 95.5 320.5 92.1421 320.5 88V56Z" fill="white"/>
<path d="M321 56C321 52.134 324.134 49 328 49H695C698.866 49 702 52.134 702 56V88C702 91.866 698.866 95 695 95H328C324.134 95 321 91.866 321 88V56Z" fill="#F4F4F4"/>
<g clip-path="url(#clip2_700_40563)">
<path d="M320 56C320 51.5817 323.582 48 328 48H368V96H328C323.582 96 320 92.4183 320 88V56Z" fill="black"/>
<rect width="20" height="20" transform="translate(334 62)" fill="white" style="mix-blend-mode:multiply"/>
<path d="M347.312 65.0625L344.5 63.375C344.312 63.3125 344.188 63.25 344 63.25C343.812 63.25 343.688 63.3125 343.562 63.375L340.75 65.0625C340.438 65.25 340.25 65.5625 340.25 65.875V69.375C340.25 69.6875 340.438 70 340.688 70.1875L343.5 71.875C343.625 71.9375 343.812 72 343.938 72C344.062 72 344.25 71.9375 344.375 71.875L347.188 70.1875C347.438 70 347.625 69.75 347.625 69.375V65.875C347.75 65.5625 347.562 65.25 347.312 65.0625ZM346.5 69.1875L344 70.6875L341.5 69.1875V66.0625L344 64.5625L346.5 66.0625V69.1875Z" fill="white"/>
<path d="M352.312 73.8125L349.5 72.125C349.312 72.0625 349.188 72 349 72C348.812 72 348.688 72.0625 348.562 72.125L345.75 73.8125C345.5 74 345.312 74.25 345.312 74.625V78.125C345.312 78.4375 345.5 78.75 345.75 78.9375L348.562 80.625C348.688 80.6875 348.875 80.75 349 80.75C349.125 80.75 349.312 80.6875 349.438 80.625L352.25 78.9375C352.5 78.75 352.688 78.5 352.688 78.125V74.625C352.75 74.3125 352.562 74 352.312 73.8125ZM351.5 77.9375L349 79.4375L346.5 77.9375V74.8125L349 73.3125L351.5 74.8125V77.9375Z" fill="white"/>
<path d="M342.312 73.8125L339.5 72.125C339.312 72.0625 339.188 72 339 72C338.812 72 338.688 72.0625 338.562 72.125L335.75 73.8125C335.437 74 335.25 74.3125 335.25 74.625V78.125C335.25 78.4375 335.438 78.75 335.688 78.9375L338.5 80.625C338.688 80.6875 338.812 80.75 339 80.75C339.188 80.75 339.312 80.6875 339.438 80.625L342.25 78.9375C342.5 78.75 342.688 78.5 342.688 78.125V74.625C342.75 74.3125 342.562 74 342.312 73.8125ZM341.5 77.9375L339 79.4375L336.5 77.9375V74.8125L339 73.3125L341.5 74.8125V77.9375Z" fill="white"/>
<path d="M391.07 68H392.918V58.228H391.07V62.232H386.996V58.228H385.148V68H386.996V63.87H391.07V68ZM396.155 59.628C396.883 59.628 397.205 59.25 397.205 58.732V58.452C397.205 57.934 396.883 57.556 396.155 57.556C395.412 57.556 395.104 57.934 395.104 58.452V58.732C395.104 59.25 395.412 59.628 396.155 59.628ZM395.258 68H397.05V60.692H395.258V68ZM405.882 68.616C405.882 67.3 405.112 66.53 403.32 66.53H401.36C400.716 66.53 400.408 66.348 400.408 65.984C400.408 65.662 400.646 65.452 400.926 65.326C401.248 65.41 401.626 65.452 402.046 65.452C404.034 65.452 405.07 64.472 405.07 63.002C405.07 62.106 404.692 61.392 403.936 60.972V60.776H405.49V59.404H404.356C403.684 59.404 403.32 59.754 403.32 60.468V60.706C402.956 60.58 402.494 60.524 402.046 60.524C400.072 60.524 399.022 61.518 399.022 63.002C399.022 63.968 399.47 64.724 400.352 65.13V65.186C399.652 65.34 399.008 65.718 399.008 66.474C399.008 67.062 399.344 67.538 399.946 67.692V67.846C399.134 67.972 398.644 68.434 398.644 69.246C398.644 70.324 399.582 70.968 402.046 70.968C404.846 70.968 405.882 70.142 405.882 68.616ZM404.202 68.826C404.202 69.442 403.684 69.736 402.522 69.736H401.626C400.506 69.736 400.086 69.4 400.086 68.84C400.086 68.546 400.198 68.28 400.464 68.084H402.956C403.866 68.084 404.202 68.364 404.202 68.826ZM402.046 64.234C401.192 64.234 400.73 63.842 400.73 63.114V62.876C400.73 62.134 401.192 61.756 402.046 61.756C402.9 61.756 403.362 62.134 403.362 62.876V63.114C403.362 63.842 402.9 64.234 402.046 64.234ZM407.077 68H408.869V63.17C408.869 62.386 409.583 61.994 410.325 61.994C411.179 61.994 411.529 62.526 411.529 63.562V68H413.321V63.38C413.321 61.56 412.481 60.524 410.983 60.524C409.849 60.524 409.233 61.126 408.939 61.91H408.869V57.64H407.077V68ZM420.742 68.168C421.834 68.168 422.632 67.678 422.87 66.74H422.954C423.066 67.496 423.542 68 424.312 68H425.306V66.572H424.578V63.128C424.578 61.462 423.528 60.524 421.554 60.524C420.084 60.524 419.23 61.084 418.698 61.924L419.762 62.876C420.112 62.372 420.588 61.952 421.428 61.952C422.38 61.952 422.786 62.428 422.786 63.24V63.772H421.54C419.552 63.772 418.418 64.514 418.418 66.012C418.418 67.314 419.258 68.168 420.742 68.168ZM421.344 66.866C420.644 66.866 420.238 66.572 420.238 65.984V65.746C420.238 65.172 420.7 64.85 421.638 64.85H422.786V65.816C422.786 66.502 422.142 66.866 421.344 66.866ZM430.489 68L432.939 60.692H431.231L430.237 63.842L429.523 66.446H429.425L428.711 63.842L427.689 60.692H425.925L428.361 68H430.489ZM435.978 68.168C437.07 68.168 437.868 67.678 438.106 66.74H438.19C438.302 67.496 438.778 68 439.548 68H440.542V66.572H439.814V63.128C439.814 61.462 438.764 60.524 436.79 60.524C435.32 60.524 434.466 61.084 433.934 61.924L434.998 62.876C435.348 62.372 435.824 61.952 436.664 61.952C437.616 61.952 438.022 62.428 438.022 63.24V63.772H436.776C434.788 63.772 433.654 64.514 433.654 66.012C433.654 67.314 434.494 68.168 435.978 68.168ZM436.58 66.866C435.88 66.866 435.474 66.572 435.474 65.984V65.746C435.474 65.172 435.936 64.85 436.874 64.85H438.022V65.816C438.022 66.502 437.378 66.866 436.58 66.866ZM443.048 59.628C443.776 59.628 444.098 59.25 444.098 58.732V58.452C444.098 57.934 443.776 57.556 443.048 57.556C442.306 57.556 441.998 57.934 441.998 58.452V58.732C441.998 59.25 442.306 59.628 443.048 59.628ZM442.152 68H443.944V60.692H442.152V68ZM448.939 68V66.572H447.973V57.64H446.181V66.236C446.181 67.356 446.755 68 447.973 68H448.939ZM452.262 68.168C453.354 68.168 454.152 67.678 454.39 66.74H454.474C454.586 67.496 455.062 68 455.832 68H456.826V66.572H456.098V63.128C456.098 61.462 455.048 60.524 453.074 60.524C451.604 60.524 450.75 61.084 450.218 61.924L451.282 62.876C451.632 62.372 452.108 61.952 452.948 61.952C453.9 61.952 454.306 62.428 454.306 63.24V63.772H453.06C451.072 63.772 449.938 64.514 449.938 66.012C449.938 67.314 450.778 68.168 452.262 68.168ZM452.864 66.866C452.164 66.866 451.758 66.572 451.758 65.984V65.746C451.758 65.172 452.22 64.85 453.158 64.85H454.306V65.816C454.306 66.502 453.662 66.866 452.864 66.866ZM458.437 68H460.229V66.782H460.285C460.565 67.608 461.335 68.168 462.301 68.168C464.149 68.168 465.171 66.782 465.171 64.332C465.171 61.896 464.149 60.524 462.301 60.524C461.335 60.524 460.551 61.056 460.285 61.896H460.229V57.64H458.437V68ZM461.727 66.684C460.873 66.684 460.229 66.25 460.229 65.494V63.17C460.229 62.456 460.873 61.994 461.727 61.994C462.651 61.994 463.295 62.68 463.295 63.716V64.976C463.295 66.012 462.651 66.684 461.727 66.684ZM467.887 59.628C468.615 59.628 468.937 59.25 468.937 58.732V58.452C468.937 57.934 468.615 57.556 467.887 57.556C467.145 57.556 466.837 57.934 466.837 58.452V58.732C466.837 59.25 467.145 59.628 467.887 59.628ZM466.991 68H468.783V60.692H466.991V68ZM473.778 68V66.572H472.812V57.64H471.02V66.236C471.02 67.356 471.594 68 472.812 68H473.778ZM476.192 59.628C476.92 59.628 477.242 59.25 477.242 58.732V58.452C477.242 57.934 476.92 57.556 476.192 57.556C475.45 57.556 475.142 57.934 475.142 58.452V58.732C475.142 59.25 475.45 59.628 476.192 59.628ZM475.296 68H477.088V60.692H475.296V68ZM481.607 68H482.895V66.572H481.509V62.12H483.007V60.692H481.509V58.69H479.899V59.936C479.899 60.44 479.731 60.692 479.199 60.692H478.639V62.12H479.717V66.138C479.717 67.328 480.375 68 481.607 68ZM487.927 64.556L487.423 66.404H487.339L486.863 64.556L485.589 60.692H483.811L486.429 68.35L486.093 69.372H484.777V70.8H485.855C487.059 70.8 487.577 70.352 487.941 69.302L490.881 60.692H489.201L487.927 64.556Z" fill="black"/>
<path d="M385.302 86H388.578C391.014 86 392.582 84.376 392.582 81.114C392.582 77.852 391.014 76.228 388.578 76.228H385.302V86ZM386.478 84.964V77.264H388.578C390.188 77.264 391.322 78.384 391.322 80.316V81.912C391.322 83.844 390.188 84.964 388.578 84.964H386.478ZM397.473 86.168C399.405 86.168 400.735 84.684 400.735 82.388C400.735 80.092 399.405 78.608 397.473 78.608C395.541 78.608 394.211 80.092 394.211 82.388C394.211 84.684 395.541 86.168 397.473 86.168ZM397.473 85.174C396.269 85.174 395.415 84.432 395.415 82.906V81.87C395.415 80.344 396.269 79.602 397.473 79.602C398.677 79.602 399.531 80.344 399.531 81.87V82.906C399.531 84.432 398.677 85.174 397.473 85.174ZM408.907 83.69L408.515 84.866H408.445L408.109 83.69L406.373 78.776H405.253L407.955 86.28L407.409 87.82H406.275V88.8H406.849C407.913 88.8 408.207 88.548 408.529 87.68L411.763 78.776H410.657L408.907 83.69ZM416.013 86.168C417.945 86.168 419.275 84.684 419.275 82.388C419.275 80.092 417.945 78.608 416.013 78.608C414.081 78.608 412.751 80.092 412.751 82.388C412.751 84.684 414.081 86.168 416.013 86.168ZM416.013 85.174C414.809 85.174 413.955 84.432 413.955 82.906V81.87C413.955 80.344 414.809 79.602 416.013 79.602C417.217 79.602 418.071 80.344 418.071 81.87V82.906C418.071 84.432 417.217 85.174 416.013 85.174ZM425.729 86H426.849V78.776H425.729V83.774C425.729 84.726 424.861 85.16 423.979 85.16C422.901 85.16 422.327 84.502 422.327 83.214V78.776H421.207V83.41C421.207 85.16 422.159 86.168 423.643 86.168C424.847 86.168 425.393 85.51 425.673 84.824H425.729V86ZM433.983 86V80.988C433.983 80.064 434.851 79.616 435.747 79.616C436.825 79.616 437.385 80.274 437.385 81.562V86H438.505V81.366C438.505 79.616 437.567 78.608 436.083 78.608C435.005 78.608 434.389 79.14 434.039 79.952H433.983V78.776H432.863V86H433.983ZM443.696 86.168C445.054 86.168 446.09 85.496 446.552 84.516L445.754 83.942C445.376 84.74 444.676 85.188 443.766 85.188C442.422 85.188 441.624 84.25 441.624 83.004V82.668H446.818V82.136C446.818 80.092 445.628 78.608 443.696 78.608C441.736 78.608 440.448 80.092 440.448 82.388C440.448 84.684 441.736 86.168 443.696 86.168ZM443.696 79.546C444.844 79.546 445.614 80.4 445.614 81.674V81.828H441.624V81.73C441.624 80.47 442.478 79.546 443.696 79.546ZM451.539 86.168C452.897 86.168 453.933 85.496 454.395 84.516L453.597 83.942C453.219 84.74 452.519 85.188 451.609 85.188C450.265 85.188 449.467 84.25 449.467 83.004V82.668H454.661V82.136C454.661 80.092 453.471 78.608 451.539 78.608C449.579 78.608 448.291 80.092 448.291 82.388C448.291 84.684 449.579 86.168 451.539 86.168ZM451.539 79.546C452.687 79.546 453.457 80.4 453.457 81.674V81.828H449.467V81.73C449.467 80.47 450.321 79.546 451.539 79.546ZM461.287 86H462.407V75.64H461.287V79.952H461.231C460.853 79.042 460.111 78.608 459.117 78.608C457.311 78.608 456.177 80.078 456.177 82.388C456.177 84.698 457.311 86.168 459.117 86.168C460.111 86.168 460.797 85.72 461.231 84.824H461.287V86ZM459.425 85.16C458.165 85.16 457.381 84.292 457.381 83.004V81.772C457.381 80.484 458.165 79.616 459.425 79.616C460.447 79.616 461.287 80.204 461.287 81.002V83.69C461.287 84.628 460.447 85.16 459.425 85.16ZM471.413 86V85.02H469.943V79.756H471.525V78.776H469.943V76.774H468.935V78.118C468.935 78.608 468.781 78.776 468.305 78.776H467.633V79.756H468.823V84.81C468.823 85.51 469.243 86 470.013 86H471.413ZM473.485 86H474.605V80.988C474.605 80.064 475.473 79.616 476.369 79.616C477.447 79.616 478.007 80.274 478.007 81.562V86H479.127V81.366C479.127 79.616 478.189 78.608 476.705 78.608C475.627 78.608 475.011 79.14 474.661 79.952H474.605V75.64H473.485V86ZM484.318 86.168C485.676 86.168 486.712 85.496 487.174 84.516L486.376 83.942C485.998 84.74 485.298 85.188 484.388 85.188C483.044 85.188 482.246 84.25 482.246 83.004V82.668H487.44V82.136C487.44 80.092 486.25 78.608 484.318 78.608C482.358 78.608 481.07 80.092 481.07 82.388C481.07 84.684 482.358 86.168 484.318 86.168ZM484.318 79.546C485.466 79.546 486.236 80.4 486.236 81.674V81.828H482.246V81.73C482.246 80.47 483.1 79.546 484.318 79.546ZM495.602 86.168C496.974 86.168 497.912 85.496 498.374 84.46L497.562 83.914C497.17 84.74 496.512 85.174 495.602 85.174C494.272 85.174 493.586 84.264 493.586 83.004V81.772C493.586 80.512 494.272 79.602 495.602 79.602C496.484 79.602 497.1 80.036 497.366 80.778L498.304 80.302C497.884 79.308 497.03 78.608 495.602 78.608C493.572 78.608 492.382 80.078 492.382 82.388C492.382 84.698 493.572 86.168 495.602 86.168ZM502.299 86V85.02H501.235V75.64H500.115V84.838C500.115 85.51 500.535 86 501.305 86H502.299ZM508.542 86H509.662V78.776H508.542V83.774C508.542 84.726 507.674 85.16 506.792 85.16C505.714 85.16 505.14 84.502 505.14 83.214V78.776H504.02V83.41C504.02 85.16 504.972 86.168 506.456 86.168C507.66 86.168 508.206 85.51 508.486 84.824H508.542V86ZM514.377 86.168C516.029 86.168 517.051 85.314 517.051 83.914C517.051 82.822 516.435 82.122 514.839 81.884L514.279 81.8C513.383 81.66 512.893 81.38 512.893 80.68C512.893 79.994 513.383 79.56 514.307 79.56C515.231 79.56 515.847 79.994 516.169 80.442L516.911 79.77C516.323 79.042 515.553 78.608 514.391 78.608C512.921 78.608 511.815 79.308 511.815 80.736C511.815 82.08 512.809 82.626 514.139 82.822L514.713 82.906C515.665 83.046 515.973 83.48 515.973 84.04C515.973 84.782 515.413 85.216 514.461 85.216C513.551 85.216 512.879 84.81 512.319 84.11L511.521 84.754C512.165 85.608 513.047 86.168 514.377 86.168ZM522.089 86V85.02H520.619V79.756H522.201V78.776H520.619V76.774H519.611V78.118C519.611 78.608 519.457 78.776 518.981 78.776H518.309V79.756H519.499V84.81C519.499 85.51 519.919 86 520.689 86H522.089ZM526.823 86.168C528.181 86.168 529.217 85.496 529.679 84.516L528.881 83.942C528.503 84.74 527.803 85.188 526.893 85.188C525.549 85.188 524.751 84.25 524.751 83.004V82.668H529.945V82.136C529.945 80.092 528.755 78.608 526.823 78.608C524.863 78.608 523.575 80.092 523.575 82.388C523.575 84.684 524.863 86.168 526.823 86.168ZM526.823 79.546C527.971 79.546 528.741 80.4 528.741 81.674V81.828H524.751V81.73C524.751 80.47 525.605 79.546 526.823 79.546ZM533.07 86V81.1C533.07 80.414 533.798 79.896 535.002 79.896H535.66V78.776H535.226C534.05 78.776 533.392 79.42 533.14 80.106H533.07V78.776H531.95V86H533.07ZM543.715 86V85.02H542.245V79.756H543.827V78.776H542.245V76.774H541.237V78.118C541.237 78.608 541.083 78.776 540.607 78.776H539.935V79.756H541.125V84.81C541.125 85.51 541.545 86 542.315 86H543.715ZM548.463 86.168C550.395 86.168 551.725 84.684 551.725 82.388C551.725 80.092 550.395 78.608 548.463 78.608C546.531 78.608 545.201 80.092 545.201 82.388C545.201 84.684 546.531 86.168 548.463 86.168ZM548.463 85.174C547.259 85.174 546.405 84.432 546.405 82.906V81.87C546.405 80.344 547.259 79.602 548.463 79.602C549.667 79.602 550.521 80.344 550.521 81.87V82.906C550.521 84.432 549.667 85.174 548.463 85.174ZM557.196 86H558.316V84.824H558.372C558.806 85.72 559.492 86.168 560.486 86.168C562.292 86.168 563.426 84.698 563.426 82.388C563.426 80.078 562.292 78.608 560.486 78.608C559.492 78.608 558.75 79.042 558.372 79.952H558.316V75.64H557.196V86ZM560.178 85.16C559.156 85.16 558.316 84.628 558.316 83.69V81.002C558.316 80.204 559.156 79.616 560.178 79.616C561.438 79.616 562.222 80.484 562.222 81.772V83.004C562.222 84.292 561.438 85.16 560.178 85.16ZM568.193 86.168C569.551 86.168 570.587 85.496 571.049 84.516L570.251 83.942C569.873 84.74 569.173 85.188 568.263 85.188C566.919 85.188 566.121 84.25 566.121 83.004V82.668H571.315V82.136C571.315 80.092 570.125 78.608 568.193 78.608C566.233 78.608 564.945 80.092 564.945 82.388C564.945 84.684 566.233 86.168 568.193 86.168ZM568.193 79.546C569.341 79.546 570.111 80.4 570.111 81.674V81.828H566.121V81.73C566.121 80.47 566.975 79.546 568.193 79.546ZM576.789 86H577.909V80.988C577.909 80.064 578.777 79.616 579.673 79.616C580.751 79.616 581.311 80.274 581.311 81.562V86H582.431V81.366C582.431 79.616 581.493 78.608 580.009 78.608C578.931 78.608 578.315 79.14 577.965 79.952H577.909V75.64H576.789V86ZM585.466 77.082C585.942 77.082 586.152 76.83 586.152 76.452V76.27C586.152 75.892 585.942 75.64 585.466 75.64C584.99 75.64 584.78 75.892 584.78 76.27V76.452C584.78 76.83 584.99 77.082 585.466 77.082ZM584.906 86H586.026V78.776H584.906V86ZM594.656 86.798C594.656 85.608 593.886 84.88 592.094 84.88H590.554C589.896 84.88 589.448 84.768 589.448 84.334C589.448 83.886 589.924 83.648 590.4 83.522C590.61 83.564 590.862 83.592 591.1 83.592C592.752 83.592 593.83 82.57 593.83 81.1C593.83 80.33 593.522 79.686 593.004 79.238V78.776H594.376V77.796H593.298C592.696 77.796 592.458 78.202 592.458 78.762V78.888C592.066 78.706 591.604 78.608 591.086 78.608C589.448 78.608 588.37 79.63 588.37 81.1C588.37 82.108 588.874 82.906 589.728 83.312V83.368C589 83.55 588.482 83.9 588.482 84.628C588.482 85.118 588.72 85.44 589.126 85.636V85.79C588.412 85.986 587.978 86.406 587.978 87.19C587.978 88.324 588.902 88.968 591.156 88.968C593.48 88.968 594.656 88.282 594.656 86.798ZM593.606 86.882C593.606 87.666 592.878 88.058 591.632 88.058H590.596C589.462 88.058 589.028 87.54 589.028 86.91C589.028 86.462 589.238 86.14 589.7 85.93H592.108C593.228 85.93 593.606 86.308 593.606 86.882ZM591.1 82.696C590.148 82.696 589.546 82.248 589.546 81.296V80.904C589.546 79.952 590.148 79.504 591.1 79.504C592.052 79.504 592.654 79.952 592.654 80.904V81.296C592.654 82.248 592.052 82.696 591.1 82.696ZM596.122 86H597.242V80.988C597.242 80.064 598.11 79.616 599.006 79.616C600.084 79.616 600.644 80.274 600.644 81.562V86H601.764V81.366C601.764 79.616 600.826 78.608 599.342 78.608C598.264 78.608 597.648 79.14 597.298 79.952H597.242V75.64H596.122V86ZM606.423 86V85.02H605.359V75.64H604.239V84.838C604.239 85.51 604.659 86 605.429 86H606.423ZM610.779 83.69L610.387 84.866H610.317L609.981 83.69L608.245 78.776H607.125L609.827 86.28L609.281 87.82H608.147V88.8H608.721C609.785 88.8 610.079 88.548 610.401 87.68L613.635 78.776H612.529L610.779 83.69ZM624.572 86V85.02H623.746V81.044C623.746 79.518 622.71 78.608 620.974 78.608C619.672 78.608 618.804 79.252 618.412 80.022L619.084 80.652C619.476 79.994 620.05 79.574 620.918 79.574C622.066 79.574 622.626 80.134 622.626 81.156V81.87H621.198C619.098 81.87 618.118 82.626 618.118 83.984C618.118 85.328 619.014 86.168 620.54 86.168C621.548 86.168 622.318 85.706 622.626 84.824H622.696C622.78 85.496 623.116 86 623.942 86H624.572ZM620.722 85.216C619.854 85.216 619.294 84.81 619.294 84.096V83.802C619.294 83.102 619.868 82.71 621.142 82.71H622.626V83.9C622.626 84.642 621.828 85.216 620.722 85.216ZM629.119 86L631.667 78.776H630.589L629.301 82.36L628.517 84.824H628.447L627.663 82.36L626.403 78.776H625.283L627.817 86H629.119ZM639.029 86V85.02H638.203V81.044C638.203 79.518 637.167 78.608 635.431 78.608C634.129 78.608 633.261 79.252 632.869 80.022L633.541 80.652C633.933 79.994 634.507 79.574 635.375 79.574C636.523 79.574 637.083 80.134 637.083 81.156V81.87H635.655C633.555 81.87 632.575 82.626 632.575 83.984C632.575 85.328 633.471 86.168 634.997 86.168C636.005 86.168 636.775 85.706 637.083 84.824H637.153C637.237 85.496 637.573 86 638.399 86H639.029ZM635.179 85.216C634.311 85.216 633.751 84.81 633.751 84.096V83.802C633.751 83.102 634.325 82.71 635.599 82.71H637.083V83.9C637.083 84.642 636.285 85.216 635.179 85.216ZM641.347 77.082C641.823 77.082 642.033 76.83 642.033 76.452V76.27C642.033 75.892 641.823 75.64 641.347 75.64C640.871 75.64 640.661 75.892 640.661 76.27V76.452C640.661 76.83 640.871 77.082 641.347 77.082ZM640.787 86H641.907V78.776H640.787V86ZM646.631 86V85.02H645.567V75.64H644.447V84.838C644.447 85.51 644.867 86 645.637 86H646.631ZM654.302 86V85.02H653.476V81.044C653.476 79.518 652.44 78.608 650.704 78.608C649.402 78.608 648.534 79.252 648.142 80.022L648.814 80.652C649.206 79.994 649.78 79.574 650.648 79.574C651.796 79.574 652.356 80.134 652.356 81.156V81.87H650.928C648.828 81.87 647.848 82.626 647.848 83.984C647.848 85.328 648.744 86.168 650.27 86.168C651.278 86.168 652.048 85.706 652.356 84.824H652.426C652.51 85.496 652.846 86 653.672 86H654.302ZM650.452 85.216C649.584 85.216 649.024 84.81 649.024 84.096V83.802C649.024 83.102 649.598 82.71 650.872 82.71H652.356V83.9C652.356 84.642 651.558 85.216 650.452 85.216ZM656.06 86H657.18V84.824H657.236C657.67 85.72 658.356 86.168 659.35 86.168C661.156 86.168 662.29 84.698 662.29 82.388C662.29 80.078 661.156 78.608 659.35 78.608C658.356 78.608 657.614 79.042 657.236 79.952H657.18V75.64H656.06V86ZM659.042 85.16C658.02 85.16 657.18 84.628 657.18 83.69V81.002C657.18 80.204 658.02 79.616 659.042 79.616C660.302 79.616 661.086 80.484 661.086 81.772V83.004C661.086 84.292 660.302 85.16 659.042 85.16ZM666.525 86V85.02H665.461V75.64H664.341V84.838C664.341 85.51 664.761 86 665.531 86H666.525ZM671.032 86.168C672.39 86.168 673.426 85.496 673.888 84.516L673.09 83.942C672.712 84.74 672.012 85.188 671.102 85.188C669.758 85.188 668.96 84.25 668.96 83.004V82.668H674.154V82.136C674.154 80.092 672.964 78.608 671.032 78.608C669.072 78.608 667.784 80.092 667.784 82.388C667.784 84.684 669.072 86.168 671.032 86.168ZM671.032 79.546C672.18 79.546 672.95 80.4 672.95 81.674V81.828H668.96V81.73C668.96 80.47 669.814 79.546 671.032 79.546ZM678.553 83.088V81.576C679.785 81.338 681.129 80.498 681.129 78.706C681.129 77.096 680.037 76.06 678.315 76.06C676.565 76.06 675.641 77.124 675.291 78.328L676.327 78.72C676.551 77.782 677.195 77.082 678.273 77.082C679.267 77.082 679.925 77.698 679.925 78.65V78.846C679.925 80.022 679.001 80.722 677.475 80.792V83.088H678.553ZM678.021 86.168C678.609 86.168 678.875 85.846 678.875 85.356V85.174C678.875 84.684 678.609 84.362 678.021 84.362C677.433 84.362 677.167 84.684 677.167 85.174V85.356C677.167 85.846 677.433 86.168 678.021 86.168Z" fill="black"/>
</g>
<path d="M320.5 56C320.5 51.8579 323.858 48.5 328 48.5H695C699.142 48.5 702.5 51.8579 702.5 56V88C702.5 92.1421 699.142 95.5 695 95.5H328C323.858 95.5 320.5 92.1421 320.5 88V56Z" stroke="black"/>
<rect x="301.5" y="178.5" width="35" height="15" rx="7.5" fill="white"/>
<path d="M313.044 190V186.652L315.96 181.624H314.808L312.576 185.656H312.54L310.308 181.624H309.156L312.036 186.688V190H313.044ZM319.184 190.144C320.348 190.144 321.236 189.568 321.632 188.728L320.948 188.236C320.624 188.92 320.024 189.304 319.244 189.304C318.092 189.304 317.408 188.5 317.408 187.432V187.144H321.86V186.688C321.86 184.936 320.84 183.664 319.184 183.664C317.504 183.664 316.4 184.936 316.4 186.904C316.4 188.872 317.504 190.144 319.184 190.144ZM319.184 184.468C320.168 184.468 320.828 185.2 320.828 186.292V186.424H317.408V186.34C317.408 185.26 318.14 184.468 319.184 184.468ZM325.622 190.144C327.038 190.144 327.914 189.412 327.914 188.212C327.914 187.276 327.386 186.676 326.018 186.472L325.538 186.4C324.77 186.28 324.35 186.04 324.35 185.44C324.35 184.852 324.77 184.48 325.562 184.48C326.354 184.48 326.882 184.852 327.158 185.236L327.794 184.66C327.29 184.036 326.63 183.664 325.634 183.664C324.374 183.664 323.426 184.264 323.426 185.488C323.426 186.64 324.278 187.108 325.418 187.276L325.91 187.348C326.726 187.468 326.99 187.84 326.99 188.32C326.99 188.956 326.51 189.328 325.694 189.328C324.914 189.328 324.338 188.98 323.858 188.38L323.174 188.932C323.726 189.664 324.482 190.144 325.622 190.144Z" fill="black"/>
<rect x="301.5" y="178.5" width="35" height="15" rx="7.5" stroke="black"/>
<rect x="48.5" y="249.5" width="15" height="15" rx="3.5" fill="white" style="mix-blend-mode:multiply"/>
<rect x="48.5" y="249.5" width="15" height="15" rx="3.5" stroke="#8D8D8D"/>
<path d="M78.636 262V260.964H74.478V252.228H73.302V262H78.636ZM82.957 262.168C84.889 262.168 86.219 260.684 86.219 258.388C86.219 256.092 84.889 254.608 82.957 254.608C81.025 254.608 79.695 256.092 79.695 258.388C79.695 260.684 81.025 262.168 82.957 262.168ZM82.957 261.174C81.753 261.174 80.899 260.432 80.899 258.906V257.87C80.899 256.344 81.753 255.602 82.957 255.602C84.161 255.602 85.015 256.344 85.015 257.87V258.906C85.015 260.432 84.161 261.174 82.957 261.174ZM94.3109 262.798C94.3109 261.608 93.5409 260.88 91.7489 260.88H90.2089C89.5509 260.88 89.1029 260.768 89.1029 260.334C89.1029 259.886 89.5789 259.648 90.0549 259.522C90.2649 259.564 90.5169 259.592 90.7549 259.592C92.4069 259.592 93.4849 258.57 93.4849 257.1C93.4849 256.33 93.1769 255.686 92.6589 255.238V254.776H94.0309V253.796H92.9529C92.3509 253.796 92.1129 254.202 92.1129 254.762V254.888C91.7209 254.706 91.2589 254.608 90.7409 254.608C89.1029 254.608 88.0249 255.63 88.0249 257.1C88.0249 258.108 88.5289 258.906 89.3829 259.312V259.368C88.6549 259.55 88.1369 259.9 88.1369 260.628C88.1369 261.118 88.3749 261.44 88.7809 261.636V261.79C88.0669 261.986 87.6329 262.406 87.6329 263.19C87.6329 264.324 88.5569 264.968 90.8109 264.968C93.1349 264.968 94.3109 264.282 94.3109 262.798ZM93.2609 262.882C93.2609 263.666 92.5329 264.058 91.2869 264.058H90.2509C89.1169 264.058 88.6829 263.54 88.6829 262.91C88.6829 262.462 88.8929 262.14 89.3549 261.93H91.7629C92.8829 261.93 93.2609 262.308 93.2609 262.882ZM90.7549 258.696C89.8029 258.696 89.2009 258.248 89.2009 257.296V256.904C89.2009 255.952 89.8029 255.504 90.7549 255.504C91.7069 255.504 92.3089 255.952 92.3089 256.904V257.296C92.3089 258.248 91.7069 258.696 90.7549 258.696ZM96.3374 253.082C96.8134 253.082 97.0234 252.83 97.0234 252.452V252.27C97.0234 251.892 96.8134 251.64 96.3374 251.64C95.8614 251.64 95.6514 251.892 95.6514 252.27V252.452C95.6514 252.83 95.8614 253.082 96.3374 253.082ZM95.7774 262H96.8974V254.776H95.7774V262ZM102.125 262.168C103.497 262.168 104.435 261.496 104.897 260.46L104.085 259.914C103.693 260.74 103.035 261.174 102.125 261.174C100.795 261.174 100.109 260.264 100.109 259.004V257.772C100.109 256.512 100.795 255.602 102.125 255.602C103.007 255.602 103.623 256.036 103.889 256.778L104.827 256.302C104.407 255.308 103.553 254.608 102.125 254.608C100.095 254.608 98.9054 256.078 98.9054 258.388C98.9054 260.698 100.095 262.168 102.125 262.168ZM112.518 262V261.02H111.692V257.044C111.692 255.518 110.656 254.608 108.92 254.608C107.618 254.608 106.75 255.252 106.358 256.022L107.03 256.652C107.422 255.994 107.996 255.574 108.864 255.574C110.012 255.574 110.572 256.134 110.572 257.156V257.87H109.144C107.044 257.87 106.064 258.626 106.064 259.984C106.064 261.328 106.96 262.168 108.486 262.168C109.494 262.168 110.264 261.706 110.572 260.824H110.642C110.726 261.496 111.062 262 111.888 262H112.518ZM108.668 261.216C107.8 261.216 107.24 260.81 107.24 260.096V259.802C107.24 259.102 107.814 258.71 109.088 258.71H110.572V259.9C110.572 260.642 109.774 261.216 108.668 261.216ZM116.461 262V261.02H115.397V251.64H114.277V260.838C114.277 261.51 114.697 262 115.467 262H116.461ZM122.84 262V256.988C122.84 256.064 123.708 255.616 124.604 255.616C125.682 255.616 126.242 256.274 126.242 257.562V262H127.362V257.366C127.362 255.616 126.424 254.608 124.94 254.608C123.862 254.608 123.246 255.14 122.896 255.952H122.84V254.776H121.72V262H122.84ZM132.567 262.168C134.499 262.168 135.829 260.684 135.829 258.388C135.829 256.092 134.499 254.608 132.567 254.608C130.635 254.608 129.305 256.092 129.305 258.388C129.305 260.684 130.635 262.168 132.567 262.168ZM132.567 261.174C131.363 261.174 130.509 260.432 130.509 258.906V257.87C130.509 256.344 131.363 255.602 132.567 255.602C133.771 255.602 134.625 256.344 134.625 257.87V258.906C134.625 260.432 133.771 261.174 132.567 261.174ZM142.451 262H143.571V251.64H142.451V255.952H142.395C142.017 255.042 141.275 254.608 140.281 254.608C138.475 254.608 137.341 256.078 137.341 258.388C137.341 260.698 138.475 262.168 140.281 262.168C141.275 262.168 141.961 261.72 142.395 260.824H142.451V262ZM140.589 261.16C139.329 261.16 138.545 260.292 138.545 259.004V257.772C138.545 256.484 139.329 255.616 140.589 255.616C141.611 255.616 142.451 256.204 142.451 257.002V259.69C142.451 260.628 141.611 261.16 140.589 261.16ZM148.828 262.168C150.186 262.168 151.222 261.496 151.684 260.516L150.886 259.942C150.508 260.74 149.808 261.188 148.898 261.188C147.554 261.188 146.756 260.25 146.756 259.004V258.668H151.95V258.136C151.95 256.092 150.76 254.608 148.828 254.608C146.868 254.608 145.58 256.092 145.58 258.388C145.58 260.684 146.868 262.168 148.828 262.168ZM148.828 255.546C149.976 255.546 150.746 256.4 150.746 257.674V257.828H146.756V257.73C146.756 256.47 147.61 255.546 148.828 255.546Z" fill="#6F6F6F"/>
<rect x="169.5" y="249.5" width="15" height="15" stroke="#8D8D8D"/>
<path d="M195.478 262V257.828H198.194C199.944 257.828 200.924 256.75 200.924 255.028C200.924 253.306 199.944 252.228 198.194 252.228H194.302V262H195.478ZM195.478 253.264H198.194C199.118 253.264 199.664 253.768 199.664 254.664V255.392C199.664 256.288 199.118 256.792 198.194 256.792H195.478V253.264ZM203.824 262V257.1C203.824 256.414 204.552 255.896 205.756 255.896H206.414V254.776H205.98C204.804 254.776 204.146 255.42 203.894 256.106H203.824V254.776H202.704V262H203.824ZM210.652 262.168C212.01 262.168 213.046 261.496 213.508 260.516L212.71 259.942C212.332 260.74 211.632 261.188 210.722 261.188C209.378 261.188 208.58 260.25 208.58 259.004V258.668H213.774V258.136C213.774 256.092 212.584 254.608 210.652 254.608C208.692 254.608 207.404 256.092 207.404 258.388C207.404 260.684 208.692 262.168 210.652 262.168ZM210.652 255.546C211.8 255.546 212.57 256.4 212.57 257.674V257.828H208.58V257.73C208.58 256.47 209.434 255.546 210.652 255.546ZM217.949 262.168C219.601 262.168 220.623 261.314 220.623 259.914C220.623 258.822 220.007 258.122 218.411 257.884L217.851 257.8C216.955 257.66 216.465 257.38 216.465 256.68C216.465 255.994 216.955 255.56 217.879 255.56C218.803 255.56 219.419 255.994 219.741 256.442L220.483 255.77C219.895 255.042 219.125 254.608 217.963 254.608C216.493 254.608 215.387 255.308 215.387 256.736C215.387 258.08 216.381 258.626 217.711 258.822L218.285 258.906C219.237 259.046 219.545 259.48 219.545 260.04C219.545 260.782 218.985 261.216 218.033 261.216C217.123 261.216 216.451 260.81 215.891 260.11L215.093 260.754C215.737 261.608 216.619 262.168 217.949 262.168ZM225.45 262.168C226.822 262.168 227.76 261.496 228.222 260.46L227.41 259.914C227.018 260.74 226.36 261.174 225.45 261.174C224.12 261.174 223.434 260.264 223.434 259.004V257.772C223.434 256.512 224.12 255.602 225.45 255.602C226.332 255.602 226.948 256.036 227.214 256.778L228.152 256.302C227.732 255.308 226.878 254.608 225.45 254.608C223.42 254.608 222.23 256.078 222.23 258.388C222.23 260.698 223.42 262.168 225.45 262.168ZM231.083 262V257.1C231.083 256.414 231.811 255.896 233.015 255.896H233.673V254.776H233.239C232.063 254.776 231.405 255.42 231.153 256.106H231.083V254.776H229.963V262H231.083ZM235.823 253.082C236.299 253.082 236.509 252.83 236.509 252.452V252.27C236.509 251.892 236.299 251.64 235.823 251.64C235.347 251.64 235.137 251.892 235.137 252.27V252.452C235.137 252.83 235.347 253.082 235.823 253.082ZM235.263 262H236.383V254.776H235.263V262ZM238.923 262H240.043V260.824H240.099C240.533 261.72 241.219 262.168 242.213 262.168C244.019 262.168 245.153 260.698 245.153 258.388C245.153 256.078 244.019 254.608 242.213 254.608C241.219 254.608 240.477 255.042 240.099 255.952H240.043V251.64H238.923V262ZM241.905 261.16C240.883 261.16 240.043 260.628 240.043 259.69V257.002C240.043 256.204 240.883 255.616 241.905 255.616C243.165 255.616 243.949 256.484 243.949 257.772V259.004C243.949 260.292 243.165 261.16 241.905 261.16ZM249.92 262.168C251.278 262.168 252.314 261.496 252.776 260.516L251.978 259.942C251.6 260.74 250.9 261.188 249.99 261.188C248.646 261.188 247.848 260.25 247.848 259.004V258.668H253.042V258.136C253.042 256.092 251.852 254.608 249.92 254.608C247.96 254.608 246.672 256.092 246.672 258.388C246.672 260.684 247.96 262.168 249.92 262.168ZM249.92 255.546C251.068 255.546 251.838 256.4 251.838 257.674V257.828H247.848V257.73C247.848 256.47 248.702 255.546 249.92 255.546ZM259.668 262H260.788V251.64H259.668V255.952H259.612C259.234 255.042 258.492 254.608 257.498 254.608C255.692 254.608 254.558 256.078 254.558 258.388C254.558 260.698 255.692 262.168 257.498 262.168C258.492 262.168 259.178 261.72 259.612 260.824H259.668V262ZM257.806 261.16C256.546 261.16 255.762 260.292 255.762 259.004V257.772C255.762 256.484 256.546 255.616 257.806 255.616C258.828 255.616 259.668 256.204 259.668 257.002V259.69C259.668 260.628 258.828 261.16 257.806 261.16ZM267.918 262V256.988C267.918 256.064 268.786 255.616 269.682 255.616C270.76 255.616 271.32 256.274 271.32 257.562V262H272.44V257.366C272.44 255.616 271.502 254.608 270.018 254.608C268.94 254.608 268.324 255.14 267.974 255.952H267.918V254.776H266.798V262H267.918ZM277.645 262.168C279.577 262.168 280.907 260.684 280.907 258.388C280.907 256.092 279.577 254.608 277.645 254.608C275.713 254.608 274.383 256.092 274.383 258.388C274.383 260.684 275.713 262.168 277.645 262.168ZM277.645 261.174C276.441 261.174 275.587 260.432 275.587 258.906V257.87C275.587 256.344 276.441 255.602 277.645 255.602C278.849 255.602 279.703 256.344 279.703 257.87V258.906C279.703 260.432 278.849 261.174 277.645 261.174ZM287.529 262H288.649V251.64H287.529V255.952H287.473C287.095 255.042 286.353 254.608 285.359 254.608C283.553 254.608 282.419 256.078 282.419 258.388C282.419 260.698 283.553 262.168 285.359 262.168C286.353 262.168 287.039 261.72 287.473 260.824H287.529V262ZM285.667 261.16C284.407 261.16 283.623 260.292 283.623 259.004V257.772C283.623 256.484 284.407 255.616 285.667 255.616C286.689 255.616 287.529 256.204 287.529 257.002V259.69C287.529 260.628 286.689 261.16 285.667 261.16ZM293.906 262.168C295.264 262.168 296.3 261.496 296.762 260.516L295.964 259.942C295.586 260.74 294.886 261.188 293.976 261.188C292.632 261.188 291.834 260.25 291.834 259.004V258.668H297.028V258.136C297.028 256.092 295.838 254.608 293.906 254.608C291.946 254.608 290.658 256.092 290.658 258.388C290.658 260.684 291.946 262.168 293.906 262.168ZM293.906 255.546C295.054 255.546 295.824 256.4 295.824 257.674V257.828H291.834V257.73C291.834 256.47 292.688 255.546 293.906 255.546Z" fill="#6F6F6F"/>
<path d="M400 121L400 96" stroke="#8F8B8B"/>
<path d="M404 121L400 129L396 121L404 121Z" fill="#8F8B8B"/>
<path d="M401.561 129.768L422.732 150.939C423.318 151.525 423.318 152.475 422.732 153.061L401.561 174.232C400.975 174.818 400.025 174.818 399.439 174.232L378.268 153.061C377.682 152.475 377.682 151.525 378.268 150.939L399.439 129.768C400.025 129.182 400.975 129.182 401.561 129.768Z" fill="#CAC5C4" stroke="#CAC5C4"/>
<rect width="20" height="20" transform="translate(391 142)" fill="white" style="mix-blend-mode:multiply"/>
<path d="M401 143.25C399.269 143.25 397.578 143.763 396.139 144.725C394.7 145.686 393.578 147.053 392.916 148.652C392.254 150.25 392.081 152.01 392.418 153.707C392.756 155.404 393.589 156.963 394.813 158.187C396.037 159.411 397.596 160.244 399.293 160.582C400.99 160.919 402.75 160.746 404.348 160.084C405.947 159.422 407.314 158.3 408.275 156.861C409.237 155.422 409.75 153.731 409.75 152C409.75 149.679 408.828 147.454 407.187 145.813C405.546 144.172 403.321 143.25 401 143.25ZM401 159.5C399.517 159.5 398.067 159.06 396.833 158.236C395.6 157.412 394.639 156.241 394.071 154.87C393.503 153.5 393.355 151.992 393.644 150.537C393.934 149.082 394.648 147.746 395.697 146.697C396.746 145.648 398.082 144.933 399.537 144.644C400.992 144.355 402.5 144.503 403.87 145.071C405.241 145.639 406.412 146.6 407.236 147.833C408.06 149.067 408.5 150.517 408.5 152C408.5 153.989 407.71 155.897 406.303 157.303C404.897 158.71 402.989 159.5 401 159.5Z" fill="black"/>
<path d="M401 157.625C401.518 157.625 401.938 157.205 401.938 156.688C401.938 156.17 401.518 155.75 401 155.75C400.482 155.75 400.063 156.17 400.063 156.688C400.063 157.205 400.482 157.625 401 157.625Z" fill="black"/>
<path d="M401.625 147H400.688C400.318 146.999 399.952 147.071 399.61 147.212C399.269 147.353 398.958 147.561 398.697 147.822C398.436 148.083 398.228 148.394 398.087 148.735C397.946 149.077 397.874 149.443 397.875 149.812V150.125H399.125V149.812C399.125 149.398 399.29 149.001 399.583 148.708C399.876 148.415 400.273 148.25 400.688 148.25H401.625C402.039 148.25 402.437 148.415 402.73 148.708C403.023 149.001 403.188 149.398 403.188 149.812C403.188 150.227 403.023 150.624 402.73 150.917C402.437 151.21 402.039 151.375 401.625 151.375H400.375V154.188H401.625V152.625C402.371 152.625 403.086 152.329 403.614 151.801C404.141 151.274 404.438 150.558 404.438 149.812C404.438 149.067 404.141 148.351 403.614 147.824C403.086 147.296 402.371 147 401.625 147Z" fill="black"/>
<path d="M366.407 198H368.157V190.986H368.213L368.969 192.54L370.971 196.236L372.973 192.54L373.729 190.986H373.785V198H375.535V188.228H373.533L371.055 193.002H370.999L368.493 188.228H366.407V198ZM382.252 198H384.044V190.692H382.252V195.522C382.252 196.306 381.538 196.684 380.824 196.684C379.97 196.684 379.592 196.138 379.592 195.13V190.692H377.8V195.312C377.8 197.132 378.64 198.168 380.138 198.168C381.342 198.168 381.93 197.51 382.182 196.782H382.252V198ZM389.033 198V196.572H388.067V187.64H386.275V196.236C386.275 197.356 386.849 198 388.067 198H389.033ZM392.764 198H394.052V196.572H392.666V192.12H394.164V190.692H392.666V188.69H391.056V189.936C391.056 190.44 390.888 190.692 390.356 190.692H389.796V192.12H390.874V196.138C390.874 197.328 391.532 198 392.764 198ZM396.774 189.628C397.502 189.628 397.824 189.25 397.824 188.732V188.452C397.824 187.934 397.502 187.556 396.774 187.556C396.032 187.556 395.724 187.934 395.724 188.452V188.732C395.724 189.25 396.032 189.628 396.774 189.628ZM395.878 198H397.67V190.692H395.878V198ZM403.687 194.626V192.848H399.683V194.626H403.687ZM410.969 198V196.572H407.049L410.871 192.078V190.692H405.103V192.106H408.771L404.977 196.572V198H410.969ZM415.43 198.168C417.53 198.168 418.832 196.684 418.832 194.332C418.832 191.994 417.53 190.524 415.43 190.524C413.344 190.524 412.042 191.994 412.042 194.332C412.042 196.684 413.344 198.168 415.43 198.168ZM415.43 196.726C414.506 196.726 413.918 196.124 413.918 195.018V193.66C413.918 192.568 414.506 191.966 415.43 191.966C416.368 191.966 416.956 192.568 416.956 193.66V195.018C416.956 196.124 416.368 196.726 415.43 196.726ZM422.372 198V193.17C422.372 192.386 423.086 191.994 423.828 191.994C424.682 191.994 425.032 192.526 425.032 193.562V198H426.824V193.38C426.824 191.56 425.984 190.524 424.486 190.524C423.352 190.524 422.736 191.126 422.442 191.91H422.372V190.692H420.58V198H422.372ZM431.925 198.168C433.283 198.168 434.347 197.65 434.949 196.824L433.983 195.746C433.535 196.32 433.003 196.74 432.121 196.74C430.945 196.74 430.343 196.026 430.343 194.976V194.794H435.201V194.206C435.201 192.204 434.151 190.524 431.869 190.524C429.727 190.524 428.481 192.022 428.481 194.332C428.481 196.67 429.769 198.168 431.925 198.168ZM431.897 191.868C432.821 191.868 433.339 192.554 433.339 193.562V193.688H430.343V193.576C430.343 192.568 430.959 191.868 431.897 191.868Z" fill="black"/>
<rect x="465.5" y="144.5" width="31" height="15" rx="7.5" fill="white"/>
<path d="M479.204 156H480.368V147.624H479.384V154.596H479.348L478.34 152.736L475.28 147.624H474.116V156H475.1V149.028H475.136L476.144 150.888L479.204 156ZM485.164 156.144C486.82 156.144 487.96 154.872 487.96 152.904C487.96 150.936 486.82 149.664 485.164 149.664C483.508 149.664 482.368 150.936 482.368 152.904C482.368 154.872 483.508 156.144 485.164 156.144ZM485.164 155.292C484.132 155.292 483.4 154.656 483.4 153.348V152.46C483.4 151.152 484.132 150.516 485.164 150.516C486.196 150.516 486.928 151.152 486.928 152.46V153.348C486.928 154.656 486.196 155.292 485.164 155.292Z" fill="black"/>
<rect x="465.5" y="144.5" width="31" height="15" rx="7.5" stroke="black"/>
<path d="M703 152L743.187 152C747.608 152 751.191 155.587 751.187 160.008L751.177 169.582L751.177 209C751.177 213.418 754.759 217 759.177 217L779 217" stroke="#8F8B8B"/>
<defs>
<clipPath id="clip0_700_40563">
<rect width="160" height="48" fill="white" transform="translate(543 192)"/>
</clipPath>
<clipPath id="clip1_700_40563">
<rect width="160" height="48" fill="white" transform="translate(543 128)"/>
</clipPath>
<clipPath id="clip2_700_40563">
<rect width="383" height="48" fill="white" transform="translate(320 48)"/>
</clipPath>
</defs>
</svg>
