<svg width="1080" height="529" viewBox="0 0 1080 529" fill="none" xmlns="http://www.w3.org/2000/svg">
<rect width="1080" height="529" fill="#F4F4F4"/>
<path fill-rule="evenodd" clip-rule="evenodd" d="M439.446 151.003H478.702V152.003H439.446H409.457C405.315 152.003 401.957 155.361 401.957 159.503V202.723H401.957V255.496C401.957 259.638 405.315 262.996 409.457 262.996H580V263.996H409.457C404.763 263.996 400.957 260.191 400.957 255.496V230.588H400.957V159.503C400.957 154.809 404.763 151.003 409.457 151.003H439.446Z" fill="#8F8B8B"/>
<path fill-rule="evenodd" clip-rule="evenodd" d="M441.412 151.003H489.5V152.003H441.412H409.48C405.338 152.003 401.98 155.361 401.98 159.503V261.458H401.981V383.922C401.981 388.065 405.339 391.422 409.481 391.422H748V392.422H409.481C404.786 392.422 400.981 388.617 400.981 383.922V321.278H400.98V159.503C400.98 154.808 404.786 151.003 409.48 151.003H441.412Z" fill="#8F8B8B"/>
<path d="M611 243V160C611 155.582 607.418 152 603 152H539.689H499" stroke="#8F8B8B"/>
<path d="M615 233L611 241L607 233L615 233Z" fill="#8F8B8B"/>
<path d="M580 260L588 264L580 268V260Z" fill="#8F8B8B"/>
<path d="M474 388L482 392L474 396V388Z" fill="#8F8B8B"/>
<rect x="368.5" y="185.5" width="67" height="15" rx="7.5" fill="white"/>
<path d="M379.468 197.144C381.268 197.144 382.348 196.16 382.348 194.624C382.348 193.376 381.64 192.656 380.008 192.284L379.324 192.128C378.268 191.888 377.752 191.528 377.752 190.736C377.752 189.836 378.412 189.368 379.48 189.368C380.452 189.368 381.088 189.764 381.544 190.4L382.3 189.848C381.676 188.96 380.788 188.48 379.528 188.48C377.884 188.48 376.756 189.284 376.756 190.772C376.756 192.056 377.596 192.728 379.12 193.076L379.804 193.232C380.908 193.484 381.352 193.88 381.352 194.672C381.352 195.632 380.704 196.256 379.504 196.256C378.532 196.256 377.836 195.836 377.248 195.056L376.504 195.68C377.176 196.592 378.124 197.144 379.468 197.144ZM386.881 197V196.16H385.621V191.648H386.977V190.808H385.621V189.092H384.757V190.244C384.757 190.664 384.625 190.808 384.217 190.808H383.641V191.648H384.661V195.98C384.661 196.58 385.021 197 385.681 197H386.881ZM393.88 197V196.16H393.172V192.752C393.172 191.444 392.284 190.664 390.796 190.664C389.68 190.664 388.936 191.216 388.6 191.876L389.176 192.416C389.512 191.852 390.004 191.492 390.748 191.492C391.732 191.492 392.212 191.972 392.212 192.848V193.46H390.988C389.188 193.46 388.348 194.108 388.348 195.272C388.348 196.424 389.116 197.144 390.424 197.144C391.288 197.144 391.948 196.748 392.212 195.992H392.272C392.344 196.568 392.632 197 393.34 197H393.88ZM390.58 196.328C389.836 196.328 389.356 195.98 389.356 195.368V195.116C389.356 194.516 389.848 194.18 390.94 194.18H392.212V195.2C392.212 195.836 391.528 196.328 390.58 196.328ZM396.53 197V192.704C396.53 191.912 397.274 191.528 398.042 191.528C398.966 191.528 399.446 192.092 399.446 193.196V197H400.406V193.028C400.406 191.528 399.602 190.664 398.33 190.664C397.406 190.664 396.878 191.12 396.578 191.816H396.53V190.808H395.57V197H396.53ZM406.67 197H407.63V188.12H406.67V191.816H406.622C406.298 191.036 405.662 190.664 404.81 190.664C403.262 190.664 402.29 191.924 402.29 193.904C402.29 195.884 403.262 197.144 404.81 197.144C405.662 197.144 406.25 196.76 406.622 195.992H406.67V197ZM405.074 196.28C403.994 196.28 403.322 195.536 403.322 194.432V193.376C403.322 192.272 403.994 191.528 405.074 191.528C405.95 191.528 406.67 192.032 406.67 192.716V195.02C406.67 195.824 405.95 196.28 405.074 196.28ZM415.031 197V196.16H414.323V192.752C414.323 191.444 413.435 190.664 411.947 190.664C410.831 190.664 410.087 191.216 409.751 191.876L410.327 192.416C410.663 191.852 411.155 191.492 411.899 191.492C412.883 191.492 413.363 191.972 413.363 192.848V193.46H412.139C410.339 193.46 409.499 194.108 409.499 195.272C409.499 196.424 410.267 197.144 411.575 197.144C412.439 197.144 413.099 196.748 413.363 195.992H413.423C413.495 196.568 413.783 197 414.491 197H415.031ZM411.731 196.328C410.987 196.328 410.507 195.98 410.507 195.368V195.116C410.507 194.516 410.999 194.18 412.091 194.18H413.363V195.2C413.363 195.836 412.679 196.328 411.731 196.328ZM417.681 197V192.8C417.681 192.212 418.305 191.768 419.337 191.768H419.901V190.808H419.529C418.521 190.808 417.957 191.36 417.741 191.948H417.681V190.808H416.721V197H417.681ZM425.337 197H426.297V188.12H425.337V191.816H425.289C424.965 191.036 424.329 190.664 423.477 190.664C421.929 190.664 420.957 191.924 420.957 193.904C420.957 195.884 421.929 197.144 423.477 197.144C424.329 197.144 424.917 196.76 425.289 195.992H425.337V197ZM423.741 196.28C422.661 196.28 421.989 195.536 421.989 194.432V193.376C421.989 192.272 422.661 191.528 423.741 191.528C424.617 191.528 425.337 192.032 425.337 192.716V195.02C425.337 195.824 424.617 196.28 423.741 196.28Z" fill="black"/>
<rect x="368.5" y="185.5" width="67" height="15" rx="7.5" stroke="black"/>
<path d="M712 392H680.124C675.706 392 672.124 388.418 672.124 384V271C672.124 266.582 668.543 263 664.124 263H603" stroke="#8F8B8B"/>
<path d="M740 388L748 392L740 396V388Z" fill="#8F8B8B"/>
<rect x="747.5" y="384.5" width="71" height="15" rx="7.5" fill="white"/>
<path d="M761.6 388.512V387.624H755.264V388.512H757.928V396H758.936V388.512H761.6ZM764.762 396.144C766.418 396.144 767.558 394.872 767.558 392.904C767.558 390.936 766.418 389.664 764.762 389.664C763.106 389.664 761.966 390.936 761.966 392.904C761.966 394.872 763.106 396.144 764.762 396.144ZM764.762 395.292C763.73 395.292 762.998 394.656 762.998 393.348V392.46C762.998 391.152 763.73 390.516 764.762 390.516C765.794 390.516 766.526 391.152 766.526 392.46V393.348C766.526 394.656 765.794 395.292 764.762 395.292ZM774.473 396.144C775.889 396.144 776.765 395.412 776.765 394.212C776.765 393.276 776.237 392.676 774.869 392.472L774.389 392.4C773.621 392.28 773.201 392.04 773.201 391.44C773.201 390.852 773.621 390.48 774.413 390.48C775.205 390.48 775.733 390.852 776.009 391.236L776.645 390.66C776.141 390.036 775.481 389.664 774.485 389.664C773.225 389.664 772.277 390.264 772.277 391.488C772.277 392.64 773.129 393.108 774.269 393.276L774.761 393.348C775.577 393.468 775.841 393.84 775.841 394.32C775.841 394.956 775.361 395.328 774.545 395.328C773.765 395.328 773.189 394.98 772.709 394.38L772.025 394.932C772.577 395.664 773.333 396.144 774.473 396.144ZM781.266 396V395.16H780.006V390.648H781.362V389.808H780.006V388.092H779.142V389.244C779.142 389.664 779.01 389.808 778.602 389.808H778.026V390.648H779.046V394.98C779.046 395.58 779.406 396 780.066 396H781.266ZM785.507 396.144C786.671 396.144 787.559 395.568 787.955 394.728L787.271 394.236C786.947 394.92 786.347 395.304 785.567 395.304C784.415 395.304 783.731 394.5 783.731 393.432V393.144H788.183V392.688C788.183 390.936 787.163 389.664 785.507 389.664C783.827 389.664 782.723 390.936 782.723 392.904C782.723 394.872 783.827 396.144 785.507 396.144ZM785.507 390.468C786.491 390.468 787.151 391.2 787.151 392.292V392.424H783.731V392.34C783.731 391.26 784.463 390.468 785.507 390.468ZM790.085 398.4H791.045V394.992H791.093C791.465 395.76 792.053 396.144 792.905 396.144C794.453 396.144 795.425 394.884 795.425 392.904C795.425 390.924 794.453 389.664 792.905 389.664C792.053 389.664 791.417 390.036 791.093 390.816H791.045V389.808H790.085V398.4ZM792.641 395.28C791.765 395.28 791.045 394.824 791.045 394.02V391.716C791.045 391.032 791.765 390.528 792.641 390.528C793.721 390.528 794.393 391.272 794.393 392.376V393.432C794.393 394.536 793.721 395.28 792.641 395.28ZM805.897 395.112H801.493L803.749 393.084C804.817 392.124 805.585 391.212 805.585 389.916C805.585 388.488 804.649 387.48 803.017 387.48C801.397 387.48 800.653 388.464 800.329 389.448L801.229 389.796C801.457 389.004 801.937 388.38 802.969 388.38C804.001 388.38 804.517 389.016 804.517 389.94V390.084C804.517 390.888 803.917 391.728 803.137 392.448L800.401 394.968V396H805.897V395.112ZM808.649 396.144C809.153 396.144 809.381 395.856 809.381 395.448V395.292C809.381 394.884 809.153 394.596 808.649 394.596C808.145 394.596 807.917 394.884 807.917 395.292V395.448C807.917 395.856 808.145 396.144 808.649 396.144Z" fill="black"/>
<rect x="747.5" y="384.5" width="71" height="15" rx="7.5" stroke="black"/>
<rect width="82" height="92" transform="translate(463 368)" fill="white" style="mix-blend-mode:multiply"/>
<rect width="48" height="48" transform="translate(480 368)" fill="#DA1E28"/>
<rect width="20" height="20" transform="translate(494 382)" fill="white" style="mix-blend-mode:multiply"/>
<path d="M510.538 391.873C510.462 390.936 510.212 390.021 509.801 389.175L512.125 388.331C511.942 387.952 511.727 387.588 511.483 387.245L510.393 387.642C509.441 386.308 508.079 385.323 506.514 384.837C504.948 384.351 503.267 384.392 501.728 384.954C500.188 385.515 498.875 386.565 497.989 387.944C497.104 389.323 496.694 390.954 496.824 392.587L497.917 392.187C497.951 392.605 498.02 393.02 498.123 393.427L495.802 394.274C496.032 395.185 496.429 396.046 496.973 396.812L498.202 396.365L498.203 396.367C498.949 397.417 499.955 398.255 501.122 398.799C502.925 399.637 504.987 399.726 506.855 399.046C508.723 398.366 510.245 396.972 511.088 395.171C511.634 394.003 511.867 392.712 511.763 391.426L510.538 391.873ZM508.713 394.058C508.167 395.228 507.179 396.134 505.966 396.576C504.753 397.018 503.414 396.961 502.243 396.417C501.712 396.17 501.231 395.829 500.823 395.409L499.583 395.862C498.916 395.175 498.466 394.308 498.286 393.368L498.287 393.368L500.614 392.52C500.532 392.095 500.506 391.661 500.537 391.229L499.443 391.627C499.501 390.841 499.749 390.081 500.166 389.413C500.583 388.745 501.156 388.188 501.836 387.79C502.516 387.393 503.282 387.167 504.069 387.131C504.856 387.096 505.64 387.253 506.353 387.587H506.357C506.886 387.836 507.365 388.178 507.772 388.597L508.863 388.201C509.163 388.51 509.422 388.858 509.631 389.235L507.312 390.085C507.779 390.92 507.992 391.874 507.922 392.828L509.153 392.381C509.109 392.962 508.961 393.531 508.713 394.058H508.713Z" fill="white"/>
<path d="M480.683 434.234H482.433L484.253 438H486.311L484.309 434.024C485.513 433.618 486.129 432.596 486.129 431.252C486.129 429.404 485.023 428.228 483.245 428.228H478.835V438H480.683V434.234ZM480.683 432.68V429.838H483.063C483.777 429.838 484.211 430.216 484.211 430.93V431.574C484.211 432.288 483.777 432.68 483.063 432.68H480.683ZM490.929 438.168C492.287 438.168 493.351 437.65 493.953 436.824L492.987 435.746C492.539 436.32 492.007 436.74 491.125 436.74C489.949 436.74 489.347 436.026 489.347 434.976V434.794H494.205V434.206C494.205 432.204 493.155 430.524 490.873 430.524C488.731 430.524 487.485 432.022 487.485 434.332C487.485 436.67 488.773 438.168 490.929 438.168ZM490.901 431.868C491.825 431.868 492.343 432.554 492.343 433.562V433.688H489.347V433.576C489.347 432.568 489.963 431.868 490.901 431.868ZM500.477 438H502.269V427.64H500.477V431.896H500.407C500.155 431.056 499.357 430.524 498.391 430.524C496.557 430.524 495.535 431.896 495.535 434.332C495.535 436.782 496.557 438.168 498.391 438.168C499.357 438.168 500.141 437.608 500.407 436.782H500.477V438ZM498.965 436.684C498.041 436.684 497.411 436.012 497.411 434.976V433.716C497.411 432.68 498.041 431.994 498.965 431.994C499.819 431.994 500.477 432.456 500.477 433.17V435.494C500.477 436.25 499.819 436.684 498.965 436.684ZM513.999 438H515.847V428.228H513.999V432.232H509.925V428.228H508.077V438H509.925V433.87H513.999V438ZM519.993 438.168C521.085 438.168 521.883 437.678 522.121 436.74H522.205C522.317 437.496 522.793 438 523.563 438H524.557V436.572H523.829V433.128C523.829 431.462 522.779 430.524 520.805 430.524C519.335 430.524 518.481 431.084 517.949 431.924L519.013 432.876C519.363 432.372 519.839 431.952 520.679 431.952C521.631 431.952 522.037 432.428 522.037 433.24V433.772H520.791C518.803 433.772 517.669 434.514 517.669 436.012C517.669 437.314 518.509 438.168 519.993 438.168ZM520.595 436.866C519.895 436.866 519.489 436.572 519.489 435.984V435.746C519.489 435.172 519.951 434.85 520.889 434.85H522.037V435.816C522.037 436.502 521.393 436.866 520.595 436.866ZM528.395 438H529.683V436.572H528.297V432.12H529.795V430.692H528.297V428.69H526.687V429.936C526.687 430.44 526.519 430.692 525.987 430.692H525.427V432.12H526.505V436.138C526.505 437.328 527.163 438 528.395 438ZM475.75 456.168C478.326 456.168 480.006 454.418 480.006 451.114C480.006 447.81 478.326 446.06 475.75 446.06C473.188 446.06 471.494 447.81 471.494 451.114C471.494 454.418 473.188 456.168 475.75 456.168ZM475.75 454.53C474.35 454.53 473.454 453.536 473.454 451.87V450.358C473.454 448.692 474.35 447.698 475.75 447.698C477.15 447.698 478.046 448.692 478.046 450.358V451.87C478.046 453.536 477.15 454.53 475.75 454.53ZM481.929 458.8H483.721V454.782H483.777C484.057 455.608 484.827 456.168 485.793 456.168C487.641 456.168 488.663 454.782 488.663 452.332C488.663 449.896 487.641 448.524 485.793 448.524C484.827 448.524 484.043 449.056 483.777 449.896H483.721V448.692H481.929V458.8ZM485.219 454.684C484.365 454.684 483.721 454.25 483.721 453.494V451.17C483.721 450.456 484.365 449.994 485.219 449.994C486.143 449.994 486.787 450.68 486.787 451.716V452.976C486.787 454.012 486.143 454.684 485.219 454.684ZM493.438 456.168C494.796 456.168 495.86 455.65 496.462 454.824L495.496 453.746C495.048 454.32 494.516 454.74 493.634 454.74C492.458 454.74 491.856 454.026 491.856 452.976V452.794H496.714V452.206C496.714 450.204 495.664 448.524 493.382 448.524C491.24 448.524 489.994 450.022 489.994 452.332C489.994 454.67 491.282 456.168 493.438 456.168ZM493.41 449.868C494.334 449.868 494.852 450.554 494.852 451.562V451.688H491.856V451.576C491.856 450.568 492.472 449.868 493.41 449.868ZM500.242 456V451.17C500.242 450.386 500.956 449.994 501.698 449.994C502.552 449.994 502.902 450.526 502.902 451.562V456H504.694V451.38C504.694 449.56 503.854 448.524 502.356 448.524C501.222 448.524 500.606 449.126 500.312 449.91H500.242V448.692H498.45V456H500.242ZM509.991 456.168C512.329 456.168 513.659 454.908 513.659 453.06C513.659 451.45 512.735 450.568 510.761 450.218L509.851 450.05C508.913 449.882 508.493 449.574 508.493 448.832C508.493 448.104 509.039 447.684 510.089 447.684C511.125 447.684 511.797 448.09 512.273 448.692L513.533 447.502C512.749 446.564 511.657 446.06 510.187 446.06C508.003 446.06 506.645 447.194 506.645 448.944C506.645 450.54 507.597 451.478 509.571 451.786L510.495 451.926C511.517 452.108 511.825 452.514 511.825 453.172C511.825 453.998 511.237 454.544 510.103 454.544C509.095 454.544 508.269 454.124 507.597 453.34L506.351 454.544C507.177 455.51 508.325 456.168 509.991 456.168ZM515.559 456H517.351V451.17C517.351 450.386 518.065 449.994 518.807 449.994C519.661 449.994 520.011 450.526 520.011 451.562V456H521.803V451.38C521.803 449.56 520.963 448.524 519.465 448.524C518.331 448.524 517.715 449.126 517.421 449.91H517.351V445.64H515.559V456ZM524.846 447.628C525.574 447.628 525.896 447.25 525.896 446.732V446.452C525.896 445.934 525.574 445.556 524.846 445.556C524.104 445.556 523.796 445.934 523.796 446.452V446.732C523.796 447.25 524.104 447.628 524.846 447.628ZM523.95 456H525.742V448.692H523.95V456ZM528.343 456H530.135V450.106H531.633V448.692H530.135V447.068H531.633V445.64H530.359C529.043 445.64 528.343 446.354 528.343 447.642V448.692H527.265V450.106H528.343V456ZM535.315 456H536.603V454.572H535.217V450.12H536.715V448.692H535.217V446.69H533.607V447.936C533.607 448.44 533.439 448.692 532.907 448.692H532.347V450.12H533.425V454.138C533.425 455.328 534.083 456 535.315 456Z" fill="black"/>
<rect width="82" height="110" transform="translate(570 240)" fill="white" style="mix-blend-mode:multiply"/>
<rect width="48" height="48" transform="translate(587 240)" fill="#0F62FE"/>
<rect width="20" height="20" transform="translate(601 254)" fill="white" style="mix-blend-mode:multiply"/>
<path d="M611 268.375C610.875 268.375 610.75 268.375 610.688 268.312L607.562 266.437C607.375 266.312 607.25 266.125 607.25 265.875V262.125C607.25 261.875 607.375 261.688 607.562 261.563L610.688 259.688C610.75 259.625 610.875 259.625 611 259.625C611.125 259.625 611.25 259.625 611.312 259.688L614.438 261.563C614.625 261.688 614.75 261.875 614.75 262.125V265.875C614.75 266.125 614.625 266.312 614.438 266.437L611.312 268.312C611.25 268.375 611.125 268.375 611 268.375ZM608.5 265.5L611 267L613.5 265.5V262.438L611 260.938L608.5 262.438V265.5Z" fill="white"/>
<path d="M611 273.375C610.875 273.375 610.813 273.375 610.688 273.312L603.188 268.937C603 268.812 602.875 268.625 602.875 268.375V259.625C602.875 259.375 603 259.188 603.188 259.063L610.688 254.688C610.813 254.625 610.875 254.625 611 254.625C611.125 254.625 611.187 254.625 611.312 254.688L618.812 259.063L618.188 260.125L611 256L604.125 260V268.062L611 272.062L617.875 268.062V263.375H619.125V268.375C619.125 268.625 619 268.812 618.812 268.937L611.312 273.312C611.187 273.375 611.125 273.375 611 273.375Z" fill="white"/>
<path d="M602.704 310V308.516H601.402V301.712H602.704V300.228H598.266V301.712H599.554V308.516H598.266V310H602.704ZM604.752 310H609.708C611.15 310 612.228 308.768 612.228 307.2C612.228 305.534 610.968 304.932 610.114 304.918V304.834C611.01 304.778 611.864 304.218 611.864 302.734C611.864 301.222 610.884 300.228 609.274 300.228H604.752V310ZM606.6 305.814H609.176C609.876 305.814 610.296 306.206 610.296 306.892V307.368C610.296 308.054 609.876 308.432 609.176 308.432H606.6V305.814ZM606.6 301.796H608.882C609.554 301.796 609.946 302.174 609.946 302.832V303.266C609.946 303.91 609.554 304.302 608.882 304.302H606.6V301.796ZM614.195 310H615.945V302.986H616.001L616.757 304.54L618.759 308.236L620.761 304.54L621.517 302.986H621.573V310H623.323V300.228H621.321L618.843 305.002H618.787L616.281 300.228H614.195V310ZM579.686 328H581.884L578.202 322.302L581.604 318.228H579.476L577.054 321.21L575.668 323.044H575.598V318.228H573.75V328H575.598V325.116L576.9 323.576L579.686 328ZM587.422 328H589.214V320.692H587.422V325.522C587.422 326.306 586.708 326.684 585.994 326.684C585.14 326.684 584.762 326.138 584.762 325.13V320.692H582.97V325.312C582.97 327.132 583.81 328.168 585.308 328.168C586.512 328.168 587.1 327.51 587.352 326.782H587.422V328ZM591.445 328H593.237V326.782H593.293C593.573 327.608 594.343 328.168 595.309 328.168C597.157 328.168 598.179 326.782 598.179 324.332C598.179 321.896 597.157 320.524 595.309 320.524C594.343 320.524 593.559 321.056 593.293 321.896H593.237V317.64H591.445V328ZM594.735 326.684C593.881 326.684 593.237 326.25 593.237 325.494V323.17C593.237 322.456 593.881 321.994 594.735 321.994C595.659 321.994 596.303 322.68 596.303 323.716V324.976C596.303 326.012 595.659 326.684 594.735 326.684ZM602.953 328.168C604.311 328.168 605.375 327.65 605.977 326.824L605.011 325.746C604.563 326.32 604.031 326.74 603.149 326.74C601.973 326.74 601.371 326.026 601.371 324.976V324.794H606.229V324.206C606.229 322.204 605.179 320.524 602.897 320.524C600.755 320.524 599.509 322.022 599.509 324.332C599.509 326.67 600.797 328.168 602.953 328.168ZM602.925 321.868C603.849 321.868 604.367 322.554 604.367 323.562V323.688H601.371V323.576C601.371 322.568 601.987 321.868 602.925 321.868ZM609.758 328V323.52C609.758 322.722 610.388 322.386 611.592 322.386H612.152V320.692H611.76C610.598 320.692 610.01 321.434 609.828 322.204H609.758V320.692H607.966V328H609.758ZM615.414 328V323.17C615.414 322.386 616.128 321.994 616.87 321.994C617.724 321.994 618.074 322.526 618.074 323.562V328H619.866V323.38C619.866 321.56 619.026 320.524 617.528 320.524C616.394 320.524 615.778 321.126 615.484 321.91H615.414V320.692H613.622V328H615.414ZM624.966 328.168C626.324 328.168 627.388 327.65 627.99 326.824L627.024 325.746C626.576 326.32 626.044 326.74 625.162 326.74C623.986 326.74 623.384 326.026 623.384 324.976V324.794H628.242V324.206C628.242 322.204 627.192 320.524 624.91 320.524C622.768 320.524 621.522 322.022 621.522 324.332C621.522 326.67 622.81 328.168 624.966 328.168ZM624.938 321.868C625.862 321.868 626.38 322.554 626.38 323.562V323.688H623.384V323.576C623.384 322.568 624 321.868 624.938 321.868ZM632.261 328H633.549V326.572H632.163V322.12H633.661V320.692H632.163V318.69H630.553V319.936C630.553 320.44 630.385 320.692 629.853 320.692H629.293V322.12H630.371V326.138C630.371 327.328 631.029 328 632.261 328ZM638.275 328.168C639.633 328.168 640.697 327.65 641.299 326.824L640.333 325.746C639.885 326.32 639.353 326.74 638.471 326.74C637.295 326.74 636.693 326.026 636.693 324.976V324.794H641.551V324.206C641.551 322.204 640.501 320.524 638.219 320.524C636.077 320.524 634.831 322.022 634.831 324.332C634.831 326.67 636.119 328.168 638.275 328.168ZM638.247 321.868C639.171 321.868 639.689 322.554 639.689 323.562V323.688H636.693V323.576C636.693 322.568 637.309 321.868 638.247 321.868ZM645.681 328.168C647.501 328.168 648.691 327.188 648.691 325.774C648.691 324.556 647.921 323.842 646.325 323.618L645.583 323.52C644.897 323.408 644.631 323.184 644.631 322.694C644.631 322.246 644.967 321.938 645.737 321.938C646.451 321.938 647.067 322.274 647.487 322.722L648.537 321.672C647.837 320.944 647.109 320.524 645.681 320.524C644.015 320.524 642.909 321.42 642.909 322.834C642.909 324.164 643.777 324.85 645.345 325.046L646.073 325.144C646.717 325.228 646.969 325.494 646.969 325.914C646.969 326.432 646.605 326.754 645.751 326.754C644.925 326.754 644.281 326.376 643.749 325.76L642.657 326.824C643.385 327.664 644.295 328.168 645.681 328.168ZM590.657 346.168C592.995 346.168 594.325 344.908 594.325 343.06C594.325 341.45 593.401 340.568 591.427 340.218L590.517 340.05C589.579 339.882 589.159 339.574 589.159 338.832C589.159 338.104 589.705 337.684 590.755 337.684C591.791 337.684 592.463 338.09 592.939 338.692L594.199 337.502C593.415 336.564 592.323 336.06 590.853 336.06C588.669 336.06 587.311 337.194 587.311 338.944C587.311 340.54 588.263 341.478 590.237 341.786L591.161 341.926C592.183 342.108 592.491 342.514 592.491 343.172C592.491 343.998 591.903 344.544 590.769 344.544C589.761 344.544 588.935 344.124 588.263 343.34L587.017 344.544C587.843 345.51 588.991 346.168 590.657 346.168ZM599.18 346.168C600.538 346.168 601.602 345.65 602.204 344.824L601.238 343.746C600.79 344.32 600.258 344.74 599.376 344.74C598.2 344.74 597.598 344.026 597.598 342.976V342.794H602.456V342.206C602.456 340.204 601.406 338.524 599.124 338.524C596.982 338.524 595.736 340.022 595.736 342.332C595.736 344.67 597.024 346.168 599.18 346.168ZM599.152 339.868C600.076 339.868 600.594 340.554 600.594 341.562V341.688H597.598V341.576C597.598 340.568 598.214 339.868 599.152 339.868ZM605.984 346V341.52C605.984 340.722 606.614 340.386 607.818 340.386H608.378V338.692H607.986C606.824 338.692 606.236 339.434 606.054 340.204H605.984V338.692H604.192V346H605.984ZM613.654 346L616.104 338.692H614.396L613.402 341.842L612.688 344.446H612.59L611.876 341.842L610.854 338.692H609.09L611.526 346H613.654ZM618.356 337.628C619.084 337.628 619.406 337.25 619.406 336.732V336.452C619.406 335.934 619.084 335.556 618.356 335.556C617.614 335.556 617.306 335.934 617.306 336.452V336.732C617.306 337.25 617.614 337.628 618.356 337.628ZM617.46 346H619.252V338.692H617.46V346ZM624.373 346.168C625.787 346.168 626.809 345.524 627.285 344.236L625.913 343.578C625.647 344.236 625.227 344.726 624.373 344.726C623.379 344.726 622.875 344.04 622.875 343.018V341.688C622.875 340.666 623.379 339.966 624.373 339.966C625.143 339.966 625.605 340.414 625.773 341.03L627.243 340.372C626.809 339.224 625.843 338.524 624.373 338.524C622.217 338.524 620.999 339.994 620.999 342.332C620.999 344.684 622.217 346.168 624.373 346.168ZM631.712 346.168C633.07 346.168 634.134 345.65 634.736 344.824L633.77 343.746C633.322 344.32 632.79 344.74 631.908 344.74C630.732 344.74 630.13 344.026 630.13 342.976V342.794H634.988V342.206C634.988 340.204 633.938 338.524 631.656 338.524C629.514 338.524 628.268 340.022 628.268 342.332C628.268 344.67 629.556 346.168 631.712 346.168ZM631.684 339.868C632.608 339.868 633.126 340.554 633.126 341.562V341.688H630.13V341.576C630.13 340.568 630.746 339.868 631.684 339.868Z" fill="black"/>
<rect x="48.5" y="464.5" width="15" height="15" rx="3.5" fill="white" style="mix-blend-mode:multiply"/>
<rect x="48.5" y="464.5" width="15" height="15" rx="3.5" stroke="#8D8D8D"/>
<path d="M78.636 477V475.964H74.478V467.228H73.302V477H78.636ZM82.957 477.168C84.889 477.168 86.219 475.684 86.219 473.388C86.219 471.092 84.889 469.608 82.957 469.608C81.025 469.608 79.695 471.092 79.695 473.388C79.695 475.684 81.025 477.168 82.957 477.168ZM82.957 476.174C81.753 476.174 80.899 475.432 80.899 473.906V472.87C80.899 471.344 81.753 470.602 82.957 470.602C84.161 470.602 85.015 471.344 85.015 472.87V473.906C85.015 475.432 84.161 476.174 82.957 476.174ZM94.3109 477.798C94.3109 476.608 93.5409 475.88 91.7489 475.88H90.2089C89.5509 475.88 89.1029 475.768 89.1029 475.334C89.1029 474.886 89.5789 474.648 90.0549 474.522C90.2649 474.564 90.5169 474.592 90.7549 474.592C92.4069 474.592 93.4849 473.57 93.4849 472.1C93.4849 471.33 93.1769 470.686 92.6589 470.238V469.776H94.0309V468.796H92.9529C92.3509 468.796 92.1129 469.202 92.1129 469.762V469.888C91.7209 469.706 91.2589 469.608 90.7409 469.608C89.1029 469.608 88.0249 470.63 88.0249 472.1C88.0249 473.108 88.5289 473.906 89.3829 474.312V474.368C88.6549 474.55 88.1369 474.9 88.1369 475.628C88.1369 476.118 88.3749 476.44 88.7809 476.636V476.79C88.0669 476.986 87.6329 477.406 87.6329 478.19C87.6329 479.324 88.5569 479.968 90.8109 479.968C93.1349 479.968 94.3109 479.282 94.3109 477.798ZM93.2609 477.882C93.2609 478.666 92.5329 479.058 91.2869 479.058H90.2509C89.1169 479.058 88.6829 478.54 88.6829 477.91C88.6829 477.462 88.8929 477.14 89.3549 476.93H91.7629C92.8829 476.93 93.2609 477.308 93.2609 477.882ZM90.7549 473.696C89.8029 473.696 89.2009 473.248 89.2009 472.296V471.904C89.2009 470.952 89.8029 470.504 90.7549 470.504C91.7069 470.504 92.3089 470.952 92.3089 471.904V472.296C92.3089 473.248 91.7069 473.696 90.7549 473.696ZM96.3374 468.082C96.8134 468.082 97.0234 467.83 97.0234 467.452V467.27C97.0234 466.892 96.8134 466.64 96.3374 466.64C95.8614 466.64 95.6514 466.892 95.6514 467.27V467.452C95.6514 467.83 95.8614 468.082 96.3374 468.082ZM95.7774 477H96.8974V469.776H95.7774V477ZM102.125 477.168C103.497 477.168 104.435 476.496 104.897 475.46L104.085 474.914C103.693 475.74 103.035 476.174 102.125 476.174C100.795 476.174 100.109 475.264 100.109 474.004V472.772C100.109 471.512 100.795 470.602 102.125 470.602C103.007 470.602 103.623 471.036 103.889 471.778L104.827 471.302C104.407 470.308 103.553 469.608 102.125 469.608C100.095 469.608 98.9054 471.078 98.9054 473.388C98.9054 475.698 100.095 477.168 102.125 477.168ZM112.518 477V476.02H111.692V472.044C111.692 470.518 110.656 469.608 108.92 469.608C107.618 469.608 106.75 470.252 106.358 471.022L107.03 471.652C107.422 470.994 107.996 470.574 108.864 470.574C110.012 470.574 110.572 471.134 110.572 472.156V472.87H109.144C107.044 472.87 106.064 473.626 106.064 474.984C106.064 476.328 106.96 477.168 108.486 477.168C109.494 477.168 110.264 476.706 110.572 475.824H110.642C110.726 476.496 111.062 477 111.888 477H112.518ZM108.668 476.216C107.8 476.216 107.24 475.81 107.24 475.096V474.802C107.24 474.102 107.814 473.71 109.088 473.71H110.572V474.9C110.572 475.642 109.774 476.216 108.668 476.216ZM116.461 477V476.02H115.397V466.64H114.277V475.838C114.277 476.51 114.697 477 115.467 477H116.461ZM122.84 477V471.988C122.84 471.064 123.708 470.616 124.604 470.616C125.682 470.616 126.242 471.274 126.242 472.562V477H127.362V472.366C127.362 470.616 126.424 469.608 124.94 469.608C123.862 469.608 123.246 470.14 122.896 470.952H122.84V469.776H121.72V477H122.84ZM132.567 477.168C134.499 477.168 135.829 475.684 135.829 473.388C135.829 471.092 134.499 469.608 132.567 469.608C130.635 469.608 129.305 471.092 129.305 473.388C129.305 475.684 130.635 477.168 132.567 477.168ZM132.567 476.174C131.363 476.174 130.509 475.432 130.509 473.906V472.87C130.509 471.344 131.363 470.602 132.567 470.602C133.771 470.602 134.625 471.344 134.625 472.87V473.906C134.625 475.432 133.771 476.174 132.567 476.174ZM142.451 477H143.571V466.64H142.451V470.952H142.395C142.017 470.042 141.275 469.608 140.281 469.608C138.475 469.608 137.341 471.078 137.341 473.388C137.341 475.698 138.475 477.168 140.281 477.168C141.275 477.168 141.961 476.72 142.395 475.824H142.451V477ZM140.589 476.16C139.329 476.16 138.545 475.292 138.545 474.004V472.772C138.545 471.484 139.329 470.616 140.589 470.616C141.611 470.616 142.451 471.204 142.451 472.002V474.69C142.451 475.628 141.611 476.16 140.589 476.16ZM148.828 477.168C150.186 477.168 151.222 476.496 151.684 475.516L150.886 474.942C150.508 475.74 149.808 476.188 148.898 476.188C147.554 476.188 146.756 475.25 146.756 474.004V473.668H151.95V473.136C151.95 471.092 150.76 469.608 148.828 469.608C146.868 469.608 145.58 471.092 145.58 473.388C145.58 475.684 146.868 477.168 148.828 477.168ZM148.828 470.546C149.976 470.546 150.746 471.4 150.746 472.674V472.828H146.756V472.73C146.756 471.47 147.61 470.546 148.828 470.546Z" fill="#6F6F6F"/>
<rect x="169.5" y="464.5" width="15" height="15" stroke="#8D8D8D"/>
<path d="M195.478 477V472.828H198.194C199.944 472.828 200.924 471.75 200.924 470.028C200.924 468.306 199.944 467.228 198.194 467.228H194.302V477H195.478ZM195.478 468.264H198.194C199.118 468.264 199.664 468.768 199.664 469.664V470.392C199.664 471.288 199.118 471.792 198.194 471.792H195.478V468.264ZM203.824 477V472.1C203.824 471.414 204.552 470.896 205.756 470.896H206.414V469.776H205.98C204.804 469.776 204.146 470.42 203.894 471.106H203.824V469.776H202.704V477H203.824ZM210.652 477.168C212.01 477.168 213.046 476.496 213.508 475.516L212.71 474.942C212.332 475.74 211.632 476.188 210.722 476.188C209.378 476.188 208.58 475.25 208.58 474.004V473.668H213.774V473.136C213.774 471.092 212.584 469.608 210.652 469.608C208.692 469.608 207.404 471.092 207.404 473.388C207.404 475.684 208.692 477.168 210.652 477.168ZM210.652 470.546C211.8 470.546 212.57 471.4 212.57 472.674V472.828H208.58V472.73C208.58 471.47 209.434 470.546 210.652 470.546ZM217.949 477.168C219.601 477.168 220.623 476.314 220.623 474.914C220.623 473.822 220.007 473.122 218.411 472.884L217.851 472.8C216.955 472.66 216.465 472.38 216.465 471.68C216.465 470.994 216.955 470.56 217.879 470.56C218.803 470.56 219.419 470.994 219.741 471.442L220.483 470.77C219.895 470.042 219.125 469.608 217.963 469.608C216.493 469.608 215.387 470.308 215.387 471.736C215.387 473.08 216.381 473.626 217.711 473.822L218.285 473.906C219.237 474.046 219.545 474.48 219.545 475.04C219.545 475.782 218.985 476.216 218.033 476.216C217.123 476.216 216.451 475.81 215.891 475.11L215.093 475.754C215.737 476.608 216.619 477.168 217.949 477.168ZM225.45 477.168C226.822 477.168 227.76 476.496 228.222 475.46L227.41 474.914C227.018 475.74 226.36 476.174 225.45 476.174C224.12 476.174 223.434 475.264 223.434 474.004V472.772C223.434 471.512 224.12 470.602 225.45 470.602C226.332 470.602 226.948 471.036 227.214 471.778L228.152 471.302C227.732 470.308 226.878 469.608 225.45 469.608C223.42 469.608 222.23 471.078 222.23 473.388C222.23 475.698 223.42 477.168 225.45 477.168ZM231.083 477V472.1C231.083 471.414 231.811 470.896 233.015 470.896H233.673V469.776H233.239C232.063 469.776 231.405 470.42 231.153 471.106H231.083V469.776H229.963V477H231.083ZM235.823 468.082C236.299 468.082 236.509 467.83 236.509 467.452V467.27C236.509 466.892 236.299 466.64 235.823 466.64C235.347 466.64 235.137 466.892 235.137 467.27V467.452C235.137 467.83 235.347 468.082 235.823 468.082ZM235.263 477H236.383V469.776H235.263V477ZM238.923 477H240.043V475.824H240.099C240.533 476.72 241.219 477.168 242.213 477.168C244.019 477.168 245.153 475.698 245.153 473.388C245.153 471.078 244.019 469.608 242.213 469.608C241.219 469.608 240.477 470.042 240.099 470.952H240.043V466.64H238.923V477ZM241.905 476.16C240.883 476.16 240.043 475.628 240.043 474.69V472.002C240.043 471.204 240.883 470.616 241.905 470.616C243.165 470.616 243.949 471.484 243.949 472.772V474.004C243.949 475.292 243.165 476.16 241.905 476.16ZM249.92 477.168C251.278 477.168 252.314 476.496 252.776 475.516L251.978 474.942C251.6 475.74 250.9 476.188 249.99 476.188C248.646 476.188 247.848 475.25 247.848 474.004V473.668H253.042V473.136C253.042 471.092 251.852 469.608 249.92 469.608C247.96 469.608 246.672 471.092 246.672 473.388C246.672 475.684 247.96 477.168 249.92 477.168ZM249.92 470.546C251.068 470.546 251.838 471.4 251.838 472.674V472.828H247.848V472.73C247.848 471.47 248.702 470.546 249.92 470.546ZM259.668 477H260.788V466.64H259.668V470.952H259.612C259.234 470.042 258.492 469.608 257.498 469.608C255.692 469.608 254.558 471.078 254.558 473.388C254.558 475.698 255.692 477.168 257.498 477.168C258.492 477.168 259.178 476.72 259.612 475.824H259.668V477ZM257.806 476.16C256.546 476.16 255.762 475.292 255.762 474.004V472.772C255.762 471.484 256.546 470.616 257.806 470.616C258.828 470.616 259.668 471.204 259.668 472.002V474.69C259.668 475.628 258.828 476.16 257.806 476.16ZM267.918 477V471.988C267.918 471.064 268.786 470.616 269.682 470.616C270.76 470.616 271.32 471.274 271.32 472.562V477H272.44V472.366C272.44 470.616 271.502 469.608 270.018 469.608C268.94 469.608 268.324 470.14 267.974 470.952H267.918V469.776H266.798V477H267.918ZM277.645 477.168C279.577 477.168 280.907 475.684 280.907 473.388C280.907 471.092 279.577 469.608 277.645 469.608C275.713 469.608 274.383 471.092 274.383 473.388C274.383 475.684 275.713 477.168 277.645 477.168ZM277.645 476.174C276.441 476.174 275.587 475.432 275.587 473.906V472.87C275.587 471.344 276.441 470.602 277.645 470.602C278.849 470.602 279.703 471.344 279.703 472.87V473.906C279.703 475.432 278.849 476.174 277.645 476.174ZM287.529 477H288.649V466.64H287.529V470.952H287.473C287.095 470.042 286.353 469.608 285.359 469.608C283.553 469.608 282.419 471.078 282.419 473.388C282.419 475.698 283.553 477.168 285.359 477.168C286.353 477.168 287.039 476.72 287.473 475.824H287.529V477ZM285.667 476.16C284.407 476.16 283.623 475.292 283.623 474.004V472.772C283.623 471.484 284.407 470.616 285.667 470.616C286.689 470.616 287.529 471.204 287.529 472.002V474.69C287.529 475.628 286.689 476.16 285.667 476.16ZM293.906 477.168C295.264 477.168 296.3 476.496 296.762 475.516L295.964 474.942C295.586 475.74 294.886 476.188 293.976 476.188C292.632 476.188 291.834 475.25 291.834 474.004V473.668H297.028V473.136C297.028 471.092 295.838 469.608 293.906 469.608C291.946 469.608 290.658 471.092 290.658 473.388C290.658 475.684 291.946 477.168 293.906 477.168ZM293.906 470.546C295.054 470.546 295.824 471.4 295.824 472.674V472.828H291.834V472.73C291.834 471.47 292.688 470.546 293.906 470.546Z" fill="#6F6F6F"/>
<path d="M505.561 129.768L526.732 150.939C527.318 151.525 527.318 152.475 526.732 153.061L505.561 174.232C504.975 174.818 504.025 174.818 503.439 174.232L482.268 153.061C481.682 152.475 481.682 151.525 482.268 150.939L503.439 129.768C504.025 129.182 504.975 129.182 505.561 129.768Z" fill="#CAC5C4" stroke="#CAC5C4"/>
<rect width="20" height="20" transform="translate(495 142)" fill="white" style="mix-blend-mode:multiply"/>
<path d="M505 143.25C503.269 143.25 501.578 143.763 500.139 144.725C498.7 145.686 497.578 147.053 496.916 148.652C496.254 150.25 496.081 152.01 496.418 153.707C496.756 155.404 497.589 156.963 498.813 158.187C500.037 159.411 501.596 160.244 503.293 160.582C504.99 160.919 506.75 160.746 508.348 160.084C509.947 159.422 511.314 158.3 512.275 156.861C513.237 155.422 513.75 153.731 513.75 152C513.75 149.679 512.828 147.454 511.187 145.813C509.546 144.172 507.321 143.25 505 143.25ZM505 159.5C503.517 159.5 502.067 159.06 500.833 158.236C499.6 157.412 498.639 156.241 498.071 154.87C497.503 153.5 497.355 151.992 497.644 150.537C497.934 149.082 498.648 147.746 499.697 146.697C500.746 145.648 502.082 144.933 503.537 144.644C504.992 144.355 506.5 144.503 507.87 145.071C509.241 145.639 510.412 146.6 511.236 147.833C512.06 149.067 512.5 150.517 512.5 152C512.5 153.989 511.71 155.897 510.303 157.303C508.897 158.71 506.989 159.5 505 159.5Z" fill="black"/>
<path d="M505 157.625C505.518 157.625 505.938 157.205 505.938 156.688C505.938 156.17 505.518 155.75 505 155.75C504.482 155.75 504.063 156.17 504.063 156.688C504.063 157.205 504.482 157.625 505 157.625Z" fill="black"/>
<path d="M505.625 147H504.688C504.318 146.999 503.952 147.071 503.61 147.212C503.269 147.353 502.958 147.561 502.697 147.822C502.436 148.083 502.228 148.394 502.087 148.735C501.946 149.077 501.874 149.443 501.875 149.812V150.125H503.125V149.812C503.125 149.398 503.29 149.001 503.583 148.708C503.876 148.415 504.273 148.25 504.688 148.25H505.625C506.039 148.25 506.437 148.415 506.73 148.708C507.023 149.001 507.188 149.398 507.188 149.812C507.188 150.227 507.023 150.624 506.73 150.917C506.437 151.21 506.039 151.375 505.625 151.375H504.375V154.188H505.625V152.625C506.371 152.625 507.086 152.329 507.614 151.801C508.141 151.274 508.438 150.558 508.438 149.812C508.438 149.067 508.141 148.351 507.614 147.824C507.086 147.296 506.371 147 505.625 147Z" fill="black"/>
<path d="M486.529 198L483.281 188.228H480.985L477.709 198H479.585L480.355 195.508H483.827L484.611 198H486.529ZM483.379 193.926H480.803L482.049 189.908H482.119L483.379 193.926ZM490.901 198.168C492.315 198.168 493.337 197.524 493.813 196.236L492.441 195.578C492.175 196.236 491.755 196.726 490.901 196.726C489.907 196.726 489.403 196.04 489.403 195.018V193.688C489.403 192.666 489.907 191.966 490.901 191.966C491.671 191.966 492.133 192.414 492.301 193.03L493.771 192.372C493.337 191.224 492.371 190.524 490.901 190.524C488.745 190.524 487.527 191.994 487.527 194.332C487.527 196.684 488.745 198.168 490.901 198.168ZM498.17 198.168C499.584 198.168 500.606 197.524 501.082 196.236L499.71 195.578C499.444 196.236 499.024 196.726 498.17 196.726C497.176 196.726 496.672 196.04 496.672 195.018V193.688C496.672 192.666 497.176 191.966 498.17 191.966C498.94 191.966 499.402 192.414 499.57 193.03L501.04 192.372C500.606 191.224 499.64 190.524 498.17 190.524C496.014 190.524 494.796 191.994 494.796 194.332C494.796 196.684 496.014 198.168 498.17 198.168ZM505.454 198.168C507.554 198.168 508.856 196.684 508.856 194.332C508.856 191.994 507.554 190.524 505.454 190.524C503.368 190.524 502.066 191.994 502.066 194.332C502.066 196.684 503.368 198.168 505.454 198.168ZM505.454 196.726C504.53 196.726 503.942 196.124 503.942 195.018V193.66C503.942 192.568 504.53 191.966 505.454 191.966C506.392 191.966 506.98 192.568 506.98 193.66V195.018C506.98 196.124 506.392 196.726 505.454 196.726ZM514.972 198H516.764V190.692H514.972V195.522C514.972 196.306 514.258 196.684 513.544 196.684C512.69 196.684 512.312 196.138 512.312 195.13V190.692H510.52V195.312C510.52 197.132 511.36 198.168 512.858 198.168C514.062 198.168 514.65 197.51 514.902 196.782H514.972V198ZM520.787 198V193.17C520.787 192.386 521.501 191.994 522.243 191.994C523.097 191.994 523.447 192.526 523.447 193.562V198H525.239V193.38C525.239 191.56 524.399 190.524 522.901 190.524C521.767 190.524 521.151 191.126 520.857 191.91H520.787V190.692H518.995V198H520.787ZM529.667 198H530.955V196.572H529.569V192.12H531.067V190.692H529.569V188.69H527.959V189.936C527.959 190.44 527.791 190.692 527.259 190.692H526.699V192.12H527.777V196.138C527.777 197.328 528.435 198 529.667 198Z" fill="black"/>
<path d="M408 48.5H664C668.142 48.5 671.5 51.8579 671.5 56V88C671.5 92.1421 668.142 95.5 664 95.5H408C403.858 95.5 400.5 92.1421 400.5 88V56C400.5 51.8579 403.858 48.5 408 48.5Z" fill="white"/>
<path d="M401 56C401 52.134 404.134 49 408 49H664C667.866 49 671 52.134 671 56V88C671 91.866 667.866 95 664 95H408C404.134 95 401 91.866 401 88V56Z" fill="#F4F4F4"/>
<g clip-path="url(#clip0_700_40546)">
<path d="M400 56C400 51.5817 403.582 48 408 48H448V96H408C403.582 96 400 92.4183 400 88V56Z" fill="black"/>
<rect width="20" height="20" transform="translate(414 62)" fill="white" style="mix-blend-mode:multiply"/>
<path d="M424 67C423.382 67 422.778 67.1833 422.264 67.5267C421.75 67.87 421.349 68.3581 421.113 68.9291C420.876 69.5001 420.814 70.1285 420.935 70.7347C421.056 71.3408 421.353 71.8977 421.79 72.3347C422.227 72.7717 422.784 73.0694 423.39 73.19C423.997 73.3105 424.625 73.2486 425.196 73.0121C425.767 72.7756 426.255 72.3751 426.598 71.8612C426.942 71.3473 427.125 70.7431 427.125 70.125C427.125 69.2962 426.796 68.5013 426.21 67.9153C425.624 67.3292 424.829 67 424 67ZM424 72C423.629 72 423.267 71.89 422.958 71.684C422.65 71.478 422.41 71.1851 422.268 70.8425C422.126 70.4999 422.089 70.1229 422.161 69.7592C422.233 69.3955 422.412 69.0614 422.674 68.7992C422.936 68.537 423.27 68.3584 423.634 68.286C423.998 68.2137 424.375 68.2508 424.718 68.3927C425.06 68.5346 425.353 68.775 425.559 69.0833C425.765 69.3916 425.875 69.7542 425.875 70.125C425.874 70.6221 425.677 71.0987 425.325 71.4502C424.974 71.8017 424.497 71.9994 424 72Z" fill="white"/>
<path d="M424 63.25C422.269 63.25 420.578 63.7632 419.139 64.7246C417.7 65.6861 416.578 67.0527 415.916 68.6515C415.254 70.2504 415.081 72.0097 415.418 73.707C415.756 75.4044 416.589 76.9635 417.813 78.1872C419.037 79.4109 420.596 80.2442 422.293 80.5819C423.99 80.9195 425.75 80.7462 427.348 80.0839C428.947 79.4217 430.314 78.3002 431.275 76.8612C432.237 75.4223 432.75 73.7306 432.75 72C432.747 69.6802 431.825 67.4561 430.184 65.8157C428.544 64.1753 426.32 63.2526 424 63.25ZM420.25 78.4853V77.625C420.251 77.1279 420.448 76.6513 420.8 76.2998C421.151 75.9483 421.628 75.7505 422.125 75.75H425.875C426.372 75.7505 426.849 75.9483 427.2 76.2998C427.552 76.6513 427.749 77.1279 427.75 77.625V78.4853C426.612 79.1498 425.318 79.5 424 79.5C422.682 79.5 421.388 79.1498 420.25 78.4853ZM428.995 77.5786C428.983 76.7588 428.649 75.9766 428.065 75.4008C427.482 74.8249 426.695 74.5014 425.875 74.5H422.125C421.305 74.5014 420.519 74.8249 419.935 75.4008C419.351 75.9766 419.017 76.7588 419.005 77.5786C417.871 76.5666 417.072 75.2342 416.713 73.7578C416.353 72.2814 416.451 70.7307 416.993 69.311C417.534 67.8914 418.494 66.6697 419.746 65.8077C420.997 64.9458 422.481 64.4843 424 64.4843C425.519 64.4843 427.003 64.9458 428.254 65.8077C429.506 66.6697 430.466 67.8914 431.007 69.311C431.549 70.7307 431.647 72.2814 431.287 73.7578C430.928 75.2342 430.129 76.5666 428.995 77.5786Z" fill="white"/>
<path d="M466.996 68V64.276H469.544C471.35 64.276 472.442 63.072 472.442 61.252C472.442 59.446 471.35 58.228 469.544 58.228H465.148V68H466.996ZM466.996 59.838H469.376C470.09 59.838 470.524 60.216 470.524 60.93V61.574C470.524 62.288 470.09 62.68 469.376 62.68H466.996V59.838ZM475.82 68V63.52C475.82 62.722 476.45 62.386 477.654 62.386H478.214V60.692H477.822C476.66 60.692 476.072 61.434 475.89 62.204H475.82V60.692H474.028V68H475.82ZM480.58 59.628C481.308 59.628 481.63 59.25 481.63 58.732V58.452C481.63 57.934 481.308 57.556 480.58 57.556C479.838 57.556 479.53 57.934 479.53 58.452V58.732C479.53 59.25 479.838 59.628 480.58 59.628ZM479.684 68H481.476V60.692H479.684V68ZM486.597 68.168C488.011 68.168 489.033 67.524 489.509 66.236L488.137 65.578C487.871 66.236 487.451 66.726 486.597 66.726C485.603 66.726 485.099 66.04 485.099 65.018V63.688C485.099 62.666 485.603 61.966 486.597 61.966C487.367 61.966 487.829 62.414 487.997 63.03L489.467 62.372C489.033 61.224 488.067 60.524 486.597 60.524C484.441 60.524 483.223 61.994 483.223 64.332C483.223 66.684 484.441 68.168 486.597 68.168ZM491.947 59.628C492.675 59.628 492.997 59.25 492.997 58.732V58.452C492.997 57.934 492.675 57.556 491.947 57.556C491.205 57.556 490.897 57.934 490.897 58.452V58.732C490.897 59.25 491.205 59.628 491.947 59.628ZM491.051 68H492.843V60.692H491.051V68ZM496.872 68V63.17C496.872 62.386 497.586 61.994 498.328 61.994C499.182 61.994 499.532 62.526 499.532 63.562V68H501.324V63.38C501.324 61.56 500.484 60.524 498.986 60.524C497.852 60.524 497.236 61.126 496.942 61.91H496.872V60.692H495.08V68H496.872ZM510.065 68.616C510.065 67.3 509.295 66.53 507.503 66.53H505.543C504.899 66.53 504.591 66.348 504.591 65.984C504.591 65.662 504.829 65.452 505.109 65.326C505.431 65.41 505.809 65.452 506.229 65.452C508.217 65.452 509.253 64.472 509.253 63.002C509.253 62.106 508.875 61.392 508.119 60.972V60.776H509.673V59.404H508.539C507.867 59.404 507.503 59.754 507.503 60.468V60.706C507.139 60.58 506.677 60.524 506.229 60.524C504.255 60.524 503.205 61.518 503.205 63.002C503.205 63.968 503.653 64.724 504.535 65.13V65.186C503.835 65.34 503.191 65.718 503.191 66.474C503.191 67.062 503.527 67.538 504.129 67.692V67.846C503.317 67.972 502.827 68.434 502.827 69.246C502.827 70.324 503.765 70.968 506.229 70.968C509.029 70.968 510.065 70.142 510.065 68.616ZM508.385 68.826C508.385 69.442 507.867 69.736 506.705 69.736H505.809C504.689 69.736 504.269 69.4 504.269 68.84C504.269 68.546 504.381 68.28 504.647 68.084H507.139C508.049 68.084 508.385 68.364 508.385 68.826ZM506.229 64.234C505.375 64.234 504.913 63.842 504.913 63.114V62.876C504.913 62.134 505.375 61.756 506.229 61.756C507.083 61.756 507.545 62.134 507.545 62.876V63.114C507.545 63.842 507.083 64.234 506.229 64.234ZM514.728 70.8H516.52V66.782H516.576C516.856 67.608 517.626 68.168 518.592 68.168C520.44 68.168 521.462 66.782 521.462 64.332C521.462 61.896 520.44 60.524 518.592 60.524C517.626 60.524 516.842 61.056 516.576 61.896H516.52V60.692H514.728V70.8ZM518.018 66.684C517.164 66.684 516.52 66.25 516.52 65.494V63.17C516.52 62.456 517.164 61.994 518.018 61.994C518.942 61.994 519.586 62.68 519.586 63.716V64.976C519.586 66.012 518.942 66.684 518.018 66.684ZM526.041 68V66.572H525.075V57.64H523.283V66.236C523.283 67.356 523.857 68 525.075 68H526.041ZM529.364 68.168C530.456 68.168 531.254 67.678 531.492 66.74H531.576C531.688 67.496 532.164 68 532.934 68H533.928V66.572H533.2V63.128C533.2 61.462 532.15 60.524 530.176 60.524C528.706 60.524 527.852 61.084 527.32 61.924L528.384 62.876C528.734 62.372 529.21 61.952 530.05 61.952C531.002 61.952 531.408 62.428 531.408 63.24V63.772H530.162C528.174 63.772 527.04 64.514 527.04 66.012C527.04 67.314 527.88 68.168 529.364 68.168ZM529.966 66.866C529.266 66.866 528.86 66.572 528.86 65.984V65.746C528.86 65.172 529.322 64.85 530.26 64.85H531.408V65.816C531.408 66.502 530.764 66.866 529.966 66.866ZM537.33 68V63.17C537.33 62.386 538.044 61.994 538.786 61.994C539.64 61.994 539.99 62.526 539.99 63.562V68H541.782V63.38C541.782 61.56 540.942 60.524 539.444 60.524C538.31 60.524 537.694 61.126 537.4 61.91H537.33V60.692H535.538V68H537.33Z" fill="black"/>
<path d="M466.478 86V81.576H470.72V80.54H466.478V77.264H471.126V76.228H465.302V86H466.478ZM474.017 86V81.1C474.017 80.414 474.745 79.896 475.949 79.896H476.607V78.776H476.173C474.997 78.776 474.339 79.42 474.087 80.106H474.017V78.776H472.897V86H474.017ZM480.845 86.168C482.203 86.168 483.239 85.496 483.701 84.516L482.903 83.942C482.525 84.74 481.825 85.188 480.915 85.188C479.571 85.188 478.773 84.25 478.773 83.004V82.668H483.967V82.136C483.967 80.092 482.777 78.608 480.845 78.608C478.885 78.608 477.597 80.092 477.597 82.388C477.597 84.684 478.885 86.168 480.845 86.168ZM480.845 79.546C481.993 79.546 482.763 80.4 482.763 81.674V81.828H478.773V81.73C478.773 80.47 479.627 79.546 480.845 79.546ZM488.689 86.168C490.047 86.168 491.083 85.496 491.545 84.516L490.747 83.942C490.369 84.74 489.669 85.188 488.759 85.188C487.415 85.188 486.617 84.25 486.617 83.004V82.668H491.811V82.136C491.811 80.092 490.621 78.608 488.689 78.608C486.729 78.608 485.441 80.092 485.441 82.388C485.441 84.684 486.729 86.168 488.689 86.168ZM488.689 79.546C489.837 79.546 490.607 80.4 490.607 81.674V81.828H486.617V81.73C486.617 80.47 487.471 79.546 488.689 79.546ZM500.015 86.168C501.947 86.168 503.277 84.684 503.277 82.388C503.277 80.092 501.947 78.608 500.015 78.608C498.083 78.608 496.753 80.092 496.753 82.388C496.753 84.684 498.083 86.168 500.015 86.168ZM500.015 85.174C498.811 85.174 497.957 84.432 497.957 82.906V81.87C497.957 80.344 498.811 79.602 500.015 79.602C501.219 79.602 502.073 80.344 502.073 81.87V82.906C502.073 84.432 501.219 85.174 500.015 85.174ZM506.399 86V81.1C506.399 80.414 507.127 79.896 508.331 79.896H508.989V78.776H508.555C507.379 78.776 506.721 79.42 506.469 80.106H506.399V78.776H505.279V86H506.399ZM516.904 86.168C519.004 86.168 520.264 85.02 520.264 83.228C520.264 81.772 519.438 80.932 517.534 80.498L516.736 80.316C515.504 80.036 514.902 79.616 514.902 78.692C514.902 77.642 515.672 77.096 516.918 77.096C518.052 77.096 518.794 77.558 519.326 78.3L520.208 77.656C519.48 76.62 518.444 76.06 516.974 76.06C515.056 76.06 513.74 76.998 513.74 78.734C513.74 80.232 514.72 81.016 516.498 81.422L517.296 81.604C518.584 81.898 519.102 82.36 519.102 83.284C519.102 84.404 518.346 85.132 516.946 85.132C515.812 85.132 515 84.642 514.314 83.732L513.446 84.46C514.23 85.524 515.336 86.168 516.904 86.168ZM525.339 86V85.02H523.869V79.756H525.451V78.776H523.869V76.774H522.861V78.118C522.861 78.608 522.707 78.776 522.231 78.776H521.559V79.756H522.749V84.81C522.749 85.51 523.169 86 523.939 86H525.339ZM533.291 86V85.02H532.465V81.044C532.465 79.518 531.429 78.608 529.693 78.608C528.391 78.608 527.523 79.252 527.131 80.022L527.803 80.652C528.195 79.994 528.769 79.574 529.637 79.574C530.785 79.574 531.345 80.134 531.345 81.156V81.87H529.917C527.817 81.87 526.837 82.626 526.837 83.984C526.837 85.328 527.733 86.168 529.259 86.168C530.267 86.168 531.037 85.706 531.345 84.824H531.415C531.499 85.496 531.835 86 532.661 86H533.291ZM529.441 85.216C528.573 85.216 528.013 84.81 528.013 84.096V83.802C528.013 83.102 528.587 82.71 529.861 82.71H531.345V83.9C531.345 84.642 530.547 85.216 529.441 85.216ZM536.17 86V80.988C536.17 80.064 537.038 79.616 537.934 79.616C539.012 79.616 539.572 80.274 539.572 81.562V86H540.692V81.366C540.692 79.616 539.754 78.608 538.27 78.608C537.192 78.608 536.576 79.14 536.226 79.952H536.17V78.776H535.05V86H536.17ZM547.787 86H548.907V75.64H547.787V79.952H547.731C547.353 79.042 546.611 78.608 545.617 78.608C543.811 78.608 542.677 80.078 542.677 82.388C542.677 84.698 543.811 86.168 545.617 86.168C546.611 86.168 547.297 85.72 547.731 84.824H547.787V86ZM545.925 85.16C544.665 85.16 543.881 84.292 543.881 83.004V81.772C543.881 80.484 544.665 79.616 545.925 79.616C546.947 79.616 547.787 80.204 547.787 81.002V83.69C547.787 84.628 546.947 85.16 545.925 85.16ZM557.328 86V85.02H556.502V81.044C556.502 79.518 555.466 78.608 553.73 78.608C552.428 78.608 551.56 79.252 551.168 80.022L551.84 80.652C552.232 79.994 552.806 79.574 553.674 79.574C554.822 79.574 555.382 80.134 555.382 81.156V81.87H553.954C551.854 81.87 550.874 82.626 550.874 83.984C550.874 85.328 551.77 86.168 553.296 86.168C554.304 86.168 555.074 85.706 555.382 84.824H555.452C555.536 85.496 555.872 86 556.698 86H557.328ZM553.478 85.216C552.61 85.216 552.05 84.81 552.05 84.096V83.802C552.05 83.102 552.624 82.71 553.898 82.71H555.382V83.9C555.382 84.642 554.584 85.216 553.478 85.216ZM560.206 86V81.1C560.206 80.414 560.934 79.896 562.138 79.896H562.796V78.776H562.362C561.186 78.776 560.528 79.42 560.276 80.106H560.206V78.776H559.086V86H560.206ZM568.925 86H570.045V75.64H568.925V79.952H568.869C568.491 79.042 567.749 78.608 566.755 78.608C564.949 78.608 563.815 80.078 563.815 82.388C563.815 84.698 564.949 86.168 566.755 86.168C567.749 86.168 568.435 85.72 568.869 84.824H568.925V86ZM567.063 85.16C565.803 85.16 565.019 84.292 565.019 83.004V81.772C565.019 80.484 565.803 79.616 567.063 79.616C568.085 79.616 568.925 80.204 568.925 81.002V83.69C568.925 84.628 568.085 85.16 567.063 85.16ZM581.935 86V85.02H581.109V81.044C581.109 79.518 580.073 78.608 578.337 78.608C577.035 78.608 576.167 79.252 575.775 80.022L576.447 80.652C576.839 79.994 577.413 79.574 578.281 79.574C579.429 79.574 579.989 80.134 579.989 81.156V81.87H578.561C576.461 81.87 575.481 82.626 575.481 83.984C575.481 85.328 576.377 86.168 577.903 86.168C578.911 86.168 579.681 85.706 579.989 84.824H580.059C580.143 85.496 580.479 86 581.305 86H581.935ZM578.085 85.216C577.217 85.216 576.657 84.81 576.657 84.096V83.802C576.657 83.102 577.231 82.71 578.505 82.71H579.989V83.9C579.989 84.642 579.191 85.216 578.085 85.216ZM586.381 86.168C587.753 86.168 588.691 85.496 589.153 84.46L588.341 83.914C587.949 84.74 587.291 85.174 586.381 85.174C585.051 85.174 584.365 84.264 584.365 83.004V81.772C584.365 80.512 585.051 79.602 586.381 79.602C587.263 79.602 587.879 80.036 588.145 80.778L589.083 80.302C588.663 79.308 587.809 78.608 586.381 78.608C584.351 78.608 583.161 80.078 583.161 82.388C583.161 84.698 584.351 86.168 586.381 86.168ZM593.5 86.168C594.872 86.168 595.81 85.496 596.272 84.46L595.46 83.914C595.068 84.74 594.41 85.174 593.5 85.174C592.17 85.174 591.484 84.264 591.484 83.004V81.772C591.484 80.512 592.17 79.602 593.5 79.602C594.382 79.602 594.998 80.036 595.264 80.778L596.202 80.302C595.782 79.308 594.928 78.608 593.5 78.608C591.47 78.608 590.28 80.078 590.28 82.388C590.28 84.698 591.47 86.168 593.5 86.168ZM600.661 86.168C602.593 86.168 603.923 84.684 603.923 82.388C603.923 80.092 602.593 78.608 600.661 78.608C598.729 78.608 597.399 80.092 597.399 82.388C597.399 84.684 598.729 86.168 600.661 86.168ZM600.661 85.174C599.457 85.174 598.603 84.432 598.603 82.906V81.87C598.603 80.344 599.457 79.602 600.661 79.602C601.865 79.602 602.719 80.344 602.719 81.87V82.906C602.719 84.432 601.865 85.174 600.661 85.174ZM610.377 86H611.497V78.776H610.377V83.774C610.377 84.726 609.509 85.16 608.627 85.16C607.549 85.16 606.975 84.502 606.975 83.214V78.776H605.855V83.41C605.855 85.16 606.807 86.168 608.291 86.168C609.495 86.168 610.041 85.51 610.321 84.824H610.377V86ZM615.162 86V80.988C615.162 80.064 616.03 79.616 616.926 79.616C618.004 79.616 618.564 80.274 618.564 81.562V86H619.684V81.366C619.684 79.616 618.746 78.608 617.262 78.608C616.184 78.608 615.568 79.14 615.218 79.952H615.162V78.776H614.042V86H615.162ZM625.155 86V85.02H623.685V79.756H625.267V78.776H623.685V76.774H622.677V78.118C622.677 78.608 622.523 78.776 622.047 78.776H621.375V79.756H622.565V84.81C622.565 85.51 622.985 86 623.755 86H625.155ZM629.621 83.088V81.576C630.853 81.338 632.197 80.498 632.197 78.706C632.197 77.096 631.105 76.06 629.383 76.06C627.633 76.06 626.709 77.124 626.359 78.328L627.395 78.72C627.619 77.782 628.263 77.082 629.341 77.082C630.335 77.082 630.993 77.698 630.993 78.65V78.846C630.993 80.022 630.069 80.722 628.543 80.792V83.088H629.621ZM629.089 86.168C629.677 86.168 629.943 85.846 629.943 85.356V85.174C629.943 84.684 629.677 84.362 629.089 84.362C628.501 84.362 628.235 84.684 628.235 85.174V85.356C628.235 85.846 628.501 86.168 629.089 86.168Z" fill="black"/>
</g>
<path d="M408 48.5H664C668.142 48.5 671.5 51.8579 671.5 56V88C671.5 92.1421 668.142 95.5 664 95.5H408C403.858 95.5 400.5 92.1421 400.5 88V56C400.5 51.8579 403.858 48.5 408 48.5Z" stroke="black"/>
<rect x="587.5" y="184.5" width="40" height="15" rx="7.5" fill="white"/>
<path d="M597.124 196V192.208H600.76V191.32H597.124V188.512H601.108V187.624H596.116V196H597.124ZM603.769 196V191.8C603.769 191.212 604.393 190.768 605.425 190.768H605.989V189.808H605.617C604.609 189.808 604.045 190.36 603.829 190.948H603.769V189.808H602.809V196H603.769ZM609.804 196.144C610.968 196.144 611.856 195.568 612.252 194.728L611.568 194.236C611.244 194.92 610.644 195.304 609.864 195.304C608.712 195.304 608.028 194.5 608.028 193.432V193.144H612.48V192.688C612.48 190.936 611.46 189.664 609.804 189.664C608.124 189.664 607.02 190.936 607.02 192.904C607.02 194.872 608.124 196.144 609.804 196.144ZM609.804 190.468C610.788 190.468 611.448 191.2 611.448 192.292V192.424H608.028V192.34C608.028 191.26 608.76 190.468 609.804 190.468ZM616.71 196.144C617.874 196.144 618.762 195.568 619.158 194.728L618.474 194.236C618.15 194.92 617.55 195.304 616.77 195.304C615.618 195.304 614.934 194.5 614.934 193.432V193.144H619.386V192.688C619.386 190.936 618.366 189.664 616.71 189.664C615.03 189.664 613.926 190.936 613.926 192.904C613.926 194.872 615.03 196.144 616.71 196.144ZM616.71 190.468C617.694 190.468 618.354 191.2 618.354 192.292V192.424H614.934V192.34C614.934 191.26 615.666 190.468 616.71 190.468Z" fill="black"/>
<rect x="587.5" y="184.5" width="40" height="15" rx="7.5" stroke="black"/>
<path d="M505 121L505 96" stroke="#8F8B8B"/>
<path d="M509 121L505 129L501 121L509 121Z" fill="#8F8B8B"/>
<defs>
<clipPath id="clip0_700_40546">
<rect width="272" height="48" fill="white" transform="translate(400 48)"/>
</clipPath>
</defs>
</svg>
