<svg width="1080" height="720" viewBox="0 0 1080 720" fill="none" xmlns="http://www.w3.org/2000/svg">
<rect width="1080" height="720" fill="#F4F4F4"/>
<path d="M321.5 56C321.5 51.8579 324.858 48.5 329 48.5H666C670.142 48.5 673.5 51.8579 673.5 56V88C673.5 92.1421 670.142 95.5 666 95.5H329C324.858 95.5 321.5 92.1421 321.5 88V56Z" fill="white"/>
<path d="M322 56C322 52.134 325.134 49 329 49H666C669.866 49 673 52.134 673 56V88C673 91.866 669.866 95 666 95H329C325.134 95 322 91.866 322 88V56Z" fill="#F4F4F4"/>
<g clip-path="url(#clip0_700_40588)">
<path d="M321 56C321 51.5817 324.582 48 329 48H369V96H329C324.582 96 321 92.4183 321 88V56Z" fill="black"/>
<rect width="20" height="20" transform="translate(335 62)" fill="white" style="mix-blend-mode:multiply"/>
<path d="M353.75 78.25H346.25V79.5H353.75V78.25Z" fill="white"/>
<path d="M353.75 75.125H346.25V76.375H353.75V75.125Z" fill="white"/>
<path d="M353.75 72H346.25V73.25H353.75V72Z" fill="white"/>
<path d="M343.75 77.625H340.938C339.766 77.6256 338.637 77.1875 337.773 76.397C336.909 75.6065 336.372 74.5211 336.268 73.3544C336.165 72.1878 336.502 71.0247 337.213 70.0942C337.924 69.1638 338.958 68.5335 340.111 68.3275C340.404 66.7999 341.255 65.4362 342.499 64.5028C343.743 63.5694 345.291 63.1334 346.839 63.28C348.387 63.4265 349.825 64.1451 350.872 65.2953C351.919 66.4455 352.5 67.9447 352.5 69.5H351.25C351.25 68.2211 350.76 66.9907 349.881 66.062C349.002 65.1333 347.8 64.5768 346.523 64.5072C345.246 64.4375 343.991 64.8599 343.016 65.6875C342.041 66.5151 341.42 67.6849 341.281 68.9563L341.225 69.4772L340.702 69.5125C339.812 69.5723 338.981 69.9757 338.383 70.6372C337.786 71.2988 337.469 72.1668 337.499 73.0578C337.53 73.9488 337.906 74.793 338.547 75.412C339.189 76.031 340.046 76.3763 340.938 76.375H343.75V77.625Z" fill="white"/>
<path d="M390.18 68V66.516H388.878V59.712H390.18V58.228H385.742V59.712H387.03V66.516H385.742V68H390.18ZM393.908 68V63.17C393.908 62.386 394.622 61.994 395.364 61.994C396.218 61.994 396.568 62.526 396.568 63.562V68H398.36V63.38C398.36 61.56 397.52 60.524 396.022 60.524C394.888 60.524 394.272 61.126 393.978 61.91H393.908V60.692H392.116V68H393.908ZM400.87 68H402.662V62.106H404.16V60.692H402.662V59.068H404.16V57.64H402.886C401.57 57.64 400.87 58.354 400.87 59.642V60.692H399.792V62.106H400.87V68ZM407.353 68V63.52C407.353 62.722 407.983 62.386 409.187 62.386H409.747V60.692H409.355C408.193 60.692 407.605 61.434 407.423 62.204H407.353V60.692H405.561V68H407.353ZM412.873 68.168C413.965 68.168 414.763 67.678 415.001 66.74H415.085C415.197 67.496 415.673 68 416.443 68H417.437V66.572H416.709V63.128C416.709 61.462 415.659 60.524 413.685 60.524C412.215 60.524 411.361 61.084 410.829 61.924L411.893 62.876C412.243 62.372 412.719 61.952 413.559 61.952C414.511 61.952 414.917 62.428 414.917 63.24V63.772H413.671C411.683 63.772 410.549 64.514 410.549 66.012C410.549 67.314 411.389 68.168 412.873 68.168ZM413.475 66.866C412.775 66.866 412.369 66.572 412.369 65.984V65.746C412.369 65.172 412.831 64.85 413.769 64.85H414.917V65.816C414.917 66.502 414.273 66.866 413.475 66.866ZM421.441 68.168C423.261 68.168 424.451 67.188 424.451 65.774C424.451 64.556 423.681 63.842 422.085 63.618L421.343 63.52C420.657 63.408 420.391 63.184 420.391 62.694C420.391 62.246 420.727 61.938 421.497 61.938C422.211 61.938 422.827 62.274 423.247 62.722L424.297 61.672C423.597 60.944 422.869 60.524 421.441 60.524C419.775 60.524 418.669 61.42 418.669 62.834C418.669 64.164 419.537 64.85 421.105 65.046L421.833 65.144C422.477 65.228 422.729 65.494 422.729 65.914C422.729 66.432 422.365 66.754 421.511 66.754C420.685 66.754 420.041 66.376 419.509 65.76L418.417 66.824C419.145 67.664 420.055 68.168 421.441 68.168ZM428.366 68H429.654V66.572H428.268V62.12H429.766V60.692H428.268V58.69H426.658V59.936C426.658 60.44 426.49 60.692 425.958 60.692H425.398V62.12H426.476V66.138C426.476 67.328 427.134 68 428.366 68ZM433.272 68V63.52C433.272 62.722 433.902 62.386 435.106 62.386H435.666V60.692H435.274C434.112 60.692 433.524 61.434 433.342 62.204H433.272V60.692H431.48V68H433.272ZM441.504 68H443.296V60.692H441.504V65.522C441.504 66.306 440.79 66.684 440.076 66.684C439.222 66.684 438.844 66.138 438.844 65.13V60.692H437.052V65.312C437.052 67.132 437.892 68.168 439.39 68.168C440.594 68.168 441.182 67.51 441.434 66.782H441.504V68ZM448.411 68.168C449.825 68.168 450.847 67.524 451.323 66.236L449.951 65.578C449.685 66.236 449.265 66.726 448.411 66.726C447.417 66.726 446.913 66.04 446.913 65.018V63.688C446.913 62.666 447.417 61.966 448.411 61.966C449.181 61.966 449.643 62.414 449.811 63.03L451.281 62.372C450.847 61.224 449.881 60.524 448.411 60.524C446.255 60.524 445.037 61.994 445.037 64.332C445.037 66.684 446.255 68.168 448.411 68.168ZM455.147 68H456.435V66.572H455.049V62.12H456.547V60.692H455.049V58.69H453.439V59.936C453.439 60.44 453.271 60.692 452.739 60.692H452.179V62.12H453.257V66.138C453.257 67.328 453.915 68 455.147 68ZM462.629 68H464.421V60.692H462.629V65.522C462.629 66.306 461.915 66.684 461.201 66.684C460.347 66.684 459.969 66.138 459.969 65.13V60.692H458.177V65.312C458.177 67.132 459.017 68.168 460.515 68.168C461.719 68.168 462.307 67.51 462.559 66.782H462.629V68ZM468.443 68V63.52C468.443 62.722 469.073 62.386 470.277 62.386H470.837V60.692H470.445C469.283 60.692 468.695 61.434 468.513 62.204H468.443V60.692H466.651V68H468.443ZM475.193 68.168C476.551 68.168 477.615 67.65 478.217 66.824L477.251 65.746C476.803 66.32 476.271 66.74 475.389 66.74C474.213 66.74 473.611 66.026 473.611 64.976V64.794H478.469V64.206C478.469 62.204 477.419 60.524 475.137 60.524C472.995 60.524 471.749 62.022 471.749 64.332C471.749 66.67 473.037 68.168 475.193 68.168ZM475.165 61.868C476.089 61.868 476.607 62.554 476.607 63.562V63.688H473.611V63.576C473.611 62.568 474.227 61.868 475.165 61.868Z" fill="#2A0A18"/>
<path d="M388.962 86L390.264 81.128L391.188 77.544H391.216L392.112 81.128L393.386 86H394.688L397.194 76.228H395.99L394.884 80.932L394.044 84.572H394.002L393.092 80.932L391.902 76.228H390.558L389.326 80.932L388.416 84.586H388.388L387.576 80.932L386.526 76.228H385.28L387.66 86H388.962ZM398.819 86H399.939V80.988C399.939 80.064 400.807 79.616 401.703 79.616C402.781 79.616 403.341 80.274 403.341 81.562V86H404.461V81.366C404.461 79.616 403.523 78.608 402.039 78.608C400.961 78.608 400.345 79.14 399.995 79.952H399.939V75.64H398.819V86ZM409.652 86.168C411.01 86.168 412.046 85.496 412.508 84.516L411.71 83.942C411.332 84.74 410.632 85.188 409.722 85.188C408.378 85.188 407.58 84.25 407.58 83.004V82.668H412.774V82.136C412.774 80.092 411.584 78.608 409.652 78.608C407.692 78.608 406.404 80.092 406.404 82.388C406.404 84.684 407.692 86.168 409.652 86.168ZM409.652 79.546C410.8 79.546 411.57 80.4 411.57 81.674V81.828H407.58V81.73C407.58 80.47 408.434 79.546 409.652 79.546ZM415.899 86V81.1C415.899 80.414 416.627 79.896 417.831 79.896H418.489V78.776H418.055C416.879 78.776 416.221 79.42 415.969 80.106H415.899V78.776H414.779V86H415.899ZM422.728 86.168C424.086 86.168 425.122 85.496 425.584 84.516L424.786 83.942C424.408 84.74 423.708 85.188 422.798 85.188C421.454 85.188 420.656 84.25 420.656 83.004V82.668H425.85V82.136C425.85 80.092 424.66 78.608 422.728 78.608C420.768 78.608 419.48 80.092 419.48 82.388C419.48 84.684 420.768 86.168 422.728 86.168ZM422.728 79.546C423.876 79.546 424.646 80.4 424.646 81.674V81.828H420.656V81.73C420.656 80.47 421.51 79.546 422.728 79.546ZM435.944 86H437.064V75.64H435.944V79.952H435.888C435.51 79.042 434.768 78.608 433.774 78.608C431.968 78.608 430.834 80.078 430.834 82.388C430.834 84.698 431.968 86.168 433.774 86.168C434.768 86.168 435.454 85.72 435.888 84.824H435.944V86ZM434.082 85.16C432.822 85.16 432.038 84.292 432.038 83.004V81.772C432.038 80.484 432.822 79.616 434.082 79.616C435.104 79.616 435.944 80.204 435.944 81.002V83.69C435.944 84.628 435.104 85.16 434.082 85.16ZM442.335 86.168C444.267 86.168 445.597 84.684 445.597 82.388C445.597 80.092 444.267 78.608 442.335 78.608C440.403 78.608 439.073 80.092 439.073 82.388C439.073 84.684 440.403 86.168 442.335 86.168ZM442.335 85.174C441.131 85.174 440.277 84.432 440.277 82.906V81.87C440.277 80.344 441.131 79.602 442.335 79.602C443.539 79.602 444.393 80.344 444.393 81.87V82.906C444.393 84.432 443.539 85.174 442.335 85.174ZM453.77 83.69L453.378 84.866H453.308L452.972 83.69L451.236 78.776H450.116L452.818 86.28L452.272 87.82H451.138V88.8H451.712C452.776 88.8 453.07 88.548 453.392 87.68L456.626 78.776H455.52L453.77 83.69ZM460.875 86.168C462.807 86.168 464.137 84.684 464.137 82.388C464.137 80.092 462.807 78.608 460.875 78.608C458.943 78.608 457.613 80.092 457.613 82.388C457.613 84.684 458.943 86.168 460.875 86.168ZM460.875 85.174C459.671 85.174 458.817 84.432 458.817 82.906V81.87C458.817 80.344 459.671 79.602 460.875 79.602C462.079 79.602 462.933 80.344 462.933 81.87V82.906C462.933 84.432 462.079 85.174 460.875 85.174ZM470.591 86H471.711V78.776H470.591V83.774C470.591 84.726 469.723 85.16 468.841 85.16C467.763 85.16 467.189 84.502 467.189 83.214V78.776H466.069V83.41C466.069 85.16 467.021 86.168 468.505 86.168C469.709 86.168 470.255 85.51 470.535 84.824H470.591V86ZM478.901 86H480.259L481.267 82.528L481.883 80.33H481.911L482.541 82.528L483.549 86H484.935L486.853 78.776H485.803L485.019 81.898L484.277 85.062H484.249L483.353 81.898L482.415 78.776H481.421L480.511 81.898L479.629 85.062H479.601L478.831 81.898L478.061 78.776H476.969L478.901 86ZM494.388 86V85.02H493.562V81.044C493.562 79.518 492.526 78.608 490.79 78.608C489.488 78.608 488.62 79.252 488.228 80.022L488.9 80.652C489.292 79.994 489.866 79.574 490.734 79.574C491.882 79.574 492.442 80.134 492.442 81.156V81.87H491.014C488.914 81.87 487.934 82.626 487.934 83.984C487.934 85.328 488.83 86.168 490.356 86.168C491.364 86.168 492.134 85.706 492.442 84.824H492.512C492.596 85.496 492.932 86 493.758 86H494.388ZM490.538 85.216C489.67 85.216 489.11 84.81 489.11 84.096V83.802C489.11 83.102 489.684 82.71 490.958 82.71H492.442V83.9C492.442 84.642 491.644 85.216 490.538 85.216ZM497.267 86V80.988C497.267 80.064 498.135 79.616 499.031 79.616C500.109 79.616 500.669 80.274 500.669 81.562V86H501.789V81.366C501.789 79.616 500.851 78.608 499.367 78.608C498.289 78.608 497.673 79.14 497.323 79.952H497.267V78.776H496.147V86H497.267ZM507.26 86V85.02H505.79V79.756H507.372V78.776H505.79V76.774H504.782V78.118C504.782 78.608 504.628 78.776 504.152 78.776H503.48V79.756H504.67V84.81C504.67 85.51 505.09 86 505.86 86H507.26ZM515.796 86V85.02H514.326V79.756H515.908V78.776H514.326V76.774H513.318V78.118C513.318 78.608 513.164 78.776 512.688 78.776H512.016V79.756H513.206V84.81C513.206 85.51 513.626 86 514.396 86H515.796ZM520.544 86.168C522.476 86.168 523.806 84.684 523.806 82.388C523.806 80.092 522.476 78.608 520.544 78.608C518.612 78.608 517.282 80.092 517.282 82.388C517.282 84.684 518.612 86.168 520.544 86.168ZM520.544 85.174C519.34 85.174 518.486 84.432 518.486 82.906V81.87C518.486 80.344 519.34 79.602 520.544 79.602C521.748 79.602 522.602 80.344 522.602 81.87V82.906C522.602 84.432 521.748 85.174 520.544 85.174ZM533.897 86H535.017V75.64H533.897V79.952H533.841C533.463 79.042 532.721 78.608 531.727 78.608C529.921 78.608 528.787 80.078 528.787 82.388C528.787 84.698 529.921 86.168 531.727 86.168C532.721 86.168 533.407 85.72 533.841 84.824H533.897V86ZM532.035 85.16C530.775 85.16 529.991 84.292 529.991 83.004V81.772C529.991 80.484 530.775 79.616 532.035 79.616C533.057 79.616 533.897 80.204 533.897 81.002V83.69C533.897 84.628 533.057 85.16 532.035 85.16ZM540.274 86.168C541.632 86.168 542.668 85.496 543.13 84.516L542.332 83.942C541.954 84.74 541.254 85.188 540.344 85.188C539 85.188 538.202 84.25 538.202 83.004V82.668H543.396V82.136C543.396 80.092 542.206 78.608 540.274 78.608C538.314 78.608 537.026 80.092 537.026 82.388C537.026 84.684 538.314 86.168 540.274 86.168ZM540.274 79.546C541.422 79.546 542.192 80.4 542.192 81.674V81.828H538.202V81.73C538.202 80.47 539.056 79.546 540.274 79.546ZM545.401 88.8H546.521V84.824H546.577C547.011 85.72 547.697 86.168 548.691 86.168C550.497 86.168 551.631 84.698 551.631 82.388C551.631 80.078 550.497 78.608 548.691 78.608C547.697 78.608 546.955 79.042 546.577 79.952H546.521V78.776H545.401V88.8ZM548.383 85.16C547.361 85.16 546.521 84.628 546.521 83.69V81.002C546.521 80.204 547.361 79.616 548.383 79.616C549.643 79.616 550.427 80.484 550.427 81.772V83.004C550.427 84.292 549.643 85.16 548.383 85.16ZM555.866 86V85.02H554.802V75.64H553.682V84.838C553.682 85.51 554.102 86 554.872 86H555.866ZM560.387 86.168C562.319 86.168 563.649 84.684 563.649 82.388C563.649 80.092 562.319 78.608 560.387 78.608C558.455 78.608 557.125 80.092 557.125 82.388C557.125 84.684 558.455 86.168 560.387 86.168ZM560.387 85.174C559.183 85.174 558.329 84.432 558.329 82.906V81.87C558.329 80.344 559.183 79.602 560.387 79.602C561.591 79.602 562.445 80.344 562.445 81.87V82.906C562.445 84.432 561.591 85.174 560.387 85.174ZM568.284 83.69L567.892 84.866H567.822L567.486 83.69L565.75 78.776H564.63L567.332 86.28L566.786 87.82H565.652V88.8H566.226C567.29 88.8 567.584 88.548 567.906 87.68L571.14 78.776H570.034L568.284 83.69ZM578.899 83.69L578.507 84.866H578.437L578.101 83.69L576.365 78.776H575.245L577.947 86.28L577.401 87.82H576.267V88.8H576.841C577.905 88.8 578.199 88.548 578.521 87.68L581.755 78.776H580.649L578.899 83.69ZM586.005 86.168C587.937 86.168 589.267 84.684 589.267 82.388C589.267 80.092 587.937 78.608 586.005 78.608C584.073 78.608 582.743 80.092 582.743 82.388C582.743 84.684 584.073 86.168 586.005 86.168ZM586.005 85.174C584.801 85.174 583.947 84.432 583.947 82.906V81.87C583.947 80.344 584.801 79.602 586.005 79.602C587.209 79.602 588.063 80.344 588.063 81.87V82.906C588.063 84.432 587.209 85.174 586.005 85.174ZM595.721 86H596.841V78.776H595.721V83.774C595.721 84.726 594.853 85.16 593.971 85.16C592.893 85.16 592.319 84.502 592.319 83.214V78.776H591.199V83.41C591.199 85.16 592.151 86.168 593.635 86.168C594.839 86.168 595.385 85.51 595.665 84.824H595.721V86ZM600.506 86V81.1C600.506 80.414 601.234 79.896 602.438 79.896H603.096V78.776H602.662C601.486 78.776 600.828 79.42 600.576 80.106H600.506V78.776H599.386V86H600.506ZM610.844 86.168C612.216 86.168 613.154 85.496 613.616 84.46L612.804 83.914C612.412 84.74 611.754 85.174 610.844 85.174C609.514 85.174 608.828 84.264 608.828 83.004V81.772C608.828 80.512 609.514 79.602 610.844 79.602C611.726 79.602 612.342 80.036 612.608 80.778L613.546 80.302C613.126 79.308 612.272 78.608 610.844 78.608C608.814 78.608 607.624 80.078 607.624 82.388C607.624 84.698 608.814 86.168 610.844 86.168ZM617.541 86V85.02H616.477V75.64H615.357V84.838C615.357 85.51 615.777 86 616.547 86H617.541ZM623.783 86H624.903V78.776H623.783V83.774C623.783 84.726 622.915 85.16 622.033 85.16C620.955 85.16 620.381 84.502 620.381 83.214V78.776H619.261V83.41C619.261 85.16 620.213 86.168 621.697 86.168C622.901 86.168 623.447 85.51 623.727 84.824H623.783V86ZM629.618 86.168C631.27 86.168 632.292 85.314 632.292 83.914C632.292 82.822 631.676 82.122 630.08 81.884L629.52 81.8C628.624 81.66 628.134 81.38 628.134 80.68C628.134 79.994 628.624 79.56 629.548 79.56C630.472 79.56 631.088 79.994 631.41 80.442L632.152 79.77C631.564 79.042 630.794 78.608 629.632 78.608C628.162 78.608 627.056 79.308 627.056 80.736C627.056 82.08 628.05 82.626 629.38 82.822L629.954 82.906C630.906 83.046 631.214 83.48 631.214 84.04C631.214 84.782 630.654 85.216 629.702 85.216C628.792 85.216 628.12 84.81 627.56 84.11L626.762 84.754C627.406 85.608 628.288 86.168 629.618 86.168ZM637.331 86V85.02H635.861V79.756H637.443V78.776H635.861V76.774H634.853V78.118C634.853 78.608 634.699 78.776 634.223 78.776H633.551V79.756H634.741V84.81C634.741 85.51 635.161 86 635.931 86H637.331ZM642.064 86.168C643.422 86.168 644.458 85.496 644.92 84.516L644.122 83.942C643.744 84.74 643.044 85.188 642.134 85.188C640.79 85.188 639.992 84.25 639.992 83.004V82.668H645.186V82.136C645.186 80.092 643.996 78.608 642.064 78.608C640.104 78.608 638.816 80.092 638.816 82.388C638.816 84.684 640.104 86.168 642.064 86.168ZM642.064 79.546C643.212 79.546 643.982 80.4 643.982 81.674V81.828H639.992V81.73C639.992 80.47 640.846 79.546 642.064 79.546ZM648.312 86V81.1C648.312 80.414 649.04 79.896 650.244 79.896H650.902V78.776H650.468C649.292 78.776 648.634 79.42 648.382 80.106H648.312V78.776H647.192V86H648.312ZM654.886 83.088V81.576C656.118 81.338 657.462 80.498 657.462 78.706C657.462 77.096 656.37 76.06 654.648 76.06C652.898 76.06 651.974 77.124 651.624 78.328L652.66 78.72C652.884 77.782 653.528 77.082 654.606 77.082C655.6 77.082 656.258 77.698 656.258 78.65V78.846C656.258 80.022 655.334 80.722 653.808 80.792V83.088H654.886ZM654.354 86.168C654.942 86.168 655.208 85.846 655.208 85.356V85.174C655.208 84.684 654.942 84.362 654.354 84.362C653.766 84.362 653.5 84.684 653.5 85.174V85.356C653.5 85.846 653.766 86.168 654.354 86.168Z" fill="black"/>
</g>
<path d="M321.5 56C321.5 51.8579 324.858 48.5 329 48.5H666C670.142 48.5 673.5 51.8579 673.5 56V88C673.5 92.1421 670.142 95.5 666 95.5H329C324.858 95.5 321.5 92.1421 321.5 88V56Z" stroke="black"/>
<rect x="128.5" y="552.5" width="159" height="47" fill="white"/>
<g clip-path="url(#clip1_700_40588)">
<line x1="130" y1="552" x2="130" y2="600" stroke="#8D8D8D" stroke-width="4"/>
<path d="M145.148 581H150.104C151.546 581 152.624 579.768 152.624 578.2C152.624 576.534 151.364 575.932 150.51 575.918V575.834C151.406 575.778 152.26 575.218 152.26 573.734C152.26 572.222 151.28 571.228 149.67 571.228H145.148V581ZM146.996 576.814H149.572C150.272 576.814 150.692 577.206 150.692 577.892V578.368C150.692 579.054 150.272 579.432 149.572 579.432H146.996V576.814ZM146.996 572.796H149.278C149.95 572.796 150.342 573.174 150.342 573.832V574.266C150.342 574.91 149.95 575.302 149.278 575.302H146.996V572.796ZM156.271 581V576.52C156.271 575.722 156.901 575.386 158.105 575.386H158.665V573.692H158.273C157.111 573.692 156.523 574.434 156.341 575.204H156.271V573.692H154.479V581H156.271ZM161.031 572.628C161.759 572.628 162.081 572.25 162.081 571.732V571.452C162.081 570.934 161.759 570.556 161.031 570.556C160.289 570.556 159.981 570.934 159.981 571.452V571.732C159.981 572.25 160.289 572.628 161.031 572.628ZM160.135 581H161.927V573.692H160.135V581ZM165.956 581V576.17C165.956 575.386 166.67 574.994 167.412 574.994C168.266 574.994 168.616 575.526 168.616 576.562V581H170.408V576.38C170.408 574.56 169.568 573.524 168.07 573.524C166.936 573.524 166.32 574.126 166.026 574.91H165.956V573.692H164.164V581H165.956ZM179.149 581.616C179.149 580.3 178.379 579.53 176.587 579.53H174.627C173.983 579.53 173.675 579.348 173.675 578.984C173.675 578.662 173.913 578.452 174.193 578.326C174.515 578.41 174.893 578.452 175.313 578.452C177.301 578.452 178.337 577.472 178.337 576.002C178.337 575.106 177.959 574.392 177.203 573.972V573.776H178.757V572.404H177.623C176.951 572.404 176.587 572.754 176.587 573.468V573.706C176.223 573.58 175.761 573.524 175.313 573.524C173.339 573.524 172.289 574.518 172.289 576.002C172.289 576.968 172.737 577.724 173.619 578.13V578.186C172.919 578.34 172.275 578.718 172.275 579.474C172.275 580.062 172.611 580.538 173.213 580.692V580.846C172.401 580.972 171.911 581.434 171.911 582.246C171.911 583.324 172.849 583.968 175.313 583.968C178.113 583.968 179.149 583.142 179.149 581.616ZM177.469 581.826C177.469 582.442 176.951 582.736 175.789 582.736H174.893C173.773 582.736 173.353 582.4 173.353 581.84C173.353 581.546 173.465 581.28 173.731 581.084H176.223C177.133 581.084 177.469 581.364 177.469 581.826ZM175.313 577.234C174.459 577.234 173.997 576.842 173.997 576.114V575.876C173.997 575.134 174.459 574.756 175.313 574.756C176.167 574.756 176.629 575.134 176.629 575.876V576.114C176.629 576.842 176.167 577.234 175.313 577.234ZM187.018 577.556L186.514 579.404H186.43L185.954 577.556L184.68 573.692H182.902L185.52 581.35L185.184 582.372H183.868V583.8H184.946C186.15 583.8 186.668 583.352 187.032 582.302L189.972 573.692H188.292L187.018 577.556ZM194.116 581.168C196.216 581.168 197.518 579.684 197.518 577.332C197.518 574.994 196.216 573.524 194.116 573.524C192.03 573.524 190.728 574.994 190.728 577.332C190.728 579.684 192.03 581.168 194.116 581.168ZM194.116 579.726C193.192 579.726 192.604 579.124 192.604 578.018V576.66C192.604 575.568 193.192 574.966 194.116 574.966C195.054 574.966 195.642 575.568 195.642 576.66V578.018C195.642 579.124 195.054 579.726 194.116 579.726ZM203.635 581H205.427V573.692H203.635V578.522C203.635 579.306 202.921 579.684 202.207 579.684C201.353 579.684 200.975 579.138 200.975 578.13V573.692H199.183V578.312C199.183 580.132 200.023 581.168 201.521 581.168C202.725 581.168 203.313 580.51 203.565 579.782H203.635V581ZM209.45 581V576.52C209.45 575.722 210.08 575.386 211.284 575.386H211.844V573.692H211.452C210.29 573.692 209.702 574.434 209.52 575.204H209.45V573.692H207.658V581H209.45ZM219.68 581.168C221.78 581.168 223.082 579.684 223.082 577.332C223.082 574.994 221.78 573.524 219.68 573.524C217.594 573.524 216.292 574.994 216.292 577.332C216.292 579.684 217.594 581.168 219.68 581.168ZM219.68 579.726C218.756 579.726 218.168 579.124 218.168 578.018V576.66C218.168 575.568 218.756 574.966 219.68 574.966C220.618 574.966 221.206 575.568 221.206 576.66V578.018C221.206 579.124 220.618 579.726 219.68 579.726ZM226.01 581H227.914L228.838 577.78L229.37 575.792H229.412L229.958 577.78L230.896 581H232.828L234.83 573.692H233.164L232.436 576.702L231.862 579.208H231.806L231.12 576.702L230.238 573.692H228.614L227.76 576.702L227.088 579.208H227.032L226.458 576.702L225.716 573.692H223.994L226.01 581ZM238.131 581V576.17C238.131 575.386 238.845 574.994 239.587 574.994C240.441 574.994 240.791 575.526 240.791 576.562V581H242.583V576.38C242.583 574.56 241.743 573.524 240.245 573.524C239.111 573.524 238.495 574.126 238.201 574.91H238.131V573.692H236.339V581H238.131Z" fill="black"/>
</g>
<rect x="128.5" y="552.5" width="159" height="47" stroke="#8D8D8D"/>
<rect x="128.5" y="200.5" width="159" height="47" fill="white"/>
<g clip-path="url(#clip2_700_40588)">
<line x1="130" y1="200" x2="130" y2="248" stroke="#8D8D8D" stroke-width="4"/>
<path d="M149.18 229V227.516H147.878V220.712H149.18V219.228H144.742V220.712H146.03V227.516H144.742V229H149.18ZM151.228 229H156.184C157.626 229 158.704 227.768 158.704 226.2C158.704 224.534 157.444 223.932 156.59 223.918V223.834C157.486 223.778 158.34 223.218 158.34 221.734C158.34 220.222 157.36 219.228 155.75 219.228H151.228V229ZM153.076 224.814H155.652C156.352 224.814 156.772 225.206 156.772 225.892V226.368C156.772 227.054 156.352 227.432 155.652 227.432H153.076V224.814ZM153.076 220.796H155.358C156.03 220.796 156.422 221.174 156.422 221.832V222.266C156.422 222.91 156.03 223.302 155.358 223.302H153.076V220.796ZM160.671 229H162.421V221.986H162.477L163.233 223.54L165.235 227.236L167.237 223.54L167.993 221.986H168.049V229H169.799V219.228H167.797L165.319 224.002H165.263L162.757 219.228H160.671V229ZM179.523 229.168C181.273 229.168 182.435 228.314 183.135 226.858L181.637 225.976C181.315 226.858 180.629 227.53 179.523 227.53C178.151 227.53 177.269 226.578 177.269 224.898V223.358C177.269 221.692 178.151 220.698 179.523 220.698C180.615 220.698 181.231 221.286 181.511 222.154L183.093 221.314C182.407 219.802 181.273 219.06 179.523 219.06C176.947 219.06 175.309 220.894 175.309 224.184C175.309 227.474 176.947 229.168 179.523 229.168ZM187.518 229V227.572H186.552V218.64H184.76V227.236C184.76 228.356 185.334 229 186.552 229H187.518ZM191.933 229.168C194.033 229.168 195.335 227.684 195.335 225.332C195.335 222.994 194.033 221.524 191.933 221.524C189.847 221.524 188.545 222.994 188.545 225.332C188.545 227.684 189.847 229.168 191.933 229.168ZM191.933 227.726C191.009 227.726 190.421 227.124 190.421 226.018V224.66C190.421 223.568 191.009 222.966 191.933 222.966C192.871 222.966 193.459 223.568 193.459 224.66V226.018C193.459 227.124 192.871 227.726 191.933 227.726ZM201.452 229H203.244V221.692H201.452V226.522C201.452 227.306 200.738 227.684 200.024 227.684C199.17 227.684 198.792 227.138 198.792 226.13V221.692H197V226.312C197 228.132 197.84 229.168 199.338 229.168C200.542 229.168 201.13 228.51 201.382 227.782H201.452V229ZM210.01 229H211.802V218.64H210.01V222.896H209.94C209.688 222.056 208.89 221.524 207.924 221.524C206.09 221.524 205.068 222.896 205.068 225.332C205.068 227.782 206.09 229.168 207.924 229.168C208.89 229.168 209.674 228.608 209.94 227.782H210.01V229ZM208.498 227.684C207.574 227.684 206.944 227.012 206.944 225.976V224.716C206.944 223.68 207.574 222.994 208.498 222.994C209.352 222.994 210.01 223.456 210.01 224.17V226.494C210.01 227.25 209.352 227.684 208.498 227.684ZM220.255 229V227.572H219.289V218.64H217.497V227.236C217.497 228.356 218.071 229 219.289 229H220.255ZM224.671 229.168C226.771 229.168 228.073 227.684 228.073 225.332C228.073 222.994 226.771 221.524 224.671 221.524C222.585 221.524 221.283 222.994 221.283 225.332C221.283 227.684 222.585 229.168 224.671 229.168ZM224.671 227.726C223.747 227.726 223.159 227.124 223.159 226.018V224.66C223.159 223.568 223.747 222.966 224.671 222.966C225.609 222.966 226.197 223.568 226.197 224.66V226.018C226.197 227.124 225.609 227.726 224.671 227.726ZM232.705 229.168C234.119 229.168 235.141 228.524 235.617 227.236L234.245 226.578C233.979 227.236 233.559 227.726 232.705 227.726C231.711 227.726 231.207 227.04 231.207 226.018V224.688C231.207 223.666 231.711 222.966 232.705 222.966C233.475 222.966 233.937 223.414 234.105 224.03L235.575 223.372C235.141 222.224 234.175 221.524 232.705 221.524C230.549 221.524 229.331 222.994 229.331 225.332C229.331 227.684 230.549 229.168 232.705 229.168ZM238.965 229.168C240.057 229.168 240.855 228.678 241.093 227.74H241.177C241.289 228.496 241.765 229 242.535 229H243.529V227.572H242.801V224.128C242.801 222.462 241.751 221.524 239.777 221.524C238.307 221.524 237.453 222.084 236.921 222.924L237.985 223.876C238.335 223.372 238.811 222.952 239.651 222.952C240.603 222.952 241.009 223.428 241.009 224.24V224.772H239.763C237.775 224.772 236.641 225.514 236.641 227.012C236.641 228.314 237.481 229.168 238.965 229.168ZM239.567 227.866C238.867 227.866 238.461 227.572 238.461 226.984V226.746C238.461 226.172 238.923 225.85 239.861 225.85H241.009V226.816C241.009 227.502 240.365 227.866 239.567 227.866ZM247.367 229H248.655V227.572H247.269V223.12H248.767V221.692H247.269V219.69H245.659V220.936C245.659 221.44 245.491 221.692 244.959 221.692H244.399V223.12H245.477V227.138C245.477 228.328 246.135 229 247.367 229ZM251.377 220.628C252.105 220.628 252.427 220.25 252.427 219.732V219.452C252.427 218.934 252.105 218.556 251.377 218.556C250.635 218.556 250.327 218.934 250.327 219.452V219.732C250.327 220.25 250.635 220.628 251.377 220.628ZM250.481 229H252.273V221.692H250.481V229ZM257.408 229.168C259.508 229.168 260.81 227.684 260.81 225.332C260.81 222.994 259.508 221.524 257.408 221.524C255.322 221.524 254.02 222.994 254.02 225.332C254.02 227.684 255.322 229.168 257.408 229.168ZM257.408 227.726C256.484 227.726 255.896 227.124 255.896 226.018V224.66C255.896 223.568 256.484 222.966 257.408 222.966C258.346 222.966 258.934 223.568 258.934 224.66V226.018C258.934 227.124 258.346 227.726 257.408 227.726ZM264.351 229V224.17C264.351 223.386 265.065 222.994 265.807 222.994C266.661 222.994 267.011 223.526 267.011 224.562V229H268.803V224.38C268.803 222.56 267.963 221.524 266.465 221.524C265.331 221.524 264.715 222.126 264.421 222.91H264.351V221.692H262.559V229H264.351Z" fill="black"/>
</g>
<rect x="128.5" y="200.5" width="159" height="47" stroke="#8D8D8D"/>
<path d="M386 152H105C100.582 152 97 155.582 97 160V568C97 572.418 100.582 576 105 576H128.277" stroke="#8F8B8B"/>
<path d="M108.489 152H105C100.582 152 97 155.582 97 160V216C97 220.418 100.582 224 105 224H121" stroke="#8F8B8B"/>
<path d="M120 220L128 224L120 228V220Z" fill="#8F8B8B"/>
<path d="M120 572L128 576L120 580V572Z" fill="#8F8B8B"/>
<path d="M407.439 129.768C408.025 129.182 408.975 129.182 409.561 129.768L430.732 150.939C431.318 151.525 431.318 152.475 430.732 153.061L409.561 174.232C408.975 174.818 408.025 174.818 407.439 174.232L386.268 153.061C385.682 152.475 385.682 151.525 386.268 150.939L407.439 129.768Z" fill="#CAC5C4" stroke="#CAC5C4"/>
<rect width="20" height="20" transform="translate(399 142)" fill="white" style="mix-blend-mode:multiply"/>
<path d="M409 143.25C407.269 143.25 405.578 143.763 404.139 144.725C402.7 145.686 401.578 147.053 400.916 148.652C400.254 150.25 400.081 152.01 400.418 153.707C400.756 155.404 401.589 156.963 402.813 158.187C404.037 159.411 405.596 160.244 407.293 160.582C408.99 160.919 410.75 160.746 412.348 160.084C413.947 159.422 415.314 158.3 416.275 156.861C417.237 155.422 417.75 153.731 417.75 152C417.75 149.679 416.828 147.454 415.187 145.813C413.546 144.172 411.321 143.25 409 143.25ZM409 159.5C407.517 159.5 406.067 159.06 404.833 158.236C403.6 157.412 402.639 156.241 402.071 154.87C401.503 153.5 401.355 151.992 401.644 150.537C401.934 149.082 402.648 147.746 403.697 146.697C404.746 145.648 406.082 144.933 407.537 144.644C408.992 144.355 410.5 144.503 411.87 145.071C413.241 145.639 414.412 146.6 415.236 147.833C416.06 149.067 416.5 150.517 416.5 152C416.5 153.989 415.71 155.897 414.303 157.303C412.897 158.71 410.989 159.5 409 159.5Z" fill="black"/>
<path d="M409 157.625C409.518 157.625 409.938 157.205 409.938 156.688C409.938 156.17 409.518 155.75 409 155.75C408.482 155.75 408.063 156.17 408.063 156.688C408.063 157.205 408.482 157.625 409 157.625Z" fill="black"/>
<path d="M409.625 147H408.688C408.318 146.999 407.952 147.071 407.61 147.212C407.269 147.353 406.958 147.561 406.697 147.822C406.436 148.083 406.228 148.394 406.087 148.735C405.946 149.077 405.874 149.443 405.875 149.812V150.125H407.125V149.812C407.125 149.398 407.29 149.001 407.583 148.708C407.876 148.415 408.273 148.25 408.688 148.25H409.625C410.039 148.25 410.437 148.415 410.73 148.708C411.023 149.001 411.188 149.398 411.188 149.812C411.188 150.227 411.023 150.624 410.73 150.917C410.437 151.21 410.039 151.375 409.625 151.375H408.375V154.188H409.625V152.625C410.371 152.625 411.086 152.329 411.614 151.801C412.141 151.274 412.438 150.558 412.438 149.812C412.438 149.067 412.141 148.351 411.614 147.824C411.086 147.296 410.371 147 409.625 147Z" fill="black"/>
<path d="M387.176 198V196.362H383.326V188.228H381.478V198H387.176ZM391.588 198.168C393.688 198.168 394.99 196.684 394.99 194.332C394.99 191.994 393.688 190.524 391.588 190.524C389.502 190.524 388.2 191.994 388.2 194.332C388.2 196.684 389.502 198.168 391.588 198.168ZM391.588 196.726C390.664 196.726 390.076 196.124 390.076 195.018V193.66C390.076 192.568 390.664 191.966 391.588 191.966C392.526 191.966 393.114 192.568 393.114 193.66V195.018C393.114 196.124 392.526 196.726 391.588 196.726ZM399.622 198.168C401.036 198.168 402.058 197.524 402.534 196.236L401.162 195.578C400.896 196.236 400.476 196.726 399.622 196.726C398.628 196.726 398.124 196.04 398.124 195.018V193.688C398.124 192.666 398.628 191.966 399.622 191.966C400.392 191.966 400.854 192.414 401.022 193.03L402.492 192.372C402.058 191.224 401.092 190.524 399.622 190.524C397.466 190.524 396.248 191.994 396.248 194.332C396.248 196.684 397.466 198.168 399.622 198.168ZM405.882 198.168C406.974 198.168 407.772 197.678 408.01 196.74H408.094C408.206 197.496 408.682 198 409.452 198H410.446V196.572H409.718V193.128C409.718 191.462 408.668 190.524 406.694 190.524C405.224 190.524 404.37 191.084 403.838 191.924L404.902 192.876C405.252 192.372 405.728 191.952 406.568 191.952C407.52 191.952 407.926 192.428 407.926 193.24V193.772H406.68C404.692 193.772 403.558 194.514 403.558 196.012C403.558 197.314 404.398 198.168 405.882 198.168ZM406.484 196.866C405.784 196.866 405.378 196.572 405.378 195.984V195.746C405.378 195.172 405.84 194.85 406.778 194.85H407.926V195.816C407.926 196.502 407.282 196.866 406.484 196.866ZM414.284 198H415.572V196.572H414.186V192.12H415.684V190.692H414.186V188.69H412.576V189.936C412.576 190.44 412.408 190.692 411.876 190.692H411.316V192.12H412.394V196.138C412.394 197.328 413.052 198 414.284 198ZM418.294 189.628C419.022 189.628 419.344 189.25 419.344 188.732V188.452C419.344 187.934 419.022 187.556 418.294 187.556C417.552 187.556 417.244 187.934 417.244 188.452V188.732C417.244 189.25 417.552 189.628 418.294 189.628ZM417.398 198H419.19V190.692H417.398V198ZM424.325 198.168C426.425 198.168 427.727 196.684 427.727 194.332C427.727 191.994 426.425 190.524 424.325 190.524C422.239 190.524 420.937 191.994 420.937 194.332C420.937 196.684 422.239 198.168 424.325 198.168ZM424.325 196.726C423.401 196.726 422.813 196.124 422.813 195.018V193.66C422.813 192.568 423.401 191.966 424.325 191.966C425.263 191.966 425.851 192.568 425.851 193.66V195.018C425.851 196.124 425.263 196.726 424.325 196.726ZM431.268 198V193.17C431.268 192.386 431.982 191.994 432.724 191.994C433.578 191.994 433.928 192.526 433.928 193.562V198H435.72V193.38C435.72 191.56 434.88 190.524 433.382 190.524C432.248 190.524 431.632 191.126 431.338 191.91H431.268V190.692H429.476V198H431.268Z" fill="black"/>
<path d="M376 572L384 576L376 580V572Z" fill="#8F8B8B"/>
<path d="M903 576L287.5 576" stroke="#8F8B8B"/>
<rect width="56" height="74" transform="translate(380 552)" fill="white" style="mix-blend-mode:multiply"/>
<rect width="48" height="48" transform="translate(384 552)" fill="#0F62FE"/>
<rect width="20" height="20" transform="translate(398 566)" fill="white" style="mix-blend-mode:multiply"/>
<path d="M345.324 622V620.516H344.022V613.712H345.324V612.228H340.886V613.712H342.174V620.516H340.886V622H345.324ZM347.372 622H352.328C353.77 622 354.848 620.768 354.848 619.2C354.848 617.534 353.588 616.932 352.734 616.918V616.834C353.63 616.778 354.484 616.218 354.484 614.734C354.484 613.222 353.504 612.228 351.894 612.228H347.372V622ZM349.22 617.814H351.796C352.496 617.814 352.916 618.206 352.916 618.892V619.368C352.916 620.054 352.496 620.432 351.796 620.432H349.22V617.814ZM349.22 613.796H351.502C352.174 613.796 352.566 614.174 352.566 614.832V615.266C352.566 615.91 352.174 616.302 351.502 616.302H349.22V613.796ZM356.815 622H358.565V614.986H358.621L359.377 616.54L361.379 620.236L363.381 616.54L364.137 614.986H364.193V622H365.943V612.228H363.941L361.463 617.002H361.407L358.901 612.228H356.815V622ZM375.667 622.168C377.417 622.168 378.579 621.314 379.279 619.858L377.781 618.976C377.459 619.858 376.773 620.53 375.667 620.53C374.295 620.53 373.413 619.578 373.413 617.898V616.358C373.413 614.692 374.295 613.698 375.667 613.698C376.759 613.698 377.375 614.286 377.655 615.154L379.237 614.314C378.551 612.802 377.417 612.06 375.667 612.06C373.091 612.06 371.453 613.894 371.453 617.184C371.453 620.474 373.091 622.168 375.667 622.168ZM383.662 622V620.572H382.696V611.64H380.904V620.236C380.904 621.356 381.478 622 382.696 622H383.662ZM388.077 622.168C390.177 622.168 391.479 620.684 391.479 618.332C391.479 615.994 390.177 614.524 388.077 614.524C385.991 614.524 384.689 615.994 384.689 618.332C384.689 620.684 385.991 622.168 388.077 622.168ZM388.077 620.726C387.153 620.726 386.565 620.124 386.565 619.018V617.66C386.565 616.568 387.153 615.966 388.077 615.966C389.015 615.966 389.603 616.568 389.603 617.66V619.018C389.603 620.124 389.015 620.726 388.077 620.726ZM397.596 622H399.388V614.692H397.596V619.522C397.596 620.306 396.882 620.684 396.168 620.684C395.314 620.684 394.936 620.138 394.936 619.13V614.692H393.144V619.312C393.144 621.132 393.984 622.168 395.482 622.168C396.686 622.168 397.274 621.51 397.526 620.782H397.596V622ZM406.154 622H407.946V611.64H406.154V615.896H406.084C405.832 615.056 405.034 614.524 404.068 614.524C402.234 614.524 401.212 615.896 401.212 618.332C401.212 620.782 402.234 622.168 404.068 622.168C405.034 622.168 405.818 621.608 406.084 620.782H406.154V622ZM404.642 620.684C403.718 620.684 403.088 620.012 403.088 618.976V617.716C403.088 616.68 403.718 615.994 404.642 615.994C405.496 615.994 406.154 616.456 406.154 617.17V619.494C406.154 620.25 405.496 620.684 404.642 620.684ZM416.791 622.168C419.129 622.168 420.459 620.908 420.459 619.06C420.459 617.45 419.535 616.568 417.561 616.218L416.651 616.05C415.713 615.882 415.293 615.574 415.293 614.832C415.293 614.104 415.839 613.684 416.889 613.684C417.925 613.684 418.597 614.09 419.073 614.692L420.333 613.502C419.549 612.564 418.457 612.06 416.987 612.06C414.803 612.06 413.445 613.194 413.445 614.944C413.445 616.54 414.397 617.478 416.371 617.786L417.295 617.926C418.317 618.108 418.625 618.514 418.625 619.172C418.625 619.998 418.037 620.544 416.903 620.544C415.895 620.544 415.069 620.124 414.397 619.34L413.151 620.544C413.977 621.51 415.125 622.168 416.791 622.168ZM424.166 622.168C425.258 622.168 426.056 621.678 426.294 620.74H426.378C426.49 621.496 426.966 622 427.736 622H428.73V620.572H428.002V617.128C428.002 615.462 426.952 614.524 424.978 614.524C423.508 614.524 422.654 615.084 422.122 615.924L423.186 616.876C423.536 616.372 424.012 615.952 424.852 615.952C425.804 615.952 426.21 616.428 426.21 617.24V617.772H424.964C422.976 617.772 421.842 618.514 421.842 620.012C421.842 621.314 422.682 622.168 424.166 622.168ZM424.768 620.866C424.068 620.866 423.662 620.572 423.662 619.984V619.746C423.662 619.172 424.124 618.85 425.062 618.85H426.21V619.816C426.21 620.502 425.566 620.866 424.768 620.866ZM432.568 622H433.856V620.572H432.47V616.12H433.968V614.692H432.47V612.69H430.86V613.936C430.86 614.44 430.692 614.692 430.16 614.692H429.6V616.12H430.678V620.138C430.678 621.328 431.336 622 432.568 622ZM438.581 622.168C439.939 622.168 441.003 621.65 441.605 620.824L440.639 619.746C440.191 620.32 439.659 620.74 438.777 620.74C437.601 620.74 436.999 620.026 436.999 618.976V618.794H441.857V618.206C441.857 616.204 440.807 614.524 438.525 614.524C436.383 614.524 435.137 616.022 435.137 618.332C435.137 620.67 436.425 622.168 438.581 622.168ZM438.553 615.868C439.477 615.868 439.995 616.554 439.995 617.562V617.688H436.999V617.576C436.999 616.568 437.615 615.868 438.553 615.868ZM446.352 622V620.572H445.386V611.64H443.594V620.236C443.594 621.356 444.168 622 445.386 622H446.352ZM450.531 622V620.572H449.565V611.64H447.773V620.236C447.773 621.356 448.347 622 449.565 622H450.531ZM452.945 613.628C453.673 613.628 453.995 613.25 453.995 612.732V612.452C453.995 611.934 453.673 611.556 452.945 611.556C452.203 611.556 451.895 611.934 451.895 612.452V612.732C451.895 613.25 452.203 613.628 452.945 613.628ZM452.049 622H453.841V614.692H452.049V622ZM458.36 622H459.648V620.572H458.262V616.12H459.76V614.692H458.262V612.69H456.652V613.936C456.652 614.44 456.484 614.692 455.952 614.692H455.392V616.12H456.47V620.138C456.47 621.328 457.128 622 458.36 622ZM464.373 622.168C465.731 622.168 466.795 621.65 467.397 620.824L466.431 619.746C465.983 620.32 465.451 620.74 464.569 620.74C463.393 620.74 462.791 620.026 462.791 618.976V618.794H467.649V618.206C467.649 616.204 466.599 614.524 464.317 614.524C462.175 614.524 460.929 616.022 460.929 618.332C460.929 620.67 462.217 622.168 464.373 622.168ZM464.345 615.868C465.269 615.868 465.787 616.554 465.787 617.562V617.688H462.791V617.576C462.791 616.568 463.407 615.868 464.345 615.868ZM471.969 615.938L473.369 618.038L474.629 617.184L473.005 615.196L475.399 614.496L474.923 613.096L472.641 614.02L472.753 611.542H471.185L471.311 614.02L469.015 613.096L468.539 614.496L470.933 615.196L469.309 617.184L470.569 618.052L471.969 615.938Z" fill="black"/>
<path d="M403.625 579.75C404.315 579.75 404.875 579.19 404.875 578.5C404.875 577.81 404.315 577.25 403.625 577.25C402.935 577.25 402.375 577.81 402.375 578.5C402.375 579.19 402.935 579.75 403.625 579.75Z" fill="white"/>
<path d="M408 578.5C406.625 578.5 405.5 577.375 405.5 576C405.5 574.625 406.625 573.5 408 573.5C409.375 573.5 410.5 574.625 410.5 576C410.5 577.375 409.375 578.5 408 578.5ZM408 574.75C407.312 574.75 406.75 575.312 406.75 576C406.75 576.688 407.312 577.25 408 577.25C408.688 577.25 409.25 576.688 409.25 576C409.25 575.312 408.688 574.75 408 574.75Z" fill="white"/>
<path d="M412.375 574.75C413.065 574.75 413.625 574.19 413.625 573.5C413.625 572.81 413.065 572.25 412.375 572.25C411.685 572.25 411.125 572.81 411.125 573.5C411.125 574.19 411.685 574.75 412.375 574.75Z" fill="white"/>
<path d="M408 585.375C407.894 585.375 407.781 585.35 407.688 585.288L400.188 580.913C399.994 580.8 399.875 580.594 399.875 580.375V571.625C399.875 571.4 399.994 571.2 400.188 571.088L407.688 566.713C407.881 566.6 408.125 566.6 408.319 566.713L415.819 571.088L415.188 572.169L408 567.975L401.125 571.981V580.013L408 584.025L414.875 580.013V575.369H416.125V580.369C416.125 580.594 416.006 580.794 415.812 580.906L408.312 585.281C408.213 585.338 408.106 585.369 408 585.369V585.375Z" fill="white"/>
<path d="M408 121L408 96" stroke="#8F8B8B"/>
<path d="M412 121L408 129L404 121L412 121Z" fill="#8F8B8B"/>
<rect x="673.5" y="416.5" width="159" height="47" fill="white"/>
<g clip-path="url(#clip3_700_40588)">
<line x1="675" y1="416" x2="675" y2="464" stroke="#8D8D8D" stroke-width="4"/>
<path d="M693.942 445.168C695.692 445.168 696.854 444.314 697.554 442.858L696.056 441.976C695.734 442.858 695.048 443.53 693.942 443.53C692.57 443.53 691.688 442.578 691.688 440.898V439.358C691.688 437.692 692.57 436.698 693.942 436.698C695.034 436.698 695.65 437.286 695.93 438.154L697.512 437.314C696.826 435.802 695.692 435.06 693.942 435.06C691.366 435.06 689.728 436.894 689.728 440.184C689.728 443.474 691.366 445.168 693.942 445.168ZM701.936 445V443.572H700.97V434.64H699.178V443.236C699.178 444.356 699.752 445 700.97 445H701.936ZM705.26 445.168C706.352 445.168 707.15 444.678 707.388 443.74H707.472C707.584 444.496 708.06 445 708.83 445H709.824V443.572H709.096V440.128C709.096 438.462 708.046 437.524 706.072 437.524C704.602 437.524 703.748 438.084 703.216 438.924L704.28 439.876C704.63 439.372 705.106 438.952 705.946 438.952C706.898 438.952 707.304 439.428 707.304 440.24V440.772H706.058C704.07 440.772 702.936 441.514 702.936 443.012C702.936 444.314 703.776 445.168 705.26 445.168ZM705.862 443.866C705.162 443.866 704.756 443.572 704.756 442.984V442.746C704.756 442.172 705.218 441.85 706.156 441.85H707.304V442.816C707.304 443.502 706.66 443.866 705.862 443.866ZM713.828 445.168C715.648 445.168 716.838 444.188 716.838 442.774C716.838 441.556 716.068 440.842 714.472 440.618L713.73 440.52C713.044 440.408 712.778 440.184 712.778 439.694C712.778 439.246 713.114 438.938 713.884 438.938C714.598 438.938 715.214 439.274 715.634 439.722L716.684 438.672C715.984 437.944 715.256 437.524 713.828 437.524C712.162 437.524 711.056 438.42 711.056 439.834C711.056 441.164 711.924 441.85 713.492 442.046L714.22 442.144C714.864 442.228 715.116 442.494 715.116 442.914C715.116 443.432 714.752 443.754 713.898 443.754C713.072 443.754 712.428 443.376 711.896 442.76L710.804 443.824C711.532 444.664 712.442 445.168 713.828 445.168ZM720.879 445.168C722.699 445.168 723.889 444.188 723.889 442.774C723.889 441.556 723.119 440.842 721.523 440.618L720.781 440.52C720.095 440.408 719.829 440.184 719.829 439.694C719.829 439.246 720.165 438.938 720.935 438.938C721.649 438.938 722.265 439.274 722.685 439.722L723.735 438.672C723.035 437.944 722.307 437.524 720.879 437.524C719.213 437.524 718.107 438.42 718.107 439.834C718.107 441.164 718.975 441.85 720.543 442.046L721.271 442.144C721.915 442.228 722.167 442.494 722.167 442.914C722.167 443.432 721.803 443.754 720.949 443.754C720.123 443.754 719.479 443.376 718.947 442.76L717.855 443.824C718.583 444.664 719.493 445.168 720.879 445.168ZM726.527 436.628C727.255 436.628 727.577 436.25 727.577 435.732V435.452C727.577 434.934 727.255 434.556 726.527 434.556C725.785 434.556 725.477 434.934 725.477 435.452V435.732C725.477 436.25 725.785 436.628 726.527 436.628ZM725.631 445H727.423V437.692H725.631V445ZM732.544 445.168C733.958 445.168 734.98 444.524 735.456 443.236L734.084 442.578C733.818 443.236 733.398 443.726 732.544 443.726C731.55 443.726 731.046 443.04 731.046 442.018V440.688C731.046 439.666 731.55 438.966 732.544 438.966C733.314 438.966 733.776 439.414 733.944 440.03L735.414 439.372C734.98 438.224 734.014 437.524 732.544 437.524C730.388 437.524 729.17 438.994 729.17 441.332C729.17 443.684 730.388 445.168 732.544 445.168Z" fill="black"/>
</g>
<rect x="673.5" y="416.5" width="159" height="47" stroke="#8D8D8D"/>
<rect x="673.5" y="480.5" width="159" height="47" fill="white"/>
<g clip-path="url(#clip4_700_40588)">
<line x1="675" y1="480" x2="675" y2="528" stroke="#8D8D8D" stroke-width="4"/>
<path d="M694.516 509L697.708 499.228H695.874L694.376 503.988L693.522 507.236H693.48L692.612 503.988L691.114 499.228H689.224L692.416 509H694.516ZM701.084 509V505.276H703.632C705.438 505.276 706.53 504.072 706.53 502.252C706.53 500.446 705.438 499.228 703.632 499.228H699.236V509H701.084ZM701.084 500.838H703.464C704.178 500.838 704.612 501.216 704.612 501.93V502.574C704.612 503.288 704.178 503.68 703.464 503.68H701.084V500.838ZM712.158 509.168C713.908 509.168 715.07 508.314 715.77 506.858L714.272 505.976C713.95 506.858 713.264 507.53 712.158 507.53C710.786 507.53 709.904 506.578 709.904 504.898V503.358C709.904 501.692 710.786 500.698 712.158 500.698C713.25 500.698 713.866 501.286 714.146 502.154L715.728 501.314C715.042 499.802 713.908 499.06 712.158 499.06C709.582 499.06 707.944 500.894 707.944 504.184C707.944 507.474 709.582 509.168 712.158 509.168Z" fill="black"/>
</g>
<rect x="673.5" y="480.5" width="159" height="47" stroke="#8D8D8D"/>
<path d="M904.5 572L912.5 576L904.5 580V572Z" fill="#8F8B8B"/>
<path d="M377 268.002L385 272.002L377 276.002V268.002Z" fill="#8F8B8B"/>
<path d="M377 388L385 392L377 396V388Z" fill="#8F8B8B"/>
<path d="M287 224L327.784 224C332.203 224 335.785 227.583 335.784 232.002L335.775 269.443L335.775 384C335.775 388.418 339.356 392 343.775 392L367 392" stroke="#8F8B8B"/>
<path d="M336 236V264C336 268.418 339.582 272 344 272H377.5" stroke="#8F8B8B"/>
<path d="M336 356V384C336 388.418 339.582 392 344 392H490" stroke="#8F8B8B"/>
<rect width="82" height="92" transform="translate(367 368)" fill="white" style="mix-blend-mode:multiply"/>
<rect width="48" height="48" transform="translate(384 368)" fill="#DA1E28"/>
<rect width="20" height="20" transform="translate(398 382)" fill="white" style="mix-blend-mode:multiply"/>
<path d="M414.538 391.873C414.462 390.936 414.212 390.021 413.801 389.175L416.125 388.331C415.942 387.952 415.727 387.588 415.483 387.245L414.393 387.642C413.441 386.308 412.079 385.323 410.514 384.837C408.948 384.352 407.267 384.392 405.728 384.954C404.188 385.515 402.875 386.565 401.989 387.944C401.104 389.323 400.694 390.954 400.824 392.587L401.917 392.187C401.951 392.605 402.02 393.02 402.123 393.427L399.802 394.274C400.032 395.185 400.429 396.046 400.973 396.813L402.202 396.365L402.203 396.367C402.949 397.417 403.955 398.255 405.122 398.799C406.925 399.637 408.987 399.726 410.855 399.046C412.723 398.366 414.245 396.972 415.088 395.171C415.634 394.003 415.867 392.712 415.763 391.426L414.538 391.873ZM412.713 394.058C412.167 395.228 411.179 396.134 409.966 396.576C408.753 397.018 407.414 396.961 406.243 396.417C405.712 396.17 405.231 395.829 404.823 395.409L403.583 395.862C402.916 395.175 402.466 394.308 402.286 393.368L402.287 393.368L404.614 392.52C404.532 392.095 404.506 391.661 404.537 391.229L403.443 391.627C403.501 390.841 403.749 390.081 404.166 389.413C404.583 388.745 405.156 388.188 405.836 387.79C406.516 387.393 407.282 387.167 408.069 387.131C408.856 387.096 409.64 387.253 410.353 387.588H410.357C410.886 387.836 411.365 388.178 411.772 388.597L412.863 388.201C413.163 388.51 413.422 388.858 413.631 389.236L411.312 390.085C411.779 390.92 411.992 391.874 411.922 392.828L413.153 392.381C413.109 392.962 412.961 393.531 412.713 394.058H412.713Z" fill="white"/>
<path d="M384.683 434.234H386.433L388.253 438H390.311L388.309 434.024C389.513 433.618 390.129 432.596 390.129 431.252C390.129 429.404 389.023 428.228 387.245 428.228H382.835V438H384.683V434.234ZM384.683 432.68V429.838H387.063C387.777 429.838 388.211 430.216 388.211 430.93V431.574C388.211 432.288 387.777 432.68 387.063 432.68H384.683ZM394.929 438.168C396.287 438.168 397.351 437.65 397.953 436.824L396.987 435.746C396.539 436.32 396.007 436.74 395.125 436.74C393.949 436.74 393.347 436.026 393.347 434.976V434.794H398.205V434.206C398.205 432.204 397.155 430.524 394.873 430.524C392.731 430.524 391.485 432.022 391.485 434.332C391.485 436.67 392.773 438.168 394.929 438.168ZM394.901 431.868C395.825 431.868 396.343 432.554 396.343 433.562V433.688H393.347V433.576C393.347 432.568 393.963 431.868 394.901 431.868ZM404.477 438H406.269V427.64H404.477V431.896H404.407C404.155 431.056 403.357 430.524 402.391 430.524C400.557 430.524 399.535 431.896 399.535 434.332C399.535 436.782 400.557 438.168 402.391 438.168C403.357 438.168 404.141 437.608 404.407 436.782H404.477V438ZM402.965 436.684C402.041 436.684 401.411 436.012 401.411 434.976V433.716C401.411 432.68 402.041 431.994 402.965 431.994C403.819 431.994 404.477 432.456 404.477 433.17V435.494C404.477 436.25 403.819 436.684 402.965 436.684ZM417.999 438H419.847V428.228H417.999V432.232H413.925V428.228H412.077V438H413.925V433.87H417.999V438ZM423.993 438.168C425.085 438.168 425.883 437.678 426.121 436.74H426.205C426.317 437.496 426.793 438 427.563 438H428.557V436.572H427.829V433.128C427.829 431.462 426.779 430.524 424.805 430.524C423.335 430.524 422.481 431.084 421.949 431.924L423.013 432.876C423.363 432.372 423.839 431.952 424.679 431.952C425.631 431.952 426.037 432.428 426.037 433.24V433.772H424.791C422.803 433.772 421.669 434.514 421.669 436.012C421.669 437.314 422.509 438.168 423.993 438.168ZM424.595 436.866C423.895 436.866 423.489 436.572 423.489 435.984V435.746C423.489 435.172 423.951 434.85 424.889 434.85H426.037V435.816C426.037 436.502 425.393 436.866 424.595 436.866ZM432.395 438H433.683V436.572H432.297V432.12H433.795V430.692H432.297V428.69H430.687V429.936C430.687 430.44 430.519 430.692 429.987 430.692H429.427V432.12H430.505V436.138C430.505 437.328 431.163 438 432.395 438ZM375.781 456.168C378.357 456.168 380.037 454.418 380.037 451.114C380.037 447.81 378.357 446.06 375.781 446.06C373.219 446.06 371.525 447.81 371.525 451.114C371.525 454.418 373.219 456.168 375.781 456.168ZM375.781 454.53C374.381 454.53 373.485 453.536 373.485 451.87V450.358C373.485 448.692 374.381 447.698 375.781 447.698C377.181 447.698 378.077 448.692 378.077 450.358V451.87C378.077 453.536 377.181 454.53 375.781 454.53ZM381.959 458.8H383.751V454.782H383.807C384.087 455.608 384.857 456.168 385.823 456.168C387.671 456.168 388.693 454.782 388.693 452.332C388.693 449.896 387.671 448.524 385.823 448.524C384.857 448.524 384.073 449.056 383.807 449.896H383.751V448.692H381.959V458.8ZM385.249 454.684C384.395 454.684 383.751 454.25 383.751 453.494V451.17C383.751 450.456 384.395 449.994 385.249 449.994C386.173 449.994 386.817 450.68 386.817 451.716V452.976C386.817 454.012 386.173 454.684 385.249 454.684ZM393.468 456.168C394.826 456.168 395.89 455.65 396.492 454.824L395.526 453.746C395.078 454.32 394.546 454.74 393.664 454.74C392.488 454.74 391.886 454.026 391.886 452.976V452.794H396.744V452.206C396.744 450.204 395.694 448.524 393.412 448.524C391.27 448.524 390.024 450.022 390.024 452.332C390.024 454.67 391.312 456.168 393.468 456.168ZM393.44 449.868C394.364 449.868 394.882 450.554 394.882 451.562V451.688H391.886V451.576C391.886 450.568 392.502 449.868 393.44 449.868ZM400.273 456V451.17C400.273 450.386 400.987 449.994 401.729 449.994C402.583 449.994 402.933 450.526 402.933 451.562V456H404.725V451.38C404.725 449.56 403.885 448.524 402.387 448.524C401.253 448.524 400.637 449.126 400.343 449.91H400.273V448.692H398.481V456H400.273ZM410.021 456.168C412.359 456.168 413.689 454.908 413.689 453.06C413.689 451.45 412.765 450.568 410.791 450.218L409.881 450.05C408.943 449.882 408.523 449.574 408.523 448.832C408.523 448.104 409.069 447.684 410.119 447.684C411.155 447.684 411.827 448.09 412.303 448.692L413.563 447.502C412.779 446.564 411.687 446.06 410.217 446.06C408.033 446.06 406.675 447.194 406.675 448.944C406.675 450.54 407.627 451.478 409.601 451.786L410.525 451.926C411.547 452.108 411.855 452.514 411.855 453.172C411.855 453.998 411.267 454.544 410.133 454.544C409.125 454.544 408.299 454.124 407.627 453.34L406.381 454.544C407.207 455.51 408.355 456.168 410.021 456.168ZM415.59 456H417.382V451.17C417.382 450.386 418.096 449.994 418.838 449.994C419.692 449.994 420.042 450.526 420.042 451.562V456H421.834V451.38C421.834 449.56 420.994 448.524 419.496 448.524C418.362 448.524 417.746 449.126 417.452 449.91H417.382V445.64H415.59V456ZM424.876 447.628C425.604 447.628 425.926 447.25 425.926 446.732V446.452C425.926 445.934 425.604 445.556 424.876 445.556C424.134 445.556 423.826 445.934 423.826 446.452V446.732C423.826 447.25 424.134 447.628 424.876 447.628ZM423.98 456H425.772V448.692H423.98V456ZM428.373 456H430.165V450.106H431.663V448.692H430.165V447.068H431.663V445.64H430.389C429.073 445.64 428.373 446.354 428.373 447.642V448.692H427.295V450.106H428.373V456ZM435.346 456H436.634V454.572H435.248V450.12H436.746V448.692H435.248V446.69H433.638V447.936C433.638 448.44 433.47 448.692 432.938 448.692H432.378V450.12H433.456V454.138C433.456 455.328 434.114 456 435.346 456ZM441.316 449.938L442.716 452.038L443.976 451.184L442.352 449.196L444.746 448.496L444.27 447.096L441.988 448.02L442.1 445.542H440.532L440.658 448.02L438.362 447.096L437.886 448.496L440.28 449.196L438.656 451.184L439.916 452.052L441.316 449.938Z" fill="black"/>
<path d="M529 392H487.772C483.354 392 479.772 388.418 479.772 384V280C479.772 275.582 476.19 272 471.772 272H432" stroke="#8F8B8B"/>
<path d="M666 436.002L674 440.002L666 444.002V436.002Z" fill="#8F8B8B"/>
<path d="M666 500L674 504L666 508V500Z" fill="#8F8B8B"/>
<path d="M572.5 392L616.215 392C620.635 392 624.217 395.584 624.215 400.003L624.207 422.296L624.207 496C624.207 500.418 627.789 504 632.207 504L656 504" stroke="#8F8B8B"/>
<path d="M624 404V432C624 436.418 627.582 440 632 440H666.5" stroke="#8F8B8B"/>
<path d="M624 468V496C624 500.418 627.582 504 632 504H667" stroke="#8F8B8B"/>
<path d="M833 440L872.874 440C877.294 440 880.876 443.584 880.874 448.004L880.86 476.787L880.86 568C880.86 572.418 884.442 576 888.86 576L913 576" stroke="#8F8B8B"/>
<path d="M833 504L873.188 504C877.609 504 881.192 507.586 881.188 512.007L881.177 523.476L881.177 568C881.177 572.418 884.759 576 889.177 576L909 576" stroke="#8F8B8B"/>
<rect width="82" height="110" transform="translate(367 248)" fill="white" style="mix-blend-mode:multiply"/>
<rect width="48" height="48" transform="translate(384 248)" fill="#0F62FE"/>
<rect width="20" height="20" transform="translate(398 262)" fill="white" style="mix-blend-mode:multiply"/>
<path d="M408 276.375C407.875 276.375 407.75 276.375 407.688 276.312L404.562 274.437C404.375 274.312 404.25 274.125 404.25 273.875V270.125C404.25 269.875 404.375 269.688 404.562 269.563L407.688 267.688C407.75 267.625 407.875 267.625 408 267.625C408.125 267.625 408.25 267.625 408.312 267.688L411.438 269.563C411.625 269.688 411.75 269.875 411.75 270.125V273.875C411.75 274.125 411.625 274.312 411.438 274.437L408.312 276.312C408.25 276.375 408.125 276.375 408 276.375ZM405.5 273.5L408 275L410.5 273.5V270.438L408 268.938L405.5 270.438V273.5Z" fill="white"/>
<path d="M408 281.375C407.875 281.375 407.813 281.375 407.688 281.312L400.188 276.937C400 276.812 399.875 276.625 399.875 276.375V267.625C399.875 267.375 400 267.188 400.188 267.063L407.688 262.688C407.813 262.625 407.875 262.625 408 262.625C408.125 262.625 408.187 262.625 408.312 262.688L415.812 267.063L415.188 268.125L408 264L401.125 268V276.062L408 280.062L414.875 276.062V271.375H416.125V276.375C416.125 276.625 416 276.812 415.812 276.937L408.312 281.312C408.187 281.375 408.125 281.375 408 281.375Z" fill="white"/>
<path d="M399.704 318V316.516H398.402V309.712H399.704V308.228H395.266V309.712H396.554V316.516H395.266V318H399.704ZM401.752 318H406.708C408.15 318 409.228 316.768 409.228 315.2C409.228 313.534 407.968 312.932 407.114 312.918V312.834C408.01 312.778 408.864 312.218 408.864 310.734C408.864 309.222 407.884 308.228 406.274 308.228H401.752V318ZM403.6 313.814H406.176C406.876 313.814 407.296 314.206 407.296 314.892V315.368C407.296 316.054 406.876 316.432 406.176 316.432H403.6V313.814ZM403.6 309.796H405.882C406.554 309.796 406.946 310.174 406.946 310.832V311.266C406.946 311.91 406.554 312.302 405.882 312.302H403.6V309.796ZM411.195 318H412.945V310.986H413.001L413.757 312.54L415.759 316.236L417.761 312.54L418.517 310.986H418.573V318H420.323V308.228H418.321L415.843 313.002H415.787L413.281 308.228H411.195V318ZM376.766 336H378.964L375.282 330.302L378.684 326.228H376.556L374.134 329.21L372.748 331.044H372.678V326.228H370.83V336H372.678V333.116L373.98 331.576L376.766 336ZM384.502 336H386.294V328.692H384.502V333.522C384.502 334.306 383.788 334.684 383.074 334.684C382.22 334.684 381.842 334.138 381.842 333.13V328.692H380.05V333.312C380.05 335.132 380.89 336.168 382.388 336.168C383.592 336.168 384.18 335.51 384.432 334.782H384.502V336ZM388.525 336H390.317V334.782H390.373C390.653 335.608 391.423 336.168 392.389 336.168C394.237 336.168 395.259 334.782 395.259 332.332C395.259 329.896 394.237 328.524 392.389 328.524C391.423 328.524 390.639 329.056 390.373 329.896H390.317V325.64H388.525V336ZM391.815 334.684C390.961 334.684 390.317 334.25 390.317 333.494V331.17C390.317 330.456 390.961 329.994 391.815 329.994C392.739 329.994 393.383 330.68 393.383 331.716V332.976C393.383 334.012 392.739 334.684 391.815 334.684ZM400.033 336.168C401.391 336.168 402.455 335.65 403.057 334.824L402.091 333.746C401.643 334.32 401.111 334.74 400.229 334.74C399.053 334.74 398.451 334.026 398.451 332.976V332.794H403.309V332.206C403.309 330.204 402.259 328.524 399.977 328.524C397.835 328.524 396.589 330.022 396.589 332.332C396.589 334.67 397.877 336.168 400.033 336.168ZM400.005 329.868C400.929 329.868 401.447 330.554 401.447 331.562V331.688H398.451V331.576C398.451 330.568 399.067 329.868 400.005 329.868ZM406.838 336V331.52C406.838 330.722 407.468 330.386 408.672 330.386H409.232V328.692H408.84C407.678 328.692 407.09 329.434 406.908 330.204H406.838V328.692H405.046V336H406.838ZM412.494 336V331.17C412.494 330.386 413.208 329.994 413.95 329.994C414.804 329.994 415.154 330.526 415.154 331.562V336H416.946V331.38C416.946 329.56 416.106 328.524 414.608 328.524C413.474 328.524 412.858 329.126 412.564 329.91H412.494V328.692H410.702V336H412.494ZM422.046 336.168C423.404 336.168 424.468 335.65 425.07 334.824L424.104 333.746C423.656 334.32 423.124 334.74 422.242 334.74C421.066 334.74 420.464 334.026 420.464 332.976V332.794H425.322V332.206C425.322 330.204 424.272 328.524 421.99 328.524C419.848 328.524 418.602 330.022 418.602 332.332C418.602 334.67 419.89 336.168 422.046 336.168ZM422.018 329.868C422.942 329.868 423.46 330.554 423.46 331.562V331.688H420.464V331.576C420.464 330.568 421.08 329.868 422.018 329.868ZM429.341 336H430.629V334.572H429.243V330.12H430.741V328.692H429.243V326.69H427.633V327.936C427.633 328.44 427.465 328.692 426.933 328.692H426.373V330.12H427.451V334.138C427.451 335.328 428.109 336 429.341 336ZM435.355 336.168C436.713 336.168 437.777 335.65 438.379 334.824L437.413 333.746C436.965 334.32 436.433 334.74 435.551 334.74C434.375 334.74 433.773 334.026 433.773 332.976V332.794H438.631V332.206C438.631 330.204 437.581 328.524 435.299 328.524C433.157 328.524 431.911 330.022 431.911 332.332C431.911 334.67 433.199 336.168 435.355 336.168ZM435.327 329.868C436.251 329.868 436.769 330.554 436.769 331.562V331.688H433.773V331.576C433.773 330.568 434.389 329.868 435.327 329.868ZM442.761 336.168C444.581 336.168 445.771 335.188 445.771 333.774C445.771 332.556 445.001 331.842 443.405 331.618L442.663 331.52C441.977 331.408 441.711 331.184 441.711 330.694C441.711 330.246 442.047 329.938 442.817 329.938C443.531 329.938 444.147 330.274 444.567 330.722L445.617 329.672C444.917 328.944 444.189 328.524 442.761 328.524C441.095 328.524 439.989 329.42 439.989 330.834C439.989 332.164 440.857 332.85 442.425 333.046L443.153 333.144C443.797 333.228 444.049 333.494 444.049 333.914C444.049 334.432 443.685 334.754 442.831 334.754C442.005 334.754 441.361 334.376 440.829 333.76L439.737 334.824C440.465 335.664 441.375 336.168 442.761 336.168ZM387.657 354.168C389.995 354.168 391.325 352.908 391.325 351.06C391.325 349.45 390.401 348.568 388.427 348.218L387.517 348.05C386.579 347.882 386.159 347.574 386.159 346.832C386.159 346.104 386.705 345.684 387.755 345.684C388.791 345.684 389.463 346.09 389.939 346.692L391.199 345.502C390.415 344.564 389.323 344.06 387.853 344.06C385.669 344.06 384.311 345.194 384.311 346.944C384.311 348.54 385.263 349.478 387.237 349.786L388.161 349.926C389.183 350.108 389.491 350.514 389.491 351.172C389.491 351.998 388.903 352.544 387.769 352.544C386.761 352.544 385.935 352.124 385.263 351.34L384.017 352.544C384.843 353.51 385.991 354.168 387.657 354.168ZM396.18 354.168C397.538 354.168 398.602 353.65 399.204 352.824L398.238 351.746C397.79 352.32 397.258 352.74 396.376 352.74C395.2 352.74 394.598 352.026 394.598 350.976V350.794H399.456V350.206C399.456 348.204 398.406 346.524 396.124 346.524C393.982 346.524 392.736 348.022 392.736 350.332C392.736 352.67 394.024 354.168 396.18 354.168ZM396.152 347.868C397.076 347.868 397.594 348.554 397.594 349.562V349.688H394.598V349.576C394.598 348.568 395.214 347.868 396.152 347.868ZM402.984 354V349.52C402.984 348.722 403.614 348.386 404.818 348.386H405.378V346.692H404.986C403.824 346.692 403.236 347.434 403.054 348.204H402.984V346.692H401.192V354H402.984ZM410.654 354L413.104 346.692H411.396L410.402 349.842L409.688 352.446H409.59L408.876 349.842L407.854 346.692H406.09L408.526 354H410.654ZM415.356 345.628C416.084 345.628 416.406 345.25 416.406 344.732V344.452C416.406 343.934 416.084 343.556 415.356 343.556C414.614 343.556 414.306 343.934 414.306 344.452V344.732C414.306 345.25 414.614 345.628 415.356 345.628ZM414.46 354H416.252V346.692H414.46V354ZM421.373 354.168C422.787 354.168 423.809 353.524 424.285 352.236L422.913 351.578C422.647 352.236 422.227 352.726 421.373 352.726C420.379 352.726 419.875 352.04 419.875 351.018V349.688C419.875 348.666 420.379 347.966 421.373 347.966C422.143 347.966 422.605 348.414 422.773 349.03L424.243 348.372C423.809 347.224 422.843 346.524 421.373 346.524C419.217 346.524 417.999 347.994 417.999 350.332C417.999 352.684 419.217 354.168 421.373 354.168ZM428.712 354.168C430.07 354.168 431.134 353.65 431.736 352.824L430.77 351.746C430.322 352.32 429.79 352.74 428.908 352.74C427.732 352.74 427.13 352.026 427.13 350.976V350.794H431.988V350.206C431.988 348.204 430.938 346.524 428.656 346.524C426.514 346.524 425.268 348.022 425.268 350.332C425.268 352.67 426.556 354.168 428.712 354.168ZM428.684 347.868C429.608 347.868 430.126 348.554 430.126 349.562V349.688H427.13V349.576C427.13 348.568 427.746 347.868 428.684 347.868Z" fill="black"/>
<path d="M549.939 369.768C550.525 369.182 551.475 369.182 552.061 369.768L573.232 390.939C573.818 391.525 573.818 392.475 573.232 393.061L552.061 414.232C551.475 414.818 550.525 414.818 549.939 414.232L528.768 393.061C528.182 392.475 528.182 391.525 528.768 390.939L549.939 369.768Z" fill="#CAC5C4" stroke="#CAC5C4"/>
<rect width="20" height="20" transform="translate(541 382)" fill="white" style="mix-blend-mode:multiply"/>
<path d="M551 383.25C549.269 383.25 547.578 383.763 546.139 384.725C544.7 385.686 543.578 387.053 542.916 388.652C542.254 390.25 542.081 392.01 542.418 393.707C542.756 395.404 543.589 396.963 544.813 398.187C546.037 399.411 547.596 400.244 549.293 400.582C550.99 400.919 552.75 400.746 554.348 400.084C555.947 399.422 557.314 398.3 558.275 396.861C559.237 395.422 559.75 393.731 559.75 392C559.75 389.679 558.828 387.454 557.187 385.813C555.546 384.172 553.321 383.25 551 383.25ZM551 399.5C549.517 399.5 548.067 399.06 546.833 398.236C545.6 397.412 544.639 396.241 544.071 394.87C543.503 393.5 543.355 391.992 543.644 390.537C543.934 389.082 544.648 387.746 545.697 386.697C546.746 385.648 548.082 384.933 549.537 384.644C550.992 384.355 552.5 384.503 553.87 385.071C555.241 385.639 556.412 386.6 557.236 387.833C558.06 389.067 558.5 390.517 558.5 392C558.5 393.989 557.71 395.897 556.303 397.303C554.897 398.71 552.989 399.5 551 399.5Z" fill="black"/>
<path d="M551 397.625C551.518 397.625 551.938 397.205 551.938 396.688C551.938 396.17 551.518 395.75 551 395.75C550.482 395.75 550.063 396.17 550.063 396.688C550.063 397.205 550.482 397.625 551 397.625Z" fill="black"/>
<path d="M551.625 387H550.688C550.318 386.999 549.952 387.071 549.61 387.212C549.269 387.353 548.958 387.561 548.697 387.822C548.436 388.083 548.228 388.394 548.087 388.735C547.946 389.077 547.874 389.443 547.875 389.812V390.125H549.125V389.812C549.125 389.398 549.29 389.001 549.583 388.708C549.876 388.415 550.273 388.25 550.688 388.25H551.625C552.039 388.25 552.437 388.415 552.73 388.708C553.023 389.001 553.188 389.398 553.188 389.812C553.188 390.227 553.023 390.624 552.73 390.917C552.437 391.21 552.039 391.375 551.625 391.375H550.375V394.188H551.625V392.625C552.371 392.625 553.086 392.329 553.614 391.801C554.141 391.274 554.438 390.558 554.438 389.812C554.438 389.067 554.141 388.351 553.614 387.824C553.086 387.296 552.371 387 551.625 387Z" fill="black"/>
<path d="M525.484 438H527.332V428.228H525.484V432.232H521.41V428.228H519.562V438H521.41V433.87H525.484V438ZM531.478 438.168C532.57 438.168 533.368 437.678 533.606 436.74H533.69C533.802 437.496 534.278 438 535.048 438H536.042V436.572H535.314V433.128C535.314 431.462 534.264 430.524 532.29 430.524C530.82 430.524 529.966 431.084 529.434 431.924L530.498 432.876C530.848 432.372 531.324 431.952 532.164 431.952C533.116 431.952 533.522 432.428 533.522 433.24V433.772H532.276C530.288 433.772 529.154 434.514 529.154 436.012C529.154 437.314 529.994 438.168 531.478 438.168ZM532.08 436.866C531.38 436.866 530.974 436.572 530.974 435.984V435.746C530.974 435.172 531.436 434.85 532.374 434.85H533.522V435.816C533.522 436.502 532.878 436.866 532.08 436.866ZM539.444 438V433.52C539.444 432.722 540.074 432.386 541.278 432.386H541.838V430.692H541.446C540.284 430.692 539.696 431.434 539.514 432.204H539.444V430.692H537.652V438H539.444ZM547.776 438H549.568V427.64H547.776V431.896H547.706C547.454 431.056 546.656 430.524 545.69 430.524C543.856 430.524 542.834 431.896 542.834 434.332C542.834 436.782 543.856 438.168 545.69 438.168C546.656 438.168 547.44 437.608 547.706 436.782H547.776V438ZM546.264 436.684C545.34 436.684 544.71 436.012 544.71 434.976V433.716C544.71 432.68 545.34 431.994 546.264 431.994C547.118 431.994 547.776 432.456 547.776 433.17V435.494C547.776 436.25 547.118 436.684 546.264 436.684ZM553.097 438H555.001L555.925 434.78L556.457 432.792H556.499L557.045 434.78L557.983 438H559.915L561.917 430.692H560.251L559.523 433.702L558.949 436.208H558.893L558.207 433.702L557.325 430.692H555.701L554.847 433.702L554.175 436.208H554.119L553.545 433.702L552.803 430.692H551.081L553.097 438ZM565.054 438.168C566.146 438.168 566.944 437.678 567.182 436.74H567.266C567.378 437.496 567.854 438 568.624 438H569.618V436.572H568.89V433.128C568.89 431.462 567.84 430.524 565.866 430.524C564.396 430.524 563.542 431.084 563.01 431.924L564.074 432.876C564.424 432.372 564.9 431.952 565.74 431.952C566.692 431.952 567.098 432.428 567.098 433.24V433.772H565.852C563.864 433.772 562.73 434.514 562.73 436.012C562.73 437.314 563.57 438.168 565.054 438.168ZM565.656 436.866C564.956 436.866 564.55 436.572 564.55 435.984V435.746C564.55 435.172 565.012 434.85 565.95 434.85H567.098V435.816C567.098 436.502 566.454 436.866 565.656 436.866ZM573.02 438V433.52C573.02 432.722 573.65 432.386 574.854 432.386H575.414V430.692H575.022C573.86 430.692 573.272 431.434 573.09 432.204H573.02V430.692H571.228V438H573.02ZM579.77 438.168C581.128 438.168 582.192 437.65 582.794 436.824L581.828 435.746C581.38 436.32 580.848 436.74 579.966 436.74C578.79 436.74 578.188 436.026 578.188 434.976V434.794H583.046V434.206C583.046 432.204 581.996 430.524 579.714 430.524C577.572 430.524 576.326 432.022 576.326 434.332C576.326 436.67 577.614 438.168 579.77 438.168ZM579.742 431.868C580.666 431.868 581.184 432.554 581.184 433.562V433.688H578.188V433.576C578.188 432.568 578.804 431.868 579.742 431.868Z" fill="black"/>
<rect x="912.5" y="568.5" width="71" height="15" rx="7.5" fill="white"/>
<path d="M926.6 572.512V571.624H920.264V572.512H922.928V580H923.936V572.512H926.6ZM929.762 580.144C931.418 580.144 932.558 578.872 932.558 576.904C932.558 574.936 931.418 573.664 929.762 573.664C928.106 573.664 926.966 574.936 926.966 576.904C926.966 578.872 928.106 580.144 929.762 580.144ZM929.762 579.292C928.73 579.292 927.998 578.656 927.998 577.348V576.46C927.998 575.152 928.73 574.516 929.762 574.516C930.794 574.516 931.526 575.152 931.526 576.46V577.348C931.526 578.656 930.794 579.292 929.762 579.292ZM939.473 580.144C940.889 580.144 941.765 579.412 941.765 578.212C941.765 577.276 941.237 576.676 939.869 576.472L939.389 576.4C938.621 576.28 938.201 576.04 938.201 575.44C938.201 574.852 938.621 574.48 939.413 574.48C940.205 574.48 940.733 574.852 941.009 575.236L941.645 574.66C941.141 574.036 940.481 573.664 939.485 573.664C938.225 573.664 937.277 574.264 937.277 575.488C937.277 576.64 938.129 577.108 939.269 577.276L939.761 577.348C940.577 577.468 940.841 577.84 940.841 578.32C940.841 578.956 940.361 579.328 939.545 579.328C938.765 579.328 938.189 578.98 937.709 578.38L937.025 578.932C937.577 579.664 938.333 580.144 939.473 580.144ZM946.266 580V579.16H945.006V574.648H946.362V573.808H945.006V572.092H944.142V573.244C944.142 573.664 944.01 573.808 943.602 573.808H943.026V574.648H944.046V578.98C944.046 579.58 944.406 580 945.066 580H946.266ZM950.507 580.144C951.671 580.144 952.559 579.568 952.955 578.728L952.271 578.236C951.947 578.92 951.347 579.304 950.567 579.304C949.415 579.304 948.731 578.5 948.731 577.432V577.144H953.183V576.688C953.183 574.936 952.163 573.664 950.507 573.664C948.827 573.664 947.723 574.936 947.723 576.904C947.723 578.872 948.827 580.144 950.507 580.144ZM950.507 574.468C951.491 574.468 952.151 575.2 952.151 576.292V576.424H948.731V576.34C948.731 575.26 949.463 574.468 950.507 574.468ZM955.085 582.4H956.045V578.992H956.093C956.465 579.76 957.053 580.144 957.905 580.144C959.453 580.144 960.425 578.884 960.425 576.904C960.425 574.924 959.453 573.664 957.905 573.664C957.053 573.664 956.417 574.036 956.093 574.816H956.045V573.808H955.085V582.4ZM957.641 579.28C956.765 579.28 956.045 578.824 956.045 578.02V575.716C956.045 575.032 956.765 574.528 957.641 574.528C958.721 574.528 959.393 575.272 959.393 576.376V577.432C959.393 578.536 958.721 579.28 957.641 579.28ZM966.721 575.176V576.052H967.705C968.881 576.052 969.505 576.616 969.505 577.6V577.696C969.505 578.68 968.881 579.244 967.705 579.244C966.685 579.244 966.193 578.8 965.761 578.14L965.005 578.716C965.521 579.436 966.265 580.144 967.717 580.144C969.421 580.144 970.561 579.148 970.561 577.708C970.561 576.448 969.697 575.776 968.797 575.596V575.548C969.685 575.32 970.405 574.672 970.405 573.592C970.405 572.236 969.277 571.48 967.861 571.48C966.517 571.48 965.785 572.176 965.365 572.848L966.109 573.424C966.457 572.788 966.973 572.38 967.837 572.38C968.725 572.38 969.337 572.824 969.337 573.7V573.784C969.337 574.588 968.761 575.176 967.633 575.176H966.721ZM973.649 580.144C974.153 580.144 974.381 579.856 974.381 579.448V579.292C974.381 578.884 974.153 578.596 973.649 578.596C973.145 578.596 972.917 578.884 972.917 579.292V579.448C972.917 579.856 973.145 580.144 973.649 580.144Z" fill="black"/>
<rect x="912.5" y="568.5" width="71" height="15" rx="7.5" stroke="black"/>
<rect x="48.5" y="658.5" width="15" height="15" rx="3.5" fill="white" style="mix-blend-mode:multiply"/>
<rect x="48.5" y="658.5" width="15" height="15" rx="3.5" stroke="#8D8D8D"/>
<path d="M78.636 671V669.964H74.478V661.228H73.302V671H78.636ZM82.957 671.168C84.889 671.168 86.219 669.684 86.219 667.388C86.219 665.092 84.889 663.608 82.957 663.608C81.025 663.608 79.695 665.092 79.695 667.388C79.695 669.684 81.025 671.168 82.957 671.168ZM82.957 670.174C81.753 670.174 80.899 669.432 80.899 667.906V666.87C80.899 665.344 81.753 664.602 82.957 664.602C84.161 664.602 85.015 665.344 85.015 666.87V667.906C85.015 669.432 84.161 670.174 82.957 670.174ZM94.3109 671.798C94.3109 670.608 93.5409 669.88 91.7489 669.88H90.2089C89.5509 669.88 89.1029 669.768 89.1029 669.334C89.1029 668.886 89.5789 668.648 90.0549 668.522C90.2649 668.564 90.5169 668.592 90.7549 668.592C92.4069 668.592 93.4849 667.57 93.4849 666.1C93.4849 665.33 93.1769 664.686 92.6589 664.238V663.776H94.0309V662.796H92.9529C92.3509 662.796 92.1129 663.202 92.1129 663.762V663.888C91.7209 663.706 91.2589 663.608 90.7409 663.608C89.1029 663.608 88.0249 664.63 88.0249 666.1C88.0249 667.108 88.5289 667.906 89.3829 668.312V668.368C88.6549 668.55 88.1369 668.9 88.1369 669.628C88.1369 670.118 88.3749 670.44 88.7809 670.636V670.79C88.0669 670.986 87.6329 671.406 87.6329 672.19C87.6329 673.324 88.5569 673.968 90.8109 673.968C93.1349 673.968 94.3109 673.282 94.3109 671.798ZM93.2609 671.882C93.2609 672.666 92.5329 673.058 91.2869 673.058H90.2509C89.1169 673.058 88.6829 672.54 88.6829 671.91C88.6829 671.462 88.8929 671.14 89.3549 670.93H91.7629C92.8829 670.93 93.2609 671.308 93.2609 671.882ZM90.7549 667.696C89.8029 667.696 89.2009 667.248 89.2009 666.296V665.904C89.2009 664.952 89.8029 664.504 90.7549 664.504C91.7069 664.504 92.3089 664.952 92.3089 665.904V666.296C92.3089 667.248 91.7069 667.696 90.7549 667.696ZM96.3374 662.082C96.8134 662.082 97.0234 661.83 97.0234 661.452V661.27C97.0234 660.892 96.8134 660.64 96.3374 660.64C95.8614 660.64 95.6514 660.892 95.6514 661.27V661.452C95.6514 661.83 95.8614 662.082 96.3374 662.082ZM95.7774 671H96.8974V663.776H95.7774V671ZM102.125 671.168C103.497 671.168 104.435 670.496 104.897 669.46L104.085 668.914C103.693 669.74 103.035 670.174 102.125 670.174C100.795 670.174 100.109 669.264 100.109 668.004V666.772C100.109 665.512 100.795 664.602 102.125 664.602C103.007 664.602 103.623 665.036 103.889 665.778L104.827 665.302C104.407 664.308 103.553 663.608 102.125 663.608C100.095 663.608 98.9054 665.078 98.9054 667.388C98.9054 669.698 100.095 671.168 102.125 671.168ZM112.518 671V670.02H111.692V666.044C111.692 664.518 110.656 663.608 108.92 663.608C107.618 663.608 106.75 664.252 106.358 665.022L107.03 665.652C107.422 664.994 107.996 664.574 108.864 664.574C110.012 664.574 110.572 665.134 110.572 666.156V666.87H109.144C107.044 666.87 106.064 667.626 106.064 668.984C106.064 670.328 106.96 671.168 108.486 671.168C109.494 671.168 110.264 670.706 110.572 669.824H110.642C110.726 670.496 111.062 671 111.888 671H112.518ZM108.668 670.216C107.8 670.216 107.24 669.81 107.24 669.096V668.802C107.24 668.102 107.814 667.71 109.088 667.71H110.572V668.9C110.572 669.642 109.774 670.216 108.668 670.216ZM116.461 671V670.02H115.397V660.64H114.277V669.838C114.277 670.51 114.697 671 115.467 671H116.461ZM122.84 671V665.988C122.84 665.064 123.708 664.616 124.604 664.616C125.682 664.616 126.242 665.274 126.242 666.562V671H127.362V666.366C127.362 664.616 126.424 663.608 124.94 663.608C123.862 663.608 123.246 664.14 122.896 664.952H122.84V663.776H121.72V671H122.84ZM132.567 671.168C134.499 671.168 135.829 669.684 135.829 667.388C135.829 665.092 134.499 663.608 132.567 663.608C130.635 663.608 129.305 665.092 129.305 667.388C129.305 669.684 130.635 671.168 132.567 671.168ZM132.567 670.174C131.363 670.174 130.509 669.432 130.509 667.906V666.87C130.509 665.344 131.363 664.602 132.567 664.602C133.771 664.602 134.625 665.344 134.625 666.87V667.906C134.625 669.432 133.771 670.174 132.567 670.174ZM142.451 671H143.571V660.64H142.451V664.952H142.395C142.017 664.042 141.275 663.608 140.281 663.608C138.475 663.608 137.341 665.078 137.341 667.388C137.341 669.698 138.475 671.168 140.281 671.168C141.275 671.168 141.961 670.72 142.395 669.824H142.451V671ZM140.589 670.16C139.329 670.16 138.545 669.292 138.545 668.004V666.772C138.545 665.484 139.329 664.616 140.589 664.616C141.611 664.616 142.451 665.204 142.451 666.002V668.69C142.451 669.628 141.611 670.16 140.589 670.16ZM148.828 671.168C150.186 671.168 151.222 670.496 151.684 669.516L150.886 668.942C150.508 669.74 149.808 670.188 148.898 670.188C147.554 670.188 146.756 669.25 146.756 668.004V667.668H151.95V667.136C151.95 665.092 150.76 663.608 148.828 663.608C146.868 663.608 145.58 665.092 145.58 667.388C145.58 669.684 146.868 671.168 148.828 671.168ZM148.828 664.546C149.976 664.546 150.746 665.4 150.746 666.674V666.828H146.756V666.73C146.756 665.47 147.61 664.546 148.828 664.546Z" fill="#6F6F6F"/>
<rect x="169.5" y="658.5" width="15" height="15" stroke="#8D8D8D"/>
<path d="M195.478 671V666.828H198.194C199.944 666.828 200.924 665.75 200.924 664.028C200.924 662.306 199.944 661.228 198.194 661.228H194.302V671H195.478ZM195.478 662.264H198.194C199.118 662.264 199.664 662.768 199.664 663.664V664.392C199.664 665.288 199.118 665.792 198.194 665.792H195.478V662.264ZM203.824 671V666.1C203.824 665.414 204.552 664.896 205.756 664.896H206.414V663.776H205.98C204.804 663.776 204.146 664.42 203.894 665.106H203.824V663.776H202.704V671H203.824ZM210.652 671.168C212.01 671.168 213.046 670.496 213.508 669.516L212.71 668.942C212.332 669.74 211.632 670.188 210.722 670.188C209.378 670.188 208.58 669.25 208.58 668.004V667.668H213.774V667.136C213.774 665.092 212.584 663.608 210.652 663.608C208.692 663.608 207.404 665.092 207.404 667.388C207.404 669.684 208.692 671.168 210.652 671.168ZM210.652 664.546C211.8 664.546 212.57 665.4 212.57 666.674V666.828H208.58V666.73C208.58 665.47 209.434 664.546 210.652 664.546ZM217.949 671.168C219.601 671.168 220.623 670.314 220.623 668.914C220.623 667.822 220.007 667.122 218.411 666.884L217.851 666.8C216.955 666.66 216.465 666.38 216.465 665.68C216.465 664.994 216.955 664.56 217.879 664.56C218.803 664.56 219.419 664.994 219.741 665.442L220.483 664.77C219.895 664.042 219.125 663.608 217.963 663.608C216.493 663.608 215.387 664.308 215.387 665.736C215.387 667.08 216.381 667.626 217.711 667.822L218.285 667.906C219.237 668.046 219.545 668.48 219.545 669.04C219.545 669.782 218.985 670.216 218.033 670.216C217.123 670.216 216.451 669.81 215.891 669.11L215.093 669.754C215.737 670.608 216.619 671.168 217.949 671.168ZM225.45 671.168C226.822 671.168 227.76 670.496 228.222 669.46L227.41 668.914C227.018 669.74 226.36 670.174 225.45 670.174C224.12 670.174 223.434 669.264 223.434 668.004V666.772C223.434 665.512 224.12 664.602 225.45 664.602C226.332 664.602 226.948 665.036 227.214 665.778L228.152 665.302C227.732 664.308 226.878 663.608 225.45 663.608C223.42 663.608 222.23 665.078 222.23 667.388C222.23 669.698 223.42 671.168 225.45 671.168ZM231.083 671V666.1C231.083 665.414 231.811 664.896 233.015 664.896H233.673V663.776H233.239C232.063 663.776 231.405 664.42 231.153 665.106H231.083V663.776H229.963V671H231.083ZM235.823 662.082C236.299 662.082 236.509 661.83 236.509 661.452V661.27C236.509 660.892 236.299 660.64 235.823 660.64C235.347 660.64 235.137 660.892 235.137 661.27V661.452C235.137 661.83 235.347 662.082 235.823 662.082ZM235.263 671H236.383V663.776H235.263V671ZM238.923 671H240.043V669.824H240.099C240.533 670.72 241.219 671.168 242.213 671.168C244.019 671.168 245.153 669.698 245.153 667.388C245.153 665.078 244.019 663.608 242.213 663.608C241.219 663.608 240.477 664.042 240.099 664.952H240.043V660.64H238.923V671ZM241.905 670.16C240.883 670.16 240.043 669.628 240.043 668.69V666.002C240.043 665.204 240.883 664.616 241.905 664.616C243.165 664.616 243.949 665.484 243.949 666.772V668.004C243.949 669.292 243.165 670.16 241.905 670.16ZM249.92 671.168C251.278 671.168 252.314 670.496 252.776 669.516L251.978 668.942C251.6 669.74 250.9 670.188 249.99 670.188C248.646 670.188 247.848 669.25 247.848 668.004V667.668H253.042V667.136C253.042 665.092 251.852 663.608 249.92 663.608C247.96 663.608 246.672 665.092 246.672 667.388C246.672 669.684 247.96 671.168 249.92 671.168ZM249.92 664.546C251.068 664.546 251.838 665.4 251.838 666.674V666.828H247.848V666.73C247.848 665.47 248.702 664.546 249.92 664.546ZM259.668 671H260.788V660.64H259.668V664.952H259.612C259.234 664.042 258.492 663.608 257.498 663.608C255.692 663.608 254.558 665.078 254.558 667.388C254.558 669.698 255.692 671.168 257.498 671.168C258.492 671.168 259.178 670.72 259.612 669.824H259.668V671ZM257.806 670.16C256.546 670.16 255.762 669.292 255.762 668.004V666.772C255.762 665.484 256.546 664.616 257.806 664.616C258.828 664.616 259.668 665.204 259.668 666.002V668.69C259.668 669.628 258.828 670.16 257.806 670.16ZM267.918 671V665.988C267.918 665.064 268.786 664.616 269.682 664.616C270.76 664.616 271.32 665.274 271.32 666.562V671H272.44V666.366C272.44 664.616 271.502 663.608 270.018 663.608C268.94 663.608 268.324 664.14 267.974 664.952H267.918V663.776H266.798V671H267.918ZM277.645 671.168C279.577 671.168 280.907 669.684 280.907 667.388C280.907 665.092 279.577 663.608 277.645 663.608C275.713 663.608 274.383 665.092 274.383 667.388C274.383 669.684 275.713 671.168 277.645 671.168ZM277.645 670.174C276.441 670.174 275.587 669.432 275.587 667.906V666.87C275.587 665.344 276.441 664.602 277.645 664.602C278.849 664.602 279.703 665.344 279.703 666.87V667.906C279.703 669.432 278.849 670.174 277.645 670.174ZM287.529 671H288.649V660.64H287.529V664.952H287.473C287.095 664.042 286.353 663.608 285.359 663.608C283.553 663.608 282.419 665.078 282.419 667.388C282.419 669.698 283.553 671.168 285.359 671.168C286.353 671.168 287.039 670.72 287.473 669.824H287.529V671ZM285.667 670.16C284.407 670.16 283.623 669.292 283.623 668.004V666.772C283.623 665.484 284.407 664.616 285.667 664.616C286.689 664.616 287.529 665.204 287.529 666.002V668.69C287.529 669.628 286.689 670.16 285.667 670.16ZM293.906 671.168C295.264 671.168 296.3 670.496 296.762 669.516L295.964 668.942C295.586 669.74 294.886 670.188 293.976 670.188C292.632 670.188 291.834 669.25 291.834 668.004V667.668H297.028V667.136C297.028 665.092 295.838 663.608 293.906 663.608C291.946 663.608 290.658 665.092 290.658 667.388C290.658 669.684 291.946 671.168 293.906 671.168ZM293.906 664.546C295.054 664.546 295.824 665.4 295.824 666.674V666.828H291.834V666.73C291.834 665.47 292.688 664.546 293.906 664.546Z" fill="#6F6F6F"/>
<path d="M317.15 663.846L318.298 665.568L319.082 664.994L317.808 663.37L319.796 662.824L319.488 661.886L317.556 662.6L317.64 660.542H316.66L316.744 662.6L314.812 661.886L314.504 662.824L316.492 663.37L315.218 664.994L316.002 665.568L317.15 663.846ZM324.509 671.168C326.609 671.168 327.869 670.02 327.869 668.228C327.869 666.772 327.043 665.932 325.139 665.498L324.341 665.316C323.109 665.036 322.507 664.616 322.507 663.692C322.507 662.642 323.277 662.096 324.523 662.096C325.657 662.096 326.399 662.558 326.931 663.3L327.813 662.656C327.085 661.62 326.049 661.06 324.579 661.06C322.661 661.06 321.345 661.998 321.345 663.734C321.345 665.232 322.325 666.016 324.103 666.422L324.901 666.604C326.189 666.898 326.707 667.36 326.707 668.284C326.707 669.404 325.951 670.132 324.551 670.132C323.417 670.132 322.605 669.642 321.919 668.732L321.051 669.46C321.835 670.524 322.941 671.168 324.509 671.168ZM332.944 671V670.02H331.473V664.756H333.055V663.776H331.473V661.774H330.465V663.118C330.465 663.608 330.311 663.776 329.835 663.776H329.163V664.756H330.353V669.81C330.353 670.51 330.773 671 331.543 671H332.944ZM340.896 671V670.02H340.07V666.044C340.07 664.518 339.034 663.608 337.298 663.608C335.996 663.608 335.128 664.252 334.736 665.022L335.408 665.652C335.8 664.994 336.374 664.574 337.242 664.574C338.39 664.574 338.95 665.134 338.95 666.156V666.87H337.522C335.422 666.87 334.442 667.626 334.442 668.984C334.442 670.328 335.338 671.168 336.864 671.168C337.872 671.168 338.642 670.706 338.95 669.824H339.02C339.104 670.496 339.44 671 340.266 671H340.896ZM337.046 670.216C336.178 670.216 335.618 669.81 335.618 669.096V668.802C335.618 668.102 336.192 667.71 337.466 667.71H338.95V668.9C338.95 669.642 338.152 670.216 337.046 670.216ZM343.774 671V665.988C343.774 665.064 344.642 664.616 345.538 664.616C346.616 664.616 347.176 665.274 347.176 666.562V671H348.296V666.366C348.296 664.616 347.358 663.608 345.874 663.608C344.796 663.608 344.18 664.14 343.83 664.952H343.774V663.776H342.654V671H343.774ZM355.391 671H356.511V660.64H355.391V664.952H355.335C354.957 664.042 354.215 663.608 353.221 663.608C351.415 663.608 350.281 665.078 350.281 667.388C350.281 669.698 351.415 671.168 353.221 671.168C354.215 671.168 354.901 670.72 355.335 669.824H355.391V671ZM353.529 670.16C352.269 670.16 351.485 669.292 351.485 668.004V666.772C351.485 665.484 352.269 664.616 353.529 664.616C354.551 664.616 355.391 665.204 355.391 666.002V668.69C355.391 669.628 354.551 670.16 353.529 670.16ZM364.932 671V670.02H364.106V666.044C364.106 664.518 363.07 663.608 361.334 663.608C360.032 663.608 359.164 664.252 358.772 665.022L359.444 665.652C359.836 664.994 360.41 664.574 361.278 664.574C362.426 664.574 362.986 665.134 362.986 666.156V666.87H361.558C359.458 666.87 358.478 667.626 358.478 668.984C358.478 670.328 359.374 671.168 360.9 671.168C361.908 671.168 362.678 670.706 362.986 669.824H363.056C363.14 670.496 363.476 671 364.302 671H364.932ZM361.082 670.216C360.214 670.216 359.654 669.81 359.654 669.096V668.802C359.654 668.102 360.228 667.71 361.502 667.71H362.986V668.9C362.986 669.642 362.188 670.216 361.082 670.216ZM367.811 671V666.1C367.811 665.414 368.539 664.896 369.743 664.896H370.401V663.776H369.967C368.791 663.776 368.133 664.42 367.881 665.106H367.811V663.776H366.691V671H367.811ZM376.529 671H377.649V660.64H376.529V664.952H376.473C376.095 664.042 375.353 663.608 374.359 663.608C372.553 663.608 371.419 665.078 371.419 667.388C371.419 669.698 372.553 671.168 374.359 671.168C375.353 671.168 376.039 670.72 376.473 669.824H376.529V671ZM374.667 670.16C373.407 670.16 372.623 669.292 372.623 668.004V666.772C372.623 665.484 373.407 664.616 374.667 664.616C375.689 664.616 376.529 665.204 376.529 666.002V668.69C376.529 669.628 375.689 670.16 374.667 670.16ZM389.539 671V670.02H388.713V666.044C388.713 664.518 387.677 663.608 385.941 663.608C384.639 663.608 383.771 664.252 383.379 665.022L384.051 665.652C384.443 664.994 385.017 664.574 385.885 664.574C387.033 664.574 387.593 665.134 387.593 666.156V666.87H386.165C384.065 666.87 383.085 667.626 383.085 668.984C383.085 670.328 383.981 671.168 385.507 671.168C386.515 671.168 387.285 670.706 387.593 669.824H387.663C387.747 670.496 388.083 671 388.909 671H389.539ZM385.689 670.216C384.821 670.216 384.261 669.81 384.261 669.096V668.802C384.261 668.102 384.835 667.71 386.109 667.71H387.593V668.9C387.593 669.642 386.795 670.216 385.689 670.216ZM393.986 671.168C395.358 671.168 396.296 670.496 396.758 669.46L395.946 668.914C395.554 669.74 394.896 670.174 393.986 670.174C392.656 670.174 391.97 669.264 391.97 668.004V666.772C391.97 665.512 392.656 664.602 393.986 664.602C394.868 664.602 395.484 665.036 395.75 665.778L396.688 665.302C396.268 664.308 395.414 663.608 393.986 663.608C391.956 663.608 390.766 665.078 390.766 667.388C390.766 669.698 391.956 671.168 393.986 671.168ZM401.105 671.168C402.477 671.168 403.415 670.496 403.877 669.46L403.065 668.914C402.673 669.74 402.015 670.174 401.105 670.174C399.775 670.174 399.089 669.264 399.089 668.004V666.772C399.089 665.512 399.775 664.602 401.105 664.602C401.987 664.602 402.603 665.036 402.869 665.778L403.807 665.302C403.387 664.308 402.533 663.608 401.105 663.608C399.075 663.608 397.885 665.078 397.885 667.388C397.885 669.698 399.075 671.168 401.105 671.168ZM408.266 671.168C410.198 671.168 411.528 669.684 411.528 667.388C411.528 665.092 410.198 663.608 408.266 663.608C406.334 663.608 405.004 665.092 405.004 667.388C405.004 669.684 406.334 671.168 408.266 671.168ZM408.266 670.174C407.062 670.174 406.208 669.432 406.208 667.906V666.87C406.208 665.344 407.062 664.602 408.266 664.602C409.47 664.602 410.324 665.344 410.324 666.87V667.906C410.324 669.432 409.47 670.174 408.266 670.174ZM417.982 671H419.102V663.776H417.982V668.774C417.982 669.726 417.114 670.16 416.232 670.16C415.154 670.16 414.58 669.502 414.58 668.214V663.776H413.46V668.41C413.46 670.16 414.412 671.168 415.896 671.168C417.1 671.168 417.646 670.51 417.926 669.824H417.982V671ZM422.767 671V665.988C422.767 665.064 423.635 664.616 424.531 664.616C425.609 664.616 426.169 665.274 426.169 666.562V671H427.289V666.366C427.289 664.616 426.351 663.608 424.867 663.608C423.789 663.608 423.173 664.14 422.823 664.952H422.767V663.776H421.647V671H422.767ZM432.76 671V670.02H431.29V664.756H432.872V663.776H431.29V661.774H430.282V663.118C430.282 663.608 430.128 663.776 429.652 663.776H428.98V664.756H430.17V669.81C430.17 670.51 430.59 671 431.36 671H432.76ZM439.42 671V666.1C439.42 665.414 440.148 664.896 441.352 664.896H442.01V663.776H441.576C440.4 663.776 439.742 664.42 439.49 665.106H439.42V663.776H438.3V671H439.42ZM446.249 671.168C447.607 671.168 448.643 670.496 449.105 669.516L448.307 668.942C447.929 669.74 447.229 670.188 446.319 670.188C444.975 670.188 444.177 669.25 444.177 668.004V667.668H449.371V667.136C449.371 665.092 448.181 663.608 446.249 663.608C444.289 663.608 443.001 665.092 443.001 667.388C443.001 669.684 444.289 671.168 446.249 671.168ZM446.249 664.546C447.397 664.546 448.167 665.4 448.167 666.674V666.828H444.177V666.73C444.177 665.47 445.031 664.546 446.249 664.546ZM455.996 673.8H457.116V663.776H455.996V664.952H455.94C455.562 664.042 454.82 663.608 453.826 663.608C452.02 663.608 450.886 665.078 450.886 667.388C450.886 669.698 452.02 671.168 453.826 671.168C454.82 671.168 455.506 670.72 455.94 669.824H455.996V673.8ZM454.134 670.16C452.874 670.16 452.09 669.292 452.09 668.004V666.772C452.09 665.484 452.874 664.616 454.134 664.616C455.156 664.616 455.996 665.204 455.996 666.002V668.69C455.996 669.628 455.156 670.16 454.134 670.16ZM464.109 671H465.229V663.776H464.109V668.774C464.109 669.726 463.241 670.16 462.359 670.16C461.281 670.16 460.707 669.502 460.707 668.214V663.776H459.587V668.41C459.587 670.16 460.539 671.168 462.023 671.168C463.227 671.168 463.773 670.51 464.053 669.824H464.109V671ZM468.334 662.082C468.81 662.082 469.02 661.83 469.02 661.452V661.27C469.02 660.892 468.81 660.64 468.334 660.64C467.858 660.64 467.648 660.892 467.648 661.27V661.452C467.648 661.83 467.858 662.082 468.334 662.082ZM467.774 671H468.894V663.776H467.774V671ZM472.554 671V666.1C472.554 665.414 473.282 664.896 474.486 664.896H475.144V663.776H474.71C473.534 663.776 472.876 664.42 472.624 665.106H472.554V663.776H471.434V671H472.554ZM479.383 671.168C480.741 671.168 481.777 670.496 482.239 669.516L481.441 668.942C481.063 669.74 480.363 670.188 479.453 670.188C478.109 670.188 477.311 669.25 477.311 668.004V667.668H482.505V667.136C482.505 665.092 481.315 663.608 479.383 663.608C477.423 663.608 476.135 665.092 476.135 667.388C476.135 669.684 477.423 671.168 479.383 671.168ZM479.383 664.546C480.531 664.546 481.301 665.4 481.301 666.674V666.828H477.311V666.73C477.311 665.47 478.165 664.546 479.383 664.546ZM489.13 671H490.25V660.64H489.13V664.952H489.074C488.696 664.042 487.954 663.608 486.96 663.608C485.154 663.608 484.02 665.078 484.02 667.388C484.02 669.698 485.154 671.168 486.96 671.168C487.954 671.168 488.64 670.72 489.074 669.824H489.13V671ZM487.268 670.16C486.008 670.16 485.224 669.292 485.224 668.004V666.772C485.224 665.484 486.008 664.616 487.268 664.616C488.29 664.616 489.13 665.204 489.13 666.002V668.69C489.13 669.628 488.29 670.16 487.268 670.16Z" fill="#6F6F6F"/>
<path d="M313 68L321 72L313 76V68Z" fill="#8F8B8B"/>
<path d="M217.121 72.0312L314.206 72.0317" stroke="#8F8B8B"/>
<rect x="180.5" y="64.5" width="87" height="15" rx="7.5" fill="white"/>
<path d="M190.124 76V72.208H193.76V71.32H190.124V68.512H194.108V67.624H189.116V76H190.124ZM196.769 76V71.8C196.769 71.212 197.393 70.768 198.425 70.768H198.989V69.808H198.617C197.609 69.808 197.045 70.36 196.829 70.948H196.769V69.808H195.809V76H196.769ZM202.816 76.144C204.472 76.144 205.612 74.872 205.612 72.904C205.612 70.936 204.472 69.664 202.816 69.664C201.16 69.664 200.02 70.936 200.02 72.904C200.02 74.872 201.16 76.144 202.816 76.144ZM202.816 75.292C201.784 75.292 201.052 74.656 201.052 73.348V72.46C201.052 71.152 201.784 70.516 202.816 70.516C203.848 70.516 204.58 71.152 204.58 72.46V73.348C204.58 74.656 203.848 75.292 202.816 75.292ZM208.471 76V71.704C208.471 70.912 209.191 70.528 209.947 70.528C210.859 70.528 211.279 71.092 211.279 72.196V76H212.239V71.704C212.239 70.912 212.935 70.528 213.691 70.528C214.627 70.528 215.047 71.104 215.047 72.196V76H216.007V72.028C216.007 70.528 215.251 69.664 213.991 69.664C212.935 69.664 212.335 70.252 212.107 70.924H212.083C211.747 70.036 211.003 69.664 210.187 69.664C209.227 69.664 208.795 70.18 208.519 70.816H208.471V69.808H207.511V76H208.471ZM223.324 76.144C224.74 76.144 225.616 75.412 225.616 74.212C225.616 73.276 225.088 72.676 223.72 72.472L223.24 72.4C222.472 72.28 222.052 72.04 222.052 71.44C222.052 70.852 222.472 70.48 223.264 70.48C224.056 70.48 224.584 70.852 224.86 71.236L225.496 70.66C224.992 70.036 224.332 69.664 223.336 69.664C222.076 69.664 221.128 70.264 221.128 71.488C221.128 72.64 221.98 73.108 223.12 73.276L223.612 73.348C224.428 73.468 224.692 73.84 224.692 74.32C224.692 74.956 224.212 75.328 223.396 75.328C222.616 75.328 222.04 74.98 221.56 74.38L220.876 74.932C221.428 75.664 222.184 76.144 223.324 76.144ZM230.117 76V75.16H228.857V70.648H230.213V69.808H228.857V68.092H227.993V69.244C227.993 69.664 227.861 69.808 227.453 69.808H226.877V70.648H227.897V74.98C227.897 75.58 228.257 76 228.917 76H230.117ZM234.358 76.144C235.522 76.144 236.41 75.568 236.806 74.728L236.122 74.236C235.798 74.92 235.198 75.304 234.418 75.304C233.266 75.304 232.582 74.5 232.582 73.432V73.144H237.034V72.688C237.034 70.936 236.014 69.664 234.358 69.664C232.678 69.664 231.574 70.936 231.574 72.904C231.574 74.872 232.678 76.144 234.358 76.144ZM234.358 70.468C235.342 70.468 236.002 71.2 236.002 72.292V72.424H232.582V72.34C232.582 71.26 233.314 70.468 234.358 70.468ZM238.935 78.4H239.895V74.992H239.943C240.315 75.76 240.903 76.144 241.755 76.144C243.303 76.144 244.275 74.884 244.275 72.904C244.275 70.924 243.303 69.664 241.755 69.664C240.903 69.664 240.267 70.036 239.943 70.816H239.895V69.808H238.935V78.4ZM241.491 75.28C240.615 75.28 239.895 74.824 239.895 74.02V71.716C239.895 71.032 240.615 70.528 241.491 70.528C242.571 70.528 243.243 71.272 243.243 72.376V73.432C243.243 74.536 242.571 75.28 241.491 75.28ZM254.916 76V75.112H252.756V67.624H251.184L248.964 69.7L249.552 70.336L251.664 68.368H251.748V75.112H249.408V76H254.916ZM257.5 76.144C258.004 76.144 258.232 75.856 258.232 75.448V75.292C258.232 74.884 258.004 74.596 257.5 74.596C256.996 74.596 256.768 74.884 256.768 75.292V75.448C256.768 75.856 256.996 76.144 257.5 76.144Z" fill="black"/>
<rect x="180.5" y="64.5" width="87" height="15" rx="7.5" stroke="#393939"/>
<defs>
<clipPath id="clip0_700_40588">
<rect width="353" height="48" fill="white" transform="translate(321 48)"/>
</clipPath>
<clipPath id="clip1_700_40588">
<rect width="160" height="48" fill="white" transform="translate(128 552)"/>
</clipPath>
<clipPath id="clip2_700_40588">
<rect width="160" height="48" fill="white" transform="translate(128 200)"/>
</clipPath>
<clipPath id="clip3_700_40588">
<rect width="160" height="48" fill="white" transform="translate(673 416)"/>
</clipPath>
<clipPath id="clip4_700_40588">
<rect width="160" height="48" fill="white" transform="translate(673 480)"/>
</clipPath>
</defs>
</svg>
