<svg width="1080" height="190" viewBox="0 0 1080 190" fill="none" xmlns="http://www.w3.org/2000/svg">
<rect width="1080" height="190" fill="#C4C4C4"/>
<rect width="1080" height="190" fill="#F4F4F4"/>
<rect x="400" y="48" width="48" height="48" rx="8" fill="black"/>
<rect width="20" height="20" transform="translate(414 62)" fill="white" style="mix-blend-mode:multiply"/>
<path d="M424 67C423.382 67 422.778 67.1833 422.264 67.5267C421.75 67.87 421.349 68.3581 421.113 68.9291C420.876 69.5001 420.814 70.1285 420.935 70.7347C421.056 71.3408 421.353 71.8977 421.79 72.3347C422.227 72.7717 422.784 73.0694 423.39 73.19C423.997 73.3105 424.625 73.2486 425.196 73.0121C425.767 72.7756 426.255 72.3751 426.598 71.8612C426.942 71.3473 427.125 70.7431 427.125 70.125C427.125 69.2962 426.796 68.5013 426.21 67.9153C425.624 67.3292 424.829 67 424 67ZM424 72C423.629 72 423.267 71.89 422.958 71.684C422.65 71.478 422.41 71.1851 422.268 70.8425C422.126 70.4999 422.089 70.1229 422.161 69.7592C422.233 69.3955 422.412 69.0614 422.674 68.7992C422.936 68.537 423.27 68.3584 423.634 68.286C423.998 68.2137 424.375 68.2508 424.718 68.3927C425.06 68.5346 425.353 68.775 425.559 69.0833C425.765 69.3916 425.875 69.7542 425.875 70.125C425.874 70.6221 425.677 71.0987 425.325 71.4502C424.974 71.8017 424.497 71.9994 424 72Z" fill="white"/>
<path d="M424 63.25C422.269 63.25 420.578 63.7632 419.139 64.7246C417.7 65.6861 416.578 67.0527 415.916 68.6515C415.254 70.2504 415.081 72.0097 415.418 73.707C415.756 75.4044 416.589 76.9635 417.813 78.1872C419.037 79.4109 420.596 80.2442 422.293 80.5819C423.99 80.9195 425.75 80.7462 427.348 80.0839C428.947 79.4217 430.314 78.3002 431.275 76.8612C432.237 75.4223 432.75 73.7306 432.75 72C432.747 69.6802 431.825 67.4561 430.184 65.8157C428.544 64.1753 426.32 63.2526 424 63.25ZM420.25 78.4853V77.625C420.251 77.1279 420.448 76.6513 420.8 76.2998C421.151 75.9483 421.628 75.7505 422.125 75.75H425.875C426.372 75.7505 426.849 75.9483 427.2 76.2998C427.552 76.6513 427.749 77.1279 427.75 77.625V78.4853C426.612 79.1498 425.318 79.5 424 79.5C422.682 79.5 421.388 79.1498 420.25 78.4853ZM428.995 77.5786C428.983 76.7588 428.649 75.9766 428.065 75.4008C427.482 74.8249 426.695 74.5014 425.875 74.5H422.125C421.305 74.5014 420.519 74.8249 419.935 75.4008C419.351 75.9766 419.017 76.7588 419.005 77.5786C417.871 76.5666 417.072 75.2342 416.713 73.7578C416.353 72.2814 416.451 70.7307 416.993 69.311C417.534 67.8914 418.494 66.6697 419.746 65.8077C420.997 64.9458 422.481 64.4843 424 64.4843C425.519 64.4843 427.003 64.9458 428.254 65.8077C429.506 66.6697 430.466 67.8914 431.007 69.311C431.549 70.7307 431.647 72.2814 431.287 73.7578C430.928 75.2342 430.129 76.5666 428.995 77.5786Z" fill="white"/>
<text fill="black" xml:space="preserve" style="white-space: pre" font-family="IBM Plex Sans" font-size="14" font-weight="600" letter-spacing="0.16px"><tspan x="417.638" y="118.25">1.</tspan></text>
<text fill="black" xml:space="preserve" style="white-space: pre" font-family="IBM Plex Sans" font-size="14" letter-spacing="0.16px"><tspan x="402.076" y="136.25">Pricing</tspan></text>
<rect x="511.5" y="48" width="48" height="48" rx="8" fill="black"/>
<rect width="20" height="20" transform="translate(525.5 62)" fill="white" style="mix-blend-mode:multiply"/>
<path d="M544.25 78.25H536.75V79.5H544.25V78.25Z" fill="white"/>
<path d="M544.25 75.125H536.75V76.375H544.25V75.125Z" fill="white"/>
<path d="M544.25 72H536.75V73.25H544.25V72Z" fill="white"/>
<path d="M534.25 77.625H531.438C530.266 77.6256 529.137 77.1875 528.273 76.397C527.409 75.6065 526.872 74.521 526.768 73.3544C526.665 72.1878 527.002 71.0247 527.713 70.0942C528.424 69.1637 529.458 68.5334 530.611 68.3275C530.904 66.7999 531.755 65.4362 532.999 64.5028C534.243 63.5694 535.791 63.1334 537.339 63.2799C538.887 63.4265 540.325 64.1451 541.372 65.2953C542.419 66.4455 543 67.9447 543 69.5H541.75C541.75 68.2211 541.26 66.9907 540.381 66.062C539.502 65.1332 538.3 64.5768 537.023 64.5072C535.746 64.4375 534.491 64.8599 533.516 65.6875C532.541 66.5151 531.92 67.6849 531.781 68.9562L531.725 69.4772L531.202 69.5125C530.312 69.5723 529.481 69.9756 528.883 70.6372C528.286 71.2988 527.969 72.1668 527.999 73.0578C528.03 73.9487 528.406 74.7929 529.047 75.412C529.689 76.031 530.546 76.3763 531.438 76.375H534.25V77.625Z" fill="white"/>
<text fill="black" xml:space="preserve" style="white-space: pre" font-family="IBM Plex Sans" font-size="14" font-weight="600" letter-spacing="0.16px"><tspan x="529.138" y="118.25">2.</tspan></text>
<text fill="black" xml:space="preserve" style="white-space: pre" font-family="IBM Plex Sans" font-size="14" letter-spacing="0.16px"><tspan x="490.43" y="136.25">Infrastructure</tspan></text>
<rect x="623.5" y="48" width="48" height="48" rx="8" fill="black"/>
<rect width="20" height="20" transform="translate(637.5 62)" fill="white" style="mix-blend-mode:multiply"/>
<path d="M650.812 65.0625L648 63.375C647.812 63.3125 647.688 63.25 647.5 63.25C647.312 63.25 647.188 63.3125 647.062 63.375L644.25 65.0625C643.938 65.25 643.75 65.5625 643.75 65.875V69.375C643.75 69.6875 643.938 70 644.188 70.1875L647 71.875C647.125 71.9375 647.312 72 647.438 72C647.562 72 647.75 71.9375 647.875 71.875L650.688 70.1875C650.938 70 651.125 69.75 651.125 69.375V65.875C651.25 65.5625 651.062 65.25 650.812 65.0625ZM650 69.1875L647.5 70.6875L645 69.1875V66.0625L647.5 64.5625L650 66.0625V69.1875Z" fill="white"/>
<path d="M655.812 73.8125L653 72.125C652.812 72.0625 652.688 72 652.5 72C652.312 72 652.188 72.0625 652.062 72.125L649.25 73.8125C649 74 648.812 74.25 648.812 74.625V78.125C648.812 78.4375 649 78.75 649.25 78.9375L652.062 80.625C652.188 80.6875 652.375 80.75 652.5 80.75C652.625 80.75 652.812 80.6875 652.938 80.625L655.75 78.9375C656 78.75 656.188 78.5 656.188 78.125V74.625C656.25 74.3125 656.062 74 655.812 73.8125ZM655 77.9375L652.5 79.4375L650 77.9375V74.8125L652.5 73.3125L655 74.8125V77.9375Z" fill="white"/>
<path d="M645.812 73.8125L643 72.125C642.812 72.0625 642.688 72 642.5 72C642.312 72 642.188 72.0625 642.062 72.125L639.25 73.8125C638.937 74 638.75 74.3125 638.75 74.625V78.125C638.75 78.4375 638.938 78.75 639.188 78.9375L642 80.625C642.188 80.6875 642.312 80.75 642.5 80.75C642.688 80.75 642.812 80.6875 642.938 80.625L645.75 78.9375C646 78.75 646.188 78.5 646.188 78.125V74.625C646.25 74.3125 646.062 74 645.812 73.8125ZM645 77.9375L642.5 79.4375L640 77.9375V74.8125L642.5 73.3125L645 74.8125V77.9375Z" fill="white"/>
<text fill="black" xml:space="preserve" style="white-space: pre" font-family="IBM Plex Sans" font-size="14" font-weight="600" letter-spacing="0.16px"><tspan x="641.138" y="118.25">3.</tspan></text>
<text fill="black" xml:space="preserve" style="white-space: pre" font-family="IBM Plex Sans" font-size="14" letter-spacing="0.16px"><tspan x="632.884" y="136.25">High&#10;</tspan><tspan x="613.001" y="154.25">availability</tspan></text>
<path d="M512 72L507 69.1132V74.8868L512 72ZM448 72.5L480 72.5V71.5L448 71.5V72.5ZM480 72.5H507.5V71.5H480V72.5Z" fill="#565151"/>
<path d="M624 72L619 69.1132V74.8868L624 72ZM560 72.5L592 72.5V71.5L560 71.5V72.5ZM592 72.5H619.5V71.5H592V72.5Z" fill="#565151"/>
</svg>
