<?xml version="1.0" encoding="utf-8"?>
<!-- Generator: Adobe Illustrator 22.0.0, SVG Export Plug-In . SVG Version: 6.00 Build 0)  -->
<svg version="1.1" id="Layer_1" xmlns="http://www.w3.org/2000/svg" xmlns:xlink="http://www.w3.org/1999/xlink" x="0px" y="0px"
	 viewBox="0 0 31 31.3" style="enable-background:new 0 0 31 31.3;" xml:space="preserve">
<style type="text/css">
	.st0{fill:none;stroke:#000000;stroke-width:0.72;stroke-linejoin:round;stroke-miterlimit:10;}
</style>
<g id="connect">
	<path id="connect_1_" class="st0" d="M7.5,7.6h-7v-7h7V7.6z M30.5,12.1h-7v7h7V12.1z M19,23.6h-7v7h7V23.6z M13.5,0.6v7l6-3.5
		L13.5,0.6z M15.5,12.1c-1.9,0-3.5,1.6-3.5,3.5s1.6,3.5,3.5,3.5s3.5-1.6,3.5-3.5S17.4,12.1,15.5,12.1z M27,0.6
		c-1.9,0-3.5,1.6-3.5,3.5s1.6,3.5,3.5,3.5s3.5-1.6,3.5-3.5S28.9,0.6,27,0.6z M4,23.6c-1.9,0-3.5,1.6-3.5,3.5s1.6,3.5,3.5,3.5
		s3.5-1.6,3.5-3.5S5.9,23.6,4,23.6z M27,7.6v4.5 M19,15.6h4.5 M15.5,19.1v4.5 M7.5,4.1h6 M6.5,24.6l6.6-6.6 M19,28.1h4
		c2.2,0,4-1.8,4-4v-5 M4,7.6v4c0,2.2,1.8,4,4,4h4"/>
</g>
<g id="Layer_1_1_">
</g>
</svg>
