<?xml version="1.0" encoding="UTF-8"?><svg xmlns="http://www.w3.org/2000/svg" viewBox="0 0 1779.67 1000.85"><defs><style>.cls-1{fill:#f2f5f7;fill-rule:evenodd;stroke:#5b6872;stroke-miterlimit:8;stroke-width:1.5px;}.cls-2{font-family:IBMPlexSerif, 'IBM Plex Serif';font-size:26px;}.cls-3{fill:none;}.cls-3,.cls-4{stroke:#00b39f;stroke-dasharray:8;stroke-width:2px;}.cls-3,.cls-4,.cls-5,.cls-6,.cls-7{stroke-miterlimit:10;}.cls-4,.cls-8,.cls-9,.cls-6,.cls-7{fill:#fff;}.cls-10{letter-spacing:0em;}.cls-11{letter-spacing:0em;}.cls-5{fill:#2d3f49;stroke:#2d3f49;}.cls-12{letter-spacing:0em;}.cls-9,.cls-13,.cls-14{font-family:IBMPlexSans, 'IBM Plex Sans';}.cls-9,.cls-14{font-size:24.07px;}.cls-15{letter-spacing:-.02em;}.cls-16{letter-spacing:-.02em;}.cls-17{letter-spacing:-.02em;}.cls-18{letter-spacing:-.02em;}.cls-19{letter-spacing:-.01em;}.cls-20{letter-spacing:-.02em;}.cls-21{letter-spacing:-.01em;}.cls-13{font-size:21.66px;}.cls-22{letter-spacing:0em;}.cls-23{letter-spacing:0em;}.cls-24{letter-spacing:0em;}.cls-25{letter-spacing:0em;}.cls-26{letter-spacing:0em;}.cls-27{letter-spacing:0em;}.cls-28{letter-spacing:0em;}.cls-6{stroke:#6182bb;}.cls-29{letter-spacing:0em;}.cls-30{letter-spacing:0em;}.cls-31{letter-spacing:0em;}.cls-32{letter-spacing:0em;}.cls-33{fill:#4278bd;}.cls-7{stroke:#5aaafa;}</style></defs><g id="Layer_1"><polygon class="cls-1" points=".75 930.18 1723.36 930.18 1723.36 907.16 1778.5 953.2 1723.36 999.25 1723.36 976.22 .75 976.22 .75 930.18"/></g><g id="Text"><text class="cls-2" transform="translate(761.64 961.66)"><tspan class="cls-29" x="0" y="0">A</tspan><tspan x="17.58" y="0">pp high </tspan><tspan class="cls-21" x="116.3" y="0">av</tspan><tspan x="143.7" y="0">ail</tspan><tspan class="cls-29" x="173.88" y="0">a</tspan><tspan x="187.82" y="0">bility</tspan></text><rect class="cls-5" x="23.09" y="161.95" width="332.86" height="713.88" rx="12" ry="12"/><rect class="cls-8" x="39.7" y="210.34" width="299.65" height="644.75" rx="12" ry="12"/><rect class="cls-3" x="54.09" y="257.06" width="270.86" height="577.33" rx="12" ry="12"/><rect class="cls-6" x="74.32" y="359.49" width="230.41" height="455.14" rx="12" ry="12"/><rect class="cls-33" x="90.07" y="415.36" width="198.9" height="381.49" rx="12" ry="12"/><text class="cls-14" transform="translate(124.01 394.4)"><tspan class="cls-19" x="0" y="0">W</tspan><tspan x="21.09" y="0">or</tspan><tspan class="cls-20" x="43.4" y="0">k</tspan><tspan x="55.68" y="0">er </tspan><tspan class="cls-17" x="83.41" y="0">P</tspan><tspan x="97.51" y="0">ool</tspan></text><text class="cls-14" transform="translate(162.42 240.84)"><tspan class="cls-22" x="0" y="0">Z</tspan><tspan x="13.84" y="0">one</tspan></text><text class="cls-9" transform="translate(152.45 194.12)"><tspan class="cls-19" x="0" y="0">R</tspan><tspan x="15.05" y="0">egion</tspan></text><text class="cls-9" transform="translate(118.98 457.84)"><tspan class="cls-19" x="0" y="0">W</tspan><tspan x="21.09" y="0">or</tspan><tspan class="cls-20" x="43.4" y="0">k</tspan><tspan x="55.68" y="0">er Node</tspan></text><rect class="cls-8" x="106.26" y="497.45" width="166.52" height="62.52" rx="12" ry="12"/><text class="cls-14" transform="translate(134.17 533.68)"><tspan x="0" y="0">App </tspan><tspan class="cls-16" x="49.03" y="0">P</tspan><tspan x="63.14" y="0">od 1</tspan></text><text class="cls-14" transform="translate(88.21 291.5)"><tspan x="0" y="0">Single </tspan><tspan class="cls-24" x="71.83" y="0">Z</tspan><tspan class="cls-10" x="85.67" y="0">one Clu</tspan><tspan class="cls-31" x="166.89" y="0">s</tspan><tspan class="cls-28" x="178.44" y="0">t</tspan><tspan class="cls-12" x="186.8" y="0">er</tspan></text><rect class="cls-8" x="106.26" y="600.35" width="166.52" height="62.52" rx="12" ry="12"/><text class="cls-14" transform="translate(134.17 636.58)"><tspan x="0" y="0">App </tspan><tspan class="cls-16" x="49.03" y="0">P</tspan><tspan x="63.14" y="0">od 2</tspan></text><rect class="cls-8" x="106.26" y="703.25" width="166.52" height="62.52" rx="12" ry="12"/><text class="cls-14" transform="translate(134.17 739.49)"><tspan x="0" y="0">App </tspan><tspan class="cls-16" x="49.03" y="0">P</tspan><tspan x="63.14" y="0">od 3</tspan></text><ellipse class="cls-7" cx="23.67" cy="161.95" rx="19.85" ry="20.5"/><text class="cls-13" transform="translate(16.67 170.35)"><tspan x="0" y="0">1</tspan></text><rect class="cls-5" x="414.31" y="21" width="332.86" height="854.83" rx="12" ry="12"/><rect class="cls-8" x="430.92" y="78.49" width="299.65" height="776.6" rx="12" ry="12"/><rect class="cls-3" x="445.31" y="133.93" width="270.86" height="700.46" rx="12" ry="12"/><rect class="cls-6" x="465.54" y="261.87" width="230.41" height="552.76" rx="12" ry="12"/><text class="cls-14" transform="translate(515.23 291.81)"><tspan class="cls-18" x="0" y="0">W</tspan><tspan x="21.09" y="0">or</tspan><tspan class="cls-20" x="43.4" y="0">k</tspan><tspan x="55.68" y="0">er </tspan><tspan class="cls-15" x="83.41" y="0">P</tspan><tspan x="97.51" y="0">ool</tspan></text><text class="cls-14" transform="translate(553.64 113.14)"><tspan class="cls-22" x="0" y="0">Z</tspan><tspan x="13.84" y="0">one</tspan></text><text class="cls-9" transform="translate(543.67 58.9)"><tspan class="cls-18" x="0" y="0">R</tspan><tspan x="15.04" y="0">egion</tspan></text><rect class="cls-33" x="482.09" y="311.85" width="198.9" height="144.56" rx="12" ry="12"/><text class="cls-9" transform="translate(500.94 354.33)"><tspan class="cls-18" x="0" y="0">W</tspan><tspan x="21.09" y="0">or</tspan><tspan class="cls-20" x="43.4" y="0">k</tspan><tspan x="55.68" y="0">er Node 1</tspan></text><rect class="cls-8" x="498.28" y="369.86" width="166.52" height="62.52" rx="12" ry="12"/><text class="cls-14" transform="translate(526.19 406.1)"><tspan x="0" y="0">App </tspan><tspan class="cls-17" x="49.03" y="0">P</tspan><tspan x="63.14" y="0">od 1</tspan></text><text class="cls-14" transform="translate(479.43 162.72)"><tspan x="0" y="0">Single </tspan><tspan class="cls-22" x="71.83" y="0">Z</tspan><tspan x="85.67" y="0">one Clu</tspan><tspan class="cls-32" x="166.89" y="0">s</tspan><tspan class="cls-27" x="178.44" y="0">t</tspan><tspan class="cls-11" x="186.8" y="0">er</tspan></text><ellipse class="cls-7" cx="408.9" cy="21" rx="19.85" ry="20.5"/><text class="cls-13" transform="translate(401.91 29.4)"><tspan x="0" y="0">2</tspan></text><rect class="cls-33" x="482.09" y="483.37" width="198.9" height="144.56" rx="12" ry="12"/><text class="cls-9" transform="translate(500.94 525.84)"><tspan class="cls-18" x="0" y="0">W</tspan><tspan x="21.09" y="0">or</tspan><tspan class="cls-20" x="43.4" y="0">k</tspan><tspan x="55.68" y="0">er Node 2</tspan></text><rect class="cls-8" x="498.28" y="541.38" width="166.52" height="62.52" rx="12" ry="12"/><text class="cls-14" transform="translate(526.19 577.62)"><tspan x="0" y="0">App </tspan><tspan class="cls-17" x="49.03" y="0">P</tspan><tspan x="63.14" y="0">od 2</tspan></text><rect class="cls-33" x="482.09" y="654.88" width="198.9" height="144.56" rx="12" ry="12"/><text class="cls-9" transform="translate(500.94 697.36)"><tspan class="cls-18" x="0" y="0">W</tspan><tspan x="21.09" y="0">or</tspan><tspan class="cls-20" x="43.4" y="0">k</tspan><tspan x="55.68" y="0">er Node 3</tspan></text><rect class="cls-8" x="498.28" y="712.89" width="166.52" height="62.52" rx="12" ry="12"/><text class="cls-14" transform="translate(526.19 749.13)"><tspan x="0" y="0">App </tspan><tspan class="cls-17" x="49.03" y="0">P</tspan><tspan x="63.14" y="0">od 3</tspan></text><rect class="cls-5" x="799.55" y="21" width="955.89" height="854.83" rx="12" ry="12"/><rect class="cls-8" x="1124.43" y="78.49" width="299.65" height="776.6" rx="12" ry="12"/><rect class="cls-8" x="816.15" y="78.49" width="299.65" height="776.6" rx="12" ry="12"/><rect class="cls-8" x="1434.93" y="78.49" width="299.65" height="776.6" rx="12" ry="12"/><rect class="cls-4" x="830.55" y="133.93" width="877.59" height="700.46" rx="12" ry="12"/><rect class="cls-6" x="850.77" y="261.87" width="829.51" height="552.76" rx="12" ry="12"/><text class="cls-14" transform="translate(1209.18 290.86)"><tspan class="cls-18" x="0" y="0">W</tspan><tspan x="21.09" y="0">or</tspan><tspan class="cls-20" x="43.4" y="0">k</tspan><tspan x="55.68" y="0">er </tspan><tspan class="cls-15" x="83.41" y="0">P</tspan><tspan x="97.51" y="0">ool</tspan></text><text class="cls-14" transform="translate(928.81 113.14)"><tspan class="cls-22" x="0" y="0">Z</tspan><tspan x="13.84" y="0">one 1</tspan></text><text class="cls-9" transform="translate(1237.62 58.9)"><tspan class="cls-18" x="0" y="0">R</tspan><tspan x="15.04" y="0">egion</tspan></text><text class="cls-14" transform="translate(1179.81 162.72)"><tspan x="0" y="0">Mu</tspan><tspan class="cls-22" x="33.22" y="0">l</tspan><tspan x="39.65" y="0">ti</tspan><tspan class="cls-30" x="54.11" y="0">z</tspan><tspan x="65.04" y="0">one Clu</tspan><tspan class="cls-32" x="146.26" y="0">s</tspan><tspan class="cls-26" x="157.82" y="0">t</tspan><tspan x="166.17" y="0">er</tspan></text><text class="cls-13" transform="translate(1207.4 192)"><tspan x="0" y="0">+ depl</tspan><tspan class="cls-25" x="61.03" y="0">o</tspan><tspan x="73.05" y="0">yment</tspan></text><ellipse class="cls-7" cx="794.14" cy="21" rx="19.85" ry="20.5"/><rect class="cls-33" x="867.33" y="314.31" width="198.9" height="144.56" rx="12" ry="12"/><text class="cls-9" transform="translate(886.18 356.79)"><tspan class="cls-18" x="0" y="0">W</tspan><tspan x="21.09" y="0">or</tspan><tspan class="cls-20" x="43.4" y="0">k</tspan><tspan x="55.68" y="0">er Node 1</tspan></text><rect class="cls-8" x="883.52" y="372.32" width="166.52" height="62.52" rx="12" ry="12"/><text class="cls-14" transform="translate(911.43 408.56)"><tspan x="0" y="0">App </tspan><tspan class="cls-17" x="49.03" y="0">P</tspan><tspan x="63.14" y="0">od 1</tspan></text><rect class="cls-33" x="867.33" y="485.82" width="198.9" height="144.56" rx="12" ry="12"/><text class="cls-9" transform="translate(886.18 528.3)"><tspan class="cls-18" x="0" y="0">W</tspan><tspan x="21.09" y="0">or</tspan><tspan class="cls-20" x="43.4" y="0">k</tspan><tspan x="55.68" y="0">er Node 2</tspan></text><rect class="cls-8" x="883.52" y="543.84" width="166.52" height="62.52" rx="12" ry="12"/><text class="cls-14" transform="translate(911.43 580.07)"><tspan x="0" y="0">App </tspan><tspan class="cls-17" x="49.03" y="0">P</tspan><tspan x="63.14" y="0">od 2</tspan></text><rect class="cls-33" x="867.33" y="657.34" width="198.9" height="144.56" rx="12" ry="12"/><text class="cls-9" transform="translate(886.18 699.81)"><tspan class="cls-18" x="0" y="0">W</tspan><tspan x="21.09" y="0">or</tspan><tspan class="cls-20" x="43.4" y="0">k</tspan><tspan x="55.68" y="0">er Node 3</tspan></text><rect class="cls-8" x="883.52" y="715.35" width="166.52" height="62.52" rx="12" ry="12"/><text class="cls-14" transform="translate(911.43 751.59)"><tspan x="0" y="0">App </tspan><tspan class="cls-17" x="49.03" y="0">P</tspan><tspan x="63.14" y="0">od 3</tspan></text><text class="cls-14" transform="translate(1227.78 113.14)"><tspan class="cls-22" x="0" y="0">Z</tspan><tspan x="13.84" y="0">one 2</tspan></text><rect class="cls-33" x="1165.3" y="314.31" width="198.9" height="144.56" rx="12" ry="12"/><text class="cls-9" transform="translate(1184.15 356.79)"><tspan class="cls-18" x="0" y="0">W</tspan><tspan x="21.09" y="0">or</tspan><tspan class="cls-20" x="43.4" y="0">k</tspan><tspan x="55.68" y="0">er Node 1</tspan></text><rect class="cls-8" x="1181.49" y="372.32" width="166.52" height="62.52" rx="12" ry="12"/><text class="cls-14" transform="translate(1209.4 408.56)"><tspan x="0" y="0">App </tspan><tspan class="cls-17" x="49.03" y="0">P</tspan><tspan x="63.14" y="0">od 1</tspan></text><rect class="cls-33" x="1165.3" y="485.82" width="198.9" height="144.56" rx="12" ry="12"/><text class="cls-9" transform="translate(1184.15 528.3)"><tspan class="cls-18" x="0" y="0">W</tspan><tspan x="21.09" y="0">or</tspan><tspan class="cls-20" x="43.4" y="0">k</tspan><tspan x="55.68" y="0">er Node 2</tspan></text><rect class="cls-8" x="1181.49" y="543.84" width="166.52" height="62.52" rx="12" ry="12"/><text class="cls-14" transform="translate(1209.4 580.07)"><tspan x="0" y="0">App </tspan><tspan class="cls-17" x="49.03" y="0">P</tspan><tspan x="63.14" y="0">od 2</tspan></text><rect class="cls-33" x="1165.3" y="657.34" width="198.9" height="144.56" rx="12" ry="12"/><text class="cls-9" transform="translate(1184.15 699.81)"><tspan class="cls-18" x="0" y="0">W</tspan><tspan x="21.09" y="0">or</tspan><tspan class="cls-20" x="43.4" y="0">k</tspan><tspan x="55.68" y="0">er Node 3</tspan></text><rect class="cls-8" x="1181.49" y="715.35" width="166.52" height="62.52" rx="12" ry="12"/><text class="cls-14" transform="translate(1209.4 751.59)"><tspan x="0" y="0">App </tspan><tspan class="cls-17" x="49.03" y="0">P</tspan><tspan x="63.14" y="0">od 3</tspan></text><text class="cls-14" transform="translate(1544.65 116)"><tspan class="cls-22" x="0" y="0">Z</tspan><tspan x="13.84" y="0">one 3</tspan></text><rect class="cls-33" x="1463.28" y="314.31" width="198.9" height="144.56" rx="12" ry="12"/><text class="cls-9" transform="translate(1482.13 356.79)"><tspan class="cls-18" x="0" y="0">W</tspan><tspan x="21.09" y="0">or</tspan><tspan class="cls-20" x="43.4" y="0">k</tspan><tspan x="55.68" y="0">er Node 1</tspan></text><rect class="cls-8" x="1479.47" y="372.32" width="166.52" height="62.52" rx="12" ry="12"/><text class="cls-14" transform="translate(1507.38 408.56)"><tspan x="0" y="0">App </tspan><tspan class="cls-17" x="49.03" y="0">P</tspan><tspan x="63.14" y="0">od 1</tspan></text><rect class="cls-33" x="1463.28" y="485.82" width="198.9" height="144.56" rx="12" ry="12"/><text class="cls-9" transform="translate(1482.13 528.3)"><tspan class="cls-18" x="0" y="0">W</tspan><tspan x="21.09" y="0">or</tspan><tspan class="cls-20" x="43.4" y="0">k</tspan><tspan x="55.68" y="0">er Node 2</tspan></text><rect class="cls-8" x="1479.47" y="543.84" width="166.52" height="62.52" rx="12" ry="12"/><text class="cls-14" transform="translate(1507.38 580.07)"><tspan x="0" y="0">App </tspan><tspan class="cls-17" x="49.03" y="0">P</tspan><tspan x="63.14" y="0">od 2</tspan></text><rect class="cls-33" x="1463.28" y="657.34" width="198.9" height="144.56" rx="12" ry="12"/><text class="cls-9" transform="translate(1482.13 699.81)"><tspan class="cls-18" x="0" y="0">W</tspan><tspan x="21.09" y="0">or</tspan><tspan class="cls-20" x="43.4" y="0">k</tspan><tspan x="55.68" y="0">er Node 3</tspan></text><rect class="cls-8" x="1479.47" y="715.35" width="166.52" height="62.52" rx="12" ry="12"/><text class="cls-14" transform="translate(1507.38 751.59)"><tspan x="0" y="0">App </tspan><tspan class="cls-17" x="49.03" y="0">P</tspan><tspan x="63.14" y="0">od 3</tspan></text><text class="cls-13" transform="translate(788.5 28.6)"><tspan x="0" y="0">3</tspan></text><text class="cls-13" transform="translate(1215.02 218.13)"><tspan x="0" y="0">+ </tspan><tspan class="cls-23" x="18.11" y="0">r</tspan><tspan x="25.95" y="0">eplica set</tspan></text><text class="cls-13" transform="translate(1208.92 244.01)"><tspan x="0" y="0">+ anti-affinity</tspan></text><text class="cls-13" transform="translate(513.45 192)"><tspan x="0" y="0">+ depl</tspan><tspan class="cls-25" x="61.03" y="0">o</tspan><tspan x="73.05" y="0">yment</tspan></text><text class="cls-13" transform="translate(521.07 218.13)"><tspan x="0" y="0">+ </tspan><tspan class="cls-23" x="18.11" y="0">r</tspan><tspan x="25.95" y="0">eplica set</tspan></text><text class="cls-13" transform="translate(515.41 244.01)"><tspan x="0" y="0">+ anti-affinity</tspan></text><text class="cls-13" transform="translate(122.23 320.79)"><tspan x="0" y="0">+ depl</tspan><tspan class="cls-25" x="61.03" y="0">o</tspan><tspan x="73.05" y="0">yment</tspan></text><text class="cls-13" transform="translate(129.85 344.98)"><tspan x="0" y="0">+ </tspan><tspan class="cls-23" x="18.11" y="0">r</tspan><tspan x="25.95" y="0">eplica set</tspan></text></g></svg>