<?xml version="1.0" encoding="utf-8"?>
<!-- Generator: Adobe Illustrator 25.0.0, SVG Export Plug-In . SVG Version: 6.00 Build 0)  -->
<svg version="1.1" xmlns="http://www.w3.org/2000/svg" xmlns:xlink="http://www.w3.org/1999/xlink" x="0px" y="0px"
	 viewBox="0 0 2603.03 3981.51" style="enable-background:new 0 0 2603.03 3981.51;" xml:space="preserve">
<style type="text/css">
	.st0{fill:none;stroke:#5B6872;stroke-width:4.5;stroke-miterlimit:10;}
	.st1{fill:none;stroke:#4278BD;stroke-width:4.5;stroke-miterlimit:10;}
	.st2{fill:none;stroke:#00B39F;stroke-width:4.5;stroke-miterlimit:10;}
	.st3{fill:none;stroke:#734199;stroke-width:4.5;stroke-miterlimit:10;}
	.st4{fill:none;}
	.st5{font-family:'IBMPlexSans-SemiBold';}
	.st6{font-size:31px;}
	.st7{font-family:'IBMPlexSans';}
	.st8{font-size:22px;}
	.st9{font-size:20px;}
	.st10{font-size:21px;}
</style>
<g id="Layer_1">
	<path class="st0" d="M270.2,2252.3h-133c-6.6,0-12-5.4-12-12v-2101c0-6.6,5.4-12,12-12h133c6.6,0,12,5.4,12,12v2101
		C282.2,2246.9,276.8,2252.3,270.2,2252.3z"/>
	<path class="st1" d="M450.2,546.47h-133c-6.6,0-12-5.4-12-12V510.8c0-6.6,5.4-12,12-12h133c6.6,0,12,5.4,12,12v23.67
		C462.2,541.07,456.8,546.47,450.2,546.47z"/>
	<path class="st1" d="M450.2,742.47h-133c-6.6,0-12-5.4-12-12V706.8c0-6.6,5.4-12,12-12h133c6.6,0,12,5.4,12,12v23.67
		C462.2,737.07,456.8,742.47,450.2,742.47z"/>
	<path class="st1" d="M450.2,678.3h-133c-6.6,0-12-5.4-12-12v-91c0-6.6,5.4-12,12-12h133c6.6,0,12,5.4,12,12v91
		C462.2,672.9,456.8,678.3,450.2,678.3z"/>
	<path class="st1" d="M450.2,1844.47h-133c-6.6,0-12-5.4-12-12v-23.67c0-6.6,5.4-12,12-12h133c6.6,0,12,5.4,12,12v23.67
		C462.2,1839.07,456.8,1844.47,450.2,1844.47z"/>
	<path class="st1" d="M450.2,2045.3h-133c-6.6,0-12-5.4-12-12v-155.5c0-6.6,5.4-12,12-12h133c6.6,0,12,5.4,12,12v155.5
		C462.2,2039.9,456.8,2045.3,450.2,2045.3z"/>
	<path class="st2" d="M630.2,1915.47h-133c-6.6,0-12-5.4-12-12v-23.67c0-6.6,5.4-12,12-12h133c6.6,0,12,5.4,12,12v23.67
		C642.2,1910.07,636.8,1915.47,630.2,1915.47z"/>
	<path class="st2" d="M630.2,1981.47h-133c-6.6,0-12-5.4-12-12v-23.67c0-6.6,5.4-12,12-12h133c6.6,0,12,5.4,12,12v23.67
		C642.2,1976.07,636.8,1981.47,630.2,1981.47z"/>
	<path class="st2" d="M630.2,2045.47h-133c-6.6,0-12-5.4-12-12v-23.67c0-6.6,5.4-12,12-12h133c6.6,0,12,5.4,12,12v23.67
		C642.2,2040.07,636.8,2045.47,630.2,2045.47z"/>
	<path class="st1" d="M452.2,2245.3h-133c-6.6,0-12-5.4-12-12v-155.5c0-6.6,5.4-12,12-12h133c6.6,0,12,5.4,12,12v155.5
		C464.2,2239.9,458.8,2245.3,452.2,2245.3z"/>
	<path class="st2" d="M632.2,2115.47h-133c-6.6,0-12-5.4-12-12v-23.67c0-6.6,5.4-12,12-12h133c6.6,0,12,5.4,12,12v23.67
		C644.2,2110.07,638.8,2115.47,632.2,2115.47z"/>
	<path class="st2" d="M632.2,2181.47h-133c-6.6,0-12-5.4-12-12v-23.67c0-6.6,5.4-12,12-12h133c6.6,0,12,5.4,12,12v23.67
		C644.2,2176.07,638.8,2181.47,632.2,2181.47z"/>
	<path class="st0" d="M267.2,2790.3h-133c-6.6,0-12-5.4-12-12v-486.2c0-6.6,5.4-12,12-12h133c6.6,0,12,5.4,12,12v486.2
		C279.2,2784.9,273.8,2790.3,267.2,2790.3z"/>
	<path class="st1" d="M446.2,2328.47h-133c-6.6,0-12-5.4-12-12v-23.67c0-6.6,5.4-12,12-12h133c6.6,0,12,5.4,12,12v23.67
		C458.2,2323.07,452.8,2328.47,446.2,2328.47z"/>
	<path class="st1" d="M446.2,2525.47h-133c-6.6,0-12-5.4-12-12v-23.67c0-6.6,5.4-12,12-12h133c6.6,0,12,5.4,12,12v23.67
		C458.2,2520.07,452.8,2525.47,446.2,2525.47z"/>
	<path class="st1" d="M446.2,2592.47h-133c-6.6,0-12-5.4-12-12v-23.67c0-6.6,5.4-12,12-12h133c6.6,0,12,5.4,12,12v23.67
		C458.2,2587.07,452.8,2592.47,446.2,2592.47z"/>
	<path class="st1" d="M446.2,2724.47h-133c-6.6,0-12-5.4-12-12v-23.67c0-6.6,5.4-12,12-12h133c6.6,0,12,5.4,12,12v23.67
		C458.2,2719.07,452.8,2724.47,446.2,2724.47z"/>
	<path class="st1" d="M446.2,2392.47h-133c-6.6,0-12-5.4-12-12v-23.67c0-6.6,5.4-12,12-12h133c6.6,0,12,5.4,12,12v23.67
		C458.2,2387.07,452.8,2392.47,446.2,2392.47z"/>
	<path class="st1" d="M446.2,2457.47h-133c-6.6,0-12-5.4-12-12v-23.67c0-6.6,5.4-12,12-12h133c6.6,0,12,5.4,12,12v23.67
		C458.2,2452.07,452.8,2457.47,446.2,2457.47z"/>
	<path class="st1" d="M446.2,2790.47h-133c-6.6,0-12-5.4-12-12v-23.67c0-6.6,5.4-12,12-12h133c6.6,0,12,5.4,12,12v23.67
		C458.2,2785.07,452.8,2790.47,446.2,2790.47z"/>
	<path class="st0" d="M266.2,3505.3h-133c-6.6,0-12-5.4-12-12v-671c0-6.6,5.4-12,12-12h133c6.6,0,12,5.4,12,12v671
		C278.2,3499.9,272.8,3505.3,266.2,3505.3z"/>
	<path class="st1" d="M445.2,2986.3h-133c-6.6,0-12-5.4-12-12v-152c0-6.6,5.4-12,12-12h133c6.6,0,12,5.4,12,12v152
		C457.2,2980.9,451.8,2986.3,445.2,2986.3z"/>
	<path class="st1" d="M445.2,3306.47h-133c-6.6,0-12-5.4-12-12v-23.67c0-6.6,5.4-12,12-12h133c6.6,0,12,5.4,12,12v23.67
		C457.2,3301.07,451.8,3306.47,445.2,3306.47z"/>
	<path class="st1" d="M445.2,3373.47h-133c-6.6,0-12-5.4-12-12v-23.67c0-6.6,5.4-12,12-12h133c6.6,0,12,5.4,12,12v23.67
		C457.2,3368.07,451.8,3373.47,445.2,3373.47z"/>
	<path class="st1" d="M445.2,3439.47h-133c-6.6,0-12-5.4-12-12v-23.67c0-6.6,5.4-12,12-12h133c6.6,0,12,5.4,12,12v23.67
		C457.2,3434.07,451.8,3439.47,445.2,3439.47z"/>
	<path class="st1" d="M445.2,3047.47h-133c-6.6,0-12-5.4-12-12v-23.67c0-6.6,5.4-12,12-12h133c6.6,0,12,5.4,12,12v23.67
		C457.2,3042.07,451.8,3047.47,445.2,3047.47z"/>
	<path class="st1" d="M445.2,3240.47h-133c-6.6,0-12-5.4-12-12v-23.67c0-6.6,5.4-12,12-12h133c6.6,0,12,5.4,12,12v23.67
		C457.2,3235.07,451.8,3240.47,445.2,3240.47z"/>
	<path class="st0" d="M266.2,3909.3h-133c-6.6,0-12-5.4-12-12v-351c0-6.6,5.4-12,12-12h133c6.6,0,12,5.4,12,12v351
		C278.2,3903.9,272.8,3909.3,266.2,3909.3z"/>
	<path class="st1" d="M445.2,3909.47h-133c-6.6,0-12-5.4-12-12v-23.67c0-6.6,5.4-12,12-12h133c6.6,0,12,5.4,12,12v23.67
		C457.2,3904.07,451.8,3909.47,445.2,3909.47z"/>
	<path class="st1" d="M445.2,3776.47h-133c-6.6,0-12-5.4-12-12v-23.67c0-6.6,5.4-12,12-12h133c6.6,0,12,5.4,12,12v23.67
		C457.2,3771.07,451.8,3776.47,445.2,3776.47z"/>
	<path class="st1" d="M445.2,3842.47h-133c-6.6,0-12-5.4-12-12v-23.67c0-6.6,5.4-12,12-12h133c6.6,0,12,5.4,12,12v23.67
		C457.2,3837.07,451.8,3842.47,445.2,3842.47z"/>
	<path class="st2" d="M628.2,613.3h-133c-6.6,0-12-5.4-12-12v-25.5c0-6.6,5.4-12,12-12h133c6.6,0,12,5.4,12,12v25.5
		C640.2,607.9,634.8,613.3,628.2,613.3z"/>
	<path class="st1" d="M451.2,1708.3h-133c-6.6,0-12-5.4-12-12v-857.2c0-6.6,5.4-12,12-12h133c6.6,0,12,5.4,12,12v857.2
		C463.2,1702.9,457.8,1708.3,451.2,1708.3z"/>
	<path class="st2" d="M630.2,1016.3h-133c-6.6,0-12-5.4-12-12V840.8c0-6.6,5.4-12,12-12h133c6.6,0,12,5.4,12,12v163.5
		C642.2,1010.9,636.8,1016.3,630.2,1016.3z"/>
	<path class="st2" d="M630.2,1642.47h-133c-6.6,0-12-5.4-12-12v-23.67c0-6.6,5.4-12,12-12h133c6.6,0,12,5.4,12,12v23.67
		C642.2,1637.07,636.8,1642.47,630.2,1642.47z"/>
	<path class="st2" d="M630.2,1706.47h-133c-6.6,0-12-5.4-12-12v-23.67c0-6.6,5.4-12,12-12h133c6.6,0,12,5.4,12,12v23.67
		C642.2,1701.07,636.8,1706.47,630.2,1706.47z"/>
	<path class="st3" d="M920.52,878.47H681.2c-6.6,0-12-5.4-12-12V842.8c0-6.6,5.4-12,12-12h239.32c6.6,0,12,5.4,12,12v23.67
		C932.52,873.07,927.12,878.47,920.52,878.47z"/>
	<path class="st3" d="M920.52,948.47H681.2c-6.6,0-12-5.4-12-12V912.8c0-6.6,5.4-12,12-12h239.32c6.6,0,12,5.4,12,12v23.67
		C932.52,943.07,927.12,948.47,920.52,948.47z"/>
	<path class="st3" d="M922.2,1016.47H682.88c-6.6,0-12-5.4-12-12V980.8c0-6.6,5.4-12,12-12H922.2c6.6,0,12,5.4,12,12v23.67
		C934.2,1011.07,928.8,1016.47,922.2,1016.47z"/>
	<path class="st2" d="M624.2,2858.3h-133c-6.6,0-12-5.4-12-12v-25.5c0-6.6,5.4-12,12-12h133c6.6,0,12,5.4,12,12v25.5
		C636.2,2852.9,630.8,2858.3,624.2,2858.3z"/>
	<path class="st2" d="M624.2,2921.3h-133c-6.6,0-12-5.4-12-12v-25.5c0-6.6,5.4-12,12-12h133c6.6,0,12,5.4,12,12v25.5
		C636.2,2915.9,630.8,2921.3,624.2,2921.3z"/>
	<path class="st1" d="M445.2,3711.3h-133c-6.6,0-12-5.4-12-12v-153c0-6.6,5.4-12,12-12h133c6.6,0,12,5.4,12,12v153
		C457.2,3705.9,451.8,3711.3,445.2,3711.3z"/>
	<path class="st2" d="M624.2,3583.3h-133c-6.6,0-12-5.4-12-12v-25.5c0-6.6,5.4-12,12-12h133c6.6,0,12,5.4,12,12v25.5
		C636.2,3577.9,630.8,3583.3,624.2,3583.3z"/>
	<path class="st2" d="M624.2,3647.3h-133c-6.6,0-12-5.4-12-12v-25.5c0-6.6,5.4-12,12-12h133c6.6,0,12,5.4,12,12v25.5
		C636.2,3641.9,630.8,3647.3,624.2,3647.3z"/>
	<path class="st1" d="M451.2,1780.47h-133c-6.6,0-12-5.4-12-12v-23.67c0-6.6,5.4-12,12-12h133c6.6,0,12,5.4,12,12v23.67
		C463.2,1775.07,457.8,1780.47,451.2,1780.47z"/>
	<path class="st2" d="M631.2,1780.47h-133c-6.6,0-12-5.4-12-12v-23.67c0-6.6,5.4-12,12-12h133c6.6,0,12,5.4,12,12v23.67
		C643.2,1775.07,637.8,1780.47,631.2,1780.47z"/>
	<path class="st1" d="M446.2,2657.47h-133c-6.6,0-12-5.4-12-12v-23.67c0-6.6,5.4-12,12-12h133c6.6,0,12,5.4,12,12v23.67
		C458.2,2652.07,452.8,2657.47,446.2,2657.47z"/>
	<path class="st1" d="M445.2,3505.47h-133c-6.6,0-12-5.4-12-12v-23.67c0-6.6,5.4-12,12-12h133c6.6,0,12,5.4,12,12v23.67
		C457.2,3500.07,451.8,3505.47,445.2,3505.47z"/>
	<path class="st0" d="M2132.2,2007.47h-133c-6.6,0-12-5.4-12-12v-23.67c0-6.6,5.4-12,12-12h133c6.6,0,12,5.4,12,12v23.67
		C2144.2,2002.07,2138.8,2007.47,2132.2,2007.47z"/>
	<path class="st1" d="M2311.2,2008.47h-133c-6.6,0-12-5.4-12-12v-23.67c0-6.6,5.4-12,12-12h133c6.6,0,12,5.4,12,12v23.67
		C2323.2,2003.07,2317.8,2008.47,2311.2,2008.47z"/>
	<path class="st2" d="M632.2,2247.47h-133c-6.6,0-12-5.4-12-12v-23.67c0-6.6,5.4-12,12-12h133c6.6,0,12,5.4,12,12v23.67
		C644.2,2242.07,638.8,2247.47,632.2,2247.47z"/>
	<path class="st0" d="M2146.7,722.3h-146.5c-6.6,0-12-5.4-12-12V556.8c0-6.6,5.4-12,12-12h146.5c6.6,0,12,5.4,12,12v153.5
		C2158.7,716.9,2153.3,722.3,2146.7,722.3z"/>
	<path class="st3" d="M921.7,1503.3H685.2c-6.6,0-12-5.4-12-12v-25.5c0-6.6,5.4-12,12-12h236.5c6.6,0,12,5.4,12,12v25.5
		C933.7,1497.9,928.3,1503.3,921.7,1503.3z"/>
	<path class="st2" d="M630.7,1567.3H497.86c-6.6,0-12-5.4-12-12v-91.5c0-6.6,5.4-12,12-12H630.7c6.6,0,12,5.4,12,12v91.5
		C642.7,1561.9,637.3,1567.3,630.7,1567.3z"/>
	<path class="st2" d="M630.7,1429.3H497.86c-6.6,0-12-5.4-12-12v-369.5c0-6.6,5.4-12,12-12H630.7c6.6,0,12,5.4,12,12v369.5
		C642.7,1423.9,637.3,1429.3,630.7,1429.3z"/>
	<path class="st1" d="M449.2,473.3h-133c-6.6,0-12-5.4-12-12v-322c0-6.6,5.4-12,12-12h133c6.6,0,12,5.4,12,12v322
		C461.2,467.9,455.8,473.3,449.2,473.3z"/>
	<path class="st2" d="M630.7,186.3h-133c-6.6,0-12-5.4-12-12v-26c0-6.6,5.4-12,12-12h133c6.6,0,12,5.4,12,12v26
		C642.7,180.9,637.3,186.3,630.7,186.3z"/>
	<path class="st2" d="M630.7,257.47h-133c-6.6,0-12-5.4-12-12v-26c0-6.6,5.4-12,12-12h133c6.6,0,12,5.4,12,12v26
		C642.7,252.07,637.3,257.47,630.7,257.47z"/>
	<path class="st2" d="M629.2,328.13h-133c-6.6,0-12-5.4-12-12v-25.5c0-6.6,5.4-12,12-12h133c6.6,0,12,5.4,12,12v25.5
		C641.2,322.73,635.8,328.13,629.2,328.13z"/>
	<path class="st1" d="M450.2,808.47h-133c-6.6,0-12-5.4-12-12V772.8c0-6.6,5.4-12,12-12h133c6.6,0,12,5.4,12,12v23.67
		C462.2,803.07,456.8,808.47,450.2,808.47z"/>
	<path class="st0" d="M2146.76,517.47h-148.7c-6.6,0-12-5.4-12-12V481.8c0-6.6,5.4-12,12-12h148.7c6.6,0,12,5.4,12,12v23.67
		C2158.76,512.07,2153.36,517.47,2146.76,517.47z"/>
	<path class="st1" d="M2330.2,517.47h-133c-6.6,0-12-5.4-12-12V481.8c0-6.6,5.4-12,12-12h133c6.6,0,12,5.4,12,12v23.67
		C2342.2,512.07,2336.8,517.47,2330.2,517.47z"/>
	<path class="st0" d="M2146.76,1069.47h-148.7c-6.6,0-12-5.4-12-12v-23.67c0-6.6,5.4-12,12-12h148.7c6.6,0,12,5.4,12,12v23.67
		C2158.76,1064.07,2153.36,1069.47,2146.76,1069.47z"/>
	<path class="st0" d="M2131.2,1395.47h-133c-6.6,0-12-5.4-12-12v-23.67c0-6.6,5.4-12,12-12h133c6.6,0,12,5.4,12,12v23.67
		C2143.2,1390.07,2137.8,1395.47,2131.2,1395.47z"/>
	<path class="st0" d="M2131.7,1467.47h-133.5c-6.6,0-12-5.4-12-12v-23.67c0-6.6,5.4-12,12-12h133.5c6.6,0,12,5.4,12,12v23.67
		C2143.7,1462.07,2138.3,1467.47,2131.7,1467.47z"/>
	<path class="st0" d="M2131.2,1539.47h-133c-6.6,0-12-5.4-12-12v-23.67c0-6.6,5.4-12,12-12h133c6.6,0,12,5.4,12,12v23.67
		C2143.2,1534.07,2137.8,1539.47,2131.2,1539.47z"/>
	<path class="st0" d="M2146.76,234.3h-148.7c-6.6,0-12-5.4-12-12v-93.5c0-6.6,5.4-12,12-12h148.7c6.6,0,12,5.4,12,12v93.5
		C2158.76,228.9,2153.36,234.3,2146.76,234.3z"/>
	<path class="st0" d="M2146.76,444.3h-148.7c-6.6,0-12-5.4-12-12V273.79c0-6.6,5.4-12,12-12h148.7c6.6,0,12,5.4,12,12V432.3
		C2158.76,438.9,2153.36,444.3,2146.76,444.3z"/>
	<path class="st1" d="M2330.2,313.47h-133c-6.6,0-12-5.4-12-12V277.8c0-6.6,5.4-12,12-12h133c6.6,0,12,5.4,12,12v23.67
		C2342.2,308.07,2336.8,313.47,2330.2,313.47z"/>
	<path class="st1" d="M2330.2,378.47h-133c-6.6,0-12-5.4-12-12V342.8c0-6.6,5.4-12,12-12h133c6.6,0,12,5.4,12,12v23.67
		C2342.2,373.07,2336.8,378.47,2330.2,378.47z"/>
	<path class="st1" d="M2330.2,444.47h-133c-6.6,0-12-5.4-12-12V408.8c0-6.6,5.4-12,12-12h133c6.6,0,12,5.4,12,12v23.67
		C2342.2,439.07,2336.8,444.47,2330.2,444.47z"/>
	<path class="st0" d="M2143.5,1251.47h-145.3c-6.6,0-12-5.4-12-12v-23.67c0-6.6,5.4-12,12-12h145.3c6.6,0,12,5.4,12,12v23.67
		C2155.5,1246.07,2150.1,1251.47,2143.5,1251.47z"/>
	<path class="st0" d="M2131.2,1324.47h-133c-6.6,0-12-5.4-12-12v-23.67c0-6.6,5.4-12,12-12h133c6.6,0,12,5.4,12,12v23.67
		C2143.2,1319.07,2137.8,1324.47,2131.2,1324.47z"/>
	<path class="st0" d="M2132.2,1739.47h-133c-6.6,0-12-5.4-12-12v-23.67c0-6.6,5.4-12,12-12h133c6.6,0,12,5.4,12,12v23.67
		C2144.2,1734.07,2138.8,1739.47,2132.2,1739.47z"/>
	<path class="st0" d="M2132.2,1809.47h-133c-6.6,0-12-5.4-12-12v-23.67c0-6.6,5.4-12,12-12h133c6.6,0,12,5.4,12,12v23.67
		C2144.2,1804.07,2138.8,1809.47,2132.2,1809.47z"/>
	<path class="st1" d="M2330.2,166.47h-133c-6.6,0-12-5.4-12-12V130.8c0-6.6,5.4-12,12-12h133c6.6,0,12,5.4,12,12v23.67
		C2342.2,161.07,2336.8,166.47,2330.2,166.47z"/>
	<path class="st1" d="M2330.2,232.47h-133c-6.6,0-12-5.4-12-12V196.8c0-6.6,5.4-12,12-12h133c6.6,0,12,5.4,12,12v23.67
		C2342.2,227.07,2336.8,232.47,2330.2,232.47z"/>
	<path class="st0" d="M2146.76,997.3h-148.7c-6.6,0-12-5.4-12-12v-98c0-6.6,5.4-12,12-12h148.7c6.6,0,12,5.4,12,12v98
		C2158.76,991.9,2153.36,997.3,2146.76,997.3z"/>
	<path class="st1" d="M2329.2,931.47h-133c-6.6,0-12-5.4-12-12V895.8c0-6.6,5.4-12,12-12h133c6.6,0,12,5.4,12,12v23.67
		C2341.2,926.07,2335.8,931.47,2329.2,931.47z"/>
	<path class="st1" d="M2329.2,997.47h-133c-6.6,0-12-5.4-12-12V961.8c0-6.6,5.4-12,12-12h133c6.6,0,12,5.4,12,12v23.67
		C2341.2,992.07,2335.8,997.47,2329.2,997.47z"/>
	<path class="st0" d="M2146.76,852.47h-148.7c-6.6,0-12-5.4-12-12V816.8c0-6.6,5.4-12,12-12h148.7c6.6,0,12,5.4,12,12v23.67
		C2158.76,847.07,2153.36,852.47,2146.76,852.47z"/>
	<path class="st2" d="M2505.2,997.47h-133c-6.6,0-12-5.4-12-12V961.8c0-6.6,5.4-12,12-12h133c6.6,0,12,5.4,12,12v23.67
		C2517.2,992.07,2511.8,997.47,2505.2,997.47z"/>
	<path class="st1" d="M2330.2,592.47h-133c-6.6,0-12-5.4-12-12V556.8c0-6.6,5.4-12,12-12h133c6.6,0,12,5.4,12,12v23.67
		C2342.2,587.07,2336.8,592.47,2330.2,592.47z"/>
	<path class="st1" d="M2330.2,659.47h-133c-6.6,0-12-5.4-12-12V623.8c0-6.6,5.4-12,12-12h133c6.6,0,12,5.4,12,12v23.67
		C2342.2,654.07,2336.8,659.47,2330.2,659.47z"/>
	<path class="st1" d="M2330.2,723.47h-133c-6.6,0-12-5.4-12-12V687.8c0-6.6,5.4-12,12-12h133c6.6,0,12,5.4,12,12v23.67
		C2342.2,718.07,2336.8,723.47,2330.2,723.47z"/>
	<path class="st2" d="M2507.2,593.9h-133c-6.6,0-12-5.4-12-12v-23.67c0-6.6,5.4-12,12-12h133c6.6,0,12,5.4,12,12v23.67
		C2519.2,588.5,2513.8,593.9,2507.2,593.9z"/>
	<path class="st2" d="M2507.2,723.9h-133c-6.6,0-12-5.4-12-12v-23.67c0-6.6,5.4-12,12-12h133c6.6,0,12,5.4,12,12v23.67
		C2519.2,718.5,2513.8,723.9,2507.2,723.9z"/>
	<path class="st2" d="M628.19,679.63h-133c-6.6,0-12-5.4-12-12v-25.5c0-6.6,5.4-12,12-12h133c6.6,0,12,5.4,12,12v25.5
		C640.19,674.23,634.79,679.63,628.19,679.63z"/>
	<path class="st0" d="M2147.87,786.48h-148.7c-6.6,0-12-5.4-12-12v-23.67c0-6.6,5.4-12,12-12h148.7c6.6,0,12,5.4,12,12v23.67
		C2159.87,781.08,2154.47,786.48,2147.87,786.48z"/>
	<path class="st1" d="M2331.31,786.48h-133c-6.6,0-12-5.4-12-12v-23.67c0-6.6,5.4-12,12-12h133c6.6,0,12,5.4,12,12v23.67
		C2343.31,781.08,2337.91,786.48,2331.31,786.48z"/>
	<path class="st1" d="M445.42,3177.3h-133c-6.6,0-12-5.4-12-12v-89.19c0-6.6,5.4-12,12-12h133c6.6,0,12,5.4,12,12v89.19
		C457.42,3171.9,452.02,3177.3,445.42,3177.3z"/>
	<path class="st2" d="M624.43,3114.55h-133c-6.6,0-12-5.4-12-12v-25.5c0-6.6,5.4-12,12-12h133c6.6,0,12,5.4,12,12v25.5
		C636.43,3109.15,631.03,3114.55,624.43,3114.55z"/>
	<path class="st2" d="M624.42,3177.65h-133c-6.6,0-12-5.4-12-12v-25.5c0-6.6,5.4-12,12-12h133c6.6,0,12,5.4,12,12v25.5
		C636.42,3172.25,631.02,3177.65,624.42,3177.65z"/>
	<path class="st2" d="M624.42,2986.63h-133c-6.6,0-12-5.4-12-12v-25.5c0-6.6,5.4-12,12-12h133c6.6,0,12,5.4,12,12v25.5
		C636.42,2981.23,631.02,2986.63,624.42,2986.63z"/>
	<path class="st2" d="M624.61,3711.14h-133c-6.6,0-12-5.4-12-12v-25.5c0-6.6,5.4-12,12-12h133c6.6,0,12,5.4,12,12v25.5
		C636.61,3705.74,631.21,3711.14,624.61,3711.14z"/>
	<path class="st1" d="M1425.68,2673.14h-133c-6.6,0-12-5.4-12-12v-23.67c0-6.6,5.4-12,12-12h133c6.6,0,12,5.4,12,12v23.67
		C1437.68,2667.74,1432.28,2673.14,1425.68,2673.14z"/>
	<path class="st1" d="M1426.68,2808.3h-133c-6.6,0-12-5.4-12-12v-91.26c0-6.6,5.4-12,12-12h133c6.6,0,12,5.4,12,12v91.26
		C1438.68,2802.9,1433.28,2808.3,1426.68,2808.3z"/>
	<path class="st2" d="M1604.68,2744.53h-133c-6.6,0-12-5.4-12-12v-25.5c0-6.6,5.4-12,12-12h133c6.6,0,12,5.4,12,12v25.5
		C1616.68,2739.13,1611.28,2744.53,1604.68,2744.53z"/>
	<path class="st0" d="M1272.98,3603.14h-163.3c-6.6,0-12-5.4-12-12v-23.67c0-6.6,5.4-12,12-12h163.3c6.6,0,12,5.4,12,12v23.67
		C1284.98,3597.74,1279.58,3603.14,1272.98,3603.14z"/>
	<path class="st0" d="M1247.68,3534.3h-133c-6.6,0-12-5.4-12-12v-886.53c0-6.6,5.4-12,12-12h133c6.6,0,12,5.4,12,12v886.53
		C1259.68,3528.9,1254.28,3534.3,1247.68,3534.3z"/>
	<path class="st1" d="M1426.68,3200.3h-133c-6.6,0-12-5.4-12-12v-287.83c0-6.6,5.4-12,12-12h133c6.6,0,12,5.4,12,12v287.83
		C1438.68,3194.9,1433.28,3200.3,1426.68,3200.3z"/>
	<path class="st2" d="M1603.68,2938.14h-133c-6.6,0-12-5.4-12-12v-23.67c0-6.6,5.4-12,12-12h133c6.6,0,12,5.4,12,12v23.67
		C1615.68,2932.74,1610.28,2938.14,1603.68,2938.14z"/>
	<path class="st2" d="M1603.68,3004.14h-133c-6.6,0-12-5.4-12-12v-23.67c0-6.6,5.4-12,12-12h133c6.6,0,12,5.4,12,12v23.67
		C1615.68,2998.74,1610.28,3004.14,1603.68,3004.14z"/>
	<path class="st2" d="M1603.68,3071.14h-133c-6.6,0-12-5.4-12-12v-23.67c0-6.6,5.4-12,12-12h133c6.6,0,12,5.4,12,12v23.67
		C1615.68,3065.74,1610.28,3071.14,1603.68,3071.14z"/>
	<path class="st1" d="M1426.68,2873.14h-133c-6.6,0-12-5.4-12-12v-23.67c0-6.6,5.4-12,12-12h133c6.6,0,12,5.4,12,12v23.67
		C1438.68,2867.74,1433.28,2873.14,1426.68,2873.14z"/>
	<path class="st2" d="M1603.68,3135.14h-133c-6.6,0-12-5.4-12-12v-23.67c0-6.6,5.4-12,12-12h133c6.6,0,12,5.4,12,12v23.67
		C1615.68,3129.74,1610.28,3135.14,1603.68,3135.14z"/>
	<path class="st2" d="M1603.68,3200.14h-133c-6.6,0-12-5.4-12-12v-23.67c0-6.6,5.4-12,12-12h133c6.6,0,12,5.4,12,12v23.67
		C1615.68,3194.74,1610.28,3200.14,1603.68,3200.14z"/>
	<path class="st1" d="M1428.01,3534.73h-133c-6.6,0-12-5.4-12-12v-92.5c0-6.6,5.4-12,12-12h133c6.6,0,12,5.4,12,12v92.5
		C1440.01,3529.33,1434.61,3534.73,1428.01,3534.73z"/>
	<path class="st2" d="M1606.01,3469.73h-133c-6.6,0-12-5.4-12-12v-25.5c0-6.6,5.4-12,12-12h133c6.6,0,12,5.4,12,12v25.5
		C1618.01,3464.33,1612.61,3469.73,1606.01,3469.73z"/>
	<path class="st2" d="M1606.01,3533.73h-133c-6.6,0-12-5.4-12-12v-25.5c0-6.6,5.4-12,12-12h133c6.6,0,12,5.4,12,12v25.5
		C1618.01,3528.33,1612.61,3533.73,1606.01,3533.73z"/>
	<path class="st1" d="M1426.01,3265.55h-133c-6.6,0-12-5.4-12-12v-23.67c0-6.6,5.4-12,12-12h133c6.6,0,12,5.4,12,12v23.67
		C1438.01,3260.15,1432.61,3265.55,1426.01,3265.55z"/>
	<path class="st1" d="M1428.01,3402.3h-133c-6.6,0-12-5.4-12-12v-91.85c0-6.6,5.4-12,12-12h133c6.6,0,12,5.4,12,12v91.85
		C1440.01,3396.9,1434.61,3402.3,1428.01,3402.3z"/>
	<path class="st2" d="M1606.01,3337.95h-133c-6.6,0-12-5.4-12-12v-25.5c0-6.6,5.4-12,12-12h133c6.6,0,12,5.4,12,12v25.5
		C1618.01,3332.55,1612.61,3337.95,1606.01,3337.95z"/>
	<path class="st2" d="M1605.16,2807.87h-133c-6.6,0-12-5.4-12-12v-25.5c0-6.6,5.4-12,12-12h133c6.6,0,12,5.4,12,12v25.5
		C1617.16,2802.47,1611.76,2807.87,1605.16,2807.87z"/>
	<path class="st2" d="M1603.16,3402.48h-133c-6.6,0-12-5.4-12-12v-25.5c0-6.6,5.4-12,12-12h133c6.6,0,12,5.4,12,12v25.5
		C1615.16,3397.08,1609.76,3402.48,1603.16,3402.48z"/>
	<path class="st0" d="M1246.68,2595.97h-133c-6.6,0-12-5.4-12-12v-868.2c0-6.6,5.4-12,12-12h133c6.6,0,12,5.4,12,12v868.2
		C1258.68,2590.57,1253.28,2595.97,1246.68,2595.97z"/>
	<path class="st1" d="M1425.68,1884.97h-133c-6.6,0-12-5.4-12-12v-155.5c0-6.6,5.4-12,12-12h133c6.6,0,12,5.4,12,12v155.5
		C1437.68,1879.57,1432.28,1884.97,1425.68,1884.97z"/>
	<path class="st1" d="M1425.68,2275.97h-133c-6.6,0-12-5.4-12-12v-220.5c0-6.6,5.4-12,12-12h133c6.6,0,12,5.4,12,12v220.5
		C1437.68,2270.57,1432.28,2275.97,1425.68,2275.97z"/>
	<path class="st2" d="M1602.68,1755.14h-133c-6.6,0-12-5.4-12-12v-23.67c0-6.6,5.4-12,12-12h133c6.6,0,12,5.4,12,12v23.67
		C1614.68,1749.74,1609.28,1755.14,1602.68,1755.14z"/>
	<path class="st2" d="M1602.68,1821.14h-133c-6.6,0-12-5.4-12-12v-23.67c0-6.6,5.4-12,12-12h133c6.6,0,12,5.4,12,12v23.67
		C1614.68,1815.74,1609.28,1821.14,1602.68,1821.14z"/>
	<path class="st2" d="M1602.68,1885.14h-133c-6.6,0-12-5.4-12-12v-23.67c0-6.6,5.4-12,12-12h133c6.6,0,12,5.4,12,12v23.67
		C1614.68,1879.74,1609.28,1885.14,1602.68,1885.14z"/>
	<path class="st2" d="M1602.68,2079.14h-133c-6.6,0-12-5.4-12-12v-23.67c0-6.6,5.4-12,12-12h133c6.6,0,12,5.4,12,12v23.67
		C1614.68,2073.74,1609.28,2079.14,1602.68,2079.14z"/>
	<path class="st2" d="M1602.68,2145.14h-133c-6.6,0-12-5.4-12-12v-23.67c0-6.6,5.4-12,12-12h133c6.6,0,12,5.4,12,12v23.67
		C1614.68,2139.74,1609.28,2145.14,1602.68,2145.14z"/>
	<path class="st2" d="M1602.68,2212.14h-133c-6.6,0-12-5.4-12-12v-23.67c0-6.6,5.4-12,12-12h133c6.6,0,12,5.4,12,12v23.67
		C1614.68,2206.74,1609.28,2212.14,1602.68,2212.14z"/>
	<path class="st1" d="M1425.68,1951.14h-133c-6.6,0-12-5.4-12-12v-23.67c0-6.6,5.4-12,12-12h133c6.6,0,12,5.4,12,12v23.67
		C1437.68,1945.74,1432.28,1951.14,1425.68,1951.14z"/>
	<path class="st1" d="M1425.68,2015.14h-133c-6.6,0-12-5.4-12-12v-23.67c0-6.6,5.4-12,12-12h133c6.6,0,12,5.4,12,12v23.67
		C1437.68,2009.74,1432.28,2015.14,1425.68,2015.14z"/>
	<path class="st2" d="M1602.68,2276.14h-133c-6.6,0-12-5.4-12-12v-23.67c0-6.6,5.4-12,12-12h133c6.6,0,12,5.4,12,12v23.67
		C1614.68,2270.74,1609.28,2276.14,1602.68,2276.14z"/>
	<path class="st1" d="M1425.68,2533.97h-133c-6.6,0-12-5.4-12-12v-217.5c0-6.6,5.4-12,12-12h133c6.6,0,12,5.4,12,12v217.5
		C1437.68,2528.57,1432.28,2533.97,1425.68,2533.97z"/>
	<path class="st2" d="M1602.68,2341.14h-133c-6.6,0-12-5.4-12-12v-23.67c0-6.6,5.4-12,12-12h133c6.6,0,12,5.4,12,12v23.67
		C1614.68,2335.74,1609.28,2341.14,1602.68,2341.14z"/>
	<path class="st2" d="M1602.68,2407.14h-133c-6.6,0-12-5.4-12-12v-23.67c0-6.6,5.4-12,12-12h133c6.6,0,12,5.4,12,12v23.67
		C1614.68,2401.74,1609.28,2407.14,1602.68,2407.14z"/>
	<path class="st2" d="M1602.68,2471.14h-133c-6.6,0-12-5.4-12-12v-23.67c0-6.6,5.4-12,12-12h133c6.6,0,12,5.4,12,12v23.67
		C1614.68,2465.74,1609.28,2471.14,1602.68,2471.14z"/>
	<path class="st2" d="M1602.68,2535.14h-133c-6.6,0-12-5.4-12-12v-23.67c0-6.6,5.4-12,12-12h133c6.6,0,12,5.4,12,12v23.67
		C1614.68,2529.74,1609.28,2535.14,1602.68,2535.14z"/>
	<path class="st1" d="M1425.68,2596.14h-133c-6.6,0-12-5.4-12-12v-23.67c0-6.6,5.4-12,12-12h133c6.6,0,12,5.4,12,12v23.67
		C1437.68,2590.74,1432.28,2596.14,1425.68,2596.14z"/>
	<path class="st3" d="M921.7,1567.3H685.2c-6.6,0-12-5.4-12-12v-25c0-6.6,5.4-12,12-12h236.5c6.6,0,12,5.4,12,12v25
		C933.7,1561.9,928.3,1567.3,921.7,1567.3z"/>
	<path class="st3" d="M921.28,1084.93H681.96c-6.6,0-12-5.4-12-12v-23.67c0-6.6,5.4-12,12-12h239.32c6.6,0,12,5.4,12,12v23.67
		C933.28,1079.53,927.88,1084.93,921.28,1084.93z"/>
	<path class="st3" d="M921.28,1154.93H681.96c-6.6,0-12-5.4-12-12v-23.67c0-6.6,5.4-12,12-12h239.32c6.6,0,12,5.4,12,12v23.67
		C933.28,1149.53,927.88,1154.93,921.28,1154.93z"/>
	<path class="st3" d="M922.96,1222.93H683.63c-6.6,0-12-5.4-12-12v-23.67c0-6.6,5.4-12,12-12h239.32c6.6,0,12,5.4,12,12v23.67
		C934.96,1217.53,929.56,1222.93,922.96,1222.93z"/>
	<path class="st3" d="M922.28,1290.93H682.96c-6.6,0-12-5.4-12-12v-23.67c0-6.6,5.4-12,12-12h239.32c6.6,0,12,5.4,12,12v23.67
		C934.28,1285.53,928.88,1290.93,922.28,1290.93z"/>
	<path class="st3" d="M922.28,1360.93H682.96c-6.6,0-12-5.4-12-12v-23.67c0-6.6,5.4-12,12-12h239.32c6.6,0,12,5.4,12,12v23.67
		C934.28,1355.53,928.88,1360.93,922.28,1360.93z"/>
	<path class="st3" d="M923.96,1428.93H684.63c-6.6,0-12-5.4-12-12v-23.67c0-6.6,5.4-12,12-12h239.32c6.6,0,12,5.4,12,12v23.67
		C935.96,1423.53,930.56,1428.93,923.96,1428.93z"/>
	<path class="st2" d="M630.51,398.8h-133c-6.6,0-12-5.4-12-12v-25.5c0-6.6,5.4-12,12-12h133c6.6,0,12,5.4,12,12v25.5
		C642.51,393.4,637.11,398.8,630.51,398.8z"/>
	<path class="st2" d="M630.51,469.46h-133c-6.6,0-12-5.4-12-12v-25.5c0-6.6,5.4-12,12-12h133c6.6,0,12,5.4,12,12v25.5
		C642.51,464.06,637.11,469.46,630.51,469.46z"/>
	<path class="st3" d="M1781.68,563.7h-133c-6.6,0-12-5.4-12-12v-23.67c0-6.6,5.4-12,12-12h133c6.6,0,12,5.4,12,12v23.67
		C1793.68,558.3,1788.28,563.7,1781.68,563.7z"/>
	<path class="st1" d="M1423.68,1086.3h-133c-6.6,0-12-5.4-12-12V129.33c0-6.6,5.4-12,12-12h133c6.6,0,12,5.4,12,12v944.97
		C1435.68,1080.9,1430.28,1086.3,1423.68,1086.3z"/>
	<path class="st2" d="M1602.68,298.53h-133c-6.6,0-12-5.4-12-12v-155.5c0-6.6,5.4-12,12-12h133c6.6,0,12,5.4,12,12v155.5
		C1614.68,293.13,1609.28,298.53,1602.68,298.53z"/>
	<path class="st1" d="M1422.68,1605.53h-133c-6.6,0-12-5.4-12-12v-280.5c0-6.6,5.4-12,12-12h133c6.6,0,12,5.4,12,12v280.5
		C1434.68,1600.13,1429.28,1605.53,1422.68,1605.53z"/>
	<path class="st3" d="M1779.68,168.7h-133c-6.6,0-12-5.4-12-12v-23.67c0-6.6,5.4-12,12-12h133c6.6,0,12,5.4,12,12v23.67
		C1791.68,163.3,1786.28,168.7,1779.68,168.7z"/>
	<path class="st3" d="M1779.68,234.7h-133c-6.6,0-12-5.4-12-12v-23.67c0-6.6,5.4-12,12-12h133c6.6,0,12,5.4,12,12v23.67
		C1791.68,229.3,1786.28,234.7,1779.68,234.7z"/>
	<path class="st3" d="M1779.68,298.7h-133c-6.6,0-12-5.4-12-12v-23.67c0-6.6,5.4-12,12-12h133c6.6,0,12,5.4,12,12v23.67
		C1791.68,293.3,1786.28,298.7,1779.68,298.7z"/>
	<path class="st2" d="M1599.68,1348.7h-133c-6.6,0-12-5.4-12-12v-23.67c0-6.6,5.4-12,12-12h133c6.6,0,12,5.4,12,12v23.67
		C1611.68,1343.3,1606.28,1348.7,1599.68,1348.7z"/>
	<path class="st2" d="M1599.68,1414.7h-133c-6.6,0-12-5.4-12-12v-23.67c0-6.6,5.4-12,12-12h133c6.6,0,12,5.4,12,12v23.67
		C1611.68,1409.3,1606.28,1414.7,1599.68,1414.7z"/>
	<path class="st2" d="M1599.68,1478.7h-133c-6.6,0-12-5.4-12-12v-23.67c0-6.6,5.4-12,12-12h133c6.6,0,12,5.4,12,12v23.67
		C1611.68,1473.3,1606.28,1478.7,1599.68,1478.7z"/>
	<path class="st2" d="M1599.68,1542.7h-133c-6.6,0-12-5.4-12-12v-23.67c0-6.6,5.4-12,12-12h133c6.6,0,12,5.4,12,12v23.67
		C1611.68,1537.3,1606.28,1542.7,1599.68,1542.7z"/>
	<path class="st2" d="M1604.68,633.3h-133c-6.6,0-12-5.4-12-12v-93.26c0-6.6,5.4-12,12-12h133c6.6,0,12,5.4,12,12v93.26
		C1616.68,627.9,1611.28,633.3,1604.68,633.3z"/>
	<path class="st2" d="M1605.68,696.7h-133c-6.6,0-12-5.4-12-12v-23.67c0-6.6,5.4-12,12-12h133c6.6,0,12,5.4,12,12v23.67
		C1617.68,691.3,1612.28,696.7,1605.68,696.7z"/>
	<path class="st2" d="M1605.68,761.7h-133c-6.6,0-12-5.4-12-12v-23.67c0-6.6,5.4-12,12-12h133c6.6,0,12,5.4,12,12v23.67
		C1617.68,756.3,1612.28,761.7,1605.68,761.7z"/>
	<path class="st2" d="M1604.68,1020.7h-133c-6.6,0-12-5.4-12-12v-23.67c0-6.6,5.4-12,12-12h133c6.6,0,12,5.4,12,12v23.67
		C1616.68,1015.3,1611.28,1020.7,1604.68,1020.7z"/>
	<path class="st2" d="M1605.39,1085.89h-133c-6.6,0-12-5.4-12-12v-23.67c0-6.6,5.4-12,12-12h133c6.6,0,12,5.4,12,12v23.67
		C1617.39,1080.49,1611.99,1085.89,1605.39,1085.89z"/>
	<path class="st0" d="M1246.89,1679.3h-133c-6.6,0-12-5.4-12-12V129.53c0-6.6,5.4-12,12-12h133c6.6,0,12,5.4,12,12V1667.3
		C1258.89,1673.9,1253.49,1679.3,1246.89,1679.3z"/>
	<path class="st1" d="M1424.89,1677.54h-133c-6.6,0-12-5.4-12-12v-23.67c0-6.6,5.4-12,12-12h133c6.6,0,12,5.4,12,12v23.67
		C1436.89,1672.14,1431.49,1677.54,1424.89,1677.54z"/>
	<path class="st3" d="M1780.16,628.89h-133c-6.6,0-12-5.4-12-12v-25.5c0-6.6,5.4-12,12-12h133c6.6,0,12,5.4,12,12v25.5
		C1792.16,623.49,1786.76,628.89,1780.16,628.89z"/>
	<path class="st3" d="M1779.42,366.5h-133c-6.6,0-12-5.4-12-12v-23.67c0-6.6,5.4-12,12-12h133c6.6,0,12,5.4,12,12v23.67
		C1791.42,361.1,1786.02,366.5,1779.42,366.5z"/>
	<path class="st2" d="M1602.42,430.3h-133c-6.6,0-12-5.4-12-12v-87.47c0-6.6,5.4-12,12-12h133c6.6,0,12,5.4,12,12v87.47
		C1614.42,424.9,1609.02,430.3,1602.42,430.3z"/>
	<path class="st3" d="M1780.9,432.68h-133c-6.6,0-12-5.4-12-12v-25.5c0-6.6,5.4-12,12-12h133c6.6,0,12,5.4,12,12v25.5
		C1792.9,427.28,1787.5,432.68,1780.9,432.68z"/>
	<path class="st2" d="M1605.27,956.53h-133c-6.6,0-12-5.4-12-12V791.5c0-6.6,5.4-12,12-12h133c6.6,0,12,5.4,12,12v153.04
		C1617.27,951.13,1611.87,956.53,1605.27,956.53z"/>
	<path class="st3" d="M1782.92,828.18h-133c-6.6,0-12-5.4-12-12v-23.67c0-6.6,5.4-12,12-12h133c6.6,0,12,5.4,12,12v23.67
		C1794.92,822.78,1789.52,828.18,1782.92,828.18z"/>
	<path class="st3" d="M1782.92,892.18h-133c-6.6,0-12-5.4-12-12v-23.67c0-6.6,5.4-12,12-12h133c6.6,0,12,5.4,12,12v23.67
		C1794.92,886.78,1789.52,892.18,1782.92,892.18z"/>
	<path class="st3" d="M1783.4,958.36h-133c-6.6,0-12-5.4-12-12v-25.5c0-6.6,5.4-12,12-12h133c6.6,0,12,5.4,12,12v25.5
		C1795.4,952.96,1790,958.36,1783.4,958.36z"/>
	<path class="st2" d="M1600.22,1605.12h-133c-6.6,0-12-5.4-12-12v-23.67c0-6.6,5.4-12,12-12h133c6.6,0,12,5.4,12,12v23.67
		C1612.22,1599.72,1606.82,1605.12,1600.22,1605.12z"/>
	<path class="st2" d="M1603.27,497.48h-133c-6.6,0-12-5.4-12-12v-23.67c0-6.6,5.4-12,12-12h133c6.6,0,12,5.4,12,12v23.67
		C1615.27,492.08,1609.87,497.48,1603.27,497.48z"/>
	<path class="st1" d="M1424.68,1280.53h-133c-6.6,0-12-5.4-12-12v-153.26c0-6.6,5.4-12,12-12h133c6.6,0,12,5.4,12,12v153.26
		C1436.68,1275.13,1431.28,1280.53,1424.68,1280.53z"/>
	<path class="st2" d="M1601.68,1150.94h-133c-6.6,0-12-5.4-12-12v-15.41c0-6.6,5.4-12,12-12h133c6.6,0,12,5.4,12,12v15.41
		C1613.68,1145.54,1608.28,1150.94,1601.68,1150.94z"/>
	<path class="st2" d="M1601.68,1274.53h-133c-6.6,0-12-5.4-12-12v-81.26c0-6.6,5.4-12,12-12h133c6.6,0,12,5.4,12,12v81.26
		C1613.68,1269.13,1608.28,1274.53,1601.68,1274.53z"/>
	<path class="st3" d="M1779.27,1215.44h-133c-6.6,0-12-5.4-12-12v-25.5c0-6.6,5.4-12,12-12h133c6.6,0,12,5.4,12,12v25.5
		C1791.27,1210.04,1785.87,1215.44,1779.27,1215.44z"/>
	<path class="st3" d="M1779.27,1279.44h-133c-6.6,0-12-5.4-12-12v-25c0-6.6,5.4-12,12-12h133c6.6,0,12,5.4,12,12v25
		C1791.27,1274.04,1785.87,1279.44,1779.27,1279.44z"/>
</g>
<g id="Text">
	<rect x="125.2" y="67.8" class="st4" width="455" height="47.48"/>
	<text transform="matrix(0.9696 0 0 1 125.1999 90.7378)" class="st5 st6">Cluster management commands</text>
	<rect x="125.2" y="1181.62" class="st4" width="157" height="16.9"/>
	<text transform="matrix(0.9696 0 0 1 170.6697 1197.901)" class="st7 st8">cluster</text>
	<rect x="305.2" y="513.19" class="st4" width="157" height="18.9"/>
	<text transform="matrix(0.9696 0 0 1 354.6267 529.4645)" class="st7 st8">config</text>
	<rect x="305.2" y="709.18" class="st4" width="157" height="18.9"/>
	<text transform="matrix(0.9696 0 0 1 368.47 725.4641)" class="st7 st8">get</text>
	<rect x="307.2" y="609.19" class="st4" width="157" height="18.9"/>
	<text transform="matrix(0.9696 0 0 1 355.2722 625.4645)" class="st7 st8">create</text>
	<rect x="305.2" y="1811.18" class="st4" width="157" height="18.9"/>
	<text transform="matrix(0.9696 0 0 1 370.4753 1827.4642)" class="st7 st8">rm</text>
	<rect x="305.2" y="1945.18" class="st4" width="157" height="18.9"/>
	<text transform="matrix(0.9696 0 0 1 349.6033 1961.4642)" class="st7 st8">service</text>
	<rect x="485.2" y="1882.18" class="st4" width="157" height="18.9"/>
	<text transform="matrix(0.9696 0 0 1 542.6042 1898.4642)" class="st7 st8">bind</text>
	<rect x="485.2" y="1948.18" class="st4" width="157" height="18.9"/>
	<text transform="matrix(0.9696 0 0 1 555.6052 1964.4642)" class="st7 st8">ls</text>
	<rect x="485.2" y="2012.18" class="st4" width="157" height="18.9"/>
	<text transform="matrix(0.9696 0 0 1 530.4885 2028.464)" class="st7 st8">unbind</text>
	<rect x="307.2" y="2146.18" class="st4" width="157" height="18.9"/>
	<text transform="matrix(0.9696 0 0 1 352.6057 2162.4641)" class="st7 st8">subnet</text>
	<rect x="487.2" y="2082.18" class="st4" width="157" height="18.9"/>
	<text transform="matrix(0.9696 0 0 1 547.6331 2098.4641)" class="st7 st8">add</text>
	<rect x="487.2" y="2148.18" class="st4" width="157" height="18.9"/>
	<text transform="matrix(0.9696 0 0 1 535.2722 2164.4641)" class="st7 st8">create</text>
	<rect x="301.2" y="2295.19" class="st4" width="157" height="18.9"/>
	<text transform="matrix(0.9696 0 0 1 361.6331 2311.4653)" class="st7 st8">add</text>
	<rect x="301.2" y="2492.19" class="st4" width="157" height="18.9"/>
	<text transform="matrix(0.9696 0 0 1 348.0559 2508.4653)" class="st7 st8">reboot</text>
	<rect x="301.2" y="2559.19" class="st4" width="157" height="18.9"/>
	<text transform="matrix(0.9696 0 0 1 349.176 2575.4653)" class="st7 st8">reload</text>
	<rect x="301.2" y="2691.19" class="st4" width="157" height="18.9"/>
	<text transform="matrix(0.9696 0 0 1 366.4753 2707.4653)" class="st7 st8">rm</text>
	<rect x="301.2" y="2359.19" class="st4" width="157" height="18.9"/>
	<text transform="matrix(0.9696 0 0 1 364.47 2375.4653)" class="st7 st8">get</text>
	<rect x="301.2" y="2424.19" class="st4" width="157" height="18.9"/>
	<text transform="matrix(0.9696 0 0 1 371.6052 2440.4653)" class="st7 st8">ls</text>
	<rect x="301.2" y="2757.19" class="st4" width="157" height="18.9"/>
	<text transform="matrix(0.9696 0 0 1 345.9763 2773.4653)" class="st7 st8">update</text>
	<rect x="122.2" y="2516.62" class="st4" width="157" height="16.9"/>
	<text transform="matrix(0.9696 0 0 1 167.2327 2532.9033)" class="st7 st8">worker</text>
	<rect x="300.2" y="2882.19" class="st4" width="157" height="18.9"/>
	<text transform="matrix(0.9696 0 0 1 348.2722 2898.4648)" class="st7 st8">create</text>
	<rect x="300.2" y="3273.19" class="st4" width="157" height="18.9"/>
	<text transform="matrix(0.9696 0 0 1 331.1755 3289.4653)" class="st7 st8">rebalance</text>
	<rect x="300.2" y="3340.19" class="st4" width="157" height="18.9"/>
	<text transform="matrix(0.9696 0 0 1 350.2664 3356.4648)" class="st7 st8">resize</text>
	<rect x="300.2" y="3406.19" class="st4" width="157" height="18.9"/>
	<text transform="matrix(0.9696 0 0 1 365.4753 3422.4653)" class="st7 st8">rm</text>
	<rect x="300.2" y="3014.19" class="st4" width="157" height="18.9"/>
	<text transform="matrix(0.9696 0 0 1 363.47 3030.4651)" class="st7 st8">get</text>
	<rect x="300.2" y="3207.19" class="st4" width="157" height="18.9"/>
	<text transform="matrix(0.9696 0 0 1 370.6052 3223.4653)" class="st7 st8">ls</text>
	<rect x="121.2" y="3149.62" class="st4" width="157" height="16.9"/>
	<text transform="matrix(0.9696 0 0 1 140.9455 3165.9028)" class="st7 st8">worker-pool</text>
	<rect x="300.2" y="3876.19" class="st4" width="157" height="18.9"/>
	<text transform="matrix(0.9696 0 0 1 365.4753 3892.4658)" class="st7 st8">rm</text>
	<rect x="300.2" y="3743.19" class="st4" width="157" height="18.9"/>
	<text transform="matrix(0.9696 0 0 1 370.6052 3759.4658)" class="st7 st8">ls</text>
	<rect x="300.2" y="3809.19" class="st4" width="157" height="18.9"/>
	<text transform="matrix(0.9696 0 0 1 320.2971 3825.4658)" class="st7 st8">network-set</text>
	<rect x="121.2" y="3720.62" class="st4" width="157" height="16.9"/>
	<text transform="matrix(0.9696 0 0 1 176.8655 3736.9033)" class="st7 st8">zone</text>
	
		<rect x="793.5" y="1347.68" transform="matrix(4.004866e-03 -1 1 4.004866e-03 -678.6785 2275.45)" class="st4" width="18.9" height="261.5"/>
	<text transform="matrix(0.9696 0 0 1 768.2722 1484.7323)" class="st7 st8">disable</text>
	<rect x="436.02" y="1469.8" class="st4" width="259" height="104"/>
	<text transform="matrix(0.9696 0 0 1 531.9028 1486.078)"><tspan x="0" y="0" class="st7 st8">public-</tspan><tspan x="-4.88" y="26.4" class="st7 st8">service-</tspan><tspan x="-9.39" y="52.8" class="st7 st8">endpoint</tspan></text>
	<rect x="435.84" y="1186.19" class="st4" width="257.36" height="81.61"/>
	<text transform="matrix(0.9696 0 0 1 526.9564 1202.4647)"><tspan x="0" y="0" class="st7 st8">private-</tspan><tspan x="-0.81" y="26.4" class="st7 st8">service-</tspan><tspan x="-5.32" y="52.8" class="st7 st8">endpoint</tspan></text>
	<rect x="306.2" y="277.19" class="st4" width="157" height="18.9"/>
	<text transform="matrix(0.9696 0 0 1 354.6028 293.4647)" class="st7 st8">addon</text>
	<rect x="486.2" y="152.21" class="st4" width="157" height="18.9"/>
	<text transform="matrix(0.9696 0 0 1 530.0168 168.4857)" class="st7 st8">disable</text>
	<rect x="481.2" y="223.01" class="st4" width="157" height="18.9"/>
	<text transform="matrix(0.9696 0 0 1 527.1497 239.294)" class="st7 st8">enable</text>
	<rect x="484.2" y="293.73" class="st4" width="157" height="18.9"/>
	<text transform="matrix(0.9696 0 0 1 547.47 310.0107)" class="st7 st8">get</text>
	<rect x="305.2" y="775.18" class="st4" width="157" height="18.9"/>
	<text transform="matrix(0.9696 0 0 1 375.6052 791.4641)" class="st7 st8">ls</text>
	<rect x="1988.2" y="625.18" class="st4" width="170" height="18.9"/>
	<text transform="matrix(0.9696 0 0 1 2053.0742 641.4644)" class="st7 st8">kms</text>
	<rect x="1098.2" y="67.81" class="st4" width="501.8" height="33.48"/>
	<text transform="matrix(0.9696 0 0 1 1098.1996 90.7467)" class="st5 st6">Cluster components commands</text>
	<rect x="2360.2" y="964.19" class="st4" width="157" height="18.9"/>
	<text transform="matrix(0.9696 0 0 1 2423.4695 980.4646)" class="st7 st8">get</text>
	<rect x="1993.91" y="167.19" class="st4" width="157" height="18.9"/>
	<text transform="matrix(0.9696 0 0 1 2036.8082 183.4648)" class="st7 st8">api-key</text>
	<rect x="1993.91" y="344.84" class="st4" width="157" height="18.9"/>
	<text transform="matrix(0.9696 0 0 1 2024.17 361.1195)" class="st7 st8">credential</text>
	<rect x="2185.2" y="280.19" class="st4" width="157" height="18.9"/>
	<text transform="matrix(0.9696 0 0 1 2248.4695 296.4648)" class="st7 st8">get</text>
	<rect x="2185.2" y="345.19" class="st4" width="157" height="18.9"/>
	<text transform="matrix(0.9696 0 0 1 2248.9065 361.4648)" class="st7 st8">set</text>
	<rect x="2185.2" y="411.19" class="st4" width="157" height="18.9"/>
	<text transform="matrix(0.9696 0 0 1 2236.7908 427.4645)" class="st7 st8">unset</text>
	<rect x="1983.2" y="64.81" class="st4" width="478.8" height="33.48"/>
	<text transform="matrix(0.9696 0 0 1 1983.1996 87.7455)" class="st5 st6">Account management commands</text>
	<rect x="1991.2" y="1218.19" class="st4" width="157" height="18.9"/>
	<text transform="matrix(0.9696 0 0 1 1995.2455 1234.4647)" class="st7 st8">addon-versions</text>
	<rect x="1986.2" y="1291.19" class="st4" width="157" height="18.9"/>
	<text transform="matrix(0.9696 0 0 1 2032.3202 1307.4647)" class="st7 st8">flavors</text>
	<rect x="1986.2" y="1151.28" class="st4" width="364.8" height="29.54"/>
	<text transform="matrix(0.9696 0 0 1 1986.1996 1174.2152)" class="st5 st6">Informational commands</text>
	<rect x="1987.2" y="1706.18" class="st4" width="157" height="18.9"/>
	<text transform="matrix(0.9696 0 0 1 2051.1521 1722.464)" class="st7 st8">api</text>
	<rect x="1987.2" y="1776.18" class="st4" width="157" height="18.9"/>
	<text transform="matrix(0.9696 0 0 1 2050.5652 1792.464)" class="st7 st8">init</text>
	<rect x="1987.2" y="1639.7" class="st4" width="362.8" height="32.69"/>
	<text transform="matrix(0.9696 0 0 1 1987.1996 1662.6383)" class="st5 st6">Configuration commands</text>
	<rect x="2185.2" y="133.19" class="st4" width="157" height="18.9"/>
	<text transform="matrix(0.9696 0 0 1 2245.5471 149.4648)" class="st7 st8">info</text>
	<rect x="2185.2" y="199.19" class="st4" width="157" height="18.9"/>
	<text transform="matrix(0.9696 0 0 1 2239.1375 215.4648)" class="st7 st8">reset</text>
	<rect x="1993.91" y="930.84" class="st4" width="157" height="18.9"/>
	<text transform="matrix(0.9696 0 0 1 2052.5073 947.1194)" class="st7 st8">vlan</text>
	<rect x="2184.2" y="898.19" class="st4" width="157" height="18.9"/>
	<text transform="matrix(0.9696 0 0 1 2254.6047 914.4646)" class="st7 st8">ls</text>
	<rect x="2184.2" y="964.19" class="st4" width="157" height="18.9"/>
	<text transform="matrix(0.9696 0 0 1 2219.1531 980.4646)" class="st7 st8">spanning</text>
	<rect x="1993.91" y="819.19" class="st4" width="157" height="18.9"/>
	<text transform="matrix(0.9696 0 0 1 2034.1207 835.4646)" class="st7 st8">subnets</text>
	<rect x="1993.91" y="484.19" class="st4" width="157" height="18.9"/>
	<text transform="matrix(0.9696 0 0 1 1995.8131 498.985)" class="st7 st9">infra-permissions</text>
	<rect x="2185.2" y="484.19" class="st4" width="157" height="18.9"/>
	<text transform="matrix(0.9696 0 0 1 2248.4695 500.4645)" class="st7 st8">get</text>
	<rect x="1993.91" y="1036.19" class="st4" width="157" height="18.9"/>
	<text transform="matrix(0.9696 0 0 1 2050.417 1052.4646)" class="st7 st8">vpcs</text>
	<rect x="1986.2" y="1362.19" class="st4" width="157" height="18.9"/>
	<text transform="matrix(0.9696 0 0 1 2016.7699 1378.4647)" class="st7 st8">messages</text>
	<rect x="2000.2" y="1434.19" class="st4" width="133" height="18.9"/>
	<text transform="matrix(0.9696 0 0 1 2023.1317 1450.4647)" class="st7 st8">locations</text>
	<rect x="1986.2" y="1505.84" class="st4" width="157" height="18.9"/>
	<text transform="matrix(0.9696 0 0 1 2024.598 1522.1195)" class="st7 st8">versions</text>
	<rect x="483.2" y="579.19" class="st4" width="157" height="18.9"/>
	<text transform="matrix(0.9696 0 0 1 529.3201 595.4645)" class="st7 st8">classic</text>
	<rect x="306.2" y="1233.89" class="st4" width="157" height="18.9"/>
	<text transform="matrix(0.9696 0 0 1 350.9871 1250.1715)" class="st7 st8">master</text>
	<rect x="485.2" y="898.18" class="st4" width="157" height="45.05"/>
	<text transform="matrix(0.9696 0 0 1 535.0959 914.4643)"><tspan x="0" y="0" class="st7 st8">audit-</tspan><tspan x="-15.73" y="26.4" class="st7 st8">webhook</tspan></text>
	<rect x="485.2" y="1609.18" class="st4" width="157" height="18.9"/>
	<text transform="matrix(0.9696 0 0 1 529.4539 1625.4642)" class="st7 st8">refresh</text>
	<rect x="485.2" y="1673.18" class="st4" width="157" height="18.9"/>
	<text transform="matrix(0.9696 0 0 1 529.9763 1689.465)" class="st7 st8">update</text>
	<rect x="670.2" y="844.8" class="st4" width="259" height="18.98"/>
	<text transform="matrix(0.9696 0 0 1 785.1624 860.3375)" class="st7 st10">get</text>
	<rect x="670.2" y="915.18" class="st4" width="257.36" height="18.9"/>
	<text transform="matrix(0.9696 0 0 1 784.76 930.7252)" class="st7 st10">set</text>
	<rect x="671.84" y="983.18" class="st4" width="257.36" height="18.9"/>
	<text transform="matrix(0.9696 0 0 1 774.8342 998.7253)" class="st7 st10">unset</text>
	<rect x="479.2" y="2824.18" class="st4" width="157" height="18.9"/>
	<text transform="matrix(0.9696 0 0 1 525.3201 2840.4644)" class="st7 st8">classic</text>
	<rect x="479.2" y="2887.18" class="st4" width="157" height="18.9"/>
	<text transform="matrix(0.9696 0 0 1 519.1453 2903.4644)" class="st7 st8">satellite</text>
	<rect x="300.2" y="3613.19" class="st4" width="157" height="18.9"/>
	<text transform="matrix(0.9696 0 0 1 360.6331 3629.4663)" class="st7 st8">add</text>
	<rect x="479.2" y="3549.19" class="st4" width="157" height="18.9"/>
	<text transform="matrix(0.9696 0 0 1 525.3201 3565.4648)" class="st7 st8">classic</text>
	<rect x="479.2" y="3613.19" class="st4" width="157" height="18.9"/>
	<text transform="matrix(0.9696 0 0 1 519.1453 3629.4648)" class="st7 st8">satellite</text>
	<rect x="306.2" y="1747.18" class="st4" width="157" height="18.9"/>
	<text transform="matrix(0.9696 0 0 1 332.4724 1763.4642)" class="st7 st8">pull-secret</text>
	<rect x="486.2" y="1747.18" class="st4" width="157" height="18.9"/>
	<text transform="matrix(0.9696 0 0 1 538.4104 1763.464)" class="st7 st8">apply</text>
	<rect x="301.2" y="2624.19" class="st4" width="157" height="18.9"/>
	<text transform="matrix(0.9696 0 0 1 343.929 2640.4653)" class="st7 st8">replace</text>
	<rect x="300.2" y="3472.19" class="st4" width="157" height="18.9"/>
	<text transform="matrix(0.9696 0 0 1 350.6716 3488.4653)" class="st7 st8">zones</text>
	<rect x="1987.2" y="1974.18" class="st4" width="157" height="18.9"/>
	<text transform="matrix(0.9696 0 0 1 2038.6312 1990.464)" class="st7 st8">script</text>
	<rect x="1987.2" y="1907.7" class="st4" width="362.8" height="32.69"/>
	<text transform="matrix(0.9696 0 0 1 1987.1996 1930.6383)" class="st5 st6">Other commands</text>
	<rect x="2166.2" y="1975.18" class="st4" width="157" height="18.9"/>
	<text transform="matrix(0.9696 0 0 1 2210.9758 1991.464)" class="st7 st8">update</text>
	<rect x="487.2" y="2212.18" class="st4" width="157" height="18.9"/>
	<text transform="matrix(0.9696 0 0 1 532.7976 2228.4641)" class="st7 st8">detach</text>
	<rect x="2185.2" y="559.19" class="st4" width="157" height="18.9"/>
	<text transform="matrix(0.9696 0 0 1 2248.8005 575.4646)" class="st7 st8">crk</text>
	<rect x="2185.2" y="626.19" class="st4" width="157" height="18.9"/>
	<text transform="matrix(0.9696 0 0 1 2231.1497 642.4646)" class="st7 st8">enable</text>
	<rect x="2185.2" y="690.19" class="st4" width="157" height="18.9"/>
	<text transform="matrix(0.9696 0 0 1 2223.0652 706.4646)" class="st7 st8">instance</text>
	<rect x="2362.2" y="560.62" class="st4" width="157" height="18.9"/>
	<text transform="matrix(0.9696 0 0 1 2432.6052 576.9002)" class="st7 st8">ls</text>
	<rect x="2362.2" y="690.62" class="st4" width="157" height="18.9"/>
	<text transform="matrix(0.9696 0 0 1 2432.6052 706.9002)" class="st7 st8">ls</text>
	<rect x="483.19" y="645.52" class="st4" width="157" height="18.9"/>
	<text transform="matrix(0.9696 0 0 1 516.6927 661.7979)" class="st7 st8">vpc-gen2</text>
	<rect x="1995.02" y="753.2" class="st4" width="157" height="18.9"/>
	<text transform="matrix(0.9696 0 0 1 2045.8672 769.4782)" class="st7 st8">quota</text>
	<rect x="2186.31" y="753.2" class="st4" width="157" height="18.9"/>
	<text transform="matrix(0.9696 0 0 1 2256.7178 769.4782)" class="st7 st8">ls</text>
	<rect x="673.2" y="1533.19" class="st4" width="260.5" height="56.9"/>
	<text transform="matrix(0.9696 0 0 1 770.8997 1549.4652)" class="st7 st8">enable</text>
	<rect x="1280.68" y="2562.86" class="st4" width="157" height="18.9"/>
	<text transform="matrix(0.9696 0 0 1 1324.9348 2579.1348)" class="st7 st8">refresh</text>
	<rect x="1634.68" y="135.42" class="st4" width="157" height="18.9"/>
	<text transform="matrix(0.9696 0 0 1 1678.4983 151.6995)" class="st7 st8">disable</text>
	<rect x="1634.68" y="201.42" class="st4" width="157" height="18.9"/>
	<text transform="matrix(0.9696 0 0 1 1680.6311 217.6995)" class="st7 st8">enable</text>
	<rect x="1634.68" y="265.42" class="st4" width="157" height="18.9"/>
	<text transform="matrix(0.9696 0 0 1 1697.9514 281.6995)" class="st7 st8">get</text>
	<rect x="1454.68" y="1314.42" class="st4" width="157" height="18.9"/>
	<text transform="matrix(0.9696 0 0 1 1502.7537 1330.6995)" class="st7 st8">create</text>
	<rect x="1454.68" y="1381.42" class="st4" width="157" height="18.9"/>
	<text transform="matrix(0.9696 0 0 1 1517.9514 1397.6995)" class="st7 st8">get</text>
	<rect x="1454.68" y="1445.42" class="st4" width="157" height="18.9"/>
	<text transform="matrix(0.9696 0 0 1 1525.0867 1461.6995)" class="st7 st8">ls</text>
	<rect x="1454.68" y="1509.42" class="st4" width="157" height="18.9"/>
	<text transform="matrix(0.9696 0 0 1 1519.9568 1525.6996)" class="st7 st8">rm</text>
	<rect x="1458.68" y="557.42" class="st4" width="157" height="18.9"/>
	<text transform="matrix(0.9696 0 0 1 1504.6311 573.6996)" class="st7 st8">enable</text>
	<rect x="1460.68" y="661.42" class="st4" width="157" height="18.9"/>
	<text transform="matrix(0.9696 0 0 1 1523.9514 677.6993)" class="st7 st8">get</text>
	<rect x="1460.68" y="728.42" class="st4" width="157" height="18.9"/>
	<text transform="matrix(0.9696 0 0 1 1531.0867 744.6993)" class="st7 st8">ls</text>
	<rect x="1459.68" y="987.42" class="st4" width="157" height="18.9"/>
	<text transform="matrix(0.9696 0 0 1 1504.4573 1003.6994)" class="st7 st8">update</text>
	<rect x="1103.68" y="2121.56" class="st4" width="157" height="18.9"/>
	<text transform="matrix(0.9696 0 0 1 1147.6892 2137.8423)" class="st7 st8">logging</text>
	<rect x="1280.68" y="1790.86" class="st4" width="157" height="18.9"/>
	<text transform="matrix(0.9696 0 0 1 1303.988 1807.1356)" class="st7 st8">autoupdate</text>
	<rect x="1280.68" y="2145.86" class="st4" width="157" height="18.9"/>
	<text transform="matrix(0.9696 0 0 1 1330.1077 2162.1357)" class="st7 st8">config</text>
	<rect x="1457.68" y="1721.86" class="st4" width="157" height="18.9"/>
	<text transform="matrix(0.9696 0 0 1 1501.4978 1738.1349)" class="st7 st8">disable</text>
	<rect x="1457.68" y="1787.86" class="st4" width="157" height="18.9"/>
	<text transform="matrix(0.9696 0 0 1 1503.6306 1804.1349)" class="st7 st8">enable</text>
	<rect x="1457.68" y="1851.86" class="st4" width="157" height="18.9"/>
	<text transform="matrix(0.9696 0 0 1 1520.9509 1868.1349)" class="st7 st8">get</text>
	<rect x="1457.68" y="2044.86" class="st4" width="157" height="18.9"/>
	<text transform="matrix(0.9696 0 0 1 1505.7532 2061.1357)" class="st7 st8">create</text>
	<rect x="1457.68" y="2111.86" class="st4" width="157" height="18.9"/>
	<text transform="matrix(0.9696 0 0 1 1520.9509 2128.1357)" class="st7 st8">get</text>
	<rect x="1457.68" y="2178.86" class="st4" width="157" height="18.9"/>
	<text transform="matrix(0.9696 0 0 1 1522.9563 2195.1357)" class="st7 st8">rm</text>
	<rect x="1280.68" y="1917.86" class="st4" width="157" height="18.9"/>
	<text transform="matrix(0.9696 0 0 1 1327.0789 1934.1356)" class="st7 st8">collect</text>
	<rect x="1280.68" y="1981.86" class="st4" width="157" height="18.9"/>
	<text transform="matrix(0.9696 0 0 1 1293.1951 1998.1356)" class="st7 st8">collect-status</text>
	<rect x="1457.68" y="2242.86" class="st4" width="157" height="18.9"/>
	<text transform="matrix(0.9696 0 0 1 1502.4573 2259.1355)" class="st7 st8">update</text>
	<rect x="1280.68" y="2405.86" class="st4" width="157" height="18.9"/>
	<text transform="matrix(0.9696 0 0 1 1336.72 2422.1348)" class="st7 st8">filter</text>
	<rect x="1457.68" y="2306.86" class="st4" width="157" height="18.9"/>
	<text transform="matrix(0.9696 0 0 1 1505.7532 2323.1348)" class="st7 st8">create</text>
	<rect x="1457.68" y="2373.86" class="st4" width="157" height="18.9"/>
	<text transform="matrix(0.9696 0 0 1 1520.9509 2390.1348)" class="st7 st8">get</text>
	<rect x="1457.68" y="2437.86" class="st4" width="157" height="18.9"/>
	<text transform="matrix(0.9696 0 0 1 1522.9563 2454.1348)" class="st7 st8">rm</text>
	<rect x="1457.68" y="2501.86" class="st4" width="157" height="18.9"/>
	<text transform="matrix(0.9696 0 0 1 1502.4573 2518.1348)" class="st7 st8">update</text>
	<rect x="1110.68" y="3568.86" class="st4" width="157" height="18.9"/>
	<text transform="matrix(0.9696 0 0 1 1116.4973 3585.1357)" class="st7 st8">webhook-creat</text>
	<rect x="1280.68" y="598.13" class="st4" width="157" height="18.9"/>
	<text transform="matrix(0.9696 0 0 1 1344.3999 614.4068)" class="st7 st8">alb</text>
	<rect x="1457.68" y="204.42" class="st4" width="157" height="18.9"/>
	<text transform="matrix(0.9696 0 0 1 1480.9885 220.6995)" class="st7 st8">autoupdate</text>
	<rect x="1277.68" y="1447.42" class="st4" width="157" height="18.9"/>
	<text transform="matrix(0.9696 0 0 1 1326.2546 1463.6995)" class="st7 st8">secret</text>
	<rect x="1104.68" y="3134.56" class="st4" width="157" height="18.9"/>
	<text transform="matrix(0.9696 0 0 1 1146.3435 3150.842)" class="st7 st8">nlb-dns</text>
	<rect x="1281.68" y="3035.86" class="st4" width="157" height="18.9"/>
	<text transform="matrix(0.9696 0 0 1 1322.5432 3052.1362)" class="st7 st8">monitor</text>
	<rect x="1458.68" y="2903.86" class="st4" width="157" height="18.9"/>
	<text transform="matrix(0.9696 0 0 1 1492.28 2920.1362)" class="st7 st8">configure</text>
	<rect x="1458.68" y="2970.86" class="st4" width="157" height="18.9"/>
	<text transform="matrix(0.9696 0 0 1 1502.4978 2987.1362)" class="st7 st8">disable</text>
	<rect x="1458.68" y="3037.86" class="st4" width="157" height="18.9"/>
	<text transform="matrix(0.9696 0 0 1 1504.6306 3054.1362)" class="st7 st8">enable</text>
	<rect x="1281.68" y="2839.86" class="st4" width="157" height="18.9"/>
	<text transform="matrix(0.9696 0 0 1 1352.0862 2856.1362)" class="st7 st8">ls</text>
	<rect x="1458.68" y="3101.86" class="st4" width="157" height="18.9"/>
	<text transform="matrix(0.9696 0 0 1 1521.9509 3118.1362)" class="st7 st8">get</text>
	<rect x="1458.68" y="3165.86" class="st4" width="157" height="18.9"/>
	<text transform="matrix(0.9696 0 0 1 1529.0862 3182.1355)" class="st7 st8">ls</text>
	<rect x="1280.68" y="2639.86" class="st4" width="157" height="18.9"/>
	<text transform="matrix(0.9696 0 0 1 1341.114 2656.1355)" class="st7 st8">add</text>
	<rect x="1636.68" y="530.42" class="st4" width="157" height="18.9"/>
	<text transform="matrix(0.9696 0 0 1 1682.8015 546.6995)" class="st7 st8">classic</text>
	<rect x="1282.68" y="2740.42" class="st4" width="157" height="18.9"/>
	<text transform="matrix(0.9696 0 0 1 1330.7535 2756.6987)" class="st7 st8">create</text>
	<rect x="1459.68" y="2710.42" class="st4" width="157" height="18.9"/>
	<text transform="matrix(0.9696 0 0 1 1505.8014 2726.6987)" class="st7 st8">classic</text>
	<rect x="1283.01" y="3466.61" class="st4" width="157" height="18.9"/>
	<text transform="matrix(0.9696 0 0 1 1331.5842 3482.894)" class="st7 st8">secret</text>
	<rect x="1461.01" y="3435.61" class="st4" width="157" height="18.9"/>
	<text transform="matrix(0.9696 0 0 1 1487.134 3451.894)" class="st7 st8">regenerate</text>
	<rect x="1460.01" y="3499.61" class="st4" width="157" height="18.9"/>
	<text transform="matrix(0.9696 0 0 1 1525.2864 3515.894)" class="st7 st8">rm</text>
	<rect x="1281.01" y="3232.27" class="st4" width="157" height="18.9"/>
	<text transform="matrix(0.9696 0 0 1 1323.7401 3248.5481)" class="st7 st8">replace</text>
	<rect x="1281.01" y="3334.83" class="st4" width="157" height="18.9"/>
	<text transform="matrix(0.9696 0 0 1 1346.2859 3351.1123)" class="st7 st8">rm</text>
	<rect x="1461.01" y="3303.83" class="st4" width="157" height="18.9"/>
	<text transform="matrix(0.9696 0 0 1 1507.1316 3320.1123)" class="st7 st8">classic</text>
	<rect x="1460.39" y="1052.6" class="st4" width="157" height="18.9"/>
	<text transform="matrix(0.9696 0 0 1 1498.7925 1068.8834)" class="st7 st8">versions</text>
	<rect x="1101.89" y="651.25" class="st4" width="157" height="18.9"/>
	<text transform="matrix(0.9696 0 0 1 1145.8807 667.532)" class="st7 st8">ingress</text>
	<rect x="1279.89" y="1644.25" class="st4" width="157" height="18.9"/>
	<text transform="matrix(0.9696 0 0 1 1328.7655 1660.5328)" class="st7 st8">status</text>
	<rect x="1635.16" y="594.77" class="st4" width="157" height="18.9"/>
	<text transform="matrix(0.9696 0 0 1 1668.6633 611.054)" class="st7 st8">vpc-gen2</text>
	<rect x="1456.42" y="370.21" class="st4" width="157" height="18.9"/>
	<text transform="matrix(0.9696 0 0 1 1504.4929 386.4938)" class="st7 st8">create</text>
	<rect x="1634.42" y="333.21" class="st4" width="157" height="18.9"/>
	<text transform="matrix(0.9696 0 0 1 1680.5408 349.4937)" class="st7 st8">classic</text>
	<rect x="1635.9" y="398.57" class="st4" width="157" height="18.9"/>
	<text transform="matrix(0.9696 0 0 1 1669.4026 414.8481)" class="st7 st8">vpc-gen2</text>
	<rect x="1460.16" y="2773.75" class="st4" width="157" height="18.9"/>
	<text transform="matrix(0.9696 0 0 1 1493.6628 2790.0327)" class="st7 st8">vpc-gen2</text>
	<rect x="1458.16" y="3368.37" class="st4" width="157" height="18.9"/>
	<text transform="matrix(0.9696 0 0 1 1491.6628 3384.6497)" class="st7 st8">vpc-gen2</text>
	<rect x="1459.27" y="858.88" class="st4" width="157" height="18.9"/>
	<text transform="matrix(0.9696 0 0 1 1500.95 875.16)" class="st7 st8">migrate</text>
	<rect x="1637.92" y="794.9" class="st4" width="157" height="18.9"/>
	<text transform="matrix(0.9696 0 0 1 1690.5466 811.1746)" class="st7 st8">clean</text>
	<rect x="1637.92" y="858.9" class="st4" width="157" height="18.9"/>
	<text transform="matrix(0.9696 0 0 1 1694.1301 875.1746)" class="st7 st8">start</text>
	<rect x="1638.4" y="924.25" class="st4" width="157" height="18.9"/>
	<text transform="matrix(0.9696 0 0 1 1687.2708 940.5291)" class="st7 st8">status</text>
	<rect x="1455.22" y="1571.84" class="st4" width="157" height="18.9"/>
	<text transform="matrix(0.9696 0 0 1 1500 1588.1174)" class="st7 st8">update</text>
	<rect x="1458.27" y="464.2" class="st4" width="157" height="18.9"/>
	<text transform="matrix(0.9696 0 0 1 1502.0833 480.4791)" class="st7 st8">disable</text>
	<rect x="1456.68" y="1116.66" class="st4" width="157" height="18.9"/>
	<text transform="matrix(0.9696 0 0 1 1519.9512 1132.9368)" class="st7 st8">get</text>
	<rect x="1456.68" y="1208.66" class="st4" width="157" height="18.9"/>
	<text transform="matrix(0.9696 0 0 1 1464.0977 1224.9368)" class="st7 st8">proxy-protocol</text>
	<rect x="1277.68" y="1184.66" class="st4" width="157" height="18.9"/>
	<text transform="matrix(0.9696 0 0 1 1347.0947 1200.9368)" class="st7 st8">lb</text>
	<rect x="1634.27" y="1181.32" class="st4" width="157" height="18.9"/>
	<text transform="matrix(0.9696 0 0 1 1678.0833 1197.6042)" class="st7 st8">disable</text>
	<rect x="1634.27" y="1245.32" class="st4" width="157" height="56.9"/>
	<text transform="matrix(0.9696 0 0 1 1680.2161 1261.6049)" class="st7 st8">enable</text>
	<rect x="670.96" y="1051.26" class="st4" width="259" height="18.98"/>
	<text transform="matrix(0.9696 0 0 1 742.4675 1066.7982)" class="st7 st10">allowlist add</text>
	<rect x="670.96" y="1121.65" class="st4" width="257.36" height="18.9"/>
	<text transform="matrix(0.9696 0 0 1 725.7868 1137.1859)" class="st7 st10">allowlist disable</text>
	<rect x="672.59" y="1189.65" class="st4" width="257.36" height="18.9"/>
	<text transform="matrix(0.9696 0 0 1 729.4621 1205.1859)" class="st7 st10">allowlist enable</text>
	<rect x="671.96" y="1257.26" class="st4" width="259" height="18.98"/>
	<text transform="matrix(0.9696 0 0 1 746.1755 1272.7982)" class="st7 st10">allowlist get</text>
	<rect x="671.96" y="1327.65" class="st4" width="257.36" height="18.9"/>
	<text transform="matrix(0.9696 0 0 1 747.2702 1343.1859)" class="st7 st10">allowlist rm</text>
	<rect x="673.59" y="1395.65" class="st4" width="257.36" height="18.9"/>
	<text transform="matrix(0.9696 0 0 1 771.2043 1411.1859)" class="st7 st10">enable</text>
	<rect x="300.42" y="3114.49" class="st4" width="157" height="18.9"/>
	<text transform="matrix(0.9696 0 0 1 355.3853 3130.7661)" class="st7 st8">label</text>
	<rect x="479.43" y="3080.44" class="st4" width="157" height="18.9"/>
	<text transform="matrix(0.9696 0 0 1 544.704 3096.7163)" class="st7 st8">rm</text>
	<rect x="479.42" y="3143.54" class="st4" width="157" height="18.9"/>
	<text transform="matrix(0.9696 0 0 1 543.1246 3159.8159)" class="st7 st8">set</text>
	<rect x="479.42" y="2952.52" class="st4" width="157" height="18.9"/>
	<text transform="matrix(0.9696 0 0 1 512.9263 2968.7981)" class="st7 st8">vpc-gen2</text>
	<rect x="479.61" y="3677.03" class="st4" width="157" height="18.9"/>
	<text transform="matrix(0.9696 0 0 1 513.1178 3693.3086)" class="st7 st8">vpc-gen2</text>
	<rect x="485.51" y="365.94" class="st4" width="157" height="18.9"/>
	<text transform="matrix(0.9696 0 0 1 555.9137 382.2233)" class="st7 st8">ls</text>
	<rect x="485.51" y="432.16" class="st4" width="157" height="18.9"/>
	<text transform="matrix(0.9696 0 0 1 528.2159 448.4359)" class="st7 st8">options</text>
</g>
</svg>
