<?xml version="1.0" encoding="UTF-8"?><svg xmlns="http://www.w3.org/2000/svg" viewBox="0 0 1115.33 686.25"><defs><style>.cls-1{fill:#687985;}.cls-2,.cls-3,.cls-4,.cls-5,.cls-6,.cls-7,.cls-8{stroke-miterlimit:10;}.cls-2,.cls-3,.cls-4,.cls-6,.cls-8{fill:none;}.cls-2,.cls-5{stroke:#2d3f49;}.cls-3{stroke:#00b39f;stroke-dasharray:8;}.cls-3,.cls-6,.cls-7,.cls-8{stroke-width:2px;}.cls-4{stroke-width:3px;}.cls-4,.cls-6{stroke:#87c3eb;}.cls-5{fill:#2d3f49;}.cls-9{letter-spacing:0em;}.cls-10,.cls-11,.cls-12{fill:#fff;}.cls-13{letter-spacing:0em;}.cls-14{letter-spacing:0em;}.cls-15{letter-spacing:0em;}.cls-16{letter-spacing:0em;}.cls-11,.cls-12,.cls-17,.cls-18,.cls-19{font-family:IBMPlexSans, 'IBM Plex Sans';}.cls-11,.cls-17{font-size:20px;}.cls-7,.cls-8{stroke:#734199;}.cls-12,.cls-19{font-size:20.18px;}.cls-20{letter-spacing:-.02em;}.cls-21{letter-spacing:-.02em;}.cls-22{letter-spacing:-.01em;}.cls-23{letter-spacing:-.01em;}.cls-24{letter-spacing:-.02em;}.cls-25{letter-spacing:-.02em;}.cls-26{letter-spacing:0em;}.cls-18{font-size:24px;}.cls-27{letter-spacing:0em;}.cls-28{letter-spacing:0em;}.cls-29{letter-spacing:0em;}.cls-30{letter-spacing:0em;}.cls-31{letter-spacing:0em;}.cls-32{letter-spacing:0em;}.cls-33{letter-spacing:0em;}.cls-34{letter-spacing:0em;}.cls-35{letter-spacing:0em;}.cls-36{letter-spacing:0em;}.cls-37{letter-spacing:0em;}.cls-38{letter-spacing:0em;}.cls-39{letter-spacing:0em;}.cls-40{letter-spacing:0em;}.cls-41{fill:#4278bd;}.cls-42{letter-spacing:0em;}.cls-43{letter-spacing:.01em;}</style></defs><g id="Layer_1"><rect class="cls-5" x="316.47" y="563.82" width="479.32" height="49.77" rx="12" ry="12"/><rect class="cls-2" x="316.47" y="516.76" width="479.32" height="36.49" rx="12" ry="12"/><rect class="cls-5" x="874.34" y="564.46" width="225.04" height="49.77" rx="12" ry="12"/><rect class="cls-2" x="874.34" y="517.4" width="225.04" height="36.49" rx="12" ry="12"/><rect class="cls-5" x="11.91" y="565.45" width="116.62" height="49.77" rx="12" ry="12"/><rect class="cls-41" x="892.76" y="240.96" width="191.43" height="153.42" rx="12" ry="12"/><rect class="cls-10" x="905.85" y="277.39" width="165.25" height="101.12" rx="12" ry="12"/><rect class="cls-6" x="921.39" y="304.72" width="134.18" height="65.2" rx="12" ry="12"/><rect class="cls-1" x="949.07" y="334.24" width="78.81" height="30.1" rx="12" ry="12"/><rect class="cls-3" x="873.96" y="33.76" width="233.86" height="375.98" rx="12" ry="12"/><rect class="cls-41" x="895.17" y="74.56" width="191.43" height="153.42" rx="12" ry="12"/><rect class="cls-10" x="908.26" y="110.21" width="165.25" height="101.12" rx="12" ry="12"/><rect class="cls-6" x="923.8" y="137.53" width="134.18" height="65.2" rx="12" ry="12"/><rect class="cls-1" x="956.1" y="167.06" width="78.81" height="30.1" rx="12" ry="12"/><rect class="cls-4" x="872.46" y="432.6" width="99.86" height="65.2" rx="12" ry="12"/><rect class="cls-4" x="999.14" y="432.6" width="99.86" height="65.2" rx="12" ry="12"/><line class="cls-4" x1="895.17" y1="147.57" x2="884.09" y2="147.57"/><line class="cls-4" x1="885.07" y1="432.6" x2="885.07" y2="147.57"/><line class="cls-4" x1="1092.65" y1="432.6" x2="1092.65" y2="317.67"/><line class="cls-4" x1="1084.19" y1="317.67" x2="1093.82" y2="317.67"/><rect class="cls-41" x="30.4" y="242.99" width="191.43" height="153.42" rx="12" ry="12"/><rect class="cls-10" x="43.49" y="279.42" width="165.25" height="101.12" rx="12" ry="12"/><rect class="cls-6" x="59.03" y="306.75" width="134.18" height="65.2" rx="12" ry="12"/><rect class="cls-1" x="86.71" y="336.28" width="78.81" height="30.1" rx="12" ry="12"/><rect class="cls-3" x="11.6" y="35.8" width="233.86" height="375.98" rx="12" ry="12"/><rect class="cls-41" x="32.81" y="76.59" width="191.43" height="153.42" rx="12" ry="12"/><rect class="cls-10" x="45.9" y="112.24" width="165.25" height="101.12" rx="12" ry="12"/><rect class="cls-6" x="61.44" y="139.57" width="134.18" height="65.2" rx="12" ry="12"/><rect class="cls-1" x="93.74" y="169.09" width="78.81" height="30.1" rx="12" ry="12"/><line class="cls-4" x1="32.81" y1="149.61" x2="21.73" y2="149.61"/><line class="cls-4" x1="23.91" y1="565.45" x2="22.71" y2="149.61"/><line class="cls-4" x1="231.46" y1="566.09" x2="233.26" y2="319.73"/><line class="cls-4" x1="221.83" y1="319.3" x2="233.26" y2="319.73"/><rect class="cls-5" x="137.31" y="565.45" width="116.62" height="49.77" rx="12" ry="12"/><line class="cls-8" x1="264.33" y1="638.66" x2="264.33" y2="616.59"/><line class="cls-7" x1="1" y1="638.66" x2="264.33" y2="638.66"/><line class="cls-8" x1="1" y1="618.21" x2="1" y2="638.66"/><line class="cls-8" x1="132.67" y1="638.25" x2="132.67" y2="655.59"/><line class="cls-8" x1="1114.33" y1="637.49" x2="1114.33" y2="615.42"/><line class="cls-7" x1="305.46" y1="637.49" x2="1114.33" y2="637.49"/><line class="cls-8" x1="305.46" y1="617.04" x2="305.46" y2="637.49"/><line class="cls-8" x1="714.33" y1="637.08" x2="714.33" y2="654.42"/><rect class="cls-3" x="564.33" y="35.45" width="241.33" height="205.02" rx="12" ry="12"/><rect class="cls-41" x="585.62" y="75.83" width="196.89" height="154.8" rx="12" ry="12"/><rect class="cls-10" x="598.08" y="112.59" width="169.97" height="102.03" rx="12" ry="12"/><rect class="cls-6" x="614.06" y="140.16" width="138.01" height="65.79" rx="12" ry="12"/><rect class="cls-1" x="642.53" y="169.95" width="81.06" height="30.37" rx="12" ry="12"/><rect class="cls-41" x="335.28" y="242.47" width="191.43" height="153.42" rx="12" ry="12"/><rect class="cls-10" x="348.37" y="278.9" width="165.25" height="101.12" rx="12" ry="12"/><rect class="cls-6" x="363.9" y="306.23" width="134.18" height="65.2" rx="12" ry="12"/><rect class="cls-1" x="391.59" y="335.76" width="78.81" height="30.1" rx="12" ry="12"/><rect class="cls-3" x="316.47" y="35.27" width="233.86" height="375.98" rx="12" ry="12"/><rect class="cls-41" x="337.69" y="76.07" width="191.43" height="153.42" rx="12" ry="12"/><rect class="cls-10" x="350.78" y="111.72" width="165.25" height="101.12" rx="12" ry="12"/><rect class="cls-6" x="366.31" y="139.05" width="134.18" height="65.2" rx="12" ry="12"/><rect class="cls-1" x="398.61" y="168.57" width="78.81" height="30.1" rx="12" ry="12"/><rect class="cls-4" x="314.97" y="434.12" width="99.86" height="65.2" rx="12" ry="12"/><rect class="cls-4" x="441.65" y="434.12" width="99.86" height="65.2" rx="12" ry="12"/><rect class="cls-4" x="633.34" y="434.12" width="99.86" height="65.2" rx="12" ry="12"/><line class="cls-4" x1="337.69" y1="149.09" x2="326.6" y2="149.09"/><line class="cls-4" x1="327.58" y1="434.12" x2="327.58" y2="149.09"/><line class="cls-4" x1="535.17" y1="434.12" x2="535.17" y2="319.18"/><line class="cls-4" x1="526.71" y1="319.18" x2="536.33" y2="319.18"/><line class="cls-4" x1="683.27" y1="434.12" x2="683.27" y2="230.63"/></g><g id="Text"><text class="cls-11" transform="translate(491.58 596.82)"><tspan x="0" y="0">Sha</tspan><tspan class="cls-28" x="33.66" y="0">r</tspan><tspan class="cls-13" x="40.9" y="0">ed ha</tspan><tspan class="cls-26" x="90.24" y="0">r</tspan><tspan x="97.46" y="0">d</tspan><tspan class="cls-36" x="109.06" y="0">w</tspan><tspan class="cls-13" x="124.24" y="0">a</tspan><tspan class="cls-27" x="134.92" y="0">r</tspan><tspan class="cls-13" x="142.16" y="0">e</tspan></text><text class="cls-17" transform="translate(513.62 543.15)"><tspan x="0" y="0">Hype</tspan><tspan class="cls-43" x="46.7" y="0">r</tspan><tspan x="54.24" y="0">visor</tspan></text><text class="cls-11" transform="translate(899.79 596.82)"><tspan x="0" y="0">Dedica</tspan><tspan class="cls-31" x="61.74" y="0">t</tspan><tspan x="68.68" y="0">ed ha</tspan><tspan class="cls-26" x="118.02" y="0">r</tspan><tspan x="125.24" y="0">d</tspan><tspan class="cls-35" x="136.84" y="0">w</tspan><tspan x="152.02" y="0">a</tspan><tspan class="cls-29" x="162.7" y="0">r</tspan><tspan x="169.94" y="0">e</tspan></text><text class="cls-17" transform="translate(939.78 543.15)"><tspan x="0" y="0">Hype</tspan><tspan class="cls-43" x="46.7" y="0">r</tspan><tspan x="54.24" y="0">visor</tspan></text><text class="cls-11" transform="translate(21.73 595.97)"><tspan x="0" y="0">Ba</tspan><tspan class="cls-29" x="23.74" y="0">r</tspan><tspan x="30.98" y="0">e metal</tspan></text><text class="cls-17" transform="translate(912.84 16.98)"><tspan x="0" y="0">IBM Cu</tspan><tspan class="cls-37" x="65.8" y="0">s</tspan><tspan class="cls-33" x="75.4" y="0">t</tspan><tspan class="cls-16" x="82.34" y="0">omer 1</tspan></text><text class="cls-11" transform="translate(921.51 266.91)"><tspan class="cls-23" x="0" y="0">W</tspan><tspan x="17.52" y="0">or</tspan><tspan class="cls-24" x="36.06" y="0">k</tspan><tspan x="46.26" y="0">er Node 2</tspan></text><text class="cls-17" transform="translate(971.22 297.99)"><tspan class="cls-21" x="0" y="0">P</tspan><tspan x="11.72" y="0">od</tspan></text><text class="cls-17" transform="translate(944.8 326.19)"><tspan x="0" y="0">Container</tspan></text><text class="cls-11" transform="translate(970.47 354.4)"><tspan x="0" y="0">App</tspan></text><text class="cls-11" transform="translate(928.54 100.51)"><tspan class="cls-23" x="0" y="0">W</tspan><tspan x="17.52" y="0">or</tspan><tspan class="cls-24" x="36.06" y="0">k</tspan><tspan x="46.26" y="0">er Node 1</tspan></text><text class="cls-17" transform="translate(978.25 130.8)"><tspan class="cls-21" x="0" y="0">P</tspan><tspan x="11.72" y="0">od</tspan></text><text class="cls-17" transform="translate(951.83 159.01)"><tspan x="0" y="0">Container</tspan></text><text class="cls-11" transform="translate(977.5 187.22)"><tspan x="0" y="0">App</tspan></text><text class="cls-17" transform="translate(964.64 61.02)"><tspan x="0" y="0">Clu</tspan><tspan class="cls-38" x="29.22" y="0">s</tspan><tspan class="cls-32" x="38.82" y="0">t</tspan><tspan class="cls-9" x="45.76" y="0">er</tspan></text><text class="cls-17" transform="translate(907.34 473.6)"><tspan x="0" y="0">VM</tspan></text><text class="cls-17" transform="translate(1034.02 473.6)"><tspan x="0" y="0">VM</tspan></text><text class="cls-17" transform="translate(50.48 19.01)"><tspan x="0" y="0">IBM Cu</tspan><tspan class="cls-37" x="65.8" y="0">s</tspan><tspan class="cls-33" x="75.4" y="0">t</tspan><tspan class="cls-16" x="82.34" y="0">omer 1</tspan></text><text class="cls-11" transform="translate(59.15 268.94)"><tspan class="cls-23" x="0" y="0">W</tspan><tspan x="17.52" y="0">or</tspan><tspan class="cls-24" x="36.06" y="0">k</tspan><tspan x="46.26" y="0">er Node 2</tspan></text><text class="cls-17" transform="translate(108.86 300.02)"><tspan class="cls-21" x="0" y="0">P</tspan><tspan x="11.72" y="0">od</tspan></text><text class="cls-17" transform="translate(82.44 328.23)"><tspan x="0" y="0">Container</tspan></text><text class="cls-11" transform="translate(108.11 356.43)"><tspan x="0" y="0">App</tspan></text><text class="cls-11" transform="translate(66.18 102.54)"><tspan class="cls-23" x="0" y="0">W</tspan><tspan x="17.52" y="0">or</tspan><tspan class="cls-24" x="36.06" y="0">k</tspan><tspan x="46.26" y="0">er Node 1</tspan></text><text class="cls-17" transform="translate(115.89 132.84)"><tspan class="cls-21" x="0" y="0">P</tspan><tspan x="11.72" y="0">od</tspan></text><text class="cls-17" transform="translate(89.47 161.05)"><tspan x="0" y="0">Container</tspan></text><text class="cls-11" transform="translate(115.14 189.25)"><tspan x="0" y="0">App</tspan></text><text class="cls-17" transform="translate(102.28 63.06)"><tspan x="0" y="0">Clu</tspan><tspan class="cls-38" x="29.22" y="0">s</tspan><tspan class="cls-32" x="38.82" y="0">t</tspan><tspan class="cls-9" x="45.76" y="0">er</tspan></text><text class="cls-11" transform="translate(147.13 595.97)"><tspan x="0" y="0">Ba</tspan><tspan class="cls-29" x="23.74" y="0">r</tspan><tspan x="30.98" y="0">e metal</tspan></text><text class="cls-18" transform="translate(38.01 678.88)"><tspan x="0" y="0">P</tspan><tspan class="cls-40" x="14.54" y="0">h</tspan><tspan class="cls-30" x="27.98" y="0">y</tspan><tspan class="cls-14" x="39.86" y="0">sical machines</tspan></text><text class="cls-18" transform="translate(626.06 677.71)"><tspan x="0" y="0">Vi</tspan><tspan class="cls-42" x="20.62" y="0">r</tspan><tspan x="29.52" y="0">tual machines</tspan></text><text class="cls-11" transform="translate(614.8 101.88) scale(1.02 1)"><tspan class="cls-22" x="0" y="0">W</tspan><tspan x="17.52" y="0">or</tspan><tspan class="cls-25" x="36.06" y="0">k</tspan><tspan x="46.26" y="0">er Node 1</tspan></text><text class="cls-19" transform="translate(665.31 133.37) scale(1.02 1)"><tspan class="cls-20" x="0" y="0">P</tspan><tspan x="11.83" y="0">od</tspan></text><text class="cls-19" transform="translate(638.14 161.83) scale(1.02 1)"><tspan x="0" y="0">Container</tspan></text><text class="cls-12" transform="translate(664.54 190.29) scale(1.02 1)"><tspan x="0" y="0">App</tspan></text><text class="cls-19" transform="translate(653.4 62.96) scale(1.02 1)"><tspan x="0" y="0">Clu</tspan><tspan class="cls-39" x="29.48" y="0">s</tspan><tspan class="cls-34" x="39.17" y="0">t</tspan><tspan class="cls-15" x="46.17" y="0">er</tspan></text><text class="cls-17" transform="translate(355.36 18.49)"><tspan x="0" y="0">IBM Cu</tspan><tspan class="cls-37" x="65.8" y="0">s</tspan><tspan class="cls-33" x="75.4" y="0">t</tspan><tspan class="cls-16" x="82.34" y="0">omer 1</tspan></text><text class="cls-11" transform="translate(364.02 268.42)"><tspan class="cls-23" x="0" y="0">W</tspan><tspan x="17.52" y="0">or</tspan><tspan class="cls-24" x="36.06" y="0">k</tspan><tspan x="46.26" y="0">er Node 2</tspan></text><text class="cls-17" transform="translate(413.73 299.5)"><tspan class="cls-21" x="0" y="0">P</tspan><tspan x="11.72" y="0">od</tspan></text><text class="cls-17" transform="translate(387.31 327.71)"><tspan x="0" y="0">Container</tspan></text><text class="cls-11" transform="translate(412.98 355.91)"><tspan x="0" y="0">App</tspan></text><text class="cls-11" transform="translate(371.05 102.02)"><tspan class="cls-23" x="0" y="0">W</tspan><tspan x="17.52" y="0">or</tspan><tspan class="cls-24" x="36.06" y="0">k</tspan><tspan x="46.26" y="0">er Node 1</tspan></text><text class="cls-17" transform="translate(420.76 132.32)"><tspan class="cls-21" x="0" y="0">P</tspan><tspan x="11.72" y="0">od</tspan></text><text class="cls-17" transform="translate(394.34 160.52)"><tspan x="0" y="0">Container</tspan></text><text class="cls-11" transform="translate(420.01 188.73)"><tspan x="0" y="0">App</tspan></text><text class="cls-17" transform="translate(407.16 62.53)"><tspan x="0" y="0">Clu</tspan><tspan class="cls-38" x="29.22" y="0">s</tspan><tspan class="cls-32" x="38.82" y="0">t</tspan><tspan class="cls-9" x="45.76" y="0">er</tspan></text><text class="cls-17" transform="translate(611.36 17.49)"><tspan x="0" y="0">IBM Cu</tspan><tspan class="cls-37" x="65.8" y="0">s</tspan><tspan class="cls-33" x="75.4" y="0">t</tspan><tspan class="cls-16" x="82.34" y="0">omer 2</tspan></text><text class="cls-17" transform="translate(349.86 475.12)"><tspan x="0" y="0">VM</tspan></text><text class="cls-17" transform="translate(476.54 475.12)"><tspan x="0" y="0">VM</tspan></text><text class="cls-17" transform="translate(668.23 475.12)"><tspan x="0" y="0">VM</tspan></text></g></svg>