<?xml version="1.0" encoding="UTF-8"?><svg id="Layer_1" xmlns="http://www.w3.org/2000/svg" xmlns:xlink="http://www.w3.org/1999/xlink" viewBox="0 0 811.34 401.86"><defs><style>.cls-1,.cls-2,.cls-3{fill:none;}.cls-4{fill:#f2f5f7;stroke:#8e8e8e;stroke-miterlimit:8;}.cls-4,.cls-5{fill-rule:evenodd;}.cls-4,.cls-3,.cls-6{stroke-width:.5px;}.cls-7{fill:#848b8f;}.cls-5{fill:#d1d2d3;}.cls-8,.cls-9,.cls-10,.cls-11,.cls-12,.cls-13,.cls-14{fill:#fff;}.cls-8,.cls-15{font-size:8px;}.cls-8,.cls-15,.cls-16,.cls-17{font-family:IBMPlexSans, 'IBM Plex Sans';}.cls-18{clip-path:url(#clippath-1);}.cls-19{clip-path:url(#clippath-2);}.cls-2{stroke:#7a7b7c;}.cls-2,.cls-10,.cls-3,.cls-11,.cls-6,.cls-20,.cls-12,.cls-13,.cls-14{stroke-miterlimit:10;}.cls-16{font-size:8.19px;}.cls-10{stroke:#00b39f;stroke-dasharray:6;}.cls-3{stroke-linecap:round;}.cls-3,.cls-6,.cls-20{stroke:#272e39;}.cls-11{stroke:#868687;}.cls-6,.cls-20{fill:#f50411;}.cls-21{fill:#1d232f;font-family:MyriadPro-Regular, 'Myriad Pro';}.cls-21,.cls-17,.cls-22{font-size:10px;}.cls-20{stroke-width:.25px;}.cls-23{letter-spacing:-.02em;}.cls-24{letter-spacing:-.02em;}.cls-25{letter-spacing:0em;}.cls-26{letter-spacing:0em;}.cls-27{letter-spacing:0em;}.cls-28{letter-spacing:0em;}.cls-29{letter-spacing:0em;}.cls-12{stroke:#6182bb;}.cls-30{letter-spacing:-.01em;}.cls-31{letter-spacing:0em;}.cls-32{letter-spacing:0em;}.cls-13{stroke:#4278bd;}.cls-33{letter-spacing:0em;}.cls-34{fill:#4278bd;}.cls-35{clip-path:url(#clippath);}.cls-36{letter-spacing:0em;}.cls-22{font-family:IBMPlexSans-Bold, 'IBM Plex Sans';font-weight:700;}.cls-14{stroke:#5aaafa;}</style><clipPath id="clippath"><rect class="cls-1" y="33.52" width="254.41" height="171.31"/></clipPath><clipPath id="clippath-1"><rect class="cls-1" x="269" y="43.52" width="254.41" height="171.31"/></clipPath><clipPath id="clippath-2"><rect class="cls-1" x="517" y="47.52" width="254.41" height="171.31"/></clipPath></defs><polygon class="cls-5" points="692.22 72.73 703.91 151.11 644.75 98.38 692.22 72.73"/><polygon class="cls-5" points="288.83 121.39 420.6 177.89 280.16 149.03 288.83 121.39"/><polygon class="cls-5" points="649.34 122.69 709 161.93 637.63 159.42 649.34 122.69"/><polygon class="cls-5" points="376.2 112.56 425.09 178.2 347.9 150.97 376.2 112.56"/><polygon class="cls-5" points="151.46 107.37 156.19 166.86 102.34 141.16 151.46 107.37"/><path class="cls-7" d="M166.63,136.73c1.67-.22,4.4.08,6.06.67,2.01.72,2.45,1.09,1.32,1.11-1.76.04-4.74,3.62-3.59,4.33.36.22.49,1.5.3,2.83s.08,2.96.62,3.6c1.44,1.73,2.39.7,2.39-2.63,0-3.52,2.35-7.51,3.86-6.58.57.35.91,1.13.77,1.74-.14.61.1,1.25.54,1.41s1.26.98,1.84,1.8c1.31,1.88,2.53,1.2,2.53-1.41,0-1.09.33-1.78.74-1.53,1.17.72,1.88-1.11.89-2.3-.49-.59-2.4-1.3-4.26-1.58-2.75-.41-3.56-.94-4.42-2.89-.58-1.31-2.13-2.94-3.45-3.62-2.24-1.16-2.5-1.13-4.1.36-.94.88-2.71,1.98-3.94,2.45-3.17,1.2-1.87,2.72,1.9,2.21ZM164.97,135.34c1.09-.47,2.74-1.57,3.66-2.44,1.43-1.34,1.98-1.44,3.74-.64,1.13.52,2.61,2.1,3.29,3.52,1.03,2.16,1.83,2.7,4.94,3.27,2.04.38,3.87,1.14,4.05,1.7.19.56-.12.92-.69.79-.59-.13-1.23.8-1.5,2.16q-.47,2.38-1.48.57c-.55-1-1.31-1.62-1.68-1.39-.37.23-.5-.26-.28-1.1.26-.99-.16-1.82-1.19-2.37-1.33-.71-1.82-.5-3.03,1.32-.79,1.19-1.64,3.78-1.87,5.75-.27,2.27-.67,3.21-1.08,2.57-.36-.56-.55-1.99-.42-3.18.13-1.19,0-2.53-.27-2.97-.69-1.12,1.08-3.32,2.96-3.69,4.52-.87-2.5-3.89-7.81-3.36-2.95.3-3.11.23-1.35-.53Z"/><path class="cls-7" d="M179.74,150.56c.75,1.21,2.21.75,5.45-1.7,1.72-1.3,3.77-2.36,4.57-2.36,1.72,0,4.88-2.93,4.25-3.95-.24-.39-2.67.43-5.4,1.82-6.61,3.38-9.41,5.33-8.88,6.19ZM188.58,145.12c3.12-1.57,4.76-2.07,4.49-1.36-.24.61-1.62,1.45-3.08,1.85-1.46.4-3.87,1.66-5.36,2.8-1.49,1.14-3.17,2.06-3.73,2.06-1.54,0,2.14-2.56,7.69-5.35Z"/><path class="cls-7" d="M236.68,134.03c0-.19.05-.47.17-.82.7-2.21-2.02-4.53-4.44-3.78-1.8.56-1.81.54-.4-1.04,2.64-2.96-.01-2.6-3.35.45-1.45,1.33-2.24,2.11-2.55,2.73.06.42.07.85.03,1.27.08.15.19.31.32.49,1.07,1.46,2.6,1.44,6.55-.08.98-.38,1.22-.25.8.43-.33.53-.36,1.58-.07,2.32.49,1.26.6,1.25,1.58-.09.33-.45.64-.73.9-.84.12-.37.27-.72.47-1.05ZM235.34,134.32c-1.09,1.89-1.23,1.96-.92.45.49-2.38-.24-2.69-3.78-1.6-5.37,1.65-4.96-1.56.72-5.74,1.55-1.14,1.55-1.12.2.47-1.63,1.92-1.07,2.85,1.37,2.24,1.03-.26,2.13.05,2.72.76.8.96.74,1.63-.3,3.43Z"/><rect class="cls-12" x="111.12" y="158.82" width="42.05" height="13.84" rx="1.47" ry="1.47"/><text class="cls-21" transform="translate(112.23 169.01)"><tspan x="0" y="0">US </tspan><tspan class="cls-36" x="13.52" y="0">S</tspan><tspan x="18.51" y="0">outh</tspan></text><line class="cls-3" x1="192.36" y1="155.68" x2="191.79" y2="149.53"/><circle class="cls-20" cx="191.67" cy="148.24" r="1.68"/><line class="cls-3" x1="192.13" y1="155.72" x2="190.38" y2="149.79"/><circle class="cls-20" cx="190.02" cy="148.55" r="1.68"/><line class="cls-3" x1="185.43" y1="145.04" x2="187.17" y2="138.08"/><circle class="cls-6" cx="187.54" cy="136.62" r="1.95"/><line class="cls-3" x1="156.61" y1="175.78" x2="156.04" y2="169.63"/><circle class="cls-20" cx="155.92" cy="168.34" r="1.68"/><line class="cls-3" x1="156.38" y1="175.82" x2="154.63" y2="169.9"/><circle class="cls-20" cx="154.27" cy="168.65" r="1.68"/><line class="cls-3" x1="157.07" y1="175.7" x2="158.13" y2="169.62"/><circle class="cls-20" cx="158.35" cy="168.34" r="1.68"/><line class="cls-3" x1="194.91" y1="138.16" x2="196.65" y2="131.2"/><circle class="cls-6" cx="197.02" cy="129.74" r="1.95"/><g class="cls-35"><path class="cls-7" d="M270.29,260.85c-1.54-.91-3.14-2.29-3.56-3.06-.56-1.05-2.02-1.49-5.74-1.75-4.28-.29-5.37-.7-7.66-2.88-3.21-3.05-5.06-3.2-6.8-.55-.89,1.37-1.98,1.96-3.47,1.91-2.13-.08-2.13-.09-.26-.61,2.56-.72,3.94-2.91,2.65-4.21-.76-.76-1.48-.59-3.36.8-1.31.97-2.38,1.49-2.37,1.15.04-.97,2.34-3.79,3.19-3.9.42-.05,1-.14,1.28-.2.29-.05-.13-.81-.92-1.69-.79-.87-1.22-1.59-.96-1.59s.03-1.07-.52-2.39c-1.41-3.35-5.76-6.36-9.19-6.36-2.2,0-3.45-.65-5.74-2.98-1.61-1.64-3.66-3.65-4.55-4.48-.9-.82-1.55-1.88-1.46-2.36s-1.09-1.06-2.62-1.29-2.69-.69-2.58-1.02c.11-.33.02-.6-.2-.6h-.89c-.27,0-.05.54.49,1.19.83.99.72,1.19-.65,1.19-.9,0-1.87-.37-2.14-.82s-.92-.75-1.44-.67c-1.38.22-3.98-1.03-5.09-2.44-.87-1.1-1.04-1.04-1.47.49-.27.95-.99,1.93-1.6,2.16-1.32.51-1.47-.44-.25-1.66.62-.62.6-1.02-.06-1.44-.53-.32-1.87.33-3.11,1.51-1.2,1.15-2.41,1.85-2.7,1.56-.89-.89-2.82,1.28-3.37,3.8l-.53,2.4-1.93-1.81c-1.74-1.63-2.25-1.73-5.11-.96-2.97.79-3.29.71-4.83-1.23-1.42-1.8-1.58-2.76-1.15-7.03l.5-4.95-2.63-1.1c-1.45-.6-3.8-.93-5.23-.72-2.51.37-2.58.31-2.05-1.9.3-1.26.82-2.64,1.16-3.08.34-.44.73-2.4.88-4.37l.27-3.58-2.97.09c-3.69.11-5.38,1.45-5.38,4.28,0,1.96-.34,2.23-3.33,2.63-4.27.57-5.81-.3-7.79-4.39-1.56-3.23-2.18-10.1-1.02-11.26.32-.31.48-1.72.37-3.11-.16-2.11.25-2.82,2.41-4.2,2.74-1.75,3.38-1.78,9.75-.48,4.46.91,5.72.56,4.28-1.17-1.34-1.61.59-2.86,3.29-2.13,1.09.3,2.92.5,4.06.45,2.24-.1,3.79,1.9,4.17,5.4.28,2.58,2.77,6.35,4.21,6.35,1.95,0,2.04-2.08.34-8.13-.91-3.23-1.65-6.32-1.65-6.86s1.97-2.93,4.37-5.32,4.1-4.35,3.78-4.36c-.33-.01.04-.39.81-.84s1.22-1.13.98-1.51c-.23-.38-.06-.92.38-1.19.54-.34.55-.99.01-1.99-.44-.82-.76-2.5-.72-3.73q.08-2.23.63-.25c.66,2.39,1.89,2.25,2.56-.28.83-3.11,3.19-6.08,4.82-6.08.85,0,2.27-.38,3.14-.85,1.28-.69,1.4-1.07.63-2.01-1.23-1.48.24-5.09,2.07-5.09.68,0,2.64-.72,4.36-1.59,3.92-2,4.6-2.01,2.81-.03-.83.92-1.2,2.11-.9,2.9.47,1.23.66,1.21,2.28-.2.97-.85,3.11-2.15,4.75-2.89,1.64-.74,2.98-1.73,2.98-2.2s.33-.65.74-.4c1.22.75,1.86-1.14.82-2.39-.06-.07-.12-.13-.18-.19-.68.55-1.55.92-2.62,1-.02.02-.04.04-.06.06-1.68,1.81-4.15,2.1-3.07.36.23-.38.08-.89-.33-1.15-.41-.26-.96-.12-1.22.3-.26.42-1.27-.02-2.24-.98-1.74-1.71-1.74-1.75-.18-2.18.9-.25,1.59-1.11,1.59-1.99,0-2.45-5.42-1.97-8.24.73-2.6,2.49-4.19,2.82-2.02.42,3.41-3.78,5.91-4.87,12.5-5.47,5.83-.53,9.7-1.46,13.26-3.18.69-.34,1.19-1.65,1.19-3.13,0-3.81-1.66-4.94-5.37-3.66-1.64.57-2.98.71-2.98.31s1.08-.94,2.4-1.2c2.93-.59,3.77-1.69,1.82-2.4-.79-.29-2.43-1.2-3.63-2.04-1.2-.83-2.2-1.22-2.21-.86-.01.36-.44-.07-.95-.94-.51-.87-.76-1.65-.57-1.72s-.47-1.01-1.47-2.07c-1-1.07-2.01-2.96-2.23-4.21-.76-4.18-1.9-4.67-4.42-1.92-1.24,1.36-2.63,2.24-3.09,1.96s-1.26-.18-1.79.22c-1.75,1.34-4.33-2.66-2.75-4.24,1.18-1.18.56-2.77-1.37-3.5-1.08-.41-2.72-1.61-3.63-2.66-1.38-1.58-2.36-1.89-5.77-1.82-3.89.09-4.19.24-5.43,2.87-.93,1.97-1.09,3.21-.55,4.22.52.98.47,1.81-.18,2.58-.52.63-.68,1.14-.36,1.14s.19.49-.3,1.08c-.68.82-.52,1.56.7,3.11,1.96,2.49,2.03,5.17.21,7.76-.89,1.27-1.42,3.63-1.49,6.63-.14,5.88-1.21,6.61-4.83,3.3-2.51-2.3-2.76-2.91-2.51-6.04l.28-3.48-3.9-.56c-2.51-.36-5.38-1.59-8.05-3.43-2.29-1.57-4.65-2.76-5.24-2.63-.67.14-.99-.33-.84-1.22.34-1.99-1.19-3.63-2.95-3.17-1.02.27-1.59-.17-1.93-1.45-.55-2.1,3.42-8.94,5.98-10.31.85-.46,1.37-1.31,1.14-1.9-.46-1.2,1.33-2.15,2.92-1.54,1.12.43,5.31-2.47,5.31-3.67,0-.39-1.16-1.05-2.58-1.46l-2.58-.75,2.98-.07c2.83-.07,2.98.06,2.98,2.42,0,1.4-.58,2.92-1.32,3.46-1.16.85-1,1.12,1.39,2.32,2.65,1.33,2.74,1.32,4.34-.54,1.49-1.73,1.79-1.8,3.38-.74.17.12.33.22.48.3.66,0,1.24.12,1.77.31.21-.09.43-.24.67-.44,1.02-.85.89-1.29-.99-3.28-1.19-1.26-3.31-2.51-4.7-2.77-3.02-.57-4.3-2.7-1.62-2.71,1.92,0,6.93-2.75,6.93-3.81,0-.36-.51-1.35-1.13-2.2-.84-1.15-.9-1.81-.24-2.61,1.74-2.09-5.64-5.58-7.62-3.6-.28.28-.16,1.15.27,1.94.83,1.54-.33,2.99-1.22,1.53-.28-.45-.85-.61-1.26-.36-.41.26-.54.8-.29,1.22.26.41.8.55,1.21.3,1.17-.72.86.93-.36,1.94-1.2.99-2.08-.3-2.08-3.04,0-.77-.67-2.01-1.5-2.76-1.43-1.29-1.58-1.25-3.18.78-1.63,2.07-1.68,2.08-1.68.36,0-1.11-.6-1.93-1.61-2.19-1.14-.3-1.38-.7-.82-1.37.55-.66.1-1.7-1.5-3.45-1.9-2.08-2.1-2.65-1.18-3.42.61-.51.91-1.24.67-1.62s.06-.7.67-.7,1.89-.84,2.86-1.87c2.22-2.36.96-3.69-3.04-3.22-4.2.5-5.3,2.02-4.27,5.88.47,1.75.55,3.18.18,3.18s-1.28.93-2.02,2.07c-1.09,1.66-1.17,2.36-.41,3.58.76,1.21.73,1.51-.16,1.51-.61,0-1.56-.55-2.11-1.22-.9-1.08-1.2-1.05-2.68.35-.92.86-1.94,1.59-2.27,1.62-.89.07-.72,1.23.2,1.34.44.05,1.09.14,1.46.2.36.05.66.59.66,1.2,0,.72-1.33,1.25-3.87,1.56-4.12.49-7.99-.36-6.33-1.38.52-.32.73-.92.48-1.34-.26-.41-.8-.54-1.22-.29-.41.26-.55.8-.3,1.21.25.41.12.74-.3.74s-.96-.54-1.21-1.19c-.29-.76-1.55-1.2-3.46-1.22-2.93-.03-2.96-.06-1.11-1.08,1.58-.88,2.5-.87,5.48.02,1.97.59,4.01,1.43,4.53,1.87,1.54,1.28,2.13-.12.71-1.69-1.22-1.34-1.16-1.49.84-2.25,2.57-.98,1.99-2.4-.98-2.42-3.03-.02-4.08-.9-5.3-4.44-.76-2.22-.83-3.39-.22-4.13.6-.73.6-1.27,0-1.88-.95-.95-2.85-.15-2.18.92.23.38-.39.8-1.37.94-1.29.18-1.92.93-2.22,2.64-.31,1.75-.56,2.04-.94,1.08-.28-.72-1.63-1.86-3-2.54-2.17-1.08-2.54-1.09-2.93-.07-.34.88-.71.95-1.51.29-.59-.49-1.4-.68-1.81-.42-.41.25-.96-.1-1.22-.78-.33-.85-1.01-1.07-2.17-.71-1.1.35-1.51.24-1.17-.31.77-1.25-3.07-3.46-5.65-3.25-1.23.1-2.84-.09-3.59-.41-2.04-.88-5.77.65-5.9,2.42-.06.84-.15,2.15-.2,2.91-.05.77-.6,1.39-1.23,1.39-1.79,0-2.3,1.54-.69,2.11.79.28,1.98,1.16,2.63,1.96,1.07,1.31,1.4,1.34,3.18.32,1.09-.63,2.79-1.5,3.78-1.95.98-.45,1.79-1.18,1.79-1.62,0-1.78,1.2-.68,1.31,1.19.2,3.49,1.78,4.59,5.86,4.1,2.01-.24,4.16-.12,4.78.27.73.45-.82.78-4.42.94-5.85.25-7,1.36-2.57,2.49,1.42.36,3.34,1.36,4.25,2.21s2.17,1.39,2.78,1.19,2.73-.58,4.69-.86c3.29-.46,3.45-.41,1.99.67-1.32.97-1.39,1.25-.4,1.64,1.25.49,1.87,5.21.68,5.21-.37,0-.68-.67-.68-1.49,0-2.08-4.01-3.57-8.33-3.08-4,.45-4.97,0-3.05-1.4,1.19-.87,1.11-1.1-.81-2.36-1.67-1.09-2.38-1.19-3.26-.46-.88.73-1.71.64-3.77-.44-3.5-1.82-8.75-2.77-9.94-1.78-.62.52-1.75.36-3.37-.48-2.59-1.34-3.49-1.09-7.92,2.15-2.59,1.9-4.17,1.74-1.69-.17,2.98-2.29.23-2.96-3.39-.83-1.85,1.09-3.01,1.38-3.35.82-.29-.46-.87-.63-1.3-.36-.47.29-.49.84-.06,1.4,1.07,1.37,1.88,6.27.93,5.69-.43-.27-.78-1.34-.78-2.38,0-1.98-.66-2.68-2.98-3.16-.77-.16-2.96-.86-4.87-1.54-1.91-.69-4.31-1.25-5.32-1.25s-2.04-.32-2.28-.71-2.6-.74-5.23-.78-5.5-.45-6.37-.91c-1.07-.57-2.05-.58-3.08-.03-1.12.6-1.76.5-2.48-.37-.54-.65-1.98-1.18-3.22-1.18s-2.47-.38-2.76-.83c-.36-.58-.84-.56-1.57.04-.72.6-1.21.61-1.56.05-.33-.54-1.19-.38-2.46.45-1.07.7-1.96.97-1.97.59-.01-.38-.46-.15-.99.5-.53.66-1.86,1.31-2.96,1.45s-2.57,1.01-3.29,1.93c-.72.92-1.9,1.75-2.63,1.86-.73.11-2.24.79-3.35,1.52l-2.03,1.33,2.67,2.33c2.67,2.34,6.12,4.25,7.24,4.01.33-.07.6.19.6.58,0,1.35-2.19,1.55-4.41.4-1.52-.79-2.48-.9-3.04-.33-.45.45-1.42.82-2.15.82s-1.78.53-2.32,1.18c-.8.97-.71,1.29.5,1.79.82.33,1.48,1.14,1.48,1.79,0,1.76,7.63,2.77,8.83,1.18,1.22-1.62,1.66-1.46,1.51.55-.12,1.59-2.04,2.9-5.17,3.52-2.01.4-4.06,3.56-3.51,5.4.74,2.45,3.64,5.35,5.06,5.05.68-.14,1.61.25,2.08.86,1.33,1.74,6.31,3.2,7.89,2.31,1.16-.65,1.27-.49.78,1.12-.87,2.83-1.76,3.64-6.38,5.83-2.33,1.1-4.45,2.34-4.7,2.75-.7,1.13,1.18,1.94,2.18.94,1.07-1.07,3.23-1.19,2.59-.14-.1.17-.14.33-.14.48.31-.45.7-.84,1.17-1.15-.79-.39,0-.79,5.54-3.84,3.67-2.02,9.06-7.24,8.47-8.2-.22-.35,0-.87.46-1.17.47-.29,1.18-1.39,1.58-2.44.4-1.05,1.36-1.9,2.14-1.89,1.34.02,1.34.07.02.83-1.52.88-1.87,3.52-.59,4.31.44.27,1.87-.03,3.17-.68,1.38-.69,2.56-.87,2.83-.44.25.41.8.53,1.21.28.41-.26.54-.8.29-1.22-.26-.41-.8-.55-1.21-.3-.7.43-.98-.52-.54-1.81.29-.84,2.19-1,2.19-.18,0,1.13,4.88,2.97,9.23,3.49,2.24.27,5.79,1.36,7.9,2.43,2.6,1.31,4.14,1.69,4.77,1.17.66-.55,1.3-.03,2.18,1.79,1.36,2.8,1.02,4.4-.63,3.02-.73-.6-1.21-.62-1.57-.04-.28.46-.32.88-.07.93.24.05.71.15,1.04.21s1.04.4,1.59.74c.93.59,1.31.15,1.09-1.25-.16-1.02,1.25-.65,2.29.6.54.66,1.48,1.19,2.08,1.19s1.1.54,1.1,1.19-.32,1.1-.72.99c-.66-.18-.87.19-.87,1.49,0,.27.54.05,1.19-.49.66-.54,1.24-.77,1.29-.49.38,1.89.31,2.6-.35,3.48-.41.55-.48.99-.15.99s.17.5-.34,1.12c-.04.04-.06.08-.09.12.37.22.7.5.98.81,0-.19-.01-.41-.05-.66-.11-.73.19-.74,1.86-.1,1.19.46,1.19.61.01,1.91-.35.39-.57.75-.68,1.06.06.26.11.53.13.79.02.02.04.04.06.05.44.27,1.01.14,1.27-.28s1.01-.57,1.67-.32c.91.35.98.71.27,1.56-.5.6-.65,1.1-.32,1.1s.11.58-.48,1.29c-.92,1.11-.75,1.55,1.29,3.2,1.3,1.05,3.39,2.43,4.64,3.07,2.37,1.21,4.09.9,3.18-.56-.3-.48-.05-.69.58-.48.61.2,1.22,1.39,1.37,2.64.24,2.01.12,2.16-1.01,1.22-1.87-1.55-2.24-.71-2.49,5.71-.12,3.18-.34,7.57-.49,9.76-.19,2.96.18,4.79,1.49,7.15.96,1.75,2.17,3.08,2.69,2.95.53-.13.75.27.5.92-.61,1.59,3.82,8.36,6.01,9.16.78.29,1.43.73,1.68,1.09.02-.05.04-.1.08-.16.29-.47-.34-1.18-1.41-1.59-2.17-.82-5.48-5.67-5.66-8.28-.07-.94-.52-1.63-1-1.54-1.81.35-3.75-5.53-3.47-10.51.15-2.62.31-7.01.36-9.74.08-4.73.58-5.95,1.68-4.16.75,1.22,1.98.12,1.98-1.77s-6.7-8.58-8.7-8.58-2.57-.86-1.58-2.06c1.22-1.47-1.78-3.01-3.29-1.68-.6.53-.43.16.37-.8,1.45-1.73,1.44-1.78-.61-2.71-1.28-.59-1.84-1.28-1.44-1.82,1.13-1.53-.74-6.81-2.42-6.86-1.1-.03-4.59-2.7-4.59-3.51,0-.27-.58-1.38-1.29-2.47-.9-1.38-1.58-1.74-2.23-1.19-.64.53-2.17.15-4.78-1.17-2.11-1.07-5.67-2.16-7.9-2.41-4.18-.48-7.61-1.73-8.61-3.13-1.28-1.8-4.84-.37-4.07,1.64.36.93-2.39,2.74-4.15,2.74-.96,0-.17-2.74,1.05-3.63,1.32-.98,1.32-1.05-.01-1.57-1.54-.6-3.77.84-3.77,2.42,0,.55-.53,1.44-1.18,1.98-.65.54-1.02,1.24-.82,1.57.53.86-4.25,5.5-7.49,7.26-1.55.84-3.36,1.87-4.02,2.27-2.48,1.53-6.63,3.21-7.01,2.84-.21-.21,1.01-.97,2.71-1.68,4.47-1.86,7.48-4.19,8.33-6.44.91-2.4.27-3.68-1.39-2.75-1.54.86-6.59-.8-7.52-2.47-.38-.67-1.33-1.06-2.11-.85-1.58.41-3.67-1.57-4.49-4.26-.37-1.22-.03-2.25,1.13-3.41.91-.91,1.91-1.52,2.23-1.34,1.23.69,5.21-2.37,5.34-4.1.17-2.28-1.16-3.14-2.34-1.53-1.22,1.67-8.71.98-8.05-.73.26-.67-.28-1.39-1.35-1.8-1.72-.66-1.72-.7-.19-1.22.87-.29,2.19-.86,2.93-1.25.88-.47,2.09-.32,3.51.41,1.56.81,2.59.9,3.67.32,1.48-.79,1.58-2.62.15-2.75-1.61-.15-4.04-1.51-6.5-3.62l-2.59-2.23,2.29-1.18c1.26-.65,2.47-1,2.69-.77.22.22,1.11-.49,1.97-1.58s2.54-2.12,3.73-2.28,2.49-.8,2.89-1.43c.4-.63.73-.83.74-.46,0,.38.89.11,1.96-.59,1.27-.83,2.12-.99,2.46-.45.35.56.84.55,1.56-.05.73-.6,1.21-.62,1.57-.04.28.46,1.52.83,2.76.83s2.68.53,3.22,1.18c.72.87,1.36.97,2.48.37,1.03-.55,2.01-.54,3.08.03.86.46,3.73.87,6.37.91s4.99.39,5.23.78,1.27.71,2.28.71,3.41.57,5.32,1.26c3.3,1.2,5.13,1.72,6.46,1.86.33.03.6.91.6,1.95,0,1.93,1.75,4.05,2.62,3.18.66-.66-.25-5.19-1.34-6.66-.74-1-.68-1.04.35-.23.99.77,1.74.65,3.8-.6,1.41-.86,3-1.54,3.54-1.53.54.02-.57.96-2.45,2.1-2.15,1.29-3.15,2.35-2.68,2.82.72.72,3.1-.32,9.52-4.17,2.44-1.46,2.78-1.49,5.03-.33,1.61.83,2.72.99,3.34.47,1.19-.98,6.44-.04,9.94,1.78,2,1.04,2.9,1.16,3.73.48.81-.67,1.53-.66,2.85.05,1.61.86,1.64,1.02.4,1.71-2.37,1.33-.1,2.92,3.48,2.44,4.44-.6,7.1.29,8,2.65.96,2.53,2.82,2.04,2.54-.67-.16-1.48.23-2.12,1.47-2.45,1.91-.5,1.34-2.17-.71-2.08-1.1.05-1.05.18.25.74,1.05.45,1.18.7.4.73-.66.02-1.67-.26-2.25-.63-.85-.54-.79-.77.26-1.18,2.09-.8,5.96-.59,5.96.33,0,.46,1.25,1.36,2.78,2,2.96,1.24,8.08.93,11.38-.67,1.39-.68,2.22-.65,3.41.09,1.91,1.19,2.65.8,4.16-2.22,1.26-2.53,1.02-3.21-1.14-3.21-2.88,0-2.8-4.02.1-5.57,2.03-1.08,6,2.88,4.59,4.58-.7.84-.52,1.18.83,1.53.97.25,1.72,1.08,1.72,1.9,0,2.34,1.31,2.48,2.75.29,1.07-1.64,1.55-1.85,2.47-1.09.63.52,1.14,1.73,1.14,2.68s.48,2.39,1.06,3.18c.99,1.35,1.19,1.28,3.12-1.2,1.58-2.01,1.89-2.98,1.3-4.08-.65-1.22-.44-1.43,1.45-1.41,2.98.03,5.52,1.96,4.39,3.33-.61.74-.53,1.45.28,2.56.62.85,1.13,1.82,1.13,2.16,0,1.01-4.73,3.16-6.61,3.01-2.85-.23-3.02-.04-1.72,1.93.68,1.04,2.35,2.12,3.71,2.39,2.69.54,6.6,4.14,5.34,4.91-.43.26-1.61-.06-2.62-.72-1.72-1.13-1.94-1.07-3.34.79-1.42,1.88-1.63,1.93-3.72.84-1.77-.92-1.96-1.26-.95-1.65.92-.35,1.21-1.31,1.03-3.48-.23-2.75-.46-3.01-2.93-3.24-2.8-.27-5.31,1.1-3.21,1.74,4.58,1.41,4.47,1.28,2.39,2.98-1.06.86-2.42,1.37-3.04,1.14-1.39-.53-4.38.98-3.8,1.92.23.38-.56,1.72-1.77,2.99-5.14,5.39-6.06,7.3-4.95,10.21.56,1.49,1.25,1.96,2.56,1.78,1.34-.19,1.8.15,1.82,1.34.04,2.12,1.09,3.72,2.05,3.12.43-.26,2.7.84,5.05,2.46,2.79,1.92,5.5,3.08,7.8,3.34l3.53.4-.36,3.29c-.33,3-.08,3.54,2.78,6.24,2.71,2.55,3.33,2.81,4.53,1.93,1.03-.75,1.42-2.25,1.5-5.73.07-3.05.6-5.41,1.5-6.68,1.82-2.59,1.75-5.27-.21-7.76-1.22-1.55-1.38-2.28-.7-3.11.49-.59.63-1.08.3-1.08s-.17-.51.36-1.14c.63-.76.7-1.63.21-2.58-.49-.96-.39-2.28.31-3.93.98-2.33,1.29-2.48,4.86-2.37,2.96.09,4.32.6,6.12,2.29,1.27,1.19,2.79,2.17,3.38,2.17,1.21,0,1.47,2.05.35,2.74-1.09.67-.61,2.31,1.26,4.32,1.14,1.23,1.86,1.51,2.24.9.31-.5,1.1-.7,1.75-.45.71.27,2.09-.51,3.44-1.95,2.39-2.55,2.84-2.4,3.49,1.18.22,1.23,1.2,3.09,2.17,4.12.97,1.03,1.51,1.87,1.21,1.87s.04.91.76,2.01c.73,1.11,1.5,1.83,1.72,1.61s1.33.26,2.48,1.05c1.14.8,2.61,1.65,3.27,1.9.84.32.71.47-.44.51-2.16.08-4.7,1.99-4.06,3.03.35.56,1.48.49,3.5-.21,3.57-1.23,4.58-.59,4.58,2.9,0,2.27-.32,2.68-2.38,3.11-1.31.27-3.17.91-4.12,1.42-.96.51-3.5.93-5.66.93s-5.05.22-6.41.5c-3.25.65-10.06,6.56-8.9,7.72.59.59,1.52.19,3.1-1.33,2.74-2.63,8.08-3.83,8.08-1.82,0,.73-.64,1.3-1.46,1.3-2.45,0-2.53.88-.29,3.18,1.69,1.74,2.39,2.01,3.29,1.3.86-.67,1.01-.67.6,0-.3.5-.02,1.33.61,1.86.93.77,1.54.57,3.12-1.02,1.86-1.86,2.86-1.99,2.86-.37,0,.39-.36.49-.8.21s-1,.03-1.25.68c-.25.64-1.59,1.62-2.98,2.17-1.39.55-3.33,1.72-4.32,2.6-1.43,1.28-1.79,1.36-1.79.39,0-1.45,2.46-3.82,4.04-3.9.65-.03.46-.32-.46-.69-1.09-.43-2.77-.04-5.34,1.25-2.06,1.04-4.29,1.88-4.95,1.88s-1.81.93-2.55,2.07c-1.06,1.62-1.16,2.38-.45,3.51.98,1.57-.06,2.38-3.04,2.38-1.7,0-5.49,5.09-5.61,7.54-.06,1.31-.18,1.24-.63-.38-.3-1.09-.89-1.99-1.31-1.99-1.11,0-1.39,4.04-.41,5.87.57,1.07.58,1.74.04,2.08-.45.28-.63.8-.4,1.16.22.36-.18.88-.9,1.16s-1.12.68-.91.89c.22.22-1.52,2.32-3.86,4.68s-4.25,4.77-4.25,5.35.72,3.57,1.59,6.63c1.86,6.5,1.94,7.55.59,7.55s-3.2-3.06-3.51-5.78c-.4-3.55-2.48-6.08-4.9-5.97-1.17.05-3.01-.16-4.11-.47-1.28-.37-2.55-.16-3.55.57-1.33.97-1.4,1.33-.5,2.42.95,1.14.78,1.23-1.62.81-1.47-.26-3.64-.76-4.81-1.13-2.82-.88-3.7-.7-7.28,1.51-2.64,1.63-2.99,2.2-2.79,4.51.13,1.45-.03,2.9-.34,3.22-1.16,1.16-.53,8.04,1.03,11.28,2.23,4.61,4.35,5.84,8.77,5.1,3.27-.55,3.56-.8,3.79-3.21.26-2.68,2.28-4.12,5.77-4.12,1.37,0,1.49.38,1.03,3.38-.28,1.86-.8,3.74-1.14,4.18-.34.44-.74,1.87-.89,3.18-.24,2.22-.08,2.38,2.52,2.44,1.53.03,3.77.34,4.98.69,2.17.62,2.19.68,1.7,5.53-.46,4.5-.33,5.11,1.56,7.36,1.96,2.33,2.21,2.41,5.24,1.6,2.87-.77,3.37-.67,5.16,1.02,1.53,1.44,2.08,1.61,2.38.75,1.77-5,2.14-5.61,3.15-5.23.6.23,1.91-.45,2.91-1.51,2.34-2.49,3.53-2.49,1.9,0-.99,1.52-1.07,2.29-.38,3.6,1.05,1.97,2.71,1.31,2.15-.85-.22-.83-.06-1.5.35-1.5s1.07-.8,1.47-1.79c.4-.98.74-1.33.77-.78.05,1.07,3.77,2.92,5.36,2.67.51-.08,1.17.23,1.45.69.32.53,2.02.64,4.55.3,2.66-.35,3.87-.26,3.54.27-.27.44.39,1.66,1.47,2.7,1.08,1.04,3.28,3.24,4.88,4.88,2.28,2.33,3.52,2.98,5.71,2.98,4.4,0,9.56,4.35,8.63,7.27-.09.28.55,1.33,1.43,2.32.87,1,1.17,1.56.65,1.26-1.02-.6-6.11,6.08-5.27,6.92.26.26,1.69-.58,3.18-1.89,3.03-2.66,4.47-3.02,4.09-1.01-.14.75-1.09,1.55-2.09,1.79-2.54.6-2.57,1.97-.04,2.26,1.48.17,2.56-.35,3.69-1.79,2.1-2.67,3.5-2.56,6.57.51,2.18,2.18,3.23,2.59,7.41,2.89,3.59.26,5.15.74,5.92,1.84.57.82,2.09,2.03,3.38,2.69,3.47,1.8,3.26,5.99-.57,11.61-1.6,2.34-3.39,4.55-3.97,4.9-.75.45-1.08,2.57-1.1,7.15-.02,5.32-.44,7.46-2.23,11.61-2.11,4.89-2.32,5.1-5.34,5.39-1.73.17-3.54.83-4.02,1.47-.49.64-1.1,1.16-1.36,1.16-.76,0-6.42,3.99-7.01,4.94-.3.48-.17,1.68.27,2.66.65,1.42.38,2.65-1.32,6.04-4.2,8.37-6.17,11.11-8.94,12.43-2.55,1.22-2.92,1.22-5.02.02-3.05-1.75-3.56-.93-1.17,1.91,3.67,4.36,2.12,7.24-4.38,8.1-2.83.37-4.19.95-4.48,1.9-.9,2.93-1.77,3.74-3.97,3.74-1.85,0-2.24.31-2.04,1.59.14.87.77,1.99,1.41,2.49.98.76.91.96-.45,1.32-1.18.31-1.61,1.08-1.61,2.88,0,1.56-.4,2.46-1.1,2.46-3.27,0-3.58,5.86-.37,7.05,1.62.6,1.6.69-.8,3.43-1.36,1.55-2.3,2.98-2.08,3.2.21.21-.33,1.03-1.21,1.83-.88.79-1.59,2.28-1.59,3.31s-.37,1.86-.81,1.86-1.22.89-1.72,1.99c-.93,2.03-2.52,2.85-1.78.91.48-1.25-3.49-4.16-5.19-3.8-.89.19-.94,0-.25-.84.49-.6.78-2.8.64-4.89-.2-2.95-.01-3.71.82-3.39.59.23,1.29.07,1.56-.36.58-.93-3.64-5.59-4.55-5.03-.84.52-.8-.6.05-1.95.53-.84.78-.77,1.21.33.4,1.05.76,1.17,1.45.48,1.32-1.32,1.68-9.71.51-11.89-.76-1.43-.77-2.4-.03-4.45.52-1.44.73-3.7.47-5.02-.35-1.73.13-3.59,1.7-6.69,1.43-2.81,2.26-5.81,2.4-8.67.12-2.4.65-10.54,1.19-18.08l.98-13.7-2.86-2.59c-1.57-1.43-4.22-3.51-5.88-4.63-2.56-1.73-3.31-2.95-4.92-7.95-1.04-3.25-3.08-8.59-4.53-11.87l-2.64-5.96,1.67-1.29c1.58-1.21,1.59-1.33.24-2.09-1.29-.72-1.34-1.18-.46-4.67.54-2.13,2.16-5.31,3.6-7.07,2.06-2.51,2.64-3.97,2.7-6.77.12-6.26-3.48-11.36-5.61-7.95-.64,1.02-1.25,1.28-1.86.77-.5-.41-1.83-.83-2.96-.92-1.29-.11-2.38-.87-2.92-2.07-.71-1.56-1.07-1.73-2.04-.93-.99.82-1.17.61-1.17-1.36,0-2.39-3.47-6.61-5.44-6.61-1.25,0-6.33-2.59-10.08-5.13-2.36-1.6-3.16-1.79-4.36-1.04-1.22.76-2.63.35-8.13-2.38-8.64-4.28-11.2-6.29-10.65-8.38.51-1.94-.47-3.91-3.99-8.05-1.46-1.72-2.66-3.42-2.66-3.77s-1.61-2.84-3.58-5.51c-1.97-2.67-3.58-5.31-3.58-5.87,0-1.76-2.31-3.19-3.4-2.1-.73.73-.54,1.71.83,4.3.98,1.84,1.78,3.6,1.77,3.91,0,.31,1.07,2.15,2.38,4.09s2.38,3.91,2.38,4.37.62,1.19,1.38,1.61c.76.43,1.14,1.02.83,1.33-.91.91-5.31-3.09-5.35-4.87-.02-.91-1.15-2.65-2.51-3.85-1.79-1.59-2.23-2.44-1.6-3.07s.45-1.32-.66-2.51c-.84-.9-2.18-3.6-2.98-6.01-1.13-3.43-1.76-4.32-2.92-4.12-.41.07-.7.05-.88-.03.09.31.48.52.96.46.56-.06,1.53,1.73,2.21,4.08.67,2.3,1.92,4.82,2.78,5.6,1.18,1.07,1.35,1.67.68,2.47-.68.82-.32,1.56,1.59,3.24,1.36,1.19,2.48,2.9,2.48,3.78,0,2.25,5.38,6.49,6.63,5.22.7-.71.59-1.18-.47-1.97-.77-.57-1.39-1.29-1.39-1.62s-1.07-2.18-2.38-4.13c-1.31-1.94-2.38-3.86-2.38-4.27s-.71-1.91-1.59-3.34c-.87-1.43-1.59-3.05-1.59-3.6,0-1.81,1.61-1.03,2.46,1.19.46,1.2,2.24,4.05,3.96,6.33s3.12,4.45,3.12,4.83,1.2,2.09,2.66,3.81c3.52,4.13,4.5,6.11,4,8.04-.57,2.18,2.85,4.93,11.32,9.13,5.6,2.77,7.03,3.2,8.25,2.44,1.2-.75,2-.56,4.36,1.04,3.73,2.53,8.83,5.13,10.07,5.13,1.84,0,4.65,3.43,4.65,5.66,0,2.41,1.15,3.65,2.05,2.2.37-.6.9-.28,1.55.93.59,1.1,1.9,1.97,3.25,2.15,1.24.17,2.69.66,3.22,1.1.68.56,1.21.32,1.82-.82,1.85-3.46,4.79.97,4.68,7.06-.05,2.8-.62,4.25-2.69,6.77-3.33,4.06-5.2,10.67-3.36,11.83,1.1.69,1.07.92-.25,2.03-1.46,1.22-1.45,1.34.19,4.83.92,1.97,3.02,7.33,4.65,11.92,2.67,7.51,3.32,8.61,6.45,10.96,1.92,1.44,4.52,3.54,5.78,4.67l2.3,2.05-.97,13.62c-.54,7.49-1.07,15.59-1.19,17.99-.14,2.86-.97,5.86-2.4,8.67-1.57,3.1-2.05,4.96-1.7,6.69.26,1.31.04,3.6-.49,5.08-.76,2.11-.76,3.02,0,4.23.53.85.97,2.85.97,4.44,0,2.48-.17,2.75-1.19,1.9-1.13-.94-1.44-.75-.99.6.11.33.47.51.79.4.33-.11.64.16.7.6.05.44.17,1.24.25,1.79.28,1.84-.49,2.29-1.51.9-.94-1.29-1.08-1.26-1.98.42-.89,1.67-.64,2.86.62,2.86.56,0,4.11,3.36,4.11,3.89,0,.17-.63.26-1.39.2-1.15-.09-1.39.57-1.39,3.86,0,2.19-.29,4.42-.64,4.97-.61.94-.43,1.11,1.44,1.33,1.6.19,4.53,2.74,4.05,3.52-.93,1.51,1.35,1.96,2.43.49,1.17-1.6,1.19-1.59,1.46,1.07.14,1.32-.13,1.71-.97,1.39-.64-.24-1.5-.23-1.92.03-1.34.83.98,2.71,3.34,2.71,1.23,0,2.44.33,2.69.72.58.94,2.35.66,3.89-.61,1.07-.88.82-1.41-1.97-4.2-1.86-1.86-3.66-3.01-4.32-2.75-.62.24-1.13.13-1.13-.25s.54-.89,1.19-1.14c.66-.25,1.19-1.31,1.19-2.35s.72-2.54,1.59-3.33c.88-.79,1.42-1.62,1.21-1.83-.21-.21.69-1.61,2-3.1,2.34-2.67,2.49-4.21.4-4.21-1.1,0-2.03-1.67-2.03-3.66,0-.63.89-1.49,1.99-1.9,1.49-.57,1.99-1.33,1.99-3.07s.46-2.44,1.79-2.82c1.58-.44,1.64-.62.55-1.48-.68-.54-1.49-1.65-1.8-2.47-.47-1.24-.27-1.41,1.21-1.02,2.08.54,4.61-1.41,4.61-3.55,0-1.13.87-1.56,4.09-1.98,6.26-.83,8.6-4.08,5.81-8.07-1.19-1.7-1.16-1.74.99-1.34,4.44.83,7.75-2.6,13.39-13.83,1.7-3.39,1.97-4.61,1.32-6.04-.45-.98-.58-2.11-.29-2.51.82-1.14,5.54-4.3,6.41-4.3.43,0,1.08-.52,1.43-1.15.35-.63,2.07-1.29,3.82-1.45,2.99-.28,3.31-.57,5.52-5.01,1.94-3.89,2.4-5.95,2.67-11.84.2-4.46.7-7.44,1.34-7.95.56-.45,2.31-2.74,3.89-5.08,2.09-3.1,2.88-5.11,2.88-7.38,0-2.72-.35-3.33-2.8-4.77ZM95.13,125.86c2.38.68,4.85,3.23,5.16,5.33.17,1.18-.34,1.16-2.52-.07-6.15-3.48-7.79-6.73-2.64-5.25ZM84.68,70.18c-.66.42-1.55.77-1.99.77s-.26-.35.4-.77c.66-.42,1.55-.77,1.99-.77s.26.35-.4.77ZM110.12,58.27c0,.43-.49.77-1.1.77s-1.51.5-2.01,1.11c-1.51,1.82-3.71,1.99-4.72.38-.51-.82-1.55-1.51-2.31-1.53-1.05-.04-.96-.22.4-.77,1.69-.68,2.14-1.86,1.84-4.87-.15-1.5,4.02-2.78,5.69-1.75.56.34,1.97.52,3.15.4,2.74-.29,5.33,1.1,5.09,2.72-.19,1.32-1.88,2.72-3.25,2.69-.44,0,.1-.53,1.19-1.15,2.67-1.53,1.33-1.51-1.63.02-1.29.67-2.35,1.56-2.35,1.99ZM120.04,68.57c-.72-.79-2.62-1.79-4.22-2.22-2.73-.73-2.58-.78,2.4-.86,2.93-.05,5.53-.42,5.79-.84.83-1.35-2.28-2.28-6.12-1.85-3.53.4-3.8.29-4.59-1.78-.46-1.21-.74-2.27-.62-2.35,1.9-1.28,6.11-3.61,6.53-3.61.31,0,.34.69.07,1.52-.63,1.99.85,2.89,1.84,1.11.64-1.15.97-1.2,2.03-.32,1.05.87,1.34.85,1.72-.15.4-1.04.74-1.05,2.71-.07,1.24.62,2.47,1.68,2.73,2.35.66,1.73,2.07.6,2.07-1.65,0-1.34.51-1.96,1.79-2.16.98-.15,1.7-.71,1.59-1.25-.11-.54.16-.97.6-.97,1,0,1.03,1.03.06,2.03-.98,1,1.06,6.79,2.84,8.1.76.55,2.47,1.03,3.81,1.07,1.34.03,1.9.26,1.24.5-2.83,1.05-3.28,1.98-1.81,3.71,1.12,1.32,1.14,1.45.11.66-.72-.55-2.86-1.46-4.77-2.02-3-.88-3.89-.84-6.65.33-5.06,2.14-9.59,2.44-11.15.72ZM156.09,68.1l2.5-.5-1.24,2.48c-1.25,2.5-2.25,3.08-3.06,1.77-.24-.39.09-.92.75-1.17.65-.25,1.18-.91,1.18-1.47,0-.82-.14-.82-.65-.01-.35.55-1.78,1.34-3.18,1.74-1.59.45-2.37.45-2.08-.02.25-.41-.11-.97-.81-1.24-1.16-.45-1.15-.63.08-1.99,1.22-1.35,1.49-1.38,2.69-.29.91.82,2.13,1.04,3.83.7ZM157.37,57.06c-.3-1.6-.22-3.22.17-3.62.98-.98,6.49-1.63,6.99-.82.47.76-1.71,2.78-3.79,3.52-.79.28-1.24.83-1,1.22.24.39-.07,1.14-.7,1.65-.94.78-1.23.44-1.68-1.96ZM202.14,227.25c-.22.22-.63-.21-.91-.94-.28-.74-.34-1.52-.12-1.74.22-.22.63.21.91.94.28.74.34,1.52.12,1.74ZM205.08,382.4c-.06-2.85.51-2.76,3.86.6,1.85,1.85,2.48,2.98,1.87,3.36-1.41.88-2.85.95-3.34.15-.25-.4-1.48-.72-2.74-.72s-2.51-.36-2.78-.79c-.28-.46.29-.71,1.34-.6,1.53.16,1.83-.17,1.79-1.99Z"/></g><rect class="cls-12" x="200.82" y="140.89" width="42.05" height="13.84" rx="1.47" ry="1.47"/><text class="cls-21" transform="translate(205.85 150.38)"><tspan x="0" y="0">US East</tspan></text><rect class="cls-10" x="97.48" y="88.54" width="67.87" height="60.55" rx="12" ry="12"/><rect class="cls-13" x="101.76" y="101.11" width="59.43" height="41.91" rx="12" ry="12"/><text class="cls-15" transform="translate(109.88 110.8)"><tspan class="cls-23" x="0" y="0">W</tspan><tspan x="7.01" y="0">or</tspan><tspan class="cls-24" x="14.42" y="0">k</tspan><tspan x="18.5" y="0">er pool</tspan></text><rect class="cls-34" x="104.01" y="127.69" width="53.42" height="9.89" rx="4.95" ry="4.95"/><text class="cls-15" transform="translate(118.59 96.94)"><tspan x="0" y="0">Clu</tspan><tspan class="cls-25" x="11.69" y="0">s</tspan><tspan class="cls-28" x="15.53" y="0">t</tspan><tspan x="18.3" y="0">er</tspan></text><rect class="cls-34" x="104.01" y="116.3" width="53.42" height="9.89" rx="4.95" ry="4.95"/><text class="cls-8" transform="translate(114.46 124.55)"><tspan class="cls-23" x="0" y="0">W</tspan><tspan x="7.01" y="0">or</tspan><tspan class="cls-24" x="14.42" y="0">k</tspan><tspan x="18.5" y="0">er 1</tspan></text><text class="cls-8" transform="translate(114.46 135.35)"><tspan class="cls-23" x="0" y="0">W</tspan><tspan x="7.01" y="0">or</tspan><tspan class="cls-24" x="14.42" y="0">k</tspan><tspan x="18.5" y="0">er 2</tspan></text><polygon class="cls-5" points="450.43 113.98 427.94 179.41 396.6 117.73 450.43 113.98"/><path class="cls-7" d="M435.63,146.73c1.67-.22,4.4.08,6.06.67,2.01.72,2.45,1.09,1.32,1.11-1.76.04-4.74,3.62-3.59,4.33.36.22.49,1.5.3,2.83s.08,2.96.62,3.6c1.44,1.73,2.39.7,2.39-2.63,0-3.52,2.35-7.51,3.86-6.58.57.35.91,1.13.77,1.74-.14.61.1,1.25.54,1.41s1.26.98,1.84,1.8c1.31,1.88,2.53,1.2,2.53-1.41,0-1.09.33-1.78.74-1.53,1.17.72,1.88-1.11.89-2.3-.49-.59-2.4-1.3-4.26-1.58-2.75-.41-3.56-.94-4.42-2.89-.58-1.31-2.13-2.94-3.45-3.62-2.24-1.16-2.5-1.13-4.1.36-.94.88-2.71,1.98-3.94,2.45-3.17,1.2-1.87,2.72,1.9,2.21ZM433.97,145.34c1.09-.47,2.74-1.57,3.66-2.44,1.43-1.34,1.98-1.44,3.74-.64,1.13.52,2.61,2.1,3.29,3.52,1.03,2.16,1.83,2.7,4.94,3.27,2.04.38,3.87,1.14,4.05,1.7.19.56-.12.92-.69.79-.59-.13-1.23.8-1.5,2.16q-.47,2.38-1.48.57c-.55-1-1.31-1.62-1.68-1.39-.37.23-.5-.26-.28-1.1.26-.99-.16-1.82-1.19-2.37-1.33-.71-1.82-.5-3.03,1.32-.79,1.19-1.64,3.78-1.87,5.75-.27,2.27-.67,3.21-1.08,2.57-.36-.56-.55-1.99-.42-3.18.13-1.19,0-2.53-.27-2.97-.69-1.12,1.08-3.32,2.96-3.69,4.52-.87-2.5-3.89-7.81-3.36-2.95.3-3.11.23-1.35-.53Z"/><path class="cls-7" d="M448.74,160.56c.75,1.21,2.21.75,5.45-1.7,1.72-1.3,3.77-2.36,4.57-2.36,1.72,0,4.88-2.93,4.25-3.95-.24-.39-2.67.43-5.4,1.82-6.61,3.38-9.41,5.33-8.88,6.19ZM457.58,155.12c3.12-1.57,4.76-2.07,4.49-1.36-.24.61-1.62,1.45-3.08,1.85-1.46.4-3.87,1.66-5.36,2.8-1.49,1.14-3.17,2.06-3.73,2.06-1.54,0,2.14-2.56,7.69-5.35Z"/><path class="cls-7" d="M505.68,144.03c0-.19.05-.47.17-.82.7-2.21-2.02-4.53-4.44-3.78-1.8.56-1.81.54-.4-1.04,2.64-2.96-.01-2.6-3.35.45-1.45,1.33-2.24,2.11-2.55,2.73.06.42.07.85.03,1.27.08.15.19.31.32.49,1.07,1.46,2.6,1.44,6.55-.08.98-.38,1.22-.25.8.43-.33.53-.36,1.58-.07,2.32.49,1.26.6,1.25,1.58-.09.33-.45.64-.73.9-.84.12-.37.27-.72.47-1.05ZM504.34,144.32c-1.09,1.89-1.23,1.96-.92.45.49-2.38-.24-2.69-3.78-1.6-5.37,1.65-4.96-1.56.72-5.74,1.55-1.14,1.55-1.12.2.47-1.63,1.92-1.07,2.85,1.37,2.24,1.03-.26,2.13.05,2.72.76.8.96.74,1.63-.3,3.43Z"/><line class="cls-3" x1="461.36" y1="165.68" x2="460.79" y2="159.53"/><circle class="cls-20" cx="460.67" cy="158.24" r="1.68"/><line class="cls-3" x1="461.13" y1="165.72" x2="459.38" y2="159.79"/><circle class="cls-20" cx="459.02" cy="158.55" r="1.68"/><line class="cls-3" x1="454.43" y1="155.04" x2="456.17" y2="148.08"/><circle class="cls-6" cx="456.54" cy="146.62" r="1.95"/><line class="cls-3" x1="425.61" y1="185.78" x2="425.04" y2="179.63"/><circle class="cls-20" cx="424.92" cy="178.34" r="1.68"/><line class="cls-3" x1="425.38" y1="185.82" x2="423.63" y2="179.9"/><circle class="cls-20" cx="423.27" cy="178.65" r="1.68"/><line class="cls-3" x1="426.07" y1="185.7" x2="427.13" y2="179.62"/><circle class="cls-20" cx="427.35" cy="178.34" r="1.68"/><line class="cls-3" x1="463.91" y1="148.16" x2="465.65" y2="141.2"/><circle class="cls-6" cx="466.02" cy="139.74" r="1.95"/><g class="cls-18"><path class="cls-7" d="M421.17,211.76c.03.07.06.15.09.21.19-.06.39-.12.58-.18-.23-.02-.45-.03-.67-.04Z"/><path class="cls-7" d="M539.29,270.85c-1.54-.91-3.14-2.29-3.56-3.06-.56-1.05-2.02-1.49-5.74-1.75-4.28-.29-5.37-.7-7.66-2.88-3.21-3.05-5.06-3.2-6.8-.55-.89,1.37-1.98,1.96-3.47,1.91-2.13-.08-2.13-.09-.26-.61,2.56-.72,3.94-2.91,2.65-4.21-.76-.76-1.48-.59-3.36.8-1.31.97-2.38,1.49-2.37,1.15.04-.97,2.34-3.79,3.19-3.9.42-.05,1-.14,1.28-.2.29-.05-.13-.81-.92-1.69-.79-.87-1.22-1.59-.96-1.59s.03-1.07-.52-2.39c-1.41-3.35-5.76-6.36-9.19-6.36-2.2,0-3.45-.65-5.74-2.98-1.61-1.64-3.66-3.65-4.55-4.48-.9-.82-1.55-1.88-1.46-2.36s-1.09-1.06-2.62-1.29-2.69-.69-2.58-1.02c.11-.33.02-.6-.2-.6h-.89c-.27,0-.05.54.49,1.19.83.99.72,1.19-.65,1.19-.9,0-1.87-.37-2.14-.82s-.92-.75-1.44-.67c-1.38.22-3.98-1.03-5.09-2.44-.87-1.1-1.04-1.04-1.47.49-.27.95-.99,1.93-1.6,2.16-1.32.51-1.47-.44-.25-1.66.62-.62.6-1.02-.06-1.44-.53-.32-1.87.33-3.11,1.51-1.2,1.15-2.41,1.85-2.7,1.56-.89-.89-2.82,1.28-3.37,3.8l-.53,2.4-1.93-1.81c-1.74-1.63-2.25-1.73-5.11-.96-2.97.79-3.29.71-4.83-1.23-1.42-1.8-1.58-2.76-1.15-7.03l.5-4.95-2.63-1.1c-1.45-.6-3.8-.93-5.23-.72-2.51.37-2.58.31-2.05-1.9.3-1.26.82-2.64,1.16-3.08.34-.44.73-2.4.88-4.37l.27-3.58-2.97.09c-3.69.11-5.38,1.45-5.38,4.28,0,1.96-.34,2.23-3.33,2.63-4.27.57-5.81-.3-7.79-4.39-.02-.05-.05-.11-.07-.16-.05,0-.09,0-.14,0-.19.06-.39.12-.58.18,0,0,0,0,0,0,2.23,4.61,4.35,5.84,8.77,5.1,3.27-.55,3.56-.8,3.79-3.21.26-2.68,2.28-4.12,5.77-4.12,1.37,0,1.49.38,1.03,3.38-.28,1.86-.8,3.74-1.14,4.18-.34.44-.74,1.87-.89,3.18-.24,2.22-.08,2.38,2.52,2.44,1.53.03,3.77.34,4.98.69,2.17.62,2.19.68,1.7,5.53-.46,4.5-.33,5.11,1.56,7.36,1.96,2.33,2.21,2.41,5.24,1.6,2.87-.77,3.37-.67,5.16,1.02,1.53,1.44,2.08,1.61,2.38.75,1.77-5,2.14-5.61,3.15-5.23.6.23,1.91-.45,2.91-1.51,2.34-2.49,3.53-2.49,1.9,0-.99,1.52-1.07,2.29-.38,3.6,1.05,1.97,2.71,1.31,2.15-.85-.22-.83-.06-1.5.35-1.5s1.07-.8,1.47-1.79c.4-.98.74-1.33.77-.78.05,1.07,3.77,2.92,5.36,2.67.51-.08,1.17.23,1.45.69.32.53,2.02.64,4.55.3,2.66-.35,3.87-.26,3.54.27-.27.44.39,1.66,1.47,2.7,1.08,1.04,3.28,3.24,4.88,4.88,2.28,2.33,3.52,2.98,5.71,2.98,4.4,0,9.56,4.35,8.63,7.27-.09.28.55,1.33,1.43,2.32.87,1,1.17,1.56.65,1.26-1.02-.6-6.11,6.08-5.27,6.92.26.26,1.69-.58,3.18-1.89,3.03-2.66,4.47-3.02,4.09-1.01-.14.75-1.09,1.55-2.09,1.79-2.54.6-2.57,1.97-.04,2.26,1.48.17,2.56-.35,3.69-1.79,2.1-2.67,3.5-2.56,6.57.51,2.18,2.18,3.23,2.59,7.41,2.89,3.59.26,5.15.74,5.92,1.84.57.82,2.09,2.03,3.38,2.69,3.47,1.8,3.26,5.99-.57,11.61-1.6,2.34-3.39,4.55-3.97,4.9-.75.45-1.08,2.57-1.1,7.15-.02,5.32-.44,7.46-2.23,11.61-2.11,4.89-2.32,5.1-5.34,5.39-1.73.17-3.54.83-4.02,1.47-.49.64-1.1,1.16-1.36,1.16-.76,0-6.42,3.99-7.01,4.94-.3.48-.17,1.68.27,2.66.65,1.42.38,2.65-1.32,6.04-4.2,8.37-6.17,11.11-8.94,12.43-2.55,1.22-2.92,1.22-5.02.02-3.05-1.75-3.56-.93-1.17,1.91,3.67,4.36,2.12,7.24-4.38,8.1-2.83.37-4.19.95-4.48,1.9-.9,2.93-1.77,3.74-3.97,3.74-1.85,0-2.24.31-2.04,1.59.14.87.77,1.99,1.41,2.49.98.76.91.96-.45,1.32-1.18.31-1.61,1.08-1.61,2.88,0,1.56-.4,2.46-1.1,2.46-3.27,0-3.58,5.86-.37,7.05,1.62.6,1.6.69-.8,3.43-1.36,1.55-2.3,2.98-2.08,3.2.21.21-.33,1.03-1.21,1.83-.88.79-1.59,2.28-1.59,3.31s-.37,1.86-.81,1.86-1.22.89-1.72,1.99c-.93,2.03-2.52,2.85-1.78.91.48-1.25-3.49-4.16-5.19-3.8-.89.19-.94,0-.25-.84.49-.6.78-2.8.64-4.89-.2-2.95-.01-3.71.82-3.39.59.23,1.29.07,1.56-.36.58-.93-3.64-5.59-4.55-5.03-.84.52-.8-.6.05-1.95.53-.84.78-.77,1.21.33.4,1.05.76,1.17,1.45.48,1.32-1.32,1.68-9.71.51-11.89-.76-1.43-.77-2.4-.03-4.45.52-1.44.73-3.7.47-5.02-.35-1.73.13-3.59,1.7-6.69,1.43-2.81,2.26-5.81,2.4-8.67.12-2.4.65-10.54,1.19-18.08l.98-13.7-2.86-2.59c-1.57-1.43-4.22-3.51-5.88-4.63-2.56-1.73-3.31-2.95-4.92-7.95-1.04-3.25-3.08-8.59-4.53-11.87l-2.64-5.96,1.67-1.29c1.58-1.21,1.59-1.33.24-2.09-1.29-.72-1.34-1.18-.46-4.67.54-2.13,2.16-5.31,3.6-7.07,2.06-2.51,2.64-3.97,2.7-6.77.12-6.26-3.48-11.36-5.61-7.95-.64,1.02-1.25,1.28-1.86.77-.5-.41-1.83-.83-2.96-.92-1.29-.11-2.38-.87-2.92-2.07-.71-1.56-1.07-1.73-2.04-.93-.99.82-1.17.61-1.17-1.36,0-2.39-3.47-6.61-5.44-6.61-1.25,0-6.33-2.59-10.08-5.13-2.36-1.6-3.16-1.79-4.36-1.04-1.22.76-2.63.35-8.13-2.38-3.62-1.8-6.16-3.19-7.86-4.36-.16,0-.32.02-.48.02.16,0,.32-.02.48-.02-.52-.35-.96-.69-1.33-1.01-.05,0-.1.02-.16.03.05,0,.1-.02.16-.03-1.31-1.14-1.71-2.07-1.46-3.02.51-1.94-.47-3.91-3.99-8.05-1.46-1.72-2.66-3.42-2.66-3.77s-1.61-2.84-3.58-5.51c-1.97-2.67-3.58-5.31-3.58-5.87,0-1.76-2.31-3.19-3.4-2.1-.73.73-.54,1.71.83,4.3.98,1.84,1.78,3.6,1.77,3.91,0,.31,1.07,2.15,2.38,4.09s2.38,3.91,2.38,4.37.62,1.19,1.38,1.61c.76.43,1.14,1.02.83,1.33-.91.91-5.31-3.09-5.35-4.87-.02-.91-1.15-2.65-2.51-3.85-1.79-1.59-2.23-2.44-1.6-3.07s.45-1.32-.66-2.51c-.84-.9-2.18-3.6-2.98-6.01-1.13-3.43-1.76-4.32-2.92-4.12-.41.07-.7.05-.88-.03.09.31.48.52.96.46.56-.06,1.53,1.73,2.21,4.08.67,2.3,1.92,4.82,2.78,5.6,1.18,1.07,1.35,1.67.68,2.47-.68.82-.32,1.56,1.59,3.24,1.36,1.19,2.48,2.9,2.48,3.78,0,2.25,5.38,6.49,6.63,5.22.7-.71.59-1.18-.47-1.97-.77-.57-1.39-1.29-1.39-1.62s-1.07-2.18-2.38-4.13c-1.31-1.94-2.38-3.86-2.38-4.27s-.71-1.91-1.59-3.34c-.87-1.43-1.59-3.05-1.59-3.6,0-1.81,1.61-1.03,2.46,1.19.46,1.2,2.24,4.05,3.96,6.33s3.12,4.45,3.12,4.83,1.2,2.09,2.66,3.81c3.52,4.13,4.5,6.11,4,8.04-.57,2.18,2.85,4.93,11.32,9.13,5.6,2.77,7.03,3.2,8.25,2.44,1.2-.75,2-.56,4.36,1.04,3.73,2.53,8.83,5.13,10.07,5.13,1.84,0,4.65,3.43,4.65,5.66,0,2.41,1.15,3.65,2.05,2.2.37-.6.9-.28,1.55.93.59,1.1,1.9,1.97,3.25,2.15,1.24.17,2.69.66,3.22,1.1.68.56,1.21.32,1.82-.82,1.85-3.46,4.79.97,4.68,7.06-.05,2.8-.62,4.25-2.69,6.77-3.33,4.06-5.2,10.67-3.36,11.83,1.1.69,1.07.92-.25,2.03-1.46,1.22-1.45,1.34.19,4.83.92,1.97,3.02,7.33,4.65,11.92,2.67,7.51,3.32,8.61,6.45,10.96,1.92,1.44,4.52,3.54,5.78,4.67l2.3,2.05-.97,13.62c-.54,7.49-1.07,15.59-1.19,17.99-.14,2.86-.97,5.86-2.4,8.67-1.57,3.1-2.05,4.96-1.7,6.69.26,1.31.04,3.6-.49,5.08-.76,2.11-.76,3.02,0,4.23.53.85.97,2.85.97,4.44,0,2.48-.17,2.75-1.19,1.9-1.13-.94-1.44-.75-.99.6.11.33.47.51.79.4.33-.11.64.16.7.6.05.44.17,1.24.25,1.79.28,1.84-.49,2.29-1.51.9-.94-1.29-1.08-1.26-1.98.42-.89,1.67-.64,2.86.62,2.86.56,0,4.11,3.36,4.11,3.89,0,.17-.63.26-1.39.2-1.15-.09-1.39.57-1.39,3.86,0,2.19-.29,4.42-.64,4.97-.61.94-.43,1.11,1.44,1.33,1.6.19,4.53,2.74,4.05,3.52-.93,1.51,1.35,1.96,2.43.49,1.17-1.6,1.19-1.59,1.46,1.07.14,1.32-.13,1.71-.97,1.39-.64-.24-1.5-.23-1.92.03-1.34.83.98,2.71,3.34,2.71,1.23,0,2.44.33,2.69.72.58.94,2.35.66,3.89-.61,1.07-.88.82-1.41-1.97-4.2-1.86-1.86-3.66-3.01-4.32-2.75-.62.24-1.13.13-1.13-.25s.54-.89,1.19-1.14c.66-.25,1.19-1.31,1.19-2.35s.72-2.54,1.59-3.33c.88-.79,1.42-1.62,1.21-1.83-.21-.21.69-1.61,2-3.1,2.34-2.67,2.49-4.21.4-4.21-1.1,0-2.03-1.67-2.03-3.66,0-.63.89-1.49,1.99-1.9,1.49-.57,1.99-1.33,1.99-3.07s.46-2.44,1.79-2.82c1.58-.44,1.64-.62.55-1.48-.68-.54-1.49-1.65-1.8-2.47-.47-1.24-.27-1.41,1.21-1.02,2.08.54,4.61-1.41,4.61-3.55,0-1.13.87-1.56,4.09-1.98,6.26-.83,8.6-4.08,5.81-8.07-1.19-1.7-1.16-1.74.99-1.34,4.44.83,7.75-2.6,13.39-13.83,1.7-3.39,1.97-4.61,1.32-6.04-.45-.98-.58-2.11-.29-2.51.82-1.14,5.54-4.3,6.41-4.3.43,0,1.08-.52,1.43-1.15.35-.63,2.07-1.29,3.82-1.45,2.99-.28,3.31-.57,5.52-5.01,1.94-3.89,2.4-5.95,2.67-11.84.2-4.46.7-7.44,1.34-7.95.56-.45,2.31-2.74,3.89-5.08,2.09-3.1,2.88-5.11,2.88-7.38,0-2.72-.35-3.33-2.8-4.77ZM471.14,237.25c-.22.22-.63-.21-.91-.94-.28-.74-.34-1.52-.12-1.74.22-.22.63.21.91.94.28.74.34,1.52.12,1.74ZM474.08,392.4c-.06-2.85.51-2.76,3.86.6,1.85,1.85,2.48,2.98,1.87,3.36-1.41.88-2.85.95-3.34.15-.25-.4-1.48-.72-2.74-.72s-2.51-.36-2.78-.79c-.28-.46.29-.71,1.34-.6,1.53.16,1.83-.17,1.79-1.99Z"/><path class="cls-7" d="M496.58,127.45c-1.64.57-2.98.71-2.98.31s1.08-.94,2.4-1.2c2.93-.59,3.77-1.69,1.82-2.4-.79-.29-2.43-1.2-3.63-2.04-1.2-.83-2.2-1.22-2.21-.86-.01.36-.44-.07-.95-.94-.51-.87-.76-1.65-.57-1.72s-.47-1.01-1.47-2.07c-1-1.07-2.01-2.96-2.23-4.21-.76-4.18-1.9-4.67-4.42-1.92-1.24,1.36-2.63,2.24-3.09,1.96s-1.26-.18-1.79.22c-1.75,1.34-4.33-2.66-2.75-4.24,1.18-1.18.56-2.77-1.37-3.5-1.08-.41-2.72-1.61-3.63-2.66-1.38-1.58-2.36-1.89-5.77-1.82-3.89.09-4.19.24-5.43,2.87-.93,1.97-1.09,3.21-.55,4.22.52.98.47,1.81-.18,2.58-.52.63-.68,1.14-.36,1.14s.19.49-.3,1.08c-.68.82-.52,1.56.7,3.11,1.96,2.49,2.03,5.17.21,7.76-.89,1.27-1.42,3.63-1.49,6.63-.14,5.88-1.21,6.61-4.83,3.3-2.51-2.3-2.76-2.91-2.51-6.04l.28-3.48-3.9-.56c-2.51-.36-5.38-1.59-8.05-3.43-2.29-1.57-4.65-2.76-5.24-2.63-.67.14-.99-.33-.84-1.22.34-1.99-1.19-3.63-2.95-3.17-1.02.27-1.59-.17-1.93-1.45-.55-2.1,3.42-8.94,5.98-10.31.85-.46,1.37-1.31,1.14-1.9-.46-1.2,1.33-2.15,2.92-1.54,1.12.43,5.31-2.47,5.31-3.67,0-.39-1.16-1.05-2.58-1.46l-2.58-.75,2.98-.07c2.83-.07,2.98.06,2.98,2.42,0,1.4-.58,2.92-1.32,3.46-1.16.85-1,1.12,1.39,2.32,2.65,1.33,2.74,1.32,4.34-.54,1.49-1.73,1.79-1.8,3.38-.74.17.12.33.22.48.3.66,0,1.24.12,1.77.31.21-.09.43-.24.67-.44,1.02-.85.89-1.29-.99-3.28-1.19-1.26-3.31-2.51-4.7-2.77-3.02-.57-4.3-2.7-1.62-2.71,1.92,0,6.93-2.75,6.93-3.81,0-.36-.51-1.35-1.13-2.2-.84-1.15-.9-1.81-.24-2.61,1.74-2.09-5.64-5.58-7.62-3.6-.28.28-.16,1.15.27,1.94.83,1.54-.33,2.99-1.22,1.53-.28-.45-.85-.61-1.26-.36-.41.26-.54.8-.29,1.22.26.41.8.55,1.21.3,1.17-.72.86.93-.36,1.94-1.2.99-2.08-.3-2.08-3.04,0-.77-.67-2.01-1.5-2.76-1.43-1.29-1.58-1.25-3.18.78-1.63,2.07-1.68,2.08-1.68.36,0-1.11-.6-1.93-1.61-2.19-1.14-.3-1.38-.7-.82-1.37.55-.66.1-1.7-1.5-3.45-1.9-2.08-2.1-2.65-1.18-3.42.61-.51.91-1.24.67-1.62s.06-.7.67-.7,1.89-.84,2.86-1.87c2.22-2.36.96-3.69-3.04-3.22-4.2.5-5.3,2.02-4.27,5.88.47,1.75.55,3.18.18,3.18s-1.28.93-2.02,2.07c-1.09,1.66-1.17,2.36-.41,3.58.76,1.21.73,1.51-.16,1.51-.61,0-1.56-.55-2.11-1.22-.9-1.08-1.2-1.05-2.68.35-.92.86-1.94,1.59-2.27,1.62-.89.07-.72,1.23.2,1.34.44.05,1.09.14,1.46.2.36.05.66.59.66,1.2,0,.72-1.33,1.25-3.87,1.56-4.12.49-7.99-.36-6.33-1.38.52-.32.73-.92.48-1.34-.26-.41-.8-.54-1.22-.29-.41.26-.55.8-.3,1.21.25.41.12.74-.3.74s-.96-.54-1.21-1.19c-.29-.76-1.55-1.2-3.46-1.22-2.93-.03-2.96-.06-1.11-1.08,1.58-.88,2.5-.87,5.48.02,1.97.59,4.01,1.43,4.53,1.87,1.54,1.28,2.13-.12.71-1.69-1.22-1.34-1.16-1.49.84-2.25,2.57-.98,1.99-2.4-.98-2.42-3.03-.02-4.08-.9-5.3-4.44-.76-2.22-.83-3.39-.22-4.13.6-.73.6-1.27,0-1.88-.95-.95-2.85-.15-2.18.92.23.38-.39.8-1.37.94-1.29.18-1.92.93-2.22,2.64-.31,1.75-.56,2.04-.94,1.08-.28-.72-1.63-1.86-3-2.54-2.17-1.08-2.54-1.09-2.93-.07-.34.88-.71.95-1.51.29-.59-.49-1.4-.68-1.81-.42-.41.25-.96-.1-1.22-.78-.33-.85-1.01-1.07-2.17-.71-1.1.35-1.51.24-1.17-.31.77-1.25-3.07-3.46-5.65-3.25-1.23.1-2.84-.09-3.59-.41-2.04-.88-5.77.65-5.9,2.42-.06.84-.15,2.15-.2,2.91-.05.77-.6,1.39-1.23,1.39-1.79,0-2.3,1.54-.69,2.11.79.28,1.98,1.16,2.63,1.96,1.07,1.31,1.4,1.34,3.18.32,1.09-.63,2.79-1.5,3.78-1.95.98-.45,1.79-1.18,1.79-1.62,0-1.78,1.2-.68,1.31,1.19.2,3.49,1.78,4.59,5.86,4.1,2.01-.24,4.16-.12,4.78.27.73.45-.82.78-4.42.94-5.85.25-7,1.36-2.57,2.49,1.42.36,3.34,1.36,4.25,2.21s2.17,1.39,2.78,1.19,2.73-.58,4.69-.86c3.29-.46,3.45-.41,1.99.67-1.32.97-1.39,1.25-.4,1.64,1.25.49,1.87,5.21.68,5.21-.37,0-.68-.67-.68-1.49,0-2.08-4.01-3.57-8.33-3.08-4,.45-4.97,0-3.05-1.4,1.19-.87,1.11-1.1-.81-2.36-1.67-1.09-2.38-1.19-3.26-.46-.88.73-1.71.64-3.77-.44-3.5-1.82-8.75-2.77-9.94-1.78-.62.52-1.75.36-3.37-.48-2.59-1.34-3.49-1.09-7.92,2.15-2.59,1.9-4.17,1.74-1.69-.17,2.98-2.29.23-2.96-3.39-.83-1.85,1.09-3.01,1.38-3.35.82-.29-.46-.87-.63-1.3-.36-.47.29-.49.84-.06,1.4,1.07,1.37,1.88,6.27.93,5.69-.43-.27-.78-1.34-.78-2.38,0-1.98-.66-2.68-2.98-3.16-.77-.16-2.96-.86-4.87-1.54-1.91-.69-4.31-1.25-5.32-1.25s-2.04-.32-2.28-.71-2.6-.74-5.23-.78-5.5-.45-6.37-.91c-1.07-.57-2.05-.58-3.08-.03-1.12.6-1.76.5-2.48-.37-.54-.65-1.98-1.18-3.22-1.18s-2.47-.38-2.76-.83c-.36-.58-.84-.56-1.57.04-.72.6-1.21.61-1.56.05-.33-.54-1.19-.38-2.46.45-1.07.7-1.96.97-1.97.59-.01-.38-.46-.15-.99.5-.53.66-1.86,1.31-2.96,1.45s-2.57,1.01-3.29,1.93c-.72.92-1.9,1.75-2.63,1.86-.73.11-2.24.79-3.35,1.52l-2.03,1.33,2.67,2.33c2.67,2.34,6.12,4.25,7.24,4.01.33-.07.6.19.6.58,0,1.35-2.19,1.55-4.41.4-1.52-.79-2.48-.9-3.04-.33-.45.45-1.42.82-2.15.82s-1.78.53-2.32,1.18c-.8.97-.71,1.29.5,1.79.82.33,1.48,1.14,1.48,1.79,0,1.76,7.63,2.77,8.83,1.18,1.22-1.62,1.66-1.46,1.51.55-.12,1.59-2.04,2.9-5.17,3.52-2.01.4-4.06,3.56-3.51,5.4.74,2.45,3.64,5.35,5.06,5.05.68-.14,1.61.25,2.08.86,1.33,1.74,6.31,3.2,7.89,2.31,1.16-.65,1.27-.49.78,1.12-.87,2.83-1.76,3.64-6.38,5.83-2.33,1.1-4.45,2.34-4.7,2.75-.7,1.13,1.18,1.94,2.18.94,1.07-1.07,3.23-1.19,2.59-.14-.1.17-.14.33-.14.48.31-.45.7-.84,1.17-1.15-.79-.39,0-.79,5.54-3.84,3.67-2.02,9.06-7.24,8.47-8.2-.22-.35,0-.87.46-1.17.47-.29,1.18-1.39,1.58-2.44.4-1.05,1.36-1.9,2.14-1.89,1.34.02,1.34.07.02.83-1.52.88-1.87,3.52-.59,4.31.44.27,1.87-.03,3.17-.68,1.38-.69,2.56-.87,2.83-.44.25.41.8.53,1.21.28.41-.26.54-.8.29-1.22-.26-.41-.8-.55-1.21-.3-.7.43-.98-.52-.54-1.81.29-.84,2.19-1,2.19-.18,0,1.13,4.88,2.97,9.23,3.49,2.24.27,5.79,1.36,7.9,2.43,2.6,1.31,4.14,1.69,4.77,1.17.66-.55,1.3-.03,2.18,1.79,1.36,2.8,1.02,4.4-.63,3.02-.73-.6-1.21-.62-1.57-.04-.28.46-.32.88-.07.93.24.05.71.15,1.04.21s1.04.4,1.59.74c.93.59,1.31.15,1.09-1.25-.16-1.02,1.25-.65,2.29.6.54.66,1.48,1.19,2.08,1.19s1.1.54,1.1,1.19-.32,1.1-.72.99c-.66-.18-.87.19-.87,1.49,0,.27.54.05,1.19-.49.66-.54,1.24-.77,1.29-.49.38,1.89.31,2.6-.35,3.48-.41.55-.48.99-.15.99s.17.5-.34,1.12c-.04.04-.06.08-.09.12.37.22.7.5.98.81,0-.19-.01-.41-.05-.66-.11-.73.19-.74,1.86-.1,1.19.46,1.19.61.01,1.91-.35.39-.57.75-.68,1.06.06.26.11.53.13.79.02.02.04.04.06.05.44.27,1.01.14,1.27-.28s1.01-.57,1.67-.32c.91.35.98.71.27,1.56-.5.6-.65,1.1-.32,1.1s.11.58-.48,1.29c-.92,1.11-.75,1.55,1.29,3.2,1.3,1.05,3.39,2.43,4.64,3.07,2.37,1.21,4.09.9,3.18-.56-.3-.48-.05-.69.58-.48.61.2,1.22,1.39,1.37,2.64.24,2.01.12,2.16-1.01,1.22-1.87-1.55-2.24-.71-2.49,5.71-.12,3.18-.34,7.57-.49,9.76-.19,2.96.18,4.79,1.49,7.15.96,1.75,2.17,3.08,2.69,2.95.53-.13.75.27.5.92-.61,1.59,3.82,8.36,6.01,9.16.78.29,1.43.73,1.68,1.09.02-.05.04-.1.08-.16.29-.47-.34-1.18-1.41-1.59-2.17-.82-5.48-5.67-5.66-8.28-.07-.94-.52-1.63-1-1.54-1.81.35-3.75-5.53-3.47-10.51.15-2.62.31-7.01.36-9.74.08-4.73.58-5.95,1.68-4.16.75,1.22,1.98.12,1.98-1.77s-6.7-8.58-8.7-8.58-2.57-.86-1.58-2.06c1.22-1.47-1.78-3.01-3.29-1.68-.6.53-.43.16.37-.8,1.45-1.73,1.44-1.78-.61-2.71-1.28-.59-1.84-1.28-1.44-1.82,1.13-1.53-.74-6.81-2.42-6.86-1.1-.03-4.59-2.7-4.59-3.51,0-.27-.58-1.38-1.29-2.47-.9-1.38-1.58-1.74-2.23-1.19-.64.53-2.17.15-4.78-1.17-2.11-1.07-5.67-2.16-7.9-2.41-4.18-.48-7.61-1.73-8.61-3.13-1.28-1.8-4.84-.37-4.07,1.64.36.93-2.39,2.74-4.15,2.74-.96,0-.17-2.74,1.05-3.63,1.32-.98,1.32-1.05-.01-1.57-1.54-.6-3.77.84-3.77,2.42,0,.55-.53,1.44-1.18,1.98-.65.54-1.02,1.24-.82,1.57.53.86-4.25,5.5-7.49,7.26-1.55.84-3.36,1.87-4.02,2.27-2.48,1.53-6.63,3.21-7.01,2.84-.21-.21,1.01-.97,2.71-1.68,4.47-1.86,7.48-4.19,8.33-6.44.91-2.4.27-3.68-1.39-2.75-1.54.86-6.59-.8-7.52-2.47-.38-.67-1.33-1.06-2.11-.85-1.58.41-3.67-1.57-4.49-4.26-.37-1.22-.03-2.25,1.13-3.41.91-.91,1.91-1.52,2.23-1.34,1.23.69,5.21-2.37,5.34-4.1.17-2.28-1.16-3.14-2.34-1.53-1.22,1.67-8.71.98-8.05-.73.26-.67-.28-1.39-1.35-1.8-1.72-.66-1.72-.7-.19-1.22.87-.29,2.19-.86,2.93-1.25.88-.47,2.09-.32,3.51.41,1.56.81,2.59.9,3.67.32,1.48-.79,1.58-2.62.15-2.75-1.61-.15-4.04-1.51-6.5-3.62l-2.59-2.23,2.29-1.18c1.26-.65,2.47-1,2.69-.77.22.22,1.11-.49,1.97-1.58s2.54-2.12,3.73-2.28,2.49-.8,2.89-1.43c.4-.63.73-.83.74-.46,0,.38.89.11,1.96-.59,1.27-.83,2.12-.99,2.46-.45.35.56.84.55,1.56-.05.73-.6,1.21-.62,1.57-.04.28.46,1.52.83,2.76.83s2.68.53,3.22,1.18c.72.87,1.36.97,2.48.37,1.03-.55,2.01-.54,3.08.03.86.46,3.73.87,6.37.91s4.99.39,5.23.78,1.27.71,2.28.71,3.41.57,5.32,1.26c3.3,1.2,5.13,1.72,6.46,1.86.33.03.6.91.6,1.95,0,1.93,1.75,4.05,2.62,3.18.66-.66-.25-5.19-1.34-6.66-.74-1-.68-1.04.35-.23.99.77,1.74.65,3.8-.6,1.41-.86,3-1.54,3.54-1.53.54.02-.57.96-2.45,2.1-2.15,1.29-3.15,2.35-2.68,2.82.72.72,3.1-.32,9.52-4.17,2.44-1.46,2.78-1.49,5.03-.33,1.61.83,2.72.99,3.34.47,1.19-.98,6.44-.04,9.94,1.78,2,1.04,2.9,1.16,3.73.48.81-.67,1.53-.66,2.85.05,1.61.86,1.64,1.02.4,1.71-2.37,1.33-.1,2.92,3.48,2.44,4.44-.6,7.1.29,8,2.65.96,2.53,2.82,2.04,2.54-.67-.16-1.48.23-2.12,1.47-2.45,1.91-.5,1.34-2.17-.71-2.08-1.1.05-1.05.18.25.74,1.05.45,1.18.7.4.73-.66.02-1.67-.26-2.25-.63-.85-.54-.79-.77.26-1.18,2.09-.8,5.96-.59,5.96.33,0,.46,1.25,1.36,2.78,2,2.96,1.24,8.08.93,11.38-.67,1.39-.68,2.22-.65,3.41.09,1.91,1.19,2.65.8,4.16-2.22,1.26-2.53,1.02-3.21-1.14-3.21-2.88,0-2.8-4.02.1-5.57,2.03-1.08,6,2.88,4.59,4.58-.7.84-.52,1.18.83,1.53.97.25,1.72,1.08,1.72,1.9,0,2.34,1.31,2.48,2.75.29,1.07-1.64,1.55-1.85,2.47-1.09.63.52,1.14,1.73,1.14,2.68s.48,2.39,1.06,3.18c.99,1.35,1.19,1.28,3.12-1.2,1.58-2.01,1.89-2.98,1.3-4.08-.65-1.22-.44-1.43,1.45-1.41,2.98.03,5.52,1.96,4.39,3.33-.61.74-.53,1.45.28,2.56.62.85,1.13,1.82,1.13,2.16,0,1.01-4.73,3.16-6.61,3.01-2.85-.23-3.02-.04-1.72,1.93.68,1.04,2.35,2.12,3.71,2.39,2.69.54,6.6,4.14,5.34,4.91-.43.26-1.61-.06-2.62-.72-1.72-1.13-1.94-1.07-3.34.79-1.42,1.88-1.63,1.93-3.72.84-1.77-.92-1.96-1.26-.95-1.65.92-.35,1.21-1.31,1.03-3.48-.23-2.75-.46-3.01-2.93-3.24-2.8-.27-5.31,1.1-3.21,1.74,4.58,1.41,4.47,1.28,2.39,2.98-1.06.86-2.42,1.37-3.04,1.14-1.39-.53-4.38.98-3.8,1.92.23.38-.56,1.72-1.77,2.99-5.14,5.39-6.06,7.3-4.95,10.21.56,1.49,1.25,1.96,2.56,1.78,1.34-.19,1.8.15,1.82,1.34.04,2.12,1.09,3.72,2.05,3.12.43-.26,2.7.84,5.05,2.46,2.79,1.92,5.5,3.08,7.8,3.34l3.53.4-.36,3.29c-.33,3-.08,3.54,2.78,6.24,2.71,2.55,3.33,2.81,4.53,1.93,1.03-.75,1.42-2.25,1.5-5.73.07-3.05.6-5.41,1.5-6.68,1.82-2.59,1.75-5.27-.21-7.76-1.22-1.55-1.38-2.28-.7-3.11.49-.59.63-1.08.3-1.08s-.17-.51.36-1.14c.63-.76.7-1.63.21-2.58-.49-.96-.39-2.28.31-3.93.98-2.33,1.29-2.48,4.86-2.37,2.96.09,4.32.6,6.12,2.29,1.27,1.19,2.79,2.17,3.38,2.17,1.21,0,1.47,2.05.35,2.74-1.09.67-.61,2.31,1.26,4.32,1.14,1.23,1.86,1.51,2.24.9.31-.5,1.1-.7,1.75-.45.71.27,2.09-.51,3.44-1.95,2.39-2.55,2.84-2.4,3.49,1.18.22,1.23,1.2,3.09,2.17,4.12.97,1.03,1.51,1.87,1.21,1.87s.04.91.76,2.01c.73,1.11,1.5,1.83,1.72,1.61s1.33.26,2.48,1.05c1.14.8,2.61,1.65,3.27,1.9.84.32.71.47-.44.51-2.16.08-4.7,1.99-4.06,3.03.35.56,1.48.49,3.5-.21,3.57-1.23,4.58-.59,4.58,2.9,0,2.27-.32,2.68-2.38,3.11-1.31.27-3.17.91-4.12,1.42-.96.51-3.5.93-5.66.93s-5.05.22-6.41.5c-3.25.65-10.06,6.56-8.9,7.72.59.59,1.52.19,3.1-1.33,2.74-2.63,8.08-3.83,8.08-1.82,0,.73-.64,1.3-1.46,1.3-2.45,0-2.53.88-.29,3.18,1.69,1.74,2.39,2.01,3.29,1.3.86-.67,1.01-.67.6,0-.3.5-.02,1.33.61,1.86.93.77,1.54.57,3.12-1.02,1.86-1.86,2.86-1.99,2.86-.37,0,.39-.36.49-.8.21s-1,.03-1.25.68c-.25.64-1.59,1.62-2.98,2.17-1.39.55-3.33,1.72-4.32,2.6-1.43,1.28-1.79,1.36-1.79.39,0-1.45,2.46-3.82,4.04-3.9.65-.03.46-.32-.46-.69-1.09-.43-2.77-.04-5.34,1.25-2.06,1.04-4.29,1.88-4.95,1.88s-1.81.93-2.55,2.07c-1.06,1.62-1.16,2.38-.45,3.51.98,1.57-.06,2.38-3.04,2.38-1.7,0-5.49,5.09-5.61,7.54-.06,1.31-.18,1.24-.63-.38-.3-1.09-.89-1.99-1.31-1.99-1.11,0-1.39,4.04-.41,5.87.57,1.07.58,1.74.04,2.08-.45.28-.63.8-.4,1.16.22.36-.18.88-.9,1.16s-1.12.68-.91.89c.22.22-1.52,2.32-3.86,4.68s-4.25,4.77-4.25,5.35.72,3.57,1.59,6.63c1.86,6.5,1.94,7.55.59,7.55s-3.2-3.06-3.51-5.78c-.4-3.55-2.48-6.08-4.9-5.97-1.17.05-3.01-.16-4.11-.47-1.28-.37-2.55-.16-3.55.57-1.33.97-1.4,1.33-.5,2.42.95,1.14.78,1.23-1.62.81-1.47-.26-3.64-.76-4.81-1.13-2.82-.88-3.7-.7-7.28,1.51-2.64,1.63-2.99,2.2-2.79,4.51.13,1.45-.03,2.9-.34,3.22-1.14,1.14-.56,7.74.94,11.06.22,0,.45.02.67.04.04-.01.08-.03.12-.04-1.49-3.3-2.07-9.92-.94-11.06.32-.31.48-1.72.37-3.11-.16-2.11.25-2.82,2.41-4.2,2.74-1.75,3.38-1.78,9.75-.48,4.46.91,5.72.56,4.28-1.17-1.34-1.61.59-2.86,3.29-2.13,1.09.3,2.92.5,4.06.45,2.24-.1,3.79,1.9,4.17,5.4.28,2.58,2.77,6.35,4.21,6.35,1.95,0,2.04-2.08.34-8.13-.91-3.23-1.65-6.32-1.65-6.86s1.97-2.93,4.37-5.32,4.1-4.35,3.78-4.36c-.33-.01.04-.39.81-.84s1.22-1.13.98-1.51c-.23-.38-.06-.92.38-1.19.54-.34.55-.99.01-1.99-.44-.82-.76-2.5-.72-3.73q.08-2.23.63-.25c.66,2.39,1.89,2.25,2.56-.28.83-3.11,3.19-6.08,4.82-6.08.85,0,2.27-.38,3.14-.85,1.28-.69,1.4-1.07.63-2.01-1.23-1.48.24-5.09,2.07-5.09.68,0,2.64-.72,4.36-1.59,3.92-2,4.6-2.01,2.81-.03-.83.92-1.2,2.11-.9,2.9.47,1.23.66,1.21,2.28-.2.97-.85,3.11-2.15,4.75-2.89,1.64-.74,2.98-1.73,2.98-2.2s.33-.65.74-.4c1.22.75,1.86-1.14.82-2.39-.06-.07-.12-.13-.18-.19-.68.55-1.55.92-2.62,1-.02.02-.04.04-.06.06-1.68,1.81-4.15,2.1-3.07.36.23-.38.08-.89-.33-1.15-.41-.26-.96-.12-1.22.3-.26.42-1.27-.02-2.24-.98-1.74-1.71-1.74-1.75-.18-2.18.9-.25,1.59-1.11,1.59-1.99,0-2.45-5.42-1.97-8.24.73-2.6,2.49-4.19,2.82-2.02.42,3.41-3.78,5.91-4.87,12.5-5.47,5.83-.53,9.7-1.46,13.26-3.18.69-.34,1.19-1.65,1.19-3.13,0-3.81-1.66-4.94-5.37-3.66ZM364.13,135.86c2.38.68,4.85,3.23,5.16,5.33.17,1.18-.34,1.16-2.52-.07-6.15-3.48-7.79-6.73-2.64-5.25ZM353.68,80.18c-.66.42-1.55.77-1.99.77s-.26-.35.4-.77c.66-.42,1.55-.77,1.99-.77s.26.35-.4.77ZM379.12,68.27c0,.43-.49.77-1.1.77s-1.51.5-2.01,1.11c-1.51,1.82-3.71,1.99-4.72.38-.51-.82-1.55-1.51-2.31-1.53-1.05-.04-.96-.22.4-.77,1.69-.68,2.14-1.86,1.84-4.87-.15-1.5,4.02-2.78,5.69-1.75.56.34,1.97.52,3.15.4,2.74-.29,5.33,1.1,5.09,2.72-.19,1.32-1.88,2.72-3.25,2.69-.44,0,.1-.53,1.19-1.15,2.67-1.53,1.33-1.51-1.63.02-1.29.67-2.35,1.56-2.35,1.99ZM389.04,78.57c-.72-.79-2.62-1.79-4.22-2.22-2.73-.73-2.58-.78,2.4-.86,2.93-.05,5.53-.42,5.79-.84.83-1.35-2.28-2.28-6.12-1.85-3.53.4-3.8.29-4.59-1.78-.46-1.21-.74-2.27-.62-2.35,1.9-1.28,6.11-3.61,6.53-3.61.31,0,.34.69.07,1.52-.63,1.99.85,2.89,1.84,1.11.64-1.15.97-1.2,2.03-.32,1.05.87,1.34.85,1.72-.15.4-1.04.74-1.05,2.71-.07,1.24.62,2.47,1.68,2.73,2.35.66,1.73,2.07.6,2.07-1.65,0-1.34.51-1.96,1.79-2.16.98-.15,1.7-.71,1.59-1.25-.11-.54.16-.97.6-.97,1,0,1.03,1.03.06,2.03-.98,1,1.06,6.79,2.84,8.1.76.55,2.47,1.03,3.81,1.07,1.34.03,1.9.26,1.24.5-2.83,1.05-3.28,1.98-1.81,3.71,1.12,1.32,1.14,1.45.11.66-.72-.55-2.86-1.46-4.77-2.02-3-.88-3.89-.84-6.65.33-5.06,2.14-9.59,2.44-11.15.72ZM425.09,78.1l2.5-.5-1.24,2.48c-1.25,2.5-2.25,3.08-3.06,1.77-.24-.39.09-.92.75-1.17.65-.25,1.18-.91,1.18-1.47,0-.82-.14-.82-.65-.01-.35.55-1.78,1.34-3.18,1.74-1.59.45-2.37.45-2.08-.02.25-.41-.11-.97-.81-1.24-1.16-.45-1.15-.63.08-1.99,1.22-1.35,1.49-1.38,2.69-.29.91.82,2.13,1.04,3.83.7ZM426.37,67.06c-.3-1.6-.22-3.22.17-3.62.98-.98,6.49-1.63,6.99-.82.47.76-1.71,2.78-3.79,3.52-.79.28-1.24.83-1,1.22.24.39-.07,1.14-.7,1.65-.94.78-1.23.44-1.68-1.96Z"/><path class="cls-7" d="M421.99,211.81s-.01-.03-.02-.04c-.04.01-.08.03-.12.04.05,0,.09,0,.14,0Z"/></g><rect class="cls-12" x="469.82" y="150.89" width="42.05" height="13.84" rx="1.47" ry="1.47"/><text class="cls-21" transform="translate(474.85 160.38)"><tspan x="0" y="0">US East</tspan></text><rect class="cls-10" x="273.59" y="88.9" width="187.11" height="60.55" rx="12" ry="12"/><rect class="cls-13" x="279.9" y="102.29" width="175.08" height="41.91" rx="12" ry="12"/><text class="cls-15" transform="translate(346.38 112.96)"><tspan class="cls-23" x="0" y="0">W</tspan><tspan x="7.01" y="0">or</tspan><tspan class="cls-24" x="14.42" y="0">k</tspan><tspan x="18.5" y="0">er pool</tspan></text><rect class="cls-34" x="341.12" y="129.57" width="53.42" height="9.89" rx="4.95" ry="4.95"/><text class="cls-15" transform="translate(354.59 98.46)"><tspan x="0" y="0">Clu</tspan><tspan class="cls-25" x="11.69" y="0">s</tspan><tspan class="cls-28" x="15.53" y="0">t</tspan><tspan x="18.3" y="0">er </tspan></text><rect class="cls-34" x="341.42" y="118.81" width="53.42" height="9.89" rx="4.95" ry="4.95"/><text class="cls-8" transform="translate(351.87 126.11)"><tspan class="cls-23" x="0" y="0">W</tspan><tspan x="7.01" y="0">or</tspan><tspan class="cls-24" x="14.42" y="0">k</tspan><tspan x="18.5" y="0">er 1</tspan></text><text class="cls-8" transform="translate(351.24 137.68)"><tspan class="cls-23" x="0" y="0">W</tspan><tspan x="7.01" y="0">or</tspan><tspan class="cls-24" x="14.42" y="0">k</tspan><tspan x="18.5" y="0">er 2</tspan></text><rect class="cls-34" x="284.41" y="118.3" width="53.42" height="9.89" rx="4.95" ry="4.95"/><rect class="cls-34" x="284.17" y="129.57" width="53.42" height="9.89" rx="4.95" ry="4.95"/><text class="cls-8" transform="translate(294.77 126.36)"><tspan class="cls-23" x="0" y="0">W</tspan><tspan x="7.01" y="0">or</tspan><tspan class="cls-24" x="14.42" y="0">k</tspan><tspan x="18.5" y="0">er 1</tspan></text><polygon class="cls-5" points="762.33 116.39 709.35 160.41 714.35 91.71 762.33 116.39"/><path class="cls-7" d="M683.63,150.73c1.67-.22,4.4.08,6.06.67,2.01.72,2.45,1.09,1.32,1.11-1.76.04-4.74,3.62-3.59,4.33.36.22.49,1.5.3,2.83s.08,2.96.62,3.6c1.44,1.73,2.39.7,2.39-2.63,0-3.52,2.35-7.51,3.86-6.58.57.35.91,1.13.77,1.74-.14.61.1,1.25.54,1.41s1.26.98,1.84,1.8c1.31,1.88,2.53,1.2,2.53-1.41,0-1.09.33-1.78.74-1.53,1.17.72,1.88-1.11.89-2.3-.49-.59-2.4-1.3-4.26-1.58-2.75-.41-3.56-.94-4.42-2.89-.58-1.31-2.13-2.94-3.45-3.62-2.24-1.16-2.5-1.13-4.1.36-.94.88-2.71,1.98-3.94,2.45-3.17,1.2-1.87,2.72,1.9,2.21ZM681.97,149.34c1.09-.47,2.74-1.57,3.66-2.44,1.43-1.34,1.98-1.44,3.74-.64,1.13.52,2.61,2.1,3.29,3.52,1.03,2.16,1.83,2.7,4.94,3.27,2.04.38,3.87,1.14,4.05,1.7.19.56-.12.92-.69.79-.59-.13-1.23.8-1.5,2.16q-.47,2.38-1.48.57c-.55-1-1.31-1.62-1.68-1.39-.37.23-.5-.26-.28-1.1.26-.99-.16-1.82-1.19-2.37-1.33-.71-1.82-.5-3.03,1.32-.79,1.19-1.64,3.78-1.87,5.75-.27,2.27-.67,3.21-1.08,2.57-.36-.56-.55-1.99-.42-3.18.13-1.19,0-2.53-.27-2.97-.69-1.12,1.08-3.32,2.96-3.69,4.52-.87-2.5-3.89-7.81-3.36-2.95.3-3.11.23-1.35-.53Z"/><path class="cls-7" d="M696.74,164.56c.75,1.21,2.21.75,5.45-1.7,1.72-1.3,3.77-2.36,4.57-2.36,1.72,0,4.88-2.93,4.25-3.95-.24-.39-2.67.43-5.4,1.82-6.61,3.38-9.41,5.33-8.88,6.19ZM705.58,159.12c3.12-1.57,4.76-2.07,4.49-1.36-.24.61-1.62,1.45-3.08,1.85-1.46.4-3.87,1.66-5.36,2.8-1.49,1.14-3.17,2.06-3.73,2.06-1.54,0,2.14-2.56,7.69-5.35Z"/><path class="cls-7" d="M753.68,148.03c0-.19.05-.47.17-.82.7-2.21-2.02-4.53-4.44-3.78-1.8.56-1.81.54-.4-1.04,2.64-2.96-.01-2.6-3.35.45-1.45,1.33-2.24,2.11-2.55,2.73.06.42.07.85.03,1.27.08.15.19.31.32.49,1.07,1.46,2.6,1.44,6.55-.08.98-.38,1.22-.25.8.43-.33.53-.36,1.58-.07,2.32.49,1.26.6,1.25,1.58-.09.33-.45.64-.73.9-.84.12-.37.27-.72.47-1.05ZM752.34,148.32c-1.09,1.89-1.23,1.96-.92.45.49-2.38-.24-2.69-3.78-1.6-5.37,1.65-4.96-1.56.72-5.74,1.55-1.14,1.55-1.12.2.47-1.63,1.92-1.07,2.85,1.37,2.24,1.03-.26,2.13.05,2.72.76.8.96.74,1.63-.3,3.43Z"/><rect class="cls-12" x="628.12" y="172.82" width="42.05" height="13.84" rx="1.47" ry="1.47"/><text class="cls-21" transform="translate(629.23 183.01)"><tspan x="0" y="0">US </tspan><tspan class="cls-36" x="13.52" y="0">S</tspan><tspan x="18.51" y="0">outh</tspan></text><line class="cls-3" x1="709.36" y1="169.68" x2="708.79" y2="163.53"/><circle class="cls-20" cx="708.67" cy="162.24" r="1.68"/><line class="cls-3" x1="709.13" y1="169.72" x2="707.38" y2="163.79"/><circle class="cls-20" cx="707.02" cy="162.55" r="1.68"/><line class="cls-3" x1="702.43" y1="159.04" x2="704.17" y2="152.08"/><circle class="cls-6" cx="704.54" cy="150.62" r="1.95"/><line class="cls-3" x1="673.61" y1="189.78" x2="673.04" y2="183.63"/><circle class="cls-20" cx="672.92" cy="182.34" r="1.68"/><line class="cls-3" x1="673.38" y1="189.82" x2="671.63" y2="183.9"/><circle class="cls-20" cx="671.27" cy="182.65" r="1.68"/><line class="cls-3" x1="674.07" y1="189.7" x2="675.13" y2="183.62"/><circle class="cls-20" cx="675.35" cy="182.34" r="1.68"/><line class="cls-3" x1="711.91" y1="152.16" x2="713.65" y2="145.2"/><circle class="cls-6" cx="714.02" cy="143.74" r="1.95"/><g class="cls-19"><path class="cls-7" d="M787.29,274.85c-1.54-.91-3.14-2.29-3.56-3.06-.56-1.05-2.02-1.49-5.74-1.75-4.28-.29-5.37-.7-7.66-2.88-3.21-3.05-5.06-3.2-6.8-.55-.89,1.37-1.98,1.96-3.47,1.91-2.13-.08-2.13-.09-.26-.61,2.56-.72,3.94-2.91,2.65-4.21-.76-.76-1.48-.59-3.36.8-1.31.97-2.38,1.49-2.37,1.15.04-.97,2.34-3.79,3.19-3.9.42-.05,1-.14,1.28-.2.29-.05-.13-.81-.92-1.69-.79-.87-1.22-1.59-.96-1.59s.03-1.07-.52-2.39c-1.41-3.35-5.76-6.36-9.19-6.36-2.2,0-3.45-.65-5.74-2.98-1.61-1.64-3.66-3.65-4.55-4.48-.9-.82-1.55-1.88-1.46-2.36s-1.09-1.06-2.62-1.29-2.69-.69-2.58-1.02c.11-.33.02-.6-.2-.6h-.89c-.27,0-.05.54.49,1.19.83.99.72,1.19-.65,1.19-.9,0-1.87-.37-2.14-.82s-.92-.75-1.44-.67c-1.38.22-3.98-1.03-5.09-2.44-.87-1.1-1.04-1.04-1.47.49-.27.95-.99,1.93-1.6,2.16-1.32.51-1.47-.44-.25-1.66.62-.62.6-1.02-.06-1.44-.53-.32-1.87.33-3.11,1.51-1.2,1.15-2.41,1.85-2.7,1.56-.89-.89-2.82,1.28-3.37,3.8l-.53,2.4-1.93-1.81c-1.74-1.63-2.25-1.73-5.11-.96-2.97.79-3.29.71-4.83-1.23-1.42-1.8-1.58-2.76-1.15-7.03l.5-4.95-2.63-1.1c-1.45-.6-3.8-.93-5.23-.72-2.51.37-2.58.31-2.05-1.9.3-1.26.82-2.64,1.16-3.08.34-.44.73-2.4.88-4.37l.27-3.58-2.97.09c-3.69.11-5.38,1.45-5.38,4.28,0,1.96-.34,2.23-3.33,2.63-4.27.57-5.81-.3-7.79-4.39-1.56-3.23-2.18-10.1-1.02-11.26.32-.31.48-1.72.37-3.11-.16-2.11.25-2.82,2.41-4.2,2.74-1.75,3.38-1.78,9.75-.48,4.46.91,5.72.56,4.28-1.17-1.34-1.61.59-2.86,3.29-2.13,1.09.3,2.92.5,4.06.45,2.24-.1,3.79,1.9,4.17,5.4.28,2.58,2.77,6.35,4.21,6.35,1.95,0,2.04-2.08.34-8.13-.91-3.23-1.65-6.32-1.65-6.86s1.97-2.93,4.37-5.32,4.1-4.35,3.78-4.36c-.33-.01.04-.39.81-.84s1.22-1.13.98-1.51c-.23-.38-.06-.92.38-1.19.54-.34.55-.99.01-1.99-.44-.82-.76-2.5-.72-3.73q.08-2.23.63-.25c.66,2.39,1.89,2.25,2.56-.28.83-3.11,3.19-6.08,4.82-6.08.85,0,2.27-.38,3.14-.85,1.28-.69,1.4-1.07.63-2.01-1.23-1.48.24-5.09,2.07-5.09.68,0,2.64-.72,4.36-1.59,3.92-2,4.6-2.01,2.81-.03-.83.92-1.2,2.11-.9,2.9.47,1.23.66,1.21,2.28-.2.97-.85,3.11-2.15,4.75-2.89,1.64-.74,2.98-1.73,2.98-2.2s.33-.65.74-.4c1.22.75,1.86-1.14.82-2.39-.06-.07-.12-.13-.18-.19-.68.55-1.55.92-2.62,1-.02.02-.04.04-.06.06-1.68,1.81-4.15,2.1-3.07.36.23-.38.08-.89-.33-1.15-.41-.26-.96-.12-1.22.3-.26.42-1.27-.02-2.24-.98-1.74-1.71-1.74-1.75-.18-2.18.9-.25,1.59-1.11,1.59-1.99,0-2.45-5.42-1.97-8.24.73-2.6,2.49-4.19,2.82-2.02.42,3.41-3.78,5.91-4.87,12.5-5.47,5.83-.53,9.7-1.46,13.26-3.18.69-.34,1.19-1.65,1.19-3.13,0-3.81-1.66-4.94-5.37-3.66-1.64.57-2.98.71-2.98.31s1.08-.94,2.4-1.2c2.93-.59,3.77-1.69,1.82-2.4-.79-.29-2.43-1.2-3.63-2.04-1.2-.83-2.2-1.22-2.21-.86-.01.36-.44-.07-.95-.94-.51-.87-.76-1.65-.57-1.72s-.47-1.01-1.47-2.07c-1-1.07-2.01-2.96-2.23-4.21-.76-4.18-1.9-4.67-4.42-1.92-1.24,1.36-2.63,2.24-3.09,1.96s-1.26-.18-1.79.22c-1.75,1.34-4.33-2.66-2.75-4.24,1.18-1.18.56-2.77-1.37-3.5-1.08-.41-2.72-1.61-3.63-2.66-1.38-1.58-2.36-1.89-5.77-1.82-3.89.09-4.19.24-5.43,2.87-.93,1.97-1.09,3.21-.55,4.22.52.98.47,1.81-.18,2.58-.52.63-.68,1.14-.36,1.14s.19.49-.3,1.08c-.68.82-.52,1.56.7,3.11,1.96,2.49,2.03,5.17.21,7.76-.89,1.27-1.42,3.63-1.49,6.63-.14,5.88-1.21,6.61-4.83,3.3-2.51-2.3-2.76-2.91-2.51-6.04l.28-3.48-3.9-.56c-2.51-.36-5.38-1.59-8.05-3.43-2.29-1.57-4.65-2.76-5.24-2.63-.67.14-.99-.33-.84-1.22.34-1.99-1.19-3.63-2.95-3.17-1.02.27-1.59-.17-1.93-1.45-.55-2.1,3.42-8.94,5.98-10.31.85-.46,1.37-1.31,1.14-1.9-.46-1.2,1.33-2.15,2.92-1.54,1.12.43,5.31-2.47,5.31-3.67,0-.39-1.16-1.05-2.58-1.46l-2.58-.75,2.98-.07c2.83-.07,2.98.06,2.98,2.42,0,1.4-.58,2.92-1.32,3.46-1.16.85-1,1.12,1.39,2.32,2.65,1.33,2.74,1.32,4.34-.54,1.49-1.73,1.79-1.8,3.38-.74.17.12.33.22.48.3.66,0,1.24.12,1.77.31.21-.09.43-.24.67-.44,1.02-.85.89-1.29-.99-3.28-1.19-1.26-3.31-2.51-4.7-2.77-3.02-.57-4.3-2.7-1.62-2.71,1.92,0,6.93-2.75,6.93-3.81,0-.36-.51-1.35-1.13-2.2-.84-1.15-.9-1.81-.24-2.61,1.74-2.09-5.64-5.58-7.62-3.6-.28.28-.16,1.15.27,1.94.83,1.54-.33,2.99-1.22,1.53-.28-.45-.85-.61-1.26-.36-.41.26-.54.8-.29,1.22.26.41.8.55,1.21.3,1.17-.72.86.93-.36,1.94-1.2.99-2.08-.3-2.08-3.04,0-.77-.67-2.01-1.5-2.76-1.43-1.29-1.58-1.25-3.18.78-1.63,2.07-1.68,2.08-1.68.36,0-1.11-.6-1.93-1.61-2.19-1.14-.3-1.38-.7-.82-1.37.55-.66.1-1.7-1.5-3.45-1.9-2.08-2.1-2.65-1.18-3.42.61-.51.91-1.24.67-1.62s.06-.7.67-.7,1.89-.84,2.86-1.87c2.22-2.36.96-3.69-3.04-3.22-4.2.5-5.3,2.02-4.27,5.88.47,1.75.55,3.18.18,3.18s-1.28.93-2.02,2.07c-1.09,1.66-1.17,2.36-.41,3.58.76,1.21.73,1.51-.16,1.51-.61,0-1.56-.55-2.11-1.22-.9-1.08-1.2-1.05-2.68.35-.92.86-1.94,1.59-2.27,1.62-.89.07-.72,1.23.2,1.34.44.05,1.09.14,1.46.2.36.05.66.59.66,1.2,0,.72-1.33,1.25-3.87,1.56-4.12.49-7.99-.36-6.33-1.38.52-.32.73-.92.48-1.34-.26-.41-.8-.54-1.22-.29-.41.26-.55.8-.3,1.21.25.41.12.74-.3.74s-.96-.54-1.21-1.19c-.29-.76-1.55-1.2-3.46-1.22-2.93-.03-2.96-.06-1.11-1.08,1.58-.88,2.5-.87,5.48.02,1.97.59,4.01,1.43,4.53,1.87,1.54,1.28,2.13-.12.71-1.69-1.22-1.34-1.16-1.49.84-2.25,2.57-.98,1.99-2.4-.98-2.42-3.03-.02-4.08-.9-5.3-4.44-.76-2.22-.83-3.39-.22-4.13.6-.73.6-1.27,0-1.88-.95-.95-2.85-.15-2.18.92.23.38-.39.8-1.37.94-1.29.18-1.92.93-2.22,2.64-.31,1.75-.56,2.04-.94,1.08-.28-.72-1.63-1.86-3-2.54-2.17-1.08-2.54-1.09-2.93-.07-.34.88-.71.95-1.51.29-.59-.49-1.4-.68-1.81-.42-.41.25-.96-.1-1.22-.78-.33-.85-1.01-1.07-2.17-.71-1.1.35-1.51.24-1.17-.31.77-1.25-3.07-3.46-5.65-3.25-1.23.1-2.84-.09-3.59-.41-2.04-.88-5.77.65-5.9,2.42-.06.84-.15,2.15-.2,2.91-.05.77-.6,1.39-1.23,1.39-1.79,0-2.3,1.54-.69,2.11.79.28,1.98,1.16,2.63,1.96,1.07,1.31,1.4,1.34,3.18.32,1.09-.63,2.79-1.5,3.78-1.95.98-.45,1.79-1.18,1.79-1.62,0-1.78,1.2-.68,1.31,1.19.2,3.49,1.78,4.59,5.86,4.1,2.01-.24,4.16-.12,4.78.27.73.45-.82.78-4.42.94-5.85.25-7,1.36-2.57,2.49,1.42.36,3.34,1.36,4.25,2.21s2.17,1.39,2.78,1.19,2.73-.58,4.69-.86c3.29-.46,3.45-.41,1.99.67-1.32.97-1.39,1.25-.4,1.64,1.25.49,1.87,5.21.68,5.21-.37,0-.68-.67-.68-1.49,0-2.08-4.01-3.57-8.33-3.08-4,.45-4.97,0-3.05-1.4,1.19-.87,1.11-1.1-.81-2.36-1.67-1.09-2.38-1.19-3.26-.46-.88.73-1.71.64-3.77-.44-3.5-1.82-8.75-2.77-9.94-1.78-.62.52-1.75.36-3.37-.48-2.59-1.34-3.49-1.09-7.92,2.15-2.59,1.9-4.17,1.74-1.69-.17,2.98-2.29.23-2.96-3.39-.83-1.85,1.09-3.01,1.38-3.35.82-.29-.46-.87-.63-1.3-.36-.47.29-.49.84-.06,1.4,1.07,1.37,1.88,6.27.93,5.69-.43-.27-.78-1.34-.78-2.38,0-1.98-.66-2.68-2.98-3.16-.77-.16-2.96-.86-4.87-1.54-1.91-.69-4.31-1.25-5.32-1.25s-2.04-.32-2.28-.71-2.6-.74-5.23-.78-5.5-.45-6.37-.91c-1.07-.57-2.05-.58-3.08-.03-1.12.6-1.76.5-2.48-.37-.54-.65-1.98-1.18-3.22-1.18s-2.47-.38-2.76-.83c-.36-.58-.84-.56-1.57.04-.72.6-1.21.61-1.56.05-.33-.54-1.19-.38-2.46.45-1.07.7-1.96.97-1.97.59-.01-.38-.46-.15-.99.5-.53.66-1.86,1.31-2.96,1.45s-2.57,1.01-3.29,1.93c-.72.92-1.9,1.75-2.63,1.86-.73.11-2.24.79-3.35,1.52l-2.03,1.33,2.67,2.33c2.67,2.34,6.12,4.25,7.24,4.01.33-.07.6.19.6.58,0,1.35-2.19,1.55-4.41.4-1.52-.79-2.48-.9-3.04-.33-.45.45-1.42.82-2.15.82s-1.78.53-2.32,1.18c-.8.97-.71,1.29.5,1.79.82.33,1.48,1.14,1.48,1.79,0,1.76,7.63,2.77,8.83,1.18,1.22-1.62,1.66-1.46,1.51.55-.12,1.59-2.04,2.9-5.17,3.52-2.01.4-4.06,3.56-3.51,5.4.74,2.45,3.64,5.35,5.06,5.05.68-.14,1.61.25,2.08.86,1.33,1.74,6.31,3.2,7.89,2.31,1.16-.65,1.27-.49.78,1.12-.87,2.83-1.76,3.64-6.38,5.83-2.33,1.1-4.45,2.34-4.7,2.75-.7,1.13,1.18,1.94,2.18.94,1.07-1.07,3.23-1.19,2.59-.14-.1.17-.14.33-.14.48.31-.45.7-.84,1.17-1.15-.79-.39,0-.79,5.54-3.84,3.67-2.02,9.06-7.24,8.47-8.2-.22-.35,0-.87.46-1.17.47-.29,1.18-1.39,1.58-2.44.4-1.05,1.36-1.9,2.14-1.89,1.34.02,1.34.07.02.83-1.52.88-1.87,3.52-.59,4.31.44.27,1.87-.03,3.17-.68,1.38-.69,2.56-.87,2.83-.44.25.41.8.53,1.21.28.41-.26.54-.8.29-1.22-.26-.41-.8-.55-1.21-.3-.7.43-.98-.52-.54-1.81.29-.84,2.19-1,2.19-.18,0,1.13,4.88,2.97,9.23,3.49,2.24.27,5.79,1.36,7.9,2.43,2.6,1.31,4.14,1.69,4.77,1.17.66-.55,1.3-.03,2.18,1.79,1.36,2.8,1.02,4.4-.63,3.02-.73-.6-1.21-.62-1.57-.04-.28.46-.32.88-.07.93.24.05.71.15,1.04.21s1.04.4,1.59.74c.93.59,1.31.15,1.09-1.25-.16-1.02,1.25-.65,2.29.6.54.66,1.48,1.19,2.08,1.19s1.1.54,1.1,1.19-.32,1.1-.72.99c-.66-.18-.87.19-.87,1.49,0,.27.54.05,1.19-.49.66-.54,1.24-.77,1.29-.49.38,1.89.31,2.6-.35,3.48-.41.55-.48.99-.15.99s.17.5-.34,1.12c-.04.04-.06.08-.09.12.37.22.7.5.98.81,0-.19-.01-.41-.05-.66-.11-.73.19-.74,1.86-.1,1.19.46,1.19.61.01,1.91-.35.39-.57.75-.68,1.06.06.26.11.53.13.79.02.02.04.04.06.05.44.27,1.01.14,1.27-.28s1.01-.57,1.67-.32c.91.35.98.71.27,1.56-.5.6-.65,1.1-.32,1.1s.11.58-.48,1.29c-.92,1.11-.75,1.55,1.29,3.2,1.3,1.05,3.39,2.43,4.64,3.07,2.37,1.21,4.09.9,3.18-.56-.3-.48-.05-.69.58-.48.61.2,1.22,1.39,1.37,2.64.24,2.01.12,2.16-1.01,1.22-1.87-1.55-2.24-.71-2.49,5.71-.12,3.18-.34,7.57-.49,9.76-.19,2.96.18,4.79,1.49,7.15.96,1.75,2.17,3.08,2.69,2.95.53-.13.75.27.5.92-.61,1.59,3.82,8.36,6.01,9.16.78.29,1.43.73,1.68,1.09.02-.05.04-.1.08-.16.29-.47-.34-1.18-1.41-1.59-2.17-.82-5.48-5.67-5.66-8.28-.07-.94-.52-1.63-1-1.54-1.81.35-3.75-5.53-3.47-10.51.15-2.62.31-7.01.36-9.74.08-4.73.58-5.95,1.68-4.16.75,1.22,1.98.12,1.98-1.77s-6.7-8.58-8.7-8.58-2.57-.86-1.58-2.06c1.22-1.47-1.78-3.01-3.29-1.68-.6.53-.43.16.37-.8,1.45-1.73,1.44-1.78-.61-2.71-1.28-.59-1.84-1.28-1.44-1.82,1.13-1.53-.74-6.81-2.42-6.86-1.1-.03-4.59-2.7-4.59-3.51,0-.27-.58-1.38-1.29-2.47-.9-1.38-1.58-1.74-2.23-1.19-.64.53-2.17.15-4.78-1.17-2.11-1.07-5.67-2.16-7.9-2.41-4.18-.48-7.61-1.73-8.61-3.13-1.28-1.8-4.84-.37-4.07,1.64.36.93-2.39,2.74-4.15,2.74-.96,0-.17-2.74,1.05-3.63,1.32-.98,1.32-1.05-.01-1.57-1.54-.6-3.77.84-3.77,2.42,0,.55-.53,1.44-1.18,1.98-.65.54-1.02,1.24-.82,1.57.53.86-4.25,5.5-7.49,7.26-1.55.84-3.36,1.87-4.02,2.27-2.48,1.53-6.63,3.21-7.01,2.84-.21-.21,1.01-.97,2.71-1.68,4.47-1.86,7.48-4.19,8.33-6.44.91-2.4.27-3.68-1.39-2.75-1.54.86-6.59-.8-7.52-2.47-.38-.67-1.33-1.06-2.11-.85-1.58.41-3.67-1.57-4.49-4.26-.37-1.22-.03-2.25,1.13-3.41.91-.91,1.91-1.52,2.23-1.34,1.23.69,5.21-2.37,5.34-4.1.17-2.28-1.16-3.14-2.34-1.53-1.22,1.67-8.71.98-8.05-.73.26-.67-.28-1.39-1.35-1.8-1.72-.66-1.72-.7-.19-1.22.87-.29,2.19-.86,2.93-1.25.88-.47,2.09-.32,3.51.41,1.56.81,2.59.9,3.67.32,1.48-.79,1.58-2.62.15-2.75-1.61-.15-4.04-1.51-6.5-3.62l-2.59-2.23,2.29-1.18c1.26-.65,2.47-1,2.69-.77.22.22,1.11-.49,1.97-1.58s2.54-2.12,3.73-2.28,2.49-.8,2.89-1.43c.4-.63.73-.83.74-.46,0,.38.89.11,1.96-.59,1.27-.83,2.12-.99,2.46-.45.35.56.84.55,1.56-.05.73-.6,1.21-.62,1.57-.04.28.46,1.52.83,2.76.83s2.68.53,3.22,1.18c.72.87,1.36.97,2.48.37,1.03-.55,2.01-.54,3.08.03.86.46,3.73.87,6.37.91s4.99.39,5.23.78,1.27.71,2.28.71,3.41.57,5.32,1.26c3.3,1.2,5.13,1.72,6.46,1.86.33.03.6.91.6,1.95,0,1.93,1.75,4.05,2.62,3.18.66-.66-.25-5.19-1.34-6.66-.74-1-.68-1.04.35-.23.99.77,1.74.65,3.8-.6,1.41-.86,3-1.54,3.54-1.53.54.02-.57.96-2.45,2.1-2.15,1.29-3.15,2.35-2.68,2.82.72.72,3.1-.32,9.52-4.17,2.44-1.46,2.78-1.49,5.03-.33,1.61.83,2.72.99,3.34.47,1.19-.98,6.44-.04,9.94,1.78,2,1.04,2.9,1.16,3.73.48.81-.67,1.53-.66,2.85.05,1.61.86,1.64,1.02.4,1.71-2.37,1.33-.1,2.92,3.48,2.44,4.44-.6,7.1.29,8,2.65.96,2.53,2.82,2.04,2.54-.67-.16-1.48.23-2.12,1.47-2.45,1.91-.5,1.34-2.17-.71-2.08-1.1.05-1.05.18.25.74,1.05.45,1.18.7.4.73-.66.02-1.67-.26-2.25-.63-.85-.54-.79-.77.26-1.18,2.09-.8,5.96-.59,5.96.33,0,.46,1.25,1.36,2.78,2,2.96,1.24,8.08.93,11.38-.67,1.39-.68,2.22-.65,3.41.09,1.91,1.19,2.65.8,4.16-2.22,1.26-2.53,1.02-3.21-1.14-3.21-2.88,0-2.8-4.02.1-5.57,2.03-1.08,6,2.88,4.59,4.58-.7.84-.52,1.18.83,1.53.97.25,1.72,1.08,1.72,1.9,0,2.34,1.31,2.48,2.75.29,1.07-1.64,1.55-1.85,2.47-1.09.63.52,1.14,1.73,1.14,2.68s.48,2.39,1.06,3.18c.99,1.35,1.19,1.28,3.12-1.2,1.58-2.01,1.89-2.98,1.3-4.08-.65-1.22-.44-1.43,1.45-1.41,2.98.03,5.52,1.96,4.39,3.33-.61.74-.53,1.45.28,2.56.62.85,1.13,1.82,1.13,2.16,0,1.01-4.73,3.16-6.61,3.01-2.85-.23-3.02-.04-1.72,1.93.68,1.04,2.35,2.12,3.71,2.39,2.69.54,6.6,4.14,5.34,4.91-.43.26-1.61-.06-2.62-.72-1.72-1.13-1.94-1.07-3.34.79-1.42,1.88-1.63,1.93-3.72.84-1.77-.92-1.96-1.26-.95-1.65.92-.35,1.21-1.31,1.03-3.48-.23-2.75-.46-3.01-2.93-3.24-2.8-.27-5.31,1.1-3.21,1.74,4.58,1.41,4.47,1.28,2.39,2.98-1.06.86-2.42,1.37-3.04,1.14-1.39-.53-4.38.98-3.8,1.92.23.38-.56,1.72-1.77,2.99-5.14,5.39-6.06,7.3-4.95,10.21.56,1.49,1.25,1.96,2.56,1.78,1.34-.19,1.8.15,1.82,1.34.04,2.12,1.09,3.72,2.05,3.12.43-.26,2.7.84,5.05,2.46,2.79,1.92,5.5,3.08,7.8,3.34l3.53.4-.36,3.29c-.33,3-.08,3.54,2.78,6.24,2.71,2.55,3.33,2.81,4.53,1.93,1.03-.75,1.42-2.25,1.5-5.73.07-3.05.6-5.41,1.5-6.68,1.82-2.59,1.75-5.27-.21-7.76-1.22-1.55-1.38-2.28-.7-3.11.49-.59.63-1.08.3-1.08s-.17-.51.36-1.14c.63-.76.7-1.63.21-2.58-.49-.96-.39-2.28.31-3.93.98-2.33,1.29-2.48,4.86-2.37,2.96.09,4.32.6,6.12,2.29,1.27,1.19,2.79,2.17,3.38,2.17,1.21,0,1.47,2.05.35,2.74-1.09.67-.61,2.31,1.26,4.32,1.14,1.23,1.86,1.51,2.24.9.31-.5,1.1-.7,1.75-.45.71.27,2.09-.51,3.44-1.95,2.39-2.55,2.84-2.4,3.49,1.18.22,1.23,1.2,3.09,2.17,4.12.97,1.03,1.51,1.87,1.21,1.87s.04.91.76,2.01c.73,1.11,1.5,1.83,1.72,1.61s1.33.26,2.48,1.05c1.14.8,2.61,1.65,3.27,1.9.84.32.71.47-.44.51-2.16.08-4.7,1.99-4.06,3.03.35.56,1.48.49,3.5-.21,3.57-1.23,4.58-.59,4.58,2.9,0,2.27-.32,2.68-2.38,3.11-1.31.27-3.17.91-4.12,1.42-.96.51-3.5.93-5.66.93s-5.05.22-6.41.5c-3.25.65-10.06,6.56-8.9,7.72.59.59,1.52.19,3.1-1.33,2.74-2.63,8.08-3.83,8.08-1.82,0,.73-.64,1.3-1.46,1.3-2.45,0-2.53.88-.29,3.18,1.69,1.74,2.39,2.01,3.29,1.3.86-.67,1.01-.67.6,0-.3.5-.02,1.33.61,1.86.93.77,1.54.57,3.12-1.02,1.86-1.86,2.86-1.99,2.86-.37,0,.39-.36.49-.8.21s-1,.03-1.25.68c-.25.64-1.59,1.62-2.98,2.17-1.39.55-3.33,1.72-4.32,2.6-1.43,1.28-1.79,1.36-1.79.39,0-1.45,2.46-3.82,4.04-3.9.65-.03.46-.32-.46-.69-1.09-.43-2.77-.04-5.34,1.25-2.06,1.04-4.29,1.88-4.95,1.88s-1.81.93-2.55,2.07c-1.06,1.62-1.16,2.38-.45,3.51.98,1.57-.06,2.38-3.04,2.38-1.7,0-5.49,5.09-5.61,7.54-.06,1.31-.18,1.24-.63-.38-.3-1.09-.89-1.99-1.31-1.99-1.11,0-1.39,4.04-.41,5.87.57,1.07.58,1.74.04,2.08-.45.28-.63.8-.4,1.16.22.36-.18.88-.9,1.16s-1.12.68-.91.89c.22.22-1.52,2.32-3.86,4.68s-4.25,4.77-4.25,5.35.72,3.57,1.59,6.63c1.86,6.5,1.94,7.55.59,7.55s-3.2-3.06-3.51-5.78c-.4-3.55-2.48-6.08-4.9-5.97-1.17.05-3.01-.16-4.11-.47-1.28-.37-2.55-.16-3.55.57-1.33.97-1.4,1.33-.5,2.42.95,1.14.78,1.23-1.62.81-1.47-.26-3.64-.76-4.81-1.13-2.82-.88-3.7-.7-7.28,1.51-2.64,1.63-2.99,2.2-2.79,4.51.13,1.45-.03,2.9-.34,3.22-1.16,1.16-.53,8.04,1.03,11.28,2.23,4.61,4.35,5.84,8.77,5.1,3.27-.55,3.56-.8,3.79-3.21.26-2.68,2.28-4.12,5.77-4.12,1.37,0,1.49.38,1.03,3.38-.28,1.86-.8,3.74-1.14,4.18-.34.44-.74,1.87-.89,3.18-.24,2.22-.08,2.38,2.52,2.44,1.53.03,3.77.34,4.98.69,2.17.62,2.19.68,1.7,5.53-.46,4.5-.33,5.11,1.56,7.36,1.96,2.33,2.21,2.41,5.24,1.6,2.87-.77,3.37-.67,5.16,1.02,1.53,1.44,2.08,1.61,2.38.75,1.77-5,2.14-5.61,3.15-5.23.6.23,1.91-.45,2.91-1.51,2.34-2.49,3.53-2.49,1.9,0-.99,1.52-1.07,2.29-.38,3.6,1.05,1.97,2.71,1.31,2.15-.85-.22-.83-.06-1.5.35-1.5s1.07-.8,1.47-1.79c.4-.98.74-1.33.77-.78.05,1.07,3.77,2.92,5.36,2.67.51-.08,1.17.23,1.45.69.32.53,2.02.64,4.55.3,2.66-.35,3.87-.26,3.54.27-.27.44.39,1.66,1.47,2.7,1.08,1.04,3.28,3.24,4.88,4.88,2.28,2.33,3.52,2.98,5.71,2.98,4.4,0,9.56,4.35,8.63,7.27-.09.28.55,1.33,1.43,2.32.87,1,1.17,1.56.65,1.26-1.02-.6-6.11,6.08-5.27,6.92.26.26,1.69-.58,3.18-1.89,3.03-2.66,4.47-3.02,4.09-1.01-.14.75-1.09,1.55-2.09,1.79-2.54.6-2.57,1.97-.04,2.26,1.48.17,2.56-.35,3.69-1.79,2.1-2.67,3.5-2.56,6.57.51,2.18,2.18,3.23,2.59,7.41,2.89,3.59.26,5.15.74,5.92,1.84.57.82,2.09,2.03,3.38,2.69,3.47,1.8,3.26,5.99-.57,11.61-1.6,2.34-3.39,4.55-3.97,4.9-.75.45-1.08,2.57-1.1,7.15-.02,5.32-.44,7.46-2.23,11.61-2.11,4.89-2.32,5.1-5.34,5.39-1.73.17-3.54.83-4.02,1.47-.49.64-1.1,1.16-1.36,1.16-.76,0-6.42,3.99-7.01,4.94-.3.48-.17,1.68.27,2.66.65,1.42.38,2.65-1.32,6.04-4.2,8.37-6.17,11.11-8.94,12.43-2.55,1.22-2.92,1.22-5.02.02-3.05-1.75-3.56-.93-1.17,1.91,3.67,4.36,2.12,7.24-4.38,8.1-2.83.37-4.19.95-4.48,1.9-.9,2.93-1.77,3.74-3.97,3.74-1.85,0-2.24.31-2.04,1.59.14.87.77,1.99,1.41,2.49.98.76.91.96-.45,1.32-1.18.31-1.61,1.08-1.61,2.88,0,1.56-.4,2.46-1.1,2.46-3.27,0-3.58,5.86-.37,7.05,1.62.6,1.6.69-.8,3.43-1.36,1.55-2.3,2.98-2.08,3.2.21.21-.33,1.03-1.21,1.83-.88.79-1.59,2.28-1.59,3.31s-.37,1.86-.81,1.86-1.22.89-1.72,1.99c-.93,2.03-2.52,2.85-1.78.91.48-1.25-3.49-4.16-5.19-3.8-.89.19-.94,0-.25-.84.49-.6.78-2.8.64-4.89-.2-2.95-.01-3.71.82-3.39.59.23,1.29.07,1.56-.36.58-.93-3.64-5.59-4.55-5.03-.84.52-.8-.6.05-1.95.53-.84.78-.77,1.21.33.4,1.05.76,1.17,1.45.48,1.32-1.32,1.68-9.71.51-11.89-.76-1.43-.77-2.4-.03-4.45.52-1.44.73-3.7.47-5.02-.35-1.73.13-3.59,1.7-6.69,1.43-2.81,2.26-5.81,2.4-8.67.12-2.4.65-10.54,1.19-18.08l.98-13.7-2.86-2.59c-1.57-1.43-4.22-3.51-5.88-4.63-2.56-1.73-3.31-2.95-4.92-7.95-1.04-3.25-3.08-8.59-4.53-11.87l-2.64-5.96,1.67-1.29c1.58-1.21,1.59-1.33.24-2.09-1.29-.72-1.34-1.18-.46-4.67.54-2.13,2.16-5.31,3.6-7.07,2.06-2.51,2.64-3.97,2.7-6.77.12-6.26-3.48-11.36-5.61-7.95-.64,1.02-1.25,1.28-1.86.77-.5-.41-1.83-.83-2.96-.92-1.29-.11-2.38-.87-2.92-2.07-.71-1.56-1.07-1.73-2.04-.93-.99.82-1.17.61-1.17-1.36,0-2.39-3.47-6.61-5.44-6.61-1.25,0-6.33-2.59-10.08-5.13-2.36-1.6-3.16-1.79-4.36-1.04-1.22.76-2.63.35-8.13-2.38-8.64-4.28-11.2-6.29-10.65-8.38.51-1.94-.47-3.91-3.99-8.05-1.46-1.72-2.66-3.42-2.66-3.77s-1.61-2.84-3.58-5.51c-1.97-2.67-3.58-5.31-3.58-5.87,0-1.76-2.31-3.19-3.4-2.1-.73.73-.54,1.71.83,4.3.98,1.84,1.78,3.6,1.77,3.91,0,.31,1.07,2.15,2.38,4.09s2.38,3.91,2.38,4.37.62,1.19,1.38,1.61c.76.43,1.14,1.02.83,1.33-.91.91-5.31-3.09-5.35-4.87-.02-.91-1.15-2.65-2.51-3.85-1.79-1.59-2.23-2.44-1.6-3.07s.45-1.32-.66-2.51c-.84-.9-2.18-3.6-2.98-6.01-1.13-3.43-1.76-4.32-2.92-4.12-.41.07-.7.05-.88-.03.09.31.48.52.96.46.56-.06,1.53,1.73,2.21,4.08.67,2.3,1.92,4.82,2.78,5.6,1.18,1.07,1.35,1.67.68,2.47-.68.82-.32,1.56,1.59,3.24,1.36,1.19,2.48,2.9,2.48,3.78,0,2.25,5.38,6.49,6.63,5.22.7-.71.59-1.18-.47-1.97-.77-.57-1.39-1.29-1.39-1.62s-1.07-2.18-2.38-4.13c-1.31-1.94-2.38-3.86-2.38-4.27s-.71-1.91-1.59-3.34c-.87-1.43-1.59-3.05-1.59-3.6,0-1.81,1.61-1.03,2.46,1.19.46,1.2,2.24,4.05,3.96,6.33s3.12,4.45,3.12,4.83,1.2,2.09,2.66,3.81c3.52,4.13,4.5,6.11,4,8.04-.57,2.18,2.85,4.93,11.32,9.13,5.6,2.77,7.03,3.2,8.25,2.44,1.2-.75,2-.56,4.36,1.04,3.73,2.53,8.83,5.13,10.07,5.13,1.84,0,4.65,3.43,4.65,5.66,0,2.41,1.15,3.65,2.05,2.2.37-.6.9-.28,1.55.93.59,1.1,1.9,1.97,3.25,2.15,1.24.17,2.69.66,3.22,1.1.68.56,1.21.32,1.82-.82,1.85-3.46,4.79.97,4.68,7.06-.05,2.8-.62,4.25-2.69,6.77-3.33,4.06-5.2,10.67-3.36,11.83,1.1.69,1.07.92-.25,2.03-1.46,1.22-1.45,1.34.19,4.83.92,1.97,3.02,7.33,4.65,11.92,2.67,7.51,3.32,8.61,6.45,10.96,1.92,1.44,4.52,3.54,5.78,4.67l2.3,2.05-.97,13.62c-.54,7.49-1.07,15.59-1.19,17.99-.14,2.86-.97,5.86-2.4,8.67-1.57,3.1-2.05,4.96-1.7,6.69.26,1.31.04,3.6-.49,5.08-.76,2.11-.76,3.02,0,4.23.53.85.97,2.85.97,4.44,0,2.48-.17,2.75-1.19,1.9-1.13-.94-1.44-.75-.99.6.11.33.47.51.79.4.33-.11.64.16.7.6.05.44.17,1.24.25,1.79.28,1.84-.49,2.29-1.51.9-.94-1.29-1.08-1.26-1.98.42-.89,1.67-.64,2.86.62,2.86.56,0,4.11,3.36,4.11,3.89,0,.17-.63.26-1.39.2-1.15-.09-1.39.57-1.39,3.86,0,2.19-.29,4.42-.64,4.97-.61.94-.43,1.11,1.44,1.33,1.6.19,4.53,2.74,4.05,3.52-.93,1.51,1.35,1.96,2.43.49,1.17-1.6,1.19-1.59,1.46,1.07.14,1.32-.13,1.71-.97,1.39-.64-.24-1.5-.23-1.92.03-1.34.83.98,2.71,3.34,2.71,1.23,0,2.44.33,2.69.72.58.94,2.35.66,3.89-.61,1.07-.88.82-1.41-1.97-4.2-1.86-1.86-3.66-3.01-4.32-2.75-.62.24-1.13.13-1.13-.25s.54-.89,1.19-1.14c.66-.25,1.19-1.31,1.19-2.35s.72-2.54,1.59-3.33c.88-.79,1.42-1.62,1.21-1.83-.21-.21.69-1.61,2-3.1,2.34-2.67,2.49-4.21.4-4.21-1.1,0-2.03-1.67-2.03-3.66,0-.63.89-1.49,1.99-1.9,1.49-.57,1.99-1.33,1.99-3.07s.46-2.44,1.79-2.82c1.58-.44,1.64-.62.55-1.48-.68-.54-1.49-1.65-1.8-2.47-.47-1.24-.27-1.41,1.21-1.02,2.08.54,4.61-1.41,4.61-3.55,0-1.13.87-1.56,4.09-1.98,6.26-.83,8.6-4.08,5.81-8.07-1.19-1.7-1.16-1.74.99-1.34,4.44.83,7.75-2.6,13.39-13.83,1.7-3.39,1.97-4.61,1.32-6.04-.45-.98-.58-2.11-.29-2.51.82-1.14,5.54-4.3,6.41-4.3.43,0,1.08-.52,1.43-1.15.35-.63,2.07-1.29,3.82-1.45,2.99-.28,3.31-.57,5.52-5.01,1.94-3.89,2.4-5.95,2.67-11.84.2-4.46.7-7.44,1.34-7.95.56-.45,2.31-2.74,3.89-5.08,2.09-3.1,2.88-5.11,2.88-7.38,0-2.72-.35-3.33-2.8-4.77ZM612.13,139.86c2.38.68,4.85,3.23,5.16,5.33.17,1.18-.34,1.16-2.52-.07-6.15-3.48-7.79-6.73-2.64-5.25ZM601.68,84.18c-.66.42-1.55.77-1.99.77s-.26-.35.4-.77c.66-.42,1.55-.77,1.99-.77s.26.35-.4.77ZM627.12,72.27c0,.43-.49.77-1.1.77s-1.51.5-2.01,1.11c-1.51,1.82-3.71,1.99-4.72.38-.51-.82-1.55-1.51-2.31-1.53-1.05-.04-.96-.22.4-.77,1.69-.68,2.14-1.86,1.84-4.87-.15-1.5,4.02-2.78,5.69-1.75.56.34,1.97.52,3.15.4,2.74-.29,5.33,1.1,5.09,2.72-.19,1.32-1.88,2.72-3.25,2.69-.44,0,.1-.53,1.19-1.15,2.67-1.53,1.33-1.51-1.63.02-1.29.67-2.35,1.56-2.35,1.99ZM637.04,82.57c-.72-.79-2.62-1.79-4.22-2.22-2.73-.73-2.58-.78,2.4-.86,2.93-.05,5.53-.42,5.79-.84.83-1.35-2.28-2.28-6.12-1.85-3.53.4-3.8.29-4.59-1.78-.46-1.21-.74-2.27-.62-2.35,1.9-1.28,6.11-3.61,6.53-3.61.31,0,.34.69.07,1.52-.63,1.99.85,2.89,1.84,1.11.64-1.15.97-1.2,2.03-.32,1.05.87,1.34.85,1.72-.15.4-1.04.74-1.05,2.71-.07,1.24.62,2.47,1.68,2.73,2.35.66,1.73,2.07.6,2.07-1.65,0-1.34.51-1.96,1.79-2.16.98-.15,1.7-.71,1.59-1.25-.11-.54.16-.97.6-.97,1,0,1.03,1.03.06,2.03-.98,1,1.06,6.79,2.84,8.1.76.55,2.47,1.03,3.81,1.07,1.34.03,1.9.26,1.24.5-2.83,1.05-3.28,1.98-1.81,3.71,1.12,1.32,1.14,1.45.11.66-.72-.55-2.86-1.46-4.77-2.02-3-.88-3.89-.84-6.65.33-5.06,2.14-9.59,2.44-11.15.72ZM673.09,82.1l2.5-.5-1.24,2.48c-1.25,2.5-2.25,3.08-3.06,1.77-.24-.39.09-.92.75-1.17.65-.25,1.18-.91,1.18-1.47,0-.82-.14-.82-.65-.01-.35.55-1.78,1.34-3.18,1.74-1.59.45-2.37.45-2.08-.02.25-.41-.11-.97-.81-1.24-1.16-.45-1.15-.63.08-1.99,1.22-1.35,1.49-1.38,2.69-.29.91.82,2.13,1.04,3.83.7ZM674.37,71.06c-.3-1.6-.22-3.22.17-3.62.98-.98,6.49-1.63,6.99-.82.47.76-1.71,2.78-3.79,3.52-.79.28-1.24.83-1,1.22.24.39-.07,1.14-.7,1.65-.94.78-1.23.44-1.68-1.96ZM719.14,241.25c-.22.22-.63-.21-.91-.94-.28-.74-.34-1.52-.12-1.74.22-.22.63.21.91.94.28.74.34,1.52.12,1.74ZM722.08,396.4c-.06-2.85.51-2.76,3.86.6,1.85,1.85,2.48,2.98,1.87,3.36-1.41.88-2.85.95-3.34.15-.25-.4-1.48-.72-2.74-.72s-2.51-.36-2.78-.79c-.28-.46.29-.71,1.34-.6,1.53.16,1.83-.17,1.79-1.99Z"/></g><rect class="cls-12" x="717.82" y="154.89" width="42.05" height="13.84" rx="1.47" ry="1.47"/><text class="cls-21" transform="translate(722.85 164.38)"><tspan x="0" y="0">US East</tspan></text><rect class="cls-10" x="710.65" y="55.86" width="68.81" height="60.55" rx="12" ry="12"/><rect class="cls-13" x="714.35" y="68.94" width="60.96" height="41.91" rx="12" ry="12"/><text class="cls-15" transform="translate(723.21 78.64)"><tspan class="cls-23" x="0" y="0">W</tspan><tspan x="7.01" y="0">or</tspan><tspan class="cls-24" x="14.42" y="0">k</tspan><tspan x="18.5" y="0">er pool</tspan></text><rect class="cls-34" x="719.14" y="94.52" width="53.42" height="9.89" rx="4.95" ry="4.95"/><text class="cls-15" transform="translate(734.09 64.78)"><tspan x="0" y="0">Clu</tspan><tspan class="cls-25" x="11.69" y="0">s</tspan><tspan class="cls-28" x="15.53" y="0">t</tspan><tspan x="18.3" y="0">er </tspan></text><rect class="cls-34" x="718.82" y="83.19" width="53.42" height="9.89" rx="4.95" ry="4.95"/><text class="cls-8" transform="translate(729.9 91.06)"><tspan class="cls-23" x="0" y="0">W</tspan><tspan x="7.01" y="0">or</tspan><tspan class="cls-24" x="14.42" y="0">k</tspan><tspan x="18.5" y="0">er 1</tspan></text><text class="cls-8" transform="translate(730.27 102.64)"><tspan class="cls-23" x="0" y="0">W</tspan><tspan x="7.01" y="0">or</tspan><tspan class="cls-24" x="14.42" y="0">k</tspan><tspan x="18.5" y="0">er 2</tspan></text><rect class="cls-10" x="583.84" y="105.55" width="68.81" height="60.55" rx="12" ry="12"/><rect class="cls-13" x="587.54" y="118.63" width="60.96" height="41.91" rx="12" ry="12"/><text class="cls-15" transform="translate(596.4 128.33)"><tspan class="cls-23" x="0" y="0">W</tspan><tspan x="7.01" y="0">or</tspan><tspan class="cls-24" x="14.42" y="0">k</tspan><tspan x="18.5" y="0">er pool</tspan></text><rect class="cls-34" x="592.34" y="144.22" width="53.42" height="9.89" rx="4.95" ry="4.95"/><text class="cls-15" transform="translate(607.28 114.47)"><tspan x="0" y="0">Clu</tspan><tspan class="cls-25" x="11.69" y="0">s</tspan><tspan class="cls-28" x="15.53" y="0">t</tspan><tspan x="18.3" y="0">er </tspan></text><rect class="cls-34" x="592.01" y="132.88" width="53.42" height="9.89" rx="4.95" ry="4.95"/><text class="cls-8" transform="translate(601.78 140.97)"><tspan class="cls-23" x="0" y="0">W</tspan><tspan x="7.01" y="0">or</tspan><tspan class="cls-24" x="14.42" y="0">k</tspan><tspan x="18.5" y="0">er 1</tspan></text><text class="cls-8" transform="translate(601.76 153.06)"><tspan class="cls-23" x="0" y="0">W</tspan><tspan x="7.01" y="0">or</tspan><tspan class="cls-24" x="14.42" y="0">k</tspan><tspan x="18.5" y="0">er 2</tspan></text><line class="cls-2" x1="719.16" y1="27.45" x2="748.16" y2="27.45"/><line class="cls-2" x1="607.16" y1="29.45" x2="649.16" y2="29.45"/><line class="cls-2" x1="748.66" y1="26.95" x2="748.66" y2="55.95"/><text class="cls-22" transform="translate(91.95 11.66)"><tspan x="0" y="0">Single </tspan><tspan class="cls-30" x="31.59" y="0">z</tspan><tspan x="36.65" y="0">one clu</tspan><tspan class="cls-33" x="70.39" y="0">s</tspan><tspan class="cls-29" x="75.35" y="0">t</tspan><tspan x="79.14" y="0">er</tspan></text><text class="cls-22" transform="translate(348.97 11.85)"><tspan x="0" y="0">Mu</tspan><tspan class="cls-27" x="14.15" y="0">l</tspan><tspan x="17.13" y="0">ti</tspan><tspan class="cls-30" x="23.82" y="0">z</tspan><tspan x="28.88" y="0">one clu</tspan><tspan class="cls-33" x="62.62" y="0">s</tspan><tspan class="cls-29" x="67.58" y="0">t</tspan><tspan x="71.37" y="0">er</tspan></text><text class="cls-22" transform="translate(581.56 10.65)"><tspan x="0" y="0">Mu</tspan><tspan class="cls-27" x="14.15" y="0">l</tspan><tspan x="17.13" y="0">tiple clu</tspan><tspan class="cls-33" x="55.07" y="0">s</tspan><tspan class="cls-29" x="60.03" y="0">t</tspan><tspan x="63.82" y="0">ers with global load balan</tspan><tspan class="cls-27" x="184.9" y="0">c</tspan><tspan x="190.02" y="0">er</tspan></text><polygon class="cls-4" points="27.69 236.68 752.12 236.68 752.12 228.83 775.31 244.52 752.12 260.21 752.12 252.36 27.69 252.36 27.69 236.68"/><text class="cls-17" transform="translate(349.54 247.98)"><tspan x="0" y="0">Clu</tspan><tspan class="cls-32" x="14.61" y="0">s</tspan><tspan class="cls-29" x="19.41" y="0">t</tspan><tspan x="22.88" y="0">er high </tspan><tspan class="cls-33" x="55.9" y="0">a</tspan><tspan class="cls-31" x="61.16" y="0">v</tspan><tspan x="65.99" y="0">ailability</tspan></text><ellipse class="cls-14" cx="78.77" cy="7.67" rx="6.76" ry="6.98"/><text class="cls-16" transform="translate(76.24 10.48)"><tspan x="0" y="0">1</tspan></text><ellipse class="cls-14" cx="334.59" cy="8.79" rx="6.76" ry="6.98"/><text class="cls-16" transform="translate(332.06 11.6)"><tspan x="0" y="0">2</tspan></text><ellipse class="cls-14" cx="568.38" cy="7.48" rx="6.76" ry="6.98"/><text class="cls-16" transform="translate(566.43 10.17)"><tspan x="0" y="0">3</tspan></text><text class="cls-8" transform="translate(294.62 136.99)"><tspan class="cls-23" x="0" y="0">W</tspan><tspan x="7.01" y="0">or</tspan><tspan class="cls-24" x="14.42" y="0">k</tspan><tspan x="18.5" y="0">er 2</tspan></text><rect class="cls-34" x="397.37" y="118.81" width="53.42" height="9.89" rx="4.95" ry="4.95"/><rect class="cls-34" x="398.37" y="130.57" width="53.42" height="9.89" rx="4.95" ry="4.95"/><text class="cls-8" transform="translate(408.82 126.93)"><tspan class="cls-23" x="0" y="0">W</tspan><tspan x="7.01" y="0">or</tspan><tspan class="cls-24" x="14.42" y="0">k</tspan><tspan x="18.5" y="0">er 1</tspan></text><text class="cls-8" transform="translate(407.82 138.44)"><tspan class="cls-23" x="0" y="0">W</tspan><tspan x="7.01" y="0">or</tspan><tspan class="cls-24" x="14.42" y="0">k</tspan><tspan x="18.5" y="0">er 2</tspan></text><rect class="cls-9" x="381.45" y="120.62" width="2.21" height="89.48" transform="translate(87.07 459.27) rotate(-68.22)"/><rect class="cls-12" x="380.12" y="168.82" width="42.05" height="13.84" rx="1.47" ry="1.47"/><text class="cls-21" transform="translate(381.23 179.01)"><tspan x="0" y="0">US </tspan><tspan class="cls-36" x="13.52" y="0">S</tspan><tspan x="18.51" y="0">outh</tspan></text><rect class="cls-10" x="634.29" y="45.52" width="68.81" height="60.55" rx="12" ry="12"/><rect class="cls-13" x="637.99" y="58.6" width="60.96" height="41.91" rx="12" ry="12"/><text class="cls-15" transform="translate(646.85 68.3)"><tspan class="cls-23" x="0" y="0">W</tspan><tspan x="7.01" y="0">or</tspan><tspan class="cls-24" x="14.42" y="0">k</tspan><tspan x="18.5" y="0">er pool</tspan></text><text class="cls-8" transform="translate(653.54 80.73)"><tspan class="cls-23" x="0" y="0">W</tspan><tspan x="7.01" y="0">or</tspan><tspan class="cls-24" x="14.42" y="0">k</tspan><tspan x="18.5" y="0">er 1</tspan></text><text class="cls-8" transform="translate(653.91 92.3)"><tspan class="cls-23" x="0" y="0">W</tspan><tspan x="7.01" y="0">or</tspan><tspan class="cls-24" x="14.42" y="0">k</tspan><tspan x="18.5" y="0">er 2</tspan></text><text class="cls-15" transform="translate(653.38 54.74)"><tspan x="0" y="0">Clu</tspan><tspan class="cls-25" x="11.69" y="0">s</tspan><tspan class="cls-28" x="15.53" y="0">t</tspan><tspan x="18.3" y="0">er </tspan></text><rect class="cls-34" x="641.57" y="74.75" width="53.42" height="9.89" rx="4.95" ry="4.95"/><text class="cls-8" transform="translate(652.65 82.62)"><tspan class="cls-23" x="0" y="0">W</tspan><tspan x="7.01" y="0">or</tspan><tspan class="cls-24" x="14.42" y="0">k</tspan><tspan x="18.5" y="0">er 1</tspan></text><rect class="cls-34" x="641.57" y="86.19" width="53.42" height="9.89" rx="4.95" ry="4.95"/><text class="cls-8" transform="translate(653.02 94.2)"><tspan class="cls-23" x="0" y="0">W</tspan><tspan x="7.01" y="0">or</tspan><tspan class="cls-24" x="14.42" y="0">k</tspan><tspan x="18.5" y="0">er 2</tspan></text><line class="cls-2" x1="607.66" y1="29.95" x2="607.66" y2="105.95"/><rect class="cls-11" x="633.64" y="24.51" width="85.52" height="9.89" rx="4.95" ry="4.95"/><text class="cls-15" transform="translate(640.01 32.41)"><tspan x="0" y="0">Global load balan</tspan><tspan class="cls-26" x="62.55" y="0">c</tspan><tspan x="66.52" y="0">er</tspan></text></svg>