<?xml version="1.0" encoding="UTF-8"?><svg xmlns="http://www.w3.org/2000/svg" viewBox="0 0 237 382"><defs><style>.cls-1{fill:#5e92cd;}.cls-2{font-size:14px;}.cls-2,.cls-3,.cls-4{fill:#231f20;font-family:IBMPlexSans, 'IBM Plex Sans';}.cls-3{font-size:20px;}.cls-4{font-size:16px;}.cls-5{fill:#8c9ba5;}.cls-6{fill:#6aa4d8;}.cls-7{fill:#fff;stroke:#00b39f;stroke-dasharray:8;}.cls-7,.cls-8,.cls-9{stroke-miterlimit:10;stroke-width:2px;}.cls-10{letter-spacing:0em;}.cls-8{stroke:#87c3eb;}.cls-8,.cls-9{fill:none;}.cls-11{letter-spacing:0em;}.cls-12{fill:#86c2ea;}.cls-9{stroke:#000;}.cls-13{fill:#4278bb;}.cls-14{letter-spacing:-.02em;}.cls-15{letter-spacing:-.02em;}.cls-16{letter-spacing:-.02em;}.cls-17{letter-spacing:0em;}.cls-18{letter-spacing:0em;}.cls-19{letter-spacing:0em;}.cls-20{letter-spacing:0em;}.cls-21{letter-spacing:0em;}.cls-22{letter-spacing:0em;}.cls-23{letter-spacing:0em;}.cls-24{letter-spacing:0em;}.cls-25{letter-spacing:.01em;}.cls-26{letter-spacing:0em;}</style></defs><g id="Layer_1"><rect class="cls-7" x="1" y="1" width="235" height="380" rx="12" ry="12"/><rect class="cls-8" x="24.53" y="40" width="119.47" height="26" rx="12" ry="12"/><path class="cls-12" d="M38.12,99.76v12.12h-11.47v-12.12h11.47ZM41.12,96.67h-17.45v18.06h17.45v-18.06h0Z"/><path class="cls-6" d="M58.07,99.76v12.12h-11.47v-12.12h11.47ZM61.06,96.67h-17.45v18.06h17.45v-18.06h0Z"/><path class="cls-1" d="M78.01,99.76v12.12h-11.72v-12.12h11.72ZM81,96.67h-17.45v18.06h17.45v-18.06h0Z"/><path class="cls-5" d="M38.12,120.4v12.12h-11.47v-12.12h11.47ZM41.12,117.3h-17.45v18.06h17.45v-18.06h0Z"/><path class="cls-12" d="M58.07,120.4v12.12h-11.47v-12.12h11.47ZM61.06,117.3h-17.45v18.06h17.45v-18.06h0Z"/><path class="cls-6" d="M78.01,120.4v12.12h-11.72v-12.12h11.72ZM81,117.3h-17.45v18.06h17.45v-18.06h0Z"/><path class="cls-12" d="M38.12,141.04v12.12h-11.47v-12.12h11.47ZM41.12,137.94h-17.45v18.06h17.45v-18.06h0Z"/><path class="cls-13" d="M58.07,141.04v12.12h-11.47v-12.12h11.47ZM61.06,137.94h-17.45v18.06h17.45v-18.06h0Z"/><path class="cls-5" d="M78.01,141.04v12.12h-11.72v-12.12h11.72ZM81,137.94h-17.45v18.06h17.45v-18.06h0Z"/><path class="cls-12" d="M38.63,199.97v11.65h-11.6v-11.65h11.6ZM41.65,197h-17.65v17.35h17.65v-17.35h0Z"/><path class="cls-6" d="M58.8,199.97v11.65h-11.6v-11.65h11.6ZM61.83,197h-17.65v17.35h17.65v-17.35h0Z"/><path class="cls-1" d="M78.97,199.97v11.65h-11.85v-11.65h11.85ZM82,197h-17.65v17.35h17.65v-17.35h0Z"/><path class="cls-5" d="M38.63,219.8v11.65h-11.6v-11.65h11.6ZM41.65,216.83h-17.65v17.35h17.65v-17.35h0Z"/><path class="cls-12" d="M58.8,219.8v11.65h-11.6v-11.65h11.6ZM61.83,216.83h-17.65v17.35h17.65v-17.35h0Z"/><path class="cls-6" d="M78.97,219.8v11.65h-11.85v-11.65h11.85ZM82,216.83h-17.65v17.35h17.65v-17.35h0Z"/><path class="cls-12" d="M38.63,239.63v11.65h-11.6v-11.65h11.6ZM41.65,236.65h-17.65v17.35h17.65v-17.35h0Z"/><path class="cls-13" d="M58.8,239.63v11.65h-11.6v-11.65h11.6ZM61.83,236.65h-17.65v17.35h17.65v-17.35h0Z"/><path class="cls-5" d="M78.97,239.63v11.65h-11.85v-11.65h11.85ZM82,236.65h-17.65v17.35h17.65v-17.35h0Z"/><rect class="cls-8" x="90.45" y="116" width="101.55" height="45" rx="12" ry="12"/><line class="cls-9" x1="54" y1="156" x2="54" y2="183.24"/><polygon points="46.52 181.05 54 194 61.48 181.05 46.52 181.05"/><line class="cls-9" x1="53" y1="254" x2="53" y2="281.24"/><polygon points="45.52 279.05 53 292 60.48 279.05 45.52 279.05"/><path class="cls-12" d="M38.63,298.97v11.65h-11.6v-11.65h11.6ZM41.65,296h-17.65v17.35h17.65v-17.35h0Z"/><path class="cls-6" d="M58.8,298.97v11.65h-11.6v-11.65h11.6ZM61.83,296h-17.65v17.35h17.65v-17.35h0Z"/><path class="cls-1" d="M78.97,298.97v11.65h-11.85v-11.65h11.85ZM82,296h-17.65v17.35h17.65v-17.35h0Z"/><path class="cls-5" d="M38.63,318.8v11.65h-11.6v-11.65h11.6ZM41.65,315.83h-17.65v17.35h17.65v-17.35h0Z"/><path class="cls-12" d="M58.8,318.8v11.65h-11.6v-11.65h11.6ZM61.83,315.83h-17.65v17.35h17.65v-17.35h0Z"/><path class="cls-6" d="M78.97,318.8v11.65h-11.85v-11.65h11.85ZM82,315.83h-17.65v17.35h17.65v-17.35h0Z"/><path class="cls-12" d="M38.63,338.63v11.65h-11.6v-11.65h11.6ZM41.65,335.65h-17.65v17.35h17.65v-17.35h0Z"/><path class="cls-13" d="M58.8,338.63v11.65h-11.6v-11.65h11.6ZM61.83,335.65h-17.65v17.35h17.65v-17.35h0Z"/><path class="cls-5" d="M78.97,338.63v11.65h-11.85v-11.65h11.85ZM82,335.65h-17.65v17.35h17.65v-17.35h0Z"/><rect class="cls-8" x="90.45" y="313" width="78.55" height="45" rx="12" ry="12"/><rect class="cls-8" x="90.45" y="214" width="101.55" height="45" rx="12" ry="12"/></g><g id="Text"><text class="cls-3" transform="translate(24.53 31.19)"><tspan x="0" y="0">A</tspan><tspan class="cls-17" x="12.82" y="0">cc</tspan><tspan x="32.7" y="0">ounts namespa</tspan><tspan class="cls-19" x="170.6" y="0">c</tspan><tspan x="180.54" y="0">e</tspan></text><text class="cls-4" transform="translate(90.21 109.19)"><tspan class="cls-14" x="0" y="0">F</tspan><tspan class="cls-21" x="8.62" y="0">r</tspan><tspan x="14.42" y="0">on</tspan><tspan class="cls-24" x="32.46" y="0">t</tspan><tspan x="38.02" y="0">end se</tspan><tspan class="cls-26" x="85.52" y="0">r</tspan><tspan x="91.55" y="0">vi</tspan><tspan class="cls-20" x="103.42" y="0">c</tspan><tspan class="cls-10" x="111.38" y="0">e</tspan></text><text class="cls-2" transform="translate(34.54 57.19)"><tspan x="0" y="0">usa</tspan><tspan class="cls-18" x="22.25" y="0">g</tspan><tspan class="cls-11" x="29.55" y="0">e: a</tspan><tspan class="cls-18" x="52.11" y="0">cc</tspan><tspan x="66.02" y="0">ounts</tspan></text><text class="cls-4" transform="translate(92.12 208.19)"><tspan x="0" y="0">Bac</tspan><tspan class="cls-15" x="27.04" y="0">k</tspan><tspan x="35.2" y="0">end se</tspan><tspan class="cls-26" x="82.7" y="0">r</tspan><tspan x="88.73" y="0">vi</tspan><tspan class="cls-20" x="100.61" y="0">c</tspan><tspan x="108.56" y="0">e</tspan></text><text class="cls-2" transform="translate(98.97 132.19)"><tspan x="0" y="0">app: S</tspan><tspan class="cls-25" x="39.24" y="0">r</tspan><tspan x="44.52" y="0">v1</tspan></text><text class="cls-2" transform="translate(98.97 153.19)"><tspan x="0" y="0">tier: f</tspan><tspan class="cls-22" x="33.17" y="0">r</tspan><tspan x="38.23" y="0">on</tspan><tspan class="cls-23" x="54.03" y="0">t</tspan><tspan class="cls-11" x="58.88" y="0">end</tspan></text><text class="cls-2" transform="translate(98.97 230.19)"><tspan x="0" y="0">app: S</tspan><tspan class="cls-25" x="39.24" y="0">r</tspan><tspan x="44.52" y="0">v1</tspan></text><text class="cls-2" transform="translate(99.2 251.19)"><tspan x="0" y="0">tier: bac</tspan><tspan class="cls-16" x="51.27" y="0">k</tspan><tspan x="58.41" y="0">end</tspan></text><text class="cls-4" transform="translate(93.37 307.19)"><tspan x="0" y="0">Database se</tspan><tspan class="cls-26" x="88.19" y="0">r</tspan><tspan x="94.22" y="0">vi</tspan><tspan class="cls-20" x="106.09" y="0">c</tspan><tspan class="cls-10" x="114.05" y="0">e</tspan></text><text class="cls-2" transform="translate(98.97 329.19)"><tspan x="0" y="0">app: S</tspan><tspan class="cls-25" x="39.24" y="0">r</tspan><tspan x="44.52" y="0">v1</tspan></text><text class="cls-2" transform="translate(98.97 350.19)"><tspan x="0" y="0">tier: db</tspan></text></g></svg>