<?xml version="1.0" encoding="UTF-8"?><svg xmlns="http://www.w3.org/2000/svg" viewBox="0 0 564.87 382.4"><defs><style>.cls-1{fill:#5e92cd;}.cls-2{font-size:14px;}.cls-2,.cls-3,.cls-4{fill:#231f20;font-family:IBMPlexSans, 'IBM Plex Sans';}.cls-3{font-size:20px;}.cls-4{font-size:16px;}.cls-5{fill:#8c9ba5;}.cls-6{fill:#6aa4d8;}.cls-7{fill:#fff;stroke:#00b39f;stroke-dasharray:8;}.cls-7,.cls-8,.cls-9{stroke-miterlimit:10;stroke-width:2px;}.cls-10{letter-spacing:0em;}.cls-8{stroke:#87c3eb;}.cls-8,.cls-9{fill:none;}.cls-11{letter-spacing:0em;}.cls-12{fill:#86c2ea;}.cls-9{stroke:#000;}.cls-13{fill:#4278bb;}.cls-14{letter-spacing:-.02em;}.cls-15{letter-spacing:-.02em;}.cls-16{letter-spacing:-.02em;}.cls-17{letter-spacing:0em;}.cls-18{letter-spacing:0em;}.cls-19{letter-spacing:0em;}.cls-20{letter-spacing:0em;}.cls-21{letter-spacing:0em;}.cls-22{letter-spacing:0em;}.cls-23{letter-spacing:0em;}.cls-24{letter-spacing:0em;}.cls-25{letter-spacing:.01em;}.cls-26{letter-spacing:0em;}</style></defs><g id="Layer_1"><rect class="cls-7" x="328.87" y="1" width="235" height="380" rx="12" ry="12"/><rect class="cls-8" x="352.4" y="40" width="111.47" height="26" rx="12" ry="12"/><path class="cls-12" d="M366,99.76v12.12h-11.47v-12.12h11.47ZM368.99,96.67h-17.45v18.06h17.45v-18.06h0Z"/><path class="cls-6" d="M385.94,99.76v12.12h-11.47v-12.12h11.47ZM388.93,96.67h-17.45v18.06h17.45v-18.06h0Z"/><path class="cls-1" d="M405.88,99.76v12.12h-11.72v-12.12h11.72ZM408.87,96.67h-17.45v18.06h17.45v-18.06h0Z"/><path class="cls-5" d="M366,120.4v12.12h-11.47v-12.12h11.47ZM368.99,117.3h-17.45v18.06h17.45v-18.06h0Z"/><path class="cls-12" d="M385.94,120.4v12.12h-11.47v-12.12h11.47ZM388.93,117.3h-17.45v18.06h17.45v-18.06h0Z"/><path class="cls-6" d="M405.88,120.4v12.12h-11.72v-12.12h11.72ZM408.87,117.3h-17.45v18.06h17.45v-18.06h0Z"/><path class="cls-12" d="M366,141.04v12.12h-11.47v-12.12h11.47ZM368.99,137.94h-17.45v18.06h17.45v-18.06h0Z"/><path class="cls-13" d="M385.94,141.04v12.12h-11.47v-12.12h11.47ZM388.93,137.94h-17.45v18.06h17.45v-18.06h0Z"/><path class="cls-5" d="M405.88,141.04v12.12h-11.72v-12.12h11.72ZM408.87,137.94h-17.45v18.06h17.45v-18.06h0Z"/><path class="cls-12" d="M366.5,199.97v11.65h-11.6v-11.65h11.6ZM369.53,197h-17.65v17.35h17.65v-17.35h0Z"/><path class="cls-6" d="M386.67,199.97v11.65h-11.6v-11.65h11.6ZM389.7,197h-17.65v17.35h17.65v-17.35h0Z"/><path class="cls-1" d="M406.85,199.97v11.65h-11.85v-11.65h11.85ZM409.87,197h-17.65v17.35h17.65v-17.35h0Z"/><path class="cls-5" d="M366.5,219.8v11.65h-11.6v-11.65h11.6ZM369.53,216.83h-17.65v17.35h17.65v-17.35h0Z"/><path class="cls-12" d="M386.67,219.8v11.65h-11.6v-11.65h11.6ZM389.7,216.83h-17.65v17.35h17.65v-17.35h0Z"/><path class="cls-6" d="M406.85,219.8v11.65h-11.85v-11.65h11.85ZM409.87,216.83h-17.65v17.35h17.65v-17.35h0Z"/><path class="cls-12" d="M366.5,239.63v11.65h-11.6v-11.65h11.6ZM369.53,236.65h-17.65v17.35h17.65v-17.35h0Z"/><path class="cls-13" d="M386.67,239.63v11.65h-11.6v-11.65h11.6ZM389.7,236.65h-17.65v17.35h17.65v-17.35h0Z"/><path class="cls-5" d="M406.85,239.63v11.65h-11.85v-11.65h11.85ZM409.87,236.65h-17.65v17.35h17.65v-17.35h0Z"/><rect class="cls-8" x="418.32" y="116" width="101.55" height="45" rx="12" ry="12"/><path class="cls-12" d="M366.5,298.97v11.65h-11.6v-11.65h11.6ZM369.53,296h-17.65v17.35h17.65v-17.35h0Z"/><path class="cls-6" d="M386.67,298.97v11.65h-11.6v-11.65h11.6ZM389.7,296h-17.65v17.35h17.65v-17.35h0Z"/><path class="cls-1" d="M406.85,298.97v11.65h-11.85v-11.65h11.85ZM409.87,296h-17.65v17.35h17.65v-17.35h0Z"/><path class="cls-5" d="M366.5,318.8v11.65h-11.6v-11.65h11.6ZM369.53,315.83h-17.65v17.35h17.65v-17.35h0Z"/><path class="cls-12" d="M386.67,318.8v11.65h-11.6v-11.65h11.6ZM389.7,315.83h-17.65v17.35h17.65v-17.35h0Z"/><path class="cls-6" d="M406.85,318.8v11.65h-11.85v-11.65h11.85ZM409.87,315.83h-17.65v17.35h17.65v-17.35h0Z"/><path class="cls-12" d="M366.5,338.63v11.65h-11.6v-11.65h11.6ZM369.53,335.65h-17.65v17.35h17.65v-17.35h0Z"/><path class="cls-13" d="M386.67,338.63v11.65h-11.6v-11.65h11.6ZM389.7,335.65h-17.65v17.35h17.65v-17.35h0Z"/><path class="cls-5" d="M406.85,338.63v11.65h-11.85v-11.65h11.85ZM409.87,335.65h-17.65v17.35h17.65v-17.35h0Z"/><rect class="cls-8" x="418.32" y="313" width="78.55" height="45" rx="12" ry="12"/><rect class="cls-8" x="418.32" y="214" width="101.55" height="45" rx="12" ry="12"/><rect class="cls-7" x="1" y="1.4" width="235" height="380" rx="12" ry="12"/><rect class="cls-8" x="24.53" y="40.4" width="119.47" height="26" rx="12" ry="12"/><path class="cls-12" d="M38.12,100.16v12.12h-11.47v-12.12h11.47ZM41.12,97.07h-17.45v18.06h17.45v-18.06h0Z"/><path class="cls-6" d="M58.07,100.16v12.12h-11.47v-12.12h11.47ZM61.06,97.07h-17.45v18.06h17.45v-18.06h0Z"/><path class="cls-1" d="M78.01,100.16v12.12h-11.72v-12.12h11.72ZM81,97.07h-17.45v18.06h17.45v-18.06h0Z"/><path class="cls-5" d="M38.12,120.8v12.12h-11.47v-12.12h11.47ZM41.12,117.71h-17.45v18.06h17.45v-18.06h0Z"/><path class="cls-12" d="M58.07,120.8v12.12h-11.47v-12.12h11.47ZM61.06,117.71h-17.45v18.06h17.45v-18.06h0Z"/><path class="cls-6" d="M78.01,120.8v12.12h-11.72v-12.12h11.72ZM81,117.71h-17.45v18.06h17.45v-18.06h0Z"/><path class="cls-12" d="M38.12,141.44v12.12h-11.47v-12.12h11.47ZM41.12,138.34h-17.45v18.06h17.45v-18.06h0Z"/><path class="cls-13" d="M58.07,141.44v12.12h-11.47v-12.12h11.47ZM61.06,138.34h-17.45v18.06h17.45v-18.06h0Z"/><path class="cls-5" d="M78.01,141.44v12.12h-11.72v-12.12h11.72ZM81,138.34h-17.45v18.06h17.45v-18.06h0Z"/><path class="cls-12" d="M38.63,200.38v11.65h-11.6v-11.65h11.6ZM41.65,197.4h-17.65v17.35h17.65v-17.35h0Z"/><path class="cls-6" d="M58.8,200.38v11.65h-11.6v-11.65h11.6ZM61.83,197.4h-17.65v17.35h17.65v-17.35h0Z"/><path class="cls-1" d="M78.97,200.38v11.65h-11.85v-11.65h11.85ZM82,197.4h-17.65v17.35h17.65v-17.35h0Z"/><path class="cls-5" d="M38.63,220.2v11.65h-11.6v-11.65h11.6ZM41.65,217.23h-17.65v17.35h17.65v-17.35h0Z"/><path class="cls-12" d="M58.8,220.2v11.65h-11.6v-11.65h11.6ZM61.83,217.23h-17.65v17.35h17.65v-17.35h0Z"/><path class="cls-6" d="M78.97,220.2v11.65h-11.85v-11.65h11.85ZM82,217.23h-17.65v17.35h17.65v-17.35h0Z"/><path class="cls-12" d="M38.63,240.03v11.65h-11.6v-11.65h11.6ZM41.65,237.05h-17.65v17.35h17.65v-17.35h0Z"/><path class="cls-13" d="M58.8,240.03v11.65h-11.6v-11.65h11.6ZM61.83,237.05h-17.65v17.35h17.65v-17.35h0Z"/><path class="cls-5" d="M78.97,240.03v11.65h-11.85v-11.65h11.85ZM82,237.05h-17.65v17.35h17.65v-17.35h0Z"/><rect class="cls-8" x="90.45" y="116.4" width="101.55" height="45" rx="12" ry="12"/><line class="cls-9" x1="54" y1="156.4" x2="54" y2="183.64"/><polygon points="46.52 181.45 54 194.4 61.48 181.45 46.52 181.45"/><line class="cls-9" x1="53" y1="254.4" x2="53" y2="281.64"/><polygon points="45.52 279.45 53 292.4 60.48 279.45 45.52 279.45"/><path class="cls-12" d="M38.63,299.38v11.65h-11.6v-11.65h11.6ZM41.65,296.4h-17.65v17.35h17.65v-17.35h0Z"/><path class="cls-6" d="M58.8,299.38v11.65h-11.6v-11.65h11.6ZM61.83,296.4h-17.65v17.35h17.65v-17.35h0Z"/><path class="cls-1" d="M78.97,299.38v11.65h-11.85v-11.65h11.85ZM82,296.4h-17.65v17.35h17.65v-17.35h0Z"/><path class="cls-5" d="M38.63,319.2v11.65h-11.6v-11.65h11.6ZM41.65,316.23h-17.65v17.35h17.65v-17.35h0Z"/><path class="cls-12" d="M58.8,319.2v11.65h-11.6v-11.65h11.6ZM61.83,316.23h-17.65v17.35h17.65v-17.35h0Z"/><path class="cls-6" d="M78.97,319.2v11.65h-11.85v-11.65h11.85ZM82,316.23h-17.65v17.35h17.65v-17.35h0Z"/><path class="cls-12" d="M38.63,339.03v11.65h-11.6v-11.65h11.6ZM41.65,336.05h-17.65v17.35h17.65v-17.35h0Z"/><path class="cls-13" d="M58.8,339.03v11.65h-11.6v-11.65h11.6ZM61.83,336.05h-17.65v17.35h17.65v-17.35h0Z"/><path class="cls-5" d="M78.97,339.03v11.65h-11.85v-11.65h11.85ZM82,336.05h-17.65v17.35h17.65v-17.35h0Z"/><rect class="cls-8" x="90.45" y="313.4" width="78.55" height="45" rx="12" ry="12"/><rect class="cls-8" x="90.45" y="214.4" width="101.55" height="45" rx="12" ry="12"/><line class="cls-9" x1="352.87" y1="126.67" x2="209.89" y2="219.79"/><polygon points="207.64 212.33 200.87 225.67 215.81 224.86 207.64 212.33"/><line class="cls-9" x1="351.87" y1="225.67" x2="214.61" y2="235.87"/><polygon points="216.24 228.25 203.87 236.67 217.34 243.17 216.24 228.25"/><line class="cls-9" x1="351.87" y1="324.67" x2="212.38" y2="250.71"/><polygon points="217.82 245.13 202.87 245.67 210.81 258.34 217.82 245.13"/></g><g id="Text"><text class="cls-3" transform="translate(24.53 31.59)"><tspan x="0" y="0">A</tspan><tspan class="cls-17" x="12.82" y="0">cc</tspan><tspan x="32.7" y="0">ounts namespa</tspan><tspan class="cls-19" x="170.6" y="0">c</tspan><tspan x="180.54" y="0">e</tspan></text><text class="cls-4" transform="translate(90.21 109.59)"><tspan class="cls-14" x="0" y="0">F</tspan><tspan class="cls-21" x="8.62" y="0">r</tspan><tspan x="14.42" y="0">on</tspan><tspan class="cls-24" x="32.46" y="0">t</tspan><tspan x="38.02" y="0">end se</tspan><tspan class="cls-26" x="85.52" y="0">r</tspan><tspan x="91.55" y="0">vi</tspan><tspan class="cls-20" x="103.42" y="0">c</tspan><tspan class="cls-10" x="111.38" y="0">e</tspan></text><text class="cls-2" transform="translate(34.54 57.59)"><tspan x="0" y="0">usa</tspan><tspan class="cls-18" x="22.25" y="0">g</tspan><tspan class="cls-11" x="29.55" y="0">e: a</tspan><tspan class="cls-18" x="52.11" y="0">cc</tspan><tspan x="66.02" y="0">ounts</tspan></text><text class="cls-4" transform="translate(92.12 208.59)"><tspan x="0" y="0">Bac</tspan><tspan class="cls-15" x="27.04" y="0">k</tspan><tspan x="35.2" y="0">end se</tspan><tspan class="cls-26" x="82.7" y="0">r</tspan><tspan x="88.73" y="0">vi</tspan><tspan class="cls-20" x="100.61" y="0">c</tspan><tspan x="108.56" y="0">e</tspan></text><text class="cls-2" transform="translate(98.97 132.59)"><tspan x="0" y="0">app: S</tspan><tspan class="cls-25" x="39.24" y="0">r</tspan><tspan x="44.52" y="0">v1</tspan></text><text class="cls-2" transform="translate(98.97 153.59)"><tspan x="0" y="0">tier: f</tspan><tspan class="cls-22" x="33.17" y="0">r</tspan><tspan x="38.23" y="0">on</tspan><tspan class="cls-23" x="54.03" y="0">t</tspan><tspan class="cls-11" x="58.88" y="0">end</tspan></text><text class="cls-2" transform="translate(98.97 230.59)"><tspan x="0" y="0">app: S</tspan><tspan class="cls-25" x="39.24" y="0">r</tspan><tspan x="44.52" y="0">v1</tspan></text><text class="cls-2" transform="translate(99.2 251.59)"><tspan x="0" y="0">tier: bac</tspan><tspan class="cls-16" x="51.27" y="0">k</tspan><tspan x="58.41" y="0">end</tspan></text><text class="cls-4" transform="translate(93.37 307.59)"><tspan x="0" y="0">Database se</tspan><tspan class="cls-26" x="88.19" y="0">r</tspan><tspan x="94.22" y="0">vi</tspan><tspan class="cls-20" x="106.09" y="0">c</tspan><tspan class="cls-10" x="114.05" y="0">e</tspan></text><text class="cls-2" transform="translate(98.97 329.59)"><tspan x="0" y="0">app: S</tspan><tspan class="cls-25" x="39.24" y="0">r</tspan><tspan x="44.52" y="0">v1</tspan></text><text class="cls-2" transform="translate(98.97 350.59)"><tspan x="0" y="0">tier: db</tspan></text><text class="cls-3" transform="translate(352.84 31.19)"><tspan x="0" y="0">Finan</tspan><tspan class="cls-19" x="49.58" y="0">c</tspan><tspan x="59.52" y="0">e namespa</tspan><tspan class="cls-19" x="157.72" y="0">c</tspan><tspan x="167.66" y="0">e</tspan></text><text class="cls-4" transform="translate(418.08 109.19)"><tspan class="cls-14" x="0" y="0">F</tspan><tspan class="cls-21" x="8.62" y="0">r</tspan><tspan x="14.42" y="0">on</tspan><tspan class="cls-24" x="32.46" y="0">t</tspan><tspan x="38.02" y="0">end se</tspan><tspan class="cls-26" x="85.52" y="0">r</tspan><tspan x="91.55" y="0">vi</tspan><tspan class="cls-20" x="103.42" y="0">c</tspan><tspan class="cls-10" x="111.38" y="0">e</tspan></text><text class="cls-2" transform="translate(364.86 57.19)"><tspan x="0" y="0">usa</tspan><tspan class="cls-18" x="22.25" y="0">g</tspan><tspan class="cls-11" x="29.55" y="0">e: finan</tspan><tspan class="cls-18" x="75.95" y="0">c</tspan><tspan x="82.91" y="0">e</tspan></text><text class="cls-4" transform="translate(419.99 208.19)"><tspan x="0" y="0">Bac</tspan><tspan class="cls-15" x="27.04" y="0">k</tspan><tspan x="35.2" y="0">end se</tspan><tspan class="cls-26" x="82.7" y="0">r</tspan><tspan x="88.73" y="0">vi</tspan><tspan class="cls-20" x="100.61" y="0">c</tspan><tspan x="108.56" y="0">e</tspan></text><text class="cls-2" transform="translate(426.84 132.19)"><tspan x="0" y="0">app: S</tspan><tspan class="cls-25" x="39.24" y="0">r</tspan><tspan x="44.52" y="0">v2</tspan></text><text class="cls-2" transform="translate(426.84 153.19)"><tspan x="0" y="0">tier: f</tspan><tspan class="cls-22" x="33.17" y="0">r</tspan><tspan x="38.23" y="0">on</tspan><tspan class="cls-23" x="54.03" y="0">t</tspan><tspan class="cls-11" x="58.88" y="0">end</tspan></text><text class="cls-2" transform="translate(426.84 230.19)"><tspan x="0" y="0">app: S</tspan><tspan class="cls-25" x="39.24" y="0">r</tspan><tspan x="44.52" y="0">v2</tspan></text><text class="cls-2" transform="translate(427.08 251.19)"><tspan x="0" y="0">tier: bac</tspan><tspan class="cls-16" x="51.27" y="0">k</tspan><tspan x="58.41" y="0">end</tspan></text><text class="cls-4" transform="translate(421.25 307.19)"><tspan x="0" y="0">Database se</tspan><tspan class="cls-26" x="88.19" y="0">r</tspan><tspan x="94.22" y="0">vi</tspan><tspan class="cls-20" x="106.09" y="0">c</tspan><tspan class="cls-10" x="114.05" y="0">e</tspan></text><text class="cls-2" transform="translate(426.84 329.19)"><tspan x="0" y="0">app: S</tspan><tspan class="cls-25" x="39.24" y="0">r</tspan><tspan x="44.52" y="0">v2</tspan></text><text class="cls-2" transform="translate(426.84 350.19)"><tspan x="0" y="0">tier: db</tspan></text></g></svg>