<?xml version="1.0" encoding="UTF-8"?><svg xmlns="http://www.w3.org/2000/svg" width="233.56" height="243.5" viewBox="0 0 233.56 243.5"><g id="a"><path d="M226.4,192H7.16c-3.66,0-6.66-2.81-6.66-6.24V6.74C.5,3.31,3.5,.5,7.16,.5H226.4c3.66,0,6.66,2.81,6.66,6.24V185.76c0,3.43-3,6.24-6.66,6.24Z" style="fill:#fff; fill-rule:evenodd; stroke:#008673; stroke-dasharray:0 8; stroke-miterlimit:10;"/><rect x="102.06" y="60.06" width="29.44" height="206.45" rx="12" ry="12" transform="translate(-46.51 280.07) rotate(-90)" style="fill:#5392ff; stroke:#5392ff; stroke-miterlimit:10;"/><rect x="102.51" y="2.83" width="28.54" height="206.45" rx="12" ry="12" transform="translate(10.72 222.84) rotate(-90)" style="fill:#79a6f6; stroke:#79a6f6; stroke-miterlimit:10;"/><line x1="116.78" y1="120.32" x2="116.78" y2="148.57" style="fill:#2e3f8f; stroke:#2e3f8f; stroke-miterlimit:10;"/><rect x="102.06" y="117" width="29.44" height="206.45" rx="12" ry="12" transform="translate(-103.45 337.01) rotate(-90)" style="fill:#25467a; stroke:#25467a; stroke-miterlimit:10;"/><line x1="116.78" y1="178.01" x2="116.78" y2="206.25" style="fill:#2e3f8f; stroke:#2e3f8f; stroke-miterlimit:10;"/><g><line x1="116.78" y1="63.06" x2="116.78" y2="91.3" style="fill:#2e3f8f;"/><g><line x1="116.78" y1="70.24" x2="116.78" y2="91.3" style="fill:none; stroke:#2e3f8f; stroke-miterlimit:10;"/><polygon points="111.79 71.7 116.78 63.06 121.77 71.7 111.79 71.7" style="fill:#2e3f8f;"/></g></g><rect x="102.06" y="-2.75" width="29.44" height="102.19" rx="12" ry="12" transform="translate(68.44 165.12) rotate(-90)" style="fill:#fff; stroke:#5392ff; stroke-miterlimit:10;"/></g><g id="b"><text transform="translate(94.35 16.44)" style="font-family:IBMPlexSans, IBM Plex Sans; font-size:14px;"><tspan x="0" y="0">Clu</tspan><tspan x="20.45" y="0" style="letter-spacing:0em;">s</tspan><tspan x="27.17" y="0" style="letter-spacing:0em;">t</tspan><tspan x="32.03" y="0">er</tspan></text><text transform="translate(104.17 53.72)" style="font-family:IBMPlexSans, IBM Plex Sans; font-size:14px;"><tspan x="0" y="0">App</tspan></text><text transform="translate(65.69 225.58)" style="fill:#fff; font-family:IBMPlexSans, IBM Plex Sans; font-size:14px;"><tspan x="0" y="0">P</tspan><tspan x="8.48" y="0" style="letter-spacing:0em;">h</tspan><tspan x="16.32" y="0" style="letter-spacing:0em;">y</tspan><tspan x="23.25" y="0">sical </tspan><tspan x="55.2" y="0" style="letter-spacing:0em;">s</tspan><tspan x="61.92" y="0" style="letter-spacing:0em;">t</tspan><tspan x="66.78" y="0">o</tspan><tspan x="74.62" y="0" style="letter-spacing:0em;">r</tspan><tspan x="79.7" y="0">a</tspan><tspan x="87.18" y="0" style="letter-spacing:0em;">g</tspan><tspan x="94.48" y="0">e</tspan></text><text transform="translate(20.97 110.16)" style="font-family:IBMPlexSans, IBM Plex Sans; font-size:14px;"><tspan x="0" y="0" style="letter-spacing:-.02em;">P</tspan><tspan x="8.2" y="0">ersi</tspan><tspan x="31.35" y="0" style="letter-spacing:0em;">s</tspan><tspan x="38.07" y="0" style="letter-spacing:0em;">t</tspan><tspan x="42.92" y="0">ent </tspan><tspan x="66.78" y="0" style="letter-spacing:-.03em;">V</tspan><tspan x="74.89" y="0">olume Claim (P</tspan><tspan x="169.87" y="0" style="letter-spacing:-.01em;">V</tspan><tspan x="178.23" y="0">C)</tspan></text><text transform="translate(44.6 167.08)" style="font-family:IBMPlexSans, IBM Plex Sans; font-size:14px;"><tspan x="0" y="0" style="letter-spacing:-.02em;">P</tspan><tspan x="8.2" y="0">ersi</tspan><tspan x="31.34" y="0" style="letter-spacing:0em;">s</tspan><tspan x="38.07" y="0" style="letter-spacing:0em;">t</tspan><tspan x="42.92" y="0">ent </tspan><tspan x="66.78" y="0" style="letter-spacing:-.03em;">V</tspan><tspan x="74.89" y="0">olume (P</tspan><tspan x="130.87" y="0" style="letter-spacing:.02em;">V</tspan><tspan x="139.67" y="0">)</tspan></text></g></svg>