<?xml version="1.0" encoding="UTF-8"?><svg xmlns="http://www.w3.org/2000/svg" width="917.68" height="394.79" viewBox="0 0 917.68 394.79"><g id="a"><rect x="318.35" y="54.22" width="271.86" height="318.37" rx="5.81" ry="5.81" style="fill:#2d3f49; stroke:#2d3f49; stroke-miterlimit:10; stroke-width:.48px;"/><rect x="332.74" y="337.79" width="248.24" height="29.89" rx="5.81" ry="5.81" style="fill:#fff;"/><rect x="460.51" y="77.35" width="120.47" height="252.57" rx="5.81" ry="5.81" style="fill:#fff;"/><rect x="474.44" y="220.5" width="92.67" height="47.04" rx="5.81" ry="5.81" style="fill:#4278bd;"/><rect x="479.72" y="240.46" width="38.75" height="19.17" rx="5.81" ry="5.81" style="fill:#fff; stroke:#4278bd; stroke-miterlimit:10; stroke-width:.48px;"/><rect x="524.58" y="240.46" width="38.98" height="19.17" rx="5.81" ry="5.81" style="fill:#fff; stroke:#4278bd; stroke-miterlimit:10; stroke-width:.48px;"/><rect x="474.44" y="168.07" width="92.67" height="47.04" rx="5.81" ry="5.81" style="fill:#4278bd;"/><rect x="479.72" y="188.02" width="38.75" height="19.17" rx="5.81" ry="5.81" style="fill:#fff; stroke:#4278bd; stroke-miterlimit:10; stroke-width:.48px;"/><rect x="524.58" y="188.51" width="38.98" height="19.17" rx="5.81" ry="5.81" style="fill:#fff; stroke:#4278bd; stroke-miterlimit:10; stroke-width:.48px;"/><rect x="474.44" y="116.27" width="92.67" height="47.04" rx="5.81" ry="5.81" style="fill:#4278bd;"/><rect x="479.72" y="136.22" width="38.75" height="19.17" rx="5.81" ry="5.81" style="fill:#fff; stroke:#4278bd; stroke-miterlimit:10; stroke-width:.48px;"/><rect x="524.58" y="135.74" width="38.98" height="19.17" rx="5.81" ry="5.81" style="fill:#fff; stroke:#4278bd; stroke-miterlimit:10; stroke-width:.48px;"/><rect x="332.58" y="76.87" width="121.14" height="253.06" rx="5.81" ry="5.81" style="fill:#fff;"/><rect x="341.05" y="95.66" width="234.29" height="178.34" rx="5.81" ry="5.81" style="fill:none; stroke:#00b39f; stroke-dasharray:0 3.87; stroke-miterlimit:10; stroke-width:.97px;"/><rect x="347.12" y="220.02" width="92.67" height="47.04" rx="5.81" ry="5.81" style="fill:#4278bd;"/><rect x="352.4" y="239.98" width="38.75" height="19.17" rx="5.81" ry="5.81" style="fill:#fff; stroke:#4278bd; stroke-miterlimit:10; stroke-width:.48px;"/><rect x="397.26" y="239.98" width="38.98" height="19.17" rx="5.81" ry="5.81" style="fill:#fff; stroke:#4278bd; stroke-miterlimit:10; stroke-width:.48px;"/><rect x="347.12" y="167.58" width="92.67" height="47.04" rx="5.81" ry="5.81" style="fill:#4278bd;"/><rect x="352.4" y="187.54" width="38.75" height="19.17" rx="5.81" ry="5.81" style="fill:#fff; stroke:#4278bd; stroke-miterlimit:10; stroke-width:.48px;"/><rect x="397.26" y="188.02" width="38.98" height="19.17" rx="5.81" ry="5.81" style="fill:#fff; stroke:#4278bd; stroke-miterlimit:10; stroke-width:.48px;"/><rect x="347.12" y="115.78" width="92.67" height="47.04" rx="5.81" ry="5.81" style="fill:#4278bd;"/><rect x="352.4" y="135.74" width="38.75" height="19.17" rx="5.81" ry="5.81" style="fill:#fff; stroke:#4278bd; stroke-miterlimit:10; stroke-width:.48px;"/><rect x="397.26" y="135.25" width="38.98" height="19.17" rx="5.81" ry="5.81" style="fill:#fff; stroke:#4278bd; stroke-miterlimit:10; stroke-width:.48px;"/><g><line x1="394.54" y1="277.26" x2="394.54" y2="286.29" style="fill:none; stroke:#000; stroke-miterlimit:10; stroke-width:.48px;"/><polygon points="392.13 277.96 394.54 273.78 396.96 277.96 392.13 277.96"/><polygon points="392.13 285.58 394.54 289.76 396.96 285.58 392.13 285.58"/></g><rect x="341.05" y="289.41" width="104.42" height="21.07" rx="5.81" ry="5.81" style="fill:#4278bd; stroke:#5596e6; stroke-miterlimit:10; stroke-width:.48px;"/><rect x="467.66" y="289.41" width="104.42" height="21.07" rx="5.81" ry="5.81" style="fill:#4278bd; stroke:#5596e6; stroke-miterlimit:10; stroke-width:.48px;"/><g><line x1="520.89" y1="277.26" x2="520.89" y2="286.29" style="fill:none; stroke:#000; stroke-miterlimit:10; stroke-width:.48px;"/><polygon points="518.48 277.96 520.89 273.78 523.3 277.96 518.48 277.96"/><polygon points="518.48 285.58 520.89 289.76 523.3 285.58 518.48 285.58"/></g><g><ellipse cx="439.75" cy="311.89" rx="7.99" ry="8.24" style="fill:#fff; stroke:#5aaafa; stroke-miterlimit:10; stroke-width:.48px;"/><path d="M439.47,307.98c1.99,0,3.43,.39,3.9,.66-.48,.27-1.8,.62-3.9,.62s-3.35-.39-3.79-.62c.41-.27,1.73-.66,3.79-.66Zm0-.5c-2.5,0-4.38,.54-4.38,1.16s1.88,1.16,4.38,1.16,4.46-.54,4.46-1.16-1.99-1.16-4.46-1.16Zm.04,6.98c-1.66,0-4.42-.27-4.42-1.24v-1.09h.44v1.12c0,.19,1.22,.78,3.98,.78,2.62,0,3.98-.54,3.98-.78v-1.12h.44v1.12c0,.93-2.76,1.2-4.42,1.2Zm0,2.33c-1.66,0-4.42-.27-4.42-1.24v-1.09h.44v1.09c0,.19,1.22,.78,3.98,.78,2.62,0,3.98-.54,3.98-.78v-1.09h.44v1.09c0,.97-2.76,1.24-4.42,1.24Zm0-4.65c-1.62,0-4.42-.27-4.42-1.24v-1.09h.44v1.09c0,.19,1.22,.78,3.98,.78s3.98-.54,3.98-.78v-1.09h.44v1.09c0,.97-2.76,1.24-4.42,1.24Z" style="fill:#5a6872; stroke:#5a6872; stroke-miterlimit:10; stroke-width:.48px;"/></g><g><ellipse cx="567.07" cy="311.89" rx="7.99" ry="8.24" style="fill:#fff; stroke:#5aaafa; stroke-miterlimit:10; stroke-width:.48px;"/><path d="M566.79,307.98c1.99,0,3.43,.39,3.9,.66-.48,.27-1.8,.62-3.9,.62s-3.35-.39-3.79-.62c.41-.27,1.73-.66,3.79-.66Zm0-.5c-2.5,0-4.38,.54-4.38,1.16s1.88,1.16,4.38,1.16,4.46-.54,4.46-1.16-1.99-1.16-4.46-1.16Zm.04,6.98c-1.66,0-4.42-.27-4.42-1.24v-1.09h.44v1.12c0,.19,1.22,.78,3.98,.78,2.62,0,3.98-.54,3.98-.78v-1.12h.44v1.12c0,.93-2.76,1.2-4.42,1.2Zm0,2.33c-1.66,0-4.42-.27-4.42-1.24v-1.09h.44v1.09c0,.19,1.22,.78,3.98,.78,2.62,0,3.98-.54,3.98-.78v-1.09h.44v1.09c0,.97-2.76,1.24-4.42,1.24Zm0-4.65c-1.62,0-4.42-.27-4.42-1.24v-1.09h.44v1.09c0,.19,1.22,.78,3.98,.78s3.98-.54,3.98-.78v-1.09h.44v1.09c0,.97-2.76,1.24-4.42,1.24Z" style="fill:#5a6872; stroke:#5a6872; stroke-miterlimit:10; stroke-width:.48px;"/></g><rect x="467.66" y="341.56" width="104.42" height="21.07" rx="5.81" ry="5.81" style="fill:#4278bd; stroke:#5596e6; stroke-miterlimit:10; stroke-width:.48px;"/><g><line x1="517.35" y1="341.07" x2="517.35" y2="311.41" style="fill:#5596e6;"/><g><line x1="517.35" y1="337.6" x2="517.35" y2="314.88" style="fill:none; stroke:#5596e6; stroke-miterlimit:10; stroke-width:.48px;"/><polygon points="519.76 336.89 517.35 341.07 514.94 336.89 519.76 336.89" style="fill:#5596e6;"/><polygon points="519.76 315.59 517.35 311.41 514.94 315.59 519.76 315.59" style="fill:#5596e6;"/></g></g></g><g id="b"><text transform="translate(418.97 68.11)" style="fill:#fff; font-family:IBMPlexSans, &apos;IBM Plex Sans&apos;; font-size:9.68px;"><tspan x="0" y="0" style="letter-spacing:-.01em;">R</tspan><tspan x="6.05" y="0">egion u</tspan><tspan x="37.6" y="0" style="letter-spacing:-.01em;">s</tspan><tspan x="42.22" y="0">-south</tspan></text><text transform="translate(361.01 40.85) scale(1.1 1)" style="font-family:IBMPlexSans-SemiBold, &apos;IBM Plex Sans&apos;; font-size:11.62px;"><tspan x="0" y="0">IBM Cloud File or Block </tspan><tspan x="128.09" y="0" style="letter-spacing:0em;">St</tspan><tspan x="139.44" y="0">o</tspan><tspan x="145.98" y="0" style="letter-spacing:-.01em;">r</tspan><tspan x="150.42" y="0" style="letter-spacing:0em;">a</tspan><tspan x="156.91" y="0" style="letter-spacing:0em;">g</tspan><tspan x="163.18" y="0">e</tspan></text><line x1="298.27" y1="186.47" x2="325.15" y2="185.99" style="fill:none;"/><text transform="translate(489.03 233.97)" style="fill:#fff; font-family:IBMPlexSans, &apos;IBM Plex Sans&apos;; font-size:9.68px;"><tspan x="0" y="0" style="letter-spacing:-.01em;">W</tspan><tspan x="8.48" y="0">or</tspan><tspan x="17.46" y="0" style="letter-spacing:-.02em;">k</tspan><tspan x="22.39" y="0">er node 3</tspan></text><text transform="translate(496.18 90.33)" style="font-family:IBMPlexSans, &apos;IBM Plex Sans&apos;; font-size:9.68px;"><tspan x="0" y="0" style="letter-spacing:0em;">Z</tspan><tspan x="5.57" y="0">one dal12</tspan></text><text transform="translate(491.26 128.1)" style="fill:#fff; font-family:HelvNeueRomanforIBM, HelvNeueRomanforIBM; font-size:9.68px;"><tspan x="0" y="0" style="letter-spacing:-.03em;">W</tspan><tspan x="7.87" y="0">o</tspan><tspan x="13.19" y="0" style="letter-spacing:0em;">r</tspan><tspan x="16.39" y="0">ker node 1</tspan></text><text transform="translate(486.69 252.58)" style="font-family:IBMPlexSans, &apos;IBM Plex Sans&apos;; font-size:9.68px;"><tspan x="0" y="0" style="letter-spacing:-.02em;">P</tspan><tspan x="5.67" y="0">od 1</tspan></text><text transform="translate(489.03 181.53)" style="fill:#fff; font-family:IBMPlexSans, &apos;IBM Plex Sans&apos;; font-size:9.68px;"><tspan x="0" y="0" style="letter-spacing:-.01em;">W</tspan><tspan x="8.48" y="0">or</tspan><tspan x="17.46" y="0" style="letter-spacing:-.02em;">k</tspan><tspan x="22.39" y="0">er node 2</tspan></text><text transform="translate(486.69 200.15)" style="font-family:IBMPlexSans, &apos;IBM Plex Sans&apos;; font-size:9.68px;"><tspan x="0" y="0" style="letter-spacing:-.02em;">P</tspan><tspan x="5.67" y="0">od 1</tspan></text><text transform="translate(486.69 148.35)" style="font-family:IBMPlexSans, &apos;IBM Plex Sans&apos;; font-size:9.68px;"><tspan x="0" y="0" style="letter-spacing:-.02em;">P</tspan><tspan x="5.67" y="0">od 1</tspan></text><text transform="translate(531.67 253.47)" style="font-family:IBMPlexSans, &apos;IBM Plex Sans&apos;; font-size:9.68px;"><tspan x="0" y="0" style="letter-spacing:-.02em;">P</tspan><tspan x="5.67" y="0">od 2</tspan></text><text transform="translate(532.15 148.35)" style="font-family:IBMPlexSans, &apos;IBM Plex Sans&apos;; font-size:9.68px;"><tspan x="0" y="0" style="letter-spacing:-.02em;">P</tspan><tspan x="5.67" y="0">od 2</tspan></text><text transform="translate(361.71 233.48)" style="fill:#fff; font-family:IBMPlexSans, &apos;IBM Plex Sans&apos;; font-size:9.68px;"><tspan x="0" y="0" style="letter-spacing:-.01em;">W</tspan><tspan x="8.48" y="0">or</tspan><tspan x="17.46" y="0" style="letter-spacing:-.02em;">k</tspan><tspan x="22.39" y="0">er node 3</tspan></text><text transform="translate(368.58 89.84)" style="font-family:IBMPlexSans, &apos;IBM Plex Sans&apos;; font-size:9.68px;"><tspan x="0" y="0" style="letter-spacing:0em;">Z</tspan><tspan x="5.57" y="0">one dal10</tspan></text><text transform="translate(359.38 252.1)" style="font-family:IBMPlexSans, &apos;IBM Plex Sans&apos;; font-size:9.68px;"><tspan x="0" y="0" style="letter-spacing:-.02em;">P</tspan><tspan x="5.67" y="0">od 1</tspan></text><text transform="translate(361.71 181.05)" style="fill:#fff; font-family:IBMPlexSans, &apos;IBM Plex Sans&apos;; font-size:9.68px;"><tspan x="0" y="0" style="letter-spacing:-.01em;">W</tspan><tspan x="8.48" y="0">or</tspan><tspan x="17.46" y="0" style="letter-spacing:-.02em;">k</tspan><tspan x="22.39" y="0">er node 2</tspan></text><text transform="translate(359.38 199.66)" style="font-family:IBMPlexSans, &apos;IBM Plex Sans&apos;; font-size:9.68px;"><tspan x="0" y="0" style="letter-spacing:-.02em;">P</tspan><tspan x="5.67" y="0">od 1</tspan></text><text transform="translate(361.71 129.24)" style="fill:#fff; font-family:IBMPlexSans, &apos;IBM Plex Sans&apos;; font-size:9.68px;"><tspan x="0" y="0" style="letter-spacing:-.01em;">W</tspan><tspan x="8.48" y="0">or</tspan><tspan x="17.46" y="0" style="letter-spacing:-.02em;">k</tspan><tspan x="22.39" y="0">er node 1</tspan></text><text transform="translate(359.38 147.86)" style="font-family:IBMPlexSans, &apos;IBM Plex Sans&apos;; font-size:9.68px;"><tspan x="0" y="0" style="letter-spacing:-.02em;">P</tspan><tspan x="5.67" y="0">od 1</tspan></text><text transform="translate(403.92 200.35)" style="font-family:IBMPlexSans, &apos;IBM Plex Sans&apos;; font-size:9.68px;"><tspan x="0" y="0" style="letter-spacing:-.02em;">P</tspan><tspan x="5.67" y="0">od 2</tspan></text><text transform="translate(404.83 147.86)" style="font-family:IBMPlexSans, &apos;IBM Plex Sans&apos;; font-size:9.68px;"><tspan x="0" y="0" style="letter-spacing:-.02em;">P</tspan><tspan x="5.67" y="0">od 2</tspan></text><text transform="translate(403.92 252.1)" style="font-family:IBMPlexSans, &apos;IBM Plex Sans&apos;; font-size:9.68px;"><tspan x="0" y="0" style="letter-spacing:-.02em;">P</tspan><tspan x="5.67" y="0">od 2</tspan></text><line x1="563.56" y1="145.81" x2="590.43" y2="145.32" style="fill:none;"/><text transform="translate(350.34 303.29)" style="fill:#fff; font-family:IBMPlexSans, &apos;IBM Plex Sans&apos;; font-size:9.68px;"><tspan x="0" y="0" style="letter-spacing:0em;">Z</tspan><tspan x="5.57" y="0">one 1 File or Block</tspan></text><text transform="translate(476.94 303.29)" style="fill:#fff; font-family:IBMPlexSans, &apos;IBM Plex Sans&apos;; font-size:9.68px;"><tspan x="0" y="0" style="letter-spacing:0em;">Z</tspan><tspan x="5.57" y="0">one 2 File or Block</tspan></text><rect x="360.53" y="99.26" width="199.97" height="13" rx="5.81" ry="5.81" style="fill:#fff;"/><text transform="translate(394 110.52)" style="font-family:IBMPlexSans, &apos;IBM Plex Sans&apos;; font-size:9.68px;"><tspan x="0" y="0">Mu</tspan><tspan x="13.36" y="0" style="letter-spacing:0em;">l</tspan><tspan x="15.95" y="0">ti</tspan><tspan x="21.76" y="0" style="letter-spacing:0em;">z</tspan><tspan x="26.16" y="0">one clu</tspan><tspan x="57.68" y="0" style="letter-spacing:0em;">s</tspan><tspan x="62.33" y="0" style="letter-spacing:0em;">t</tspan><tspan x="65.69" y="0">er </tspan><tspan x="76.84" y="0" style="letter-spacing:0em;">w</tspan><tspan x="84.23" y="0">or</tspan><tspan x="93.21" y="0" style="letter-spacing:-.02em;">k</tspan><tspan x="98.14" y="0">er pool</tspan></text><text transform="translate(488.56 350.07)" style="fill:#fff; font-family:IBMPlexSans, &apos;IBM Plex Sans&apos;; font-size:9.68px;"><tspan x="0" y="0" style="letter-spacing:0em;">Z</tspan><tspan x="5.57" y="0">one 3 Bac</tspan><tspan x="48.54" y="0" style="letter-spacing:0em;">k</tspan><tspan x="53.55" y="0">up </tspan></text><text transform="translate(368.89 356.06)" style="font-family:IBMPlexSans, &apos;IBM Plex Sans&apos;; font-size:9.68px;"><tspan x="0" y="0" style="letter-spacing:0em;">Z</tspan><tspan x="5.57" y="0">one dal13</tspan></text><text transform="translate(532.15 199.84)" style="font-family:IBMPlexSans, &apos;IBM Plex Sans&apos;; font-size:9.68px;"><tspan x="0" y="0" style="letter-spacing:-.02em;">P</tspan><tspan x="5.67" y="0">od 2</tspan></text><text transform="translate(491.98 360.75)" style="fill:#fff; font-family:IBMPlexSans, &apos;IBM Plex Sans&apos;; font-size:9.68px;"><tspan x="0" y="0">NFS or Block</tspan></text></g></svg>