<?xml version="1.0" encoding="UTF-8"?><svg id="b" xmlns="http://www.w3.org/2000/svg" width="1108" height="334.77" viewBox="0 0 1108 334.77"><rect x="276.6" y="52.28" width="236.08" height="238.97" rx="6.64" ry="6.64" style="fill:#2d3f49; stroke:#2d3f49; stroke-miterlimit:10; stroke-width:.55px;"/><text transform="translate(354.28 70.43)" style="fill:#fff; font-family:IBMPlexSans, &apos;IBM Plex Sans&apos;; font-size:11.07px;"><tspan x="0" y="0" style="letter-spacing:-.02em;">R</tspan><tspan x="6.92" y="0">egion u</tspan><tspan x="42.98" y="0" style="letter-spacing:0em;">s</tspan><tspan x="48.26" y="0">-south</tspan></text><rect x="284.78" y="85.19" width="218.91" height="196.72" rx="6.64" ry="6.64" style="fill:#fff;"/><rect x="292.12" y="108.56" width="205.73" height="167.68" rx="6.64" ry="6.64" style="fill:none; stroke:#00b39f; stroke-dasharray:0 4.43; stroke-miterlimit:10; stroke-width:1.11px;"/><text transform="translate(357.82 100.03)" style="font-family:IBMPlexSans, &apos;IBM Plex Sans&apos;; font-size:11.07px;"><tspan x="0" y="0" style="letter-spacing:-.01em;">L</tspan><tspan x="5.43" y="0" style="letter-spacing:0em;">ocation dal10</tspan></text><text transform="translate(377.25 124.74)" style="font-family:IBMPlexSans, &apos;IBM Plex Sans&apos;; font-size:11.07px;"><tspan x="0" y="0">Clu</tspan><tspan x="16.17" y="0" style="letter-spacing:0em;">s</tspan><tspan x="21.48" y="0" style="letter-spacing:0em;">t</tspan><tspan x="25.32" y="0">er</tspan></text><rect x="298.64" y="132.3" width="191.82" height="77.99" rx="6.64" ry="6.64" style="fill:#4278bd;"/><text transform="translate(381.99 147.36)" style="fill:#fff; font-family:HelvNeueRomanforIBM, HelvNeueRomanforIBM; font-size:11.07px;"><tspan x="0" y="0">Node </tspan></text><rect x="307.1" y="155.11" width="81.07" height="46.88" rx="6.64" ry="6.64" style="fill:#fff; stroke:#4278bd; stroke-miterlimit:10; stroke-width:.55px;"/><text transform="translate(331.71 168.97)" style="font-family:IBMPlexSans, &apos;IBM Plex Sans&apos;; font-size:11.07px;"><tspan x="0" y="0" style="letter-spacing:-.02em;">P</tspan><tspan x="6.49" y="0">od 1</tspan></text><rect x="312.42" y="173" width="70.59" height="24.32" rx="6.64" ry="6.64" style="fill:#fff; stroke:#4278bd; stroke-miterlimit:10; stroke-width:.55px;"/><g><ellipse cx="383.02" cy="196.96" rx="9.13" ry="9.42" style="fill:#fff; stroke:#5aaafa; stroke-miterlimit:10; stroke-width:.55px;"/><path d="M382.69,192.49c2.27,0,3.92,.44,4.46,.75-.55,.31-2.06,.71-4.46,.71s-3.83-.44-4.34-.71c.46-.31,1.98-.75,4.34-.75Zm0-.58c-2.86,0-5.01,.62-5.01,1.33s2.15,1.33,5.01,1.33,5.09-.62,5.09-1.33-2.27-1.33-5.09-1.33Zm.04,7.98c-1.89,0-5.05-.31-5.05-1.42v-1.24h.51v1.29c0,.22,1.39,.89,4.55,.89,2.99,0,4.55-.62,4.55-.89v-1.29h.51v1.29c0,1.06-3.16,1.37-5.05,1.37Zm0,2.66c-1.89,0-5.05-.31-5.05-1.42v-1.24h.51v1.24c0,.22,1.39,.89,4.55,.89,2.99,0,4.55-.62,4.55-.89v-1.24h.51v1.24c0,1.11-3.16,1.42-5.05,1.42Zm0-5.32c-1.85,0-5.05-.31-5.05-1.42v-1.24h.51v1.24c0,.22,1.39,.89,4.55,.89s4.55-.62,4.55-.89v-1.24h.51v1.24c0,1.11-3.16,1.42-5.05,1.42Z" style="fill:#5a6872; stroke:#5a6872; stroke-miterlimit:10; stroke-width:.55px;"/></g><text transform="translate(318.97 189.28)" style="font-family:IBMPlexSans, &apos;IBM Plex Sans&apos;; font-size:11.07px;"><tspan x="0" y="0">Container 1</tspan></text><rect x="401.02" y="154.95" width="81.07" height="46.88" rx="6.64" ry="6.64" style="fill:#fff; stroke:#4278bd; stroke-miterlimit:10; stroke-width:.55px;"/><text transform="translate(427.84 168.81)" style="font-family:IBMPlexSans, &apos;IBM Plex Sans&apos;; font-size:11.07px;"><tspan x="0" y="0" style="letter-spacing:-.02em;">P</tspan><tspan x="6.49" y="0">od 2</tspan></text><rect x="406.49" y="173.45" width="70.59" height="24.32" rx="6.64" ry="6.64" style="fill:#fff; stroke:#4278bd; stroke-miterlimit:10; stroke-width:.55px;"/><text transform="translate(412.34 189.18)" style="font-family:IBMPlexSans, &apos;IBM Plex Sans&apos;; font-size:11.07px;"><tspan x="0" y="0">Container 2</tspan></text><g><ellipse cx="477.08" cy="196.96" rx="9.13" ry="9.42" style="fill:#fff; stroke:#5aaafa; stroke-miterlimit:10; stroke-width:.55px;"/><path d="M476.76,192.49c2.27,0,3.92,.44,4.46,.75-.55,.31-2.06,.71-4.46,.71s-3.83-.44-4.34-.71c.46-.31,1.98-.75,4.34-.75Zm0-.58c-2.86,0-5.01,.62-5.01,1.33s2.15,1.33,5.01,1.33,5.09-.62,5.09-1.33-2.27-1.33-5.09-1.33Zm.04,7.98c-1.89,0-5.05-.31-5.05-1.42v-1.24h.51v1.29c0,.22,1.39,.89,4.55,.89,2.99,0,4.55-.62,4.55-.89v-1.29h.51v1.29c0,1.06-3.16,1.37-5.05,1.37Zm0,2.66c-1.89,0-5.05-.31-5.05-1.42v-1.24h.51v1.24c0,.22,1.39,.89,4.55,.89,2.99,0,4.55-.62,4.55-.89v-1.24h.51v1.24c0,1.11-3.16,1.42-5.05,1.42Zm0-5.32c-1.85,0-5.05-.31-5.05-1.42v-1.24h.51v1.24c0,.22,1.39,.89,4.55,.89s4.55-.62,4.55-.89v-1.24h.51v1.24c0,1.11-3.16,1.42-5.05,1.42Z" style="fill:#5a6872; stroke:#5a6872; stroke-miterlimit:10; stroke-width:.55px;"/></g><rect x="545.26" y="53.6" width="236.08" height="237.65" rx="6.64" ry="6.64" style="fill:#2d3f49; stroke:#2d3f49; stroke-miterlimit:10; stroke-width:.55px;"/><text transform="translate(622.94 71.76)" style="fill:#fff; font-family:IBMPlexSans, &apos;IBM Plex Sans&apos;; font-size:11.07px;"><tspan x="0" y="0" style="letter-spacing:-.02em;">R</tspan><tspan x="6.92" y="0">egion u</tspan><tspan x="42.98" y="0" style="letter-spacing:0em;">s</tspan><tspan x="48.26" y="0">-south</tspan></text><rect x="553.44" y="86.51" width="220.92" height="195.39" rx="6.64" ry="6.64" style="fill:#fff;"/><rect x="560.78" y="109.88" width="205.73" height="166.35" rx="6.64" ry="6.64" style="fill:none; stroke:#00b39f; stroke-dasharray:0 4.43; stroke-miterlimit:10; stroke-width:1.11px;"/><text transform="translate(626.49 101.35)" style="font-family:IBMPlexSans, &apos;IBM Plex Sans&apos;; font-size:11.07px;"><tspan x="0" y="0" style="letter-spacing:0em;">L</tspan><tspan x="5.43" y="0" style="letter-spacing:0em;">ocation dal10</tspan></text><text transform="translate(645.92 126.06)" style="font-family:IBMPlexSans, &apos;IBM Plex Sans&apos;; font-size:11.07px;"><tspan x="0" y="0">Clu</tspan><tspan x="16.17" y="0" style="letter-spacing:0em;">s</tspan><tspan x="21.48" y="0" style="letter-spacing:0em;">t</tspan><tspan x="25.32" y="0">er</tspan></text><rect x="567.3" y="133.62" width="191.82" height="136.3" rx="6.64" ry="6.64" style="fill:#4278bd;"/><text transform="translate(649.97 149.01)" style="fill:#fff; font-family:IBMPlexSans, &apos;IBM Plex Sans&apos;; font-size:11.07px;"><tspan x="0" y="0">Node</tspan></text><rect x="575.77" y="156.43" width="81.07" height="46.88" rx="6.64" ry="6.64" style="fill:#fff; stroke:#4278bd; stroke-miterlimit:10; stroke-width:.55px;"/><text transform="translate(600.37 170.29)" style="font-family:IBMPlexSans, &apos;IBM Plex Sans&apos;; font-size:11.07px;"><tspan x="0" y="0" style="letter-spacing:-.02em;">P</tspan><tspan x="6.49" y="0">od 1</tspan></text><rect x="581.08" y="174.32" width="70.59" height="24.32" rx="6.64" ry="6.64" style="fill:#fff; stroke:#4278bd; stroke-miterlimit:10; stroke-width:.55px;"/><text transform="translate(589.01 190.05)" style="font-family:IBMPlexSans, &apos;IBM Plex Sans&apos;; font-size:11.07px;"><tspan x="0" y="0">Container 1</tspan></text><rect x="669.68" y="156.27" width="81.07" height="46.88" rx="6.64" ry="6.64" style="fill:#fff; stroke:#4278bd; stroke-miterlimit:10; stroke-width:.55px;"/><text transform="translate(696.5 170.13)" style="font-family:IBMPlexSans, &apos;IBM Plex Sans&apos;; font-size:11.07px;"><tspan x="0" y="0" style="letter-spacing:-.02em;">P</tspan><tspan x="6.49" y="0">od 2</tspan></text><rect x="675.15" y="174.77" width="70.59" height="24.32" rx="6.64" ry="6.64" style="fill:#fff; stroke:#4278bd; stroke-miterlimit:10; stroke-width:.55px;"/><text transform="translate(683.08 189.95)" style="font-family:IBMPlexSans, &apos;IBM Plex Sans&apos;; font-size:11.07px;"><tspan x="0" y="0">Container 2</tspan></text><rect x="576.86" y="213.68" width="173.65" height="50.25" rx="6.64" ry="6.64" style="fill:#fff; stroke:#4278bd; stroke-miterlimit:10; stroke-width:.55px;"/><text transform="translate(635.41 226.51)" style="font-family:IBMPlexSans, &apos;IBM Plex Sans&apos;; font-size:9.96px;"><tspan x="0" y="0" style="letter-spacing:-.02em;">W</tspan><tspan x="8.73" y="0">or</tspan><tspan x="17.96" y="0" style="letter-spacing:-.02em;">k</tspan><tspan x="23.04" y="0">er node</tspan></text><g><line x1="611.79" y1="201.72" x2="611.79" y2="229.49" style="fill:none; stroke:#000; stroke-miterlimit:10; stroke-width:.55px;"/><polygon points="609.03 202.53 611.79 197.75 614.54 202.53 609.03 202.53"/><polygon points="609.03 228.68 611.79 233.46 614.54 228.68 609.03 228.68"/></g><g><line x1="714.06" y1="203.56" x2="714.06" y2="231.33" style="fill:none; stroke:#000; stroke-miterlimit:10; stroke-width:.55px;"/><polygon points="711.3 204.37 714.06 199.59 716.82 204.37 711.3 204.37"/><polygon points="711.3 230.52 714.06 235.3 716.82 230.52 711.3 230.52"/></g><text transform="translate(325.28 39.25)" style="font-family:IBMPlexSans-SemiBold, &apos;IBM Plex Sans&apos;; font-size:13.28px;"><tspan x="0" y="0">1. Inside the </tspan><tspan x="80.63" y="0" style="letter-spacing:0em;">c</tspan><tspan x="87.37" y="0">ontainer</tspan></text><text transform="translate(551.63 29.47)" style="font-family:IBMPlexSans-SemiBold, &apos;IBM Plex Sans&apos;; font-size:13.28px;"><tspan x="0" y="0">2. On the </tspan><tspan x="58.79" y="0" style="letter-spacing:0em;">w</tspan><tspan x="69.55" y="0">or</tspan><tspan x="82.25" y="0" style="letter-spacing:-.02em;">k</tspan><tspan x="89.39" y="0">er nod</tspan><tspan x="128.41" y="0" style="letter-spacing:-.03em;">e</tspan><tspan x="135.39" y="0" style="letter-spacing:-.06em;">’</tspan><tspan x="138.42" y="0">s prima</tspan><tspan x="184.25" y="0" style="letter-spacing:0em;">r</tspan><tspan x="189.58" y="0">y or</tspan></text><rect x="582.47" y="235.3" width="79.22" height="24.32" rx="6.64" ry="6.64" style="fill:#fff; stroke:#4278bd; stroke-miterlimit:10; stroke-width:.55px;"/><rect x="666.12" y="235.3" width="79.68" height="24.32" rx="6.64" ry="6.64" style="fill:#fff; stroke:#4278bd; stroke-miterlimit:10; stroke-width:.55px;"/><g><ellipse cx="680.64" cy="247.46" rx="8.81" ry="9.1" style="fill:#fff; stroke:#5aaafa; stroke-miterlimit:10; stroke-width:.55px;"/><path d="M680.33,243.14c2.19,0,3.78,.43,4.31,.73-.53,.3-1.99,.68-4.31,.68s-3.7-.43-4.19-.68c.45-.3,1.91-.73,4.19-.73Zm0-.56c-2.76,0-4.84,.6-4.84,1.28s2.07,1.28,4.84,1.28,4.92-.6,4.92-1.28-2.19-1.28-4.92-1.28Zm.04,7.7c-1.83,0-4.88-.3-4.88-1.37v-1.2h.49v1.24c0,.21,1.34,.86,4.39,.86,2.89,0,4.39-.6,4.39-.86v-1.24h.49v1.24c0,1.03-3.05,1.33-4.88,1.33Zm0,2.57c-1.83,0-4.88-.3-4.88-1.37v-1.2h.49v1.2c0,.21,1.34,.86,4.39,.86,2.89,0,4.39-.6,4.39-.86v-1.2h.49v1.2c0,1.07-3.05,1.37-4.88,1.37Zm0-5.13c-1.79,0-4.88-.3-4.88-1.37v-1.2h.49v1.2c0,.21,1.34,.86,4.39,.86s4.39-.6,4.39-.86v-1.2h.49v1.2c0,1.07-3.05,1.37-4.88,1.37Z" style="fill:#5a6872; stroke:#5a6872; stroke-miterlimit:10; stroke-width:.55px;"/></g><g><ellipse cx="596.56" cy="247.54" rx="8.81" ry="9.1" style="fill:#fff; stroke:#5aaafa; stroke-miterlimit:10; stroke-width:.55px;"/><path d="M596.25,243.23c2.19,0,3.78,.43,4.31,.73-.53,.3-1.99,.68-4.31,.68s-3.7-.43-4.19-.68c.45-.3,1.91-.73,4.19-.73Zm0-.56c-2.76,0-4.84,.6-4.84,1.28s2.07,1.28,4.84,1.28,4.92-.6,4.92-1.28-2.19-1.28-4.92-1.28Zm.04,7.7c-1.83,0-4.88-.3-4.88-1.37v-1.2h.49v1.24c0,.21,1.34,.86,4.39,.86,2.89,0,4.39-.6,4.39-.86v-1.24h.49v1.24c0,1.03-3.05,1.33-4.88,1.33Zm0,2.57c-1.83,0-4.88-.3-4.88-1.37v-1.2h.49v1.2c0,.21,1.34,.86,4.39,.86,2.89,0,4.39-.6,4.39-.86v-1.2h.49v1.2c0,1.07-3.05,1.37-4.88,1.37Zm0-5.13c-1.79,0-4.88-.3-4.88-1.37v-1.2h.49v1.2c0,.21,1.34,.86,4.39,.86s4.39-.6,4.39-.86v-1.2h.49v1.2c0,1.07-3.05,1.37-4.88,1.37Z" style="fill:#5a6872; stroke:#5a6872; stroke-miterlimit:10; stroke-width:.55px;"/></g><text transform="translate(616.72 245.4)" style="font-family:IBMPlexSans, &apos;IBM Plex Sans&apos;; font-size:9.96px;"><tspan x="0" y="0" style="letter-spacing:-.01em;">P</tspan><tspan x="5.94" y="0">rima</tspan><tspan x="26.1" y="0" style="letter-spacing:.01em;">r</tspan><tspan x="29.85" y="0">y</tspan></text><text transform="translate(618.09 256.54)" style="font-family:IBMPlexSans, &apos;IBM Plex Sans&apos;; font-size:9.96px;"><tspan x="0" y="0" style="letter-spacing:0em;">s</tspan><tspan x="4.78" y="0" style="letter-spacing:0em;">t</tspan><tspan x="8.24" y="0">o</tspan><tspan x="13.81" y="0" style="letter-spacing:0em;">r</tspan><tspan x="17.43" y="0">a</tspan><tspan x="22.75" y="0" style="letter-spacing:0em;">g</tspan><tspan x="27.95" y="0">e</tspan></text><text transform="translate(693.97 245.96)" style="font-family:IBMPlexSans, &apos;IBM Plex Sans&apos;; font-size:9.96px;"><tspan x="0" y="0">Se</tspan><tspan x="11.26" y="0" style="letter-spacing:0em;">c</tspan><tspan x="16.21" y="0">onda</tspan><tspan x="38.54" y="0" style="letter-spacing:.01em;">r</tspan><tspan x="42.29" y="0">y</tspan></text><text transform="translate(700.89 256.54)" style="font-family:IBMPlexSans, &apos;IBM Plex Sans&apos;; font-size:9.96px;"><tspan x="0" y="0" style="letter-spacing:0em;">s</tspan><tspan x="4.78" y="0" style="letter-spacing:0em;">t</tspan><tspan x="8.24" y="0">o</tspan><tspan x="13.81" y="0" style="letter-spacing:0em;">r</tspan><tspan x="17.43" y="0">a</tspan><tspan x="22.75" y="0" style="letter-spacing:0em;">g</tspan><tspan x="27.95" y="0">e</tspan></text><text transform="translate(619.82 46.27)" style="font-family:IBMPlexSans-SemiBold, &apos;IBM Plex Sans&apos;; font-size:13.28px;"><tspan x="0" y="0">se</tspan><tspan x="14.04" y="0" style="letter-spacing:0em;">c</tspan><tspan x="20.78" y="0">onda</tspan><tspan x="51.46" y="0" style="letter-spacing:0em;">r</tspan><tspan x="56.79" y="0">y disk</tspan></text></svg>