<?xml version="1.0" encoding="UTF-8"?><svg xmlns="http://www.w3.org/2000/svg" xmlns:xlink="http://www.w3.org/1999/xlink" viewBox="0 0 960 492"><defs><style>.cls-1,.cls-2,.cls-3,.cls-4,.cls-5{fill:none;}.cls-6,.cls-7{font-family:IBMPlexSans-Italic, 'IBM Plex Sans';font-style:italic;}.cls-8{fill:#87c3eb;}.cls-9{fill:#687985;}.cls-10{fill:#eec11b;}.cls-11{fill:#f47737;}.cls-12{fill-rule:evenodd;}.cls-12,.cls-13,.cls-14{fill:#10212d;}.cls-7,.cls-15,.cls-16{font-size:18px;}.cls-17{fill:#8c9ba5;}.cls-18{fill:#e61f33;}.cls-19{stroke:#00b39f;stroke-dasharray:8;}.cls-19,.cls-2,.cls-20,.cls-21,.cls-22,.cls-3,.cls-4,.cls-5{stroke-miterlimit:10;}.cls-19,.cls-23,.cls-21,.cls-22,.cls-24,.cls-25,.cls-26{fill:#fff;}.cls-19,.cls-21,.cls-3,.cls-5{stroke-width:2px;}.cls-27{clip-path:url(#clippath-1);}.cls-28{clip-path:url(#clippath-3);}.cls-29{clip-path:url(#clippath-2);}.cls-2{stroke:#10212d;stroke-width:9px;}.cls-30,.cls-14{font-size:19px;}.cls-20{fill:#2d3f49;stroke:#2d3f49;}.cls-31{letter-spacing:0em;}.cls-32{fill:#5cc4b9;}.cls-21{stroke:#000;}.cls-22{stroke:#999;}.cls-3{stroke:#87c3eb;}.cls-33,.cls-24,.cls-25,.cls-34,.cls-35,.cls-16,.cls-36,.cls-37{font-family:IBMPlexSans, 'IBM Plex Sans';}.cls-38{fill:#6aa4d9;}.cls-39{letter-spacing:0em;}.cls-40{fill:#42535c;}.cls-41{fill:#5b6972;}.cls-4{stroke:#2d3f55;stroke-width:3px;}.cls-24,.cls-34{font-size:20px;}.cls-25,.cls-37{font-size:23px;}.cls-5{stroke:#394b54;}.cls-42{letter-spacing:-.02em;}.cls-43{letter-spacing:-.02em;}.cls-44{letter-spacing:-.02em;}.cls-45{letter-spacing:-.02em;}.cls-46{letter-spacing:-.01em;}.cls-47{letter-spacing:-.02em;}.cls-48{letter-spacing:-.01em;}.cls-49{letter-spacing:-.03em;}.cls-35{font-size:21.26px;}.cls-50{letter-spacing:0em;}.cls-51{letter-spacing:0em;}.cls-36{font-size:17px;}.cls-52{letter-spacing:0em;}.cls-53{letter-spacing:0em;}.cls-54{letter-spacing:0em;}.cls-55{letter-spacing:0em;}.cls-56{letter-spacing:0em;}.cls-57{letter-spacing:0em;}.cls-58{letter-spacing:0em;}.cls-59{letter-spacing:0em;}.cls-60{letter-spacing:0em;}.cls-61{letter-spacing:0em;}.cls-62{letter-spacing:0em;}.cls-63{letter-spacing:0em;}.cls-64{letter-spacing:0em;}.cls-65{letter-spacing:0em;}.cls-66{letter-spacing:0em;}.cls-67{letter-spacing:0em;}.cls-68{letter-spacing:0em;}.cls-69{letter-spacing:0em;}.cls-70{fill:#4278bd;}.cls-26{font-family:IBMPlexSans-SemiBold, 'IBM Plex Sans';font-size:22px;font-weight:600;}.cls-71{fill:#394b54;}.cls-72{fill:#6a2000;}.cls-14{font-family:IBMPlexSans-Bold, 'IBM Plex Sans';font-weight:700;}.cls-73{clip-path:url(#clippath);}.cls-74{letter-spacing:0em;}.cls-75{letter-spacing:0em;}.cls-76{letter-spacing:0em;}</style><clipPath id="clippath"><rect class="cls-1" x="826" y="158" width="116" height="59.72"/></clipPath><clipPath id="clippath-1"><rect class="cls-1" x="826" y="158" width="116" height="59.71"/></clipPath><clipPath id="clippath-2"><rect class="cls-1" x="727" y="320" width="90" height="110"/></clipPath><clipPath id="clippath-3"><rect class="cls-1" x="727" y="320" width="90" height="110"/></clipPath></defs><g id="Layer_1"><rect class="cls-32" x="380" y="141" width="254" height="108" rx="12" ry="12"/><line class="cls-5" x1="648.35" y1="195" x2="713" y2="195"/><polygon class="cls-71" points="651.27 204.97 634 195 651.27 185.03 651.27 204.97"/><line class="cls-5" x1="365.65" y1="195" x2="292" y2="195"/><polygon class="cls-71" points="362.73 185.03 380 195 362.73 204.97 362.73 185.03"/><line class="cls-5" x1="896" y1="308.15" x2="896" y2="223"/><polygon class="cls-71" points="905.97 305.23 896 322.5 886.03 305.23 905.97 305.23"/><rect class="cls-20" x=".5" y="1.5" width="329" height="489" rx="12" ry="12"/><rect class="cls-19" x="28" y="42" width="277" height="428" rx="12" ry="12"/><rect class="cls-70" x="55" y="83" width="214" height="191" rx="12" ry="12"/><rect class="cls-23" x="70" y="116" width="183" height="146" rx="12" ry="12"/><rect class="cls-8" x="99.76" y="184" width="123.24" height="52" rx="12" ry="12"/><rect class="cls-70" x="79" y="288" width="170" height="170" rx="12" ry="12"/><rect class="cls-23" x="96" y="322" width="139" height="126.29" rx="12" ry="12"/><rect class="cls-3" x="109" y="354" width="113" height="82" rx="12" ry="12"/><rect class="cls-9" x="123" y="388" width="82" height="38" rx="12" ry="12"/><rect class="cls-3" x="86" y="152" width="152" height="99" rx="12" ry="12"/><line class="cls-5" x1="230.35" y1="216" x2="284" y2="216"/><polygon class="cls-71" points="233.27 225.97 216 216 233.27 206.03 233.27 225.97"/><line class="cls-5" x1="284" y1="216" x2="284" y2="408"/><line class="cls-5" x1="213.35" y1="407" x2="284" y2="407"/><polygon class="cls-71" points="216.27 416.97 199 407 216.27 397.03 216.27 416.97"/><rect class="cls-22" x="339.5" y="264.5" width="172" height="189" rx="12" ry="12"/><rect class="cls-4" x="705.5" y="1.5" width="253" height="489" rx="12" ry="12"/><line class="cls-5" x1="812.65" y1="195" x2="645" y2="195"/><polygon class="cls-71" points="809.73 185.03 827 195 809.73 204.97 809.73 185.03"/><g id="Router"><g class="cls-73"><polygon class="cls-17" points="857.45 182.82 827.39 215.89 911.94 215.89 942 182.82 857.45 182.82"/><polygon class="cls-17" points="857.45 158 827.39 191.07 911.94 191.07 942 158 857.45 158"/><polygon class="cls-40" points="942 158 911.94 191.07 911.94 215.89 942 182.82 942 158"/><g class="cls-27"><path class="cls-41" d="M908.45,217.72h-78.79c-2.01,0-3.66-2.34-3.66-5.19v-17.07c0-2.86,1.65-5.19,3.66-5.19h78.79c2.01,0,3.66,2.34,3.66,5.19v17.07c0,2.86-1.65,5.19-3.66,5.19"/><path class="cls-13" d="M903.74,208.13h-40.25c-1.72,0-3.13-2-3.13-4.44s1.41-4.44,3.13-4.44h40.25c1.72,0,3.13,2,3.13,4.44s-1.41,4.44-3.13,4.44"/><path class="cls-13" d="M837.08,203.69c0,2.9-1.66,5.25-3.7,5.25s-3.7-2.35-3.7-5.25,1.66-5.25,3.7-5.25,3.7,2.35,3.7,5.25"/><path class="cls-13" d="M856.5,203.69c0,2.9-1.66,5.25-3.7,5.25s-3.7-2.35-3.7-5.25,1.66-5.25,3.7-5.25,3.7,2.35,3.7,5.25"/><path class="cls-13" d="M846.79,203.69c0,2.9-1.66,5.25-3.7,5.25s-3.7-2.35-3.7-5.25,1.66-5.25,3.7-5.25,3.7,2.35,3.7,5.25"/></g></g></g><rect class="cls-22" x="527.5" y="264.5" width="166" height="189" rx="12" ry="12"/><g id="Service"><g class="cls-29"><g class="cls-28"><path class="cls-38" d="M817,399.1h-90v20.97s.08.02.23.06c-.15.3-.23.6-.23.9,0,4.95,20.15,8.96,45,8.96s45-4.01,45-8.96c0-.31-.08-.61-.23-.91.08-.02.15-.03.23-.05v-20.97Z"/><path class="cls-70" d="M817,399.1c0,4.95-20.15,8.96-45,8.96s-45-4.01-45-8.96,20.15-8.96,45-8.96,45,4.01,45,8.96"/><path class="cls-38" d="M817,364.03h-90v20.97s.08.02.23.06c-.15.3-.23.6-.23.9,0,4.95,20.15,8.96,45,8.96s45-4.01,45-8.96c0-.31-.08-.61-.23-.91.08-.02.15-.03.23-.05v-20.97Z"/><path class="cls-70" d="M817,364.03c0,4.95-20.15,8.96-45,8.96s-45-4.01-45-8.96,20.15-8.96,45-8.96,45,4.01,45,8.96"/><path class="cls-38" d="M817,328.96h-90v20.97s.08.02.23.06c-.15.3-.23.6-.23.9,0,4.95,20.15,8.96,45,8.96s45-4.01,45-8.96c0-.31-.08-.61-.23-.91.08-.02.15-.03.23-.05v-20.97Z"/><path class="cls-70" d="M817,328.96c0,4.95-20.15,8.96-45,8.96s-45-4.01-45-8.96,20.15-8.96,45-8.96,45,4.01,45,8.96"/></g></g></g><polyline class="cls-12" points="933.96 324.29 940 322 940 422.57 933.96 426"/><polyline class="cls-12" points="937.87 324.36 939.76 322 856.83 322 854 324.36"/><rect class="cls-40" x="854" y="324.36" width="79.96" height="101.64"/><rect class="cls-18" x="884" y="325" width="4.96" height="100"/><rect class="cls-13" x="895" y="325" width="4.96" height="100"/><line class="cls-5" x1="781.14" y1="309.93" x2="857" y2="218"/><polygon class="cls-71" points="790.68 314.03 772 321 775.3 301.33 790.68 314.03"/><line class="cls-5" x1="848.82" y1="228.03" x2="774" y2="318"/><polygon class="cls-71" points="839.29 223.9 858 217 854.62 236.66 839.29 223.9"/><line class="cls-5" x1="896" y1="231.85" x2="896" y2="317"/><polygon class="cls-71" points="886.03 234.77 896 217.5 905.97 234.77 886.03 234.77"/><ellipse class="cls-21" cx="229.5" cy="434.69" rx="17.38" ry="17.96"/><ellipse class="cls-21" cx="238.5" cy="249.69" rx="17.38" ry="17.96"/><ellipse class="cls-21" cx="922.5" cy="225.69" rx="17.38" ry="17.96" transform="translate(-3.8 16.16) rotate(-1)"/><path class="cls-2" d="M540.89,180.84c-1.65,0-3.27.16-4.84.48-6.36-8.13-16-13.32-26.8-13.32-12.58,0-23.6,7.05-29.68,17.59-1.62-.33-3.3-.5-5.01-.5-14.67,0-26.57,12.52-26.57,27.95s10.76,26.72,24.44,27.86l68.3.09h.15c14.97,0,27.11-13.47,27.11-30.08s-12.14-30.08-27.11-30.08Z"/><ellipse class="cls-21" cx="372.5" cy="142.69" rx="17.38" ry="17.96" transform="translate(-2.44 6.53) rotate(-1)"/><line class="cls-5" x1="230.35" y1="195" x2="380" y2="195"/><polygon class="cls-71" points="233.27 204.97 216 195 233.27 185.03 233.27 204.97"/><rect class="cls-72" x="671.76" y="164.65" width="111" height="51"/><rect class="cls-23" x="734.76" y="169.65" width="11" height="1" transform="translate(570.11 910.4) rotate(-90)"/><rect class="cls-23" x="671.76" y="202.65" width="111" height="1"/><rect class="cls-23" x="671.76" y="189.65" width="111" height="1"/><rect class="cls-23" x="671.76" y="176.65" width="111" height="1"/><rect class="cls-23" x="684.59" y="170.15" width="12" height="1" transform="translate(519.94 861.24) rotate(-90)"/><rect class="cls-23" x="755.59" y="170.15" width="12" height="1" transform="translate(590.94 932.24) rotate(-90)"/><rect class="cls-23" x="765.76" y="182.98" width="12.33" height="1" transform="translate(588.44 955.4) rotate(-90)"/><rect class="cls-23" x="765.92" y="209.15" width="12" height="1" transform="translate(562.28 981.57) rotate(-90)"/><rect class="cls-23" x="755.59" y="196.15" width="12" height="1" transform="translate(564.94 958.24) rotate(-90)"/><rect class="cls-23" x="684.59" y="196.15" width="12" height="1" transform="translate(493.94 887.24) rotate(-90)"/><rect class="cls-23" x="676.26" y="183.15" width="12" height="1" transform="translate(498.61 865.9) rotate(-90)"/><rect class="cls-23" x="676.26" y="209.15" width="12" height="1" transform="translate(472.61 891.9) rotate(-90)"/><rect class="cls-23" x="698.26" y="209.15" width="12" height="1" transform="translate(494.61 913.9) rotate(-90)"/><rect class="cls-23" x="720.92" y="209.15" width="12" height="1" transform="translate(517.28 936.57) rotate(-90)"/><rect class="cls-23" x="744.59" y="209.15" width="12" height="1" transform="translate(540.94 960.24) rotate(-90)"/><path class="cls-11" d="M753.28,195.89c-4.61,11.01-14.68,18.24-25.54,18.49-12.98.3-22.99-9.49-26.42-18.49-9.17-24.13,24.69-53.93,28.18-51.95,1.42.8-2.74,6.54-.88,16.29,1.78,9.38,7.84,15.75,8.37,16.29,4.01,4.12,6.24,3.94,10.13,8.37,3.48,3.96,5.23,8.14,6.16,11.01Z"/><path class="cls-10" d="M715.76,200.31c3.24,7.99,10.2,13.38,17.83,13.83,9.8.58,17.42-7.21,20-14,6.94-18.27-18.69-40.83-21.33-39.33-1.07.61,2.07,4.95.67,12.33-1.35,7.1-5.94,11.93-6.33,12.33-3.15,3.24-5.21,3.04-7.67,6.33-2.2,2.96-2.91,6.19-3.17,8.5Z"/><path class="cls-18" d="M740.42,199.31c.66,5.1-1.08,9.98-4.72,12.62-5.14,3.73-12.25,1.66-16-1.4-9.97-8.13-2.78-29.42-.78-29.44.81,0,.45,3.5,3.68,7.25,3.11,3.6,7.31,4.84,7.67,4.94,3.04.86,4.33-.1,6.45,1.09,2.13,1.19,3.17,3.37,3.71,4.94Z"/><ellipse class="cls-21" cx="675.5" cy="156.69" rx="17.38" ry="17.96" transform="translate(-2.64 11.83) rotate(-1)"/></g><g id="Text"><text class="cls-35" transform="translate(916.56 232.49) rotate(-1) scale(.93 1)"><tspan x="0" y="0">5</tspan></text><text class="cls-26" transform="translate(852.29 182.27)"><tspan class="cls-45" x="0" y="0">R</tspan><tspan x="14.28" y="0">ou</tspan><tspan class="cls-57" x="39.6" y="0">t</tspan><tspan x="47.74" y="0">er</tspan></text><text class="cls-14" transform="translate(411.51 160.33)"><tspan x="0" y="0">Enc</tspan><tspan class="cls-76" x="32.68" y="0">r</tspan><tspan x="40.49" y="0">y</tspan><tspan class="cls-51" x="50.63" y="0">p</tspan><tspan class="cls-60" x="62.07" y="0">t</tspan><tspan x="69.27" y="0">ed VPN tunnel</tspan></text><text class="cls-34" transform="translate(471.93 215.42)"><tspan x="0" y="0">In</tspan><tspan class="cls-56" x="19.36" y="0">t</tspan><tspan x="26.3" y="0">ernet</tspan></text><text class="cls-25" transform="translate(111.05 28.79) scale(.99 1)"><tspan x="0" y="0">IBM Cloud</tspan></text><text class="cls-37" transform="translate(123.65 68.93)"><tspan x="0" y="0">Clu</tspan><tspan class="cls-69" x="33.6" y="0">s</tspan><tspan class="cls-58" x="44.64" y="0">t</tspan><tspan x="52.62" y="0">er</tspan></text><text class="cls-24" transform="translate(105.91 106.42)"><tspan class="cls-46" x="0" y="0">W</tspan><tspan x="17.52" y="0">or</tspan><tspan class="cls-47" x="36.06" y="0">k</tspan><tspan x="46.26" y="0">er Node</tspan></text><text class="cls-34" transform="translate(92.41 140.5)"><tspan x="0" y="0">IPSec VPN </tspan><tspan class="cls-43" x="100.66" y="0">P</tspan><tspan x="112.38" y="0">od</tspan></text><text class="cls-34" transform="translate(106.97 204.8)"><tspan class="cls-67" x="0" y="0">s</tspan><tspan x="9.6" y="0">t</tspan><tspan class="cls-52" x="16.62" y="0">r</tspan><tspan x="23.86" y="0">ongS</tspan><tspan class="cls-61" x="68.6" y="0">w</tspan><tspan x="83.78" y="0">an </tspan><tspan x="33.69" y="24">VPN</tspan></text><text class="cls-24" transform="translate(109.91 311.42)"><tspan class="cls-46" x="0" y="0">W</tspan><tspan x="17.52" y="0">or</tspan><tspan class="cls-47" x="36.06" y="0">k</tspan><tspan x="46.26" y="0">er Node</tspan></text><text class="cls-34" transform="translate(147.26 344.5)"><tspan class="cls-43" x="0" y="0">P</tspan><tspan x="11.72" y="0">od</tspan></text><text class="cls-34" transform="translate(122.84 377.71)"><tspan x="0" y="0">Container</tspan></text><text class="cls-24" transform="translate(134.08 411.8)"><tspan class="cls-68" x="0" y="0">m</tspan><tspan class="cls-48" x="17.3" y="0">y</tspan><tspan x="27" y="0">app</tspan></text><text class="cls-34" transform="translate(114.84 173.71)"><tspan x="0" y="0">Container</tspan></text><text class="cls-15" transform="translate(371.33 286.83)"><tspan class="cls-6"><tspan class="cls-44" x="0" y="0">L</tspan><tspan x="8.44" y="0">o</tspan><tspan class="cls-63" x="18.34" y="0">c</tspan><tspan x="27" y="0">al subnets </tspan></tspan><tspan class="cls-6"><tspan x="-11.59" y="19">sha</tspan><tspan class="cls-53" x="17.55" y="19">r</tspan><tspan class="cls-39" x="24.01" y="19">ed </tspan><tspan class="cls-42" x="47.95" y="19">o</tspan><tspan class="cls-66" x="57.4" y="19">v</tspan><tspan class="cls-31" x="65.99" y="19">er VPN:</tspan></tspan><tspan class="cls-33"><tspan x="52.37" y="38" xml:space="preserve">  </tspan></tspan><tspan class="cls-33"><tspan class="cls-62" x="-9.8" y="57">K</tspan><tspan class="cls-39" x="1.43" y="57">uberne</tspan><tspan class="cls-59" x="58.69" y="57">t</tspan><tspan x="64.93" y="57">es pod </tspan></tspan><tspan class="cls-33"><tspan x="-2.77" y="76">172.30.0.0/16</tspan></tspan><tspan class="cls-33"><tspan x="52.37" y="95" xml:space="preserve">  </tspan></tspan><tspan class="cls-33"><tspan class="cls-62" x="7.8" y="114">K</tspan><tspan class="cls-39" x="19.03" y="114">uberne</tspan><tspan class="cls-59" x="76.29" y="114">t</tspan><tspan x="82.54" y="114">es </tspan></tspan><tspan class="cls-33"><tspan x="27.81" y="133">se</tspan><tspan class="cls-74" x="46.46" y="133">r</tspan><tspan class="cls-39" x="53.24" y="133">vi</tspan><tspan class="cls-50" x="66.6" y="133">c</tspan><tspan x="75.54" y="133">e</tspan></tspan><tspan class="cls-33"><tspan x="-2.77" y="152">172.21.0.0/16</tspan></tspan></text><text class="cls-37" transform="translate(765.43 29.79) scale(.99 1)"><tspan x="0" y="0">On-p</tspan><tspan class="cls-54" x="51.86" y="0">r</tspan><tspan x="60.19" y="0">emises </tspan><tspan x="24.46" y="27.6">net</tspan><tspan class="cls-54" x="58.22" y="27.6">w</tspan><tspan x="75.77" y="27.6">ork</tspan></text><text transform="translate(545.45 286.83)"><tspan class="cls-7"><tspan class="cls-49" x="0" y="0">R</tspan><tspan class="cls-39" x="10.71" y="0">em</tspan><tspan class="cls-53" x="35.17" y="0">ot</tspan><tspan class="cls-39" x="50.65" y="0">e subnets </tspan></tspan><tspan class="cls-7"><tspan x="-2.79" y="19">sha</tspan><tspan class="cls-53" x="26.35" y="19">r</tspan><tspan class="cls-39" x="32.81" y="19">ed </tspan><tspan class="cls-42" x="56.75" y="19">o</tspan><tspan class="cls-66" x="66.2" y="19">v</tspan><tspan class="cls-31" x="74.79" y="19">er VPN:</tspan></tspan><tspan class="cls-16"><tspan x="32.75" y="57">Se</tspan><tspan class="cls-74" x="53.09" y="57">r</tspan><tspan class="cls-64" x="59.88" y="57">v</tspan><tspan x="68.59" y="57">ers </tspan></tspan><tspan class="cls-16"><tspan x=".25" y="76">192.xx.xx.xx/24</tspan></tspan><tspan class="cls-16"><tspan x="61.17" y="95" xml:space="preserve">  </tspan></tspan><tspan class="cls-36"><tspan x="24.56" y="114">Mainf</tspan><tspan class="cls-55" x="66.86" y="114">r</tspan><tspan x="73.03" y="114">ame</tspan></tspan><tspan class="cls-33"><tspan class="cls-15" x="-1.54" y="133">192.</tspan><tspan class="cls-30" x="35.75" y="133">xx.xx.xx</tspan><tspan class="cls-15" x="103.89" y="133">/24</tspan></tspan></text><text class="cls-34" transform="translate(735.58 448.71)"><tspan x="0" y="0">Se</tspan><tspan class="cls-75" x="22.6" y="0">r</tspan><tspan class="cls-65" x="30.14" y="0">v</tspan><tspan x="39.82" y="0">ers</tspan></text><text class="cls-34" transform="translate(846.45 448.71)"><tspan x="0" y="0">Mainf</tspan><tspan class="cls-56" x="49.76" y="0">r</tspan><tspan x="57.02" y="0">ame</tspan></text><text class="cls-35" transform="translate(223.43 442.35) scale(.93 1)"><tspan x="0" y="0">1</tspan></text><text class="cls-35" transform="translate(232.43 257.35) scale(.93 1)"><tspan x="0" y="0">2</tspan></text><text class="cls-35" transform="translate(669.56 163.49) rotate(-1) scale(.93 1)"><tspan x="0" y="0">4</tspan></text><text class="cls-35" transform="translate(366.56 150.49) rotate(-1) scale(.93 1)"><tspan x="0" y="0">3</tspan></text></g></svg>