<svg xmlns="http://www.w3.org/2000/svg" xmlns:xlink="http://www.w3.org/1999/xlink" viewBox="0 0 309 64"><defs><style>.cls-1{fill:#3d70b2;}.cls-2{fill:#fff;}.cls-3{fill:url(#linear-gradient);}.cls-4{fill:url(#linear-gradient-2);}.cls-5{fill:url(#linear-gradient-3);}</style><linearGradient id="linear-gradient" x1="3993.957" y1="-9565.845" x2="4014.334" y2="-9562.252" gradientTransform="translate(9638.952 -3899.416) rotate(-135)" gradientUnits="userSpaceOnUse"><stop offset="0.2" stop-color="#fff" stop-opacity="0"/><stop offset="0.287" stop-color="#fff" stop-opacity="0.03"/><stop offset="0.501" stop-color="#fff" stop-opacity="0.2"/><stop offset="0.793" stop-color="#fff" stop-opacity="0.742"/><stop offset="1" stop-color="#fff"/></linearGradient><linearGradient id="linear-gradient-2" x1="27.679" y1="610.033" x2="39.623" y2="603.137" gradientTransform="translate(-5.791 -567.865)" gradientUnits="userSpaceOnUse"><stop offset="0.08" stop-color="#fff"/><stop offset="0.753" stop-color="#fff" stop-opacity="0.07"/><stop offset="0.875" stop-color="#fff" stop-opacity="0"/></linearGradient><linearGradient id="linear-gradient-3" x1="54.981" y1="611.334" x2="73.15" y2="596.089" gradientTransform="translate(-5.791 -567.865)" gradientUnits="userSpaceOnUse"><stop offset="0.138" stop-color="#fff" stop-opacity="0"/><stop offset="0.32" stop-color="#fff" stop-opacity="0.07"/><stop offset="0.847" stop-color="#fff" stop-opacity="0.764"/><stop offset="0.947" stop-color="#fff"/></linearGradient></defs><title>Deploy-to-Cloud-btn</title><g id="Layer_2" data-name="Layer 2"><rect class="cls-1" width="309" height="64"/></g><g id="Layer_1" data-name="Layer 1"><path class="cls-2" d="M29.954,28.045a.981.981,0,0,1-.49-.132l-4.688-2.707a.982.982,0,0,1,.981-1.7h0l4.688,2.707a.982.982,0,0,1-.492,1.833Z"/><path class="cls-2" d="M37.974,20.027a.981.981,0,0,1-.852-.491l-2.707-4.689a.982.982,0,0,1,1.7-.982l2.707,4.689a.982.982,0,0,1-.849,1.473Z"/><path class="cls-2" d="M48.924,17.093a.983.983,0,0,1-.982-.983h0V10.7a.983.983,0,0,1,1.965,0V16.11a.983.983,0,0,1-.983.983Z"/><path class="cls-2" d="M59.875,20.027a.981.981,0,0,1-.849-1.473l2.707-4.689a.982.982,0,0,1,1.7.982l-2.707,4.689A.981.981,0,0,1,59.875,20.027Z"/><path class="cls-2" d="M67.894,28.045a.982.982,0,0,1-.492-1.833l4.689-2.707a.982.982,0,0,1,.983,1.7h0l-4.688,2.707A.982.982,0,0,1,67.894,28.045Z"/><path class="cls-3" d="M36.456,50.482A17.633,17.633,0,0,1,61.392,25.545a18.1,18.1,0,0,1,1.4,1.579c.3.385.591.784.857,1.187l-1.64,1.082c-.236-.357-.492-.712-.761-1.054A15.971,15.971,0,0,0,60,26.935,15.668,15.668,0,0,0,37.846,49.093Z"/><path class="cls-2" d="M61.494,55.647H34.357A11.389,11.389,0,0,1,23.046,44.18v-.007l1.965.015a9.424,9.424,0,0,0,9.353,9.494H61.486a11.505,11.505,0,0,0,8.581-19.176l1.464-1.31A13.47,13.47,0,0,1,61.494,55.647Z"/><path class="cls-4" d="M25.011,44.188l-1.965-.015a11.376,11.376,0,0,1,9.49-11.146l.328,1.937A9.414,9.414,0,0,0,25.011,44.188Z"/><path class="cls-5" d="M49.986,42.091l-1.964-.015A13.47,13.47,0,0,1,71.531,33.2l-1.464,1.31a11.506,11.506,0,0,0-20.081,7.585Z"/><path class="cls-2" d="M89.328,26.436h5.333c3.821,0,6.32,2.456,6.32,7.327s-2.5,7.328-6.32,7.328H89.328Zm5.333,12.2c2.058,0,3.38-1.217,3.38-3.716V32.609c0-2.5-1.322-3.717-3.38-3.717H92.1v9.742Z"/><path class="cls-2" d="M102.894,35.59c0-3.464,1.869-5.711,5.081-5.711,3.422,0,5,2.519,5,5.522v.882h-7.286v.273a2.435,2.435,0,0,0,2.667,2.646,3.325,3.325,0,0,0,2.792-1.492l1.449,1.618a5.426,5.426,0,0,1-4.535,2.015C104.826,41.343,102.894,39.1,102.894,35.59Zm2.792-1.133v.168h4.494v-.19c0-1.512-.777-2.54-2.163-2.54A2.327,2.327,0,0,0,105.686,34.457Z"/><path class="cls-2" d="M115.347,30.131h2.688v1.806h.084a3.035,3.035,0,0,1,3.023-2.058c2.772,0,4.3,2.058,4.3,5.711,0,3.674-1.532,5.753-4.3,5.753a3.1,3.1,0,0,1-3.023-2.079h-.084v6.027h-2.688Zm7.286,6.425V34.667a2.35,2.35,0,0,0-2.352-2.583c-1.281,0-2.246.693-2.246,1.763v3.486c0,1.133.965,1.785,2.246,1.785A2.332,2.332,0,0,0,122.633,36.556Z"/><path class="cls-2" d="M130.634,41.091a2.376,2.376,0,0,1-2.687-2.645V25.554h2.687v13.4h1.449v2.141Z"/><path class="cls-2" d="M133.386,35.59c0-3.506,1.952-5.711,5.081-5.711,3.149,0,5.1,2.205,5.1,5.711,0,3.528-1.953,5.753-5.1,5.753C135.338,41.343,133.386,39.118,133.386,35.59Zm7.369,1.029V34.583c0-1.638-.882-2.541-2.288-2.541-1.386,0-2.268.9-2.268,2.541v2.036c0,1.659.882,2.561,2.268,2.561C139.873,39.18,140.755,38.278,140.755,36.619Z"/><path class="cls-2" d="M152.474,30.131h2.519l-4.409,12.913a2.832,2.832,0,0,1-3.128,2.247h-1.617V43.149h1.973l.5-1.532L144.39,30.131h2.667l1.911,5.8.713,2.772h.127l.755-2.772Z"/><path class="cls-2" d="M165.136,41.091A2.536,2.536,0,0,1,162.3,38.3V32.251h-1.617v-2.12h.839c.8,0,1.051-.378,1.051-1.134V27.128h2.414v3h2.246v2.12h-2.246v6.7h2.078v2.141Z"/><path class="cls-2" d="M168.749,35.59c0-3.506,1.953-5.711,5.082-5.711,3.148,0,5.1,2.205,5.1,5.711,0,3.528-1.954,5.753-5.1,5.753C170.7,41.343,168.749,39.118,168.749,35.59Zm7.37,1.029V34.583c0-1.638-.882-2.541-2.288-2.541-1.387,0-2.268.9-2.268,2.541v2.036c0,1.659.881,2.561,2.268,2.561C175.237,39.18,176.119,38.278,176.119,36.619Z"/><path class="cls-2" d="M185.821,41.091V38.866h1.932v-10.2h-1.932V26.436h6.656v2.225h-1.953v10.2h1.953v2.225Z"/><path class="cls-2" d="M195.313,26.436H202.1a3.562,3.562,0,0,1,3.884,3.758c0,2.225-1.281,3.065-2.625,3.149v.126a3.214,3.214,0,0,1,3.171,3.423,3.937,3.937,0,0,1-3.779,4.2h-7.433Zm2.772,6.109h3.422a1.445,1.445,0,0,0,1.595-1.553v-.651a1.436,1.436,0,0,0-1.595-1.554h-3.422Zm0,6.2h3.863a1.494,1.494,0,0,0,1.68-1.6V36.43a1.509,1.509,0,0,0-1.68-1.617h-3.863Z"/><path class="cls-2" d="M220.322,30.677h-.084L219.126,32.9l-3.045,5.543-3-5.523-1.155-2.351h-.064V41.091h-2.624V26.436H212.3L216.06,33.6h.063l3.737-7.159h3.086V41.091h-2.624Z"/><path class="cls-2" d="M230.719,33.869c0-4.935,2.456-7.685,6.319-7.685a5.344,5.344,0,0,1,5.355,3.38l-2.373,1.26a2.9,2.9,0,0,0-2.982-2.184c-2.057,0-3.38,1.491-3.38,3.989v2.31c0,2.52,1.323,3.947,3.38,3.947a3.258,3.258,0,0,0,3.171-2.33l2.247,1.322a5.632,5.632,0,0,1-5.418,3.465C233.175,41.343,230.719,38.8,230.719,33.869Z"/><path class="cls-2" d="M247.351,41.091a2.376,2.376,0,0,1-2.688-2.645V25.554h2.688v13.4H248.8v2.141Z"/><path class="cls-2" d="M250.1,35.59c0-3.506,1.953-5.711,5.081-5.711,3.15,0,5.1,2.205,5.1,5.711,0,3.528-1.952,5.753-5.1,5.753C252.055,41.343,250.1,39.118,250.1,35.59Zm7.37,1.029V34.583c0-1.638-.882-2.541-2.289-2.541-1.385,0-2.268.9-2.268,2.541v2.036c0,1.659.883,2.561,2.268,2.561C256.59,39.18,257.472,38.278,257.472,36.619Z"/><path class="cls-2" d="M269.21,39.264H269.1a2.972,2.972,0,0,1-3.064,2.079c-2.247,0-3.507-1.553-3.507-4.283V30.131h2.688v6.656c0,1.511.567,2.331,1.847,2.331,1.072,0,2.142-.568,2.142-1.743V30.131H271.9v10.96H269.21Z"/><path class="cls-2" d="M281.81,39.264h-.1a3.078,3.078,0,0,1-3.023,2.079c-2.751,0-4.284-2.079-4.284-5.753,0-3.653,1.533-5.711,4.284-5.711a3.018,3.018,0,0,1,3.023,2.058h.1V25.554H284.5V41.091H281.81Zm0-1.931V33.847c0-1.07-.987-1.763-2.267-1.763a2.334,2.334,0,0,0-2.331,2.583v1.889a2.317,2.317,0,0,0,2.331,2.562C280.823,39.118,281.81,38.466,281.81,37.333Z"/></g></svg>