<?xml version="1.0" encoding="utf-8"?>
<!-- Generator: Adobe Illustrator 22.0.0, SVG Export Plug-In . SVG Version: 6.00 Build 0)  -->
<svg version="1.1" id="Layer_1" xmlns="http://www.w3.org/2000/svg" xmlns:xlink="http://www.w3.org/1999/xlink" x="0px" y="0px"
	 viewBox="0 0 31.3 31" style="enable-background:new 0 0 31.3 31;" xml:space="preserve">
<style type="text/css">
	.st0{fill:none;stroke:#000000;stroke-width:0.72;stroke-linejoin:round;stroke-miterlimit:10;}
</style>
<g id="design_and_development_02">
	<g id="design_and_development_02_1_">
		<path d="M28.7,2c0,0.3-0.2,0.5-0.5,0.5S27.7,2.3,27.7,2s0.2-0.5,0.5-0.5S28.7,1.7,28.7,2z M26.2,1.5c-0.3,0-0.5,0.2-0.5,0.5
			s0.2,0.5,0.5,0.5s0.5-0.2,0.5-0.5S26.4,1.5,26.2,1.5z M24.2,1.5c-0.3,0-0.5,0.2-0.5,0.5s0.2,0.5,0.5,0.5s0.5-0.2,0.5-0.5
			S24.4,1.5,24.2,1.5z"/>
		<path class="st0" d="M3.7,7.5h10 M3.7,10.5h10 M3.7,13.5h6"/>
		<path class="st0" d="M30.7,21.5h-30v-21h30V21.5z M0.7,24.5h30 M0.7,3.5h30 M0.7,27.5h30 M0.7,30.5h30 M23.7,6.5c-2.2,0-4,1.8-4,4
			s1.8,4,4,4s4-1.8,4-4S25.9,6.5,23.7,6.5z M23.7,10.5l3.5-2 M23.7,10.5l-3.5-2 M23.7,10.5l-2,3.5"/>
	</g>
</g>
<g id="Layer_1_1_">
</g>
</svg>
