<?xml version="1.0" encoding="utf-8"?>
<!-- Generator: Adobe Illustrator 22.0.0, SVG Export Plug-In . SVG Version: 6.00 Build 0)  -->
<svg version="1.1" id="Layer_1" xmlns="http://www.w3.org/2000/svg" xmlns:xlink="http://www.w3.org/1999/xlink" x="0px" y="0px"
	 viewBox="0 0 31.4 31" style="enable-background:new 0 0 31.4 31;" xml:space="preserve">
<style type="text/css">
	.st0{fill:none;stroke:#000000;stroke-width:0.72;stroke-linejoin:round;stroke-miterlimit:10;}
</style>
<g id="global_network">
	<path id="global_network_2_" class="st0" d="M15.5,22.6c-3.9,0-7-3.1-7-7s3.1-7,7-7s7,3.1,7,7S19.4,22.6,15.5,22.6z M13.3,22.2
		l3.6-3.4c0.2-0.2,0.2-0.5,0.1-0.7l-2.7-4.7c-0.1-0.2-0.1-0.5,0.1-0.7l1.9-1.7c0.2-0.2,0.2-0.5,0.1-0.7l-1-1.8 M12,21.6l1.2-2.1
		c0.1-0.2,0.1-0.4,0-0.6l-0.7-1.2c-0.1-0.2-0.1-0.5,0.1-0.7l1-1c0.2-0.2,0.2-0.5,0.1-0.7L13,14.1c-0.1-0.2-0.3-0.3-0.5-0.3h-1.8
		c-0.2,0-0.4-0.1-0.5-0.3l-0.8-1.4 M20.9,11.2l-1.4,2.5c-0.1,0.2-0.1,0.4,0,0.6l1.1,1.9c0.1,0.2,0.3,0.3,0.5,0.3h1.3 M19.9,27.3
		c3.3-1.3,6-3.9,7.3-7.3 M3.8,20c1.3,3.3,3.9,6,7.3,7.3 M27.2,11.2c-1.3-3.3-3.9-6-7.3-7.3 M11.1,3.9c-3.3,1.3-6,3.9-7.3,7.3
		 M15.5,25.6c-1.4,0-2.5,1.1-2.5,2.5s1.1,2.5,2.5,2.5s2.5-1.1,2.5-2.5S16.9,25.6,15.5,25.6z M15.5,0.6c-1.4,0-2.5,1.1-2.5,2.5
		s1.1,2.5,2.5,2.5S18,4.5,18,3.1S16.9,0.6,15.5,0.6z M3,13.1c-1.4,0-2.5,1.1-2.5,2.5s1.1,2.5,2.5,2.5s2.5-1.1,2.5-2.5
		S4.4,13.1,3,13.1z M28,13.1c-1.4,0-2.5,1.1-2.5,2.5s1.1,2.5,2.5,2.5s2.5-1.1,2.5-2.5S29.4,13.1,28,13.1z"/>
</g>
<g id="Layer_1_1_">
</g>
</svg>
