<?xml version="1.0" encoding="utf-8"?>
<!-- Generator: Adobe Illustrator 19.0.0, SVG Export Plug-In . SVG Version: 6.00 Build 0)  -->
<svg version="1.1" id="Layer_1" xmlns="http://www.w3.org/2000/svg" xmlns:xlink="http://www.w3.org/1999/xlink" x="0px" y="0px"
	 viewBox="0 0 73 72" style="enable-background:new 0 0 73 72;" xml:space="preserve">
<style type="text/css">
	.st0{fill:#505050;}
</style>
<g>
	<path class="st0" d="M60.2,20.2l-24-12.1c-0.3-0.1-0.6-0.1-0.9,0l-24,12.1c-0.3,0.2-0.5,0.5-0.5,0.9V24c0,0.6,0.4,1,1,1h48
		c0.6,0,1-0.4,1-1v-2.9C60.7,20.7,60.5,20.4,60.2,20.2z M58.7,23h-46v-1.3l23-11.6l23,11.6V23z"/>
	<path class="st0" d="M55.9,51.3V30.5c0.8-0.4,1.4-1.2,1.4-2.2c0-1.3-1.1-2.4-2.4-2.4h-9.6c-1.3,0-2.4,1.1-2.4,2.4
		c0,1,0.6,1.8,1.4,2.2v20.7H27.1V30.6c0.8-0.4,1.4-1.2,1.4-2.2c0-1.3-1.1-2.4-2.4-2.4h-9.6c-1.3,0-2.4,1.1-2.4,2.4
		c0,1,0.6,1.8,1.4,2.2v20.7c-2.7,0.5-4.8,2.9-4.8,5.7c0,0.6,0.4,1,1,1h48c0.6,0,1-0.4,1-1C60.7,54.1,58.7,51.8,55.9,51.3z M12.9,56
		c0.4-1.6,1.9-2.8,3.7-2.8c0.6,0,1-0.4,1-1V29.8c0-0.6-0.4-1-1-1c-0.2,0-0.4-0.2-0.4-0.4c0-0.2,0.2-0.4,0.4-0.4h9.6
		c0.2,0,0.4,0.2,0.4,0.4c0,0.2-0.2,0.4-0.4,0.4c-0.6,0-1,0.4-1,1v21.4h-3.9c-0.6,0-1,0.4-1,1c0,0.6,0.4,1,1,1h29c0.6,0,1-0.4,1-1
		c0-0.6-0.4-1-1-1h-3.9V29.8c0-0.6-0.4-1-1-1c-0.2,0-0.4-0.2-0.4-0.4c0-0.2,0.2-0.4,0.4-0.4h9.6c0.2,0,0.4,0.2,0.4,0.4
		c0,0.2-0.2,0.4-0.4,0.4c-0.3,0-0.5,0.1-0.7,0.3c-0.2,0.2-0.3,0.4-0.3,0.7l0,22.4c0,0.6,0.4,1,1,1c1.7,0,3.2,1.2,3.7,2.8H12.9z"/>
	<path class="st0" d="M35.7,32.4c1.7,0,3.1-1.4,3.1-3.1c0-1.7-1.4-3.1-3.1-3.1c-1.7,0-3.2,1.4-3.2,3.1C32.6,31,34,32.4,35.7,32.4z
		 M35.7,27.6c0.9,0,1.6,0.7,1.6,1.6s-0.7,1.6-1.6,1.6c-0.9,0-1.7-0.7-1.7-1.6S34.8,27.6,35.7,27.6z"/>
	<path class="st0" d="M29.7,35.5v4.4c0,1.3,0.9,2.5,2.1,2.8v4.7c0,1.3,1.1,2.4,2.4,2.4c0.6,0,1.2-0.2,1.6-0.6c0.4,0.4,1,0.6,1.6,0.6
		c1.3,0,2.4-1.1,2.4-2.4v-4.7c1.2-0.3,2.1-1.5,2.1-2.8v-4.4c0-0.7-0.4-1.4-1.1-1.7l-2.5-1c-0.3-0.1-0.6,0-0.8,0.2l-1.6,1.7L34.2,33
		c-0.2-0.2-0.5-0.3-0.8-0.2l-2.5,1C30.1,34.1,29.7,34.8,29.7,35.5z M31.2,35.5c0-0.1,0.1-0.2,0.2-0.3l2-0.8l1.8,1.9
		c0.1,0.2,0.3,0.2,0.6,0.2c0.2,0,0.4-0.1,0.6-0.2l1.8-1.9l2.1,0.8c0.1,0,0.2,0.2,0.2,0.3v4.4c0,0.8-0.6,1.4-1.4,1.4
		c-0.4,0-0.8,0.3-0.8,0.8v5.3c0,0.5-0.4,0.9-0.9,0.9c-0.5,0-0.9-0.4-0.9-0.9c0-0.4-0.3-0.8-0.8-0.8S35,46.9,35,47.4
		c0,0.5-0.4,0.9-0.9,0.9c-0.5,0-0.9-0.4-0.9-0.9V42c0-0.4-0.3-0.8-0.8-0.8c-0.8,0-1.4-0.6-1.4-1.4V35.5z"/>
</g>
</svg>
