<svg xmlns="http://www.w3.org/2000/svg" width="419.31" height="450.58" viewBox="0 0 419.31 450.58"><rect x="0.47" y="120.96" width="418.37" height="329.15" rx="11.25" style="fill:#2d3f49;stroke:#2d3f49;stroke-miterlimit:10;stroke-width:0.9376980129077676px"/><rect x="13.29" y="135.49" width="393.03" height="292.47" rx="11.09" style="fill:#fff"/><rect x="27.25" y="179.67" width="364.95" height="223.48" rx="10.76" style="fill:#fff;stroke:#00b39f;stroke-miterlimit:10;stroke-width:1.7935739839183944px;stroke-dasharray:7.174295902252197"/><rect x="221.39" y="336.87" width="153.43" height="41.95" rx="10.37" transform="translate(-291.98 609.73) rotate(-90)" style="fill:#fff;stroke:#4278bd;stroke-miterlimit:10;stroke-width:0.8639474743708713px"/><rect x="112.04" y="236.19" width="266.81" height="152.15" rx="10.36" style="fill:#fff;stroke:#4278bd;stroke-miterlimit:10;stroke-width:0.8630261637844315px"/><line x1="93.93" y1="315.7" x2="104.93" y2="315.7" style="fill:none;stroke:#5e5f60;stroke-miterlimit:10"/><polygon points="95.93 320.8 87.29 315.81 95.93 310.83 95.93 320.8" style="fill:#5e5f60"/><polygon points="102.93 320.8 111.56 315.81 102.93 310.83 102.93 320.8" style="fill:#5e5f60"/><path d="M405.62,103.38a9.67,9.67,0,1,1-9.66,9.67A9.61,9.61,0,0,1,405.62,103.38Zm0-2.76a12.43,12.43,0,1,0,12.43,12.43A12.37,12.37,0,0,0,405.62,100.62Z" transform="translate(-232.24 -46.22)"/><path d="M405.62,94.54a22.1,22.1,0,1,0,22.1,22.1A22.16,22.16,0,0,0,405.62,94.54ZM415.7,128.1H395.54a4.74,4.74,0,0,0-3.86,1.79,19.12,19.12,0,0,1-5.39-13.25,19.34,19.34,0,0,1,38.67,0,19.16,19.16,0,0,1-5.39,13.25A4.94,4.94,0,0,0,415.7,128.1Z" transform="translate(-232.24 -46.22)"/><path d="M294.54,379.11v.1l2.35,1.18,6.08,3.34-6.08,3.32-2.33,1.18v.1h11.75V390h-14v-2.2l7.53-4v-.08l-7.53-4v-2.2h14v1.64Z" transform="translate(-232.24 -46.22)"/><path d="M306.31,366.41a1.67,1.67,0,0,1-1.68,1.78v.1a2.91,2.91,0,0,1,1.92,3c0,2.18-1.2,3.46-3.12,3.46s-3-1.4-3-4.4v-2h-1c-1.46,0-2.26.8-2.26,2.44a2.88,2.88,0,0,0,1.54,2.62l-.9,1a3.93,3.93,0,0,1-2-3.66c0-2.48,1.31-4,3.49-4h5.68v-1.18h1.4Zm-3,1.88h-1.7v2.12c0,1.82.56,2.64,1.56,2.64h.42c1,0,1.6-.8,1.6-2C305.19,369.43,304.37,368.29,303.31,368.29Z" transform="translate(-232.24 -46.22)"/><path d="M304.53,364.21l-.92-1.14a3.75,3.75,0,0,0,1.58-3.06c0-1.36-.62-2.16-1.68-2.16-.8,0-1.42.44-1.62,1.8l-.12.82c-.28,1.9-1.06,3.32-3,3.32s-3.05-1.58-3.05-3.68a4.3,4.3,0,0,1,1.66-3.6l1,1.06a3.19,3.19,0,0,0-1.27,2.66c0,1.32.63,2,1.61,2s1.4-.7,1.6-2l.12-.8c.34-2.28,1.34-3.16,2.9-3.16,2,0,3.22,1.46,3.22,3.82A4.8,4.8,0,0,1,304.53,364.21Z" transform="translate(-232.24 -46.22)"/><path d="M306.31,351.35a1.58,1.58,0,0,1-1.7,1.7h-7.22v1.7H296v-1c0-.68-.24-.9-.94-.9h-1.92v-1.44H296v-2.26h1.41v2.26h7.52v-2.1h1.4Z" transform="translate(-232.24 -46.22)"/><path d="M301.15,347.45c-3.28,0-5.41-1.84-5.41-4.64s2.13-4.46,5.05-4.46h.76v7.42H302a2.92,2.92,0,0,0,3.12-3.06,3,3,0,0,0-1.78-2.84l.82-1.14a4.33,4.33,0,0,1,2.36,4.08C306.55,345.61,304.43,347.45,301.15,347.45Zm-.94-1.68h.14v-5.7h-.22a2.74,2.74,0,0,0-3,2.74A2.93,2.93,0,0,0,300.21,345.77Z" transform="translate(-232.24 -46.22)"/><path d="M306.31,335.71H296v-1.6h1.91V334a3,3,0,0,1-1.91-3v-.62h1.61v.94c0,1.72.74,2.76,1.72,2.76h7Z" transform="translate(-232.24 -46.22)"/><rect x="140.89" y="273.08" width="208.74" height="42.73" rx="12" style="fill:#4278bd"/><rect x="377.65" y="324.07" width="100.14" height="31.74" rx="12" transform="translate(623.2 633.65) rotate(180)" style="fill:#fff;stroke:#4278bd;stroke-miterlimit:10"/><rect x="139.94" y="332.21" width="208.74" height="42.73" rx="12" style="fill:#4278bd"/><line x1="173.38" y1="271.14" x2="173.38" y2="94.4" style="fill:none;stroke:#5e5f60;stroke-miterlimit:10"/><polygon points="178.37 269.68 173.38 278.32 168.4 269.68 178.37 269.68" style="fill:#5e5f60"/><rect x="357.25" y="241.77" width="86.39" height="24" rx="12" transform="translate(568.65 461.32) rotate(180)" style="fill:#fff"/><rect x="377.65" y="382.59" width="100.14" height="31.74" rx="12" transform="translate(623.2 750.69) rotate(180)" style="fill:#fff;stroke:#4278bd;stroke-miterlimit:10"/><text transform="translate(148.35 358.01)" style="font-size:20px;font-family:IBMPlexSans, IBM Plex Sans"><tspan style="letter-spacing:-0.014990234375em">R</tspan><tspan x="12.5" y="0">ou</tspan><tspan x="35.06" y="0" style="letter-spacing:-0.00400390625em">t</tspan><tspan x="42" y="0">er </tspan><tspan x="65.04" y="0" style="letter-spacing:-0.01298828125em">s</tspan><tspan x="74.52" y="0" style="letter-spacing:-0.0080078125em">v</tspan><tspan x="84.2" y="0">c</tspan></text><text transform="translate(187.29 165.43)" style="font-size:20px;font-family:IBMPlexSans, IBM Plex Sans"><tspan style="letter-spacing:-0.00498046875em">Z</tspan><tspan x="11.5" y="0">one</tspan></text><text transform="translate(191.18 262.99)" style="font-size:20px;font-family:IBMPlexSans, IBM Plex Sans"><tspan style="letter-spacing:-0.014990234375em">W</tspan><tspan x="17.52" y="0">or</tspan><tspan x="36.06" y="0" style="letter-spacing:-0.0170166015625em">k</tspan><tspan x="46.26" y="0">er pool</tspan></text><text transform="translate(125.36 214.75)" style="font-size:20px;font-family:IBMPlexSans, IBM Plex Sans">Single <tspan x="59.68" y="0" style="letter-spacing:-0.0099853515625em">z</tspan><tspan x="68.76" y="0">one clu</tspan><tspan x="133.88" y="0" style="letter-spacing:-0.0070068359375em">s</tspan><tspan x="143.48" y="0" style="letter-spacing:-0.0039794921875em">t</tspan><tspan x="150.42" y="0">er</tspan></text><text transform="translate(116.49 17.83)" style="font-size:21px;font-family:IBMPlexSans-Bold, IBM Plex Sans;font-weight:700">Single <tspan x="66.34" y="0" style="letter-spacing:-0.011997767857142858em">z</tspan><tspan x="76.96" y="0">one clu</tspan><tspan x="147.82" y="0" style="letter-spacing:-0.007998511904761904em">s</tspan><tspan x="158.23" y="0" style="letter-spacing:-0.003999255952380952em">t</tspan><tspan x="166.19" y="0">er</tspan></text><text transform="translate(256.7 299.82)" style="font-size:20px;fill:#fff;font-family:IBMPlexSans, IBM Plex Sans"><tspan style="letter-spacing:-0.014990234375em">W</tspan><tspan x="17.52" y="0">or</tspan><tspan x="36.06" y="0" style="letter-spacing:-0.0170166015625em">k</tspan><tspan x="46.26" y="0">er 1</tspan></text><text transform="translate(148.35 299.49)" style="font-size:20px;font-family:IBMPlexSans, IBM Plex Sans"><tspan style="letter-spacing:-0.014990234375em">R</tspan><tspan x="12.5" y="0">ou</tspan><tspan x="35.06" y="0" style="letter-spacing:-0.00400390625em">t</tspan><tspan x="42" y="0">er </tspan><tspan x="65.04" y="0" style="letter-spacing:-0.01298828125em">s</tspan><tspan x="74.52" y="0" style="letter-spacing:-0.0080078125em">v</tspan><tspan x="84.2" y="0">c</tspan></text><text transform="translate(254.74 358.95)" style="font-size:20px;fill:#fff;font-family:IBMPlexSans, IBM Plex Sans"><tspan style="letter-spacing:-0.014990234375em">W</tspan><tspan x="17.52" y="0">or</tspan><tspan x="36.06" y="0" style="letter-spacing:-0.0170166015625em">k</tspan><tspan x="46.26" y="0">er 2</tspan></text><text transform="translate(255.7 413.46)" style="font-size:20px;fill:#fff;font-family:IBMPlexSans, IBM Plex Sans"><tspan style="letter-spacing:-0.014990234375em">W</tspan><tspan x="17.52" y="0">or</tspan><tspan x="36.06" y="0" style="letter-spacing:-0.0170166015625em">k</tspan><tspan x="46.26" y="0">er 3</tspan></text></svg>