<svg xmlns="http://www.w3.org/2000/svg" width="1188" height="648" viewBox="0 0 1188 648"><rect x="156.15" y="200.34" width="897.87" height="428.74" rx="11.11" style="fill:#2d3f49;stroke:#2d3f49;stroke-miterlimit:10;stroke-width:0.9262165919516628px"/><rect x="758.89" y="214.68" width="283.73" height="394.54" rx="11.03" style="fill:#fff"/><rect x="173.54" y="214.68" width="283.75" height="394.54" rx="11.02" style="fill:#fff"/><rect x="465.89" y="214.68" width="283.73" height="390.35" rx="10.96" style="fill:#fff"/><rect x="214.59" y="279.71" width="814.81" height="304.44" rx="11.04" style="fill:#fff;stroke:#00b39f;stroke-miterlimit:10;stroke-width:1.8393361568450928px;stroke-dasharray:7.357344627380371"/><rect x="233.98" y="533.62" width="783.56" height="35.48" rx="11.04" style="fill:#fff;stroke:#4278bd;stroke-miterlimit:10;stroke-width:0.9196680784225464px"/><rect x="233.98" y="341" width="781.25" height="154.88" rx="10.45" style="fill:#fff;stroke:#4278bd;stroke-miterlimit:10;stroke-width:0.8707381640045121px"/><line x1="608.09" y1="513.69" x2="608.09" y2="524.33" style="fill:none;stroke:#5e5f60;stroke-miterlimit:10"/><polygon points="603.1 515.14 608.09 506.51 613.07 515.14 603.1 515.14" style="fill:#5e5f60"/><polygon points="603.1 522.87 608.09 531.51 613.07 522.87 603.1 522.87" style="fill:#5e5f60"/><path d="M590.12,546.45H590l-1.18,2.34-3.34,6.08-3.32-6.08L581,546.47h-.1v11.75h-1.64v-14h2.2l4,7.52h.08l4-7.52h2.2v14h-1.64Z"/><path d="M602.82,558.22a1.67,1.67,0,0,1-1.78-1.68h-.1a2.91,2.91,0,0,1-3,1.92c-2.18,0-3.46-1.2-3.46-3.13s1.4-3,4.4-3h2v-1c0-1.46-.8-2.26-2.44-2.26a2.88,2.88,0,0,0-2.62,1.54l-1-.9a3.92,3.92,0,0,1,3.66-2c2.48,0,4,1.3,4,3.48v5.69h1.18v1.4Zm-1.88-3v-1.7h-2.12c-1.82,0-2.64.57-2.64,1.57v.42c0,1,.8,1.6,2,1.6C599.8,557.1,600.94,556.28,600.94,555.21Z"/><path d="M605,556.44l1.14-.92a3.75,3.75,0,0,0,3.06,1.58c1.36,0,2.16-.62,2.16-1.69,0-.79-.44-1.41-1.8-1.62l-.82-.12c-1.9-.28-3.32-1.06-3.32-3s1.58-3,3.68-3a4.3,4.3,0,0,1,3.6,1.66l-1.06,1A3.18,3.18,0,0,0,609,549c-1.32,0-2,.62-2,1.6s.7,1.4,2,1.6l.8.12c2.28.34,3.16,1.34,3.16,2.91,0,2-1.46,3.22-3.82,3.22A4.8,4.8,0,0,1,605,556.44Z"/><path d="M617.88,558.22a1.58,1.58,0,0,1-1.7-1.7v-7.23h-1.7v-1.4h1c.68,0,.9-.24.9-.94V545h1.44v2.86H620v1.4h-2.26v7.53h2.1v1.4Z"/><path d="M621.78,553.05c0-3.28,1.84-5.4,4.64-5.4s4.46,2.12,4.46,5v.77h-7.42v.47a2.93,2.93,0,0,0,3.06,3.13,3,3,0,0,0,2.84-1.78l1.14.82a4.33,4.33,0,0,1-4.08,2.36C623.62,558.46,621.78,556.33,621.78,553.05Zm1.68-.94v.14h5.7V552a2.74,2.74,0,0,0-2.74-3A2.93,2.93,0,0,0,623.46,552.11Z"/><path d="M633.52,558.22V547.89h1.6v1.9h.1a3,3,0,0,1,3-1.9h.62v1.6h-.94c-1.72,0-2.76.74-2.76,1.72v7Z"/><rect x="248.54" y="375.48" width="208.74" height="42.73" rx="12" style="fill:#4278bd"/><rect x="369.61" y="121.77" width="444.81" height="42.73" rx="12" style="fill:#fff;stroke:#4d4e4f;stroke-miterlimit:10"/><line x1="260.58" y1="186.76" x2="832.9" y2="186.76" style="fill:none;stroke:#5e5f60;stroke-miterlimit:10"/><path d="M591.91,62.32A9.67,9.67,0,1,1,582.24,72,9.61,9.61,0,0,1,591.91,62.32Zm0-2.77A12.43,12.43,0,1,0,604.34,72,12.39,12.39,0,0,0,591.91,59.55Z"/><path d="M591.91,53.48A22.1,22.1,0,1,0,614,75.57,22.15,22.15,0,0,0,591.91,53.48ZM602,87H581.83a4.72,4.72,0,0,0-3.87,1.8,19.18,19.18,0,0,1-5.38-13.26,19.33,19.33,0,0,1,38.66,0,19.18,19.18,0,0,1-5.38,13.26A4.92,4.92,0,0,0,602,87Z"/><line x1="591.53" y1="106.34" x2="591.53" y2="116.99" style="fill:none;stroke:#5e5f60;stroke-miterlimit:10"/><polygon points="586.54 107.8 591.53 99.17 596.52 107.8 586.54 107.8" style="fill:#5e5f60"/><polygon points="586.54 115.53 591.53 124.17 596.52 115.53 586.54 115.53" style="fill:#5e5f60"/><line x1="590.53" y1="171.18" x2="590.53" y2="186.76" style="fill:none;stroke:#5e5f60;stroke-miterlimit:10"/><polygon points="585.54 172.63 590.53 164 595.52 172.63 585.54 172.63" style="fill:#5e5f60"/><rect x="443.71" y="301.15" width="329" height="24" rx="12" transform="translate(1216.42 626.3) rotate(-180)" style="fill:#fff"/><rect x="247.59" y="434.61" width="208.74" height="42.73" rx="12" style="fill:#4278bd"/><rect x="514.97" y="375.62" width="208.74" height="42.73" rx="12" style="fill:#4278bd"/><rect x="514.02" y="434.75" width="208.74" height="42.73" rx="12" style="fill:#4278bd"/><rect x="784.72" y="376.12" width="208.74" height="42.73" rx="12" style="fill:#4278bd"/><rect x="783.77" y="435.25" width="208.74" height="42.73" rx="12" style="fill:#4278bd"/><rect x="258.2" y="379.98" width="100.14" height="31.74" rx="12" transform="translate(616.54 791.69) rotate(180)" style="fill:#fff;stroke:#4278bd;stroke-miterlimit:10"/><rect x="258.2" y="438.49" width="100.14" height="31.74" rx="12" transform="translate(616.54 908.72) rotate(180)" style="fill:#fff;stroke:#4278bd;stroke-miterlimit:10"/><rect x="524.31" y="380.98" width="100.14" height="31.74" rx="12" transform="translate(1148.75 793.69) rotate(180)" style="fill:#fff;stroke:#4278bd;stroke-miterlimit:10"/><rect x="524.31" y="439.49" width="100.14" height="31.74" rx="12" transform="translate(1148.75 910.72) rotate(180)" style="fill:#fff;stroke:#4278bd;stroke-miterlimit:10"/><rect x="795.93" y="381.76" width="100.14" height="31.74" rx="12" transform="translate(1692 795.26) rotate(180)" style="fill:#fff;stroke:#4278bd;stroke-miterlimit:10"/><rect x="795.93" y="440.28" width="100.14" height="31.74" rx="12" transform="translate(1692 912.29) rotate(180)" style="fill:#fff;stroke:#4278bd;stroke-miterlimit:10"/><line x1="556.58" y1="383.32" x2="556.58" y2="186.76" style="fill:none;stroke:#5e5f60;stroke-miterlimit:10"/><polygon points="561.56 381.86 556.58 390.5 551.59 381.86 561.56 381.86" style="fill:#5e5f60"/><line x1="833.58" y1="383.32" x2="833.58" y2="186.76" style="fill:none;stroke:#5e5f60;stroke-miterlimit:10"/><polygon points="838.56 381.86 833.58 390.5 828.59 381.86 838.56 381.86" style="fill:#5e5f60"/><line x1="260.58" y1="383.32" x2="260.58" y2="186.76" style="fill:none;stroke:#5e5f60;stroke-miterlimit:10"/><polygon points="265.56 381.86 260.58 390.5 255.59 381.86 265.56 381.86" style="fill:#5e5f60"/><text transform="translate(265.38 249.24)" style="font-size:20px;font-family:IBMPlexSans, IBM Plex Sans"><tspan style="letter-spacing:-0.00498046875em">Z</tspan><tspan x="11.5" y="0">one 1</tspan></text><text transform="translate(558.83 324.86)" style="font-size:20px;fill:#fff;font-family:IBMPlexSans, IBM Plex Sans"><tspan style="letter-spacing:-0.014990234375em">R</tspan><tspan x="12.5" y="0">egion</tspan></text><text transform="translate(577.33 249.24)" style="font-size:20px;font-family:IBMPlexSans, IBM Plex Sans"><tspan style="letter-spacing:-0.00498046875em">Z</tspan><tspan x="11.5" y="0">one 2</tspan></text><text transform="translate(570.99 364.8)" style="font-size:20px;font-family:IBMPlexSans, IBM Plex Sans"><tspan style="letter-spacing:-0.014990234375em">W</tspan><tspan x="17.52" y="0">or</tspan><tspan x="36.06" y="0" style="letter-spacing:-0.0169921875em">k</tspan><tspan x="46.26" y="0">er pool</tspan></text><text transform="translate(503.13 27.59)" style="font-size:21px;font-family:IBMPlexSans-Bold, IBM Plex Sans;font-weight:700">Mu<tspan x="29.71" y="0" style="letter-spacing:-0.00499906994047619em">l</tspan><tspan x="35.97" y="0" style="letter-spacing:0.000023251488095238094em">ti</tspan><tspan x="50.02" y="0" style="letter-spacing:-0.011997767857142858em">z</tspan><tspan x="60.65" y="0">one clu</tspan><tspan x="131.5" y="0" style="letter-spacing:-0.007998511904761904em">s</tspan><tspan x="141.92" y="0" style="letter-spacing:-0.003999255952380952em">t</tspan><tspan x="149.88" y="0">er</tspan></text><text transform="translate(870.33 248.24)" style="font-size:20px;font-family:IBMPlexSans, IBM Plex Sans"><tspan style="letter-spacing:-0.00498046875em">Z</tspan><tspan x="11.5" y="0">one 3</tspan></text><text transform="translate(485.04 148.63)" style="font-size:20px;font-family:IBMPlexSans, IBM Plex Sans">Mu<tspan x="27.6" y="0" style="letter-spacing:-0.00498046875em">l</tspan><tspan x="32.94" y="0">ti</tspan><tspan x="44.96" y="0" style="letter-spacing:-0.010009765625em">z</tspan><tspan x="54.04" y="0">one load balan</tspan><tspan x="185.69" y="0" style="letter-spacing:-0.006005859375em">c</tspan><tspan x="195.63" y="0">er</tspan></text><text transform="translate(398.23 318.56)" style="font-size:20px;font-family:IBMPlexSans, IBM Plex Sans">Mu<tspan x="27.6" y="0" style="letter-spacing:-0.00498046875em">l</tspan><tspan x="32.94" y="0">ti</tspan><tspan x="44.96" y="0" style="letter-spacing:-0.010009765625em">z</tspan><tspan x="54.04" y="0">one clu</tspan><tspan x="119.16" y="0" style="letter-spacing:-0.006982421875em">s</tspan><tspan x="128.76" y="0" style="letter-spacing:-0.00400390625em">t</tspan><tspan x="135.7" y="0">er with high</tspan><tspan x="240.48" y="0" style="letter-spacing:-0.010009765625em">l</tspan><tspan x="245.71" y="0">y </tspan><tspan x="260.41" y="0" style="letter-spacing:-0.007958984375em">a</tspan><tspan x="270.93" y="0" style="letter-spacing:-0.008984375em">v</tspan><tspan x="280.59" y="0">ailable ma</tspan><tspan x="373.27" y="0" style="letter-spacing:-0.006982421875em">s</tspan><tspan x="382.87" y="0" style="letter-spacing:-0.00400390625em">t</tspan><tspan x="389.81" y="0">er</tspan></text><text transform="translate(261.14 460.13)" style="font-size:20px;font-family:IBMPlexSans, IBM Plex Sans"><tspan style="letter-spacing:-0.014990234375em">R</tspan><tspan x="12.5" y="0">ou</tspan><tspan x="35.06" y="0" style="letter-spacing:-0.00400390625em">t</tspan><tspan x="42" y="0">er </tspan><tspan x="65.04" y="0" style="letter-spacing:-0.01298828125em">s</tspan><tspan x="74.52" y="0" style="letter-spacing:-0.0080078125em">v</tspan><tspan x="84.2" y="0">c</tspan></text><text transform="translate(369.49 401.95)" style="font-size:20px;fill:#fff;font-family:IBMPlexSans, IBM Plex Sans"><tspan style="letter-spacing:-0.014990234375em">W</tspan><tspan x="17.52" y="0">or</tspan><tspan x="36.06" y="0" style="letter-spacing:-0.0170166015625em">k</tspan><tspan x="46.26" y="0">er 1</tspan></text><text transform="translate(261.14 401.61)" style="font-size:20px;font-family:IBMPlexSans, IBM Plex Sans"><tspan style="letter-spacing:-0.014990234375em">R</tspan><tspan x="12.5" y="0">ou</tspan><tspan x="35.06" y="0" style="letter-spacing:-0.00400390625em">t</tspan><tspan x="42" y="0">er </tspan><tspan x="65.04" y="0" style="letter-spacing:-0.01298828125em">s</tspan><tspan x="74.52" y="0" style="letter-spacing:-0.0080078125em">v</tspan><tspan x="84.2" y="0">c</tspan></text><text transform="translate(367.54 461.08)" style="font-size:20px;fill:#fff;font-family:IBMPlexSans, IBM Plex Sans"><tspan style="letter-spacing:-0.014990234375em">W</tspan><tspan x="17.52" y="0">or</tspan><tspan x="36.06" y="0" style="letter-spacing:-0.0170166015625em">k</tspan><tspan x="46.26" y="0">er 2</tspan></text><text transform="translate(527.25 461.13)" style="font-size:20px;font-family:IBMPlexSans, IBM Plex Sans"><tspan style="letter-spacing:-0.014990234375em">R</tspan><tspan x="12.5" y="0">ou</tspan><tspan x="35.06" y="0" style="letter-spacing:-0.00400390625em">t</tspan><tspan x="42" y="0">er </tspan><tspan x="65.04" y="0" style="letter-spacing:-0.01298828125em">s</tspan><tspan x="74.52" y="0" style="letter-spacing:-0.0080078125em">v</tspan><tspan x="84.2" y="0">c</tspan></text><text transform="translate(635.6 402.95)" style="font-size:20px;fill:#fff;font-family:IBMPlexSans, IBM Plex Sans"><tspan style="letter-spacing:-0.014990234375em">W</tspan><tspan x="17.52" y="0">or</tspan><tspan x="36.06" y="0" style="letter-spacing:-0.0170166015625em">k</tspan><tspan x="46.26" y="0">er 1</tspan></text><text transform="translate(527.25 402.61)" style="font-size:20px;font-family:IBMPlexSans, IBM Plex Sans"><tspan style="letter-spacing:-0.014990234375em">R</tspan><tspan x="12.5" y="0">ou</tspan><tspan x="35.06" y="0" style="letter-spacing:-0.00400390625em">t</tspan><tspan x="42" y="0">er </tspan><tspan x="65.04" y="0" style="letter-spacing:-0.01298828125em">s</tspan><tspan x="74.52" y="0" style="letter-spacing:-0.0080078125em">v</tspan><tspan x="84.2" y="0">c</tspan></text><text transform="translate(633.64 462.08)" style="font-size:20px;fill:#fff;font-family:IBMPlexSans, IBM Plex Sans"><tspan style="letter-spacing:-0.014990234375em">W</tspan><tspan x="17.52" y="0">or</tspan><tspan x="36.06" y="0" style="letter-spacing:-0.0170166015625em">k</tspan><tspan x="46.26" y="0">er 2</tspan></text><text transform="translate(798.87 461.92)" style="font-size:20px;font-family:IBMPlexSans, IBM Plex Sans"><tspan style="letter-spacing:-0.014990234375em">R</tspan><tspan x="12.5" y="0">ou</tspan><tspan x="35.06" y="0" style="letter-spacing:-0.00400390625em">t</tspan><tspan x="42" y="0">er </tspan><tspan x="65.04" y="0" style="letter-spacing:-0.01298828125em">s</tspan><tspan x="74.52" y="0" style="letter-spacing:-0.0080078125em">v</tspan><tspan x="84.2" y="0">c</tspan></text><text transform="translate(907.22 403.74)" style="font-size:20px;fill:#fff;font-family:IBMPlexSans, IBM Plex Sans"><tspan style="letter-spacing:-0.014990234375em">W</tspan><tspan x="17.52" y="0">or</tspan><tspan x="36.06" y="0" style="letter-spacing:-0.0170166015625em">k</tspan><tspan x="46.26" y="0">er 1</tspan></text><text transform="translate(798.87 403.4)" style="font-size:20px;font-family:IBMPlexSans, IBM Plex Sans"><tspan style="letter-spacing:-0.014990234375em">R</tspan><tspan x="12.5" y="0">ou</tspan><tspan x="35.06" y="0" style="letter-spacing:-0.00400390625em">t</tspan><tspan x="42" y="0">er </tspan><tspan x="65.04" y="0" style="letter-spacing:-0.01298828125em">s</tspan><tspan x="74.52" y="0" style="letter-spacing:-0.0080078125em">v</tspan><tspan x="84.2" y="0">c</tspan></text><text transform="translate(905.27 462.87)" style="font-size:20px;fill:#fff;font-family:IBMPlexSans, IBM Plex Sans"><tspan style="letter-spacing:-0.014990234375em">W</tspan><tspan x="17.52" y="0">or</tspan><tspan x="36.06" y="0" style="letter-spacing:-0.0170166015625em">k</tspan><tspan x="46.26" y="0">er 2</tspan></text></svg>