<?xml version="1.0" encoding="UTF-8"?><svg id="b" xmlns="http://www.w3.org/2000/svg" width="1080" height="683.72" viewBox="0 0 1080 683.72"><rect x="363.11" y="104.83" width="357.29" height="566.46" rx="12" ry="12" style="fill:#2d3f49; stroke:#2d3f49; stroke-miterlimit:10;"/><rect x="378.89" y="156.59" width="326.94" height="416.78" rx="12" ry="12" style="fill:#fff;"/><rect x="390.85" y="195.41" width="300.47" height="368.4" rx="12" ry="12" style="fill:none; stroke:#00b39f; stroke-dasharray:0 8; stroke-miterlimit:10; stroke-width:2px;"/><rect x="407.65" y="452.3" width="191.43" height="97.17" rx="12" ry="12" style="fill:#4278bd;"/><text transform="translate(466.81 134.53)" style="fill:#fff; font-family:IBMPlexSans, &apos;IBM Plex Sans&apos;; font-size:20px;"><tspan x="0" y="0" style="letter-spacing:-.01em;">R</tspan><tspan x="12.5" y="0">egion u</tspan><tspan x="77.68" y="0" style="letter-spacing:-.01em;">s</tspan><tspan x="87.22" y="0">-south</tspan></text><text transform="translate(471.05 480.11)" style="fill:#fff; font-family:IBMPlexSans, &apos;IBM Plex Sans&apos;; font-size:20px;"><tspan x="0" y="0">Node 3</tspan></text><text transform="translate(475.97 183.39)" style="font-family:IBMPlexSans, &apos;IBM Plex Sans&apos;; font-size:20px;"><tspan x="0" y="0" style="letter-spacing:0em;">L</tspan><tspan x="9.82" y="0">ocation dal12</tspan></text><text transform="translate(508.31 223.45)" style="font-family:IBMPlexSans, &apos;IBM Plex Sans&apos;; font-size:20px;"><tspan x="0" y="0">Clu</tspan><tspan x="29.22" y="0" style="letter-spacing:0em;">s</tspan><tspan x="38.82" y="0" style="letter-spacing:0em;">t</tspan><tspan x="45.76" y="0">er</tspan></text><text transform="translate(473.4 256.42)" style="fill:#fff; font-family:HelvNeueRomanforIBM, HelvNeueRomanforIBM; font-size:20px;"><tspan x="0" y="0">Node 1</tspan></text><text transform="translate(420.32 60.9)" style="fill:#fff; font-family:HelvNeueRomanforIBM, HelvNeueRomanforIBM; font-size:20px;"><tspan x="0" y="0">E</tspan><tspan x="9.84" y="0" style="letter-spacing:.01em;">x</tspan><tspan x="19.36" y="0" style="letter-spacing:0em;">t</tspan><tspan x="25.86" y="0">e</tspan><tspan x="35.88" y="0" style="letter-spacing:0em;">r</tspan><tspan x="42.5" y="0">nal global load balan</tspan><tspan x="216.4" y="0" style="letter-spacing:0em;">c</tspan><tspan x="225.23" y="0">er</tspan></text><path d="M539.38,22.23c6.28,0,11.27,4.99,11.27,11.27s-4.99,11.27-11.27,11.27-11.27-4.99-11.27-11.27,4.99-11.27,11.27-11.27Zm0-3.22c-8.05,0-14.49,6.44-14.49,14.49s6.44,14.49,14.49,14.49,14.49-6.44,14.49-14.49-6.44-14.49-14.49-14.49Z" style="fill:#2d3f49;"/><path d="M539.38,11.93c-14.17,0-25.76,11.59-25.76,25.76s11.59,25.76,25.76,25.76,25.76-11.59,25.76-25.76-11.59-25.76-25.76-25.76Zm11.75,39.12h-23.51c-1.93,0-3.54,.81-4.51,2.09-3.86-4.03-6.28-9.5-6.28-15.46,0-12.4,10.14-22.54,22.54-22.54s22.54,10.14,22.54,22.54c0,5.96-2.42,11.43-6.28,15.46-.97-1.29-2.74-2.09-4.51-2.09Z" style="fill:#2d3f49;"/><line x1="539.62" y1="64.37" x2="539.62" y2="102.37" style="fill:#fff; stroke:#000; stroke-dasharray:0 8; stroke-miterlimit:10;"/><rect x="418.57" y="493.53" width="80.05" height="39.6" rx="12" ry="12" style="fill:#fff; stroke:#4278bd; stroke-miterlimit:10;"/><rect x="511.23" y="493.53" width="80.52" height="39.6" rx="12" ry="12" style="fill:#fff; stroke:#4278bd; stroke-miterlimit:10;"/><text transform="translate(432.97 518.57)" style="font-family:IBMPlexSans, &apos;IBM Plex Sans&apos;; font-size:20px;"><tspan x="0" y="0" style="letter-spacing:-.02em;">P</tspan><tspan x="11.72" y="0">od 1</tspan></text><text transform="translate(528.04 410.45)" style="font-family:HelvNeueRomanforIBM, HelvNeueRomanforIBM; font-size:20px;"><tspan x="0" y="0" style="letter-spacing:-.03em;">P</tspan><tspan x="10.14" y="0">od 2</tspan></text><text transform="translate(592.91 417.27)" style="font-family:HelvNeueRomanforIBM, HelvNeueRomanforIBM; font-size:20px;"><tspan x="0" y="0">1</tspan></text><ellipse cx="563.25" cy="364.98" rx="16.5" ry="17.03" style="fill:#fff; stroke:#5aaafa; stroke-miterlimit:10;"/><rect x="418.72" y="591.65" width="248.96" height="67.18" rx="12" ry="12" style="fill:#fff;"/><text transform="translate(454.53 620.31)" style="font-family:IBMPlexSans, &apos;IBM Plex Sans&apos;; font-size:20px;"><tspan x="0" y="0">IBM Cloud Cloudant </tspan></text><ellipse cx="631.9" cy="175.92" rx="16.5" ry="17.03" style="fill:#41d6c3; stroke:#5aaafa; stroke-miterlimit:10;"/><text transform="translate(625.51 182.77)" style="font-family:IBMPlexSans, &apos;IBM Plex Sans&apos;; font-size:18px;"><tspan x="0" y="0">4</tspan></text><line x1="510.62" y1="549.37" x2="510.62" y2="589.37" style="fill:none; stroke:#a0a2a3; stroke-miterlimit:10;"/><ellipse cx="602.62" cy="217.71" rx="16.5" ry="17.03" style="fill:#41d6c3; stroke:#5aaafa; stroke-miterlimit:10;"/><text transform="translate(597.08 224.71)" style="font-family:IBMPlexSans, &apos;IBM Plex Sans&apos;; font-size:18px;"><tspan x="0" y="0">3</tspan></text><rect x="407.65" y="343.99" width="191.43" height="97.17" rx="12" ry="12" style="fill:#4278bd;"/><text transform="translate(473.4 371.2)" style="fill:#fff; font-family:HelvNeueRomanforIBM, HelvNeueRomanforIBM; font-size:20px;"><tspan x="0" y="0">Node 2</tspan></text><rect x="418.57" y="385.21" width="80.05" height="39.6" rx="12" ry="12" style="fill:#fff; stroke:#4278bd; stroke-miterlimit:10;"/><rect x="511.23" y="386.21" width="80.52" height="39.6" rx="12" ry="12" style="fill:#fff; stroke:#4278bd; stroke-miterlimit:10;"/><text transform="translate(432.97 410.26)" style="font-family:IBMPlexSans, &apos;IBM Plex Sans&apos;; font-size:20px;"><tspan x="0" y="0" style="letter-spacing:-.02em;">P</tspan><tspan x="11.72" y="0">od 1</tspan></text><rect x="407.65" y="236.98" width="191.43" height="97.17" rx="12" ry="12" style="fill:#4278bd;"/><text transform="translate(471.05 264.79)" style="fill:#fff; font-family:IBMPlexSans, &apos;IBM Plex Sans&apos;; font-size:20px;"><tspan x="0" y="0">Node 1</tspan></text><rect x="418.57" y="278.2" width="80.05" height="39.6" rx="12" ry="12" style="fill:#fff; stroke:#4278bd; stroke-miterlimit:10;"/><rect x="511.23" y="277.2" width="80.52" height="39.6" rx="12" ry="12" style="fill:#fff; stroke:#4278bd; stroke-miterlimit:10;"/><text transform="translate(432.97 303.24)" style="font-family:IBMPlexSans, &apos;IBM Plex Sans&apos;; font-size:20px;"><tspan x="0" y="0" style="letter-spacing:-.02em;">P</tspan><tspan x="11.72" y="0">od 1</tspan></text><text transform="translate(525 411.67)" style="font-family:IBMPlexSans, &apos;IBM Plex Sans&apos;; font-size:20px;"><tspan x="0" y="0" style="letter-spacing:-.02em;">P</tspan><tspan x="11.72" y="0">od 2</tspan></text><text transform="translate(525.87 520.41)" style="font-family:IBMPlexSans, &apos;IBM Plex Sans&apos;; font-size:20px;"><tspan x="0" y="0" style="letter-spacing:-.02em;">P</tspan><tspan x="11.72" y="0">od 2</tspan></text><ellipse cx="563.25" cy="364.98" rx="16.5" ry="17.03" style="fill:#41d6c3; stroke:#5aaafa; stroke-miterlimit:10;"/><text transform="translate(590.2 519.95)" style="font-family:HelvNeueRomanforIBM, HelvNeueRomanforIBM; font-size:20px;"><tspan x="0" y="0">1</tspan></text><text transform="translate(557.25 371.48)" style="font-family:IBMPlexSans, &apos;IBM Plex Sans&apos;; font-size:18px;"><tspan x="0" y="0">2</tspan></text><text transform="translate(526.87 303.24)" style="font-family:IBMPlexSans, &apos;IBM Plex Sans&apos;; font-size:20px;"><tspan x="0" y="0" style="letter-spacing:-.02em;">P</tspan><tspan x="11.72" y="0">od 2</tspan></text><rect x="611.41" y="372.89" width="71.72" height="44.92" rx="12" ry="12" style="fill:#4278bd;"/><text transform="translate(629.93 402.56)" style="fill:#fff; font-family:IBMPlexSans, &apos;IBM Plex Sans&apos;; font-size:20px;"><tspan x="0" y="0">NFS</tspan></text><line x1="591.75" y1="298" x2="647.26" y2="297" style="fill:none;"/><line x1="592.12" y1="297.87" x2="644.12" y2="297.87" style="fill:none; stroke:#000; stroke-miterlimit:10;"/><line x1="593.12" y1="512.87" x2="645.12" y2="512.87" style="fill:none; stroke:#000; stroke-miterlimit:10;"/><ellipse cx="595.91" cy="513.32" rx="16.5" ry="17.03" style="fill:#41d6c3; stroke:#5aaafa; stroke-miterlimit:10;"/><text transform="translate(589.91 519.95)" style="font-family:IBMPlexSans, &apos;IBM Plex Sans&apos;; font-size:18px;"><tspan x="0" y="0">1</tspan></text><line x1="592.12" y1="403.87" x2="613.12" y2="403.87" style="fill:none; stroke:#000; stroke-miterlimit:10;"/><line x1="644.12" y1="297.87" x2="645.12" y2="375.38" style="fill:none; stroke:#000; stroke-miterlimit:10;"/><line x1="645.12" y1="512.87" x2="644.12" y2="417.27" style="fill:none; stroke:#000; stroke-miterlimit:10;"/><ellipse cx="672.57" cy="417.81" rx="16.5" ry="17.03" style="fill:#41d6c3; stroke:#5aaafa; stroke-miterlimit:10;"/><text transform="translate(660.43 424.32)" style="font-family:IBMPlexSans, &apos;IBM Plex Sans&apos;; font-size:18px;"><tspan x="0" y="0">6a</tspan></text><ellipse cx="648.4" cy="637.17" rx="16.5" ry="17.03" style="fill:#41d6c3; stroke:#5aaafa; stroke-miterlimit:10;"/><text transform="translate(637.27 643.68)" style="font-family:IBMPlexSans, &apos;IBM Plex Sans&apos;; font-size:18px;"><tspan x="0" y="0">6b</tspan></text><ellipse cx="638.27" cy="127.86" rx="16.5" ry="17.03" style="fill:#41d6c3; stroke:#5aaafa; stroke-miterlimit:10;"/><text transform="translate(632.88 134.71)" style="font-family:IBMPlexSans, &apos;IBM Plex Sans&apos;; font-size:18px;"><tspan x="0" y="0">5</tspan></text><text transform="translate(463.52 643.68)" style="font-family:IBMPlexSans, &apos;IBM Plex Sans&apos;; font-size:20px;"><tspan x="0" y="0">database se</tspan><tspan x="108.42" y="0" style="letter-spacing:.01em;">r</tspan><tspan x="115.96" y="0">vi</tspan><tspan x="130.8" y="0" style="letter-spacing:0em;">c</tspan><tspan x="140.74" y="0">e</tspan></text></svg>