<svg xmlns="http://www.w3.org/2000/svg" width="1278.99" height="656.27" viewBox="0 0 1278.99 656.27"><rect x="419.42" y="162.51" width="444.81" height="42.73" rx="12" style="fill:#fff;stroke:#4d4e4f;stroke-miterlimit:10"/><line x1="185.93" y1="228.5" x2="996.82" y2="228.5" style="fill:none;stroke:#5e5f60;stroke-miterlimit:10"/><path d="M641.72,103.05a9.67,9.67,0,1,1-9.67,9.67A9.61,9.61,0,0,1,641.72,103.05Zm0-2.76a12.43,12.43,0,1,0,12.42,12.43A12.38,12.38,0,0,0,641.72,100.29Z"/><path d="M641.72,94.22a22.09,22.09,0,1,0,22.09,22.09A22.16,22.16,0,0,0,641.72,94.22Zm10.08,33.55H631.64a4.72,4.72,0,0,0-3.87,1.8,19.19,19.19,0,0,1-5.39-13.26,19.34,19.34,0,0,1,38.67,0,19.14,19.14,0,0,1-5.39,13.26A4.9,4.9,0,0,0,651.8,127.77Z"/><line x1="641.47" y1="147" x2="641.47" y2="158" style="fill:none;stroke:#5e5f60;stroke-miterlimit:10"/><polygon points="636.35 149 641.34 140.37 646.32 149 636.35 149" style="fill:#5e5f60"/><polygon points="636.35 156 641.34 164.63 646.32 156 636.35 156" style="fill:#5e5f60"/><line x1="640.47" y1="211" x2="640.47" y2="229" style="fill:none;stroke:#5e5f60;stroke-miterlimit:10"/><polygon points="635.35 213 640.34 204.37 645.32 213 635.35 213" style="fill:#5e5f60"/><rect x="26.42" y="244.37" width="1228.41" height="369.65" rx="11.51" style="fill:#2d3f49;stroke:#2d3f49;stroke-miterlimit:10;stroke-width:0.9587533505876511px"/><rect x="39.24" y="286.71" width="393.03" height="304.98" rx="11.33" style="fill:#fff"/><rect x="53.2" y="330.89" width="364.95" height="238.76" rx="11.12" style="fill:#fff;stroke:#00b39f;stroke-miterlimit:10;stroke-width:1.853895436460413px;stroke-dasharray:7.415581703186035"/><rect x="9.75" y="447.23" width="164.13" height="41.95" rx="10.72" transform="translate(-376.38 560.02) rotate(-90)" style="fill:#fff;stroke:#4278bd;stroke-miterlimit:10;stroke-width:0.8935671111095917px"/><rect x="138" y="387.41" width="266.81" height="162.85" rx="10.71" style="fill:#fff;stroke:#4278bd;stroke-miterlimit:10;stroke-width:0.8928592907449182px"/><line x1="119.97" y1="492.5" x2="130.97" y2="492.5" style="fill:none;stroke:#5e5f60;stroke-miterlimit:10"/><polygon points="121.97 497.9 113.33 492.92 121.97 487.93 121.97 497.9" style="fill:#5e5f60"/><polygon points="128.97 497.9 137.61 492.92 128.97 487.93 128.97 497.9" style="fill:#5e5f60"/><path d="M85.52,488.89v.1l2.34,1.18,6.08,3.34-6.08,3.32L85.54,498v.1H97.28v1.64h-14v-2.2l7.53-4v-.08l-7.53-4v-2.2h14v1.64Z"/><path d="M97.28,476.19A1.67,1.67,0,0,1,95.6,478v.1a2.91,2.91,0,0,1,1.92,3c0,2.18-1.2,3.46-3.12,3.46s-3-1.4-3-4.4v-2h-1c-1.46,0-2.26.8-2.26,2.44a2.88,2.88,0,0,0,1.54,2.62l-.9,1a3.92,3.92,0,0,1-2-3.66c0-2.48,1.3-4,3.48-4h5.68v-1.18h1.4Zm-3,1.88h-1.7v2.12c0,1.82.56,2.64,1.56,2.64h.42c1,0,1.6-.8,1.6-2C96.16,479.21,95.34,478.07,94.28,478.07Z"/><path d="M95.5,474l-.92-1.14a3.75,3.75,0,0,0,1.58-3.06c0-1.36-.62-2.16-1.68-2.16-.8,0-1.42.44-1.62,1.8l-.12.82c-.28,1.9-1.06,3.32-3,3.32s-3-1.58-3-3.68a4.3,4.3,0,0,1,1.66-3.6l1,1.06A3.18,3.18,0,0,0,88.08,470c0,1.32.62,2,1.6,2s1.4-.7,1.6-2l.12-.8c.34-2.28,1.34-3.16,2.9-3.16,2,0,3.22,1.46,3.22,3.82A4.8,4.8,0,0,1,95.5,474Z"/><path d="M97.28,461.13a1.58,1.58,0,0,1-1.7,1.7H88.36v1.7H87v-1c0-.68-.24-.9-.94-.9H84.1v-1.44H87V459h1.4v2.26h7.52v-2.1h1.4Z"/><path d="M92.12,457.23c-3.28,0-5.4-1.84-5.4-4.64s2.12-4.46,5-4.46h.76v7.42H93a2.92,2.92,0,0,0,3.12-3.06,3,3,0,0,0-1.78-2.84l.82-1.14a4.33,4.33,0,0,1,2.36,4.08C97.52,455.39,95.4,457.23,92.12,457.23Zm-.94-1.68h.14v-5.7H91.1a2.74,2.74,0,0,0-3,2.74A2.93,2.93,0,0,0,91.18,455.55Z"/><path d="M97.28,445.49H87v-1.6h1.9v-.1a3,3,0,0,1-1.9-3v-.62h1.6v.94c0,1.72.74,2.76,1.72,2.76h7Z"/><rect x="445.24" y="287.71" width="393.03" height="303.98" rx="11.31" style="fill:#fff"/><rect x="459.2" y="331.89" width="364.95" height="237.76" rx="11.1" style="fill:#fff;stroke:#00b39f;stroke-miterlimit:10;stroke-width:1.8500090186602591px;stroke-dasharray:7.400035858154297"/><rect x="711.44" y="449.88" width="158.81" height="41.95" rx="10.55" transform="translate(319.99 1261.7) rotate(-90)" style="fill:#fff;stroke:#4278bd;stroke-miterlimit:10;stroke-width:0.8789709829097391px"/><rect x="478.39" y="390.77" width="266.81" height="159.93" rx="10.62" style="fill:#fff;stroke:#4278bd;stroke-miterlimit:10;stroke-width:0.8848265766549489px"/><rect x="493.5" y="427.5" width="235.92" height="42.73" rx="12" style="fill:#4278bd"/><rect x="493.5" y="484.57" width="235.92" height="42.73" rx="12" style="fill:#4278bd"/><line x1="751.97" y1="495.5" x2="762.97" y2="495.5" style="fill:none;stroke:#5e5f60;stroke-miterlimit:10"/><polygon points="753.97 500.9 745.34 495.92 753.97 490.93 753.97 500.9" style="fill:#5e5f60"/><polygon points="760.97 500.9 769.61 495.92 760.97 490.93 760.97 500.9" style="fill:#5e5f60"/><path d="M785.21,492.19v.1l2.34,1.18,6.08,3.34-6.08,3.32-2.32,1.18v.1H797v1.64H783v-2.2l7.52-4v-.08l-7.52-4v-2.2h14v1.64Z"/><path d="M797,479.49a1.67,1.67,0,0,1-1.69,1.78v.1a2.91,2.91,0,0,1,1.93,3c0,2.18-1.2,3.46-3.13,3.46s-3-1.4-3-4.4v-2h-1c-1.46,0-2.26.8-2.26,2.44a2.88,2.88,0,0,0,1.54,2.62l-.9,1a3.92,3.92,0,0,1-2-3.66c0-2.48,1.3-4,3.48-4h5.68v-1.18H797Zm-3,1.88h-1.7v2.12c0,1.82.56,2.64,1.56,2.64h.42c1,0,1.6-.8,1.6-2C795.85,482.51,795,481.37,794,481.37Z"/><path d="M795.19,477.29l-.92-1.14a3.75,3.75,0,0,0,1.58-3.06c0-1.36-.62-2.16-1.68-2.16-.8,0-1.42.44-1.62,1.8l-.12.82c-.28,1.9-1.06,3.32-3,3.32s-3-1.58-3-3.68a4.3,4.3,0,0,1,1.66-3.6l1,1.06a3.18,3.18,0,0,0-1.26,2.66c0,1.32.62,2,1.6,2s1.4-.7,1.6-2l.12-.8c.34-2.28,1.34-3.16,2.9-3.16,2,0,3.23,1.46,3.23,3.82A4.8,4.8,0,0,1,795.19,477.29Z"/><path d="M797,464.43a1.58,1.58,0,0,1-1.71,1.7h-7.22v1.7h-1.4v-1c0-.68-.24-.9-.94-.9h-1.92v-1.44h2.86v-2.26h1.4v2.26h7.52v-2.1H797Z"/><path d="M791.81,460.53c-3.28,0-5.4-1.84-5.4-4.64s2.12-4.46,5-4.46h.76v7.42h.48a2.92,2.92,0,0,0,3.12-3.06A3,3,0,0,0,794,453l.82-1.14a4.32,4.32,0,0,1,2.37,4.08C797.22,458.69,795.09,460.53,791.81,460.53Zm-.94-1.68H791v-5.7h-.22a2.74,2.74,0,0,0-3,2.74A2.93,2.93,0,0,0,790.87,458.85Z"/><path d="M797,448.79H786.65v-1.6h1.9v-.1a3,3,0,0,1-1.9-3v-.62h1.6v.94c0,1.72.74,2.76,1.72,2.76h7Z"/><line x1="531.47" y1="425" x2="531.47" y2="228" style="fill:none;stroke:#5e5f60;stroke-miterlimit:10"/><polygon points="536.37 424 531.38 432.63 526.4 424 536.37 424" style="fill:#5e5f60"/><rect x="849.24" y="288.71" width="393.03" height="298.32" rx="11.2" style="fill:#fff"/><rect x="863.2" y="332.89" width="364.95" height="236.76" rx="11.08" style="fill:#fff;stroke:#00b39f;stroke-miterlimit:10;stroke-width:1.8461144192383756px;stroke-dasharray:7.384457588195801"/><rect x="820.75" y="448.23" width="162.13" height="41.95" rx="10.66" transform="translate(432.62 1371.02) rotate(-90)" style="fill:#fff;stroke:#4278bd;stroke-miterlimit:10;stroke-width:0.8881063800714515px"/><rect x="948" y="389.41" width="266.81" height="160.85" rx="10.65" style="fill:#fff;stroke:#4278bd;stroke-miterlimit:10;stroke-width:0.8873596715253543px"/><line x1="929.97" y1="472.86" x2="940.97" y2="472.86" style="fill:none;stroke:#5e5f60;stroke-miterlimit:10"/><polygon points="931.97 478.26 923.34 473.27 931.97 468.29 931.97 478.26" style="fill:#5e5f60"/><polygon points="938.97 478.26 947.61 473.27 938.97 468.29 938.97 478.26" style="fill:#5e5f60"/><path d="M896.46,486.87v.1l2.34,1.18,6.08,3.34-6.08,3.32L896.48,496v.1h11.74v1.64h-14v-2.2l7.52-4v-.08l-7.52-4v-2.2h14v1.64Z"/><path d="M908.22,474.17a1.67,1.67,0,0,1-1.68,1.78v.1a2.91,2.91,0,0,1,1.92,3c0,2.18-1.2,3.46-3.12,3.46s-3-1.4-3-4.4v-2h-1c-1.46,0-2.26.8-2.26,2.44a2.88,2.88,0,0,0,1.54,2.62l-.9,1a3.92,3.92,0,0,1-2-3.66c0-2.48,1.3-4,3.48-4h5.68v-1.18h1.4Zm-3,1.88h-1.7v2.12c0,1.82.56,2.64,1.56,2.64h.42c1,0,1.6-.8,1.6-2C907.1,477.19,906.28,476.05,905.22,476.05Z"/><path d="M906.44,472l-.92-1.15a3.75,3.75,0,0,0,1.58-3.06c0-1.36-.62-2.16-1.68-2.16-.8,0-1.42.44-1.62,1.8l-.12.82c-.28,1.9-1.06,3.32-3,3.32s-3-1.58-3-3.68a4.3,4.3,0,0,1,1.66-3.6l1,1.06A3.18,3.18,0,0,0,899,468c0,1.32.62,2,1.6,2s1.4-.7,1.6-2l.12-.8c.34-2.28,1.34-3.16,2.9-3.16,2,0,3.22,1.46,3.22,3.82A4.83,4.83,0,0,1,906.44,472Z"/><path d="M908.22,459.11a1.58,1.58,0,0,1-1.7,1.7H899.3v1.7h-1.4v-1c0-.68-.24-.9-.94-.9H895v-1.44h2.86V457h1.4v2.26h7.52v-2.1h1.4Z"/><path d="M903.06,455.21c-3.28,0-5.4-1.84-5.4-4.64s2.12-4.46,5-4.46h.76v7.42h.48a2.92,2.92,0,0,0,3.12-3.06,3,3,0,0,0-1.78-2.84l.82-1.14a4.33,4.33,0,0,1,2.36,4.08C908.46,453.37,906.34,455.21,903.06,455.21Zm-.94-1.68h.14v-5.7H902a2.74,2.74,0,0,0-3,2.74A2.93,2.93,0,0,0,902.12,453.53Z"/><path d="M908.22,443.48H897.9v-1.61h1.9v-.1a3,3,0,0,1-1.9-3v-.62h1.6v.94c0,1.72.74,2.76,1.72,2.76h7Z"/><rect x="963.44" y="425.75" width="235.92" height="42.73" rx="12" style="fill:#4278bd"/><rect x="963.44" y="482.82" width="235.92" height="42.73" rx="12" style="fill:#4278bd"/><line x1="996.91" y1="425" x2="996.91" y2="228" style="fill:none;stroke:#5e5f60;stroke-miterlimit:10"/><polygon points="1001.81 424 996.82 432.63 991.84 424 1001.81 424" style="fill:#5e5f60"/><rect x="153.25" y="425.71" width="235.92" height="42.73" rx="12" style="fill:#4278bd"/><rect x="153.25" y="482.78" width="235.92" height="42.73" rx="12" style="fill:#4278bd"/><line x1="186.01" y1="424.24" x2="186.01" y2="227.24" style="fill:none;stroke:#5e5f60;stroke-miterlimit:10"/><polygon points="190.91 423.24 185.93 431.88 180.94 423.24 190.91 423.24" style="fill:#5e5f60"/><rect x="948" y="351.06" width="86.39" height="24" rx="12" transform="translate(1982.38 726.11) rotate(180)" style="fill:#fff"/><rect x="132.01" y="349.06" width="86.39" height="24" rx="12" transform="translate(350.41 722.11) rotate(-180)" style="fill:#fff"/><rect x="168.33" y="430.45" width="100.14" height="31.74" rx="12" transform="translate(436.79 892.63) rotate(180)" style="fill:#fff;stroke:#4278bd;stroke-miterlimit:10"/><rect x="168.33" y="488.97" width="100.14" height="31.74" rx="12" transform="translate(436.79 1009.67) rotate(180)" style="fill:#fff;stroke:#4278bd;stroke-miterlimit:10"/><text transform="translate(171.27 510.61)" style="font-size:20px;font-family:IBMPlexSans, IBM Plex Sans"><tspan style="letter-spacing:-0.014990234375em">R</tspan><tspan x="12.5" y="0">ou</tspan><tspan x="35.06" y="0" style="letter-spacing:-0.00400390625em">t</tspan><tspan x="42" y="0">er </tspan><tspan x="65.04" y="0" style="letter-spacing:-0.01298828125em">s</tspan><tspan x="74.52" y="0" style="letter-spacing:-0.0080078125em">v</tspan><tspan x="84.2" y="0">c</tspan></text><text transform="translate(279.62 452.42)" style="font-size:20px;fill:#fff;font-family:IBMPlexSans, IBM Plex Sans"><tspan style="letter-spacing:-0.014990234375em">W</tspan><tspan x="17.52" y="0">or</tspan><tspan x="36.06" y="0" style="letter-spacing:-0.0170166015625em">k</tspan><tspan x="46.26" y="0">er 1</tspan></text><text transform="translate(171.27 452.09)" style="font-size:20px;font-family:IBMPlexSans, IBM Plex Sans"><tspan style="letter-spacing:-0.014990234375em">R</tspan><tspan x="12.5" y="0">ou</tspan><tspan x="35.06" y="0" style="letter-spacing:-0.00400390625em">t</tspan><tspan x="42" y="0">er </tspan><tspan x="65.04" y="0" style="letter-spacing:-0.01298828125em">s</tspan><tspan x="74.52" y="0" style="letter-spacing:-0.0080078125em">v</tspan><tspan x="84.2" y="0">c</tspan></text><text transform="translate(277.66 511.55)" style="font-size:20px;fill:#fff;font-family:IBMPlexSans, IBM Plex Sans"><tspan style="letter-spacing:-0.014990234375em">W</tspan><tspan x="17.52" y="0">or</tspan><tspan x="36.06" y="0" style="letter-spacing:-0.0170166015625em">k</tspan><tspan x="46.26" y="0">er 2</tspan></text><rect x="505.5" y="431.23" width="100.14" height="31.74" rx="12" transform="translate(1111.13 894.2) rotate(180)" style="fill:#fff;stroke:#4278bd;stroke-miterlimit:10"/><rect x="505.5" y="489.75" width="100.14" height="31.74" rx="12" transform="translate(1111.13 1011.24) rotate(180)" style="fill:#fff;stroke:#4278bd;stroke-miterlimit:10"/><rect x="977.28" y="429.45" width="100.14" height="31.74" rx="12" transform="translate(2054.71 890.63) rotate(180)" style="fill:#fff;stroke:#4278bd;stroke-miterlimit:10"/><rect x="977.28" y="487.97" width="100.14" height="31.74" rx="12" transform="translate(2054.71 1007.67) rotate(180)" style="fill:#fff;stroke:#4278bd;stroke-miterlimit:10"/><text transform="translate(549.51 189.37)" style="font-size:20px;font-family:IBMPlexSans, IBM Plex Sans">Global load balan<tspan x="156.38" y="0" style="letter-spacing:-0.006005859375em">c</tspan><tspan x="166.31" y="0">er</tspan></text><text transform="translate(350.91 55.49)" style="font-size:21px;font-family:IBMPlexSans-Bold, IBM Plex Sans;font-weight:700">Th<tspan x="24.78" y="0" style="letter-spacing:-0.00499906994047619em">r</tspan><tspan x="33.16" y="0" style="letter-spacing:0.000023251488095238094em">ee single </tspan><tspan x="125.54" y="0" style="letter-spacing:-0.011997767857142858em">z</tspan><tspan x="136.16" y="0">one clu</tspan><tspan x="207.02" y="0" style="letter-spacing:-0.007998511904761904em">s</tspan><tspan x="217.43" y="0" style="letter-spacing:-0.003999255952380952em">t</tspan><tspan x="225.39" y="0">ers in sepa</tspan><tspan x="331.8" y="0" style="letter-spacing:-0.013997395833333334em">r</tspan><tspan x="339.99" y="0" style="letter-spacing:-0.005998883928571429em">a</tspan><tspan x="351.81" y="0" style="letter-spacing:-0.003999255952380952em">t</tspan><tspan x="359.77" y="0">e </tspan><tspan x="376.52" y="0" style="letter-spacing:-0.011997767857142858em">z</tspan><tspan x="387.15" y="0">ones within one </tspan><tspan x="547.67" y="0" style="letter-spacing:-0.004975818452380952em">r</tspan><tspan x="556.05" y="0">egion</tspan></text><text transform="translate(204.88 316.65)" style="font-size:20px;font-family:IBMPlexSans, IBM Plex Sans"><tspan style="letter-spacing:-0.00498046875em">Z</tspan><tspan x="11.5" y="0">one 1</tspan></text><text transform="translate(611.02 270.28)" style="font-size:20px;fill:#fff;font-family:IBMPlexSans, IBM Plex Sans"><tspan style="letter-spacing:-0.014990234375em">R</tspan><tspan x="12.5" y="0">egion</tspan></text><text transform="translate(217.13 414.21)" style="font-size:20px;font-family:IBMPlexSans, IBM Plex Sans"><tspan style="letter-spacing:-0.014990234375em">W</tspan><tspan x="17.52" y="0">or</tspan><tspan x="36.06" y="0" style="letter-spacing:-0.0170166015625em">k</tspan><tspan x="46.26" y="0">er pool</tspan></text><text transform="translate(142.95 365.97)" style="font-size:20px;font-family:IBMPlexSans, IBM Plex Sans">Single <tspan x="59.68" y="0" style="letter-spacing:-0.0099853515625em">z</tspan><tspan x="68.76" y="0">one clu</tspan><tspan x="133.88" y="0" style="letter-spacing:-0.0070068359375em">s</tspan><tspan x="143.48" y="0" style="letter-spacing:-0.0039794921875em">t</tspan><tspan x="150.42" y="0">er 1</tspan></text><text transform="translate(610.88 317.65)" style="font-size:20px;font-family:IBMPlexSans, IBM Plex Sans"><tspan style="letter-spacing:-0.00498046875em">Z</tspan><tspan x="11.5" y="0">one 2</tspan></text><text transform="translate(557.53 417.58)" style="font-size:20px;font-family:IBMPlexSans, IBM Plex Sans"><tspan style="letter-spacing:-0.014990234375em">W</tspan><tspan x="17.52" y="0">or</tspan><tspan x="36.06" y="0" style="letter-spacing:-0.0170166015625em">k</tspan><tspan x="46.26" y="0">er pool</tspan></text><text transform="translate(548.95 366.97)" style="font-size:20px;font-family:IBMPlexSans, IBM Plex Sans">Single <tspan x="59.68" y="0" style="letter-spacing:-0.0099853515625em">z</tspan><tspan x="68.76" y="0">one clu</tspan><tspan x="133.88" y="0" style="letter-spacing:-0.0070068359375em">s</tspan><tspan x="143.48" y="0" style="letter-spacing:-0.0039794921875em">t</tspan><tspan x="150.42" y="0">er 2</tspan></text><text transform="translate(1014.88 318.65)" style="font-size:20px;font-family:IBMPlexSans, IBM Plex Sans"><tspan style="letter-spacing:-0.00498046875em">Z</tspan><tspan x="11.5" y="0">one 3</tspan></text><text transform="translate(1027.13 416.21)" style="font-size:20px;font-family:IBMPlexSans, IBM Plex Sans"><tspan style="letter-spacing:-0.014990234375em">W</tspan><tspan x="17.52" y="0">or</tspan><tspan x="36.06" y="0" style="letter-spacing:-0.0170166015625em">k</tspan><tspan x="46.26" y="0">er pool</tspan></text><text transform="translate(952.95 367.97)" style="font-size:20px;font-family:IBMPlexSans, IBM Plex Sans">Single <tspan x="59.68" y="0" style="letter-spacing:-0.0099853515625em">z</tspan><tspan x="68.76" y="0">one clu</tspan><tspan x="133.88" y="0" style="letter-spacing:-0.0070068359375em">s</tspan><tspan x="143.48" y="0" style="letter-spacing:-0.0039794921875em">t</tspan><tspan x="150.42" y="0">er 3</tspan></text><text transform="translate(508.44 511.39)" style="font-size:20px;font-family:IBMPlexSans, IBM Plex Sans"><tspan style="letter-spacing:-0.014990234375em">R</tspan><tspan x="12.5" y="0">ou</tspan><tspan x="35.06" y="0" style="letter-spacing:-0.00400390625em">t</tspan><tspan x="42" y="0">er </tspan><tspan x="65.04" y="0" style="letter-spacing:-0.01298828125em">s</tspan><tspan x="74.52" y="0" style="letter-spacing:-0.0080078125em">v</tspan><tspan x="84.2" y="0">c</tspan></text><text transform="translate(616.79 453.21)" style="font-size:20px;fill:#fff;font-family:IBMPlexSans, IBM Plex Sans"><tspan style="letter-spacing:-0.014990234375em">W</tspan><tspan x="17.52" y="0">or</tspan><tspan x="36.06" y="0" style="letter-spacing:-0.0170166015625em">k</tspan><tspan x="46.26" y="0">er 1</tspan></text><text transform="translate(508.44 452.87)" style="font-size:20px;font-family:IBMPlexSans, IBM Plex Sans"><tspan style="letter-spacing:-0.014990234375em">R</tspan><tspan x="12.5" y="0">ou</tspan><tspan x="35.06" y="0" style="letter-spacing:-0.00400390625em">t</tspan><tspan x="42" y="0">er </tspan><tspan x="65.04" y="0" style="letter-spacing:-0.01298828125em">s</tspan><tspan x="74.52" y="0" style="letter-spacing:-0.0080078125em">v</tspan><tspan x="84.2" y="0">c</tspan></text><text transform="translate(614.83 512.34)" style="font-size:20px;fill:#fff;font-family:IBMPlexSans, IBM Plex Sans"><tspan style="letter-spacing:-0.014990234375em">W</tspan><tspan x="17.52" y="0">or</tspan><tspan x="36.06" y="0" style="letter-spacing:-0.0170166015625em">k</tspan><tspan x="46.26" y="0">er 2</tspan></text><text transform="translate(980.22 509.61)" style="font-size:20px;font-family:IBMPlexSans, IBM Plex Sans"><tspan style="letter-spacing:-0.014990234375em">R</tspan><tspan x="12.5" y="0">ou</tspan><tspan x="35.06" y="0" style="letter-spacing:-0.00400390625em">t</tspan><tspan x="42" y="0">er </tspan><tspan x="65.04" y="0" style="letter-spacing:-0.01298828125em">s</tspan><tspan x="74.52" y="0" style="letter-spacing:-0.0080078125em">v</tspan><tspan x="84.2" y="0">c</tspan></text><text transform="translate(1088.57 451.42)" style="font-size:20px;fill:#fff;font-family:IBMPlexSans, IBM Plex Sans"><tspan style="letter-spacing:-0.014990234375em">W</tspan><tspan x="17.52" y="0">or</tspan><tspan x="36.06" y="0" style="letter-spacing:-0.0170166015625em">k</tspan><tspan x="46.26" y="0">er 1</tspan></text><text transform="translate(980.22 451.09)" style="font-size:20px;font-family:IBMPlexSans, IBM Plex Sans"><tspan style="letter-spacing:-0.014990234375em">R</tspan><tspan x="12.5" y="0">ou</tspan><tspan x="35.06" y="0" style="letter-spacing:-0.00400390625em">t</tspan><tspan x="42" y="0">er </tspan><tspan x="65.04" y="0" style="letter-spacing:-0.01298828125em">s</tspan><tspan x="74.52" y="0" style="letter-spacing:-0.0080078125em">v</tspan><tspan x="84.2" y="0">c</tspan></text><text transform="translate(1086.62 510.55)" style="font-size:20px;fill:#fff;font-family:IBMPlexSans, IBM Plex Sans"><tspan style="letter-spacing:-0.014990234375em">W</tspan><tspan x="17.52" y="0">or</tspan><tspan x="36.06" y="0" style="letter-spacing:-0.0170166015625em">k</tspan><tspan x="46.26" y="0">er 2</tspan></text><text transform="translate(1087.57 565.06)" style="font-size:20px;fill:#fff;font-family:IBMPlexSans, IBM Plex Sans"><tspan style="letter-spacing:-0.014990234375em">W</tspan><tspan x="17.52" y="0">or</tspan><tspan x="36.06" y="0" style="letter-spacing:-0.0170166015625em">k</tspan><tspan x="46.26" y="0">er 3</tspan></text></svg>