<?xml version="1.0" encoding="utf-8"?>
<!-- Generator: Adobe Illustrator 25.4.1, SVG Export Plug-In . SVG Version: 6.00 Build 0)  -->
<svg version="1.1" id="Layer_1" xmlns="http://www.w3.org/2000/svg" xmlns:xlink="http://www.w3.org/1999/xlink" x="0px" y="0px"
	 width="16px" height="16px" viewBox="0 0 16 16" style="enable-background:new 0 0 16 16;" xml:space="preserve">
<style type="text/css">
	.st0{fill-rule:evenodd;clip-rule:evenodd;}
	.st1{fill:none;}
</style>
<path class="st0" d="M11.7,11L5,4.3V1H1v4h3.3l6.7,6.7V15h4v-4H11.7z M4,4H2V2h2V4z M14,14h-2v-2h2V14z"/>
<path class="st0" d="M15,3c0-1.1-0.9-2-2-2c-0.9,0-1.7,0.6-1.9,1.5H6.5v1h4.6c0.2,0.7,0.7,1.2,1.4,1.4v4.6h1V4.9
	C14.4,4.7,15,3.9,15,3z M13,4c-0.6,0-1-0.4-1-1s0.4-1,1-1s1,0.4,1,1S13.6,4,13,4z"/>
<path class="st0" d="M9.5,12.5H4.9c-0.2-0.7-0.8-1.2-1.5-1.4V6.5h-1v4.6c-1,0.3-1.7,1.3-1.5,2.4c0.3,1.1,1.4,1.7,2.4,1.4
	c0,0,0,0,0.1,0c0.7-0.2,1.2-0.7,1.4-1.4h4.6v-1H9.5z M3,14c-0.6,0-1-0.4-1-1s0.4-1,1-1s1,0.4,1,1S3.6,14,3,14z"/>
<rect class="st1" width="16" height="16"/>
</svg>
