<svg xmlns="http://www.w3.org/2000/svg" viewBox="0 0 16 16"><path d="M11.7,11,5,4.3V1H1V5H4.3L11,11.7V15h4V11ZM4,4H2V2H4ZM14,14H12V12h2Z" style="fill-rule:evenodd"/><path d="M15,3a2,2,0,0,0-3.95-.5H6.5v1h4.55A2.11,2.11,0,0,0,12.5,5V9.5h1V5A2,2,0,0,0,15,3ZM13,4a1,1,0,1,1,1-1A1,1,0,0,1,13,4Z" style="fill-rule:evenodd"/><path d="M9.5,12.5H5A2.11,2.11,0,0,0,3.5,11.05V6.5h-1v4.55A2,2,0,0,0,1.05,13.5,2,2,0,0,0,3.5,15,2.11,2.11,0,0,0,5,13.5H9.5ZM3,14a1,1,0,1,1,1-1A1,1,0,0,1,3,14Z" style="fill-rule:evenodd"/><rect width="16" height="16" style="fill:none"/></svg>