<?xml version="1.0" encoding="utf-8"?>
<!-- Generator: Adobe Illustrator 22.0.0, SVG Export Plug-In . SVG Version: 6.00 Build 0)  -->
<svg version="1.1" id="icon--containers" xmlns="http://www.w3.org/2000/svg" xmlns:xlink="http://www.w3.org/1999/xlink" x="0px"
	 y="0px" viewBox="0 0 24 24.5" style="enable-background:new 0 0 24 24.5;" xml:space="preserve">
<path d="M21.7,6.3l-8.2-5.4c-0.9-0.6-2.2-0.6-3.1,0L2.2,6.4C1.8,6.7,1.5,7,1.3,7.5c0,0-0.3,0.6-0.3,1.3v7.6c0,0.9,0.5,1.7,1.3,2.2
	l8.2,5.4c0.5,0.3,1,0.5,1.5,0.5s1.1-0.2,1.6-0.5l8.2-5.4c0.8-0.5,1.2-1.3,1.2-2.2V8.8C23,8.5,23.1,7.3,21.7,6.3z M2.8,7.2L11,1.8
	c0.6-0.4,1.4-0.4,1.9,0l8.2,5.4c0.3,0.2,0.6,0.5,0.7,0.9L16,11.7L15.6,12L13,10.1c-0.6-0.4-1.3-0.4-1.9,0l-2.6,1.7L2.2,8
	C2.3,7.7,2.5,7.4,2.8,7.2z M14.7,12.6l-2.3,1.5c-0.2,0.1-0.5,0.1-0.7,0l-2.3-1.6l2.3-1.5c0.2-0.1,0.5-0.1,0.7,0
	C12.4,11,14.7,12.6,14.7,12.6z M22,16.4c0,0.6-0.3,1.1-0.8,1.4L13,23.2c-0.6,0.4-1.4,0.4-1.9,0l-8.3-5.4C2.3,17.5,2,17,2,16.5V9.1
	l6.2,3.8l2.9,2c0.6,0.4,1.3,0.4,1.9,0l2.9-1.9L22,9.1V16.4z"/>
</svg>
