<?xml version="1.0" encoding="utf-8"?>
<!-- Generator: Adobe Illustrator 24.1.0, SVG Export Plug-In . SVG Version: 6.00 Build 0)  -->
<svg version="1.1" xmlns="http://www.w3.org/2000/svg" xmlns:xlink="http://www.w3.org/1999/xlink" x="0px" y="0px" width="32px"
	 height="32px" viewBox="0 0 32 32" style="enable-background:new 0 0 32 32;" xml:space="preserve">
<style type="text/css">
	.st0{fill:#161616;}
	.st1{filter:url(#Adobe_OpacityMaskFilter);}
	.st2{fill:#FFFFFF;}
	.st3{fill:url(#SVGID_1_);}
	.st4{mask:url(#shell_2_);fill:url(#shell_3_);}
	.st5{fill:#061F80;}
	.st6{filter:url(#Adobe_OpacityMaskFilter_1_);}
	.st7{filter:url(#Adobe_OpacityMaskFilter_2_);}
	.st8{fill:url(#SVGID_2_);}
	.st9{mask:url(#gradient_5_);fill:none;stroke:#FFFFFF;stroke-width:2;stroke-linejoin:round;stroke-miterlimit:10;}
	.st10{fill:url(#gradient_6_);}
	.st11{filter:url(#Adobe_OpacityMaskFilter_3_);}
	.st12{filter:url(#Adobe_OpacityMaskFilter_4_);}
	.st13{fill:none;stroke:url(#SVGID_3_);stroke-width:3;stroke-linejoin:round;stroke-miterlimit:10;}
	.st14{mask:url(#gradient_7_);fill:none;stroke:#FFFFFF;stroke-width:2;stroke-linejoin:round;stroke-miterlimit:10;}
	.st15{fill:url(#gradient_8_);}
	.st16{filter:url(#Adobe_OpacityMaskFilter_5_);}
	.st17{filter:url(#Adobe_OpacityMaskFilter_6_);}
	.st18{fill:url(#SVGID_4_);}
	.st19{mask:url(#gradient_9_);fill:none;stroke:#FFFFFF;stroke-width:2;stroke-linejoin:round;stroke-miterlimit:10;}
	.st20{fill:url(#gradient_10_);}
	.st21{fill:none;stroke:#061F80;stroke-width:2;stroke-linejoin:round;stroke-miterlimit:10;}
	.st22{display:none;fill:url(#gradient_11_);}
	.st23{fill:none;stroke:#161616;stroke-width:2;stroke-linejoin:round;stroke-miterlimit:10;}
	.st24{display:none;}
	.st25{display:inline;fill:url(#SVGID_5_);}
	.st26{filter:url(#Adobe_OpacityMaskFilter_7_);}
	.st27{filter:url(#Adobe_OpacityMaskFilter_8_);}
	.st28{fill:url(#SVGID_6_);}
	.st29{mask:url(#gradient_12_);fill:none;stroke:#FFFFFF;stroke-width:2;stroke-linejoin:round;stroke-miterlimit:10;}
	.st30{fill:url(#gradient_13_);}
</style>
<g id="Export_1_">
	<g id="shell_outline_9_">
		<path class="st0" d="M16,30c-0.2,0-0.3,0-0.5-0.1l-12-6.5C3.2,23.2,3,22.9,3,22.5v-13c0-0.4,0.2-0.7,0.5-0.9l12-6.5
			c0.3-0.2,0.7-0.2,1,0l12,6.5C28.8,8.8,29,9.1,29,9.5V22h-2V10.1l-11-6l-11,6v11.8l11,5.9l7.1-4.2l1,1.7l-7.6,4.4
			C16.3,30,16.2,30,16,30z"/>
	</g>
	<g id="center">
		<path class="st0" d="M16,23c-0.2,0-0.4,0-0.5-0.1l-5-3C10.2,19.7,10,19.4,10,19v-6c0-0.4,0.2-0.7,0.5-0.9l5-3c0.3-0.2,0.7-0.2,1,0
			l5,3c0.3,0.2,0.5,0.5,0.5,0.9v6c0,0.4-0.2,0.7-0.5,0.9l-5,3C16.4,23,16.2,23,16,23z M12,18.4l4,2.4l4-2.4v-4.9l-4-2.4l-4,2.4V18.4
			z"/>
	</g>
</g>
<g id="Export">
</g>
<g id="Armada_2_-_app_icon">
</g>
<g id="App_icon_shell">
</g>
<g id="Armada_-_app_icon">
</g>
<g id="IKS_-_UI_icon">
</g>
<g id="Armada_-_UI_icon">
</g>
<g id="Armada_2_-_uiIcon">
</g>
<g id="ROKS_-_app_icon">
</g>
<g id="ROKS_-_UI_icon">
</g>
<g id="blue_bit">
</g>
</svg>
