<?xml version="1.0" encoding="utf-8"?>
<!-- Generator: Adobe Illustrator 26.0.3, SVG Export Plug-In . SVG Version: 6.00 Build 0)  -->
<svg version="1.1" id="Layer_1" xmlns="http://www.w3.org/2000/svg" xmlns:xlink="http://www.w3.org/1999/xlink" x="0px" y="0px"
	 width="26px" height="28px" viewBox="0 0 26 28" style="enable-background:new 0 0 26 28;" xml:space="preserve">
<style type="text/css">
	.st0{fill:#161616;}
</style>
<path id="shell_outline" class="st0" d="M13,28c-0.2,0-0.3,0-0.5-0.1l-12-6.5C0.2,21.3,0,20.9,0,20.5v-13c0-0.4,0.2-0.7,0.5-0.9
	l12-6.5c0.3-0.2,0.7-0.2,1,0l12,6.5C25.8,6.8,26,7.2,26,7.6V20h-2V8.2l-11-6l-11,6v11.8l11,5.9l7.1-4.2l1,1.7l-7.6,4.4
	C13.3,28,13.2,28,13,28z"/>
<circle id="circle-bottom" class="st0" cx="6" cy="18" r="2"/>
<path id="circle-center" class="st0" d="M13,18c-2.2,0-4-1.8-4-4s1.8-4,4-4s4,1.8,4,4S15.2,18,13,18z M13,12.1c-1.1,0-2,0.9-2,2
	s0.9,2,2,2s2-0.9,2-2S14.1,12.1,13,12.1z"/>
<circle id="circle-top" class="st0" cx="20" cy="10.1" r="2"/>
</svg>
