<svg xmlns="http://www.w3.org/2000/svg" viewBox="0 0 12.4 16.2"><path d="M15,1.9H5A1.22,1.22,0,0,0,3.8,3.1V16.9A1.22,1.22,0,0,0,5,18.1H15a1.22,1.22,0,0,0,1.2-1.2V3.1A1.16,1.16,0,0,0,15,1.9Zm0,1.2V6.9H5V3.1ZM5,11.9V8.1H15v3.8Zm0,5V13.1H15v3.8ZM6.9,5.6A.65.65,0,0,0,7.5,5a.65.65,0,0,0-.6-.6c-.3,0-.7.3-.7.6A.67.67,0,0,0,6.9,5.6Zm0,5a.6.6,0,0,0,0-1.2c-.3,0-.7.3-.7.6A.67.67,0,0,0,6.9,10.6Zm0,5a.6.6,0,0,0,0-1.2c-.3,0-.7.3-.7.6A.67.67,0,0,0,6.9,15.6Z" transform="translate(-3.8 -1.9)" style="fill-rule:evenodd"/></svg>