<svg id="Layer_1" data-name="Layer 1" xmlns="http://www.w3.org/2000/svg" viewBox="0 0 26 28.05"><defs><style>.cls-1{fill:#161616;}</style></defs><path id="shell_outline" data-name="shell outline" class="cls-1" d="M16,30a.9.9,0,0,1-.5-.1l-12-6.5a1.05,1.05,0,0,1-.5-.9V9.5a1.05,1.05,0,0,1,.5-.9l12-6.5a.91.91,0,0,1,1,0l12,6.5a1.05,1.05,0,0,1,.5.9V22H27V10.1l-11-6-11,6V21.9l11,5.9,7.1-4.2,1,1.7-7.6,4.4C16.3,30,16.2,30,16,30Z" transform="translate(-3 -1.95)"/><circle id="circle-bottom" class="cls-1" cx="6" cy="18.05" r="2"/><path id="circle-center" class="cls-1" d="M16,20a4,4,0,1,1,4-4A4,4,0,0,1,16,20Zm0-6a2,2,0,1,0,2,2A2,2,0,0,0,16,14Z" transform="translate(-3 -1.95)"/><circle id="circle-top" class="cls-1" cx="20" cy="10.05" r="2"/></svg>