<?xml version="1.0" encoding="utf-8"?>
<!-- Generator: Adobe Illustrator 24.0.0, SVG Export Plug-In . SVG Version: 6.00 Build 0)  -->
<svg version="1.1" id="Layer_1" xmlns="http://www.w3.org/2000/svg" xmlns:xlink="http://www.w3.org/1999/xlink" x="0px" y="0px"
	 viewBox="0 0 32 32" style="enable-background:new 0 0 32 32;" xml:space="preserve">
<style type="text/css">
	.st0{fill-rule:evenodd;clip-rule:evenodd;}
	.st1{fill:none;}
</style>
<path class="st0" d="M23.4,22L10,8.6V2H2v8h6.6L22,23.4V30h8v-8H23.4z M8,8H4V4h4V8z M28,28h-4v-4h4V28z"/>
<path class="st0" d="M30,6c0-2.2-1.8-4-4-4c-1.8,0-3.4,1.2-3.9,3H13v2h9.1c0.4,1.4,1.5,2.5,2.9,2.9V19h2V9.9C28.8,9.4,30,7.8,30,6z
	 M26,8c-1.1,0-2-0.9-2-2s0.9-2,2-2s2,0.9,2,2C28,7.1,27.1,8,26,8z"/>
<path class="st0" d="M19,25H9.9c-0.4-1.4-1.5-2.5-2.9-2.9V13H5v9.1c-2.1,0.5-3.4,2.7-2.9,4.9s2.7,3.4,4.9,2.9
	c1.4-0.4,2.5-1.5,2.9-2.9H19V25z M6,28c-1.1,0-2-0.9-2-2s0.9-2,2-2s2,0.9,2,2C8,27.1,7.1,28,6,28z"/>
<rect class="st1" width="32" height="32"/>
</svg>
