<?xml version="1.0" encoding="utf-8"?>
<!-- Generator: Adobe Illustrator 24.0.0, SVG Export Plug-In . SVG Version: 6.00 Build 0)  -->
<svg version="1.1" id="Layer_1" xmlns="http://www.w3.org/2000/svg" xmlns:xlink="http://www.w3.org/1999/xlink" x="0px" y="0px"
	 viewBox="0 0 20 20" style="enable-background:new 0 0 20 20;" xml:space="preserve">
<style type="text/css">
	.st0{fill-rule:evenodd;clip-rule:evenodd;}
</style>
<path class="st0" d="M15,1.9H5c-0.7,0-1.2,0.6-1.2,1.2v13.8c0,0.7,0.6,1.2,1.2,1.2h10c0.7,0,1.2-0.6,1.2-1.2V3.1
	C16.2,2.4,15.7,1.9,15,1.9z M15,3.1v3.8H5V3.1H15z M5,11.9V8.1h10v3.8H5z M5,16.9v-3.8h10v3.8H5z M6.9,5.6c0.3,0,0.6-0.3,0.6-0.6
	S7.2,4.4,6.9,4.4S6.2,4.7,6.2,5S6.5,5.6,6.9,5.6z M6.9,10.6c0.3,0,0.6-0.3,0.6-0.6S7.2,9.4,6.9,9.4S6.2,9.7,6.2,10
	S6.5,10.6,6.9,10.6z M6.9,15.6c0.3,0,0.6-0.3,0.6-0.6s-0.3-0.6-0.6-0.6S6.2,14.7,6.2,15S6.5,15.6,6.9,15.6z"/>
</svg>
