<?xml version="1.0" encoding="utf-8"?>
<!-- Generator: Adobe Illustrator 25.4.1, SVG Export Plug-In . SVG Version: 6.00 Build 0)  -->
<svg version="1.1" id="Layer_1" xmlns="http://www.w3.org/2000/svg" xmlns:xlink="http://www.w3.org/1999/xlink" x="0px" y="0px"
	 width="12.4px" height="16.2px" viewBox="0 0 12.4 16.2" style="enable-background:new 0 0 12.4 16.2;" xml:space="preserve">
<style type="text/css">
	.st0{fill-rule:evenodd;clip-rule:evenodd;}
</style>
<path class="st0" d="M11.2,0h-10C0.5,0,0,0.5,0,1.2V15c0,0.7,0.5,1.2,1.2,1.2h10c0.7,0,1.2-0.5,1.2-1.2V1.2C12.4,0.6,11.9,0,11.2,0
	C11.3,0,11.2,0,11.2,0z M11.2,1.2V5h-10V1.2H11.2z M1.2,10V6.2h10V10L1.2,10z M1.2,15v-3.8h10V15H1.2z M3.1,3.7
	c0.3,0,0.6-0.3,0.6-0.6c0-0.3-0.3-0.6-0.6-0.6c-0.3,0-0.7,0.3-0.7,0.6C2.4,3.5,2.7,3.7,3.1,3.7z M3.1,8.7c0.3,0,0.6-0.3,0.6-0.6
	c0-0.3-0.3-0.6-0.6-0.6c-0.3,0-0.7,0.3-0.7,0.6C2.4,8.5,2.7,8.7,3.1,8.7z M3.1,13.7c0.3,0,0.6-0.3,0.6-0.6c0-0.3-0.3-0.6-0.6-0.6
	c-0.3,0-0.7,0.3-0.7,0.6C2.4,13.5,2.7,13.7,3.1,13.7z"/>
</svg>
