<?xml version="1.0" encoding="UTF-8"?><svg id="Layer_1" xmlns="http://www.w3.org/2000/svg" width="1033.32" height="674.93" viewBox="0 0 1033.32 674.93"><defs><style>.cls-1{fill:none;stroke:#000;stroke-miterlimit:10;stroke-width:2px;}.cls-2{font-family:IBMPlexMono, 'IBM Plex Mono';font-size:28px;}</style></defs><text class="cls-2" transform="translate(435.94 193.34)"><tspan x="0" y="0">∑ current CPU usage</tspan></text><text class="cls-2" transform="translate(437.96 267.11)"><tspan x="0" y="0">∑ requested CPU</tspan></text><line class="cls-1" x1="435.19" y1="221.98" x2="853.36" y2="221.98"/><path d="m879.61,228.31l-1.82-1.34,3.97-5.44-6.37-2.11.67-2.11,6.37,2.05v-6.91h2.37v6.91l6.37-2.05.67,2.11-6.37,2.11,3.97,5.44-1.82,1.34-4-5.5-4,5.5Z"/><path d="m938.03,230.61v-2.34h6.4v-18.02h-.22l-5.63,5.25-1.57-1.7,5.92-5.54h4.19v20h5.89v2.34h-14.98Z"/><path d="m964.11,230.99c-1.37,0-2.54-.26-3.52-.78-.98-.52-1.79-1.27-2.43-2.26-.64-.98-1.11-2.19-1.41-3.62-.3-1.43-.45-3.06-.45-4.9s.15-3.44.45-4.88c.3-1.44.77-2.65,1.41-3.63.64-.98,1.45-1.73,2.43-2.26.98-.52,2.15-.78,3.52-.78s2.54.26,3.52.78c.98.52,1.79,1.27,2.43,2.26.64.98,1.11,2.19,1.41,3.63.3,1.44.45,3.07.45,4.88s-.15,3.47-.45,4.9c-.3,1.43-.77,2.64-1.41,3.62-.64.98-1.45,1.73-2.43,2.26-.98.52-2.16.78-3.52.78Zm0-2.34c.9,0,1.66-.18,2.3-.53.64-.35,1.16-.85,1.55-1.49.39-.64.69-1.41.88-2.32.19-.91.29-1.92.29-3.06v-3.65c0-1.11-.1-2.12-.29-3.04-.19-.92-.49-1.7-.88-2.34-.4-.64-.91-1.14-1.55-1.49-.64-.35-1.41-.53-2.3-.53s-1.66.18-2.3.53c-.64.35-1.16.85-1.55,1.49-.4.64-.69,1.42-.88,2.34-.19.92-.29,1.93-.29,3.04v3.65c0,1.13.1,2.15.29,3.06.19.91.48,1.68.88,2.32.39.64.91,1.14,1.55,1.49.64.35,1.41.53,2.3.53Zm0-7.33c-.75,0-1.26-.15-1.55-.45s-.43-.66-.43-1.09v-.7c0-.43.14-.79.43-1.09.29-.3.8-.45,1.55-.45s1.26.15,1.55.45c.29.3.43.66.43,1.09v.7c0,.43-.14.79-.43,1.09s-.81.45-1.55.45Z"/><path d="m983.31,230.99c-1.37,0-2.54-.26-3.52-.78-.98-.52-1.79-1.27-2.43-2.26-.64-.98-1.11-2.19-1.41-3.62-.3-1.43-.45-3.06-.45-4.9s.15-3.44.45-4.88c.3-1.44.77-2.65,1.41-3.63.64-.98,1.45-1.73,2.43-2.26.98-.52,2.15-.78,3.52-.78s2.54.26,3.52.78c.98.52,1.79,1.27,2.43,2.26.64.98,1.11,2.19,1.41,3.63.3,1.44.45,3.07.45,4.88s-.15,3.47-.45,4.9c-.3,1.43-.77,2.64-1.41,3.62-.64.98-1.45,1.73-2.43,2.26-.98.52-2.16.78-3.52.78Zm0-2.34c.9,0,1.66-.18,2.3-.53.64-.35,1.16-.85,1.55-1.49.39-.64.69-1.41.88-2.32.19-.91.29-1.92.29-3.06v-3.65c0-1.11-.1-2.12-.29-3.04-.19-.92-.49-1.7-.88-2.34-.4-.64-.91-1.14-1.55-1.49-.64-.35-1.41-.53-2.3-.53s-1.66.18-2.3.53c-.64.35-1.16.85-1.55,1.49-.4.64-.69,1.42-.88,2.34-.19.92-.29,1.93-.29,3.04v3.65c0,1.13.1,2.15.29,3.06.19.91.48,1.68.88,2.32.39.64.91,1.14,1.55,1.49.64.35,1.41.53,2.3.53Zm0-7.33c-.75,0-1.26-.15-1.55-.45s-.43-.66-.43-1.09v-.7c0-.43.14-.79.43-1.09.29-.3.8-.45,1.55-.45s1.26.15,1.55.45c.29.3.43.66.43,1.09v.7c0,.43-.14.79-.43,1.09s-.81.45-1.55.45Z"/><text class="cls-2" transform="translate(437.71 431.64)"><tspan x="0" y="0">5m + 7m</tspan></text><text class="cls-2" transform="translate(803.99 462.77)"><tspan x="0" y="0">= 30%</tspan></text><text class="cls-2" transform="translate(440.14 492.95)"><tspan x="0" y="0">20m + 20m</tspan></text><line class="cls-1" x1="440.14" y1="452.61" x2="620.59" y2="452.61"/><path d="m658.02,460.85l-1.82-1.34,3.97-5.44-6.37-2.11.67-2.11,6.37,2.05v-6.91h2.37v6.91l6.37-2.05.67,2.11-6.37,2.11,3.97,5.44-1.82,1.34-4-5.5-4,5.5Z"/><path d="m716.44,463.15v-2.34h6.4v-18.02h-.22l-5.63,5.25-1.57-1.7,5.92-5.54h4.19v20h5.89v2.34h-14.98Z"/><path d="m742.52,463.54c-1.37,0-2.54-.26-3.52-.78-.98-.52-1.79-1.27-2.43-2.26-.64-.98-1.11-2.19-1.41-3.62-.3-1.43-.45-3.06-.45-4.9s.15-3.44.45-4.88c.3-1.44.77-2.65,1.41-3.63.64-.98,1.45-1.73,2.43-2.26.98-.52,2.15-.78,3.52-.78s2.54.26,3.52.78c.98.52,1.79,1.27,2.43,2.26.64.98,1.11,2.19,1.41,3.63.3,1.44.45,3.07.45,4.88s-.15,3.47-.45,4.9c-.3,1.43-.77,2.64-1.41,3.62-.64.98-1.45,1.73-2.43,2.26-.98.52-2.16.78-3.52.78Zm0-2.34c.9,0,1.66-.18,2.3-.53.64-.35,1.16-.85,1.55-1.49.39-.64.69-1.41.88-2.32.19-.91.29-1.92.29-3.06v-3.65c0-1.11-.1-2.12-.29-3.04-.19-.92-.49-1.7-.88-2.34-.4-.64-.91-1.14-1.55-1.49-.64-.35-1.41-.53-2.3-.53s-1.66.18-2.3.53c-.64.35-1.16.85-1.55,1.49-.4.64-.69,1.42-.88,2.34-.19.92-.29,1.93-.29,3.04v3.65c0,1.13.1,2.15.29,3.06.19.91.48,1.68.88,2.32.39.64.91,1.14,1.55,1.49.64.35,1.41.53,2.3.53Zm0-7.33c-.75,0-1.26-.15-1.55-.45s-.43-.66-.43-1.09v-.7c0-.43.14-.79.43-1.09.29-.3.8-.45,1.55-.45s1.26.15,1.55.45c.29.3.43.66.43,1.09v.7c0,.43-.14.79-.43,1.09s-.81.45-1.55.45Z"/><path d="m761.72,463.54c-1.37,0-2.54-.26-3.52-.78-.98-.52-1.79-1.27-2.43-2.26-.64-.98-1.11-2.19-1.41-3.62-.3-1.43-.45-3.06-.45-4.9s.15-3.44.45-4.88c.3-1.44.77-2.65,1.41-3.63.64-.98,1.45-1.73,2.43-2.26.98-.52,2.15-.78,3.52-.78s2.54.26,3.52.78c.98.52,1.79,1.27,2.43,2.26.64.98,1.11,2.19,1.41,3.63.3,1.44.45,3.07.45,4.88s-.15,3.47-.45,4.9c-.3,1.43-.77,2.64-1.41,3.62-.64.98-1.45,1.73-2.43,2.26-.98.52-2.16.78-3.52.78Zm0-2.34c.9,0,1.66-.18,2.3-.53.64-.35,1.16-.85,1.55-1.49.39-.64.69-1.41.88-2.32.19-.91.29-1.92.29-3.06v-3.65c0-1.11-.1-2.12-.29-3.04-.19-.92-.49-1.7-.88-2.34-.4-.64-.91-1.14-1.55-1.49-.64-.35-1.41-.53-2.3-.53s-1.66.18-2.3.53c-.64.35-1.16.85-1.55,1.49-.4.64-.69,1.42-.88,2.34-.19.92-.29,1.93-.29,3.04v3.65c0,1.13.1,2.15.29,3.06.19.91.48,1.68.88,2.32.39.64.91,1.14,1.55,1.49.64.35,1.41.53,2.3.53Zm0-7.33c-.75,0-1.26-.15-1.55-.45s-.43-.66-.43-1.09v-.7c0-.43.14-.79.43-1.09.29-.3.8-.45,1.55-.45s1.26.15,1.55.45c.29.3.43.66.43,1.09v.7c0,.43-.14.79-.43,1.09s-.81.45-1.55.45Z"/><text class="cls-2" transform="translate(46.3 230.61)"><tspan x="0" y="0">average CPU usage</tspan></text><text class="cls-2" transform="translate(371.06 230.61)"><tspan x="0" y="0">=</tspan></text></svg>