<svg width="1080" height="577" viewBox="0 0 1080 577" fill="none" xmlns="http://www.w3.org/2000/svg">
<rect width="1080" height="577" fill="#F4F4F4"/>
<rect x="288.5" y="137.5" width="527" height="302" fill="white"/>
<g clip-path="url(#clip0_621_37972)">
<line x1="290" y1="137" x2="290" y2="185" stroke="#8D8D8D" stroke-width="4"/>
<rect width="20" height="20" transform="translate(304 151)" fill="white" style="mix-blend-mode:multiply"/>
<path d="M314 165.375C313.875 165.375 313.75 165.375 313.688 165.312L310.562 163.438C310.375 163.312 310.25 163.125 310.25 162.875V159.125C310.25 158.875 310.375 158.688 310.562 158.562L313.688 156.688C313.75 156.625 313.875 156.625 314 156.625C314.125 156.625 314.25 156.625 314.312 156.688L317.438 158.562C317.625 158.688 317.75 158.875 317.75 159.125V162.875C317.75 163.125 317.625 163.312 317.438 163.438L314.312 165.312C314.25 165.375 314.125 165.375 314 165.375ZM311.5 162.5L314 164L316.5 162.5V159.438L314 157.938L311.5 159.438V162.5Z" fill="black"/>
<path d="M314 170.375C313.875 170.375 313.812 170.375 313.688 170.312L306.188 165.938C306 165.812 305.875 165.625 305.875 165.375V156.625C305.875 156.375 306 156.188 306.188 156.062L313.688 151.688C313.812 151.625 313.875 151.625 314 151.625C314.125 151.625 314.188 151.625 314.312 151.688L321.812 156.062L321.188 157.125L314 153L307.125 157V165.062L314 169.062L320.875 165.062V160.375H322.125V165.375C322.125 165.625 322 165.812 321.812 165.938L314.312 170.312C314.188 170.375 314.125 170.375 314 170.375Z" fill="black"/>
<path d="M344.942 166.168C346.692 166.168 347.854 165.314 348.554 163.858L347.056 162.976C346.734 163.858 346.048 164.53 344.942 164.53C343.57 164.53 342.688 163.578 342.688 161.898V160.358C342.688 158.692 343.57 157.698 344.942 157.698C346.034 157.698 346.65 158.286 346.93 159.154L348.512 158.314C347.826 156.802 346.692 156.06 344.942 156.06C342.366 156.06 340.728 157.894 340.728 161.184C340.728 164.474 342.366 166.168 344.942 166.168ZM352.936 166V164.572H351.97V155.64H350.178V164.236C350.178 165.356 350.752 166 351.97 166H352.936ZM358.822 166H360.614V158.692H358.822V163.522C358.822 164.306 358.108 164.684 357.394 164.684C356.54 164.684 356.162 164.138 356.162 163.13V158.692H354.37V163.312C354.37 165.132 355.21 166.168 356.708 166.168C357.912 166.168 358.5 165.51 358.752 164.782H358.822V166ZM365.238 166.168C367.058 166.168 368.248 165.188 368.248 163.774C368.248 162.556 367.478 161.842 365.882 161.618L365.14 161.52C364.454 161.408 364.188 161.184 364.188 160.694C364.188 160.246 364.524 159.938 365.294 159.938C366.008 159.938 366.624 160.274 367.044 160.722L368.094 159.672C367.394 158.944 366.666 158.524 365.238 158.524C363.572 158.524 362.466 159.42 362.466 160.834C362.466 162.164 363.334 162.85 364.902 163.046L365.63 163.144C366.274 163.228 366.526 163.494 366.526 163.914C366.526 164.432 366.162 164.754 365.308 164.754C364.482 164.754 363.838 164.376 363.306 163.76L362.214 164.824C362.942 165.664 363.852 166.168 365.238 166.168ZM372.163 166H373.451V164.572H372.065V160.12H373.563V158.692H372.065V156.69H370.455V157.936C370.455 158.44 370.287 158.692 369.755 158.692H369.195V160.12H370.273V164.138C370.273 165.328 370.931 166 372.163 166ZM378.177 166.168C379.535 166.168 380.599 165.65 381.201 164.824L380.235 163.746C379.787 164.32 379.255 164.74 378.373 164.74C377.197 164.74 376.595 164.026 376.595 162.976V162.794H381.453V162.206C381.453 160.204 380.403 158.524 378.121 158.524C375.979 158.524 374.733 160.022 374.733 162.332C374.733 164.67 376.021 166.168 378.177 166.168ZM378.149 159.868C379.073 159.868 379.591 160.554 379.591 161.562V161.688H376.595V161.576C376.595 160.568 377.211 159.868 378.149 159.868ZM384.981 166V161.52C384.981 160.722 385.611 160.386 386.815 160.386H387.375V158.692H386.983C385.821 158.692 385.233 159.434 385.051 160.204H384.981V158.692H383.189V166H384.981Z" fill="black"/>
</g>
<rect x="288.5" y="137.5" width="527" height="302" stroke="#8D8D8D"/>
<path d="M304.5 200.5H536C540.142 200.5 543.5 203.858 543.5 208V416C543.5 420.142 540.142 423.5 536 423.5H304.5V200.5Z" fill="white"/>
<path d="M305 201H536C539.866 201 543 204.134 543 208V416C543 419.866 539.866 423 536 423H305V201Z" fill="#EDF5FF"/>
<g clip-path="url(#clip1_621_37972)">
<line x1="306" y1="200" x2="306" y2="248" stroke="#0F62FE" stroke-width="4"/>
<path d="M326.888 229H328.918V219.228H327.168V226.27H327.126L326.118 224.24L323.178 219.228H321.148V229H322.898V221.958H322.94L323.948 223.988L326.888 229ZM333.064 229.168C334.157 229.168 334.955 228.678 335.193 227.74H335.277C335.389 228.496 335.865 229 336.635 229H337.629V227.572H336.901V224.128C336.901 222.462 335.85 221.524 333.876 221.524C332.406 221.524 331.552 222.084 331.02 222.924L332.084 223.876C332.434 223.372 332.91 222.952 333.75 222.952C334.703 222.952 335.108 223.428 335.108 224.24V224.772H333.863C331.874 224.772 330.74 225.514 330.74 227.012C330.74 228.314 331.58 229.168 333.064 229.168ZM333.666 227.866C332.966 227.866 332.56 227.572 332.56 226.984V226.746C332.56 226.172 333.022 225.85 333.961 225.85H335.108V226.816C335.108 227.502 334.464 227.866 333.666 227.866ZM341.031 229V224.17C341.031 223.386 341.703 222.994 342.389 222.994C343.187 222.994 343.565 223.512 343.565 224.562V229H345.357V224.17C345.357 223.386 346.015 222.994 346.715 222.994C347.513 222.994 347.891 223.512 347.891 224.562V229H349.683V224.38C349.683 222.56 348.871 221.524 347.443 221.524C346.281 221.524 345.469 222.182 345.203 222.994H345.175C344.825 222.014 344.055 221.524 343.061 221.524C341.969 221.524 341.381 222.14 341.101 222.91H341.031V221.692H339.239V229H341.031ZM354.781 229.168C356.139 229.168 357.203 228.65 357.805 227.824L356.839 226.746C356.391 227.32 355.859 227.74 354.977 227.74C353.801 227.74 353.199 227.026 353.199 225.976V225.794H358.057V225.206C358.057 223.204 357.007 221.524 354.725 221.524C352.583 221.524 351.337 223.022 351.337 225.332C351.337 227.67 352.625 229.168 354.781 229.168ZM354.753 222.868C355.677 222.868 356.195 223.554 356.195 224.562V224.688H353.199V224.576C353.199 223.568 353.815 222.868 354.753 222.868ZM362.187 229.168C364.007 229.168 365.197 228.188 365.197 226.774C365.197 225.556 364.427 224.842 362.831 224.618L362.089 224.52C361.403 224.408 361.137 224.184 361.137 223.694C361.137 223.246 361.473 222.938 362.243 222.938C362.957 222.938 363.573 223.274 363.993 223.722L365.043 222.672C364.343 221.944 363.615 221.524 362.187 221.524C360.521 221.524 359.415 222.42 359.415 223.834C359.415 225.164 360.283 225.85 361.851 226.046L362.579 226.144C363.223 226.228 363.475 226.494 363.475 226.914C363.475 227.432 363.111 227.754 362.257 227.754C361.431 227.754 360.787 227.376 360.255 226.76L359.163 227.824C359.891 228.664 360.801 229.168 362.187 229.168ZM366.94 231.8H368.732V227.782H368.788C369.068 228.608 369.838 229.168 370.804 229.168C372.652 229.168 373.674 227.782 373.674 225.332C373.674 222.896 372.652 221.524 370.804 221.524C369.838 221.524 369.054 222.056 368.788 222.896H368.732V221.692H366.94V231.8ZM370.23 227.684C369.376 227.684 368.732 227.25 368.732 226.494V224.17C368.732 223.456 369.376 222.994 370.23 222.994C371.154 222.994 371.798 223.68 371.798 224.716V225.976C371.798 227.012 371.154 227.684 370.23 227.684ZM377.3 229.168C378.392 229.168 379.19 228.678 379.428 227.74H379.512C379.624 228.496 380.1 229 380.87 229H381.864V227.572H381.136V224.128C381.136 222.462 380.086 221.524 378.112 221.524C376.642 221.524 375.788 222.084 375.256 222.924L376.32 223.876C376.67 223.372 377.146 222.952 377.986 222.952C378.938 222.952 379.344 223.428 379.344 224.24V224.772H378.098C376.11 224.772 374.976 225.514 374.976 227.012C374.976 228.314 375.816 229.168 377.3 229.168ZM377.902 227.866C377.202 227.866 376.796 227.572 376.796 226.984V226.746C376.796 226.172 377.258 225.85 378.196 225.85H379.344V226.816C379.344 227.502 378.7 227.866 377.902 227.866ZM386.358 229.168C387.772 229.168 388.794 228.524 389.27 227.236L387.898 226.578C387.632 227.236 387.212 227.726 386.358 227.726C385.364 227.726 384.86 227.04 384.86 226.018V224.688C384.86 223.666 385.364 222.966 386.358 222.966C387.128 222.966 387.59 223.414 387.758 224.03L389.228 223.372C388.794 222.224 387.828 221.524 386.358 221.524C384.202 221.524 382.984 222.994 382.984 225.332C382.984 227.684 384.202 229.168 386.358 229.168ZM393.698 229.168C395.056 229.168 396.12 228.65 396.722 227.824L395.756 226.746C395.308 227.32 394.776 227.74 393.894 227.74C392.718 227.74 392.116 227.026 392.116 225.976V225.794H396.974V225.206C396.974 223.204 395.924 221.524 393.642 221.524C391.5 221.524 390.254 223.022 390.254 225.332C390.254 227.67 391.542 229.168 393.698 229.168ZM393.67 222.868C394.594 222.868 395.112 223.554 395.112 224.562V224.688H392.116V224.576C392.116 223.568 392.732 222.868 393.67 222.868ZM402.627 225.626V223.848H398.623V225.626H402.627ZM411.612 229V227.502H409.372V219.228H406.586L404.164 222.112L405.312 223.078L407.44 220.558H407.566V227.502H404.878V229H411.612ZM417.853 229.154C418.623 229.154 418.973 228.72 418.973 228.132V227.88C418.973 227.278 418.623 226.844 417.853 226.844C417.097 226.844 416.733 227.278 416.733 227.88V228.132C416.733 228.72 417.097 229.154 417.853 229.154ZM417.853 223.848C418.623 223.848 418.973 223.414 418.973 222.826V222.574C418.973 221.972 418.623 221.538 417.853 221.538C417.097 221.538 416.733 221.972 416.733 222.574V222.826C416.733 223.414 417.097 223.848 417.853 223.848ZM424.749 229H426.541V226.774L427.507 225.724L429.383 229H431.511L428.725 224.52L431.245 221.692H429.215L427.577 223.568L426.611 224.884H426.541V218.64H424.749V229ZM437.001 229H438.793V221.692H437.001V226.522C437.001 227.306 436.287 227.684 435.573 227.684C434.719 227.684 434.341 227.138 434.341 226.13V221.692H432.549V226.312C432.549 228.132 433.389 229.168 434.887 229.168C436.091 229.168 436.679 228.51 436.931 227.782H437.001V229ZM441.024 229H442.816V227.782H442.872C443.152 228.608 443.922 229.168 444.888 229.168C446.736 229.168 447.758 227.782 447.758 225.332C447.758 222.896 446.736 221.524 444.888 221.524C443.922 221.524 443.138 222.056 442.872 222.896H442.816V218.64H441.024V229ZM444.314 227.684C443.46 227.684 442.816 227.25 442.816 226.494V224.17C442.816 223.456 443.46 222.994 444.314 222.994C445.238 222.994 445.882 223.68 445.882 224.716V225.976C445.882 227.012 445.238 227.684 444.314 227.684ZM452.532 229.168C453.89 229.168 454.954 228.65 455.556 227.824L454.59 226.746C454.142 227.32 453.61 227.74 452.728 227.74C451.552 227.74 450.95 227.026 450.95 225.976V225.794H455.808V225.206C455.808 223.204 454.758 221.524 452.476 221.524C450.334 221.524 449.088 223.022 449.088 225.332C449.088 227.67 450.376 229.168 452.532 229.168ZM452.504 222.868C453.428 222.868 453.946 223.554 453.946 224.562V224.688H450.95V224.576C450.95 223.568 451.566 222.868 452.504 222.868ZM461.462 225.626V223.848H457.458V225.626H461.462ZM465.923 229.168C467.743 229.168 468.933 228.188 468.933 226.774C468.933 225.556 468.163 224.842 466.567 224.618L465.825 224.52C465.139 224.408 464.873 224.184 464.873 223.694C464.873 223.246 465.209 222.938 465.979 222.938C466.693 222.938 467.309 223.274 467.729 223.722L468.779 222.672C468.079 221.944 467.351 221.524 465.923 221.524C464.257 221.524 463.151 222.42 463.151 223.834C463.151 225.164 464.019 225.85 465.587 226.046L466.315 226.144C466.959 226.228 467.211 226.494 467.211 226.914C467.211 227.432 466.847 227.754 465.993 227.754C465.167 227.754 464.523 227.376 463.991 226.76L462.899 227.824C463.627 228.664 464.537 229.168 465.923 229.168ZM473.717 225.556L473.213 227.404H473.129L472.653 225.556L471.379 221.692H469.601L472.219 229.35L471.883 230.372H470.567V231.8H471.645C472.849 231.8 473.367 231.352 473.731 230.302L476.671 221.692H474.991L473.717 225.556ZM480.298 229.168C482.118 229.168 483.308 228.188 483.308 226.774C483.308 225.556 482.538 224.842 480.942 224.618L480.2 224.52C479.514 224.408 479.248 224.184 479.248 223.694C479.248 223.246 479.584 222.938 480.354 222.938C481.068 222.938 481.684 223.274 482.104 223.722L483.154 222.672C482.454 221.944 481.726 221.524 480.298 221.524C478.632 221.524 477.526 222.42 477.526 223.834C477.526 225.164 478.394 225.85 479.962 226.046L480.69 226.144C481.334 226.228 481.586 226.494 481.586 226.914C481.586 227.432 481.222 227.754 480.368 227.754C479.542 227.754 478.898 227.376 478.366 226.76L477.274 227.824C478.002 228.664 478.912 229.168 480.298 229.168ZM487.223 229H488.511V227.572H487.125V223.12H488.623V221.692H487.125V219.69H485.515V220.936C485.515 221.44 485.347 221.692 484.815 221.692H484.255V223.12H485.333V227.138C485.333 228.328 485.991 229 487.223 229ZM493.236 229.168C494.594 229.168 495.658 228.65 496.26 227.824L495.294 226.746C494.846 227.32 494.314 227.74 493.432 227.74C492.256 227.74 491.654 227.026 491.654 225.976V225.794H496.512V225.206C496.512 223.204 495.462 221.524 493.18 221.524C491.038 221.524 489.792 223.022 489.792 225.332C489.792 227.67 491.08 229.168 493.236 229.168ZM493.208 222.868C494.132 222.868 494.65 223.554 494.65 224.562V224.688H491.654V224.576C491.654 223.568 492.27 222.868 493.208 222.868ZM500.041 229V224.17C500.041 223.386 500.713 222.994 501.399 222.994C502.197 222.994 502.575 223.512 502.575 224.562V229H504.367V224.17C504.367 223.386 505.025 222.994 505.725 222.994C506.523 222.994 506.901 223.512 506.901 224.562V229H508.693V224.38C508.693 222.56 507.881 221.524 506.453 221.524C505.291 221.524 504.479 222.182 504.213 222.994H504.185C503.835 222.014 503.065 221.524 502.071 221.524C500.979 221.524 500.391 222.14 500.111 222.91H500.041V221.692H498.249V229H500.041Z" fill="black"/>
</g>
<path d="M304.5 200.5H536C540.142 200.5 543.5 203.858 543.5 208V416C543.5 420.142 540.142 423.5 536 423.5H304.5V200.5Z" stroke="#0F62FE"/>
<rect x="320.5" y="265.5" width="95" height="143" fill="white"/>
<rect x="321" y="266" width="94" height="142" fill="white"/>
<g clip-path="url(#clip2_621_37972)">
<line x1="322" y1="265" x2="322" y2="313" stroke="#8D8D8D" stroke-width="4"/>
<path d="M338.996 294V290.276H341.544C343.35 290.276 344.442 289.072 344.442 287.252C344.442 285.446 343.35 284.228 341.544 284.228H337.148V294H338.996ZM338.996 285.838H341.376C342.09 285.838 342.524 286.216 342.524 286.93V287.574C342.524 288.288 342.09 288.68 341.376 288.68H338.996V285.838ZM348.789 294.168C350.889 294.168 352.191 292.684 352.191 290.332C352.191 287.994 350.889 286.524 348.789 286.524C346.703 286.524 345.401 287.994 345.401 290.332C345.401 292.684 346.703 294.168 348.789 294.168ZM348.789 292.726C347.865 292.726 347.277 292.124 347.277 291.018V289.66C347.277 288.568 347.865 287.966 348.789 287.966C349.727 287.966 350.315 288.568 350.315 289.66V291.018C350.315 292.124 349.727 292.726 348.789 292.726ZM358.476 294H360.268V283.64H358.476V287.896H358.406C358.154 287.056 357.356 286.524 356.39 286.524C354.556 286.524 353.534 287.896 353.534 290.332C353.534 292.782 354.556 294.168 356.39 294.168C357.356 294.168 358.14 293.608 358.406 292.782H358.476V294ZM356.964 292.684C356.04 292.684 355.41 292.012 355.41 290.976V289.716C355.41 288.68 356.04 287.994 356.964 287.994C357.818 287.994 358.476 288.456 358.476 289.17V291.494C358.476 292.25 357.818 292.684 356.964 292.684Z" fill="black"/>
</g>
<rect x="320.5" y="265.5" width="95" height="143" stroke="#8D8D8D"/>
<rect width="48" height="48" transform="translate(344.5 313)" fill="#0F62FE"/>
<rect width="20" height="20" transform="translate(358.5 327)" fill="white" style="mix-blend-mode:multiply"/>
<path d="M376 334.5H371V329.5H376V334.5ZM372.25 333.25H374.75V330.75H372.25V333.25Z" fill="white"/>
<path d="M369.125 336.375V332.625H364.125V341.375H372.875V336.375H369.125ZM365.375 333.875H367.875V336.375H365.375V333.875ZM367.875 340.125H365.375V337.625H367.875V340.125ZM371.625 340.125H369.125V337.625H371.625V340.125Z" fill="white"/>
<path d="M374.75 344.5H362.25C361.919 344.5 361.601 344.368 361.367 344.133C361.132 343.899 361 343.581 361 343.25V330.75C361 330.419 361.132 330.101 361.367 329.867C361.601 329.632 361.919 329.5 362.25 329.5H368.5V330.75H362.25V343.25H374.75V337H376V343.25C376 343.581 375.868 343.899 375.633 344.133C375.399 344.368 375.081 344.5 374.75 344.5Z" fill="white"/>
<path d="M341.022 383.168C342.772 383.168 343.934 382.314 344.634 380.858L343.136 379.976C342.814 380.858 342.128 381.53 341.022 381.53C339.65 381.53 338.768 380.578 338.768 378.898V377.358C338.768 375.692 339.65 374.698 341.022 374.698C342.114 374.698 342.73 375.286 343.01 376.154L344.592 375.314C343.906 373.802 342.772 373.06 341.022 373.06C338.446 373.06 336.808 374.894 336.808 378.184C336.808 381.474 338.446 383.168 341.022 383.168ZM349.156 383.168C351.256 383.168 352.558 381.684 352.558 379.332C352.558 376.994 351.256 375.524 349.156 375.524C347.07 375.524 345.768 376.994 345.768 379.332C345.768 381.684 347.07 383.168 349.156 383.168ZM349.156 381.726C348.232 381.726 347.644 381.124 347.644 380.018V378.66C347.644 377.568 348.232 376.966 349.156 376.966C350.094 376.966 350.682 377.568 350.682 378.66V380.018C350.682 381.124 350.094 381.726 349.156 381.726ZM356.099 383V378.17C356.099 377.386 356.813 376.994 357.555 376.994C358.409 376.994 358.759 377.526 358.759 378.562V383H360.551V378.38C360.551 376.56 359.711 375.524 358.213 375.524C357.079 375.524 356.463 376.126 356.169 376.91H356.099V375.692H354.307V383H356.099ZM364.979 383H366.267V381.572H364.881V377.12H366.379V375.692H364.881V373.69H363.271V374.936C363.271 375.44 363.103 375.692 362.571 375.692H362.011V377.12H363.089V381.138C363.089 382.328 363.747 383 364.979 383ZM369.9 383.168C370.992 383.168 371.79 382.678 372.028 381.74H372.112C372.224 382.496 372.7 383 373.47 383H374.464V381.572H373.736V378.128C373.736 376.462 372.686 375.524 370.712 375.524C369.242 375.524 368.388 376.084 367.856 376.924L368.92 377.876C369.27 377.372 369.746 376.952 370.586 376.952C371.538 376.952 371.944 377.428 371.944 378.24V378.772H370.698C368.71 378.772 367.576 379.514 367.576 381.012C367.576 382.314 368.416 383.168 369.9 383.168ZM370.502 381.866C369.802 381.866 369.396 381.572 369.396 380.984V380.746C369.396 380.172 369.858 379.85 370.796 379.85H371.944V380.816C371.944 381.502 371.3 381.866 370.502 381.866ZM376.97 374.628C377.698 374.628 378.02 374.25 378.02 373.732V373.452C378.02 372.934 377.698 372.556 376.97 372.556C376.228 372.556 375.92 372.934 375.92 373.452V373.732C375.92 374.25 376.228 374.628 376.97 374.628ZM376.074 383H377.866V375.692H376.074V383ZM381.895 383V378.17C381.895 377.386 382.609 376.994 383.351 376.994C384.205 376.994 384.555 377.526 384.555 378.562V383H386.347V378.38C386.347 376.56 385.507 375.524 384.009 375.524C382.875 375.524 382.259 376.126 381.965 376.91H381.895V375.692H380.103V383H381.895ZM391.448 383.168C392.806 383.168 393.87 382.65 394.472 381.824L393.506 380.746C393.058 381.32 392.526 381.74 391.644 381.74C390.468 381.74 389.866 381.026 389.866 379.976V379.794H394.724V379.206C394.724 377.204 393.674 375.524 391.392 375.524C389.25 375.524 388.004 377.022 388.004 379.332C388.004 381.67 389.292 383.168 391.448 383.168ZM391.42 376.868C392.344 376.868 392.862 377.554 392.862 378.562V378.688H389.866V378.576C389.866 377.568 390.482 376.868 391.42 376.868ZM398.252 383V378.52C398.252 377.722 398.882 377.386 400.086 377.386H400.646V375.692H400.254C399.092 375.692 398.504 376.434 398.322 377.204H398.252V375.692H396.46V383H398.252Z" fill="black"/>
<rect x="432.5" y="265.5" width="95" height="143" fill="white"/>
<rect x="433" y="266" width="94" height="142" fill="white"/>
<g clip-path="url(#clip3_621_37972)">
<line x1="434" y1="265" x2="434" y2="313" stroke="#8D8D8D" stroke-width="4"/>
<path d="M450.996 294V290.276H453.544C455.35 290.276 456.442 289.072 456.442 287.252C456.442 285.446 455.35 284.228 453.544 284.228H449.148V294H450.996ZM450.996 285.838H453.376C454.09 285.838 454.524 286.216 454.524 286.93V287.574C454.524 288.288 454.09 288.68 453.376 288.68H450.996V285.838ZM460.789 294.168C462.889 294.168 464.191 292.684 464.191 290.332C464.191 287.994 462.889 286.524 460.789 286.524C458.703 286.524 457.401 287.994 457.401 290.332C457.401 292.684 458.703 294.168 460.789 294.168ZM460.789 292.726C459.865 292.726 459.277 292.124 459.277 291.018V289.66C459.277 288.568 459.865 287.966 460.789 287.966C461.727 287.966 462.315 288.568 462.315 289.66V291.018C462.315 292.124 461.727 292.726 460.789 292.726ZM470.476 294H472.268V283.64H470.476V287.896H470.406C470.154 287.056 469.356 286.524 468.39 286.524C466.556 286.524 465.534 287.896 465.534 290.332C465.534 292.782 466.556 294.168 468.39 294.168C469.356 294.168 470.14 293.608 470.406 292.782H470.476V294ZM468.964 292.684C468.04 292.684 467.41 292.012 467.41 290.976V289.716C467.41 288.68 468.04 287.994 468.964 287.994C469.818 287.994 470.476 288.456 470.476 289.17V291.494C470.476 292.25 469.818 292.684 468.964 292.684Z" fill="black"/>
</g>
<rect x="432.5" y="265.5" width="95" height="143" stroke="#8D8D8D"/>
<rect width="48" height="48" transform="translate(456.5 313)" fill="#0F62FE"/>
<rect width="20" height="20" transform="translate(470.5 327)" fill="white" style="mix-blend-mode:multiply"/>
<path d="M488 334.5H483V329.5H488V334.5ZM484.25 333.25H486.75V330.75H484.25V333.25Z" fill="white"/>
<path d="M481.125 336.375V332.625H476.125V341.375H484.875V336.375H481.125ZM477.375 333.875H479.875V336.375H477.375V333.875ZM479.875 340.125H477.375V337.625H479.875V340.125ZM483.625 340.125H481.125V337.625H483.625V340.125Z" fill="white"/>
<path d="M486.75 344.5H474.25C473.919 344.5 473.601 344.368 473.367 344.133C473.132 343.899 473 343.581 473 343.25V330.75C473 330.419 473.132 330.101 473.367 329.867C473.601 329.632 473.919 329.5 474.25 329.5H480.5V330.75H474.25V343.25H486.75V337H488V343.25C488 343.581 487.868 343.899 487.633 344.133C487.399 344.368 487.081 344.5 486.75 344.5Z" fill="white"/>
<path d="M453.022 383.168C454.772 383.168 455.934 382.314 456.634 380.858L455.136 379.976C454.814 380.858 454.128 381.53 453.022 381.53C451.65 381.53 450.768 380.578 450.768 378.898V377.358C450.768 375.692 451.65 374.698 453.022 374.698C454.114 374.698 454.73 375.286 455.01 376.154L456.592 375.314C455.906 373.802 454.772 373.06 453.022 373.06C450.446 373.06 448.808 374.894 448.808 378.184C448.808 381.474 450.446 383.168 453.022 383.168ZM461.156 383.168C463.256 383.168 464.558 381.684 464.558 379.332C464.558 376.994 463.256 375.524 461.156 375.524C459.07 375.524 457.768 376.994 457.768 379.332C457.768 381.684 459.07 383.168 461.156 383.168ZM461.156 381.726C460.232 381.726 459.644 381.124 459.644 380.018V378.66C459.644 377.568 460.232 376.966 461.156 376.966C462.094 376.966 462.682 377.568 462.682 378.66V380.018C462.682 381.124 462.094 381.726 461.156 381.726ZM468.099 383V378.17C468.099 377.386 468.813 376.994 469.555 376.994C470.409 376.994 470.759 377.526 470.759 378.562V383H472.551V378.38C472.551 376.56 471.711 375.524 470.213 375.524C469.079 375.524 468.463 376.126 468.169 376.91H468.099V375.692H466.307V383H468.099ZM476.979 383H478.267V381.572H476.881V377.12H478.379V375.692H476.881V373.69H475.271V374.936C475.271 375.44 475.103 375.692 474.571 375.692H474.011V377.12H475.089V381.138C475.089 382.328 475.747 383 476.979 383ZM481.9 383.168C482.992 383.168 483.79 382.678 484.028 381.74H484.112C484.224 382.496 484.7 383 485.47 383H486.464V381.572H485.736V378.128C485.736 376.462 484.686 375.524 482.712 375.524C481.242 375.524 480.388 376.084 479.856 376.924L480.92 377.876C481.27 377.372 481.746 376.952 482.586 376.952C483.538 376.952 483.944 377.428 483.944 378.24V378.772H482.698C480.71 378.772 479.576 379.514 479.576 381.012C479.576 382.314 480.416 383.168 481.9 383.168ZM482.502 381.866C481.802 381.866 481.396 381.572 481.396 380.984V380.746C481.396 380.172 481.858 379.85 482.796 379.85H483.944V380.816C483.944 381.502 483.3 381.866 482.502 381.866ZM488.97 374.628C489.698 374.628 490.02 374.25 490.02 373.732V373.452C490.02 372.934 489.698 372.556 488.97 372.556C488.228 372.556 487.92 372.934 487.92 373.452V373.732C487.92 374.25 488.228 374.628 488.97 374.628ZM488.074 383H489.866V375.692H488.074V383ZM493.895 383V378.17C493.895 377.386 494.609 376.994 495.351 376.994C496.205 376.994 496.555 377.526 496.555 378.562V383H498.347V378.38C498.347 376.56 497.507 375.524 496.009 375.524C494.875 375.524 494.259 376.126 493.965 376.91H493.895V375.692H492.103V383H493.895ZM503.448 383.168C504.806 383.168 505.87 382.65 506.472 381.824L505.506 380.746C505.058 381.32 504.526 381.74 503.644 381.74C502.468 381.74 501.866 381.026 501.866 379.976V379.794H506.724V379.206C506.724 377.204 505.674 375.524 503.392 375.524C501.25 375.524 500.004 377.022 500.004 379.332C500.004 381.67 501.292 383.168 503.448 383.168ZM503.42 376.868C504.344 376.868 504.862 377.554 504.862 378.562V378.688H501.866V378.576C501.866 377.568 502.482 376.868 503.42 376.868ZM510.252 383V378.52C510.252 377.722 510.882 377.386 512.086 377.386H512.646V375.692H512.254C511.092 375.692 510.504 376.434 510.322 377.204H510.252V375.692H508.46V383H510.252Z" fill="black"/>
<path d="M560.5 200.5H792C796.142 200.5 799.5 203.858 799.5 208V416C799.5 420.142 796.142 423.5 792 423.5H560.5V200.5Z" fill="white"/>
<path d="M561 201H792C795.866 201 799 204.134 799 208V416C799 419.866 795.866 423 792 423H561V201Z" fill="#EDF5FF"/>
<g clip-path="url(#clip4_621_37972)">
<line x1="562" y1="200" x2="562" y2="248" stroke="#0F62FE" stroke-width="4"/>
<path d="M582.888 229H584.918V219.228H583.168V226.27H583.126L582.118 224.24L579.178 219.228H577.148V229H578.898V221.958H578.94L579.948 223.988L582.888 229ZM589.064 229.168C590.157 229.168 590.955 228.678 591.193 227.74H591.277C591.389 228.496 591.865 229 592.635 229H593.629V227.572H592.901V224.128C592.901 222.462 591.85 221.524 589.876 221.524C588.406 221.524 587.552 222.084 587.02 222.924L588.084 223.876C588.434 223.372 588.91 222.952 589.75 222.952C590.703 222.952 591.108 223.428 591.108 224.24V224.772H589.863C587.874 224.772 586.74 225.514 586.74 227.012C586.74 228.314 587.58 229.168 589.064 229.168ZM589.666 227.866C588.966 227.866 588.56 227.572 588.56 226.984V226.746C588.56 226.172 589.022 225.85 589.961 225.85H591.108V226.816C591.108 227.502 590.464 227.866 589.666 227.866ZM597.031 229V224.17C597.031 223.386 597.703 222.994 598.389 222.994C599.187 222.994 599.565 223.512 599.565 224.562V229H601.357V224.17C601.357 223.386 602.015 222.994 602.715 222.994C603.513 222.994 603.891 223.512 603.891 224.562V229H605.683V224.38C605.683 222.56 604.871 221.524 603.443 221.524C602.281 221.524 601.469 222.182 601.203 222.994H601.175C600.825 222.014 600.055 221.524 599.061 221.524C597.969 221.524 597.381 222.14 597.101 222.91H597.031V221.692H595.239V229H597.031ZM610.781 229.168C612.139 229.168 613.203 228.65 613.805 227.824L612.839 226.746C612.391 227.32 611.859 227.74 610.977 227.74C609.801 227.74 609.199 227.026 609.199 225.976V225.794H614.057V225.206C614.057 223.204 613.007 221.524 610.725 221.524C608.583 221.524 607.337 223.022 607.337 225.332C607.337 227.67 608.625 229.168 610.781 229.168ZM610.753 222.868C611.677 222.868 612.195 223.554 612.195 224.562V224.688H609.199V224.576C609.199 223.568 609.815 222.868 610.753 222.868ZM618.187 229.168C620.007 229.168 621.197 228.188 621.197 226.774C621.197 225.556 620.427 224.842 618.831 224.618L618.089 224.52C617.403 224.408 617.137 224.184 617.137 223.694C617.137 223.246 617.473 222.938 618.243 222.938C618.957 222.938 619.573 223.274 619.993 223.722L621.043 222.672C620.343 221.944 619.615 221.524 618.187 221.524C616.521 221.524 615.415 222.42 615.415 223.834C615.415 225.164 616.283 225.85 617.851 226.046L618.579 226.144C619.223 226.228 619.475 226.494 619.475 226.914C619.475 227.432 619.111 227.754 618.257 227.754C617.431 227.754 616.787 227.376 616.255 226.76L615.163 227.824C615.891 228.664 616.801 229.168 618.187 229.168ZM622.94 231.8H624.732V227.782H624.788C625.068 228.608 625.838 229.168 626.804 229.168C628.652 229.168 629.674 227.782 629.674 225.332C629.674 222.896 628.652 221.524 626.804 221.524C625.838 221.524 625.054 222.056 624.788 222.896H624.732V221.692H622.94V231.8ZM626.23 227.684C625.376 227.684 624.732 227.25 624.732 226.494V224.17C624.732 223.456 625.376 222.994 626.23 222.994C627.154 222.994 627.798 223.68 627.798 224.716V225.976C627.798 227.012 627.154 227.684 626.23 227.684ZM633.3 229.168C634.392 229.168 635.19 228.678 635.428 227.74H635.512C635.624 228.496 636.1 229 636.87 229H637.864V227.572H637.136V224.128C637.136 222.462 636.086 221.524 634.112 221.524C632.642 221.524 631.788 222.084 631.256 222.924L632.32 223.876C632.67 223.372 633.146 222.952 633.986 222.952C634.938 222.952 635.344 223.428 635.344 224.24V224.772H634.098C632.11 224.772 630.976 225.514 630.976 227.012C630.976 228.314 631.816 229.168 633.3 229.168ZM633.902 227.866C633.202 227.866 632.796 227.572 632.796 226.984V226.746C632.796 226.172 633.258 225.85 634.196 225.85H635.344V226.816C635.344 227.502 634.7 227.866 633.902 227.866ZM642.358 229.168C643.772 229.168 644.794 228.524 645.27 227.236L643.898 226.578C643.632 227.236 643.212 227.726 642.358 227.726C641.364 227.726 640.86 227.04 640.86 226.018V224.688C640.86 223.666 641.364 222.966 642.358 222.966C643.128 222.966 643.59 223.414 643.758 224.03L645.228 223.372C644.794 222.224 643.828 221.524 642.358 221.524C640.202 221.524 638.984 222.994 638.984 225.332C638.984 227.684 640.202 229.168 642.358 229.168ZM649.698 229.168C651.056 229.168 652.12 228.65 652.722 227.824L651.756 226.746C651.308 227.32 650.776 227.74 649.894 227.74C648.718 227.74 648.116 227.026 648.116 225.976V225.794H652.974V225.206C652.974 223.204 651.924 221.524 649.642 221.524C647.5 221.524 646.254 223.022 646.254 225.332C646.254 227.67 647.542 229.168 649.698 229.168ZM649.67 222.868C650.594 222.868 651.112 223.554 651.112 224.562V224.688H648.116V224.576C648.116 223.568 648.732 222.868 649.67 222.868ZM658.627 225.626V223.848H654.623V225.626H658.627ZM667.248 227.446H662.474L664.532 225.752C665.89 224.632 666.996 223.596 666.996 221.972C666.996 220.292 665.82 219.06 663.762 219.06C661.774 219.06 660.724 220.194 660.304 221.496L661.9 222.112C662.124 221.314 662.6 220.656 663.608 220.656C664.406 220.656 665.05 221.132 665.05 221.986V222.168C665.05 223.022 664.574 223.694 663.538 224.604L660.472 227.292V229H667.248V227.446ZM673.853 229.154C674.623 229.154 674.973 228.72 674.973 228.132V227.88C674.973 227.278 674.623 226.844 673.853 226.844C673.097 226.844 672.733 227.278 672.733 227.88V228.132C672.733 228.72 673.097 229.154 673.853 229.154ZM673.853 223.848C674.623 223.848 674.973 223.414 674.973 222.826V222.574C674.973 221.972 674.623 221.538 673.853 221.538C673.097 221.538 672.733 221.972 672.733 222.574V222.826C672.733 223.414 673.097 223.848 673.853 223.848ZM680.749 231.8H682.541V227.782H682.597C682.877 228.608 683.647 229.168 684.613 229.168C686.461 229.168 687.483 227.782 687.483 225.332C687.483 222.896 686.461 221.524 684.613 221.524C683.647 221.524 682.863 222.056 682.597 222.896H682.541V221.692H680.749V231.8ZM684.039 227.684C683.185 227.684 682.541 227.25 682.541 226.494V224.17C682.541 223.456 683.185 222.994 684.039 222.994C684.963 222.994 685.607 223.68 685.607 224.716V225.976C685.607 227.012 684.963 227.684 684.039 227.684ZM691.095 229V224.52C691.095 223.722 691.725 223.386 692.929 223.386H693.489V221.692H693.097C691.935 221.692 691.347 222.434 691.165 223.204H691.095V221.692H689.303V229H691.095ZM697.789 229.168C699.889 229.168 701.191 227.684 701.191 225.332C701.191 222.994 699.889 221.524 697.789 221.524C695.703 221.524 694.401 222.994 694.401 225.332C694.401 227.684 695.703 229.168 697.789 229.168ZM697.789 227.726C696.865 227.726 696.277 227.124 696.277 226.018V224.66C696.277 223.568 696.865 222.966 697.789 222.966C698.727 222.966 699.315 223.568 699.315 224.66V226.018C699.315 227.124 698.727 227.726 697.789 227.726ZM702.94 230.372H701.82V231.8H702.8C704.144 231.8 704.732 231.1 704.732 229.882V221.692H702.94V230.372ZM703.836 220.628C704.564 220.628 704.886 220.25 704.886 219.732V219.452C704.886 218.934 704.564 218.556 703.836 218.556C703.094 218.556 702.786 218.934 702.786 219.452V219.732C702.786 220.25 703.094 220.628 703.836 220.628ZM709.923 229.168C711.281 229.168 712.345 228.65 712.947 227.824L711.981 226.746C711.533 227.32 711.001 227.74 710.119 227.74C708.943 227.74 708.341 227.026 708.341 225.976V225.794H713.199V225.206C713.199 223.204 712.149 221.524 709.867 221.524C707.725 221.524 706.479 223.022 706.479 225.332C706.479 227.67 707.767 229.168 709.923 229.168ZM709.895 222.868C710.819 222.868 711.337 223.554 711.337 224.562V224.688H708.341V224.576C708.341 223.568 708.957 222.868 709.895 222.868ZM717.819 229.168C719.233 229.168 720.255 228.524 720.731 227.236L719.359 226.578C719.093 227.236 718.673 227.726 717.819 227.726C716.825 227.726 716.321 227.04 716.321 226.018V224.688C716.321 223.666 716.825 222.966 717.819 222.966C718.589 222.966 719.051 223.414 719.219 224.03L720.689 223.372C720.255 222.224 719.289 221.524 717.819 221.524C715.663 221.524 714.445 222.994 714.445 225.332C714.445 227.684 715.663 229.168 717.819 229.168ZM724.555 229H725.843V227.572H724.457V223.12H725.955V221.692H724.457V219.69H722.847V220.936C722.847 221.44 722.679 221.692 722.147 221.692H721.587V223.12H722.665V227.138C722.665 228.328 723.323 229 724.555 229ZM731.272 225.626V223.848H727.268V225.626H731.272ZM740.257 229V227.502H738.017V219.228H735.231L732.809 222.112L733.957 223.078L736.085 220.558H736.211V227.502H733.523V229H740.257Z" fill="black"/>
</g>
<path d="M560.5 200.5H792C796.142 200.5 799.5 203.858 799.5 208V416C799.5 420.142 796.142 423.5 792 423.5H560.5V200.5Z" stroke="#0F62FE"/>
<rect x="576.5" y="265.5" width="95" height="143" fill="white"/>
<rect x="577" y="266" width="94" height="142" fill="white"/>
<g clip-path="url(#clip5_621_37972)">
<line x1="578" y1="265" x2="578" y2="313" stroke="#8D8D8D" stroke-width="4"/>
<path d="M594.996 294V290.276H597.544C599.35 290.276 600.442 289.072 600.442 287.252C600.442 285.446 599.35 284.228 597.544 284.228H593.148V294H594.996ZM594.996 285.838H597.376C598.09 285.838 598.524 286.216 598.524 286.93V287.574C598.524 288.288 598.09 288.68 597.376 288.68H594.996V285.838ZM604.789 294.168C606.889 294.168 608.191 292.684 608.191 290.332C608.191 287.994 606.889 286.524 604.789 286.524C602.703 286.524 601.401 287.994 601.401 290.332C601.401 292.684 602.703 294.168 604.789 294.168ZM604.789 292.726C603.865 292.726 603.277 292.124 603.277 291.018V289.66C603.277 288.568 603.865 287.966 604.789 287.966C605.727 287.966 606.315 288.568 606.315 289.66V291.018C606.315 292.124 605.727 292.726 604.789 292.726ZM614.476 294H616.268V283.64H614.476V287.896H614.406C614.154 287.056 613.356 286.524 612.39 286.524C610.556 286.524 609.534 287.896 609.534 290.332C609.534 292.782 610.556 294.168 612.39 294.168C613.356 294.168 614.14 293.608 614.406 292.782H614.476V294ZM612.964 292.684C612.04 292.684 611.41 292.012 611.41 290.976V289.716C611.41 288.68 612.04 287.994 612.964 287.994C613.818 287.994 614.476 288.456 614.476 289.17V291.494C614.476 292.25 613.818 292.684 612.964 292.684Z" fill="black"/>
</g>
<rect x="576.5" y="265.5" width="95" height="143" stroke="#8D8D8D"/>
<rect width="48" height="48" transform="translate(600.5 313)" fill="#0F62FE"/>
<rect width="20" height="20" transform="translate(614.5 327)" fill="white" style="mix-blend-mode:multiply"/>
<path d="M632 334.5H627V329.5H632V334.5ZM628.25 333.25H630.75V330.75H628.25V333.25Z" fill="white"/>
<path d="M625.125 336.375V332.625H620.125V341.375H628.875V336.375H625.125ZM621.375 333.875H623.875V336.375H621.375V333.875ZM623.875 340.125H621.375V337.625H623.875V340.125ZM627.625 340.125H625.125V337.625H627.625V340.125Z" fill="white"/>
<path d="M630.75 344.5H618.25C617.919 344.5 617.601 344.368 617.367 344.133C617.132 343.899 617 343.581 617 343.25V330.75C617 330.419 617.132 330.101 617.367 329.867C617.601 329.632 617.919 329.5 618.25 329.5H624.5V330.75H618.25V343.25H630.75V337H632V343.25C632 343.581 631.868 343.899 631.633 344.133C631.399 344.368 631.081 344.5 630.75 344.5Z" fill="white"/>
<path d="M597.022 383.168C598.772 383.168 599.934 382.314 600.634 380.858L599.136 379.976C598.814 380.858 598.128 381.53 597.022 381.53C595.65 381.53 594.768 380.578 594.768 378.898V377.358C594.768 375.692 595.65 374.698 597.022 374.698C598.114 374.698 598.73 375.286 599.01 376.154L600.592 375.314C599.906 373.802 598.772 373.06 597.022 373.06C594.446 373.06 592.808 374.894 592.808 378.184C592.808 381.474 594.446 383.168 597.022 383.168ZM605.156 383.168C607.256 383.168 608.558 381.684 608.558 379.332C608.558 376.994 607.256 375.524 605.156 375.524C603.07 375.524 601.768 376.994 601.768 379.332C601.768 381.684 603.07 383.168 605.156 383.168ZM605.156 381.726C604.232 381.726 603.644 381.124 603.644 380.018V378.66C603.644 377.568 604.232 376.966 605.156 376.966C606.094 376.966 606.682 377.568 606.682 378.66V380.018C606.682 381.124 606.094 381.726 605.156 381.726ZM612.099 383V378.17C612.099 377.386 612.813 376.994 613.555 376.994C614.409 376.994 614.759 377.526 614.759 378.562V383H616.551V378.38C616.551 376.56 615.711 375.524 614.213 375.524C613.079 375.524 612.463 376.126 612.169 376.91H612.099V375.692H610.307V383H612.099ZM620.979 383H622.267V381.572H620.881V377.12H622.379V375.692H620.881V373.69H619.271V374.936C619.271 375.44 619.103 375.692 618.571 375.692H618.011V377.12H619.089V381.138C619.089 382.328 619.747 383 620.979 383ZM625.9 383.168C626.992 383.168 627.79 382.678 628.028 381.74H628.112C628.224 382.496 628.7 383 629.47 383H630.464V381.572H629.736V378.128C629.736 376.462 628.686 375.524 626.712 375.524C625.242 375.524 624.388 376.084 623.856 376.924L624.92 377.876C625.27 377.372 625.746 376.952 626.586 376.952C627.538 376.952 627.944 377.428 627.944 378.24V378.772H626.698C624.71 378.772 623.576 379.514 623.576 381.012C623.576 382.314 624.416 383.168 625.9 383.168ZM626.502 381.866C625.802 381.866 625.396 381.572 625.396 380.984V380.746C625.396 380.172 625.858 379.85 626.796 379.85H627.944V380.816C627.944 381.502 627.3 381.866 626.502 381.866ZM632.97 374.628C633.698 374.628 634.02 374.25 634.02 373.732V373.452C634.02 372.934 633.698 372.556 632.97 372.556C632.228 372.556 631.92 372.934 631.92 373.452V373.732C631.92 374.25 632.228 374.628 632.97 374.628ZM632.074 383H633.866V375.692H632.074V383ZM637.895 383V378.17C637.895 377.386 638.609 376.994 639.351 376.994C640.205 376.994 640.555 377.526 640.555 378.562V383H642.347V378.38C642.347 376.56 641.507 375.524 640.009 375.524C638.875 375.524 638.259 376.126 637.965 376.91H637.895V375.692H636.103V383H637.895ZM647.448 383.168C648.806 383.168 649.87 382.65 650.472 381.824L649.506 380.746C649.058 381.32 648.526 381.74 647.644 381.74C646.468 381.74 645.866 381.026 645.866 379.976V379.794H650.724V379.206C650.724 377.204 649.674 375.524 647.392 375.524C645.25 375.524 644.004 377.022 644.004 379.332C644.004 381.67 645.292 383.168 647.448 383.168ZM647.42 376.868C648.344 376.868 648.862 377.554 648.862 378.562V378.688H645.866V378.576C645.866 377.568 646.482 376.868 647.42 376.868ZM654.252 383V378.52C654.252 377.722 654.882 377.386 656.086 377.386H656.646V375.692H656.254C655.092 375.692 654.504 376.434 654.322 377.204H654.252V375.692H652.46V383H654.252Z" fill="black"/>
<rect x="688.5" y="265.5" width="95" height="143" fill="white"/>
<rect x="689" y="266" width="94" height="142" fill="white"/>
<g clip-path="url(#clip6_621_37972)">
<line x1="690" y1="265" x2="690" y2="313" stroke="#8D8D8D" stroke-width="4"/>
<path d="M706.996 294V290.276H709.544C711.35 290.276 712.442 289.072 712.442 287.252C712.442 285.446 711.35 284.228 709.544 284.228H705.148V294H706.996ZM706.996 285.838H709.376C710.09 285.838 710.524 286.216 710.524 286.93V287.574C710.524 288.288 710.09 288.68 709.376 288.68H706.996V285.838ZM716.789 294.168C718.889 294.168 720.191 292.684 720.191 290.332C720.191 287.994 718.889 286.524 716.789 286.524C714.703 286.524 713.401 287.994 713.401 290.332C713.401 292.684 714.703 294.168 716.789 294.168ZM716.789 292.726C715.865 292.726 715.277 292.124 715.277 291.018V289.66C715.277 288.568 715.865 287.966 716.789 287.966C717.727 287.966 718.315 288.568 718.315 289.66V291.018C718.315 292.124 717.727 292.726 716.789 292.726ZM726.476 294H728.268V283.64H726.476V287.896H726.406C726.154 287.056 725.356 286.524 724.39 286.524C722.556 286.524 721.534 287.896 721.534 290.332C721.534 292.782 722.556 294.168 724.39 294.168C725.356 294.168 726.14 293.608 726.406 292.782H726.476V294ZM724.964 292.684C724.04 292.684 723.41 292.012 723.41 290.976V289.716C723.41 288.68 724.04 287.994 724.964 287.994C725.818 287.994 726.476 288.456 726.476 289.17V291.494C726.476 292.25 725.818 292.684 724.964 292.684Z" fill="black"/>
</g>
<rect x="688.5" y="265.5" width="95" height="143" stroke="#8D8D8D"/>
<rect width="48" height="48" transform="translate(712.5 313)" fill="#0F62FE"/>
<rect width="20" height="20" transform="translate(726.5 327)" fill="white" style="mix-blend-mode:multiply"/>
<path d="M744 334.5H739V329.5H744V334.5ZM740.25 333.25H742.75V330.75H740.25V333.25Z" fill="white"/>
<path d="M737.125 336.375V332.625H732.125V341.375H740.875V336.375H737.125ZM733.375 333.875H735.875V336.375H733.375V333.875ZM735.875 340.125H733.375V337.625H735.875V340.125ZM739.625 340.125H737.125V337.625H739.625V340.125Z" fill="white"/>
<path d="M742.75 344.5H730.25C729.919 344.5 729.601 344.368 729.367 344.133C729.132 343.899 729 343.581 729 343.25V330.75C729 330.419 729.132 330.101 729.367 329.867C729.601 329.632 729.919 329.5 730.25 329.5H736.5V330.75H730.25V343.25H742.75V337H744V343.25C744 343.581 743.868 343.899 743.633 344.133C743.399 344.368 743.081 344.5 742.75 344.5Z" fill="white"/>
<path d="M709.022 383.168C710.772 383.168 711.934 382.314 712.634 380.858L711.136 379.976C710.814 380.858 710.128 381.53 709.022 381.53C707.65 381.53 706.768 380.578 706.768 378.898V377.358C706.768 375.692 707.65 374.698 709.022 374.698C710.114 374.698 710.73 375.286 711.01 376.154L712.592 375.314C711.906 373.802 710.772 373.06 709.022 373.06C706.446 373.06 704.808 374.894 704.808 378.184C704.808 381.474 706.446 383.168 709.022 383.168ZM717.156 383.168C719.256 383.168 720.558 381.684 720.558 379.332C720.558 376.994 719.256 375.524 717.156 375.524C715.07 375.524 713.768 376.994 713.768 379.332C713.768 381.684 715.07 383.168 717.156 383.168ZM717.156 381.726C716.232 381.726 715.644 381.124 715.644 380.018V378.66C715.644 377.568 716.232 376.966 717.156 376.966C718.094 376.966 718.682 377.568 718.682 378.66V380.018C718.682 381.124 718.094 381.726 717.156 381.726ZM724.099 383V378.17C724.099 377.386 724.813 376.994 725.555 376.994C726.409 376.994 726.759 377.526 726.759 378.562V383H728.551V378.38C728.551 376.56 727.711 375.524 726.213 375.524C725.079 375.524 724.463 376.126 724.169 376.91H724.099V375.692H722.307V383H724.099ZM732.979 383H734.267V381.572H732.881V377.12H734.379V375.692H732.881V373.69H731.271V374.936C731.271 375.44 731.103 375.692 730.571 375.692H730.011V377.12H731.089V381.138C731.089 382.328 731.747 383 732.979 383ZM737.9 383.168C738.992 383.168 739.79 382.678 740.028 381.74H740.112C740.224 382.496 740.7 383 741.47 383H742.464V381.572H741.736V378.128C741.736 376.462 740.686 375.524 738.712 375.524C737.242 375.524 736.388 376.084 735.856 376.924L736.92 377.876C737.27 377.372 737.746 376.952 738.586 376.952C739.538 376.952 739.944 377.428 739.944 378.24V378.772H738.698C736.71 378.772 735.576 379.514 735.576 381.012C735.576 382.314 736.416 383.168 737.9 383.168ZM738.502 381.866C737.802 381.866 737.396 381.572 737.396 380.984V380.746C737.396 380.172 737.858 379.85 738.796 379.85H739.944V380.816C739.944 381.502 739.3 381.866 738.502 381.866ZM744.97 374.628C745.698 374.628 746.02 374.25 746.02 373.732V373.452C746.02 372.934 745.698 372.556 744.97 372.556C744.228 372.556 743.92 372.934 743.92 373.452V373.732C743.92 374.25 744.228 374.628 744.97 374.628ZM744.074 383H745.866V375.692H744.074V383ZM749.895 383V378.17C749.895 377.386 750.609 376.994 751.351 376.994C752.205 376.994 752.555 377.526 752.555 378.562V383H754.347V378.38C754.347 376.56 753.507 375.524 752.009 375.524C750.875 375.524 750.259 376.126 749.965 376.91H749.895V375.692H748.103V383H749.895ZM759.448 383.168C760.806 383.168 761.87 382.65 762.472 381.824L761.506 380.746C761.058 381.32 760.526 381.74 759.644 381.74C758.468 381.74 757.866 381.026 757.866 379.976V379.794H762.724V379.206C762.724 377.204 761.674 375.524 759.392 375.524C757.25 375.524 756.004 377.022 756.004 379.332C756.004 381.67 757.292 383.168 759.448 383.168ZM759.42 376.868C760.344 376.868 760.862 377.554 760.862 378.562V378.688H757.866V378.576C757.866 377.568 758.482 376.868 759.42 376.868ZM766.252 383V378.52C766.252 377.722 766.882 377.386 768.086 377.386H768.646V375.692H768.254C767.092 375.692 766.504 376.434 766.322 377.204H766.252V375.692H764.46V383H766.252Z" fill="black"/>
<rect x="48.5" y="513.5" width="15" height="15" rx="3.5" fill="white" style="mix-blend-mode:multiply"/>
<rect x="48.5" y="513.5" width="15" height="15" rx="3.5" stroke="#8D8D8D"/>
<path d="M78.636 526V524.964H74.478V516.228H73.302V526H78.636ZM82.957 526.168C84.889 526.168 86.219 524.684 86.219 522.388C86.219 520.092 84.889 518.608 82.957 518.608C81.025 518.608 79.695 520.092 79.695 522.388C79.695 524.684 81.025 526.168 82.957 526.168ZM82.957 525.174C81.753 525.174 80.899 524.432 80.899 522.906V521.87C80.899 520.344 81.753 519.602 82.957 519.602C84.161 519.602 85.015 520.344 85.015 521.87V522.906C85.015 524.432 84.161 525.174 82.957 525.174ZM94.3109 526.798C94.3109 525.608 93.5409 524.88 91.7489 524.88H90.2089C89.5509 524.88 89.1029 524.768 89.1029 524.334C89.1029 523.886 89.5789 523.648 90.0549 523.522C90.2649 523.564 90.5169 523.592 90.7549 523.592C92.4069 523.592 93.4849 522.57 93.4849 521.1C93.4849 520.33 93.1769 519.686 92.6589 519.238V518.776H94.0309V517.796H92.9529C92.3509 517.796 92.1129 518.202 92.1129 518.762V518.888C91.7209 518.706 91.2589 518.608 90.7409 518.608C89.1029 518.608 88.0249 519.63 88.0249 521.1C88.0249 522.108 88.5289 522.906 89.3829 523.312V523.368C88.6549 523.55 88.1369 523.9 88.1369 524.628C88.1369 525.118 88.3749 525.44 88.7809 525.636V525.79C88.0669 525.986 87.6329 526.406 87.6329 527.19C87.6329 528.324 88.5569 528.968 90.8109 528.968C93.1349 528.968 94.3109 528.282 94.3109 526.798ZM93.2609 526.882C93.2609 527.666 92.5329 528.058 91.2869 528.058H90.2509C89.1169 528.058 88.6829 527.54 88.6829 526.91C88.6829 526.462 88.8929 526.14 89.3549 525.93H91.7629C92.8829 525.93 93.2609 526.308 93.2609 526.882ZM90.7549 522.696C89.8029 522.696 89.2009 522.248 89.2009 521.296V520.904C89.2009 519.952 89.8029 519.504 90.7549 519.504C91.7069 519.504 92.3089 519.952 92.3089 520.904V521.296C92.3089 522.248 91.7069 522.696 90.7549 522.696ZM96.3374 517.082C96.8134 517.082 97.0234 516.83 97.0234 516.452V516.27C97.0234 515.892 96.8134 515.64 96.3374 515.64C95.8614 515.64 95.6514 515.892 95.6514 516.27V516.452C95.6514 516.83 95.8614 517.082 96.3374 517.082ZM95.7774 526H96.8974V518.776H95.7774V526ZM102.125 526.168C103.497 526.168 104.435 525.496 104.897 524.46L104.085 523.914C103.693 524.74 103.035 525.174 102.125 525.174C100.795 525.174 100.109 524.264 100.109 523.004V521.772C100.109 520.512 100.795 519.602 102.125 519.602C103.007 519.602 103.623 520.036 103.889 520.778L104.827 520.302C104.407 519.308 103.553 518.608 102.125 518.608C100.095 518.608 98.9054 520.078 98.9054 522.388C98.9054 524.698 100.095 526.168 102.125 526.168ZM112.518 526V525.02H111.692V521.044C111.692 519.518 110.656 518.608 108.92 518.608C107.618 518.608 106.75 519.252 106.358 520.022L107.03 520.652C107.422 519.994 107.996 519.574 108.864 519.574C110.012 519.574 110.572 520.134 110.572 521.156V521.87H109.144C107.044 521.87 106.064 522.626 106.064 523.984C106.064 525.328 106.96 526.168 108.486 526.168C109.494 526.168 110.264 525.706 110.572 524.824H110.642C110.726 525.496 111.062 526 111.888 526H112.518ZM108.668 525.216C107.8 525.216 107.24 524.81 107.24 524.096V523.802C107.24 523.102 107.814 522.71 109.088 522.71H110.572V523.9C110.572 524.642 109.774 525.216 108.668 525.216ZM116.461 526V525.02H115.397V515.64H114.277V524.838C114.277 525.51 114.697 526 115.467 526H116.461ZM122.84 526V520.988C122.84 520.064 123.708 519.616 124.604 519.616C125.682 519.616 126.242 520.274 126.242 521.562V526H127.362V521.366C127.362 519.616 126.424 518.608 124.94 518.608C123.862 518.608 123.246 519.14 122.896 519.952H122.84V518.776H121.72V526H122.84ZM132.567 526.168C134.499 526.168 135.829 524.684 135.829 522.388C135.829 520.092 134.499 518.608 132.567 518.608C130.635 518.608 129.305 520.092 129.305 522.388C129.305 524.684 130.635 526.168 132.567 526.168ZM132.567 525.174C131.363 525.174 130.509 524.432 130.509 522.906V521.87C130.509 520.344 131.363 519.602 132.567 519.602C133.771 519.602 134.625 520.344 134.625 521.87V522.906C134.625 524.432 133.771 525.174 132.567 525.174ZM142.451 526H143.571V515.64H142.451V519.952H142.395C142.017 519.042 141.275 518.608 140.281 518.608C138.475 518.608 137.341 520.078 137.341 522.388C137.341 524.698 138.475 526.168 140.281 526.168C141.275 526.168 141.961 525.72 142.395 524.824H142.451V526ZM140.589 525.16C139.329 525.16 138.545 524.292 138.545 523.004V521.772C138.545 520.484 139.329 519.616 140.589 519.616C141.611 519.616 142.451 520.204 142.451 521.002V523.69C142.451 524.628 141.611 525.16 140.589 525.16ZM148.828 526.168C150.186 526.168 151.222 525.496 151.684 524.516L150.886 523.942C150.508 524.74 149.808 525.188 148.898 525.188C147.554 525.188 146.756 524.25 146.756 523.004V522.668H151.95V522.136C151.95 520.092 150.76 518.608 148.828 518.608C146.868 518.608 145.58 520.092 145.58 522.388C145.58 524.684 146.868 526.168 148.828 526.168ZM148.828 519.546C149.976 519.546 150.746 520.4 150.746 521.674V521.828H146.756V521.73C146.756 520.47 147.61 519.546 148.828 519.546Z" fill="#6F6F6F"/>
<rect x="169.5" y="513.5" width="15" height="15" stroke="#8D8D8D"/>
<path d="M195.478 526V521.828H198.194C199.944 521.828 200.924 520.75 200.924 519.028C200.924 517.306 199.944 516.228 198.194 516.228H194.302V526H195.478ZM195.478 517.264H198.194C199.118 517.264 199.664 517.768 199.664 518.664V519.392C199.664 520.288 199.118 520.792 198.194 520.792H195.478V517.264ZM203.824 526V521.1C203.824 520.414 204.552 519.896 205.756 519.896H206.414V518.776H205.98C204.804 518.776 204.146 519.42 203.894 520.106H203.824V518.776H202.704V526H203.824ZM210.652 526.168C212.01 526.168 213.046 525.496 213.508 524.516L212.71 523.942C212.332 524.74 211.632 525.188 210.722 525.188C209.378 525.188 208.58 524.25 208.58 523.004V522.668H213.774V522.136C213.774 520.092 212.584 518.608 210.652 518.608C208.692 518.608 207.404 520.092 207.404 522.388C207.404 524.684 208.692 526.168 210.652 526.168ZM210.652 519.546C211.8 519.546 212.57 520.4 212.57 521.674V521.828H208.58V521.73C208.58 520.47 209.434 519.546 210.652 519.546ZM217.949 526.168C219.601 526.168 220.623 525.314 220.623 523.914C220.623 522.822 220.007 522.122 218.411 521.884L217.851 521.8C216.955 521.66 216.465 521.38 216.465 520.68C216.465 519.994 216.955 519.56 217.879 519.56C218.803 519.56 219.419 519.994 219.741 520.442L220.483 519.77C219.895 519.042 219.125 518.608 217.963 518.608C216.493 518.608 215.387 519.308 215.387 520.736C215.387 522.08 216.381 522.626 217.711 522.822L218.285 522.906C219.237 523.046 219.545 523.48 219.545 524.04C219.545 524.782 218.985 525.216 218.033 525.216C217.123 525.216 216.451 524.81 215.891 524.11L215.093 524.754C215.737 525.608 216.619 526.168 217.949 526.168ZM225.45 526.168C226.822 526.168 227.76 525.496 228.222 524.46L227.41 523.914C227.018 524.74 226.36 525.174 225.45 525.174C224.12 525.174 223.434 524.264 223.434 523.004V521.772C223.434 520.512 224.12 519.602 225.45 519.602C226.332 519.602 226.948 520.036 227.214 520.778L228.152 520.302C227.732 519.308 226.878 518.608 225.45 518.608C223.42 518.608 222.23 520.078 222.23 522.388C222.23 524.698 223.42 526.168 225.45 526.168ZM231.083 526V521.1C231.083 520.414 231.811 519.896 233.015 519.896H233.673V518.776H233.239C232.063 518.776 231.405 519.42 231.153 520.106H231.083V518.776H229.963V526H231.083ZM235.823 517.082C236.299 517.082 236.509 516.83 236.509 516.452V516.27C236.509 515.892 236.299 515.64 235.823 515.64C235.347 515.64 235.137 515.892 235.137 516.27V516.452C235.137 516.83 235.347 517.082 235.823 517.082ZM235.263 526H236.383V518.776H235.263V526ZM238.923 526H240.043V524.824H240.099C240.533 525.72 241.219 526.168 242.213 526.168C244.019 526.168 245.153 524.698 245.153 522.388C245.153 520.078 244.019 518.608 242.213 518.608C241.219 518.608 240.477 519.042 240.099 519.952H240.043V515.64H238.923V526ZM241.905 525.16C240.883 525.16 240.043 524.628 240.043 523.69V521.002C240.043 520.204 240.883 519.616 241.905 519.616C243.165 519.616 243.949 520.484 243.949 521.772V523.004C243.949 524.292 243.165 525.16 241.905 525.16ZM249.92 526.168C251.278 526.168 252.314 525.496 252.776 524.516L251.978 523.942C251.6 524.74 250.9 525.188 249.99 525.188C248.646 525.188 247.848 524.25 247.848 523.004V522.668H253.042V522.136C253.042 520.092 251.852 518.608 249.92 518.608C247.96 518.608 246.672 520.092 246.672 522.388C246.672 524.684 247.96 526.168 249.92 526.168ZM249.92 519.546C251.068 519.546 251.838 520.4 251.838 521.674V521.828H247.848V521.73C247.848 520.47 248.702 519.546 249.92 519.546ZM259.668 526H260.788V515.64H259.668V519.952H259.612C259.234 519.042 258.492 518.608 257.498 518.608C255.692 518.608 254.558 520.078 254.558 522.388C254.558 524.698 255.692 526.168 257.498 526.168C258.492 526.168 259.178 525.72 259.612 524.824H259.668V526ZM257.806 525.16C256.546 525.16 255.762 524.292 255.762 523.004V521.772C255.762 520.484 256.546 519.616 257.806 519.616C258.828 519.616 259.668 520.204 259.668 521.002V523.69C259.668 524.628 258.828 525.16 257.806 525.16ZM267.918 526V520.988C267.918 520.064 268.786 519.616 269.682 519.616C270.76 519.616 271.32 520.274 271.32 521.562V526H272.44V521.366C272.44 519.616 271.502 518.608 270.018 518.608C268.94 518.608 268.324 519.14 267.974 519.952H267.918V518.776H266.798V526H267.918ZM277.645 526.168C279.577 526.168 280.907 524.684 280.907 522.388C280.907 520.092 279.577 518.608 277.645 518.608C275.713 518.608 274.383 520.092 274.383 522.388C274.383 524.684 275.713 526.168 277.645 526.168ZM277.645 525.174C276.441 525.174 275.587 524.432 275.587 522.906V521.87C275.587 520.344 276.441 519.602 277.645 519.602C278.849 519.602 279.703 520.344 279.703 521.87V522.906C279.703 524.432 278.849 525.174 277.645 525.174ZM287.529 526H288.649V515.64H287.529V519.952H287.473C287.095 519.042 286.353 518.608 285.359 518.608C283.553 518.608 282.419 520.078 282.419 522.388C282.419 524.698 283.553 526.168 285.359 526.168C286.353 526.168 287.039 525.72 287.473 524.824H287.529V526ZM285.667 525.16C284.407 525.16 283.623 524.292 283.623 523.004V521.772C283.623 520.484 284.407 519.616 285.667 519.616C286.689 519.616 287.529 520.204 287.529 521.002V523.69C287.529 524.628 286.689 525.16 285.667 525.16ZM293.906 526.168C295.264 526.168 296.3 525.496 296.762 524.516L295.964 523.942C295.586 524.74 294.886 525.188 293.976 525.188C292.632 525.188 291.834 524.25 291.834 523.004V522.668H297.028V522.136C297.028 520.092 295.838 518.608 293.906 518.608C291.946 518.608 290.658 520.092 290.658 522.388C290.658 524.684 291.946 526.168 293.906 526.168ZM293.906 519.546C295.054 519.546 295.824 520.4 295.824 521.674V521.828H291.834V521.73C291.834 520.47 292.688 519.546 293.906 519.546Z" fill="#6F6F6F"/>
<defs>
<clipPath id="clip0_621_37972">
<rect width="116" height="48" fill="white" transform="translate(288 137)"/>
</clipPath>
<clipPath id="clip1_621_37972">
<rect width="222" height="48" fill="white" transform="translate(304 200)"/>
</clipPath>
<clipPath id="clip2_621_37972">
<rect width="58" height="48" fill="white" transform="translate(320 265)"/>
</clipPath>
<clipPath id="clip3_621_37972">
<rect width="58" height="48" fill="white" transform="translate(432 265)"/>
</clipPath>
<clipPath id="clip4_621_37972">
<rect width="197" height="48" fill="white" transform="translate(560 200)"/>
</clipPath>
<clipPath id="clip5_621_37972">
<rect width="58" height="48" fill="white" transform="translate(576 265)"/>
</clipPath>
<clipPath id="clip6_621_37972">
<rect width="58" height="48" fill="white" transform="translate(688 265)"/>
</clipPath>
</defs>
</svg>
