<?xml version="1.0" encoding="UTF-8"?>
<svg xmlns="http://www.w3.org/2000/svg" width="487.5" height="265.1" xmlns:xlink="http://www.w3.org/1999/xlink" version="1.1" viewBox="0 0 487.5 265.1">
  <defs>
    <style>
      .cls-1, .cls-2, .cls-3, .cls-4, .cls-5 {
        fill: none;
      }

      .cls-6 {
        letter-spacing: 0em;
      }

      .cls-6, .cls-7, .cls-8, .cls-9, .cls-10, .cls-11, .cls-12, .cls-13, .cls-14, .cls-15, .cls-16, .cls-17, .cls-18, .cls-19, .cls-20, .cls-21 {
        isolation: isolate;
      }

      .cls-6, .cls-7, .cls-8, .cls-9, .cls-10, .cls-11, .cls-12, .cls-14, .cls-15, .cls-16, .cls-17, .cls-18, .cls-19 {
        font-family: IBMPlexSans, 'IBM Plex Sans';
      }

      .cls-6, .cls-8, .cls-9, .cls-11, .cls-14 {
        font-size: 10px;
      }

      .cls-7, .cls-16, .cls-17, .cls-18 {
        font-size: 11px;
      }

      .cls-22, .cls-23 {
        fill: #87c3eb;
      }

      .cls-8 {
        letter-spacing: 0em;
      }

      .cls-24 {
        fill: #20343e;
      }

      .cls-25 {
        fill: #e6e6e6;
      }

      .cls-10 {
        font-size: 10.8px;
      }

      .cls-10, .cls-11, .cls-26, .cls-27, .cls-28, .cls-29, .cls-20, .cls-21 {
        fill: #fff;
      }

      .cls-2, .cls-30, .cls-27, .cls-23, .cls-29, .cls-3, .cls-4, .cls-5 {
        stroke-miterlimit: 10;
      }

      .cls-2, .cls-3 {
        stroke: #231f20;
        stroke-width: 2px;
      }

      .cls-12 {
        letter-spacing: 0em;
      }

      .cls-12, .cls-15 {
        font-size: 16px;
      }

      .cls-31 {
        fill: #8c9ba5;
      }

      .cls-32 {
        fill: #10212d;
      }

      .cls-30, .cls-33 {
        fill: #3e70b2;
      }

      .cls-30, .cls-23, .cls-5 {
        stroke: #365b65;
      }

      .cls-34 {
        fill: #e61f33;
      }

      .cls-14 {
        letter-spacing: 0em;
      }

      .cls-35 {
        clip-path: url(#clippath-1);
      }

      .cls-36 {
        clip-path: url(#clippath-3);
      }

      .cls-37 {
        clip-path: url(#clippath-2);
      }

      .cls-27 {
        stroke: #a9a9aa;
      }

      .cls-16 {
        letter-spacing: 0em;
      }

      .cls-17 {
        letter-spacing: 0em;
      }

      .cls-28 {
        font-family: MyriadPro-Regular, 'Myriad Pro';
        font-size: 12px;
      }

      .cls-18 {
        letter-spacing: 0em;
      }

      .cls-38 {
        fill: #42535c;
      }

      .cls-19 {
        font-size: 14px;
      }

      .cls-29 {
        stroke: #fff;
      }

      .cls-39 {
        fill: #5b6872;
      }

      .cls-20, .cls-21 {
        font-family: ArialMT, Arial;
        font-size: 10.3px;
      }

      .cls-40 {
        fill: #dfe6eb;
      }

      .cls-3 {
        stroke-linecap: round;
      }

      .cls-41 {
        clip-path: url(#clippath);
      }

      .cls-4 {
        stroke: #5b6872;
        stroke-dasharray: 8;
      }

      .cls-21 {
        letter-spacing: 0em;
      }
    </style>
    <clipPath id="clippath">
      <path class="cls-1" d="M128.7,134c-.5,0-.9-.4-.9-.9s.4-.9.9-.9.9.4.9.9-.4.9-.9.9ZM131.6,133.1c0-.1,0-.3,0-.4l.9-.8-.8-1.2-1.1.4c-.2-.2-.6-.4-.9-.5l-.2-1h-1.5l-.2,1c-.3.1-.6.3-.9.5l-1.1-.4-.8,1.2.9.8c0,.1,0,.3,0,.4s0,.3,0,.4l-.9.8.8,1.2,1.1-.4c.2.2.6.4.9.5l.2,1h1.5l.2-1c.4-.1.6-.3.9-.5l1.1.3.8-1.2-.9-.8c0-.1,0-.3,0-.4h0Z"/>
    </clipPath>
    <clipPath id="clippath-1">
      <rect class="cls-1" x="124.8" y="129.6" width="7.6" height="7"/>
    </clipPath>
    <clipPath id="clippath-2">
      <path class="cls-1" d="M124.6,138.8c-.5,0-.9-.3-.9-.8s.4-.8.9-.8.9.4.9.8-.4.8-.9.8ZM127.3,138c0-.1,0-.3,0-.4l.8-.7-.7-1.1-1,.3c-.2-.2-.5-.3-.8-.5l-.2-.9h-1.4l-.2.9c-.3.1-.6.3-.8.5l-1-.3-.7,1.1.8.7c0,.1,0,.2,0,.4s0,.3,0,.4l-.8.7.7,1.1,1-.3c.2.2.5.4.8.5l.2.9h1.4l.2-.9c.3-.1.6-.3.8-.5l1,.3.7-1.1-.8-.7c0-.1,0-.2,0-.4Z"/>
    </clipPath>
    <clipPath id="clippath-3">
      <rect class="cls-1" x="121" y="134.8" width="7.1" height="6.5"/>
    </clipPath>
  </defs>
  <!-- Generator: Adobe Illustrator 28.7.1, SVG Export Plug-In . SVG Version: 1.2.0 Build 142)  -->
  <g>
    <g id="Layer_1">
      <g id="Layer_1-2" data-name="Layer_1">
        <rect class="cls-27" x="355.9" y="64.9" width="79.5" height="19.4"/>
        <rect class="cls-25" x="332.5" y="25.4" width="138.4" height="178.3" rx="19.6" ry="19.6"/>
        <rect class="cls-27" x="339.5" y="66.2" width="122.9" height="18.4" rx="6.6" ry="6.6"/>
        <rect class="cls-27" x="339" y="141.6" width="123.4" height="18.4" rx="6.6" ry="6.6"/>
        <rect class="cls-27" x="339.5" y="91.8" width="123.5" height="18.4" rx="6.6" ry="6.6"/>
        <rect class="cls-27" x="339" y="165.5" width="124.1" height="18.4" rx="6.6" ry="6.6"/>
        <rect class="cls-27" x="339.5" y="116.6" width="122.9" height="18.4" rx="6.6" ry="6.6"/>
        <rect class="cls-25" x="332.5" y="214.3" width="138.4" height="36" rx="17" ry="17"/>
        <circle class="cls-2" cx="446.9" cy="238.9" r="2.7"/>
        <line class="cls-3" x1="446.9" y1="236.2" x2="446.5" y2="220.3"/>
        <line class="cls-3" x1="442.6" y1="226.1" x2="446.5" y2="220.1"/>
        <line class="cls-3" x1="450.7" y1="225.9" x2="446.5" y2="220.1"/>
        <path class="cls-3" d="M444.2,238.4s.1-1.9-2.6-4.6c-1.6-1.6-5.2-4.5-5.2-4.5"/>
        <line class="cls-3" x1="436.7" y1="233.7" x2="435.5" y2="228.5"/>
        <line class="cls-3" x1="440.8" y1="229.2" x2="435.5" y2="228.5"/>
        <path class="cls-3" d="M449.6,238.3s-.2-1.9,2.5-4.7c1.5-1.6,5-4.7,5-4.7"/>
        <line class="cls-3" x1="456.9" y1="233.3" x2="457.9" y2="228"/>
        <line class="cls-3" x1="452.6" y1="228.9" x2="457.9" y2="228"/>
        <rect class="cls-25" x="20.5" y="25.1" width="295.4" height="219.9" rx="21.6" ry="21.6"/>
        <rect class="cls-24" x="33.5" y="57.8" width="126" height="176.2" rx="8" ry="8"/>
        <rect class="cls-27" x="205.9" y="111" width="58.9" height="19"/>
        <rect class="cls-26" x="42.5" y="80" width="109.1" height="93.7" rx="7.6" ry="7.6"/>
        <rect class="cls-24" x="172.7" y="60" width="125.3" height="103.9" rx="10" ry="10"/>
        <rect class="cls-26" x="178.6" y="138.5" width="113.5" height="18.4" rx="6.6" ry="6.6"/>
        <rect class="cls-26" x="178.6" y="116.2" width="113.5" height="18.4" rx="6.6" ry="6.6"/>
        <rect class="cls-26" x="178.6" y="92.4" width="113.5" height="18.4" rx="6.6" ry="6.6"/>
        <rect class="cls-4" x="49.5" y="90.3" width="95.1" height="66.4" rx="7.6" ry="7.6"/>
        <rect class="cls-4" x=".5" y=".5" width="486.5" height="264.1" rx="34.3" ry="34.3"/>
        <rect class="cls-24" x="58.1" y="124.6" width="81.6" height="22.3" rx="7.5" ry="7.5"/>
        <rect class="cls-29" x="120.5" y="129.3" width="13.5" height="12.2" rx="1.3" ry="1.3"/>
        <path class="cls-22" d="M128.7,134c-.5,0-.9-.4-.9-.9s.4-.9.9-.9.9.4.9.9-.4.9-.9.9ZM131.6,133.1c0-.1,0-.3,0-.4l.9-.8-.8-1.2-1.1.4c-.2-.2-.6-.4-.9-.5l-.2-1h-1.5l-.2,1c-.3.1-.6.3-.9.5l-1.1-.4-.8,1.2.9.8c0,.1,0,.3,0,.4s0,.3,0,.4l-.9.8.8,1.2,1.1-.4c.2.2.6.4.9.5l.2,1h1.5l.2-1c.4-.1.6-.3.9-.5l1.1.3.8-1.2-.9-.8c0-.1,0-.3,0-.4h0Z"/>
        <g class="cls-41">
          <g>
            <rect class="cls-22" x="124.8" y="129.6" width="7.6" height="7"/>
            <g class="cls-35">
              <rect class="cls-23" x="123.3" y="128.2" width="10.8" height="9.9"/>
            </g>
            <rect class="cls-5" x="124.8" y="129.6" width="7.6" height="7"/>
          </g>
        </g>
        <path class="cls-5" d="M128.7,134c-.5,0-.9-.4-.9-.9s.4-.9.9-.9.9.4.9.9-.4.9-.9.9ZM131.6,133.1c0-.1,0-.3,0-.4l.9-.8-.8-1.2-1.1.4c-.2-.2-.6-.4-.9-.5l-.2-1h-1.5l-.2,1c-.3.1-.6.3-.9.5l-1.1-.4-.8,1.2.9.8c0,.1,0,.3,0,.4s0,.3,0,.4l-.9.8.8,1.2,1.1-.4c.2.2.6.4.9.5l.2,1h1.5l.2-1c.4-.1.6-.3.9-.5l1.1.3.8-1.2-.9-.8c0-.1,0-.3,0-.4h0Z"/>
        <path class="cls-33" d="M124.6,138.8c-.5,0-.9-.4-.9-.8s.4-.8.9-.8.9.4.9.8-.4.8-.9.8ZM127.3,138c0-.1,0-.3,0-.4l.8-.7-.7-1.1-1,.3c-.2-.2-.5-.4-.8-.5l-.2-.9h-1.4l-.2.9c-.3.1-.6.3-.8.5l-1-.3-.7,1.1.8.7c0,.1,0,.2,0,.4s0,.3,0,.4l-.8.7.7,1.1,1-.3c.2.2.5.4.8.5l.2.9h1.4l.2-.9c.3-.1.6-.3.8-.5l1,.3.7-1.1-.8-.7c0-.1,0-.2,0-.4Z"/>
        <g class="cls-37">
          <g>
            <rect class="cls-33" x="121" y="134.8" width="7.1" height="6.5"/>
            <g class="cls-36">
              <rect class="cls-30" x="119.6" y="133.4" width="10" height="9.1"/>
            </g>
            <rect class="cls-5" x="121" y="134.8" width="7.1" height="6.5"/>
          </g>
        </g>
        <path class="cls-5" d="M124.6,138.8c-.5,0-.9-.4-.9-.8s.4-.8.9-.8.9.4.9.8-.4.8-.9.8ZM127.3,138c0-.1,0-.3,0-.4l.8-.7-.7-1.1-1,.3c-.2-.2-.5-.4-.8-.5l-.2-.9h-1.4l-.2.9c-.3.1-.6.3-.8.5l-1-.3-.7,1.1.8.7c0,.1,0,.2,0,.4s0,.3,0,.4l-.8.7.7,1.1,1-.3c.2.2.5.4.8.5l.2.9h1.4l.2-.9c.3-.1.6-.3.8-.5l1,.3.7-1.1-.8-.7c0-.1,0-.2,0-.4Z"/>
        <rect class="cls-26" x="118.1" y="101.5" width="12.5" height="10.2"/>
        <path class="cls-31" d="M114.4,105.8c-.3-.2-.5-.6-.5-.9v6.9c0-.3.2-.6.5-.9l3.8-2.6-3.8-2.6h0Z"/>
        <path class="cls-22" d="M133.6,102.2h0c0,0,0,0,0,0,0,0,0-.1,0-.2h0c0-.1-.1-.2-.2-.3,0,0-.1-.1-.2-.2l-8.1-5.6c-.7-.5-1.8-.5-2.5,0l-8.1,5.6c0,0-.2.1-.2.2-.2.2-.3.4-.3.7h0c0,.3.2.6.5.9l.7.5,7.4-5.1c.7-.5,1.8-.5,2.5,0l7.4,5.1.7-.5c.3-.2.5-.6.5-.9h0c0,0,0,0,0,0Z"/>
        <path class="cls-40" d="M125,98.5c-.7-.5-1.8-.5-2.5,0l-7.4,5.1h0l5,3.5,2.3-1.6c.7-.5,1.8-.5,2.5,0l2.3,1.6,5-3.5-7.4-5.1h0Z"/>
        <path class="cls-31" d="M133.1,111l-3.8-2.6-4.3,3c-.7.5-1.8.5-2.5,0l-4.3-3h0l-3.8,2.6c-.3.2-.5.6-.5.9h0c0,.3.2.6.5.9l8.1,5.6c.7.5,1.8.5,2.5,0l8.1-5.6c.3-.2.5-.6.5-.9h0c0-.3-.2-.6-.5-.9h0Z"/>
        <path class="cls-22" d="M133.6,102.2c0,.3-.2.6-.5.9l-.7.5-5,3.5-2.3,1.6c-.7.5-1.8.5-2.5,0l-2.3-1.6-5-3.5-.7-.5c-.3-.2-.5-.6-.5-.9v1.5h0v1.2h0c0,.3.2.6.5.9l3.8,2.6,4.3,3c.7.5,1.8.5,2.5,0l8.1-5.6c.3-.2.5-.6.5-.9h0v-2.7h0Z"/>
        <path class="cls-31" d="M133.1,105.8l-3.8,2.6,3.8,2.6c.3.2.5.6.5.9v-6.9c0,.3-.2.6-.5.9h0Z"/>
        <circle class="cls-34" cx="345.4" cy="66.6" r="10.5"/>
        <circle class="cls-34" cx="337.5" cy="219.9" r="10.5"/>
        <circle class="cls-34" cx="183.4" cy="93.6" r="10.5"/>
        <circle class="cls-34" cx="55.6" cy="124.6" r="10.5"/>
        <circle class="cls-34" cx="52.6" cy="94.8" r="10.5"/>
        <rect class="cls-26" x="41.1" y="181.9" width="109.1" height="43.6" rx="7.6" ry="7.6"/>
        <circle class="cls-34" cx="45.5" cy="187.4" r="10.5"/>
        <path class="cls-39" d="M140.5,210.6h-27v7s0,0,0,0c0,.1,0,.2,0,.3,0,1.6,6,3,13.5,3s13.5-1.3,13.5-3,0-.2,0-.3c0,0,0,0,0,0v-7Z"/>
        <ellipse class="cls-32" cx="127" cy="210.6" rx="13.5" ry="3"/>
        <path class="cls-39" d="M140.5,199h-27v7s0,0,0,0c0,.1,0,.2,0,.3,0,1.6,6,3,13.5,3s13.5-1.3,13.5-3,0-.2,0-.3c0,0,0,0,0,0v-7Z"/>
        <ellipse class="cls-31" cx="127" cy="199" rx="13.5" ry="3"/>
        <path class="cls-38" d="M140.5,187.4h-27v7s0,0,0,0c0,.1,0,.2,0,.3,0,1.6,6,3,13.5,3s13.5-1.3,13.5-3,0-.2,0-.3c0,0,0,0,0,0v-7Z"/>
        <ellipse class="cls-39" cx="127" cy="187.4" rx="13.5" ry="3"/>
        <circle class="cls-34" cx="107.5" cy="32.6" r="10.5"/>
        <g class="cls-13">
          <text class="cls-20" transform="translate(205.9 73.9) scale(1.1 1)"><tspan x="0" y="0">k</tspan></text>
          <text class="cls-20" transform="translate(211.1 73.9) scale(1.1 1)"><tspan x="0" y="0">ub</tspan></text>
          <text class="cls-21" transform="translate(223.5 73.9) scale(1.1 1)"><tspan x="0" y="0">e</tspan></text>
          <text class="cls-20" transform="translate(229.4 73.9) scale(1.1 1)"><tspan x="0" y="0">-s</tspan></text>
          <text class="cls-20" transform="translate(237.1 73.9) scale(1.1 1)"><tspan x="0" y="0">y</tspan></text>
          <text class="cls-20" transform="translate(242.3 73.9) scale(1.1 1)"><tspan x="0" y="0">s</tspan></text>
          <text class="cls-20" transform="translate(246.6 73.9) scale(1.1 1)"><tspan x="0" y="0">t</tspan></text>
          <text class="cls-20" transform="translate(250.2 73.9) scale(1.1 1)"><tspan x="0" y="0">em</tspan></text>
          <text class="cls-20" transform="translate(209.1 86.3) scale(1.1 1)"><tspan x="0" y="0">namespa</tspan></text>
          <text class="cls-20" transform="translate(251.3 86.3) scale(1.1 1)"><tspan x="0" y="0">c</tspan></text>
          <text class="cls-20" transform="translate(256.2 86.3) scale(1.1 1)"><tspan x="0" y="0">e</tspan></text>
        </g>
      </g>
      <g class="cls-13">
        <text class="cls-7" transform="translate(363.2 78.2)"><tspan x="0" y="0">k</tspan></text>
        <text class="cls-7" transform="translate(368.8 78.2)"><tspan x="0" y="0">ub</tspan></text>
        <text class="cls-7" transform="translate(381.5 78.2)"><tspan x="0" y="0">e</tspan></text>
        <text class="cls-7" transform="translate(387.6 78.2)"><tspan x="0" y="0">-apise</tspan></text>
        <text class="cls-7" transform="translate(418.4 78.2)"><tspan x="0" y="0">r</tspan></text>
        <text class="cls-7" transform="translate(422.6 78.2)"><tspan x="0" y="0">v</tspan></text>
        <text class="cls-7" transform="translate(427.9 78.2)"><tspan x="0" y="0">er</tspan></text>
      </g>
      <g class="cls-13">
        <text class="cls-8" transform="translate(344 106)"><tspan x="0" y="0">k</tspan></text>
        <text class="cls-9" transform="translate(349.2 106)"><tspan x="0" y="0">ub</tspan></text>
        <text class="cls-14" transform="translate(360.6 106)"><tspan x="0" y="0">e-</tspan></text>
        <text class="cls-9" transform="translate(370.3 106)"><tspan x="0" y="0">c</tspan></text>
        <text class="cls-9" transform="translate(375.3 106)"><tspan x="0" y="0">ont</tspan></text>
        <text class="cls-9" transform="translate(390.1 106)"><tspan x="0" y="0">r</tspan></text>
        <text class="cls-9" transform="translate(393.7 106)"><tspan x="0" y="0">o</tspan></text>
        <text class="cls-9" transform="translate(399.3 106)"><tspan x="0" y="0">l</tspan></text>
        <text class="cls-9" transform="translate(402 106)"><tspan x="0" y="0">le</tspan></text>
        <text class="cls-6" transform="translate(410.2 106)"><tspan x="0" y="0">r</tspan></text>
        <text class="cls-9" transform="translate(413.7 106)"><tspan x="0" y="0">-mana</tspan></text>
        <text class="cls-9" transform="translate(442.7 106)"><tspan x="0" y="0">g</tspan></text>
        <text class="cls-9" transform="translate(447.9 106)"><tspan x="0" y="0">er</tspan></text>
      </g>
      <g class="cls-13">
        <text class="cls-7" transform="translate(361.7 178.8)"><tspan x="0" y="0">k</tspan></text>
        <text class="cls-7" transform="translate(367.4 178.8)"><tspan x="0" y="0">ub</tspan></text>
        <text class="cls-7" transform="translate(380 178.8)"><tspan x="0" y="0">e</tspan></text>
        <text class="cls-7" transform="translate(386.2 178.8)"><tspan x="0" y="0">-scheduler</tspan></text>
      </g>
      <g class="cls-13">
        <text class="cls-7" transform="translate(389.7 129.3)"><tspan x="0" y="0">e</tspan></text>
        <text class="cls-7" transform="translate(395.7 129.3)"><tspan x="0" y="0">t</tspan></text>
        <text class="cls-7" transform="translate(399.6 129.3)"><tspan x="0" y="0">c</tspan></text>
        <text class="cls-7" transform="translate(405 129.3)"><tspan x="0" y="0">d</tspan></text>
      </g>
      <g class="cls-13">
        <text class="cls-15" transform="translate(377.4 48)"><tspan x="0" y="0">Ma</tspan></text>
        <text class="cls-15" transform="translate(398.9 48)"><tspan x="0" y="0">s</tspan></text>
        <text class="cls-15" transform="translate(406.6 48)"><tspan x="0" y="0">t</tspan></text>
        <text class="cls-15" transform="translate(412.1 48)"><tspan x="0" y="0">er</tspan></text>
      </g>
      <g class="cls-13">
        <text class="cls-16" transform="translate(361.5 154.2)"><tspan x="0" y="0">k</tspan></text>
        <text class="cls-7" transform="translate(367.1 154.2)"><tspan x="0" y="0">onnectivity se</tspan></text>
        <text class="cls-7" transform="translate(435.4 154.2)"><tspan x="0" y="0">r</tspan></text>
        <text class="cls-7" transform="translate(439.6 154.2)"><tspan x="0" y="0">v</tspan></text>
        <text class="cls-7" transform="translate(444.9 154.2)"><tspan x="0" y="0">er</tspan></text>
      </g>
      <g class="cls-13">
        <text class="cls-19" transform="translate(353.2 235.7)"><tspan x="0" y="0">Ing</tspan></text>
        <text class="cls-19" transform="translate(374.1 235.7)"><tspan x="0" y="0">r</tspan></text>
        <text class="cls-19" transform="translate(379.2 235.7)"><tspan x="0" y="0">e</tspan></text>
        <text class="cls-19" transform="translate(386.9 235.7)"><tspan x="0" y="0">s</tspan></text>
        <text class="cls-19" transform="translate(393.6 235.7)"><tspan x="0" y="0">s ALB</tspan></text>
      </g>
      <g class="cls-13">
        <text class="cls-7" transform="translate(207.1 105.4)"><tspan x="0" y="0">k</tspan></text>
        <text class="cls-7" transform="translate(212.8 105.4)"><tspan x="0" y="0">ub</tspan></text>
        <text class="cls-7" transform="translate(225.4 105.4)"><tspan x="0" y="0">e</tspan></text>
        <text class="cls-7" transform="translate(231.5 105.4)"><tspan x="0" y="0">-p</tspan></text>
        <text class="cls-7" transform="translate(242.3 105.4)"><tspan x="0" y="0">r</tspan></text>
        <text class="cls-18" transform="translate(246.3 105.4)"><tspan x="0" y="0">o</tspan></text>
        <text class="cls-7" transform="translate(252.3 105.4)"><tspan x="0" y="0">xy</tspan></text>
      </g>
      <g class="cls-13">
        <text class="cls-12" transform="translate(120.7 46.8)"><tspan x="0" y="0">W</tspan></text>
        <text class="cls-15" transform="translate(134.7 46.8)"><tspan x="0" y="0">or</tspan></text>
        <text class="cls-12" transform="translate(149.5 46.8)"><tspan x="0" y="0">k</tspan></text>
        <text class="cls-15" transform="translate(157.7 46.8)"><tspan x="0" y="0">er node</tspan></text>
      </g>
      <g class="cls-13">
        <text class="cls-7" transform="translate(207.8 151.5)"><tspan x="0" y="0">Other pods</tspan></text>
      </g>
      <g class="cls-13">
        <text class="cls-7" transform="translate(216.6 129.2)"><tspan x="0" y="0">k</tspan></text>
        <text class="cls-7" transform="translate(222.3 129.2)"><tspan x="0" y="0">ubelet</tspan></text>
      </g>
      <g class="cls-13">
        <text class="cls-11" transform="translate(64.5 138.8)"><tspan x="0" y="0">Application</tspan></text>
      </g>
      <g class="cls-13">
        <text class="cls-7" transform="translate(63.1 109.8)"><tspan x="0" y="0">Container</tspan></text>
      </g>
      <g class="cls-13">
        <text class="cls-17" transform="translate(89 169.3)"><tspan x="0" y="0">P</tspan></text>
        <text class="cls-7" transform="translate(95.5 169.3)"><tspan x="0" y="0">od</tspan></text>
      </g>
      <g class="cls-13">
        <text class="cls-10" transform="translate(334.3 223.1)"><tspan x="0" y="0">7</tspan></text>
      </g>
      <g class="cls-13">
        <text class="cls-10" transform="translate(342.2 69.8)"><tspan x="0" y="0">6</tspan></text>
      </g>
      <g class="cls-13">
        <text class="cls-10" transform="translate(180.2 96.8)"><tspan x="0" y="0">5</tspan></text>
      </g>
      <g class="cls-13">
        <text class="cls-10" transform="translate(52.4 128.4)"><tspan x="0" y="0">3</tspan></text>
      </g>
      <g class="cls-13">
        <text class="cls-10" transform="translate(49.3 98)"><tspan x="0" y="0">2</tspan></text>
      </g>
      <g class="cls-13">
        <text class="cls-10" transform="translate(42.3 190.6)"><tspan x="0" y="0">4</tspan></text>
      </g>
      <g class="cls-13">
        <text class="cls-17" transform="translate(57.6 199)"><tspan x="0" y="0">P</tspan></text>
        <text class="cls-7" transform="translate(64.1 199)"><tspan x="0" y="0">ersi</tspan></text>
        <text class="cls-7" transform="translate(82.3 199)"><tspan x="0" y="0">s</tspan></text>
        <text class="cls-7" transform="translate(87.5 199)"><tspan x="0" y="0">t</tspan></text>
        <text class="cls-7" transform="translate(91.4 199)"><tspan x="0" y="0">ent</tspan></text>
        <text class="cls-7" transform="translate(64.1 212.2)"><tspan x="0" y="0">s</tspan></text>
        <text class="cls-7" transform="translate(69.4 212.2)"><tspan x="0" y="0">t</tspan></text>
        <text class="cls-7" transform="translate(73.2 212.2)"><tspan x="0" y="0">o</tspan></text>
        <text class="cls-7" transform="translate(79.4 212.2)"><tspan x="0" y="0">r</tspan></text>
        <text class="cls-7" transform="translate(83.4 212.2)"><tspan x="0" y="0">a</tspan></text>
        <text class="cls-7" transform="translate(89.2 212.2)"><tspan x="0" y="0">g</tspan></text>
        <text class="cls-7" transform="translate(95 212.2)"><tspan x="0" y="0">e</tspan></text>
      </g>
      <g class="cls-13">
        <text class="cls-10" transform="translate(104.2 35.8)"><tspan x="0" y="0">1</tspan></text>
      </g>
      <text class="cls-28" transform="translate(47.2 74.1)"><tspan x="0" y="0">default namespace</tspan></text>
    </g>
  </g>
</svg>