<svg version="1.1" id="Layer_1" xmlns="http://www.w3.org/2000/svg" x="0" y="0" viewBox="0 0 117 108" xml:space="preserve"><style>.st0{fill:#a30000}.st1{fill:#c00}</style><path class="st0" d="M33.9 48.5l-18.7 6.8c.2 3 .7 6 1.5 8.9l17.8-6.5c-.7-3-.9-6.1-.6-9.2m82.7-20.7c-1.3-2.7-2.8-5.3-4.6-7.8l-18.7 6.8c2.2 2.2 4 4.7 5.5 7.4l17.8-6.4z"/><path class="st1" d="M75.4 22.5c3.8 1.8 7.2 4.2 10.1 7.2l18.7-6.8C87.1-1.2 53.7-6.8 29.6 10.4 14.3 21.3 5.9 39.4 7.3 58.2L26 51.3c1.4-19.1 18.1-33.5 37.2-32 4.2.3 8.4 1.4 12.2 3.2M17.8 63.7L0 70.2c1.6 6.5 4.5 12.7 8.4 18.1L27 81.6c-4.7-4.9-7.9-11.1-9.2-17.9"/><path class="st1" d="M95.4 56.7c-.3 4.2-1.4 8.2-3.1 12C84.1 86.1 63.5 93.6 46 85.5c-3.8-1.8-7.2-4.2-10.1-7.2l-18.7 6.8c5.3 7.5 12.5 13.5 20.8 17.4 26.8 12.5 58.7.9 71.2-25.9 3.9-8.3 5.6-17.6 4.8-26.7l-18.6 6.8z"/><path class="st1" d="M100.1 33.8l-17.8 6.5c3.3 6 4.9 12.8 4.4 19.6l18.7-6.8c-.6-6.7-2.4-13.2-5.3-19.3"/><path d="M33.8 52.2c0-1.3 0-2.5.1-3.8l-18.7 6.8c.1 1.2.2 2.4.4 3.6l18.2-6.6zm80.1-29.4c-.6-1-1.2-1.9-1.9-2.8l-18.7 6.8c.8.8 1.6 1.7 2.3 2.7l18.3-6.7z" fill="#820000"/><path class="st0" d="M17.2 85.2c1.4 2 3 4 4.8 5.8l20.3-7.4c-2.3-1.5-4.5-3.2-6.4-5.2l-18.7 6.8zm96.9-35.3l-18.7 6.8c-.2 2.7-.7 5.4-1.6 8l20.3-7.4c.2-2.5.2-5 0-7.4"/></svg>