<svg xmlns="http://www.w3.org/2000/svg" width="32" height="32"><path d="M15.889.478c-.283.014-.56.084-.815.206L3.949 6a2.118 2.118 0 00-1.151 1.431L.053 19.371a2.093 2.093 0 00.41 1.786l7.7 9.574a2.133 2.133 0 001.663.794l12.348-.003c.647 0 1.259-.291 1.663-.792l7.697-9.575a2.096 2.096 0 00.411-1.786l-2.749-11.94a2.109 2.109 0 00-1.151-1.431L16.919.685a2.131 2.131 0 00-1.03-.207z" fill="#326ce5"/><path d="M15.999 4.541c-.368 0-.666.331-.666.74l.001.018c-.001.056-.003.122-.001.171.009.236.06.416.091.633.056.465.103.85.074 1.208-.028.135-.128.258-.216.344l-.016.282a8.564 8.564 0 00-5.555 2.671 6.553 6.553 0 01-.24-.171c-.119.016-.239.053-.396-.038-.298-.201-.569-.477-.898-.811-.15-.16-.259-.311-.438-.465-.041-.035-.103-.082-.148-.118a.795.795 0 00-.464-.175.64.64 0 00-.531.235c-.229.288-.156.727.164.982l.01.007c.044.036.098.081.138.111.19.14.363.212.552.323.398.246.728.45.99.696.102.109.12.301.134.384l.213.191a8.623 8.623 0 00-1.359 6.007l-.279.081c-.073.095-.177.244-.286.289-.343.108-.728.148-1.194.196-.219.018-.407.007-.639.051-.051.01-.122.028-.178.041l-.006.001-.01.003c-.392.095-.645.456-.563.811.081.355.465.572.859.487l.01-.001.013-.004c.055-.012.124-.026.172-.038.228-.061.393-.151.598-.229.441-.158.805-.29 1.161-.341.148-.012.305.092.383.135l.29-.05a8.661 8.661 0 003.84 4.795l-.121.29c.044.113.092.265.059.376-.129.335-.351.689-.603 1.083-.122.182-.247.324-.357.532-.026.05-.06.127-.085.179-.171.366-.046.788.283.946.331.159.741-.009.919-.376l.001-.001v-.001c.025-.052.061-.12.083-.169.094-.216.126-.401.192-.61.176-.443.273-.907.516-1.196.066-.079.175-.11.287-.14l.151-.273a8.608 8.608 0 006.145.016l.142.256c.114.037.239.056.34.206.181.31.306.677.457 1.12.066.209.099.394.193.61.022.049.057.119.083.171.177.368.589.537.921.377.329-.158.454-.58.283-.946-.025-.053-.06-.129-.087-.179-.11-.209-.235-.349-.357-.531-.252-.394-.461-.722-.59-1.057-.054-.173.009-.28.051-.393-.025-.029-.079-.192-.111-.269a8.664 8.664 0 003.839-4.829c.086.014.236.04.285.05.1-.066.192-.152.373-.138.356.051.72.183 1.161.341.205.078.37.17.598.23.048.013.117.025.172.037l.013.004.01.001c.395.085.778-.131.859-.487.081-.355-.171-.716-.563-.811-.057-.013-.138-.035-.194-.046-.232-.044-.42-.033-.639-.051-.466-.049-.851-.088-1.194-.196-.14-.054-.239-.22-.287-.289l-.269-.078a8.626 8.626 0 00-1.387-5.993l.236-.212c.011-.119.002-.245.125-.377.262-.246.592-.45.99-.696.189-.111.364-.183.553-.323.043-.032.101-.082.147-.118.319-.255.393-.694.164-.982-.229-.287-.674-.315-.993-.06-.045.036-.107.083-.148.118-.179.154-.289.306-.44.465-.328.334-.6.612-.898.812-.129.075-.318.049-.404.044l-.253.181a8.735 8.735 0 00-5.528-2.671c-.006-.099-.012-.198-.016-.297-.087-.083-.191-.154-.218-.333-.029-.358.019-.743.075-1.208.031-.217.082-.397.091-.633.002-.054-.001-.131-.001-.189.002-.408-.296-.739-.664-.739zm-.833 5.165l-.198 3.493-.014.007a.588.588 0 01-.932.45l-.006.003-2.864-2.03a6.86 6.86 0 014.014-1.923zm1.669 0a6.903 6.903 0 013.989 1.924l-2.846 2.018-.01-.004a.587.587 0 01-.933-.448l-.003-.001-.197-3.489zm-6.722 3.227l2.615 2.339-.003.014a.586.586 0 01-.23 1.009l-.003.011-3.352.967a6.859 6.859 0 01.973-4.34zm11.754.001c.389.63.683 1.333.858 2.096.173.753.216 1.506.145 2.232l-3.369-.97-.003-.014a.587.587 0 01-.231-1.009l-.001-.007 2.601-2.328zm-6.404 2.518h1.071l.666.832-.239 1.039-.962.462-.965-.464-.239-1.039.668-.83zm3.435 2.849a.61.61 0 01.135.01l.006-.007 3.467.586a6.856 6.856 0 01-2.776 3.487l-1.346-3.251.004-.006a.588.588 0 01.51-.819zm-5.824.014a.586.586 0 01.53.818l.01.013-1.332 3.218a6.888 6.888 0 01-2.767-3.463l3.437-.583.006.007a.641.641 0 01.116-.01zm2.904 1.41a.597.597 0 01.538.308h.013l1.695 3.062c-.22.074-.446.137-.677.189a6.894 6.894 0 01-3.758-.193l1.69-3.056h.003a.588.588 0 01.496-.31z" fill="#fff" stroke="#fff" stroke-width=".011"/></svg>