<svg id="Layer_1" data-name="Layer 1" xmlns="http://www.w3.org/2000/svg" viewBox="0 0 3835 1996.69995"><defs><style>.cls-1{fill:#0f6fff;}.cls-2{isolation:isolate;}</style></defs><title>logo-ibm-cloud-kubernetes-service-light</title><g id="Layer_1-2" data-name="Layer 1"><path d="M0,584.4c0,26.9,14.8,53.7,44.3,74.1L739,1138c59.1,40.8,155.8,40.8,214.9,0L1648.7,658.7c29.6-20.4,44.3-47.3,44.3-74.1V1412.7c0,26.9-14.8,53.7-44.3,74.1L953.9,1966.09985c-59.1,40.8-155.8,40.8-214.9,0L44.3,1486.7C14.8,1466.3,0,1439.4,0,1412.5Z"/><path class="cls-1" d="M0,584.4c0,26.9,14.8,53.7,44.3,74.1L537,998.5,739.1,859.1c59.1-40.8,155.8-40.8,214.9,0l202,139.5,492.7-339.9c29.6-20.4,44.3-47.3,44.3-74.1v-.4c0-26.9-14.8-53.8-44.3-74.1L954,30.6c-59.1-40.8-155.8-40.8-214.9,0L44.3,509.9C14.8,530.3,0,557.2,0,584v.4Z"/><g class="cls-2"><path d="M1774.97949,587.44043V539.04h36V356.64063h-36V308.24023H1907.7793v48.40039h-36V539.04h36v48.40039Z"/><path d="M1958.57617,308.24023h135.60059q34.79883,0,54.19922,19.60059,19.39746,19.60254,19.40039,52,0,16.002-4.20019,27.19922a52.36829,52.36829,0,0,1-11.20019,18.40039A42.96648,42.96648,0,0,1,2135.97656,436.04a66.04742,66.04742,0,0,1-20.20019,3.80078v2.39941a67.53191,67.53191,0,0,1,21,3.60059,59.83008,59.83008,0,0,1,20.20019,11.39941,63.03734,63.03734,0,0,1,15.39942,20.2002q6.19775,12.40283,6.20019,30.40039a88.62706,88.62706,0,0,1-5.39941,31,79.053,79.053,0,0,1-15,25.39941,69.94518,69.94518,0,0,1-22.80078,17,66.82116,66.82116,0,0,1-28.79981,6.2002h-148ZM2019.377,422.64063h60.39941q12,0,18.79981-6.7998,6.79688-6.79687,6.79981-18.80078v-12q0-12-6.79981-18.7998-6.80567-6.79687-18.79981-6.7998H2019.377Zm0,113.59961h69.999q12,0,19-6.59961,6.99463-6.60059,7-18.60059V497.44043q0-12-7-18.59961-7.002-6.60059-19-6.60059h-69.999Z"/><path d="M2434.17285,404.24023h-1.19922L2412.57324,445.04l-54.40039,98.80078-53.19922-98.40039-21.20019-44h-1.2002v186H2225.373V308.24023h64.40039L2358.17285,439.04h.80078l67.59961-130.7998H2491.373v279.2002h-57.20019Z"/><path d="M2760.16309,592.24023q-28.40625,0-51.19922-9a101.44893,101.44893,0,0,1-38.80078-26.7998q-16.002-17.79346-24.79981-44.40039-8.80225-26.5957-8.7998-62.19922,0-35.19434,8.7998-62.60059,8.79346-27.394,24.79981-46a103.39075,103.39075,0,0,1,38.80078-28.2002q22.79883-9.59912,51.19922-9.59961,38.79492,0,64,15.7998,25.20117,15.80713,40.40039,49.7998l-52.40039,27.2002q-5.606-17.59717-17.39941-28.2002-11.80371-10.59375-34.60059-10.59961-26.80225,0-43,17.40039-16.19971,17.39941-16.19922,50.59961v44.7998q0,33.20654,16.19922,50.60059,16.20117,17.39941,43,17.39941,22.39746,0,35.80078-12.2002a74.14156,74.14156,0,0,0,19.79981-29.39941l49.59961,28.7998q-15.59912,32.00684-41,49.40039Q2798.957,592.24023,2760.16309,592.24023Z"/><path d="M2963.3584,587.44043q-30.4043,0-44.60059-14.7998-14.20312-14.79346-14.20019-42.7998V291.44043h59.20019v250h26.40039v46Z"/><path d="M3110.95508,592.24023q-23.20312,0-41.39941-7.59961a82.53064,82.53064,0,0,1-30.80078-22q-12.59912-14.40088-19.39941-34.7998-6.80713-20.40088-6.79981-45.60059,0-25.19971,6.79981-45.59961,6.79688-20.40088,19.39941-34.60059a83.694,83.694,0,0,1,30.80078-21.7998q18.19629-7.59375,41.39941-7.59961,23.19434,0,41.40039,7.59961a83.7467,83.7467,0,0,1,30.7998,21.7998q12.60059,14.20313,19.40039,34.60059,6.79688,20.39941,6.79981,45.59961,0,25.19971-6.79981,45.60059-6.80713,20.39941-19.40039,34.7998a82.58175,82.58175,0,0,1-30.7998,22Q3134.14892,592.23438,3110.95508,592.24023Zm0-46.7998q17.59717,0,27.20019-10.7998,9.60059-10.80029,9.59961-30.7998V461.04q0-19.99658-9.59961-30.7998-9.60058-10.80029-27.20019-10.7998-17.606,0-27.20019,10.7998-9.59912,10.80029-9.59961,30.7998v42.80078q0,20.00537,9.59961,30.7998Q3093.35547,545.44092,3110.95508,545.44043Z"/><path d="M3375.35352,552.24023h-2a73.00205,73.00205,0,0,1-7.39941,15.2002,50.9619,50.9619,0,0,1-11.79981,12.7998,55.33124,55.33124,0,0,1-17,8.7998,72.89193,72.89193,0,0,1-22.60059,3.2002q-32.39941,0-49-21.39941-16.60254-21.394-16.59961-61.40039v-132h59.20019v126.7998q0,19.19971,6.79981,29.60059,6.79688,10.40625,23.20019,10.39941a47.85584,47.85584,0,0,0,13.59961-2,38.51336,38.51336,0,0,0,12-5.7998,29.89268,29.89268,0,0,0,8.40039-9.40039,26.16747,26.16747,0,0,0,3.19922-13.19922V377.44043h59.20019v210h-59.20019Z"/><path d="M3618.55176,552.24023h-2a52.41537,52.41537,0,0,1-7.60059,15.7998,54.69016,54.69016,0,0,1-12.59961,12.80078,58.4899,58.4899,0,0,1-16.7998,8.39941,63.45919,63.45919,0,0,1-19.40039,3q-40.00342,0-60.40039-28.2002-20.39942-28.19971-20.39942-81.7998,0-53.59717,20.39942-81.59961,20.40088-27.99463,60.40039-28a61.06826,61.06826,0,0,1,36.20019,11.2002q15.79688,11.20313,20.2002,28.7998h2V291.44043H3677.751v296h-59.19922Zm-38.80078-8q16.80029,0,27.80078-8.2002,10.99658-8.19287,11-22.59961v-62q0-14.39941-11-22.59961-11.00684-8.19434-27.80078-8.2002-16.79883,0-27.79981,11.7998-11.00537,11.80371-11,31.7998v36.40039q0,20.00537,11,31.7998Q3562.94775,544.24414,3579.751,544.24023Z"/></g><g class="cls-2"><path d="M1865.37988,990.73975l-39.60059,44.00049v93.2002h-33.59961V848.73975h33.59961V997.14014h1.20019l40-48.40039,84.40039-100h41.20019l-104,119.60059,111.19922,159.6001h-41.59961Z"/><path d="M2165.77637,1094.72168h-1.59961a98.55819,98.55819,0,0,1-7.80078,14.0625,52.55693,52.55693,0,0,1-11.39844,12.27539,53.386,53.386,0,0,1-16.40039,8.51172,71.54945,71.54945,0,0,1-22.40039,3.16895q-32.00684,0-50.80078-20.59961-18.8042-20.59717-18.79883-58.20019V921.53955h32v127.07568q0,55.72559,47.19922,55.72559a71.63967,71.63967,0,0,0,18.59961-2.40625,51.40434,51.40434,0,0,0,16-7.21289,36.449,36.449,0,0,0,11.20117-12.22461q4.19824-7.4165,4.19922-17.84375V921.53955h32v206.40088h-32Z"/><path d="M2265.77441,831.93994h32V954.7583h1.59961q7.998-19.40625,23.40039-28.71191,15.394-9.30029,37-9.30664a78.45685,78.45685,0,0,1,34.79981,7.60059,75.675,75.675,0,0,1,26.60059,21.59961q10.99658,14.00684,16.7998,34,5.79346,20.00684,5.79981,44.80029,0,24.80713-5.79981,44.7998-5.80371,20.00684-16.7998,34a75.53919,75.53919,0,0,1-26.60059,21.60059,78.45641,78.45641,0,0,1-34.79981,7.59961q-42,0-60.40039-38.01855h-1.59961v33.21875h-32Zm85.20019,272.40088q27.19629,0,42.79981-17.082,15.60059-17.08008,15.59961-44.83105v-35.375q0-27.74048-15.59961-44.82568-15.60059-17.08008-42.79981-17.08691a69.57,69.57,0,0,0-20.60059,3.01855,57.53267,57.53267,0,0,0-17,8.2373,39.63933,39.63933,0,0,0-11.39941,12.66309,31.81121,31.81121,0,0,0-4.20019,15.88086v77.188a37.30121,37.30121,0,0,0,4.20019,17.89355,40.17584,40.17584,0,0,0,11.39941,13.2627,51.51979,51.51979,0,0,0,17,8.24414A74.312,74.312,0,0,0,2350.97461,1104.34082Z"/><path d="M2575.36816,1132.74023q-21.20508,0-38.19922-7.59961a82.247,82.247,0,0,1-29.20019-21.79981,99.93,99.93,0,0,1-18.79981-34q-6.60058-19.80029-6.60059-44.60059,0-24.394,6.60059-44.3999a99.70511,99.70511,0,0,1,18.79981-34.2002,82.38545,82.38545,0,0,1,29.20019-21.7998q16.99658-7.59375,38.19922-7.60059,20.79492,0,37.20019,7.5752a82.46422,82.46422,0,0,1,28,20.93164,93.28484,93.28484,0,0,1,17.79981,31.6875,125.05981,125.05981,0,0,1,6.20019,40.25635v15.15039H2516.16895v9.59961a70.61246,70.61246,0,0,0,4.19922,24.59961,58.437,58.437,0,0,0,12,19.80078,54.82633,54.82633,0,0,0,19.20019,13.19922,65.92518,65.92518,0,0,0,25.79981,4.80078q19.59375,0,34.20019-9.20019,14.59717-9.19775,22.60059-26.40039l22.79981,16.50684q-10.00342,21.33692-31.20019,34.41211Q2604.562,1132.73731,2575.36816,1132.74023Zm0-189.20068a60.94251,60.94251,0,0,0-24,4.5752,53.95113,53.95113,0,0,0-18.59961,12.91895,60.58689,60.58689,0,0,0-12.2002,19.6748,68.01672,68.01672,0,0,0-4.39941,24.85107v2.78125h114v-4.375q0-27.43286-15-43.92627Q2600.16895,943.53955,2575.36816,943.53955Z"/><path d="M2717.36719,1127.94043V921.53955h32v38h2q5.59717-14.79346,20-26.39941,14.39941-11.59717,39.59961-11.60059h12.40039v32h-18.79981q-26.00684,0-40.60059,9.80078-14.606,9.80566-14.59961,24.59961v140.00049Z"/><path d="M2864.16309,1127.94043V921.53955h32V954.7583h1.59961q7.59375-17.41846,21.40039-27.71875,13.80029-10.29346,37-10.2998,31.99658,0,50.59961,20.60059,18.60059,20.606,18.60059,58.19922v132.40088h-32v-127.0752q0-55.72485-46.7998-55.7251a71.857,71.857,0,0,0-18.60059,2.40625,54.13869,54.13869,0,0,0-16.2002,7.21875,35.67149,35.67149,0,0,0-11.39941,12.22461,34.80138,34.80138,0,0,0-4.20019,17.4375v143.51318Z"/><path d="M3168.96,1132.74023q-21.20508,0-38.19922-7.59961a82.247,82.247,0,0,1-29.20019-21.79981,99.93,99.93,0,0,1-18.79981-34q-6.60058-19.80029-6.60059-44.60059,0-24.394,6.60059-44.3999a99.70511,99.70511,0,0,1,18.79981-34.2002,82.38545,82.38545,0,0,1,29.20019-21.7998q16.99658-7.59375,38.19922-7.60059,20.79492,0,37.20019,7.5752a82.46422,82.46422,0,0,1,28,20.93164,93.28484,93.28484,0,0,1,17.79981,31.6875,125.05981,125.05981,0,0,1,6.20019,40.25635v15.15039H3109.76074v9.59961A70.61246,70.61246,0,0,0,3113.96,1066.54a58.437,58.437,0,0,0,12,19.80078,54.82633,54.82633,0,0,0,19.20019,13.19922,65.92518,65.92518,0,0,0,25.79981,4.80078q19.59375,0,34.20019-9.20019,14.59717-9.19775,22.60059-26.40039l22.79981,16.50684q-10.00342,21.33692-31.20019,34.41211Q3198.15381,1132.73731,3168.96,1132.74023Zm0-189.20068a60.94251,60.94251,0,0,0-24,4.5752,53.95113,53.95113,0,0,0-18.59961,12.91895,60.58689,60.58689,0,0,0-12.2002,19.6748,68.01672,68.01672,0,0,0-4.39941,24.85107v2.78125h114v-4.375q0-27.43286-15-43.92627Q3193.76074,943.53955,3168.96,943.53955Z"/><path d="M3356.55762,1127.94043q-16.79883,0-25.39941-9.375-8.606-9.375-8.60059-24.54981V949.93994h-34V921.53955h19.20019q10.39746,0,14.2002-4.19922,3.79688-4.20117,3.7998-14.60059V864.34033h28.79981v57.19922h45.20019v28.40039h-45.20019V1099.54h42v28.40039Z"/><path d="M3527.3584,1132.74023q-21.20508,0-38.19922-7.59961a82.247,82.247,0,0,1-29.2002-21.79981,99.93,99.93,0,0,1-18.7998-34q-6.60059-19.80029-6.60059-44.60059,0-24.394,6.60059-44.3999a99.7051,99.7051,0,0,1,18.7998-34.2002,82.38545,82.38545,0,0,1,29.2002-21.7998q16.99658-7.59375,38.19922-7.60059,20.79492,0,37.2002,7.5752a82.46424,82.46424,0,0,1,28,20.93164,93.28484,93.28484,0,0,1,17.7998,31.6875,125.05981,125.05981,0,0,1,6.2002,40.25635v15.15039H3468.15918v9.59961a70.61249,70.61249,0,0,0,4.19922,24.59961,58.437,58.437,0,0,0,12,19.80078,54.82634,54.82634,0,0,0,19.2002,13.19922,65.92517,65.92517,0,0,0,25.7998,4.80078q19.59375,0,34.2002-9.20019,14.59717-9.19775,22.60059-26.40039l22.7998,16.50684q-10.00342,21.33692-31.20019,34.41211Q3556.55225,1132.73731,3527.3584,1132.74023Zm0-189.20068a60.94252,60.94252,0,0,0-24,4.5752,53.95114,53.95114,0,0,0-18.59961,12.91895,60.58688,60.58688,0,0,0-12.20019,19.6748,68.01672,68.01672,0,0,0-4.39941,24.85107v2.78125h114v-4.375q0-27.43286-15-43.92627Q3552.15918,943.53955,3527.3584,943.53955Z"/><path d="M3731.35645,1132.74023q-28.80029,0-48.20019-11a109.51453,109.51453,0,0,1-33.39941-29.39941l22.79981-18.40039q12,15.20654,26.7998,23.40039,14.79346,8.20313,34.40039,8.19922,20.39941,0,31.79981-8.7998,11.39941-8.79346,11.39941-24.7998a29.61082,29.61082,0,0,0-7.79981-20.59961q-7.80029-8.59717-28.20019-11.80078l-16.39941-2.39941a136.69012,136.69012,0,0,1-26.40039-6.20019,73.31926,73.31926,0,0,1-21-11.2002,48.077,48.077,0,0,1-14-17.39941q-5.00537-10.39819-5-24.80127,0-15.19629,5.60059-26.59961a53.5327,53.5327,0,0,1,15.39941-19,67.35748,67.35748,0,0,1,23.40039-11.40039,108.171,108.171,0,0,1,29.20019-3.7998q25.19971,0,42.19922,8.7998a94.69642,94.69642,0,0,1,29.80078,24.40039l-21.20019,19.2002q-6.80713-9.60059-20-17.40039-13.19971-7.80029-33.2002-7.7998-20.00683,0-30.20019,8.59961-10.19971,8.60742-10.20019,23.40039,0,15.20654,10.20019,22,10.19971,6.8064,29.40039,10.00049l16,2.40039q34.396,5.20313,48.7998,19.7998,14.39942,14.606,14.40039,38.20019,0,30-20.40039,47.19922Q3766.957,1132.74316,3731.35645,1132.74023Z"/></g><g class="cls-2"><path d="M1870.58008,1667.24023q-34.00342,0-58-13a123.0483,123.0483,0,0,1-40.80029-35.7998l24.80029-20.79981q14.79346,19.60254,32.79981,29.79981,18,10.19971,42.3999,10.20019,30,0,45.80029-14.40039,15.79688-14.39941,15.79981-38.39941,0-19.998-12-30.80078-12-10.79883-39.6001-17.19922l-22.7998-5.20019q-38.40015-8.79346-58.6001-26.60059-20.20312-17.79346-20.19971-50.19922,0-18.394,6.7998-32.80078a65.78829,65.78829,0,0,1,19-24,85.83206,85.83206,0,0,1,29.2002-14.59961,132.24991,132.24991,0,0,1,37.3999-5q31.59375,0,54.19922,11.59961,22.59375,11.60742,38.20117,34l-25.20117,18.40039a87.01557,87.01557,0,0,0-27.99951-25.2002q-16.40625-9.19629-40.7998-9.2002-26.803,0-42.2002,11.40039-15.40283,11.39941-15.3999,34.20019,0,20.00537,13,30.20019,12.9939,10.19971,39.3999,16.19922l22.80029,5.2002q41.1936,9.20654,59.59961,28,18.394,18.80713,18.40039,50a88.48169,88.48169,0,0,1-6.59961,34.7998,71.41772,71.41772,0,0,1-19,26.40039,88.37327,88.37327,0,0,1-30.20068,16.7998Q1892.97681,1667.24023,1870.58008,1667.24023Z"/><path d="M2098.97656,1667.24023q-21.20508,0-38.19922-7.59961a82.24349,82.24349,0,0,1-29.19922-21.79981,99.93178,99.93178,0,0,1-18.80078-34q-6.60059-19.80029-6.59961-44.60059,0-24.394,6.59961-44.39941,6.60059-19.998,18.80078-34.20019a82.382,82.382,0,0,1,29.19922-21.79981q16.998-7.59375,38.19922-7.60059,20.79492,0,37.20117,7.5752a82.47366,82.47366,0,0,1,28,20.93164,93.29922,93.29922,0,0,1,17.79883,31.6875,125.0298,125.0298,0,0,1,6.20117,40.25586v15.15039H2039.77734v9.59961a70.61275,70.61275,0,0,0,4.20019,24.59961,58.4193,58.4193,0,0,0,11.999,19.80078,54.83925,54.83925,0,0,0,19.20117,13.19922,65.9168,65.9168,0,0,0,25.79883,4.80078q19.59375,0,34.20117-9.20019,14.5957-9.19775,22.59961-26.40039l22.80078,16.50684q-10.00488,21.33692-31.20117,34.41211Q2128.17187,1667.23731,2098.97656,1667.24023Zm0-189.2002a60.94937,60.94937,0,0,0-24,4.5752,53.96034,53.96034,0,0,0-18.59961,12.91895,60.60114,60.60114,0,0,0-12.19922,19.6748,68.01613,68.01613,0,0,0-4.40039,24.85059v2.78125h114v-4.375q0-27.43213-15-43.92578Q2123.77734,1478.04,2098.97656,1478.04Z"/><path d="M2240.97656,1662.44043V1456.04h32v38h2q5.5957-14.79346,20-26.39941,14.39942-11.59717,39.59961-11.60059h12.40039v32h-18.80078q-26.00683,0-40.59961,9.80078-14.60742,9.80567-14.59961,24.59961v140Z"/><path d="M2437.36914,1662.44043,2364.96875,1456.04h32l36,102.40039,22.40039,70.40039h2l22.40039-70.40039L2516.56836,1456.04h30.80078l-72.80078,206.40039Z"/><path d="M2604.56445,1407.64063q-10.40625,0-15-5-4.60254-4.99658-4.59961-13v-5.20019q0-7.99658,4.59961-13,4.59375-4.99658,15-5,10.39746,0,15,5,4.59375,5.00683,4.59961,13v5.20019q0,8.00537-4.59961,13Q2614.96191,1407.646,2604.56445,1407.64063Zm-16,48.39941h32v206.40039h-32Z"/><path d="M2765.36523,1667.24023q-21.60058,0-38.80078-7.59961a79.11932,79.11932,0,0,1-29-21.60059q-11.80371-13.99658-18-34-6.20508-19.99658-6.19922-44.7998,0-24.79687,6.19922-44.7998,6.19629-19.99658,18-34a79.25748,79.25748,0,0,1,29-21.59961q17.19434-7.59375,38.80078-7.60059,30.79688,0,49.40039,13.40039a81.77621,81.77621,0,0,1,27.79883,35l-26.79883,13.59961q-5.60742-15.99316-18.40039-24.7998-12.80566-8.79346-32-8.79981-14.39941,0-25.20117,4.59961a49.29773,49.29773,0,0,0-18,12.7998,53.89994,53.89994,0,0,0-10.79883,19.60059,82.68086,82.68086,0,0,0-3.59961,25v35.20019q0,27.20508,14.59961,44.59961,14.5957,17.39941,43,17.40039,38.792,0,56-36l23.19922,15.59961a81.96365,81.96365,0,0,1-29.79883,35.59961Q2794.96387,1667.24121,2765.36523,1667.24023Z"/><path d="M2964.96289,1667.24023q-21.20508,0-38.19922-7.59961a82.25043,82.25043,0,0,1-29.20117-21.79981,99.92818,99.92818,0,0,1-18.79883-34q-6.60059-19.80029-6.60156-44.60059,0-24.394,6.60156-44.39941a99.70336,99.70336,0,0,1,18.79883-34.20019,82.38892,82.38892,0,0,1,29.20117-21.79981q16.99512-7.59375,38.19922-7.60059,20.79492,0,37.19922,7.5752a82.45478,82.45478,0,0,1,28,20.93164,93.27047,93.27047,0,0,1,17.80078,31.6875,125.08377,125.08377,0,0,1,6.19922,40.25586v15.15039H2905.76367v9.59961a70.58989,70.58989,0,0,0,4.19922,24.59961,58.437,58.437,0,0,0,12,19.80078,54.81342,54.81342,0,0,0,19.19922,13.19922,65.93355,65.93355,0,0,0,25.80078,4.80078q19.59375,0,34.19922-9.20019,14.59863-9.19775,22.60156-26.40039l22.79883,16.50684q-10.002,21.33692-31.19922,34.41211Q2994.15527,1667.23731,2964.96289,1667.24023Zm0-189.2002a60.93568,60.93568,0,0,0-24,4.5752,53.942,53.942,0,0,0-18.59961,12.91895,60.57267,60.57267,0,0,0-12.20117,19.6748,68.01577,68.01577,0,0,0-4.39844,24.85059v2.78125h114v-4.375q0-27.43213-15-43.92578Q2989.76367,1478.04,2964.96289,1478.04Z"/></g></g></svg>