<?xml version="1.0" encoding="utf-8"?>
<!-- Generator: Adobe Illustrator 22.0.0, SVG Export Plug-In . SVG Version: 6.00 Build 0)  -->
<svg version="1.1" id="Layer_1" xmlns="http://www.w3.org/2000/svg" xmlns:xlink="http://www.w3.org/1999/xlink" x="0px" y="0px"
	 viewBox="0 0 30.9 31.5" style="enable-background:new 0 0 30.9 31.5;" xml:space="preserve">
<style type="text/css">
	.st0{fill:none;stroke:#000000;stroke-width:0.72;stroke-linejoin:round;stroke-miterlimit:10;}
</style>
<g id="network_services">
	<path id="network_services_2_" class="st0" d="M18,28.3c0,1.4-1.1,2.5-2.5,2.5S13,29.6,13,28.3s1.1-2.5,2.5-2.5S18,26.9,18,28.3z
		 M19.5,11.8c-1.4,0-2.5,1.1-2.5,2.5s1.1,2.5,2.5,2.5s2.5-1.1,2.5-2.5S20.9,11.8,19.5,11.8z M19.5,16.8v6c0,1.1,0.9,2,2,2h4
		 M5.5,24.8h4c1.1,0,2-0.9,2-2v-2 M5.5,22.3h-5v5h5V22.3z M25.5,21.8v6l5-3L25.5,21.8z M23.5,18.8l2.5,0c2.5,0,4.5-2,4.5-4.5
		s-2-4.5-4.5-4.5c-0.5,0-0.5,0-0.5,0c0-5-4-9-9-9c-3.5,0-6.6,2-8,5H7c-3.6,0-6.5,2.9-6.5,6.5s2.9,6.5,6.5,6.5h6.5c1.1,0,2,0.9,2,2
		l0,5"/>
</g>
<g id="Layer_1_1_">
</g>
</svg>
