<?xml version="1.0" encoding="utf-8"?>
<!-- Generator: Adobe Illustrator 22.0.0, SVG Export Plug-In . SVG Version: 6.00 Build 0)  -->
<svg version="1.1" id="Layer_1" xmlns="http://www.w3.org/2000/svg" xmlns:xlink="http://www.w3.org/1999/xlink" x="0px" y="0px"
	 viewBox="0 0 31.2 31.3" style="enable-background:new 0 0 31.2 31.3;" xml:space="preserve">
<style type="text/css">
	.st0{fill:none;stroke:#000000;stroke-width:0.72;stroke-linecap:round;stroke-linejoin:round;stroke-miterlimit:10;}
	.st1{fill:none;stroke:#000000;stroke-width:0.72;stroke-miterlimit:10;}
	.st2{fill:none;stroke:#000000;stroke-width:0.72;stroke-linejoin:bevel;stroke-miterlimit:10;}
</style>
<g id="networking_04">
	<g id="networking_04_1_">
		<rect x="0.6" y="18.5" class="st0" width="12" height="12"/>
		<path class="st1" d="M30.6,6.5c0,3.3-2.7,6-6,6s-6-2.7-6-6s2.7-6,6-6S30.6,3.2,30.6,6.5z M16.1,6.5H8.6c-1.1,0-2,0.9-2,2v8
			 M13.2,9.3l2.8-2.8l-2.8-2.8 M15.1,24.5h7.5c1.1,0,2-0.9,2-2v-8 M17.9,21.7l-2.8,2.8l2.8,2.8 M4.6,24.5h2.5c0.8,0,1.5-0.7,1.5-1.5
			l0,0c0-0.8-0.7-1.5-1.5-1.5H4.6V24.5z M4.6,24.5v3h2.5c0.8,0,1.5-0.7,1.5-1.5l0,0c0-0.8-0.7-1.5-1.5-1.5"/>
		<polyline class="st2" points="22.2,9.5 24.6,3.5 27,9.5 		"/>
		<line class="st1" x1="22.9" y1="7.5" x2="26.2" y2="7.5"/>
	</g>
</g>
<g id="Layer_1_1_">
</g>
</svg>
