<?xml version="1.0" encoding="UTF-8"?>
<svg xmlns="http://www.w3.org/2000/svg" width="603" height="454" xmlns:xlink="http://www.w3.org/1999/xlink" version="1.1" viewBox="0 0 603 454">
  <defs>
    <style>
      .cls-1, .cls-2, .cls-3, .cls-4, .cls-5 {
        fill: none;
      }

      .cls-2, .cls-6, .cls-7, .cls-3, .cls-8 {
        stroke-width: 4px;
      }

      .cls-2, .cls-6, .cls-7, .cls-3, .cls-4, .cls-9, .cls-5, .cls-10, .cls-11 {
        stroke-miterlimit: 10;
      }

      .cls-2, .cls-6, .cls-12, .cls-8, .cls-5, .cls-11 {
        stroke: #06c;
      }

      .cls-13 {
        font-size: 12px;
      }

      .cls-13, .cls-14, .cls-15 {
        isolation: isolate;
      }

      .cls-13, .cls-15 {
        font-family: Helvetica, Helvetica;
      }

      .cls-14 {
        font-family: ArialMT, Arial;
        font-size: 10px;
      }

      .cls-6, .cls-11 {
        fill: #06c;
      }

      .cls-7, .cls-3 {
        stroke: #ff0808;
      }

      .cls-7, .cls-15 {
        fill: #ff0808;
      }

      .cls-16, .cls-12, .cls-8, .cls-17, .cls-18 {
        fill: #fff;
      }

      .cls-16, .cls-4, .cls-9, .cls-18 {
        stroke: #000;
      }

      .cls-12, .cls-17 {
        stroke-width: 3px;
      }

      .cls-17 {
        stroke: #b3b3b3;
      }

      .cls-19, .cls-10 {
        fill: #dae8fc;
        stroke: #6c8ebf;
      }

      .cls-18 {
        stroke-dasharray: 8 8;
      }

      .cls-15 {
        font-size: 11px;
      }

      .cls-5, .cls-11 {
        stroke-width: 2px;
      }
    </style>
  </defs>
  <!-- Generator: Adobe Illustrator 28.7.1, SVG Export Plug-In . SVG Version: 1.2.0 Build 142)  -->
  <g>
    <g id="Layer_1">
      <circle class="cls-16" cx="15.5" cy="330" r="7.5" pointer-events="all"/>
      <path class="cls-4" d="M15.5,337.5v25M15.5,342.5H.5M15.5,342.5h15M15.5,362.5l-15,20M15.5,362.5l15,20" pointer-events="all"/>
      <text class="cls-13" transform="translate(1 401)"><tspan x="0" y="0">Actor</tspan></text>
      <rect class="cls-8" x="150.5" y="2.5" width="450" height="450" pointer-events="all"/>
      <rect class="cls-1" x="160.5" y="2.5" width="60" height="30" pointer-events="all"/>
      <text class="cls-13" transform="translate(162 21)"><tspan x="0" y="0">IBM Cloud</tspan></text>
      <rect class="cls-17" x="175.5" y="32.5" width="405" height="405" pointer-events="all"/>
      <rect class="cls-1" x="175.5" y="32.5" width="60" height="30" pointer-events="all"/>
      <text class="cls-13" transform="translate(181 51)"><tspan x="0" y="0">Region 1</tspan></text>
      <rect class="cls-8" x="200.5" y="72.5" width="360" height="360" pointer-events="all"/>
      <rect class="cls-1" x="200.5" y="72.5" width="60" height="30" pointer-events="all"/>
      <text class="cls-13" transform="translate(217.7 91)"><tspan x="0" y="0">VPC</tspan></text>
      <rect class="cls-12" x="280.5" y="147.5" width="270" height="270" pointer-events="all"/>
      <rect class="cls-1" x="290.5" y="147.5" width="130" height="30" pointer-events="all"/>
      <text class="cls-13" transform="translate(302.6 166)"><tspan x="0" y="0">Kubernetes Service</tspan></text>
      <rect class="cls-1" x="208" y="282.5" width="65" height="30" pointer-events="all"/>
      <text class="cls-13" transform="translate(201.3 301)"><tspan x="0" y="0">Network Loa...</tspan></text>
      <path class="cls-4" d="M283,397.5h20v5h1.1" pointer-events="stroke"/>
      <path class="cls-9" d="M309.4,402.5l-7,3.5,1.8-3.5-1.8-3.5,7,3.5Z" pointer-events="all"/>
      <rect class="cls-1" x="200.5" y="377.5" width="82.5" height="40" pointer-events="all"/>
      <text class="cls-13" transform="translate(196.3 401)"><tspan x="0" y="0">Port range 300...</tspan></text>
      <rect class="cls-18" x="290.5" y="170.5" width="127.5" height="239" pointer-events="all"/>
      <rect class="cls-19" x="300.5" y="182.5" width="100" height="60" rx="9" ry="9" pointer-events="all"/>
      <text class="cls-13" transform="translate(313 216)"><tspan x="0" y="0">Deployment 1</tspan></text>
      <path class="cls-10" d="M375.5,252.5h20l20,25-20,25h-20l-20-25,20-25Z" pointer-events="all"/>
      <text class="cls-13" transform="translate(374.3 281)"><tspan x="0" y="0">Pod</tspan></text>
      <rect class="cls-1" x="320.5" y="302.5" width="60" height="30" pointer-events="all"/>
      <text class="cls-13" transform="translate(315.6 321)"><tspan x="0" y="0">Nodeport s...</tspan></text>
      <rect class="cls-1" x="310.5" y="387.5" width="80" height="30" pointer-events="all"/>
      <text class="cls-13" transform="translate(320.6 406)"><tspan x="0" y="0">Port 30000</tspan></text>
      <path class="cls-4" d="M320.5,252.5l30-10" pointer-events="stroke"/>
      <path class="cls-4" d="M378,252.5l-27.5-10" pointer-events="stroke"/>
      <path class="cls-10" d="M310.5,252.5h20l20,25-20,25h-20l-20-25,20-25Z" pointer-events="all"/>
      <text class="cls-13" transform="translate(309.3 281)"><tspan x="0" y="0">Pod</tspan></text>
      <rect class="cls-18" x="420.5" y="170.5" width="127.5" height="239" pointer-events="all"/>
      <rect class="cls-19" x="430.5" y="182.5" width="100" height="60" rx="9" ry="9" pointer-events="all"/>
      <text class="cls-13" transform="translate(443 216)"><tspan x="0" y="0">Deployment 2</tspan></text>
      <path class="cls-10" d="M440.5,252.5h20l20,25-20,25h-20l-20-25,20-25Z" pointer-events="all"/>
      <text class="cls-13" transform="translate(439.3 281)"><tspan x="0" y="0">Pod</tspan></text>
      <rect class="cls-1" x="450.5" y="302.5" width="60" height="30" pointer-events="all"/>
      <text class="cls-13" transform="translate(445.6 321)"><tspan x="0" y="0">Nodeport s...</tspan></text>
      <rect class="cls-1" x="440.5" y="387.5" width="80" height="30" pointer-events="all"/>
      <text class="cls-13" transform="translate(450.6 406)"><tspan x="0" y="0">Port 30001</tspan></text>
      <path class="cls-4" d="M450.5,252.5l30-10" pointer-events="stroke"/>
      <path class="cls-4" d="M515.5,252.5l-35-10" pointer-events="stroke"/>
      <path class="cls-10" d="M505.5,252.5h20l20,25-20,25h-20l-20-25,20-25Z" pointer-events="all"/>
      <text class="cls-13" transform="translate(504.3 281)"><tspan x="0" y="0">Pod</tspan></text>
      <path class="cls-3" d="M15.5,352.5h183" pointer-events="stroke"/>
      <path class="cls-7" d="M206,352.5l-10,5,2.5-5-2.5-5,10,5Z" pointer-events="all"/>
      <text class="cls-15" transform="translate(87.1 356)"><tspan x="0" y="0">Port 30001</tspan></text>
      <text class="cls-15" transform="translate(32 370)"><tspan x="0" y="0">Request</tspan></text>
      <path class="cls-2" d="M261.7,373.7l38.8,48.8h120l31-27.1" pointer-events="stroke"/>
      <path class="cls-6" d="M457.1,390.4l-4.2,10.4-1.4-5.4-5.2-2.1,10.8-2.8Z" pointer-events="all"/>
      <path class="cls-5" d="M323.7,349.1l-13.2-16.6v-10l6.3-12.6" pointer-events="stroke"/>
      <path class="cls-11" d="M319.5,304.5v8.9l-2.7-3.6h-4.5l7.2-5.4Z" pointer-events="all"/>
      <path class="cls-5" d="M453.7,349.1l-16.2-26.6,6.3-12.6" pointer-events="stroke"/>
      <path class="cls-11" d="M446.5,304.5v8.9l-2.7-3.6h-4.5l7.2-5.4Z" pointer-events="all"/>
      <path class="cls-5" d="M377.3,349.1l13.2-16.6-3.6-21.9" pointer-events="stroke"/>
      <path class="cls-11" d="M385.9,304.7l5.3,7.2-4.3-1.3-3.6,2.6,2.6-8.5Z" pointer-events="all"/>
      <path class="cls-5" d="M507.3,349.1l14.7-16.6-3.7-21.9" pointer-events="stroke"/>
      <path class="cls-11" d="M517.4,304.7l5.3,7.2-4.3-1.3-3.6,2.6,2.6-8.5Z" pointer-events="all"/>
      <a xlink:href="https://www.diagrams.net/doc/faq/svg-export-text-problems">
        <text class="cls-14" transform="translate(231.1 449.5)"><tspan x="0" y="0">Text is not SVG - cannot display</tspan></text>
      </a>
    </g>
  </g>
</svg>