<svg width="1080" height="540" viewBox="0 0 1080 540" fill="none" xmlns="http://www.w3.org/2000/svg">
<rect width="1080" height="540" fill="#F4F4F4"/>
<rect x="360.5" y="130.5" width="600" height="262" fill="white"/>
<rect x="361" y="131" width="599" height="261" fill="white"/>
<g clip-path="url(#clip0_1218_55267)">
<path d="M381.942 159.168C383.692 159.168 384.854 158.314 385.554 156.858L384.056 155.976C383.734 156.858 383.048 157.53 381.942 157.53C380.57 157.53 379.688 156.578 379.688 154.898V153.358C379.688 151.692 380.57 150.698 381.942 150.698C383.034 150.698 383.65 151.286 383.93 152.154L385.512 151.314C384.826 149.802 383.692 149.06 381.942 149.06C379.366 149.06 377.728 150.894 377.728 154.184C377.728 157.474 379.366 159.168 381.942 159.168ZM389.936 159V157.572H388.97V148.64H387.178V157.236C387.178 158.356 387.752 159 388.97 159H389.936ZM395.822 159H397.614V151.692H395.822V156.522C395.822 157.306 395.108 157.684 394.394 157.684C393.54 157.684 393.162 157.138 393.162 156.13V151.692H391.37V156.312C391.37 158.132 392.21 159.168 393.708 159.168C394.912 159.168 395.5 158.51 395.752 157.782H395.822V159ZM402.238 159.168C404.058 159.168 405.248 158.188 405.248 156.774C405.248 155.556 404.478 154.842 402.882 154.618L402.14 154.52C401.454 154.408 401.188 154.184 401.188 153.694C401.188 153.246 401.524 152.938 402.294 152.938C403.008 152.938 403.624 153.274 404.044 153.722L405.094 152.672C404.394 151.944 403.666 151.524 402.238 151.524C400.572 151.524 399.466 152.42 399.466 153.834C399.466 155.164 400.334 155.85 401.902 156.046L402.63 156.144C403.274 156.228 403.526 156.494 403.526 156.914C403.526 157.432 403.162 157.754 402.308 157.754C401.482 157.754 400.838 157.376 400.306 156.76L399.214 157.824C399.942 158.664 400.852 159.168 402.238 159.168ZM409.163 159H410.451V157.572H409.065V153.12H410.563V151.692H409.065V149.69H407.455V150.936C407.455 151.44 407.287 151.692 406.755 151.692H406.195V153.12H407.273V157.138C407.273 158.328 407.931 159 409.163 159ZM415.177 159.168C416.535 159.168 417.599 158.65 418.201 157.824L417.235 156.746C416.787 157.32 416.255 157.74 415.373 157.74C414.197 157.74 413.595 157.026 413.595 155.976V155.794H418.453V155.206C418.453 153.204 417.403 151.524 415.121 151.524C412.979 151.524 411.733 153.022 411.733 155.332C411.733 157.67 413.021 159.168 415.177 159.168ZM415.149 152.868C416.073 152.868 416.591 153.554 416.591 154.562V154.688H413.595V154.576C413.595 153.568 414.211 152.868 415.149 152.868ZM421.981 159V154.52C421.981 153.722 422.611 153.386 423.815 153.386H424.375V151.692H423.983C422.821 151.692 422.233 152.434 422.051 153.204H421.981V151.692H420.189V159H421.981Z" fill="black"/>
<line x1="362" y1="130" x2="362" y2="178" stroke="#6F6F6F" stroke-width="4"/>
</g>
<rect x="360.5" y="130.5" width="600" height="262" stroke="#6F6F6F"/>
<path fill-rule="evenodd" clip-rule="evenodd" d="M868.036 263.5L869 263.5L869 264.5L868.036 264.5L868.036 263.5ZM864.179 263.5L866.107 263.5L866.107 264.5L864.179 264.5L864.179 263.5ZM860.321 263.5L862.25 263.5L862.25 264.5L860.321 264.5L860.321 263.5ZM856.464 263.5L858.393 263.5L858.393 264.5L856.464 264.5L856.464 263.5ZM852.607 263.5L854.536 263.5L854.536 264.5L852.607 264.5L852.607 263.5ZM848.75 263.5L850.679 263.5L850.679 264.5L848.75 264.5L848.75 263.5ZM844.893 263.5L846.821 263.5L846.821 264.5L844.893 264.5L844.893 263.5ZM841.036 263.5L842.964 263.5L842.964 264.5L841.036 264.5L841.036 263.5ZM837.179 263.5L839.107 263.5L839.107 264.5L837.179 264.5L837.179 263.5ZM833.321 263.5L835.25 263.5L835.25 264.5L833.321 264.5L833.321 263.5ZM829.464 263.5L831.393 263.5L831.393 264.5L829.464 264.5L829.464 263.5ZM825.607 263.5L827.536 263.5L827.536 264.5L825.607 264.5L825.607 263.5ZM821.75 263.5L823.679 263.5L823.679 264.5L821.75 264.5L821.75 263.5ZM820 266.887L815 264L820 261.113L820 266.887Z" fill="#736F6F"/>
<rect width="76" height="74" transform="translate(850 241)" fill="white" style="mix-blend-mode:multiply"/>
<rect width="48" height="48" transform="translate(864 241)" fill="#8D8D8D"/>
<rect width="20" height="20" transform="translate(878 255)" fill="white" style="mix-blend-mode:multiply"/>
<path d="M881.75 273.75H894.25C894.582 273.75 894.899 273.618 895.134 273.383C895.368 273.149 895.5 272.831 895.5 272.5V268.75C895.5 268.418 895.368 268.1 895.134 267.866C894.899 267.631 894.582 267.5 894.25 267.5H881.75C881.418 267.5 881.101 267.631 880.866 267.866C880.632 268.1 880.5 268.418 880.5 268.75V272.5C880.5 272.831 880.632 273.149 880.866 273.383C881.101 273.618 881.418 273.75 881.75 273.75ZM881.75 268.75H894.25V272.5H881.75V268.75Z" fill="white"/>
<path d="M883.625 271.25C883.97 271.25 884.25 270.97 884.25 270.625C884.25 270.279 883.97 270 883.625 270C883.28 270 883 270.279 883 270.625C883 270.97 883.28 271.25 883.625 271.25Z" fill="white"/>
<path d="M894.25 256.25L893.369 257.131L894.981 258.75H891.947C891.504 257.797 890.732 257.037 889.773 256.607C888.814 256.178 887.733 256.109 886.727 256.413C885.721 256.717 884.859 257.374 884.299 258.262C883.738 259.15 883.517 260.211 883.675 261.25H881.019L882.631 259.631L881.75 258.75L878.625 261.875L881.75 265L882.631 264.118L881.019 262.5H884.053C884.496 263.452 885.268 264.213 886.227 264.642C887.186 265.071 888.267 265.14 889.273 264.836C890.279 264.532 891.141 263.876 891.701 262.987C892.262 262.099 892.483 261.038 892.325 260H894.981L893.369 261.618L894.25 262.5L897.375 259.375L894.25 256.25ZM891.125 260.625C891.127 261.28 890.923 261.919 890.541 262.451C890.159 262.983 889.619 263.381 888.998 263.589C888.377 263.797 887.706 263.803 887.081 263.608C886.456 263.412 885.908 263.024 885.516 262.5H888V261.25H884.938C884.794 260.555 884.891 259.833 885.212 259.201C885.534 258.569 886.062 258.066 886.708 257.775C887.355 257.484 888.081 257.421 888.767 257.599C889.454 257.776 890.06 258.182 890.484 258.75H888V260H891.062C891.104 260.205 891.125 260.415 891.125 260.625Z" fill="white"/>
<path d="M851.122 311H852.914V308.774L853.88 307.724L855.756 311H857.884L855.098 306.52L857.618 303.692H855.588L853.95 305.568L852.984 306.884H852.914V300.64H851.122V311ZM863.374 311H865.166V303.692H863.374V308.522C863.374 309.306 862.66 309.684 861.946 309.684C861.092 309.684 860.714 309.138 860.714 308.13V303.692H858.922V308.312C858.922 310.132 859.762 311.168 861.26 311.168C862.464 311.168 863.052 310.51 863.304 309.782H863.374V311ZM867.397 311H869.189V309.782H869.245C869.525 310.608 870.295 311.168 871.261 311.168C873.109 311.168 874.131 309.782 874.131 307.332C874.131 304.896 873.109 303.524 871.261 303.524C870.295 303.524 869.511 304.056 869.245 304.896H869.189V300.64H867.397V311ZM870.687 309.684C869.833 309.684 869.189 309.25 869.189 308.494V306.17C869.189 305.456 869.833 304.994 870.687 304.994C871.611 304.994 872.255 305.68 872.255 306.716V307.976C872.255 309.012 871.611 309.684 870.687 309.684ZM878.905 311.168C880.263 311.168 881.327 310.65 881.929 309.824L880.963 308.746C880.515 309.32 879.983 309.74 879.101 309.74C877.925 309.74 877.323 309.026 877.323 307.976V307.794H882.181V307.206C882.181 305.204 881.131 303.524 878.849 303.524C876.707 303.524 875.461 305.022 875.461 307.332C875.461 309.67 876.749 311.168 878.905 311.168ZM878.877 304.868C879.801 304.868 880.319 305.554 880.319 306.562V306.688H877.323V306.576C877.323 305.568 877.939 304.868 878.877 304.868ZM887.835 307.626V305.848H883.831V307.626H887.835ZM889.847 313.8H891.639V309.782H891.695C891.975 310.608 892.745 311.168 893.711 311.168C895.559 311.168 896.581 309.782 896.581 307.332C896.581 304.896 895.559 303.524 893.711 303.524C892.745 303.524 891.961 304.056 891.695 304.896H891.639V303.692H889.847V313.8ZM893.137 309.684C892.283 309.684 891.639 309.25 891.639 308.494V306.17C891.639 305.456 892.283 304.994 893.137 304.994C894.061 304.994 894.705 305.68 894.705 306.716V307.976C894.705 309.012 894.061 309.684 893.137 309.684ZM900.194 311V306.52C900.194 305.722 900.824 305.386 902.028 305.386H902.588V303.692H902.196C901.034 303.692 900.446 304.434 900.264 305.204H900.194V303.692H898.402V311H900.194ZM906.888 311.168C908.988 311.168 910.29 309.684 910.29 307.332C910.29 304.994 908.988 303.524 906.888 303.524C904.802 303.524 903.5 304.994 903.5 307.332C903.5 309.684 904.802 311.168 906.888 311.168ZM906.888 309.726C905.964 309.726 905.376 309.124 905.376 308.018V306.66C905.376 305.568 905.964 304.966 906.888 304.966C907.826 304.966 908.414 305.568 908.414 306.66V308.018C908.414 309.124 907.826 309.726 906.888 309.726ZM911.063 311H912.967L914.507 308.48H914.563L916.103 311H918.147L915.655 307.318L918.133 303.692H916.229L914.731 306.114H914.675L913.163 303.692H911.119L913.555 307.29L911.063 311ZM922.815 307.556L922.311 309.404H922.227L921.751 307.556L920.477 303.692H918.699L921.317 311.35L920.981 312.372H919.665V313.8H920.743C921.947 313.8 922.465 313.352 922.829 312.302L925.769 303.692H924.089L922.815 307.556Z" fill="black"/>
<path fill-rule="evenodd" clip-rule="evenodd" d="M452 265.5L488 265.5C492.142 265.5 495.5 268.858 495.5 273L495.5 351L496.5 351L496.5 273C496.5 268.306 492.694 264.5 488 264.5L452 264.5L452 265.5Z" fill="#8F8B8B"/>
<path fill-rule="evenodd" clip-rule="evenodd" d="M496.5 352L496.5 331L495.5 331L495.5 352C495.5 356.694 499.306 360.5 504 360.5L688 360.5C692.694 360.5 696.5 356.694 696.5 352L696.5 350L695.5 350L695.5 352C695.5 356.142 692.142 359.5 688 359.5L504 359.5C499.858 359.5 496.5 356.142 496.5 352Z" fill="#8F8B8B"/>
<rect x="512.5" y="178.5" width="142" height="167" fill="#F4F4F4"/>
<rect x="513" y="179" width="141" height="166" fill="#F4F4F4"/>
<g clip-path="url(#clip1_1218_55267)">
<path d="M532.732 207L533.978 201.834L534.608 199.258H534.636L535.238 201.834L536.484 207H538.57L540.908 197.228H539.144L538.15 201.918L537.534 204.914H537.492L536.806 201.918L535.686 197.228H533.642L532.522 201.918L531.822 204.914H531.78L531.178 201.918L530.212 197.228H528.364L530.632 207H532.732ZM545.069 207.168C547.169 207.168 548.471 205.684 548.471 203.332C548.471 200.994 547.169 199.524 545.069 199.524C542.983 199.524 541.681 200.994 541.681 203.332C541.681 205.684 542.983 207.168 545.069 207.168ZM545.069 205.726C544.145 205.726 543.557 205.124 543.557 204.018V202.66C543.557 201.568 544.145 200.966 545.069 200.966C546.007 200.966 546.595 201.568 546.595 202.66V204.018C546.595 205.124 546.007 205.726 545.069 205.726ZM552.011 207V202.52C552.011 201.722 552.641 201.386 553.845 201.386H554.405V199.692H554.013C552.851 199.692 552.263 200.434 552.081 201.204H552.011V199.692H550.219V207H552.011ZM555.875 207H557.667V204.774L558.633 203.724L560.509 207H562.637L559.851 202.52L562.371 199.692H560.341L558.703 201.568L557.737 202.884H557.667V196.64H555.875V207ZM566.509 207.168C567.867 207.168 568.931 206.65 569.533 205.824L568.567 204.746C568.119 205.32 567.587 205.74 566.705 205.74C565.529 205.74 564.927 205.026 564.927 203.976V203.794H569.785V203.206C569.785 201.204 568.735 199.524 566.453 199.524C564.311 199.524 563.065 201.022 563.065 203.332C563.065 205.67 564.353 207.168 566.509 207.168ZM566.481 200.868C567.405 200.868 567.923 201.554 567.923 202.562V202.688H564.927V202.576C564.927 201.568 565.543 200.868 566.481 200.868ZM573.314 207V202.52C573.314 201.722 573.944 201.386 575.148 201.386H575.708V199.692H575.316C574.154 199.692 573.566 200.434 573.384 201.204H573.314V199.692H571.522V207H573.314ZM582.438 207V202.17C582.438 201.386 583.152 200.994 583.894 200.994C584.748 200.994 585.098 201.526 585.098 202.562V207H586.89V202.38C586.89 200.56 586.05 199.524 584.552 199.524C583.418 199.524 582.802 200.126 582.508 200.91H582.438V199.692H580.646V207H582.438ZM591.935 207.168C594.035 207.168 595.337 205.684 595.337 203.332C595.337 200.994 594.035 199.524 591.935 199.524C589.849 199.524 588.547 200.994 588.547 203.332C588.547 205.684 589.849 207.168 591.935 207.168ZM591.935 205.726C591.011 205.726 590.423 205.124 590.423 204.018V202.66C590.423 201.568 591.011 200.966 591.935 200.966C592.873 200.966 593.461 201.568 593.461 202.66V204.018C593.461 205.124 592.873 205.726 591.935 205.726ZM601.621 207H603.413V196.64H601.621V200.896H601.551C601.299 200.056 600.501 199.524 599.535 199.524C597.701 199.524 596.679 200.896 596.679 203.332C596.679 205.782 597.701 207.168 599.535 207.168C600.501 207.168 601.285 206.608 601.551 205.782H601.621V207ZM600.109 205.684C599.185 205.684 598.555 205.012 598.555 203.976V202.716C598.555 201.68 599.185 200.994 600.109 200.994C600.963 200.994 601.621 201.456 601.621 202.17V204.494C601.621 205.25 600.963 205.684 600.109 205.684ZM608.594 207.168C609.952 207.168 611.016 206.65 611.618 205.824L610.652 204.746C610.204 205.32 609.672 205.74 608.79 205.74C607.614 205.74 607.012 205.026 607.012 203.976V203.794H611.87V203.206C611.87 201.204 610.82 199.524 608.538 199.524C606.396 199.524 605.15 201.022 605.15 203.332C605.15 205.67 606.438 207.168 608.594 207.168ZM608.566 200.868C609.49 200.868 610.008 201.554 610.008 202.562V202.688H607.012V202.576C607.012 201.568 607.628 200.868 608.566 200.868ZM624.047 207V205.502H621.807V197.228H619.021L616.599 200.112L617.747 201.078L619.875 198.558H620.001V205.502H617.313V207H624.047Z" fill="black"/>
<line x1="514" y1="178" x2="514" y2="226" stroke="#878D96" stroke-width="4"/>
</g>
<rect x="512.5" y="178.5" width="142" height="167" stroke="#878D96"/>
<rect x="672.5" y="178.5" width="143" height="167" fill="#F4F4F4"/>
<rect x="673" y="179" width="142" height="166" fill="#F4F4F4"/>
<g clip-path="url(#clip2_1218_55267)">
<path d="M692.732 207L693.978 201.834L694.608 199.258H694.636L695.238 201.834L696.484 207H698.57L700.908 197.228H699.144L698.15 201.918L697.534 204.914H697.492L696.806 201.918L695.686 197.228H693.642L692.522 201.918L691.822 204.914H691.78L691.178 201.918L690.212 197.228H688.364L690.632 207H692.732ZM705.069 207.168C707.169 207.168 708.471 205.684 708.471 203.332C708.471 200.994 707.169 199.524 705.069 199.524C702.983 199.524 701.681 200.994 701.681 203.332C701.681 205.684 702.983 207.168 705.069 207.168ZM705.069 205.726C704.145 205.726 703.557 205.124 703.557 204.018V202.66C703.557 201.568 704.145 200.966 705.069 200.966C706.007 200.966 706.595 201.568 706.595 202.66V204.018C706.595 205.124 706.007 205.726 705.069 205.726ZM712.011 207V202.52C712.011 201.722 712.641 201.386 713.845 201.386H714.405V199.692H714.013C712.851 199.692 712.263 200.434 712.081 201.204H712.011V199.692H710.219V207H712.011ZM715.875 207H717.667V204.774L718.633 203.724L720.509 207H722.637L719.851 202.52L722.371 199.692H720.341L718.703 201.568L717.737 202.884H717.667V196.64H715.875V207ZM726.509 207.168C727.867 207.168 728.931 206.65 729.533 205.824L728.567 204.746C728.119 205.32 727.587 205.74 726.705 205.74C725.529 205.74 724.927 205.026 724.927 203.976V203.794H729.785V203.206C729.785 201.204 728.735 199.524 726.453 199.524C724.311 199.524 723.065 201.022 723.065 203.332C723.065 205.67 724.353 207.168 726.509 207.168ZM726.481 200.868C727.405 200.868 727.923 201.554 727.923 202.562V202.688H724.927V202.576C724.927 201.568 725.543 200.868 726.481 200.868ZM733.314 207V202.52C733.314 201.722 733.944 201.386 735.148 201.386H735.708V199.692H735.316C734.154 199.692 733.566 200.434 733.384 201.204H733.314V199.692H731.522V207H733.314ZM742.438 207V202.17C742.438 201.386 743.152 200.994 743.894 200.994C744.748 200.994 745.098 201.526 745.098 202.562V207H746.89V202.38C746.89 200.56 746.05 199.524 744.552 199.524C743.418 199.524 742.802 200.126 742.508 200.91H742.438V199.692H740.646V207H742.438ZM751.935 207.168C754.035 207.168 755.337 205.684 755.337 203.332C755.337 200.994 754.035 199.524 751.935 199.524C749.849 199.524 748.547 200.994 748.547 203.332C748.547 205.684 749.849 207.168 751.935 207.168ZM751.935 205.726C751.011 205.726 750.423 205.124 750.423 204.018V202.66C750.423 201.568 751.011 200.966 751.935 200.966C752.873 200.966 753.461 201.568 753.461 202.66V204.018C753.461 205.124 752.873 205.726 751.935 205.726ZM761.621 207H763.413V196.64H761.621V200.896H761.551C761.299 200.056 760.501 199.524 759.535 199.524C757.701 199.524 756.679 200.896 756.679 203.332C756.679 205.782 757.701 207.168 759.535 207.168C760.501 207.168 761.285 206.608 761.551 205.782H761.621V207ZM760.109 205.684C759.185 205.684 758.555 205.012 758.555 203.976V202.716C758.555 201.68 759.185 200.994 760.109 200.994C760.963 200.994 761.621 201.456 761.621 202.17V204.494C761.621 205.25 760.963 205.684 760.109 205.684ZM768.594 207.168C769.952 207.168 771.016 206.65 771.618 205.824L770.652 204.746C770.204 205.32 769.672 205.74 768.79 205.74C767.614 205.74 767.012 205.026 767.012 203.976V203.794H771.87V203.206C771.87 201.204 770.82 199.524 768.538 199.524C766.396 199.524 765.15 201.022 765.15 203.332C765.15 205.67 766.438 207.168 768.594 207.168ZM768.566 200.868C769.49 200.868 770.008 201.554 770.008 202.562V202.688H767.012V202.576C767.012 201.568 767.628 200.868 768.566 200.868ZM783.683 205.446H778.909L780.967 203.752C782.325 202.632 783.431 201.596 783.431 199.972C783.431 198.292 782.255 197.06 780.197 197.06C778.209 197.06 777.159 198.194 776.739 199.496L778.335 200.112C778.559 199.314 779.035 198.656 780.043 198.656C780.841 198.656 781.485 199.132 781.485 199.986V200.168C781.485 201.022 781.009 201.694 779.973 202.604L776.907 205.292V207H783.683V205.446Z" fill="black"/>
<line x1="674" y1="178" x2="674" y2="226" stroke="#878D96" stroke-width="4"/>
</g>
<rect x="672.5" y="178.5" width="143" height="167" stroke="#878D96"/>
<rect width="48" height="48" transform="translate(559.5 240)" fill="#8D8D8D"/>
<rect width="20" height="20" transform="translate(573.5 254)" fill="white" style="mix-blend-mode:multiply"/>
<path d="M591 261.5H586V256.5H591V261.5ZM587.25 260.25H589.75V257.75H587.25V260.25Z" fill="white"/>
<path d="M584.125 263.375V259.625H579.125V268.375H587.875V263.375H584.125ZM580.375 260.875H582.875V263.375H580.375V260.875ZM582.875 267.125H580.375V264.625H582.875V267.125ZM586.625 267.125H584.125V264.625H586.625V267.125Z" fill="white"/>
<path d="M589.75 271.5H577.25C576.919 271.5 576.601 271.368 576.367 271.133C576.132 270.899 576 270.581 576 270.25V257.75C576 257.419 576.132 257.101 576.367 256.867C576.601 256.632 576.919 256.5 577.25 256.5H583.5V257.75H577.25V270.25H589.75V264H591V270.25C591 270.581 590.868 270.899 590.633 271.133C590.399 271.368 590.081 271.5 589.75 271.5Z" fill="white"/>
<path d="M556.022 310.168C557.772 310.168 558.934 309.314 559.634 307.858L558.136 306.976C557.814 307.858 557.128 308.53 556.022 308.53C554.65 308.53 553.768 307.578 553.768 305.898V304.358C553.768 302.692 554.65 301.698 556.022 301.698C557.114 301.698 557.73 302.286 558.01 303.154L559.592 302.314C558.906 300.802 557.772 300.06 556.022 300.06C553.446 300.06 551.808 301.894 551.808 305.184C551.808 308.474 553.446 310.168 556.022 310.168ZM564.156 310.168C566.256 310.168 567.558 308.684 567.558 306.332C567.558 303.994 566.256 302.524 564.156 302.524C562.07 302.524 560.768 303.994 560.768 306.332C560.768 308.684 562.07 310.168 564.156 310.168ZM564.156 308.726C563.232 308.726 562.644 308.124 562.644 307.018V305.66C562.644 304.568 563.232 303.966 564.156 303.966C565.094 303.966 565.682 304.568 565.682 305.66V307.018C565.682 308.124 565.094 308.726 564.156 308.726ZM571.099 310V305.17C571.099 304.386 571.813 303.994 572.555 303.994C573.409 303.994 573.759 304.526 573.759 305.562V310H575.551V305.38C575.551 303.56 574.711 302.524 573.213 302.524C572.079 302.524 571.463 303.126 571.169 303.91H571.099V302.692H569.307V310H571.099ZM579.979 310H581.267V308.572H579.881V304.12H581.379V302.692H579.881V300.69H578.271V301.936C578.271 302.44 578.103 302.692 577.571 302.692H577.011V304.12H578.089V308.138C578.089 309.328 578.747 310 579.979 310ZM584.9 310.168C585.992 310.168 586.79 309.678 587.028 308.74H587.112C587.224 309.496 587.7 310 588.47 310H589.464V308.572H588.736V305.128C588.736 303.462 587.686 302.524 585.712 302.524C584.242 302.524 583.388 303.084 582.856 303.924L583.92 304.876C584.27 304.372 584.746 303.952 585.586 303.952C586.538 303.952 586.944 304.428 586.944 305.24V305.772H585.698C583.71 305.772 582.576 306.514 582.576 308.012C582.576 309.314 583.416 310.168 584.9 310.168ZM585.502 308.866C584.802 308.866 584.396 308.572 584.396 307.984V307.746C584.396 307.172 584.858 306.85 585.796 306.85H586.944V307.816C586.944 308.502 586.3 308.866 585.502 308.866ZM591.97 301.628C592.698 301.628 593.02 301.25 593.02 300.732V300.452C593.02 299.934 592.698 299.556 591.97 299.556C591.228 299.556 590.92 299.934 590.92 300.452V300.732C590.92 301.25 591.228 301.628 591.97 301.628ZM591.074 310H592.866V302.692H591.074V310ZM596.895 310V305.17C596.895 304.386 597.609 303.994 598.351 303.994C599.205 303.994 599.555 304.526 599.555 305.562V310H601.347V305.38C601.347 303.56 600.507 302.524 599.009 302.524C597.875 302.524 597.259 303.126 596.965 303.91H596.895V302.692H595.103V310H596.895ZM606.448 310.168C607.806 310.168 608.87 309.65 609.472 308.824L608.506 307.746C608.058 308.32 607.526 308.74 606.644 308.74C605.468 308.74 604.866 308.026 604.866 306.976V306.794H609.724V306.206C609.724 304.204 608.674 302.524 606.392 302.524C604.25 302.524 603.004 304.022 603.004 306.332C603.004 308.67 604.292 310.168 606.448 310.168ZM606.42 303.868C607.344 303.868 607.862 304.554 607.862 305.562V305.688H604.866V305.576C604.866 304.568 605.482 303.868 606.42 303.868ZM613.252 310V305.52C613.252 304.722 613.882 304.386 615.086 304.386H615.646V302.692H615.254C614.092 302.692 613.504 303.434 613.322 304.204H613.252V302.692H611.46V310H613.252Z" fill="black"/>
<rect width="48" height="48" transform="translate(720.5 240)" fill="#8D8D8D"/>
<rect width="20" height="20" transform="translate(734.5 254)" fill="white" style="mix-blend-mode:multiply"/>
<path d="M752 261.5H747V256.5H752V261.5ZM748.25 260.25H750.75V257.75H748.25V260.25Z" fill="white"/>
<path d="M745.125 263.375V259.625H740.125V268.375H748.875V263.375H745.125ZM741.375 260.875H743.875V263.375H741.375V260.875ZM743.875 267.125H741.375V264.625H743.875V267.125ZM747.625 267.125H745.125V264.625H747.625V267.125Z" fill="white"/>
<path d="M750.75 271.5H738.25C737.919 271.5 737.601 271.368 737.367 271.133C737.132 270.899 737 270.581 737 270.25V257.75C737 257.419 737.132 257.101 737.367 256.867C737.601 256.632 737.919 256.5 738.25 256.5H744.5V257.75H738.25V270.25H750.75V264H752V270.25C752 270.581 751.868 270.899 751.633 271.133C751.399 271.368 751.081 271.5 750.75 271.5Z" fill="white"/>
<path d="M717.022 310.168C718.772 310.168 719.934 309.314 720.634 307.858L719.136 306.976C718.814 307.858 718.128 308.53 717.022 308.53C715.65 308.53 714.768 307.578 714.768 305.898V304.358C714.768 302.692 715.65 301.698 717.022 301.698C718.114 301.698 718.73 302.286 719.01 303.154L720.592 302.314C719.906 300.802 718.772 300.06 717.022 300.06C714.446 300.06 712.808 301.894 712.808 305.184C712.808 308.474 714.446 310.168 717.022 310.168ZM725.156 310.168C727.256 310.168 728.558 308.684 728.558 306.332C728.558 303.994 727.256 302.524 725.156 302.524C723.07 302.524 721.768 303.994 721.768 306.332C721.768 308.684 723.07 310.168 725.156 310.168ZM725.156 308.726C724.232 308.726 723.644 308.124 723.644 307.018V305.66C723.644 304.568 724.232 303.966 725.156 303.966C726.094 303.966 726.682 304.568 726.682 305.66V307.018C726.682 308.124 726.094 308.726 725.156 308.726ZM732.099 310V305.17C732.099 304.386 732.813 303.994 733.555 303.994C734.409 303.994 734.759 304.526 734.759 305.562V310H736.551V305.38C736.551 303.56 735.711 302.524 734.213 302.524C733.079 302.524 732.463 303.126 732.169 303.91H732.099V302.692H730.307V310H732.099ZM740.979 310H742.267V308.572H740.881V304.12H742.379V302.692H740.881V300.69H739.271V301.936C739.271 302.44 739.103 302.692 738.571 302.692H738.011V304.12H739.089V308.138C739.089 309.328 739.747 310 740.979 310ZM745.9 310.168C746.992 310.168 747.79 309.678 748.028 308.74H748.112C748.224 309.496 748.7 310 749.47 310H750.464V308.572H749.736V305.128C749.736 303.462 748.686 302.524 746.712 302.524C745.242 302.524 744.388 303.084 743.856 303.924L744.92 304.876C745.27 304.372 745.746 303.952 746.586 303.952C747.538 303.952 747.944 304.428 747.944 305.24V305.772H746.698C744.71 305.772 743.576 306.514 743.576 308.012C743.576 309.314 744.416 310.168 745.9 310.168ZM746.502 308.866C745.802 308.866 745.396 308.572 745.396 307.984V307.746C745.396 307.172 745.858 306.85 746.796 306.85H747.944V307.816C747.944 308.502 747.3 308.866 746.502 308.866ZM752.97 301.628C753.698 301.628 754.02 301.25 754.02 300.732V300.452C754.02 299.934 753.698 299.556 752.97 299.556C752.228 299.556 751.92 299.934 751.92 300.452V300.732C751.92 301.25 752.228 301.628 752.97 301.628ZM752.074 310H753.866V302.692H752.074V310ZM757.895 310V305.17C757.895 304.386 758.609 303.994 759.351 303.994C760.205 303.994 760.555 304.526 760.555 305.562V310H762.347V305.38C762.347 303.56 761.507 302.524 760.009 302.524C758.875 302.524 758.259 303.126 757.965 303.91H757.895V302.692H756.103V310H757.895ZM767.448 310.168C768.806 310.168 769.87 309.65 770.472 308.824L769.506 307.746C769.058 308.32 768.526 308.74 767.644 308.74C766.468 308.74 765.866 308.026 765.866 306.976V306.794H770.724V306.206C770.724 304.204 769.674 302.524 767.392 302.524C765.25 302.524 764.004 304.022 764.004 306.332C764.004 308.67 765.292 310.168 767.448 310.168ZM767.42 303.868C768.344 303.868 768.862 304.554 768.862 305.562V305.688H765.866V305.576C765.866 304.568 766.482 303.868 767.42 303.868ZM774.252 310V305.52C774.252 304.722 774.882 304.386 776.086 304.386H776.646V302.692H776.254C775.092 302.692 774.504 303.434 774.322 304.204H774.252V302.692H772.46V310H774.252Z" fill="black"/>
<path fill-rule="evenodd" clip-rule="evenodd" d="M696.5 351V267.516C696.5 266.403 697.403 265.5 698.516 265.5H714V267.887L719 265L714 262.113V264.5H698.516C696.85 264.5 695.5 265.85 695.5 267.516V351H696.5Z" fill="#8F8B8B"/>
<path fill-rule="evenodd" clip-rule="evenodd" d="M555 265.5L144 265.5L144 264.5L555 264.5L555 262.113L560 265L555 267.887L555 265.5Z" fill="#736F6F"/>
<path fill-rule="evenodd" clip-rule="evenodd" d="M402 265.5L135 265.5L135 264.5L402 264.5L402 262.113L407 265L402 267.887L402 265.5Z" fill="#736F6F"/>
<rect x="203.5" y="254.5" width="92" height="23" rx="11.5" fill="#E0E0E0"/>
<path d="M223.08 270V269.16H221.904V262.464H223.08V261.624H219.72V262.464H220.896V269.16H219.72V270H223.08ZM226.249 270V266.424H228.577C230.077 266.424 230.917 265.5 230.917 264.024C230.917 262.548 230.077 261.624 228.577 261.624H225.241V270H226.249ZM226.249 262.512H228.577C229.369 262.512 229.837 262.944 229.837 263.712V264.336C229.837 265.104 229.369 265.536 228.577 265.536H226.249V262.512ZM240.938 270V269.16H240.23V265.752C240.23 264.444 239.342 263.664 237.854 263.664C236.738 263.664 235.994 264.216 235.658 264.876L236.234 265.416C236.57 264.852 237.062 264.492 237.806 264.492C238.79 264.492 239.27 264.972 239.27 265.848V266.46H238.046C236.246 266.46 235.406 267.108 235.406 268.272C235.406 269.424 236.174 270.144 237.482 270.144C238.346 270.144 239.006 269.748 239.27 268.992H239.33C239.402 269.568 239.69 270 240.398 270H240.938ZM237.638 269.328C236.894 269.328 236.414 268.98 236.414 268.368V268.116C236.414 267.516 236.906 267.18 237.998 267.18H239.27V268.2C239.27 268.836 238.586 269.328 237.638 269.328ZM246.588 270H247.548V261.12H246.588V264.816H246.54C246.216 264.036 245.58 263.664 244.728 263.664C243.18 263.664 242.208 264.924 242.208 266.904C242.208 268.884 243.18 270.144 244.728 270.144C245.58 270.144 246.168 269.76 246.54 268.992H246.588V270ZM244.992 269.28C243.912 269.28 243.24 268.536 243.24 267.432V266.376C243.24 265.272 243.912 264.528 244.992 264.528C245.868 264.528 246.588 265.032 246.588 265.716V268.02C246.588 268.824 245.868 269.28 244.992 269.28ZM253.869 270H254.829V261.12H253.869V264.816H253.821C253.497 264.036 252.861 263.664 252.009 263.664C250.461 263.664 249.489 264.924 249.489 266.904C249.489 268.884 250.461 270.144 252.009 270.144C252.861 270.144 253.449 269.76 253.821 268.992H253.869V270ZM252.273 269.28C251.193 269.28 250.521 268.536 250.521 267.432V266.376C250.521 265.272 251.193 264.528 252.273 264.528C253.149 264.528 253.869 265.032 253.869 265.716V268.02C253.869 268.824 253.149 269.28 252.273 269.28ZM258.15 270V265.8C258.15 265.212 258.774 264.768 259.806 264.768H260.37V263.808H259.998C258.99 263.808 258.426 264.36 258.21 264.948H258.15V263.808H257.19V270H258.15ZM264.186 270.144C265.35 270.144 266.238 269.568 266.634 268.728L265.95 268.236C265.626 268.92 265.026 269.304 264.246 269.304C263.094 269.304 262.41 268.5 262.41 267.432V267.144H266.862V266.688C266.862 264.936 265.842 263.664 264.186 263.664C262.506 263.664 261.402 264.936 261.402 266.904C261.402 268.872 262.506 270.144 264.186 270.144ZM264.186 264.468C265.17 264.468 265.83 265.2 265.83 266.292V266.424H262.41V266.34C262.41 265.26 263.142 264.468 264.186 264.468ZM270.624 270.144C272.04 270.144 272.916 269.412 272.916 268.212C272.916 267.276 272.388 266.676 271.02 266.472L270.54 266.4C269.772 266.28 269.352 266.04 269.352 265.44C269.352 264.852 269.772 264.48 270.564 264.48C271.356 264.48 271.884 264.852 272.16 265.236L272.796 264.66C272.292 264.036 271.632 263.664 270.636 263.664C269.376 263.664 268.428 264.264 268.428 265.488C268.428 266.64 269.28 267.108 270.42 267.276L270.912 267.348C271.728 267.468 271.992 267.84 271.992 268.32C271.992 268.956 271.512 269.328 270.696 269.328C269.916 269.328 269.34 268.98 268.86 268.38L268.176 268.932C268.728 269.664 269.484 270.144 270.624 270.144ZM276.721 270.144C278.137 270.144 279.013 269.412 279.013 268.212C279.013 267.276 278.485 266.676 277.117 266.472L276.637 266.4C275.869 266.28 275.449 266.04 275.449 265.44C275.449 264.852 275.869 264.48 276.661 264.48C277.453 264.48 277.981 264.852 278.257 265.236L278.893 264.66C278.389 264.036 277.729 263.664 276.733 263.664C275.473 263.664 274.525 264.264 274.525 265.488C274.525 266.64 275.377 267.108 276.517 267.276L277.009 267.348C277.825 267.468 278.089 267.84 278.089 268.32C278.089 268.956 277.609 269.328 276.793 269.328C276.013 269.328 275.437 268.98 274.957 268.38L274.273 268.932C274.825 269.664 275.581 270.144 276.721 270.144Z" fill="#161616"/>
<rect width="6" height="24" transform="translate(290 254)" fill="white" style="mix-blend-mode:multiply"/>
<rect x="203.5" y="254.5" width="92" height="23" rx="11.5" stroke="#4C4C4C"/>
<rect width="63" height="74" transform="translate(399 240)" fill="white" style="mix-blend-mode:multiply"/>
<rect x="407" y="240.5" width="47" height="47" fill="#EDF5FF"/>
<path d="M407.5 241H453.5V287H407.5V241Z" fill="white"/>
<path d="M407.5 241H453.5V287H407.5V241Z" fill="#EDF5FF"/>
<rect width="20" height="20" transform="translate(420.5 254)" fill="white" style="mix-blend-mode:multiply"/>
<path d="M436.125 260.875C435.405 260.876 434.707 261.125 434.15 261.581C433.592 262.036 433.208 262.67 433.063 263.375H427.937C427.782 262.616 427.351 261.942 426.727 261.483C426.103 261.024 425.331 260.813 424.561 260.891C423.79 260.969 423.076 261.33 422.557 261.904C422.038 262.479 421.75 263.226 421.75 264C421.75 264.774 422.038 265.521 422.557 266.096C423.076 266.67 423.79 267.031 424.561 267.109C425.331 267.187 426.103 266.976 426.727 266.517C427.351 266.058 427.782 265.384 427.937 264.625H433.063C433.181 265.204 433.462 265.738 433.871 266.165C434.281 266.591 434.803 266.893 435.377 267.034C435.951 267.176 436.554 267.151 437.115 266.964C437.676 266.777 438.172 266.434 438.546 265.976C438.92 265.518 439.156 264.964 439.227 264.377C439.299 263.79 439.202 263.195 438.948 262.66C438.695 262.126 438.295 261.675 437.795 261.359C437.296 261.043 436.716 260.875 436.125 260.875ZM436.125 265.875C435.754 265.875 435.392 265.765 435.083 265.559C434.775 265.353 434.535 265.06 434.393 264.718C434.251 264.375 434.214 263.998 434.286 263.634C434.358 263.27 434.537 262.936 434.799 262.674C435.061 262.412 435.396 262.233 435.759 262.161C436.123 262.089 436.5 262.126 436.843 262.268C437.185 262.41 437.478 262.65 437.684 262.958C437.89 263.267 438 263.629 438 264C438 264.497 437.802 264.974 437.45 265.325C437.099 265.677 436.622 265.874 436.125 265.875Z" fill="black"/>
<rect x="407" y="240.5" width="47" height="47" stroke="#0F62FE"/>
<path d="M406.217 310H408.247V300.228H406.497V307.27H406.455L405.447 305.24L402.507 300.228H400.477V310H402.227V302.958H402.269L403.277 304.988L406.217 310ZM413.485 310.168C415.585 310.168 416.887 308.684 416.887 306.332C416.887 303.994 415.585 302.524 413.485 302.524C411.399 302.524 410.097 303.994 410.097 306.332C410.097 308.684 411.399 310.168 413.485 310.168ZM413.485 308.726C412.561 308.726 411.973 308.124 411.973 307.018V305.66C411.973 304.568 412.561 303.966 413.485 303.966C414.423 303.966 415.011 304.568 415.011 305.66V307.018C415.011 308.124 414.423 308.726 413.485 308.726ZM423.172 310H424.964V299.64H423.172V303.896H423.102C422.85 303.056 422.052 302.524 421.086 302.524C419.252 302.524 418.23 303.896 418.23 306.332C418.23 308.782 419.252 310.168 421.086 310.168C422.052 310.168 422.836 309.608 423.102 308.782H423.172V310ZM421.66 308.684C420.736 308.684 420.106 308.012 420.106 306.976V305.716C420.106 304.68 420.736 303.994 421.66 303.994C422.514 303.994 423.172 304.456 423.172 305.17V307.494C423.172 308.25 422.514 308.684 421.66 308.684ZM430.144 310.168C431.502 310.168 432.566 309.65 433.168 308.824L432.202 307.746C431.754 308.32 431.222 308.74 430.34 308.74C429.164 308.74 428.562 308.026 428.562 306.976V306.794H433.42V306.206C433.42 304.204 432.37 302.524 430.088 302.524C427.946 302.524 426.7 304.022 426.7 306.332C426.7 308.67 427.988 310.168 430.144 310.168ZM430.116 303.868C431.04 303.868 431.558 304.554 431.558 305.562V305.688H428.562V305.576C428.562 304.568 429.178 303.868 430.116 303.868ZM435.157 312.8H436.949V308.782H437.005C437.285 309.608 438.055 310.168 439.021 310.168C440.869 310.168 441.891 308.782 441.891 306.332C441.891 303.896 440.869 302.524 439.021 302.524C438.055 302.524 437.271 303.056 437.005 303.896H436.949V302.692H435.157V312.8ZM438.447 308.684C437.593 308.684 436.949 308.25 436.949 307.494V305.17C436.949 304.456 437.593 303.994 438.447 303.994C439.371 303.994 440.015 304.68 440.015 305.716V306.976C440.015 308.012 439.371 308.684 438.447 308.684ZM446.61 310.168C448.71 310.168 450.012 308.684 450.012 306.332C450.012 303.994 448.71 302.524 446.61 302.524C444.524 302.524 443.222 303.994 443.222 306.332C443.222 308.684 444.524 310.168 446.61 310.168ZM446.61 308.726C445.686 308.726 445.098 308.124 445.098 307.018V305.66C445.098 304.568 445.686 303.966 446.61 303.966C447.548 303.966 448.136 304.568 448.136 305.66V307.018C448.136 308.124 447.548 308.726 446.61 308.726ZM453.552 310V305.52C453.552 304.722 454.182 304.386 455.386 304.386H455.946V302.692H455.554C454.392 302.692 453.804 303.434 453.622 304.204H453.552V302.692H451.76V310H453.552ZM459.753 310H461.041V308.572H459.655V304.12H461.153V302.692H459.655V300.69H458.045V301.936C458.045 302.44 457.877 302.692 457.345 302.692H456.785V304.12H457.863V308.138C457.863 309.328 458.521 310 459.753 310Z" fill="black"/>
<path d="M73.5 483L68.5 480.113V485.887L73.5 483ZM69 482.5H49V483.5H69V482.5Z" fill="#736F6F"/>
<path d="M82.732 478.228V483.996C82.732 486.838 83.6 488.168 86.204 488.168C88.808 488.168 89.76 486.838 89.76 483.996V478.228H88.584V484.276C88.584 486.138 87.982 487.118 86.246 487.118C84.51 487.118 83.908 486.138 83.908 484.276V478.228H82.732ZM94.5083 488.168C96.1603 488.168 97.1823 487.314 97.1823 485.914C97.1823 484.822 96.5663 484.122 94.9703 483.884L94.4103 483.8C93.5143 483.66 93.0243 483.38 93.0243 482.68C93.0243 481.994 93.5143 481.56 94.4383 481.56C95.3623 481.56 95.9783 481.994 96.3003 482.442L97.0423 481.77C96.4543 481.042 95.6843 480.608 94.5223 480.608C93.0523 480.608 91.9463 481.308 91.9463 482.736C91.9463 484.08 92.9403 484.626 94.2703 484.822L94.8443 484.906C95.7963 485.046 96.1043 485.48 96.1043 486.04C96.1043 486.782 95.5443 487.216 94.5923 487.216C93.6823 487.216 93.0103 486.81 92.4503 486.11L91.6523 486.754C92.2963 487.608 93.1783 488.168 94.5083 488.168ZM102.037 488.168C103.395 488.168 104.431 487.496 104.893 486.516L104.095 485.942C103.717 486.74 103.017 487.188 102.107 487.188C100.763 487.188 99.9645 486.25 99.9645 485.004V484.668H105.159V484.136C105.159 482.092 103.969 480.608 102.037 480.608C100.077 480.608 98.7885 482.092 98.7885 484.388C98.7885 486.684 100.077 488.168 102.037 488.168ZM102.037 481.546C103.185 481.546 103.955 482.4 103.955 483.674V483.828H99.9645V483.73C99.9645 482.47 100.819 481.546 102.037 481.546ZM108.284 488V483.1C108.284 482.414 109.012 481.896 110.216 481.896H110.874V480.776H110.44C109.264 480.776 108.606 481.42 108.354 482.106H108.284V480.776H107.164V488H108.284ZM118.929 488V487.02H117.459V481.756H119.041V480.776H117.459V478.774H116.451V480.118C116.451 480.608 116.297 480.776 115.821 480.776H115.149V481.756H116.339V486.81C116.339 487.51 116.759 488 117.529 488H118.929ZM122.122 488V483.1C122.122 482.414 122.85 481.896 124.054 481.896H124.712V480.776H124.278C123.102 480.776 122.444 481.42 122.192 482.106H122.122V480.776H121.002V488H122.122ZM132.127 488V487.02H131.301V483.044C131.301 481.518 130.265 480.608 128.529 480.608C127.227 480.608 126.359 481.252 125.967 482.022L126.639 482.652C127.031 481.994 127.605 481.574 128.473 481.574C129.621 481.574 130.181 482.134 130.181 483.156V483.87H128.753C126.653 483.87 125.673 484.626 125.673 485.984C125.673 487.328 126.569 488.168 128.095 488.168C129.103 488.168 129.873 487.706 130.181 486.824H130.251C130.335 487.496 130.671 488 131.497 488H132.127ZM128.277 487.216C127.409 487.216 126.849 486.81 126.849 486.096V485.802C126.849 485.102 127.423 484.71 128.697 484.71H130.181V485.9C130.181 486.642 129.383 487.216 128.277 487.216ZM134.278 488H135.398V481.756H136.952V480.776H135.398V478.62H136.952V477.64H135.86C134.796 477.64 134.278 478.326 134.278 479.32V480.776H133.102V481.756H134.278V488ZM138.977 488H140.097V481.756H143.023V488H144.143V480.776H140.097V478.62H141.651V477.64H140.559C139.495 477.64 138.977 478.326 138.977 479.32V480.776H137.801V481.756H138.977V488ZM143.583 479.082C144.059 479.082 144.269 478.83 144.269 478.452V478.27C144.269 477.892 144.059 477.64 143.583 477.64C143.107 477.64 142.897 477.892 142.897 478.27V478.452C142.897 478.83 143.107 479.082 143.583 479.082ZM149.376 488.168C150.748 488.168 151.686 487.496 152.148 486.46L151.336 485.914C150.944 486.74 150.286 487.174 149.376 487.174C148.046 487.174 147.36 486.264 147.36 485.004V483.772C147.36 482.512 148.046 481.602 149.376 481.602C150.258 481.602 150.874 482.036 151.14 482.778L152.078 482.302C151.658 481.308 150.804 480.608 149.376 480.608C147.346 480.608 146.156 482.078 146.156 484.388C146.156 486.698 147.346 488.168 149.376 488.168Z" fill="#6F6F6F"/>
<path d="M194 483L189 480.113V485.887L194 483ZM190.938 482.5H188.896V483.5H190.938V482.5ZM186.854 482.5H184.812V483.5H186.854V482.5ZM182.771 482.5H180.729V483.5H182.771V482.5ZM178.687 482.5H176.646V483.5H178.687V482.5ZM174.604 482.5H172.562V483.5H174.604V482.5ZM170.521 482.5H169.5V483.5H170.521V482.5Z" fill="#736F6F"/>
<path d="M206.046 488.168C208.146 488.168 209.406 487.02 209.406 485.228C209.406 483.772 208.58 482.932 206.676 482.498L205.878 482.316C204.646 482.036 204.044 481.616 204.044 480.692C204.044 479.642 204.814 479.096 206.06 479.096C207.194 479.096 207.936 479.558 208.468 480.3L209.35 479.656C208.622 478.62 207.586 478.06 206.116 478.06C204.198 478.06 202.882 478.998 202.882 480.734C202.882 482.232 203.862 483.016 205.64 483.422L206.438 483.604C207.726 483.898 208.244 484.36 208.244 485.284C208.244 486.404 207.488 487.132 206.088 487.132C204.954 487.132 204.142 486.642 203.456 485.732L202.588 486.46C203.372 487.524 204.478 488.168 206.046 488.168ZM214.187 485.69L213.795 486.866H213.725L213.389 485.69L211.653 480.776H210.533L213.235 488.28L212.689 489.82H211.555V490.8H212.129C213.193 490.8 213.487 490.548 213.809 489.68L217.043 480.776H215.937L214.187 485.69ZM220.746 488.168C222.398 488.168 223.42 487.314 223.42 485.914C223.42 484.822 222.804 484.122 221.208 483.884L220.648 483.8C219.752 483.66 219.262 483.38 219.262 482.68C219.262 481.994 219.752 481.56 220.676 481.56C221.6 481.56 222.216 481.994 222.538 482.442L223.28 481.77C222.692 481.042 221.922 480.608 220.76 480.608C219.29 480.608 218.184 481.308 218.184 482.736C218.184 484.08 219.178 484.626 220.508 484.822L221.082 484.906C222.034 485.046 222.342 485.48 222.342 486.04C222.342 486.782 221.782 487.216 220.83 487.216C219.92 487.216 219.248 486.81 218.688 486.11L217.89 486.754C218.534 487.608 219.416 488.168 220.746 488.168ZM228.459 488V487.02H226.989V481.756H228.571V480.776H226.989V478.774H225.981V480.118C225.981 480.608 225.827 480.776 225.351 480.776H224.679V481.756H225.869V486.81C225.869 487.51 226.289 488 227.059 488H228.459ZM233.192 488.168C234.55 488.168 235.586 487.496 236.048 486.516L235.25 485.942C234.872 486.74 234.172 487.188 233.262 487.188C231.918 487.188 231.12 486.25 231.12 485.004V484.668H236.314V484.136C236.314 482.092 235.124 480.608 233.192 480.608C231.232 480.608 229.944 482.092 229.944 484.388C229.944 486.684 231.232 488.168 233.192 488.168ZM233.192 481.546C234.34 481.546 235.11 482.4 235.11 483.674V483.828H231.12V483.73C231.12 482.47 231.974 481.546 233.192 481.546ZM239.44 488V482.988C239.44 482.064 240.28 481.616 241.162 481.616C242.226 481.616 242.716 482.274 242.716 483.562V488H243.836V482.988C243.836 482.064 244.648 481.616 245.53 481.616C246.622 481.616 247.112 482.288 247.112 483.562V488H248.232V483.366C248.232 481.616 247.35 480.608 245.88 480.608C244.648 480.608 243.948 481.294 243.682 482.078H243.654C243.262 481.042 242.394 480.608 241.442 480.608C240.322 480.608 239.818 481.21 239.496 481.952H239.44V480.776H238.32V488H239.44ZM256.859 488.168C258.231 488.168 259.169 487.496 259.631 486.46L258.819 485.914C258.427 486.74 257.769 487.174 256.859 487.174C255.529 487.174 254.843 486.264 254.843 485.004V483.772C254.843 482.512 255.529 481.602 256.859 481.602C257.741 481.602 258.357 482.036 258.623 482.778L259.561 482.302C259.141 481.308 258.287 480.608 256.859 480.608C254.829 480.608 253.639 482.078 253.639 484.388C253.639 486.698 254.829 488.168 256.859 488.168ZM264.02 488.168C265.952 488.168 267.282 486.684 267.282 484.388C267.282 482.092 265.952 480.608 264.02 480.608C262.088 480.608 260.758 482.092 260.758 484.388C260.758 486.684 262.088 488.168 264.02 488.168ZM264.02 487.174C262.816 487.174 261.962 486.432 261.962 484.906V483.87C261.962 482.344 262.816 481.602 264.02 481.602C265.224 481.602 266.078 482.344 266.078 483.87V484.906C266.078 486.432 265.224 487.174 264.02 487.174ZM270.404 488V482.988C270.404 482.064 271.272 481.616 272.168 481.616C273.246 481.616 273.806 482.274 273.806 483.562V488H274.926V483.366C274.926 481.616 273.988 480.608 272.504 480.608C271.426 480.608 270.81 481.14 270.46 481.952H270.404V480.776H269.284V488H270.404ZM277.793 488H278.913V481.756H281.839V488H282.959V480.776H278.913V478.62H280.467V477.64H279.375C278.311 477.64 277.793 478.326 277.793 479.32V480.776H276.617V481.756H277.793V488ZM282.399 479.082C282.875 479.082 283.085 478.83 283.085 478.452V478.27C283.085 477.892 282.875 477.64 282.399 477.64C281.923 477.64 281.713 477.892 281.713 478.27V478.452C281.713 478.83 281.923 479.082 282.399 479.082ZM291.595 488.798C291.595 487.608 290.825 486.88 289.033 486.88H287.493C286.835 486.88 286.387 486.768 286.387 486.334C286.387 485.886 286.863 485.648 287.339 485.522C287.549 485.564 287.801 485.592 288.039 485.592C289.691 485.592 290.769 484.57 290.769 483.1C290.769 482.33 290.461 481.686 289.943 481.238V480.776H291.315V479.796H290.237C289.635 479.796 289.397 480.202 289.397 480.762V480.888C289.005 480.706 288.543 480.608 288.025 480.608C286.387 480.608 285.309 481.63 285.309 483.1C285.309 484.108 285.813 484.906 286.667 485.312V485.368C285.939 485.55 285.421 485.9 285.421 486.628C285.421 487.118 285.659 487.44 286.065 487.636V487.79C285.351 487.986 284.917 488.406 284.917 489.19C284.917 490.324 285.841 490.968 288.095 490.968C290.419 490.968 291.595 490.282 291.595 488.798ZM290.545 488.882C290.545 489.666 289.817 490.058 288.571 490.058H287.535C286.401 490.058 285.967 489.54 285.967 488.91C285.967 488.462 286.177 488.14 286.639 487.93H289.047C290.167 487.93 290.545 488.308 290.545 488.882ZM288.039 484.696C287.087 484.696 286.485 484.248 286.485 483.296V482.904C286.485 481.952 287.087 481.504 288.039 481.504C288.991 481.504 289.593 481.952 289.593 482.904V483.296C289.593 484.248 288.991 484.696 288.039 484.696ZM297.458 488H298.578V480.776H297.458V485.774C297.458 486.726 296.59 487.16 295.708 487.16C294.63 487.16 294.056 486.502 294.056 485.214V480.776H292.936V485.41C292.936 487.16 293.888 488.168 295.372 488.168C296.576 488.168 297.122 487.51 297.402 486.824H297.458V488ZM302.244 488V483.1C302.244 482.414 302.972 481.896 304.176 481.896H304.834V480.776H304.4C303.224 480.776 302.566 481.42 302.314 482.106H302.244V480.776H301.124V488H302.244ZM312.249 488V487.02H311.423V483.044C311.423 481.518 310.387 480.608 308.651 480.608C307.349 480.608 306.481 481.252 306.089 482.022L306.761 482.652C307.153 481.994 307.727 481.574 308.595 481.574C309.743 481.574 310.303 482.134 310.303 483.156V483.87H308.875C306.775 483.87 305.795 484.626 305.795 485.984C305.795 487.328 306.691 488.168 308.217 488.168C309.225 488.168 309.995 487.706 310.303 486.824H310.373C310.457 487.496 310.793 488 311.619 488H312.249ZM308.399 487.216C307.531 487.216 306.971 486.81 306.971 486.096V485.802C306.971 485.102 307.545 484.71 308.819 484.71H310.303V485.9C310.303 486.642 309.505 487.216 308.399 487.216ZM317.004 488V487.02H315.534V481.756H317.116V480.776H315.534V478.774H314.526V480.118C314.526 480.608 314.372 480.776 313.896 480.776H313.224V481.756H314.414V486.81C314.414 487.51 314.834 488 315.604 488H317.004ZM319.636 479.082C320.112 479.082 320.322 478.83 320.322 478.452V478.27C320.322 477.892 320.112 477.64 319.636 477.64C319.16 477.64 318.95 477.892 318.95 478.27V478.452C318.95 478.83 319.16 479.082 319.636 479.082ZM319.076 488H320.196V480.776H319.076V488ZM325.466 488.168C327.398 488.168 328.728 486.684 328.728 484.388C328.728 482.092 327.398 480.608 325.466 480.608C323.534 480.608 322.204 482.092 322.204 484.388C322.204 486.684 323.534 488.168 325.466 488.168ZM325.466 487.174C324.262 487.174 323.408 486.432 323.408 484.906V483.87C323.408 482.344 324.262 481.602 325.466 481.602C326.67 481.602 327.524 482.344 327.524 483.87V484.906C327.524 486.432 326.67 487.174 325.466 487.174ZM331.85 488V482.988C331.85 482.064 332.718 481.616 333.614 481.616C334.692 481.616 335.252 482.274 335.252 483.562V488H336.372V483.366C336.372 481.616 335.434 480.608 333.95 480.608C332.872 480.608 332.256 481.14 331.906 481.952H331.85V480.776H330.73V488H331.85Z" fill="#6F6F6F"/>
<circle cx="120" cy="265" r="24" fill="#161616"/>
<rect width="20" height="20" transform="translate(110 255)" fill="white" style="mix-blend-mode:multiply"/>
<path d="M120 257.5C120.618 257.5 121.222 257.683 121.736 258.027C122.25 258.37 122.651 258.858 122.887 259.429C123.124 260 123.186 260.628 123.065 261.235C122.944 261.841 122.647 262.398 122.21 262.835C121.773 263.272 121.216 263.569 120.61 263.69C120.003 263.811 119.375 263.749 118.804 263.512C118.233 263.276 117.745 262.875 117.402 262.361C117.058 261.847 116.875 261.243 116.875 260.625C116.875 259.796 117.204 259.001 117.79 258.415C118.376 257.829 119.171 257.5 120 257.5ZM120 256.25C119.135 256.25 118.289 256.507 117.569 256.987C116.85 257.468 116.289 258.151 115.958 258.951C115.627 259.75 115.54 260.63 115.709 261.479C115.878 262.327 116.295 263.107 116.906 263.719C117.518 264.33 118.298 264.747 119.146 264.916C119.995 265.085 120.875 264.998 121.674 264.667C122.474 264.336 123.157 263.775 123.638 263.056C124.118 262.336 124.375 261.49 124.375 260.625C124.375 259.465 123.914 258.352 123.094 257.531C122.273 256.711 121.16 256.25 120 256.25Z" fill="white"/>
<path d="M126.25 273.75H125V270.625C125 270.215 124.919 269.808 124.762 269.429C124.605 269.05 124.375 268.705 124.085 268.415C123.795 268.125 123.45 267.895 123.071 267.738C122.692 267.581 122.285 267.5 121.875 267.5H118.125C117.296 267.5 116.501 267.829 115.915 268.415C115.329 269.001 115 269.796 115 270.625V273.75H113.75V270.625C113.75 269.465 114.211 268.352 115.031 267.531C115.852 266.711 116.965 266.25 118.125 266.25H121.875C123.035 266.25 124.148 266.711 124.969 267.531C125.789 268.352 126.25 269.465 126.25 270.625V273.75Z" fill="white"/>
<path d="M105.86 301.228V306.996C105.86 309.866 106.854 311.168 109.598 311.168C112.342 311.168 113.364 309.866 113.364 306.996V301.228H111.544V307.234C111.544 308.76 111.012 309.53 109.612 309.53C108.212 309.53 107.68 308.76 107.68 307.234V301.228H105.86ZM118.038 311.168C119.858 311.168 121.048 310.188 121.048 308.774C121.048 307.556 120.278 306.842 118.682 306.618L117.94 306.52C117.254 306.408 116.988 306.184 116.988 305.694C116.988 305.246 117.324 304.938 118.094 304.938C118.808 304.938 119.424 305.274 119.844 305.722L120.894 304.672C120.194 303.944 119.466 303.524 118.038 303.524C116.372 303.524 115.266 304.42 115.266 305.834C115.266 307.164 116.134 307.85 117.702 308.046L118.43 308.144C119.074 308.228 119.326 308.494 119.326 308.914C119.326 309.432 118.962 309.754 118.108 309.754C117.282 309.754 116.638 309.376 116.106 308.76L115.014 309.824C115.742 310.664 116.652 311.168 118.038 311.168ZM125.745 311.168C127.103 311.168 128.167 310.65 128.769 309.824L127.803 308.746C127.355 309.32 126.823 309.74 125.941 309.74C124.765 309.74 124.163 309.026 124.163 307.976V307.794H129.021V307.206C129.021 305.204 127.971 303.524 125.689 303.524C123.547 303.524 122.301 305.022 122.301 307.332C122.301 309.67 123.589 311.168 125.745 311.168ZM125.717 304.868C126.641 304.868 127.159 305.554 127.159 306.562V306.688H124.163V306.576C124.163 305.568 124.779 304.868 125.717 304.868ZM132.549 311V306.52C132.549 305.722 133.179 305.386 134.383 305.386H134.943V303.692H134.551C133.389 303.692 132.801 304.434 132.619 305.204H132.549V303.692H130.757V311H132.549Z" fill="black"/>
<defs>
<clipPath id="clip0_1218_55267">
<rect width="601" height="48" fill="white" transform="translate(360 130)"/>
</clipPath>
<clipPath id="clip1_1218_55267">
<rect width="143" height="48" fill="white" transform="translate(512 178)"/>
</clipPath>
<clipPath id="clip2_1218_55267">
<rect width="144" height="48" fill="white" transform="translate(672 178)"/>
</clipPath>
</defs>
</svg>
