<?xml version="1.0" encoding="utf-8"?>
<!-- Generator: Adobe Illustrator 22.0.0, SVG Export Plug-In . SVG Version: 6.00 Build 0)  -->
<svg version="1.1" id="Layer_1" xmlns="http://www.w3.org/2000/svg" xmlns:xlink="http://www.w3.org/1999/xlink" x="0px" y="0px"
	 viewBox="0 0 29.3 29.2" style="enable-background:new 0 0 29.3 29.2;" xml:space="preserve">
<style type="text/css">
	.st0{fill:none;stroke:#000000;stroke-width:0.72;stroke-linecap:round;stroke-linejoin:round;stroke-miterlimit:10;}
</style>
<g id="path">
	<path id="path_1_" class="st0" d="M17.7,14.5c0,1.7-1.3,3-3,3s-3-1.3-3-3s1.3-3,3-3S17.7,12.8,17.7,14.5z M3.7,11.5
		c-1.7,0-3,1.3-3,3s1.3,3,3,3s3-1.3,3-3S5.3,11.5,3.7,11.5z M25.7,11.5c-1.7,0-3,1.3-3,3s1.3,3,3,3s3-1.3,3-3S27.3,11.5,25.7,11.5z
		 M14.7,0.5c-1.7,0-3,1.3-3,3s1.3,3,3,3s3-1.3,3-3S16.3,0.5,14.7,0.5z M3.7,0.5c-1.7,0-3,1.3-3,3s1.3,3,3,3s3-1.3,3-3
		S5.3,0.5,3.7,0.5z M25.7,0.5c-1.7,0-3,1.3-3,3s1.3,3,3,3s3-1.3,3-3S27.3,0.5,25.7,0.5z M14.7,22.5c-1.7,0-3,1.3-3,3s1.3,3,3,3
		s3-1.3,3-3S16.3,22.5,14.7,22.5z M3.7,22.5c-1.7,0-3,1.3-3,3s1.3,3,3,3s3-1.3,3-3S5.3,22.5,3.7,22.5z M25.7,22.5c-1.7,0-3,1.3-3,3
		s1.3,3,3,3s3-1.3,3-3S27.3,22.5,25.7,22.5z M6.7,3.5h5 M14.7,6.5v5 M14.7,17.5v5 M17.7,25.5h5"/>
</g>
<g id="Layer_1_1_">
</g>
</svg>
