<?xml version="1.0" encoding="utf-8"?>
<!-- Generator: Adobe Illustrator 22.0.0, SVG Export Plug-In . SVG Version: 6.00 Build 0)  -->
<svg version="1.1" id="Layer_1" xmlns="http://www.w3.org/2000/svg" xmlns:xlink="http://www.w3.org/1999/xlink" x="0px" y="0px"
	 viewBox="0 0 31.1 31.8" style="enable-background:new 0 0 31.1 31.8;" xml:space="preserve">
<style type="text/css">
	.st0{fill:none;stroke:#000000;stroke-width:0.72;stroke-linejoin:round;stroke-miterlimit:10;}
</style>
<g id="progress">
	<path id="progress_1_" class="st0" d="M8.5,26.9c0,2.2-1.8,4-4,4s-4-1.8-4-4s1.8-4,4-4S8.5,24.7,8.5,26.9z M30.5,22.9h-8v8h8V22.9z
		 M22.5,19.9h8v-8h-8 M30.5,8.9v-8h-8 M11.5,30.9h8l-4-8L11.5,30.9z M0.5,15.9c0,2.2,1.8,4,4,4s4-1.8,4-4s-1.8-4-4-4 M4.5,8.9
		c2.2,0,4-1.8,4-4s-1.8-4-4-4 M11.5,19.9h8l-4-8 M19.5,8.9l-4-8"/>
</g>
<g id="Layer_1_1_">
</g>
</svg>
