<svg width="1080" height="540" viewBox="0 0 1080 540" fill="none" xmlns="http://www.w3.org/2000/svg">
<rect width="1080" height="540" fill="#F4F4F4"/>
<path d="M73.5 483L68.5 480.113V485.887L73.5 483ZM69 482.5H49V483.5H69V482.5Z" fill="#736F6F"/>
<text fill="#6F6F6F" xml:space="preserve" style="white-space: pre" font-family="IBM Plex Sans" font-size="14" letter-spacing="0.16px"><tspan x="81.5" y="488.25">Data plane (user traffic in cluster network)</tspan></text>
<path d="M394 483L389 480.113V485.887L394 483ZM390.938 482.5H388.896V483.5H390.938V482.5ZM386.854 482.5H384.812V483.5H386.854V482.5ZM382.771 482.5H380.729V483.5H382.771V482.5ZM378.687 482.5H376.646V483.5H378.687V482.5ZM374.604 482.5H372.562V483.5H374.604V482.5ZM370.521 482.5H369.5V483.5H370.521V482.5Z" fill="#736F6F"/>
<text fill="#6F6F6F" xml:space="preserve" style="white-space: pre" font-family="IBM Plex Sans" font-size="14" letter-spacing="0.16px"><tspan x="402" y="488.25">de.icr.io</tspan></text>
<rect x="288.5" y="49.5" width="688" height="374" fill="white"/>
<path d="M292 49H288V97H292V49Z" fill="#6F6F6F"/>
<text fill="black" xml:space="preserve" style="white-space: pre" font-family="IBM Plex Sans" font-size="14" font-weight="600" letter-spacing="0.16px"><tspan x="308" y="78.25">Virtual Private Cloud (VPC)</tspan></text>
<rect x="288.5" y="49.5" width="688" height="374" stroke="#6F6F6F"/>
<path d="M168 201L173 203.887L173 198.113L168 201ZM171 201.5L173 201.5L173 200.5L171 200.5L171 201.5ZM175 201.5L177 201.5L177 200.5L175 200.5L175 201.5ZM179 201.5L181 201.5L181 200.5L179 200.5L179 201.5ZM183 201.5L185 201.5L185 200.5L183 200.5L183 201.5ZM187 201.5L189 201.5L189 200.5L187 200.5L187 201.5ZM191 201.5L193 201.5L193 200.5L191 200.5L191 201.5ZM195 201.5L197 201.5L197 200.5L195 200.5L195 201.5ZM199 201.5L201 201.5L201 200.5L199 200.5L199 201.5ZM203 201.5L205 201.5L205 200.5L203 200.5L203 201.5ZM207 201.5L209 201.5L209 200.5L207 200.5L207 201.5ZM211 201.5L213 201.5L213 200.5L211 200.5L211 201.5ZM215 201.5L217 201.5L217 200.5L215 200.5L215 201.5ZM219 201.5L221 201.5L221 200.5L219 200.5L219 201.5ZM223 201.5L225 201.5L225 200.5L223 200.5L223 201.5ZM227 201.5L229 201.5L229 200.5L227 200.5L227 201.5ZM231 201.5L233 201.5L233 200.5L231 200.5L231 201.5ZM235 201.5L237 201.5L237 200.5L235 200.5L235 201.5ZM239 201.5L241 201.5L241 200.5L239 200.5L239 201.5ZM243 201.5L245 201.5L245 200.5L243 200.5L243 201.5ZM247 201.5L249 201.5L249 200.5L247 200.5L247 201.5ZM251 201.5L253 201.5L253 200.5L251 200.5L251 201.5ZM255 201.5L257 201.5L257 200.5L255 200.5L255 201.5ZM259 201.5L261 201.5L261 200.5L259 200.5L259 201.5ZM263 201.5L265 201.5L265 200.5L263 200.5L263 201.5ZM267 201.5L269 201.5L269 200.5L267 200.5L267 201.5ZM271 201.5L273 201.5L273 200.5L271 200.5L271 201.5ZM275 201.5L277 201.5L277 200.5L275 200.5L275 201.5ZM279 201.5L281 201.5L281 200.5L279 200.5L279 201.5ZM283 201.5L285 201.5L285 200.5L283 200.5L283 201.5ZM287 201.5L289 201.5L289 200.5L287 200.5L287 201.5ZM291 201.5L293 201.5L293 200.5L291 200.5L291 201.5ZM295 201.5L297 201.5L297 200.5L295 200.5L295 201.5ZM299 201.5L301 201.5L301 200.5L299 200.5L299 201.5ZM303 201.5L305 201.5L305 200.5L303 200.5L303 201.5ZM307 201.5L309 201.5L309 200.5L307 200.5L307 201.5ZM311 201.5L313 201.5L313 200.5L311 200.5L311 201.5ZM315 201.5L317 201.5L317 200.5L315 200.5L315 201.5ZM319 201.5L321 201.5L321 200.5L319 200.5L319 201.5ZM323 201.5L325 201.5L325 200.5L323 200.5L323 201.5ZM327 201.5L329 201.5L329 200.5L327 200.5L327 201.5ZM331 201.5L333 201.5L333 200.5L331 200.5L331 201.5ZM335 201.5L336 201.5L336 200.5L335 200.5L335 201.5Z" fill="#8F8B8B"/>
<rect width="69" height="110" transform="translate(110 176)" fill="white" fill-opacity="0.01" style="mix-blend-mode:multiply"/>
<rect width="48" height="48" transform="translate(120.5 176)" fill="#0F62FE"/>
<rect width="24" height="24" transform="translate(132.5 188)" fill="white" fill-opacity="0.01" style="mix-blend-mode:multiply"/>
<path d="M153.5 210.5H149.75C149.352 210.5 148.971 210.341 148.69 210.06C148.409 209.779 148.25 209.398 148.25 209V205.25C148.25 204.852 148.409 204.471 148.69 204.19C148.971 203.909 149.352 203.75 149.75 203.75H153.5C153.898 203.75 154.279 203.909 154.56 204.19C154.841 204.471 155 204.852 155 205.25V209C155 209.398 154.841 209.779 154.56 210.06C154.279 210.341 153.898 210.5 153.5 210.5ZM149.749 205.25L149.75 209H153.5V205.25H149.749Z" fill="white"/>
<path d="M144.5 205.25H140.75C140.352 205.25 139.971 205.091 139.69 204.81C139.409 204.529 139.25 204.148 139.25 203.75V196.25C139.25 195.852 139.409 195.471 139.69 195.19C139.971 194.909 140.352 194.75 140.75 194.75H148.25C148.648 194.75 149.029 194.909 149.31 195.19C149.591 195.471 149.75 195.852 149.75 196.25V200H148.25V196.25H140.75V203.75H144.5V205.25Z" fill="white"/>
<path d="M144.5 210.5H135.5C135.102 210.5 134.721 210.341 134.44 210.06C134.159 209.779 134 209.398 134 209V191C134 190.602 134.159 190.221 134.44 189.94C134.721 189.659 135.102 189.5 135.5 189.5H153.5C153.898 189.5 154.279 189.659 154.56 189.94C154.841 190.221 155 190.602 155 191V200H153.5V191H135.5V209H144.5V210.5Z" fill="white"/>
<text fill="black" xml:space="preserve" style="white-space: pre" font-family="IBM Plex Sans" font-size="14" font-weight="600" letter-spacing="0.16px"><tspan x="110.084" y="246.25">IBM Cloud&#10;</tspan><tspan x="110.345" y="264.25">Container &#10;</tspan><tspan x="117.211" y="282.25">Registry</tspan></text>
<rect x="480.5" y="111.5" width="447" height="264" fill="white" fill-opacity="0.01" style="mix-blend-mode:multiply"/>
<rect x="481" y="112" width="446" height="263" fill="white"/>
<rect x="481" y="112" width="446" height="263" fill="#F4F4F4"/>
<g clip-path="url(#clip0_2008_6224)">
<text fill="black" xml:space="preserve" style="white-space: pre" font-family="IBM Plex Sans" font-size="14" font-weight="600" letter-spacing="0.16px"><tspan x="536" y="140.25">Cluster</tspan></text>
<rect width="24" height="24" transform="translate(496 123)" fill="white" fill-opacity="0.01" style="mix-blend-mode:multiply"/>
<path d="M508 140.25C507.85 140.25 507.7 140.25 507.625 140.175L503.875 137.925C503.65 137.775 503.5 137.55 503.5 137.25V132.75C503.5 132.45 503.65 132.225 503.875 132.075L507.625 129.825C507.7 129.75 507.85 129.75 508 129.75C508.15 129.75 508.3 129.75 508.375 129.825L512.125 132.075C512.35 132.225 512.5 132.45 512.5 132.75V137.25C512.5 137.55 512.35 137.775 512.125 137.925L508.375 140.175C508.3 140.25 508.15 140.25 508 140.25ZM505 136.8L508 138.6L511 136.8V133.125L508 131.325L505 133.125V136.8Z" fill="black"/>
<path d="M508 146.25C507.85 146.25 507.775 146.25 507.625 146.175L498.625 140.925C498.4 140.775 498.25 140.55 498.25 140.25V129.75C498.25 129.45 498.4 129.225 498.625 129.075L507.625 123.825C507.775 123.75 507.85 123.75 508 123.75C508.15 123.75 508.225 123.75 508.375 123.825L517.375 129.075L516.625 130.35L508 125.4L499.75 130.2V139.875L508 144.675L516.25 139.875V134.25H517.75V140.25C517.75 140.55 517.6 140.775 517.375 140.925L508.375 146.175C508.225 146.25 508.15 146.25 508 146.25Z" fill="black"/>
<line x1="482" y1="111" x2="482" y2="159" stroke="#8D8D8D" stroke-width="4"/>
</g>
<rect x="480.5" y="111.5" width="447" height="264" stroke="#8D8D8D"/>
<path d="M520 350L520 273.407L520 272C520 267.582 516.418 264 512 264L503 264" stroke="#8F8B8B"/>
<path d="M520 323L520 352C520 356.418 523.582 360 528 360L760 360C764.418 360 768 356.418 768 352L768 349.15" stroke="#8F8B8B"/>
<rect x="559.5" y="175.5" width="144" height="167" fill="white"/>
<rect x="560" y="176" width="143" height="166" fill="white"/>
<g clip-path="url(#clip1_2008_6224)">
<text fill="black" xml:space="preserve" style="white-space: pre" font-family="IBM Plex Sans" font-size="14" font-weight="600" letter-spacing="0.16px"><tspan x="575" y="204.25">Worker node 1</tspan></text>
<line x1="561" y1="175" x2="561" y2="223" stroke="#878D96" stroke-width="4"/>
</g>
<rect x="559.5" y="175.5" width="144" height="167" stroke="#878D96"/>
<rect x="744.5" y="175.5" width="145" height="167" fill="white"/>
<rect x="745" y="176" width="144" height="166" fill="white"/>
<g clip-path="url(#clip2_2008_6224)">
<text fill="black" xml:space="preserve" style="white-space: pre" font-family="IBM Plex Sans" font-size="14" font-weight="600" letter-spacing="0.16px"><tspan x="760" y="204.25">Worker node n</tspan></text>
<line x1="746" y1="175" x2="746" y2="223" stroke="#878D96" stroke-width="4"/>
</g>
<rect x="744.5" y="175.5" width="145" height="167" stroke="#878D96"/>
<rect width="48" height="48" transform="translate(608 240)" fill="#8D8D8D"/>
<rect width="20" height="20" transform="translate(622 254)" fill="white" fill-opacity="0.01" style="mix-blend-mode:multiply"/>
<path d="M639.5 261.5H634.5V256.5H639.5V261.5ZM635.75 260.25H638.25V257.75H635.75V260.25Z" fill="white"/>
<path d="M632.625 263.375V259.625H627.625V268.375H636.375V263.375H632.625ZM628.875 260.875H631.375V263.375H628.875V260.875ZM631.375 267.125H628.875V264.625H631.375V267.125ZM635.125 267.125H632.625V264.625H635.125V267.125Z" fill="white"/>
<path d="M638.25 271.5H625.75C625.419 271.5 625.101 271.368 624.867 271.133C624.632 270.899 624.5 270.581 624.5 270.25V257.75C624.5 257.419 624.632 257.101 624.867 256.867C625.101 256.632 625.419 256.5 625.75 256.5H632V257.75H625.75V270.25H638.25V264H639.5V270.25C639.5 270.581 639.368 270.899 639.133 271.133C638.899 271.368 638.581 271.5 638.25 271.5Z" fill="white"/>
<text fill="black" xml:space="preserve" style="white-space: pre" font-family="IBM Plex Sans" font-size="14" font-weight="600" letter-spacing="0.16px"><tspan x="596.273" y="310.25">containerd</tspan></text>
<rect width="48" height="48" transform="translate(793 240)" fill="#8D8D8D"/>
<rect width="20" height="20" transform="translate(807 254)" fill="white" fill-opacity="0.01" style="mix-blend-mode:multiply"/>
<path d="M824.5 261.5H819.5V256.5H824.5V261.5ZM820.75 260.25H823.25V257.75H820.75V260.25Z" fill="white"/>
<path d="M817.625 263.375V259.625H812.625V268.375H821.375V263.375H817.625ZM813.875 260.875H816.375V263.375H813.875V260.875ZM816.375 267.125H813.875V264.625H816.375V267.125ZM820.125 267.125H817.625V264.625H820.125V267.125Z" fill="white"/>
<path d="M823.25 271.5H810.75C810.419 271.5 810.101 271.368 809.867 271.133C809.632 270.899 809.5 270.581 809.5 270.25V257.75C809.5 257.419 809.632 257.101 809.867 256.867C810.101 256.632 810.419 256.5 810.75 256.5H817V257.75H810.75V270.25H823.25V264H824.5V270.25C824.5 270.581 824.368 270.899 824.133 271.133C823.899 271.368 823.581 271.5 823.25 271.5Z" fill="white"/>
<text fill="black" xml:space="preserve" style="white-space: pre" font-family="IBM Plex Sans" font-size="14" font-weight="600" letter-spacing="0.16px"><tspan x="781.273" y="310.25">containerd</tspan></text>
<path d="M608 264H451.251H440C435.582 264 432 260.418 432 256V241" stroke="#8F8B8B"/>
<path d="M794 264H770.844V264C769.273 264 768 265.273 768 266.844V350" stroke="#8F8B8B"/>
<path d="M384 199L389 196.113L389 201.887L384 199ZM426.421 199.5L388.5 199.5L388.5 198.5L426.421 198.5L426.421 199.5ZM432.5 204.579L432.5 250L431.5 250L431.5 204.579L432.5 204.579ZM431.5 204.579C431.5 201.774 429.226 199.5 426.421 199.5L426.421 198.5C429.779 198.5 432.5 201.221 432.5 204.579L431.5 204.579Z" fill="#8F8B8B"/>
<rect width="58" height="110" transform="translate(330 176)" fill="white" fill-opacity="0.01" style="mix-blend-mode:multiply"/>
<rect x="335.5" y="176.5" width="47" height="47" fill="#EDF5FF"/>
<path d="M336 177H382V223H336V177Z" fill="white"/>
<path d="M336 177H382V223H336V177Z" fill="#EDF5FF"/>
<rect width="20" height="20" transform="translate(349 190)" fill="white" fill-opacity="0.01" style="mix-blend-mode:multiply"/>
<path d="M359.625 198.125V193.75H354V203.75H364V198.125H359.625ZM355.25 195H358.375V198.125H355.25V195ZM355.25 199.375H358.375V202.5H355.25V199.375ZM362.75 202.5H359.625V199.375H362.75V202.5Z" fill="#161616"/>
<path d="M366.5 196.875H360.875V191.25H366.5V196.875ZM362.125 195.625H365.25V192.5H362.125V195.625Z" fill="#161616"/>
<path d="M366.5 202.5H365.25V203.75H366.5V207.5H351.5V203.75H352.75V202.5H351.5C351.169 202.5 350.851 202.632 350.617 202.867C350.382 203.101 350.25 203.419 350.25 203.75V207.5C350.25 207.831 350.382 208.149 350.617 208.383C350.851 208.618 351.169 208.75 351.5 208.75H366.5C366.831 208.75 367.149 208.618 367.383 208.383C367.618 208.149 367.75 207.831 367.75 207.5V203.75C367.75 203.419 367.618 203.101 367.383 202.867C367.149 202.632 366.831 202.5 366.5 202.5Z" fill="#161616"/>
<path d="M353.375 206.25C353.72 206.25 354 205.97 354 205.625C354 205.28 353.72 205 353.375 205C353.03 205 352.75 205.28 352.75 205.625C352.75 205.97 353.03 206.25 353.375 206.25Z" fill="#161616"/>
<rect x="335.5" y="176.5" width="47" height="47" stroke="#0F62FE"/>
<text fill="black" xml:space="preserve" style="white-space: pre" font-family="IBM Plex Sans" font-size="14" font-weight="600" letter-spacing="0.16px"><tspan x="331.711" y="246.25">Registry&#10;</tspan><tspan x="345.694" y="264.25">VPE&#10;</tspan><tspan x="330.021" y="282.25">Gateway</tspan></text>
<defs>
<clipPath id="clip0_2008_6224">
<rect width="448" height="48" fill="white" transform="translate(480 111)"/>
</clipPath>
<clipPath id="clip1_2008_6224">
<rect width="145" height="48" fill="white" transform="translate(559 175)"/>
</clipPath>
<clipPath id="clip2_2008_6224">
<rect width="146" height="48" fill="white" transform="translate(744 175)"/>
</clipPath>
</defs>
</svg>
