<?xml version="1.0" encoding="UTF-8"?>
<svg xmlns="http://www.w3.org/2000/svg" width="1186" height="1114" xmlns:xlink="http://www.w3.org/1999/xlink" version="1.1" viewBox="0 0 1186 1114">
  <defs>
    <style>
      .cls-1, .cls-2 {
        fill: none;
      }

      .cls-3 {
        fill: #23a149;
      }

      .cls-4 {
        fill: #e0e0e0;
      }

      .cls-5 {
        fill: #010101;
      }

      .cls-6 {
        fill: #f4f4f5;
      }

      .cls-7, .cls-8, .cls-9, .cls-10, .cls-11, .cls-12 {
        fill: #231f20;
      }

      .cls-13 {
        fill: #d2e1f3;
      }

      .cls-8 {
        letter-spacing: 0em;
      }

      .cls-8, .cls-14, .cls-9, .cls-10, .cls-11, .cls-15, .cls-12 {
        isolation: isolate;
      }

      .cls-8, .cls-9, .cls-10, .cls-11, .cls-15, .cls-12 {
        font-family: IBMPlexSans, 'IBM Plex Sans';
        font-size: 24px;
      }

      .cls-16 {
        fill: #5880c1;
      }

      .cls-9 {
        letter-spacing: 0em;
      }

      .cls-10 {
        letter-spacing: 0em;
      }

      .cls-11 {
        letter-spacing: 0em;
      }

      .cls-17, .cls-15 {
        fill: #fff;
      }

      .cls-2 {
        stroke: #000;
        stroke-dasharray: 2 2;
        stroke-miterlimit: 10;
        stroke-width: 4px;
      }

      .cls-18 {
        fill: #4167b1;
      }
    </style>
  </defs>
  <!-- Generator: Adobe Illustrator 28.7.1, SVG Export Plug-In . SVG Version: 1.2.0 Build 142)  -->
  <g>
    <g id="Layer_1">
      <rect class="cls-13" x="600" y="447.4" width="585" height="109.3"/>
      <rect class="cls-13" y="447.7" width="585" height="109.3"/>
      <rect class="cls-17" x="3.5" y="26.5" width="1181" height="374" rx="63" ry="63"/>
      <path class="cls-3" d="M1121.5,28c33.9,0,61.5,27.6,61.5,61.5v248.1c0,33.9-27.6,61.5-61.5,61.5H66.5c-33.9,0-61.5-27.6-61.5-61.5V89.5c0-33.9,27.6-61.5,61.5-61.5h1055.1M1121.5,25H66.5C30.9,25,2,53.9,2,89.5v248.1c0,35.6,28.9,64.5,64.5,64.5h1055.1c35.6,0,64.5-28.9,64.5-64.5V89.5c0-35.6-28.9-64.5-64.5-64.5h0Z"/>
      <rect class="cls-17" x="97" y="186" width="468" height="185" rx="64.5" ry="64.5"/>
      <path class="cls-3" d="M500.5,186h-12v1h12v-1h0ZM476.5,186h-12v1h12v-1h0ZM452.5,186h-12v1h12v-1h0ZM428.5,186h-12v1h12v-1h0ZM404.5,186h-12v1h12v-1h0ZM380.5,186h-12v1h12v-1h0ZM356.5,186h-12v1h12v-1h0ZM332.5,186h-12v1h12v-1h0ZM308.5,186h-12v1h12v-1h0ZM284.5,186h-12v1h12v-1h0ZM260.5,186h-12v1h12v-1h0ZM236.5,186h-12v1h12v-1h0ZM212.5,186h-12v1h12v-1h0ZM188.5,186h-12v1h12v-1h0ZM164.5,186h-9.6s0,0-.1,0h0s0,0-.1,0h0s0,0-.1,0h0s0,0-.1,0h0s0,0-.1,0h0c-.4,0-.9.1-1.3.2v1c3-.4,6-.6,8.9-.6h3.1v-1h0l-.6.4ZM140.9,189.4c-1,.3-1.9.7-2.8,1h0s0,0,0,0h0s0,0,0,0h0s0,0,0,0h0s0,0,0,0h0s0,0,0,0h0s0,0,0,0h0s0,0,0,0h0c-.2,0-.4.1-.5.2h0s0,0,0,0h0s0,0,0,0h0s0,0,0,0h0s0,0,0,0h0s0,0,0,0h0s0,0,0,0h0s0,0,0,0h0s0,0,0,0h0s0,0,0,0h0s0,0,0,0h0s0,0,0,0h0s0,0,0,0h0s0,0,0,0h0s0,0,0,0h0s0,0,0,0h0s0,0,0,0h0c0,0-.1,0-.2,0h0s0,0,0,0h0s0,0,0,0h0s0,0,0,0h0s0,0,0,0h0s0,0,0,0h0s0,0,0,0h0s0,0,0,0h0s0,0,0,0h0s0,0,0,0h0s0,0,0,0h0s0,0,0,0h0s0,0,0,0h0s0,0,0,0h0s0,0,0,0h0s0,0,0,0h0s0,0,0,0h0s0,0,0,0h0s0,0,0,0h0s0,0,0,0h0s0,0,0,0h0s0,0,0,0h-.1s0,0,0,0h0s0,0,0,0h0s0,0,0,0h0s0,0,0,0h0s0,0,0,0h0s0,0,0,0h0s0,0,0,0h0s0,0,0,0h0s0,0,0,0h0s0,0,0,0h0s0,0,0,0h0s0,0,0,0h0s0,0,0,0h0s0,0,0,0c0,0,0,0,0,0,0,0,0,0,0,0h0s0,0,0,0h0s0,0,0,0h0s0,0,0,0h0s0,0,0,0h0s0,0,0,0h0s0,0,0,0h0s0,0,0,0h0s0,0,0,0h0s0,0,0,0h0s0,0,0,0h0s0,0,0,0h0s0,0,0,0h0s0,0,0,0h0s0,0,0,0h0s0,0,0,0h0s0,0,0,0h0s0,0,0,0h0s0,0,0,0h0c-.1,0-.2,0-.3.1h0s0,0,0,0h0s0,0,0,0h0s0,0,0,0h0s0,0,0,0h0s0,0,0,0h0s0,0,0,0h0s0,0,0,0h0s0,0,0,0h0s0,0,0,0h0s0,0,0,0h0s0,0,0,0h0s0,0,0,0h0c-.9.5-1.9,1-2.8,1.5l.5.9c3.4-1.9,7.1-3.5,10.8-4.8l-.3-.9h0l-.2.8ZM120.1,201s0,0,0,0h0s0,0,0,0h0s0,0,0,0h0s0,0,0,0h0c-1.6,1.3-3.1,2.7-4.5,4.2h0s0,0,0,0h0s0,0,0,0h0s0,0,0,0h0s0,0,0,0h0s0,0,0,0h0s0,0,0,0h0s0,0,0,0h0s0,0,0,0h0s0,0,0,0h0s0,0,0,0h0s0,0,0,0h0s0,0,0,0h0s0,0,0,0h0s0,0,0,0h0s0,0,0,0h0s0,0,0,0h0c0,0-.1.1-.2.2h0s0,0,0,0h0s0,0,0,0h0s0,0,0,0h0s0,0,0,0c0,0,0,0,0,0,0,0,0,0,0,0,0,0,0,0,0,0,0,0,0,0,0,0,0,0,0,0,0,0,0,0,0,0,0,0,0,0,0,0,0,0,0,0,0,0,0,0,0,0,0,0,0,0,0,0,0,0,0,0,0,0,0,0,0,0h0s0,0,0,0h0s0,0,0,0h0s0,0,0,0h0s0,0,0,0h0s0,0,0,0h0s0,0,0,0h0s0,0,0,0h0s0,0,0,0h0s0,0,0,0h0s0,0,0,0h0s0,0,0,0h0s0,0,0,0h0s0,0,0,0h0c-.8.8-1.5,1.7-2.2,2.6l.8.6c2.5-3,5.3-5.9,8.3-8.4l-.6-.8h-.1ZM104.9,219.4c-1.7,3-3.1,6.2-4.3,9.5h0s0,0,0,0h0s0,0,0,0h0s0,0,0,0h0s0,0,0,0h0s0,0,0,0h0s0,0,0,0h0s0,0,0,0h0s0,0,0,0h0s0,0,0,0h0s0,0,0,0h0s0,0,0,0h0s0,0,0,0h0s0,0,0,0c0,0,0,0,0,0h0s0,0,0,0h0s0,0,0,0h0s0,0,0,0h0s0,0,0,0h0s0,0,0,0h0s0,0,0,0h0s0,0,0,0h0s0,0,0,0h0s0,0,0,0h0s0,0,0,0h0s0,0,0,0h0c0,.1,0,.2-.1.4l.9.3c1.2-3.7,2.8-7.4,4.7-10.8l-.9-.5h-.1ZM97.5,242.1c0,.5-.1,1.1-.2,1.6h0v.2h0v.2h0v.2h0v.2h0v.2h0v.2h0v.2h0c0,.2,0,.3,0,.4h0c0,1.1-.1,2.2-.2,3.3h0v.2h0v.2h0v.2h0v.2h0v.2h0v.2h0v.2h0v.2h0v.2h0v3.7h1v-3.6c0-2.7.2-5.5.5-8.2h-1c0-.1-.2,0-.2,0ZM98,266.1h-1v12h1v-12h0ZM98,290.1h-1v12h1v-12h0ZM98.4,314h-1c.5,4.1,1.3,8.1,2.5,11.8l.9-.3c-1.2-3.8-2-7.6-2.4-11.5h0ZM105.4,336.4l-.9.5c.2.4.5.9.7,1.3h0s0,0,0,0h0c.2.3.4.7.6,1h0s0,0,0,0h0s0,0,0,0h0s0,0,0,0h0s0,0,0,0h0s0,0,0,0h0s0,0,0,0h0s0,0,0,0h0s0,0,0,0h0s0,0,0,0h0s0,0,0,0h0s0,0,0,0h0s0,0,0,0h0s0,0,0,0h0c.1.2.2.4.4.6h0s0,0,0,0h0s0,0,0,0h0s0,0,0,0h0s0,0,0,0h0s0,0,0,0h0s0,0,0,0h0s0,0,0,0h0s0,0,0,0h0s0,0,0,0h0s0,0,0,0h0s0,0,0,0h0s0,0,0,0h0s0,0,0,0h0s0,0,0,0h0s0,0,0,0h0s0,0,0,0h0s0,0,0,0h0c0,.1.1.2.2.3h0s0,0,0,0h0s0,0,0,0h0s0,0,0,0h0s0,0,0,0h0s0,0,0,0h0s0,0,0,0h0s0,0,0,0h0s0,0,0,0h0s0,0,0,0h0s0,0,0,0h0s0,0,0,0h0s0,0,0,0h0s0,0,0,0h0s0,0,0,0h0s0,0,0,0h0s0,0,0,0h0s0,0,0,0h0s0,0,0,0h0s0,0,0,0h0s0,0,0,0h0c0,.1.2.3.3.4h0s0,0,0,0h0s0,0,0,0h0s0,0,0,0h0s0,0,0,0h0s0,0,0,0h0s0,0,0,0h0s0,0,0,0h0s0,0,0,0h0s0,0,0,0h0s0,0,0,0h0s0,0,0,0h0s0,0,0,0h0s0,0,0,0h0s0,0,0,0h0s0,0,0,0h0s0,0,0,0h0s0,0,0,0h0s0,0,0,0h0s0,0,0,0h0s0,0,0,0h0c0,0,.1.1.2.2h0s0,0,0,0h0s0,0,0,0h0s0,0,0,0h0s0,0,0,0h0s0,0,0,0h0s0,0,0,0h0s0,0,0,0h0s0,0,0,0h0s0,0,0,0h0s0,0,0,0c0,0,0,0,0,0,0,0,0,0,0,0,0,0,0,0,0,0,0,0,0,0,0,0,0,0,0,0,0,0,0,0,0,0,0,0,0,0,0,0,0,0,0,0,0,0,0,0,0,0,0,0,0,0,0,0,0,0,0,0,0,0,0,0,0,0,0,0,0,0,0,0,0,0,0,0,0,0,0,0,0,0,0,0,0,0,0,0,0,0,0,0,0,0,0,0,0,0,0,0,0,0,0,0,0,0,0,0,0,0,0,0,0,0,0,0,0,0,0,0,0,0,0,0,0,0,0,0,0,0,0,0,0,0,0,0,0,0,0,0,0,0,0,0,0,0,0,0,0,0,0,0,0,0,0,0,0,0,0,0,0,0h0s0,0,0,0h0s0,0,0,.1h0s0,0,0,0h0s0,0,0,0h0s0,0,0,0h0s0,0,0,0h0s0,0,0,0h0s0,0,0,0h0s0,0,0,0h0s0,0,0,0h0s0,0,0,0h0s0,0,0,0h0s0,0,0,0h0s0,0,0,0h0s0,0,0,0h0s0,0,0,0h0s0,0,0,0h0s0,0,0,0h0s0,0,0,0h0s0,0,0,0h0s0,0,0,0h0s0,0,0,0h0s0,0,0,0h0c.3.5.7.9,1.1,1.4l.8-.6c-2.5-3.1-4.7-6.4-6.5-9.8h0l.6.4ZM120.2,354.7l-.7.8c.1,0,.2.2.3.3h0s0,0,0,0h0s0,0,0,0h0s0,0,0,0h0s0,0,0,0c0,0,0,0,0,0,0,0,0,0,0,0,0,0,0,0,0,0,0,0,0,0,0,0,0,0,0,0,0,0,0,0,0,0,0,0,0,0,0,0,0,0,0,0,0,0,0,0,0,0,0,0,0,0,0,0,0,0,0,0,0,0,0,0,0,0h0s0,0,0,0c0,0,0,0,0,0,0,0,0,0,0,0,0,0,0,0,0,0,0,0,0,0,0,0h0s0,0,0,0h0s0,0,0,0h0s0,0,0,0h0s0,0,0,0h0s0,0,0,0h0s0,0,0,0h0s0,0,0,0h0c.2.2.5.4.7.6h0s0,0,0,0h0c2.5,2,5.2,3.8,8,5.4l.5-.9c-3.4-2-6.6-4.3-9.6-6.8h0ZM140.5,366.5l-.3.9c3.7,1.3,7.6,2.3,11.6,2.9v-1c-3.7-.6-7.6-1.5-11.3-2.8h0ZM175.8,370h-12v1h12v-1h0ZM199.8,370h-12v1h12v-1h0ZM223.8,370h-12v1h12v-1h0ZM247.8,370h-12v1h12v-1h0ZM271.8,370h-12v1h12v-1h0ZM295.8,370h-12v1h12v-1h0ZM319.8,370h-12v1h12v-1h0ZM343.8,370h-12v1h12v-1h0ZM367.8,370h-12v1h12v-1h0ZM391.8,370h-12v1h12v-1h0ZM415.8,370h-12v1h12v-1h0ZM439.8,370h-12v1h12v-1h0ZM463.8,370h-12v1h12v-1h0ZM487.8,370h-12v1h12v-1h0ZM511.5,369c-3.6.6-7.3,1-11,1h-.8v1h4.8c0,0,.1,0,.2,0h0c0,0,.1,0,.2,0h0c0,0,.1,0,.2,0h0c0,0,.2,0,.2,0h0c2-.2,3.9-.4,5.8-.7l-.2-1h0l.2-.2ZM533.5,360.8c-3.4,2-6.9,3.8-10.6,5.2l.3.9c3.4-1.3,6.6-2.8,9.7-4.6h0s0,0,0,0h0s0,0,0,0h0s0,0,0,0h0s0,0,0,0h0s0,0,0,0h0s0,0,0,0h0s0,0,0,0c0,0,0,0,0,0,0,0,0,0,0,0,0,0,0,0,0,0,0,0,0,0,0,0,0,0,0,0,0,0,0,0,0,0,0,0,0,0,0,0,0,0,0,0,0,0,0,0,0,0,0,0,0,0,0,0,0,0,0,0,0,0,0,0,0,0h0s0,0,0,0h0s0,0,0,0h0s0,0,0,0h0s0,0,0,0h0c.1,0,.3-.2.4-.2l-.5-.9h0ZM551,345c-2.4,3.1-5.1,6-8,8.7l.7.7c.3-.3.7-.6,1-.9h0s0,0,0,0h0s0,0,0,0h0s0,0,0,0h0s0,0,0,0h0s0,0,0,0h0s0,0,0,0h0s0,0,0,0h0s0,0,0,0h0s0,0,0,0h0s0,0,0,0h0s0,0,0,0h0s0,0,0,0h0s0,0,0,0h0s0,0,0,0h0s0,0,0,0h0s0,0,0,0h0s0,0,0,0h0c0,0,.1-.1.2-.2h0s0,0,0,0h0s0,0,0,0h0s0,0,0,0h0s0,0,0,0h0s0,0,0,0h0s0,0,0,0h0s0,0,0,0h0s0,0,0,0c0,0,0,0,0,0,0,0,0,0,0,0,0,0,0,0,0,0,0,0,0,0,0,0,0,0,0,0,0,0,0,0,0,0,0,0,0,0,0,0,0,0,0,0,0,0,0,0,0,0,0,0,0,0,0,0,0,0,0,0,0,0,0,0,0,0,0,0,0,0,0,0,0,0,0,0,0,0,0,0,0,0,0,0,0,0,0,0,0,0s0,0,0,0c0,0,0,0,0,0,0,0,0,0,0,0,0,0,0,0,0,0h0s0,0,0,0c0,0,0,0,0,0,0,0,0,0,0,0h0s0,0,0,0h0s0,0,0,0h0s0,0,0,0h0s0,0,0,0h0s0,0,0,0h0s0,0,0,0h0s0,0,0,0h0s0,0,0,0h0s0,0,0,0h0s0,0,.1-.1h0s0,0,0,0h0s0,0,0,0h0s0,0,0,0h0s0,0,0,0h0s0,0,0,0h0s0,0,0,0c0,0,0,0,0,0h0s0,0,0,0h0s0,0,0,0h0s0,0,0,0h0s0,0,0,0c0,0,0,0,0,0,0,0,0,0,0,0h0s0,0,0,0h0s0,0,0,0h0s0,0,0,0h0s0,0,0,0h0s0,0,0,0h0s0,0,0,0c0,0,0,0,0,0,0,0,0,0,0,0,0,0,0,0,0,0,0,0,0,0,0,0h0s0,0,0,0h0s0,0,0,0c0,0,0,0,0,0h0s0,0,0,0c0,0,0,0,0,0h0s0,0,0,0c0,0,0,0,0,0,0,0,0,0,0,0,0,0,0,0,0,0h0s0,0,0,0h0s0,0,0,0c0,0,0,0,0,0,0,0,0,0,0,0,0,0,0,0,0,0,0,0,0,0,0,0,0,0,0,0,0,0,0,0,0,0,0,0,0,0,0,0,0,0,0,0,0,0,0,0h0s0,0,0,0h0s0,0,0,0c0,0,0,0,0,0,0,0,0,0,0,0,0,0,0,0,0,0,0,0,0,0,0,0h0s0,0,0,0h0s0,0,0,0h0s0,0,0,0h0s0,0,0,0h0s0,0,0,0h0s0,0,0,0h0s0,0,0,0h0s0,0,0,0h0s0,0,0,0h0s0,0,0,0h0s0,0,0,0h0s0,0,0,0h0s0,0,0,0h0s0,0,0,0h0s0,0,0,0h0s0,0,0,0h0s0,0,0,0h0s0,0,0,0h0s0,0,0,0h0c.1-.1.3-.3.4-.4h0s0,0,0,0h0c1-1.2,2-2.4,2.9-3.6l-.8-.6h0l.3-.2ZM561.5,324.1c-1.1,3.8-2.5,7.5-4.3,11l.9.5c.2-.3.3-.7.5-1h0s0,0,0,0h0s0,0,0,0h0s0,0,0,0h0s0,0,0,0h0s0,0,0,0h0s0,0,0,0h0c0-.1.1-.2.2-.3h0s0,0,0,0h0s0,0,0,0h0s0,0,0,0h0s0,0,0,0h0s0,0,0,0h0s0,0,0,0h0s0,0,0,0h0s0,0,0,0h0s0,0,0,0h0s0,0,0,0h0s0,0,0,0h0s0,0,0,0h0s0,0,0,0h0s0,0,0,0h0s0,0,0,0h0s0-.1,0-.2h0s0,0,0,0h0s0,0,0,0h0s0,0,0,0h0s0,0,0,0h0s0,0,0,0,0,0,0,0c0,0,0,0,0,0h0s0,0,0,0c0,0,0,0,0,0h0s0,0,0,0c0,0,0,0,0,0h0s0,0,0,0h0s0,0,0,0h0c0,0,0,0,0,0h0s0,0,0,0h0s0,0,0,0h0s0,0,0,0c0,0,0,0,0,0h0s0,0,0,0h0s0,0,0,0h0s0,0,0,0h0s0,0,0,0h0s0,0,0,0h0s0,0,0,0h0s0,0,0,0h0s0,0,0,0h0s0,0,0,0h0v-.2h0c0-.1,0-.2,0-.2h0s0,0,0,0h0s0,0,0,0h0s0,0,0,0h0s0,0,0,0h0s0,0,0,0h0v-.2h0v-.2h0v-.2h0v-.2s0,0,0,0h0s0,0,0,0h0s0,0,0,0h0s0,0,0,0h0s0,0,0,0h0s0,0,0,0h0s0,0,0,0h0s0,0,0,0h0s0,0,0,0h0s0,0,0,0h0c0,0,0-.1,0-.1h0s0,0,0,0h0s0,0,0,0h0s0,0,0,0h0s0,0,0,0h0s0,0,0,0h0s0,0,0,0h0s0,0,0,0h0s0,0,0,0h0s0,0,0,0h0c0,0,0-.2,0-.3h0s0,0,0,0h0s0,0,0,0h0s0,0,0,0h0s0,0,0,0h0s0,0,0,0h0s0,0,0,0h0s0,0,0,0h0s0,0,0,0h0s0,0,0,0h0s0,0,0,0h0s0,0,0,0h0c.5-1.5,1-3,1.5-4.5l-1-.3h0l1-.2ZM565,300.6h-1v6c0,2,0,4-.3,5.9h1c0-.5,0-1.1.1-1.7h0v-.2h0v-.2h0v-.2h0v-.2h0v-.2h0v-.2h0v-.2h0c0-.2,0-.3,0-.3h0v-.2h0v-.4h0v-.2h0v-.3h0v-.2h0v-.2h0v-.2h0v-.2h0v-.2h0v-.2h0v-.2h0v-.2h0v-.2h0v-6h0v-.2ZM565,276.6h-1v12h1v-12h0ZM565,252.6h-1v12h1v-12h0ZM561.3,229l-.9.3c1.3,3.7,2.3,7.6,2.9,11.4h1c-.4-2.7-1-5.3-1.6-7.8h0c0-.1,0-.2-.1-.4h0s0,0,0,0h0s0,0,0,0h0s0,0,0,0h0v-.2h0v-.2h0c0-.2,0-.3,0-.4h0s0,0,0,0h0c-.3-.9-.6-1.8-.9-2.7h-.1ZM549.4,208.4l-.8.6c2.6,3,4.9,6.2,6.8,9.6l.9-.5c-.1-.2-.2-.4-.4-.6h0s0,0,0,0h0s0,0,0,0h0s0,0,0,0h0s0,0,0,0h0s0,0,0,0h0s0,0,0,0h0s0,0,0,0h0s0,0,0,0h0s0,0,0,0h0s0,0,0,0h0s0,0,0,0h0s0,0,0,0h0c0,0,0-.1-.1-.2h0s0,0,0,0h0s0,0,0,0c0,0,0,0,0,0,0,0,0,0,0,0,0,0,0,0,0,0,0,0,0,0,0,0,0,0,0,0,0,0,0,0,0,0,0,0,0,0,0,0,0,0,0,0,0,0,0,0,0,0,0,0,0,0h0s0,0,0,0h0s0,0,0,0h0s0,0,0,0h0s0,0,0,0h0s0,0,0,0h0s0,0,0,0h0s0,0,0,0h0s0,0,0,0h0s0,0,0,0h0s0,0,0,0h0s0,0,0,0h0s0,0,0,0h0s0,0,0,0h0c-1.7-2.7-3.6-5.2-5.7-7.6h-.1ZM530.7,193.5l-.5.9c3.5,1.8,6.8,4,9.9,6.5l.6-.8c-.8-.6-1.6-1.2-2.4-1.8h0s0,0,0,0h0s0,0,0,0h0s0,0,0,0h0s0,0,0,0h0s0,0,0,0h0s0,0,0,0h0s0,0,0,0h0s0,0,0,0h0s0,0,0,0h0s0,0,0,0c0,0,0,0,0,0,0,0,0,0,0,0,0,0,0,0,0,0,0,0,0,0,0,0,0,0,0,0,0,0,0,0,0,0,0,0,0,0,0,0,0,0,0,0,0,0,0,0,0,0,0,0,0,0,0,0,0,0,0,0,0,0,0,0,0,0,0,0,0,0,0,0,0,0,0,0,0,0,0,0,0,0,0,0,0,0,0,0,0,0h0s0,0-.1-.1h0s0,0,0,0h0s0,0,0,0h0s0,0,0,0h0s0,0,0,0t0,0s0,0,0,0h0s0,0,0,0h0s0,0,0,0h0s0,0,0,0h0s0,0,0,0h0s0,0,0,0h0s0,0,0,0h0s0,0,0,0h0s0,0,0,0h0s0,0,0,0h0c-2-1.4-4.1-2.6-6.3-3.8h0v-.2ZM507.9,186.4v1c3.8.4,7.7,1.3,11.4,2.4l.3-1h0s0,0,0,0h0s0,0,0,0h0s0,0,0,0h0s0,0,0,0h0c0,0-.1,0-.2,0h0s0,0,0,0h0s0,0,0,0h0s0,0,0,0h-.4s0,0,0,0h0s0,0,0,0h0s0,0,0,0h-.2s0,0,0,0h-.3s-.1,0-.2,0h-.4s0,0,0,0h0c-.1,0-.2,0-.3,0h0s0,0,0,0h0s0,0,0,0h0s0,0,0,0h0s0,0,0,0h0s0,0,0,0h0c-2.9-.8-5.9-1.3-9-1.7h0v-.4Z"/>
      <path class="cls-17" d="M236,161h156c13.8,0,25,11.2,25,25h0c0,13.8-11.2,25-25,25h-156c-13.8,0-25-11.2-25-25h0c0-13.8,11.2-25,25-25Z"/>
      <rect class="cls-17" x="608.6" y="186.2" width="468" height="185" rx="64.5" ry="64.5"/>
      <path class="cls-3" d="M1012.2,186.2h-12v1h12v-1h0ZM988.2,186.2h-12v1h12v-1h0ZM964.2,186.2h-12v1h12v-1h0ZM940.2,186.2h-12v1h12v-1h0ZM916.2,186.2h-12v1h12v-1h0ZM892.2,186.2h-12v1h12v-1h0ZM868.2,186.2h-12v1h12v-1h0ZM844.2,186.2h-12v1h12v-1h0ZM820.2,186.2h-12v1h12v-1h0ZM796.2,186.2h-12v1h12v-1h0ZM772.2,186.2h-12v1h12v-1h0ZM748.2,186.2h-12v1h12v-1h0ZM724.2,186.2h-12v1h12v-1h0ZM700.2,186.2h-12v1h12v-1h0ZM676.2,186.2h-9c-.9,0-1.7.2-2.5.3v1c3-.4,6-.6,8.9-.6h3.1v-1h0l-.4.3ZM652.5,189.6h0s0,0,0,0h0s0,0,0,0h0s0,0,0,0h0s0,0,0,0h0c-1.2.4-2.5.9-3.7,1.4h0s0,0,0,0h0s0,0,0,0h0s0,0,0,0h0s0,0,0,0h0s0,0,0,0h0s0,0,0,0h0s0,0,0,0h0c-.1,0-.2.1-.4.1h0s0,0,0,0h0s0,0,0,0h0s0,0,0,0h0s0,0,0,0h0s0,0,0,0c0,0,0,0,0,0h0s0,0,0,0h0s0,0,0,0h0s0,0,0,0h0s0,0,0,0h0s0,0,0,0h0s0,0,0,0h0s0,0,0,0h0s0,0,0,0h0s0,0,0,0h0s0,0,0,0h0s0,0,0,0h0s0,0,0,0h0s0,0,0,0h0s0,0,0,0h0s0,0,0,0h0s0,0,0,0h0s0,0,0,0h0s0,0,0,0h0s0,0,0,0h0s0,0,0,0h0s0,0,0,0h0s0,0,0,0h0s0,0,0,0h0s0,0,0,0h0s0,0,0,0h0s0,0,0,0h0s0,0,0,0h0s0,0,0,0h0s0,0,0,0h0s0,0,0,0h0c-.1,0-.3.1-.4.2h0s0,0,0,0h0s0,0,0,0h0s0,0,0,0h0s0,0,0,0h0s0,0,0,0h0s0,0,0,0h0s0,0,0,0h0s0,0,0,0h0c-1.2.6-2.3,1.2-3.5,1.8h0s0,0,0,0h0s0,0,0,0h0s0,0,0,0h0s0,0,0,0h0s0,0,0,0h0s0,0,0,0h0s0,0,0,0h0s0,0,0,0h0s0,0,0,0h0s0,0,0,0h0l.5.9c3.4-1.9,7.1-3.5,10.8-4.8l-.3-.9h0v.4ZM631.7,201.3c-3.1,2.6-5.9,5.4-8.4,8.5l.8.6c2.5-3,5.3-5.9,8.3-8.4l-.6-.8h0ZM616.6,219.7c0,.2-.2.4-.3.5h0s0,0,0,0h0s0,0,0,0h0s0,0,0,0h0s0,0,0,0h0s0,0,0,0h0s0,0,0,0h0s0,0,0,0h0s0,0,0,0c0,0,0,0,0,0,0,0,0,0,0,0,0,0,0,0,0,0h0s0,0,0,0h0s0,0,0,0h0s0,0,0,0h0s0,0,0,0h0s0,0,0,0h0c0,.1-.1.3-.2.4h0s0,0,0,0h0s0,0,0,0h0s0,0,0,0h0s0,0,0,0h0c-.5.9-.9,1.9-1.3,2.8h0s0,0,0,0h0s0,0,0,0h0c0,.2-.2.4-.2.6h0s0,0,0,0h0s0,0,0,0h0s0,0,0,0h0s0,0,0,0h0s0,0,0,0h0s0,0,0,0h0s0,0,0,0h0s0,0,0,0h0s0,0,0,0h0s0,0,0,0h0s0,0,0,0h0s0,0,0,0h0s0,0,0,0h0s0,0,0,0h0s0,0,0,0h0s0,0,0,0h0c0,0,0,.1,0,.2h0s0,0,0,0h0c0,.1,0,.1,0,.1h0c0,0,0,.1,0,.1h0s0,0,0,0h0s0,0,0,0h0s0,0,0,0h0s0,0,0,0h0s0,0,0,0h0s0,0,0,0h0s0,0,0,0h0s0,0,0,0h0s0,0,0,0h0s0,0,0,0h0s0,0,0,0h0s0,0,0,0h0c0,0,0,.1,0,.2h0s0,0,0,0h0s0,0,0,0h0s0,0,0,0h0s0,0,0,0h0s0,0,0,0h0s0,0,0,0h0s0,0,0,0h0s0,0,0,0h0s0,0,0,0h0s0,0,0,0h0s0,0,0,0h0s0,0,0,0h0s0,0,0,0h0c0,.2-.2.4-.2.6h0s0,0,0,0h0s0,0,0,0h0s0,0,0,0h0s0,0,0,0h0s0,0,0,0h0s0,0,0,0h0s0,0,0,0h0s0,0,0,0h0c0,.2-.2.4-.2.6h0s0,0,0,0h0s0,0,0,0h0s0,0,0,0h0s0,0,0,0h0s0,0,0,0h0s0,0,0,0h0s0,0,0,0h0s0,0,0,0h0s0,0,0,0h0s0,0,0,0h0s0,0,0,0h0c0,0,0,.2,0,.3h0s0,0,0,0h0s0,0,0,0h0s0,0,0,0h0v.2h0v.2h0c0,0,0,0,0,.1h0c0,0,0,0,0,0h0s0,0,0,0h0s0,0,0,0h0s0,0,0,0h0s0,0,0,0l1,.3c1.2-3.7,2.8-7.4,4.7-10.8l-.9-.5h0l-.6.3ZM609.2,242.4l-.2,1.5h0v.2h0v.2h0v.2h0v.2h0v.2h0v.2h0c0,.2,0,.2,0,.2h0c0,1.3-.2,2.5-.2,3.7h0v.2h0v.2h0v.2h0v.2h0v.2h0v.2h0v.2h0v.2h0v.2h0v3.7h1v-3.6c0-2.7.2-5.5.5-8.2h-1c0-.1-.2,0-.2,0ZM609.6,266.4h-1v12h1v-12h0ZM609.6,290.4h-1v12h1v-12h0ZM610.1,314.2h-1c.5,4.1,1.3,8.1,2.5,11.8l1-.3c-1.2-3.8-2-7.6-2.5-11.5h0ZM617.1,336.6l-.9.5c.9,1.7,1.8,3.3,2.9,4.9h0s0,0,0,0h0s0,0,0,0h0s0,0,0,0h0s0,0,0,0h0s0,0,0,0h0s0,0,0,0h0s0,0,0,0h0s0,0,0,0h0c.1.2.2.4.4.5h0s0,0,0,0h0s0,0,0,0h0s0,0,0,0h0s0,0,0,0h0s0,0,0,0h0s0,0,0,0h0s0,0,0,0h0s0,0,0,0h0s0,0,0,0c0,0,0,0,0,0,0,0,0,0,0,0h0s0,0,0,0h0s0,0,0,0h0s0,0,0,0c0,0,0,0,0,0,0,0,0,0,0,0,0,0,0,0,0,0,0,0,0,0,0,0h0s0,0,0,0c0,0,0,0,0,0,0,0,0,0,0,0,0,0,0,0,0,0,0,0,0,0,0,0,0,0,0,0,0,0,0,0,0,0,0,0,0,0,0,0,0,0,0,0,0,0,0,0,0,0,0,0,0,0h0s0,0,0,0h0s0,0,0,0h0s0,0,0,0h0s0,0,0,0h0s0,0,0,0h0s0,0,0,0h0s0,0,0,0h0s0,0,0,0h0s0,0,0,0h0s0,0,0,0h0s0,0,0,0h0s0,0,0,0h0s0,0,0,0h0s0,0,0,0h0s0,0,0,0h0s0,0,0,0h0s0,0,0,0h0s0,0,0,0h0s0,0,0,0h0s0,0,0,0h0s0,0,0,0h0c.6.9,1.3,1.7,2,2.6l.8-.6c-2.5-3.1-4.7-6.4-6.5-9.8h.2ZM631.8,355l-.7.8c1.9,1.6,3.9,3.2,6,4.6h0s0,0,0,0h0s0,0,0,0h0s0,0,0,0h0s0,0,0,0h0s0,0,0,0h0s0,0,0,0c0,0,0,0,0,0,0,0,0,0,0,0,0,0,0,0,0,0,0,0,0,0,0,0,0,0,0,0,0,0h0s0,0,0,0c0,0,0,0,0,0,0,0,0,0,0,0,0,0,0,0,0,0,0,0,0,0,0,0,0,0,0,0,0,0,0,0,0,0,0,0,0,0,0,0,0,0,0,0,0,0,0,0,0,0,0,0,0,0,0,0,0,0,0,0,0,0,0,0,0,0,0,0,0,0,0,0,0,0,0,0,0,0,0,0,0,0,0,0h0s0,0,0,0h0s0,0,0,0h0s0,0,0,0h0s0,0,0,0h0c1,.6,1.9,1.2,2.9,1.8l.5-.9c-3.4-2-6.6-4.3-9.6-6.8h0ZM652.1,366.7l-.3.9c.8.3,1.5.5,2.3.8h0s0,0,0,0h0s0,0,0,0h0s0,0,0,0h0s0,0,0,0h0s0,0,0,0h0s0,0,0,0h0s0,0,0,0h0s0,0,0,0h0s0,0,0,0h0s0,0,0,0h.2s0,0,0,0h0s0,0,0,0h0s0,0,0,0h0s0,0,0,0h0s0,0,0,0h0c2.7.8,5.5,1.4,8.4,1.9l.2-1c-3.9-.6-7.7-1.5-11.5-2.8h0ZM687.4,370.2h-12v1h12v-1h0ZM711.4,370.2h-12v1h12v-1h0ZM735.4,370.2h-12v1h12v-1h0ZM759.4,370.2h-12v1h12v-1h0ZM783.4,370.2h-12v1h12v-1h0ZM807.4,370.2h-12v1h12v-1h0ZM831.4,370.2h-12v1h12v-1h0ZM855.4,370.2h-12v1h12v-1h0ZM879.4,370.2h-12v1h12v-1h0ZM903.4,370.2h-12v1h12v-1h0ZM927.4,370.2h-12v1h12v-1h0ZM951.4,370.2h-12v1h12v-1h0ZM975.4,370.2h-12v1h12v-1h0ZM999.4,370.2h-12v1h12v-1h0ZM1023.2,369.3c-3.6.6-7.3,1-11,1h-.8v1h7.9s0,0,0,0h.2s0,0,.1,0h.2s0,0,.1,0h.1c0,0,.1,0,.2,0h0c0,0,.2,0,.2,0h0c.8-.1,1.7-.2,2.5-.4l-.2-1h0l.2-.5ZM1045.2,361c-3.4,2-6.9,3.8-10.6,5.2l.3.9c1.2-.5,2.5-1,3.7-1.5h0s0,0,0,0h0s0,0,0,0h0s0,0,0,0h0s0,0,0,0h0s0,0,0,0h0s0,0,0,0h0s0,0,0,0h0s0,0,0,0h0s0,0,0,0h0s0,0,0,0h0s0,0,0,0h0s0,0,0,0h0s0,0,0,0h0s0,0,0,0h0s0,0,0,0h0s0,0,0,0h0s0,0,0,0h0s0,0,.1,0h0s0,0,0,0h0s0,0,0,0h0s0,0,0,0h0s0,0,0,0h0s0,0,0,0h0s0,0,0,0h0s0,0,0,0h0s0,0,0,0h0s0,0,0,0h0s0,0,0,0h0s0,0,0,0h0s0,0,0,0h0s0,0,0,0h0s0,0,0,0h0s0,0,0,0h0c1.9-.9,3.8-1.9,5.6-3l-.5-.9h0v-.2ZM1062.6,345.3c-2.4,3.1-5.1,6-8,8.7l.7.7c1.4-1.3,2.8-2.6,4.1-4h0s0,0,0,0h0s0,0,0,0h0s0,0,0,0h0s0,0,0,0h0s0,0,0,0h0s0,0,0,0h0s0,0,0,0h0s0,0,0,0h0s0,0,0,0h0s0,0,0,0h0s0,0,0,0h0s0,0,0,0c0,0,0,0,0,0h0s0,0,0,0c0,0,0,0,0,0h0s0,0,0,0c0,0,0,0,0,0,0,0,0,0,0,0,0,0,0,0,0,0,0,0,0,0,0,0,0,0,0,0,0,0,0,0,0,0,0,0,0,0,0,0,0,0,0,0,0,0,0,0,0,0,0,0,0,0,0,0,0,0,0,0h0s0,0,0,0h0s0,0,0,0h0s0,0,0,0c0,0,0,0,0,0h0s0,0,0,0c0,0,0,0,0,0,0,0,0,0,0,0h0s0,0,0,0h0s0,0,0,0c0,0,0,0,0,0,0,0,0,0,0,0,0,0,0,0,0,0,0,0,0,0,0,0h0s0,0,0,0h0s0,0,0,0h0s0,0,0,0h0s0,0,0,0h0s0,0,0,0h0s0,0,0,0c0,0,0,0,0,0,0,0,0,0,0,0h0s0,0,0,0h0s0,0,0,0h0s0,0,0,0h0s0,0,0,0h0s0,0,0,0h0s0,0,0,0h0s0,0,0,0h0s0,0,0,0h0s0,0,0,0h0s0,0,0,0h0s0,0,0,0h0s0,0,0,0h0s0,0,0,0h0s0,0,0,0h0s0,0,0,0h0c0-.1.2-.2.3-.4h0s0,0,0,0h0s0,0,0,0h0s0,0,0,0h0s0,0,0,0h0s0,0,0,0h0s0,0,0,0h0s0,0,0,0h0s0,0,0,0h0s0,0,0,0h0s0,0,0,0h0s0,0,0,0h0s0,0,0,0h0s0,0,0,0h0s0,0,0,0h0s0,0,0,0h0s0,0,0,0h0s0,0,0,0h0s0,0,0,0h0s0,0,0,0h0s0,0,0,0h0s0,0,0,0h0s0,0,0,0h0s0,0,0,0h0s0,0,0,0h0s0,0,0,0h0s0,0,0,0h0s0,0,0,0c0,0,0,0,0,0,0,0,0,0,0,0h0s0,0,0,0c0,0,0,0,0,0,0,0,0,0,0,0,0,0,0,0,0,0h0s0,0,0,0h0s0,0,0,0h0s0,0,0,0h0s0,0,0,0h0s0,0,0,0h0s0,0,0,0h0s0,0,0,0h0s0,0,0,0h0s0,0,0,0h0s0,0,0,0h0s0,0,0,0h0s0,0,0,0h0s0,0,0,0h0s0,0,0,0h0s0,0,0,0h0c.2-.3.4-.5.6-.8l-.8-.6h0l.5-.3ZM1073.2,324.3c-1.1,3.8-2.5,7.5-4.3,11l.9.5c1.1-2.1,2-4.3,2.8-6.5h0c0-.2.2-.5.3-.7h0s0,0,0,0h0s0,0,0,0h0s0,0,0,0h0s0,0,0,0h0s0,0,0,0h0s0,0,0,0h0s0,0,0,0h0s0,0,0,0h0v-.2h0v-.2s0,0,0,0h0s0,0,0,0h0s0,0,0,0h0s0,0,0,0h0s0,0,0,0h0s0,0,0,0h0s0,0,0,0h0s0,0,0,0h0s0,0,0,0h0s0,0,0,0h0s0,0,0,0h0s0,0,0,0h0s0,0,0,0h0s0,0,0,0c0,0,0,0,0,0h0c.3-.9.5-1.7.8-2.6l-1-.3h.2ZM1076.6,300.8h-1v6c0,2,0,4-.3,5.9h1c.1-1.2.2-2.6.2-4h0v-.5h0v-.2h0v-.3h0v-.2h0v-.2h0v-.2h0v-.2h0v-.2h0v-.2h0v-6h0ZM1076.6,276.8h-1v12h1v-12h0ZM1076.6,252.8h-1v12h1v-12h0ZM1073,229.2l-.9.3c1.3,3.7,2.3,7.6,2.9,11.4h1c-.3-2.4-.8-4.6-1.4-6.8h0s0,0,0,0h0s0,0,0,0h0s0,0,0,0h0c0,0,0-.1,0-.1h0s0,0,0,0h0s0,0,0,0h0c0,0,0-.2,0-.3h0v-.2h0v-.2h0v-.2h0v-.2s0,0,0,0h0v-.2h0v-.2h0c0-.1,0-.2,0-.2h0s0,0,0,0h0s0,0,0,0h0s0,0,0,0h0c0-.1,0-.2,0-.3h0s0,0,0,0h0s0,0,0,0h0s0,0,0,0h0c-.3-.9-.6-1.7-.8-2.6h-.4ZM1061,208.6l-.8.6c2.6,3,4.9,6.2,6.8,9.6l.9-.5c-1.9-3.4-4.2-6.5-6.7-9.5h0s0,0,0,0c0,0,0,0,0,0,0,0,0,0,0,0,0,0,0,0,0,0,0,0,0,0,0,0,0,0,0,0,0,0h0s0,0,0,0h0s0,0,0,0h0s0,0,0,0h0s0,0,0,0h0s0,0,0,0h0ZM1042.3,193.7l-.5.9c3.5,1.8,6.8,4,9.9,6.5l.6-.8c-.8-.7-1.7-1.3-2.5-1.9h0s0,0,0,0h0s0,0,0,0h0s0,0,0,0h0s0,0,0,0h0s0,0,0,0h0s0,0,0,0h0s0,0,0,0h0s0,0,0,0h0s0,0,0,0h0s0,0,0,0h0s0,0,0,0h0c-.1,0-.2-.1-.3-.2h0s0,0,0,0h0s0,0,0,0h0s0,0,0,0h0s0,0,0,0h0s0,0,0,0h0s0,0,0,0c0,0,0,0,0,0,0,0,0,0,0,0h0s0,0,0,0h0s0,0,0,0h0s0,0,0,0h0s0,0,0,0c0,0,0,0,0,0,0,0,0,0,0,0,0,0,0,0,0,0,0,0,0,0,0,0,0,0,0,0,0,0,0,0,0,0,0,0,0,0,0,0,0,0,0,0,0,0,0,0,0,0,0,0,0,0,0,0,0,0,0,0,0,0,0,0,0,0,0,0,0,0,0,0,0,0,0,0,0,0,0,0,0,0,0,0,0,0,0,0,0,0,0,0,0,0,0,0,0,0,0,0,0,0h0s0,0,0,0h0s0,0,0,0h0s0,0,0,0h0s0,0,0,0h0c0,0-.1,0-.2-.1h0s0,0,0,0h0s0,0,0,0h0s0,0,0,0h0s0,0,0,0h0s0,0,0,0h0s0,0,0,0h0s0,0,0,0h0s0,0,0,0h0s0,0,0,0h0s0,0,0,0h0s0,0,0,0h0s0,0,0,0h0s0,0,0,0h0s0,0,0,0h0s0,0,0,0h0s0,0,0,0h0s0,0,0,0h0s0,0,0,0h0s0,0,0,0h0s0,0,0,0h0c-.2-.1-.4-.2-.6-.4h0s0,0,0,0h0s0,0,0,0h0s0,0,0,0h0s0,0,0,0h0s0,0,0,0h0s0,0,0,0h0s0,0,0,0h0s0,0,0,0h0s0,0,0,0h0s0,0,0,0h0c-.3-.2-.5-.3-.8-.5h0s0,0,0,0h0s0,0,0,0h0s0,0,0,0h0s0,0,0,0h0s0,0,0,0h0s0,0,0,0h0s0,0,0,0h0s0,0,0,0h0s0,0,0,0h0s0,0,0,0h0c-.2-.1-.4-.2-.6-.4h0s0,0,0,0h0s0,0,0,0h0s0,0,0,0h0s0,0,0,0h0s0,0,0,0h0s0,0,0,0h0s0,0,0,0h0s0,0,0,0h0s0,0,0,0h0s0,0,0,0h0s0,0,0,0h0s0,0,0,0h0s0,0,0,0h0s0,0,0,0h0s0,0,0,0h0s0,0,0,0h0s0,0,0,0h0s0,0,0,0h0s0,0,0,0h0s0,0,0,0h0s0,0,0,0h0c0,0,0,0-.2,0h0s0,0,0,0h0s0,0,0,0h0s0,0,0,0h0s0,0,0,0h0s0,0,0,0h0s0,0,0,0c0,0,0,0,0,0,0,0,0,0,0,0,0,0,0,0,0,0,0,0,0,0,0,0,0,0,0,0,0,0,0,0,0,0,0,0,0,0,0,0,0,0,0,0,0,0,0,0,0,0,0,0,0,0,0,0,0,0,0,0,0,0,0,0,0,0h0s0,0,0,0h0s0,0,0,0h0s0,0,0,0h0s0,0,0,0h0s0,0,0,0h0s0,0,0,0h0s0,0,0,0h0s0,0,0,0h0s0,0,0,0h0s0,0-.1,0h0l-.2-.5ZM1019.5,186.7v1c3.8.4,7.7,1.3,11.4,2.4l.3-1c-.4-.1-.8-.2-1.2-.3h0s0,0,0,0h-.2s0,0,0,0h-.1s0,0,0,0h0c0,0-.2,0-.2,0h0s0,0,0,0h0c-3.2-.9-6.5-1.5-9.8-1.9h0Z"/>
      <path class="cls-17" d="M754,161h156c13.8,0,25,11.2,25,25h0c0,13.8-11.2,25-25,25h-156c-13.8,0-25-11.2-25-25h0c0-13.8,11.2-25,25-25Z"/>
      <circle class="cls-16" cx="155.1" cy="273" r="25"/>
      <circle class="cls-16" cx="224.6" cy="273" r="25"/>
      <circle class="cls-16" cx="293.2" cy="273" r="25"/>
      <circle class="cls-16" cx="362.2" cy="273" r="25"/>
      <circle class="cls-16" cx="431.2" cy="273" r="25"/>
      <circle class="cls-16" cx="192.7" cy="332" r="25"/>
      <circle class="cls-16" cx="262.5" cy="332" r="25"/>
      <circle class="cls-16" cx="330.7" cy="332" r="25"/>
      <circle class="cls-16" cx="400.2" cy="332" r="25"/>
      <circle class="cls-4" cx="469" cy="332" r="25"/>
      <circle class="cls-3" cx="667.7" cy="298" r="25"/>
      <circle class="cls-3" cx="739.1" cy="298" r="25"/>
      <circle class="cls-3" cx="807.1" cy="298" r="25"/>
      <circle class="cls-3" cx="877.1" cy="298" r="25"/>
      <circle class="cls-3" cx="946.6" cy="298" r="25"/>
      <rect class="cls-17" x="43.5" y="494.5" width="507" height="460" rx="63" ry="63"/>
      <path class="cls-18" d="M487.5,496c33.9,0,61.5,27.6,61.5,61.5v334.1c0,33.9-27.6,61.5-61.5,61.5H106.5c-33.9,0-61.5-27.6-61.5-61.5v-334.1c0-33.9,27.6-61.5,61.5-61.5h381.1M487.5,493H106.5c-35.6,0-64.5,28.9-64.5,64.5v334.1c0,35.6,28.9,64.5,64.5,64.5h381.1c35.6,0,64.5-28.9,64.5-64.5v-334.1c0-35.6-28.9-64.5-64.5-64.5h0Z"/>
      <path class="cls-17" d="M511,0h116c13.8,0,25,11.2,25,25h0c0,13.8-11.2,25-25,25h-116c-13.8,0-25-11.2-25-25h0c0-13.8,11.2-25,25-25Z"/>
      <path class="cls-17" d="M215,483h136c8.3,0,15,6.7,15,15h0c0,8.3-6.7,15-15,15h-136c-8.3,0-15-6.7-15-15h0c0-8.3,6.7-15,15-15Z"/>
      <rect class="cls-6" x="92.5" y="581" width="100" height="351.5"/>
      <rect class="cls-6" x="250.2" y="581" width="100" height="351.5"/>
      <rect class="cls-6" x="408" y="581" width="100" height="351.5"/>
      <path class="cls-17" d="M123,632.5h348c33.1,0,60,26.9,60,60h0c0,33.1-26.9,60-60,60H123c-33.1,0-60-26.9-60-60h0c0-33.1,26.9-60,60-60Z"/>
      <path class="cls-18" d="M471,632.5h-12v1h12v-1h0ZM447,632.5h-12v1h12v-1h0ZM423,632.5h-12v1h12v-1h0ZM399,632.5h-12v1h12v-1h0ZM375,632.5h-12v1h12v-1h0ZM351,632.5h-12v1h12v-1h0ZM327,632.5h-12v1h12v-1h0ZM303,632.5h-12v1h12v-1h0ZM279,632.5h-12v1h12v-1h0ZM255,632.5h-12v1h12v-1h0ZM231,632.5h-12v1h12v-1h0ZM207,632.5h-12v1h12v-1h0ZM183,632.5h-12v1h12v-1h0ZM159,632.5h-12v1h12v-1h0ZM135,632.5h-12v1h12v-1h0ZM111.1,633.6c-1,.2-1.9.4-2.9.7h0s0,0,0,0h0s0,0,0,0h-.5s0,0,0,0h-.7s0,0,0,0h0s0,0,0,0h0s0,0,0,0h0s0,0,0,0h0c-2.4.7-4.7,1.5-7,2.5l.4.9c3.6-1.5,7.4-2.7,11.2-3.5l-.2-1h0v.3ZM89.1,642.9c-1.4.9-2.7,2-4,3h0s0,0,0,0h0s0,0,0,0h0s0,0,0,0h0s0,0,0,0h0s0,0,0,0h0s0,0,0,0h0s0,0,0,0h0s0,0,0,0h0s0,0,0,0h0s0,0,0,0h0s0,0,0,0h0s0,0,0,0h0s0,0,0,0h0s0,0,0,0h0s0,0,0,0c0,0,0,0,0,0,0,0,0,0,0,0,0,0,0,0,0,0,0,0,0,0,0,0h0s0,0,0,0c0,0,0,0,0,0,0,0,0,0,0,0,0,0,0,0,0,0h0s0,0,0,0h0s0,0,0,0h0s0,0,0,0h0s0,0,0,0h0s0,0,0,0h0s0,0,0,0h0s0,0,0,0h0s0,0,0,0h0s0,0,0,0h0s0,0,0,0h0s0,0,0,0h0s0,0,0,0h0s0,0,0,0h0s0,0,0,0h0s0,0,0,0h0s0,0,0,0h0s0,0,0,0h0c-1.3,1.2-2.6,2.4-3.8,3.6l.7.7c2.7-2.8,5.8-5.4,9-7.6l-.6-.8h-.2ZM72.5,660c-1.3,2-2.4,4-3.5,6.2h0s0,0,0,0h0s0,0,0,0h0s0,0,0,0h0s0,0,0,0h0s0,0,0,0h0s0,0,0,0h0s0,0,0,0h0s0,0,0,0h0s0,0,0,0h0s0,0,0,0h0c0,.1-.1.3-.2.4h0s0,0,0,0h0s0,0,0,0h0s0,0,0,0h0s0,0,0,0h0s0,0,0,0h0s0,0,0,0h0s0,0,0,0h0s0,0,0,0h0s0,0,0,0h0s0,0,0,0h0c0,0,0,0,0,0h0s0,0,0,0h0s0,0,0,0h0s0,0,0,0h0s0,0,0,0h0s0,0,0,0h0s0,0,0,0h0s0,0,0,0h0s0,0,0,0h0s0,0,0,0h0s0,0,0,0h0s0,0,0,0h0c-.4.9-.8,1.8-1.1,2.7l.9.4c1.4-3.7,3.2-7.2,5.3-10.5l-.8-.5h-.2ZM63.9,682.2c-.4,2.4-.7,4.8-.8,7.3h0v.2h0v.2h0v.2h0v.2h0v.2h0v.2h0v.2h0v.2h0v.2h0v.2h0v.2h0v.2h0v.2h0v.2h0v.2h0v.2h0v.2h0v.2h0v.2h0v.2h0c0,.3,0,.6,0,1h1c0-.6,0-1.2,0-1.7,0-3.4.3-6.8.8-10l-1-.2h0ZM65.5,705.9l-1,.2h0v.2h0v.2h0v.2h0s0,0,0,0h0c.5,2,1.1,3.9,1.7,5.8h0s0,0,0,0h0s0,0,0,0h0s0,0,0,0h0s0,0,0,0h0s0,0,0,0h0s0,0,0,0h0s0,0,0,0h0s0,0,0,0h0s0,0,0,0h0s0,0,0,0h0s0,0,0,0h0s0,0,0,0,0,0,0,0h0s0,0,0,0h0s0,0,0,0h0s0,0,0,0h0s0,0,0,0h0s0,0,0,0h0s0,0,0,0h0v.2h0v.2h0c0,.1,0,.1,0,.1h0s0,0,0,0h0s0,0,0,0h0s0,0,0,0h0s0,0,0,0h0c.5,1.2,1,2.4,1.5,3.6l.9-.4c-1.6-3.6-2.9-7.3-3.8-11.2h.4ZM75.3,727.2l-.8.6c2.4,3.2,5,6.2,8,8.9l.7-.7c-2.9-2.7-5.5-5.6-7.8-8.8h0ZM92.6,743l-.5.9c3.4,2,7,3.8,10.8,5.1l.3-.9c-3.7-1.3-7.3-3-10.6-5h0ZM114.7,750.9v1c1.8.3,3.8.5,5.9.5h5.9v-1h-3.5c-2.8,0-5.6-.2-8.3-.6h0ZM150.5,751.5h-12v1h12v-1h0ZM174.5,751.5h-12v1h12v-1h0ZM198.5,751.5h-12v1h12v-1h0ZM222.5,751.5h-12v1h12v-1h0ZM246.5,751.5h-12v1h12v-1h0ZM270.5,751.5h-12v1h12v-1h0ZM294.5,751.5h-12v1h12v-1h0ZM318.5,751.5h-12v1h12v-1h0ZM342.5,751.5h-12v1h12v-1h0ZM366.5,751.5h-12v1h12v-1h0ZM390.5,751.5h-12v1h12v-1h0ZM414.5,751.5h-12v1h12v-1h0ZM438.5,751.5h-12v1h12v-1h0ZM462.5,751.5h-12v1h12v-1h0ZM486.1,749.5c-3.8,1-7.7,1.6-11.6,1.8v1c4-.2,7.7-.8,11.4-1.7h0s0,0,0,0h0s0,0,0,0h.4l-.2-1h0ZM507.1,739.1c-3.1,2.4-6.5,4.5-10,6.2l.4.9c1.7-.8,3.4-1.8,5-2.8h0s0,0,0,0h0s0,0,0,0h0s0,0,0,0h0s0,0,0,0h0s0,0,0,0h0s0,0,0,0h0s0,0,0,0h0s0,0,0,0h0s0,0,0,0h0s0,0,0,0h0s0,0,0,0h0s0,0,0,0h0s0,0,0,0h0s0,0,0,0h0s0,0,0,0h0s0,0,0,0h0s0,0,0,0h0s0,0,0,0h0s0,0,0,0h0s.1,0,.2,0h0s0,0,0,0h0s0,0,0,0h0s0,0,0,0h0s0,0,0,0h0s0,0,0,0c0,0,0,0,0,0,0,0,0,0,0,0,0,0,0,0,0,0,0,0,0,0,0,0,0,0,0,0,0,0,0,0,0,0,0,0,0,0,0,0,0,0,0,0,0,0,0,0,0,0,0,0,0,0,0,0,0,0,0,0,0,0,0,0,0,0,0,0,0,0,0,0,0,0,0,0,0,0,0,0,0,0,0,0,0,0,0,0,0,0,0,0,0,0,0,0,0,0,0,0,0,0,0,0,0,0,0,0,0,0,0,0,0,0,0,0,0,0,0,0,0,0,0,0,0,0,0,0,0,0,0,0,0,0,0,0,0,0,0,0,0,0,0,0,0,0,0,0,0,0,0,0,0,0,0,0,0,0,0,0,0,0,0,0,0,0,0,0,0,0,0,0,0,0,0,0,0,0,0,0,0,0,0,0,0,0,0,0,0,0,0,0h0s0,0,0,0c0,0,0,0,0,0h0s0,0,0,0h0s0,0,0,0h0s0,0,.1,0h0s0,0,0,0h0s0,0,0,0h0s0,0,0,0h0s0,0,0,0h0s0,0,0,0h0s0,0,0,0h0s0,0,0,0h0s0,0,0,0h0s0,0,0,0h0s0,0,0,0h0s0,0,0,0h0s0,0,0,0h0s0,0,0,0h0s0,0,0,0h0s0,0,0,0h0s0,0,0,0h0s0,0,0,0h0s0,0,0,0h0s0,0,0,0h0s0,0,0,0h0s0,0,0,0h0c.1,0,.2-.2.4-.2h0s0,0,0,0h0s0,0,0,0h0s0,0,0,0h0s0,0,0,0h0s0,0,0,0h0s0,0,0,0h0s0,0,0,0h0s0,0,0,0h0s0,0,0,0h0s0,0,0,0h0s0,0,0,0h0s0,0,0,0h0s0,0,0,0h0s0,0,0,0h0s0,0,0,0h0s0,0,0,0h0s0,0,0,0h0s0,0,0,0h0s0,0,0,0h0c.1,0,.2-.1.3-.2h0s0,0,0,0h0s0,0,0,0h0s0,0,0,0h0s0,0,0,0h0s0,0,0,0h0s0,0,0,0h0s0,0,0,0h0s0,0,0,0h0s0,0,0,0h0s0,0,0,0h0s0,0,0,0h0s0,0,0,0h0s0,0,0,0h0s0,0,0,0h0s0,0,0,0h0s0,0,0,0h0s0,0,0,0h0s0,0,0,0h0s0,0,0,0h0s0,0,0,0h0s0,0,0,0h0s0,0,0,0h0s0,0,0,0h0c0,0,.1,0,.2-.1t0,0c0,0,0,0,0,0l-.6-.8h0l.2-.6ZM522.4,721.4c-1.9,3.4-4.2,6.7-6.8,9.6l.8.7c2.6-3,4.9-6.3,6.9-9.8l-.9-.5h0ZM529.6,699.1c-.4,3.9-1.3,7.8-2.5,11.5l1,.3c1.2-3.8,2.1-7.7,2.5-11.7h-1c0-.1,0-.1,0-.1ZM528.6,675.5l-1,.3c1.1,3.8,1.8,7.7,2.2,11.6h1v-.2h0v-.2h0v-.2h0c-.2-2.7-.7-5.2-1.2-7.6h0v-.2h0v-.2h0v-.2h0v-.2h0v-.2h0v-.2h0v-.2h0c0,0,0,0,0,0h0s0,0,0,0h0s0,0,0,0h0c-.2-.8-.4-1.6-.6-2.3h-.3ZM517.4,654.4l-.8.6c2.5,3,4.7,6.3,6.5,9.8l.9-.5c-1.2-2.3-2.5-4.4-4-6.5h0s0,0,0,0h0s0,0,0,0h0s0,0,0,0h0s0,0,0,0h0s0,0,0,0h0s0,0,0,0h0s0,0,0,0h0s0,0,0,0h0s0,0,0,0h0s0,0,0,0h0s0,0,0,0h0s0,0,0,0h0s0,0,0,0h0s0,0,0,0h0s0,0,0,0h0s0,0,0,0h0s0,0,0,0h0s0,0,0,0h0s0,0,0,0h0s0,0,0-.1h0s0,0,0,0c0,0,0,0,0,0,0,0,0,0,0,0,0,0,0,0,0,0,0,0,0,0,0,0h0s0,0,0,0c0,0,0,0,0,0,0,0,0,0,0,0,0,0,0,0,0,0h0s0,0,0,0c0,0,0,0,0,0,0,0,0,0,0,0,0,0,0,0,0,0,0,0,0,0,0,0h0s0,0,0,0c0,0,0,0,0,0h0s0,0,0,0h0s0,0,0,0h0s0,0,0,0h0s0,0,0,0h0s0,0,0,0h0s0,0,0,0h0s0,0,0,0h0s0,0,0,0h0s0,0,0,0h0c-.5-.7-1-1.3-1.5-1.9h-.2ZM498.9,639.3l-.5.9c3.5,1.8,6.8,4,9.8,6.5l.6-.8c-1.5-1.3-3.1-2.4-4.8-3.5h0s0,0,0,0h0s0,0,0,0h0s0,0,0,0h0s0,0,0,0h0s0,0,0,0h0s0,0,0,0h0s0,0,0,0h0s0,0,0,0h0s0,0,0,0h0s0,0,0,0c0,0,0,0,0,0,0,0,0,0,0,0h0s0,0,0,0c0,0,0,0,0,0,0,0,0,0,0,0,0,0,0,0,0,0,0,0,0,0,0,0,0,0,0,0,0,0,0,0,0,0,0,0,0,0,0,0,0,0,0,0,0,0,0,0,0,0,0,0,0,0,0,0,0,0,0,0,0,0,0,0,0,0,0,0,0,0,0,0,0,0,0,0,0,0,0,0,0,0,0,0h0s0,0,0,0c0,0,0,0,0,0h0s0,0,0,0h0s0,0,0,0h0s0,0,0,0h0s0,0,0,0h0s0,0,0,0h0s0,0,0,0h0s0,0,0,0h0s0,0,0,0h0s0,0,0,0h0s0,0,0,0h0s0,0,0,0h0s0,0,0,0h0s0,0,0,0h0s0,0,0,0h0s0,0,0,0h0s0,0,0,0h0s0,0,0,0h0s0,0,0,0h0s0,0,0,0h0s0,0,0,0h0c-.2-.1-.5-.3-.7-.4h0s0,0-.1,0h0s0,0,0,0h0c-.3-.2-.5-.3-.8-.5h0s0,0,0,0h0s0,0,0,0h0s0,0,0,0h0s0,0,0,0h0s0,0,0,0h0s0,0,0,0h0s0,0,0,0h0s0,0,0,0h0s0,0,0,0h0s0,0,0,0h0s0,0,0,0h0s0,0,0,0h0s0,0,0,0h0s0,0,0,0h0s0,0,0,0h0s0,0,0,0h0s0,0,0,0h0s0,0-.1,0h0s0,0,0,0c0,0,0,0,0,0h0s0,0,0,0h0s0,0,0,0h0s0,0,0,0h0s0,0,0,0h0s0,0,0,0h0s0,0,0,0h0s0,0,0,0h0s0,0,0,0h0s0,0,0,0h0s0,0,0,0h0s0,0,0,0h0s0,0,0,0h0s0,0,0,0h0s0,0,0,0h0c-.2,0-.3-.2-.5-.3h0l-.3-.3ZM476,632.7v1c3.8.3,7.7,1,11.5,2.1l.3-1c-3.5-1-7.2-1.7-11-2.1h-.8Z"/>
      <path class="cls-17" d="M173,619h225c8.3,0,15,6.7,15,15h0c0,8.3-6.7,15-15,15h-225c-8.3,0-15-6.7-15-15h0c0-8.3,6.7-15,15-15Z"/>
      <path class="cls-17" d="M121.6,794.1h348c33.1,0,60,26.9,60,60h0c0,33.1-26.9,60-60,60H121.6c-33.1,0-60-26.9-60-60h0c0-33.1,26.9-60,60-60Z"/>
      <path class="cls-18" d="M469.6,794.1h-12v1h12v-1h0ZM445.6,794.1h-12v1h12v-1h0ZM421.6,794.1h-12v1h12v-1h0ZM397.6,794.1h-12v1h12v-1h0ZM373.6,794.1h-12v1h12v-1h0ZM349.6,794.1h-12v1h12v-1h0ZM325.6,794.1h-12v1h12v-1h0ZM301.6,794.1h-12v1h12v-1h0ZM277.6,794.1h-12v1h12v-1h0ZM253.6,794.1h-12v1h12v-1h0ZM229.6,794.1h-12v1h12v-1h0ZM205.6,794.1h-12v1h12v-1h0ZM181.6,794.1h-12v1h12v-1h0ZM157.6,794.1h-12v1h12v-1h0ZM133.6,794.1h-12v1h12v-1h0ZM109.7,795.3c-2,.4-4,.9-5.9,1.5h0s0,0,0,0h0s0,0,0,0h0s0,0,0,0h0s0,0,0,0h0s0,0,0,0h0s0,0,0,0h0s0,0,0,0h0s0,0,0,0h0s0,0,0,0h0s0,0,0,0h0s0,0,0,0h-.6s0,0,0,0h0s0,0,0,0h0s0,0,0,0h0s0,0,0,0h0s0,0,0,0h0c-1.4.5-2.9,1-4.3,1.6l.4.9c3.6-1.5,7.4-2.7,11.2-3.5l-.2-1h0v.2ZM87.8,804.5h0s0,0,0,0h0s0,0,0,0h0s0,0,0,0h0s0,0,0,0h0s0,0,0,0h0s0,0,0,0h0s0,0,0,0h0s0,0,0,0h0s0,0,0,0h0s0,0,0,0h0s0,0,0,0c0,0,0,0,0,0,0,0,0,0,0,0h0s0,0,0,0h0s0,0,0,0h0s0,0,0,0h0s0,0,0,0c0,0,0,0,0,0,0,0,0,0,0,0h0s0,0,0,0h0s0,0,0,0h0s0,0,0,0h0s0,0,0,0h0s0,0,0,0h0s0,0,0,0h0s0,0,0,0h0s0,0,0,0h0c0,0,0,0-.2.1h0s0,0,0,0h0s0,0,0,0h0s0,0,0,0h0s0,0,0,0h0s0,0,0,0h0s0,0,0,0h0s0,0,0,0h0s0,0,0,0h0s0,0,0,0h0s0,0,0,0h0s0,0,0,0h0s0,0,0,0h0s0,0,0,0h0s0,0,0,0h0s0,0,0,0h0s0,0,0,0h0s0,0,0,0h0s0,0,0,0h0s0,0,0,0h0s0,0,0,0h0c0,0-.1,0-.2.1h0s0,0,0,0h0s0,0,0,0h0s0,0,0,0h0s0,0,0,0h0s0,0,0,0h0s0,0,0,0h0s0,0,0,0h0s0,0,0,0h0s0,0,0,0h0s0,0,0,0h0s0,0,0,0h0s0,0,0,0h0s0,0,0,0h0s0,0,0,0h0s0,0,0,0h0s0,0,0,0h0s0,0,0,0h0s0,0,0,0h0s0,0,0,0h0c0,0-.1,0-.2.1h0s0,0,0,0h0s0,0,0,0h0s0,0,0,0h0s0,0,0,0h0s0,0,0,0h0s0,0,0,0h0s0,0,0,0h0s0,0,0,0h0s0,0,0,0h0s0,0,0,0h0s0,0,0,0h0s0,0,0,0h0s0,0,0,0h0s0,0,0,0h0s0,0,0,0h0s0,0,0,0h0s0,0,0,0h0s0,0,0,0h0s0,0,0,0h0c0,0-.1,0-.2.2h0s0,0,0,0h0s0,0,0,0h0s0,0,0,0h0s0,0,0,0h0s0,0,0,0h0s0,0,0,0h0s0,0,0,0h0s0,0,0,0h0s0,0,0,0h0s0,0,0,0h0s0,0,0,0h0s0,0,0,0h0s0,0,0,0h0s0,0,0,0h0s0,0,0,0h0s0,0,0,0h0s0,0,0,0h0s0,0,0,0h0s0,0,0,0h0s0,0,0,0h0s0,0,0,0h0s0,0,0,0h0s0,0,0,0h0s0,0,0,0c0,0,0,0,0,0,0,0,0,0,0,0,0,0,0,0,0,0,0,0,0,0,0,0,0,0,0,0,0,0,0,0,0,0,0,0,0,0,0,0,0,0,0,0,0,0,0,0,0,0,0,0,0,0,0,0,0,0,0,0,0,0,0,0,0,0,0,0,0,0,0,0,0,0,0,0,0,0,0,0,0,0,0,0,0,0,0,0,0,0,0,0,0,0,0,0,0,0,0,0,0,0,0,0,0,0,0,0,0,0,0,0,0,0,0,0,0,0,0,0,0,0,0,0,0,0,0,0,0,0,0,0,0,0,0,0,0,0,0,0,0,0,0,0,0,0,0,0,0,0,0,0,0,0,0,0,0,0,0,0,0,0,0,0,0,0,0,0,0,0,0,0,0,0,0,0,0,0,0,0,0,0,0,0,0,0,0,0,0,0,0,0,0,0,0,0,0,0,0,0,0,0,0,0,0,0,0,0,0,0,0,0,0,0,0,0,0,0,0,0,0,0,0,0,0,0,0,0h0s0,0,0,0c0,0,0,0,0,0,0,0,0,0,0,0h0s0,0,0,0c0,0,0,0,0,0,0,0,0,0,0,0,0,0,0,0,0,0h0s0,0,0,0c0,0,0,0,0,0,0,0,0,0,0,0,0,0,0,0,0,0,0,0,0,0,0,0,0,0,0,0,0,0,0,0,0,0,0,0,0,0,0,0,0,0,0,0,0,0,0,0,0,0,0,0,0,0,0,0,0,0,0,0,0,0,0,0,0,0,0,0,0,0,0,0h0s0,0,0,0h0s0,0,0,0c0,0,0,0,0,0,0,0,0,0,0,0,0,0,0,0,0,0,0,0,0,0,0,0,0,0,0,0,0,0,0,0,0,0,0,0h0s0,0,0,0c0,0,0,0,0,0,0,0,0,0,0,0h0s0,0,0,0c0,0,0,0,0,0,0,0,0,0,0,0,0,0,0,0,0,0,0,0,0,0,0,0,0,0,0,0,0,0,0,0,0,0,0,0,0,0,0,0,0,0,0,0,0,0,0,0,0,0,0,0,0,0,0,0,0,0,0,0h0s0,0,0,0h0s0,0,0,0h0s0,0,0,0h0s0,0,0,0h0s0,0,0,0h0s0,0,0,0h0s0,0,0,0h0s0,0,0,0h0s0,0,0,0h0s0,0,0,0h0s0,0,0,0h0s0,0,0,0h0s0,0,0,0h0s0,0,0,0h0s0,0,0,0h0s0,0,0,0h0s0,0,0,0h0s0,0,0,0h0s0,0,0,0h0s0,0,0,0h0s0,0,0,0h0s0,0,0,0h0s0,0,0,0h0c0,0-.2.2-.2.2h0s0,0,0,0h0s0,0,0,0h0s0,0,0,0h0s0,0,0,0h0s0,0,0,0h0s0,0,0,0h0s0,0,0,0h0s0,0,0,0h0s0,0,0,0h0s0,0,0,0h0s0,0,0,0h0c-.1.1-.2.2-.3.3h0s0,0,0,0h0s0,0,0,0h0s0,0,0,0h0s0,0,0,0h0s0,0,0,0h0s0,0,0,0h0s0,0,0,0h0s0,0,0,0h0s0,0,0,0h0s0,0,0,0h0s0,0,0,0h0c-.2.2-.4.4-.6.5l.7.7c2.7-2.8,5.8-5.4,9-7.6l-.6-.8h0l-.5.8ZM71.1,821.6h0s0,0,0,0h0s0,0,0,0h0s0,0,0,0h0c-.9,1.4-1.8,2.9-2.5,4.3h0s0,0,0,0h0s0,0,0,0h0s0,0,0,0h0s0,0,0,0h0s0,0,0,0h0s0,0,0,0h0s0,0,0,0h0s0,0,0,0h0s0,0,0,0h0s0,0,0,0h0s0,0,0,0h0s0,0,0,0h0s0,0,0,0h0s0,0,0,0c0,0,0,0,0,0,0,0,0,0,0,0,0,0,0,0,0,0,0,0,0,0,0,0s0,0,0,0c0,0,0,0,0,0,0,0,0,0,0,0s0,0,0,0c0,0,0,0,0,0h0s0,0,0,0h0s0,0,0,0h0s0,0,0,0h0s0,0,0,0h0c0,.1-.1.3-.2.4h0s0,0,0,0h0s0,0,0,0h0s0,0,0,0h0s0,0,0,0h0c0,0,0,.1,0,.2h0c-.7,1.5-1.4,3-2,4.5l.9.4c1.4-3.7,3.2-7.2,5.3-10.5l-.8-.5h-.2ZM62.5,843.9c-.1.8-.3,1.7-.4,2.5h0c0,.1,0,.2,0,.2h0v.2h0v.2h0v.2h0v.2h0c0,0,0,.1,0,.1h0c0,.2,0,.2,0,.3h0c0,0,0,.2,0,.2h0c-.1,1.3-.2,2.6-.3,3.8h0v.2h0v.3h0v.2h0v.3h0v.2h0v.2h0v.2h0v.2h0v.2h0v.2h0v.2h0v.2h0v.2h0v.2h0v.2h0v.2h0c0,.4,0,.7,0,1h1c0-.6,0-1.2,0-1.7,0-3.4.3-6.8.8-10l-1-.2h0l-.2.2ZM64.2,867.5l-1,.2c.8,3.6,2,7.1,3.5,10.5h0s0,0,0,0h0s0,0,0,0h0s0,0,0,0h0s0,0,0,0h0c0,.1,0,.1,0,.1h0s0,0,0,0h0s0,0,0,0h0s0,0,0,0h0s0,0,0,0h0s0,0,0,0h0s0,0,0,0h0s0,0,0,0h0s0,0,0,0h0s0,0,0,0h0s0,0,0,0h0s0,0,0,0h0s0,0,0,0h0s0,0,0,0h0s.9-.4.9-.4c-1.6-3.6-2.9-7.3-3.8-11.2h.1ZM73.9,888.8l-.8.6c.7,1,1.5,2,2.3,3h0c0,.1.2.2.3.4h0s0,0,0,0h0s0,0,0,0h0s0,0,0,0h0s0,0,0,0h0s0,0,0,0h0s0,0,0,0h0s0,0,0,0h0s0,0,0,0h0s0,0,0,0h0s0,0,0,0h0s0,0,0,0h0s0,0,0,0h0s0,0,0,0h0s0,0,0,0h0s0,0,0,0h0s0,0,0,0h0s0,0,0,0h0c0,0,0,.1.2.2h0s0,0,0,0h0s0,0,0,0h0s0,0,0,0h0s0,0,0,0h0s0,0,0,0h0s0,0,0,0h0s0,0,0,0h0s0,0,0,0h0s0,0,0,0h0s0,0,0,0h0s0,0,0,0h0s0,0,0,0h0s0,0,0,0h0s0,0,0,0h0s0,0,0,0h0s0,0,0,0h0s0,0,0,0h0s0,0,0,0h0c0,.1.2.2.3.3h0s0,0,0,0h0s0,0,0,0h0s0,0,0,0h0s0,0,0,0h0s0,0,0,0h0s0,0,0,0h0s0,0,0,0h0s0,0,0,0h0s0,0,0,0h0s0,0,0,0h0s0,0,0,0h0c1.1,1.2,2.3,2.4,3.5,3.5l.7-.7c-2.9-2.7-5.5-5.6-7.8-8.8h0l.3.2ZM91.2,904.6l-.5.9c3.4,2,7,3.8,10.8,5.1l.3-.9c-3.7-1.3-7.3-3-10.7-5h0ZM113.3,912.5v1c1.7.3,3.6.4,5.4.5h6.3v-1h-3.5c-2.8,0-5.6-.2-8.3-.6h.1ZM149.1,913.1h-12v1h12v-1h0ZM173.1,913.1h-12v1h12v-1h0ZM197.1,913.1h-12v1h12v-1h0ZM221.1,913.1h-12v1h12v-1h0ZM245.1,913.1h-12v1h12v-1h0ZM269.1,913.1h-12v1h12v-1h0ZM293.1,913.1h-12v1h12v-1h0ZM317.1,913.1h-12v1h12v-1h0ZM341.1,913.1h-12v1h12v-1h0ZM365.1,913.1h-12v1h12v-1h0ZM389.1,913.1h-12v1h12v-1h0ZM413.1,913.1h-12v1h12v-1h0ZM437.1,913.1h-12v1h12v-1h0ZM461.1,913.1h-12v1h12v-1h0ZM484.7,911.1c-3.8,1-7.7,1.6-11.6,1.8v1c3-.2,5.8-.5,8.6-1.1h0s0,0,0,0h1.3c.6-.1,1.2-.3,1.8-.5l-.2-1h0v-.3ZM505.7,900.8c-3.1,2.4-6.5,4.5-10,6.2l.4.9c.2,0,.4-.2.5-.3h0s0,0,0,0h0s0,0,0,0h0s0,0,0,0h0s0,0,0,0h0s0,0,0,0h0s0,0,0,0h0s0,0,0,0h0s0,0,0,0h0s0,0,0,0h0s0,0,0,0c0,0,0,0,0,0h0s0,0,0,0h0s0,0,0,0h0s0,0,0,0c0,0,0,0,0,0,0,0,0,0,0,0h0s0,0,0,0c0,0,0,0,0,0,0,0,0,0,0,0,0,0,0,0,0,0h0s0,0,0,0c0,0,0,0,0,0,0,0,0,0,0,0,0,0,0,0,0,0h0s0,0,0,0h0s0,0,0,0h0s0,0,0,0h0s0,0,0,0h0s0,0,0,0h0s0,0,0,0h0s0,0,0,0h0s0,0,0,0h0s0,0,0,0h0s0,0,0,0h0s0,0,0,0h0s0,0,0,0h0s0,0,0,0h0s0,0,0,0h0s0,0,0,0h0s0,0,0,0h0s0,0,0,0h0s0,0,0,0h0s0,0,0,0h0s0,0,0,0h0s0,0,0,0h0s0,0,0,0h0c2.8-1.5,5.4-3.2,7.8-5.1l-.6-.8h0v-.2ZM521,883c-1.9,3.4-4.2,6.7-6.8,9.6l.8.7c2.3-2.6,4.3-5.5,6.1-8.4h0s0,0,0,0h0s0,0,0,0h0s0,0,0,0h0s0,0,0,0h0s0,0,0,0h0s0,0,0,0h0s0,0,0,0h0s0,0,0,0h0s0,0,0,0h0c0-.1.2-.3.2-.4h0s0,0,0,0h0s0,0,0,0h0s0,0,0,0h0s0,0,0,0h0s0,0,0,0h0s0,0,0,0h0s0,0,0,0h0s0,0,0,0h0s0,0,0,0h0s0,0,0,0h0s0,0,0,0h0s0,0,0,0h0s0,0,0,0h0s0,0,0,0l-.9-.5h0ZM528.3,860.7c-.4,3.9-1.3,7.8-2.5,11.5l1,.3c.9-2.8,1.6-5.7,2.1-8.7h0v-.2h0v-.2h0v-.2h0v-.2h0v-.2h0v-.2h0c0-.8.2-1.4.2-2h-1c0-.1.2-.2.2-.2ZM527.2,837.1l-1,.3c1.1,3.8,1.8,7.7,2.2,11.6h1c0-.4,0-.8,0-1.1h0v-.2h0v-.2h0v-.2h0v-.2h0v-.2h0v-.2h0v-.2h0v-.2h0v-.2h0v-.2h0v-.2h0v-.2h0v-.2h0v-.2h0v-.2h0v-.2h0v-.2h0v-.2h0v-.2h0v-.2h0v-.2h0v-.2h0v-.2h0v-.2h0v-.2h0v-.2h0v-.2h0v-.2h0v-.2h0v-.2h0v-.2h0v-.2h0c-.3-1.8-.8-3.5-1.3-5.2h0l-.8-.3ZM516,816l-.8.6c2.5,3,4.7,6.3,6.5,9.8l.9-.5c-1.6-3-3.5-5.9-5.6-8.6h0s0,0,0,0h0s0,0,0,0h0s0,0,0,0h0s0,0,0,0h0s0,0,0,0h0s0,0,0,0h0s0,0,0,0h0s0,0,0,0h0s0,0,0,0h0s0,0,0,0c0,0,0,0,0,0,0,0,0,0,0,0h0s0,0,0,0h0s0,0,0,0c0,0,0,0,0,0h0s0,0,0,0h0c-.2-.3-.5-.6-.7-.8h0ZM497.5,801l-.5.9c3.5,1.8,6.8,4,9.8,6.5l.6-.8c-.3-.2-.5-.4-.8-.6h0s0,0,0,0h0s0,0,0,0h0s0,0,0,0h0s0,0,0,0h0s0,0,0,0h0s0,0,0,0c0,0,0,0,0,0,0,0,0,0,0,0,0,0,0,0,0,0,0,0,0,0,0,0,0,0,0,0,0,0h0s0,0,0,0h0s0,0,0,0h0s0,0,0,0h0s0,0,0,0h0s0,0,0,0h0c-2.2-1.7-4.4-3.2-6.8-4.6h0s0,0,0,0h0s0,0,0,0h0s0,0,0,0h0s0,0,0,0h0s0,0,0,0h0s0,0,0,0h0s0,0,0,0h0s0,0,0,0h0s0,0,0,0h0s0,0,0,0h0s0,0,0,0h0s0,0,0,0h0s0,0,0,0h0s0,0,0,0h0s0,0,0,0h0s0,0,0,0h0s0,0,0,0c0,0,0,0,0,0h0s0,0,0,0h0s0,0,0,0h0s0,0,0,0h0s0,0,0,0h0s0,0,0,0h0s0,0,0,0h0s0,0,0,0h0s0,0,0,0h0s0,0,0,0h0s0,0,0,0h0s0,0,0,0h0s0,0,0,0h0s0,0,0,0h0s0,0,0,0h0s0,0,0,0h0s0,0,0,0h0s0,0,0,0h0s0,0,0,0h0c-.1,0-.3-.2-.4-.2h-.2ZM474.7,794.3v1c3.8.3,7.7,1,11.5,2.1l.3-1c-3-.9-6-1.5-9.1-1.9h0s0,0,0,0h-1.6c-.3,0-.6,0-.9,0h0v-.2Z"/>
      <rect class="cls-17" x="175" y="780.6" width="214" height="30.4" rx="15" ry="15"/>
      <circle class="cls-16" cx="117" cy="670" r="25"/>
      <circle class="cls-16" cx="164" cy="720" r="25"/>
      <circle class="cls-16" cx="142" cy="864" r="25"/>
      <circle class="cls-16" cx="300" cy="864" r="25"/>
      <circle class="cls-3" cx="458" cy="864" r="25"/>
      <path class="cls-17" d="M708,488.2h381.1c34.8,0,63,28.2,63,63v498.4c0,34.8-28.2,63-63,63h-381.1c-34.8,0-63-28.2-63-63v-498.4c0-34.8,28.2-63,63-63h0Z"/>
      <path class="cls-18" d="M1089.1,489.7c33.9,0,61.5,27.6,61.5,61.5v498.4c0,33.9-27.6,61.5-61.5,61.5h-381.1c-33.9,0-61.5-27.6-61.5-61.5v-498.4c0-33.9,27.6-61.5,61.5-61.5h381.1M1089.1,486.7h-381.1c-35.6,0-64.5,28.9-64.5,64.5v498.4c0,35.6,28.9,64.5,64.5,64.5h381.1c35.6,0,64.5-28.9,64.5-64.5v-498.4c0-35.6-28.9-64.5-64.5-64.5h0Z"/>
      <path class="cls-17" d="M832,476.7h120.5c8.3,0,15,6.7,15,15h0c0,8.3-6.7,15-15,15h-120.5c-8.3,0-15-6.7-15-15h0c0-8.3,6.7-15,15-15Z"/>
      <rect class="cls-6" x="702.4" y="573" width="95.9" height="516"/>
      <rect class="cls-6" x="853.8" y="573" width="95.9" height="516"/>
      <rect class="cls-6" x="1005.1" y="573" width="95.9" height="516"/>
      <path class="cls-17" d="M724.5,626.1h348c33.1,0,60,26.9,60,60h0c0,33.1-26.9,60-60,60h-348c-33.1,0-60-26.9-60-60h0c0-33.1,26.9-60,60-60Z"/>
      <path class="cls-18" d="M1072.5,626.1h-12v1h12v-1h0ZM1048.5,626.1h-12v1h12v-1h0ZM1024.5,626.1h-12v1h12v-1h0ZM1000.5,626.1h-12v1h12v-1h0ZM976.5,626.1h-12v1h12v-1h0ZM952.5,626.1h-12v1h12v-1h0ZM928.5,626.1h-12v1h12v-1h0ZM904.5,626.1h-12v1h12v-1h0ZM880.5,626.1h-12v1h12v-1h0ZM856.5,626.1h-12v1h12v-1h0ZM832.5,626.1h-12v1h12v-1h0ZM808.5,626.1h-12v1h12v-1h0ZM784.5,626.1h-12v1h12v-1h0ZM760.5,626.1h-12v1h12v-1h0ZM736.5,626.1h-12v1h12v-1h0ZM712.6,627.3c-1.9.4-3.7.8-5.5,1.4h0s0,0,0,0h0s0,0,0,0h-.5s0,0,0,0h0s0,0,0,0h0s0,0,0,0h0s0,0,0,0h0s0,0,0,0h0s0,0,0,0h0s0,0,0,0h0s0,0,0,0h0s0,0,0,0h0s0,0,0,0h0c-1.7.5-3.3,1.2-4.9,1.8l.4.9c3.6-1.5,7.4-2.7,11.2-3.5l-.2-1h0v.2ZM690.6,636.6c-3.3,2.3-6.4,4.9-9.2,7.7l.7.7c2.7-2.8,5.8-5.4,9-7.6l-.6-.8h0ZM674,653.7c-2.2,3.3-4,6.9-5.4,10.7l.9.4c1.4-3.7,3.2-7.2,5.3-10.5l-.8-.5h0ZM665.4,675.9c-.5,2.6-.7,5.3-.8,8h0v.2h0v.2h0v.2h0v.2h0v.2h0v.2h0v.2h0v.2h0v.2h0v.2h0v.2h0v.2h0v.2h0v.2h0v.2h0c0,.4,0,.7,0,1h1c0-.6,0-1.2,0-1.7,0-3.4.3-6.8.8-10l-1-.2h0ZM667,699.5l-1,.2c.8,3.6,2,7.1,3.5,10.5h0s0,0,0,0h0s0,0,0,0h0s0,0,0,0h0s0,0,0,0h0c0,.1,0,.1,0,.1h0s0,0,0,0h0s0,0,0,0h0s0,0,0,0h0s0,0,0,0h0s0,0,0,0h0s0,0,0,0h0s0,0,0,0h0s0,0,0,0h0s0,0,0,0h0s0,0,0,0h0s0,0,0,0h0s0,0,0,0h0s0,0,0,0h0s.9-.4.9-.4c-1.6-3.6-2.9-7.3-3.8-11.2h.1ZM676.8,720.8l-.8.6c2.4,3.2,5,6.2,8,8.9l.7-.7c-2.9-2.7-5.5-5.6-7.8-8.8h0ZM694.1,736.7l-.5.9c1.4.9,2.9,1.7,4.4,2.4h0s0,0,0,0h0s0,0,0,0h0s0,0,0,0h0s0,0,0,0h0s0,0,0,0h0s0,0,0,0h0s0,0,0,0h0s0,0,0,0h0s0,0,0,0h0s0,0,0,0h0s0,0,0,0h0s0,0,0,0h0s0,0,0,0h0s0,0,0,0h0s0,0,0,0h0s0,0,0,0h0s0,0,0,0h0s0,0,0,0h0s0,0,0,0h0c0,0,.1,0,.2,0h0s0,0,0,0h0s0,0,0,0h0s0,0,0,0h0s0,0,0,0h0s0,0,0,0h0s0,0,0,0h0s0,0,0,0h0s0,0,0,0c0,0,0,0,0,0h0s0,0,0,0h0s0,0,0,0h0s0,0,0,0h0s0,0,0,0h0s0,0,0,0h0s0,0,0,0h0s0,0,0,0h0s0,0,0,0h0s0,0,0,0h0s0,0,0,0h0s0,0,0,0h0s0,0,0,0h0s0,0,0,0h0s0,0,0,0h0s0,0,0,0h0s0,0,0,0h0s0,0,0,0h0c.2,0,.4.2.6.2h0s0,0,0,0h0s0,0,0,0h0s0,0,0,0h0s0,0,0,0h0s0,0,0,0h0s0,0,0,0h0s0,0,0,0h0s0,0,0,0h0s0,0,0,0h0s0,0,0,0h0s0,0,0,0h0s0,0,0,0h0c1.1.5,2.1.9,3.2,1.3l.3-.9c-3.7-1.3-7.3-3-10.7-5h0v.2ZM716.2,744.5v1c1.7.3,3.5.4,5.4.5h6.3v-1h-3.5c-2.8,0-5.6-.2-8.3-.6h.1ZM752,745.1h-12v1h12v-1h0ZM776,745.1h-12v1h12v-1h0ZM800,745.1h-12v1h12v-1h0ZM824,745.1h-12v1h12v-1h0ZM848,745.1h-12v1h12v-1h0ZM872,745.1h-12v1h12v-1h0ZM896,745.1h-12v1h12v-1h0ZM920,745.1h-12v1h12v-1h0ZM944,745.1h-12v1h12v-1h0ZM968,745.1h-12v1h12v-1h0ZM992,745.1h-12v1h12v-1h0ZM1016,745.1h-12v1h12v-1h0ZM1040,745.1h-12v1h12v-1h0ZM1064,745.1h-12v1h12v-1h0ZM1087.6,743.2c-3.8,1-7.7,1.6-11.6,1.8v1c3-.2,5.8-.5,8.6-1.1h0s0,0,0,0h1.3c.6-.1,1.2-.3,1.8-.5l-.2-1h0v-.3ZM1108.6,732.8c-3.1,2.4-6.5,4.5-10,6.2l.4.9.5-.3h0s0,0,0,0h0s0,0,0,0h0s0,0,0,0h0s0,0,0,0h0s0,0,0,0h0s0,0,0,0h0s0,0,0,0h0s0,0,0,0h0s0,0,0,0h0s0,0,0,0h0s0,0,0,0h0s0,0,0,0h0s0,0,0,0c0,0,0,0,0,0,0,0,0,0,0,0h0s0,0,0,0,0,0,0,0,0,0,0,0c0,0,0,0,0,0h0s0,0,0,0h0s0,0,0,0c0,0,0,0,0,0,0,0,0,0,0,0h0s0,0,0,0h0s0,0,0,0h0s0,0,0,0h0s0,0,0,0h0s0,0,0,0h0s0,0,0,0h0s0,0,0,0h0s0,0,0,0h0s0,0,0,0h0s0,0,0,0h0s0,0,0,0h0s0,0,0,0h0s0,0,0,0h0s0,0,0,0h0s0,0,0,0h0s0,0,0,0h0s0,0,0,0h0s0,0,0,0h0s0,0,0,0h0s0,0,0,0h0s0,0,0,0h0s0,0,0,0h0c2.8-1.5,5.4-3.2,7.8-5.1l-.6-.8h0v-.2ZM1123.9,715.1c-1.9,3.4-4.2,6.7-6.8,9.6l.8.7c.1-.2.3-.3.4-.5h0s0,0,0,0h0s0,0,0,0h0s0,0,0,0h0s0,0,0,0h0s0,0,0,0h0s0,0,0,0h0s0,0,0,0h0s0,0,0,0h0s0,0,0,0h0s0,0,0,0c0,0,0,0,0,0,0,0,0,0,0,0,0,0,0,0,0,0h0s0,0,0,0c0,0,0,0,0,0h0s0,0,0,0h0s0,0,0,0h0s0,0,0,0c0,0,0,0,0,0h0s0,0,0,0h0c0,0,.1-.2.2-.2h0s0,0,0,0h0s0,0,0,0h0s0,0,0,0h0s0,0,0,0h0s0,0,0,0h0s0,0,0,0h0s0,0,0,0h0s0,0,0,0h0s0,0,0,0h0s0,0,0,0h0s0,0,0,0h0s0,0,0,0h0s0,0,0,0h0s0,0,0,0h0s0,0,0,0h0s0,0,0,0h0c.9-1.1,1.7-2.2,2.5-3.4h0s0,0,0,0h0s0,0,0,0h0s0,0,0,0h0s0,0,0,0h0s0,0,0,0h0s0,0,0,0h0s0,0,0,0h0s0,0,0,0h0s0,0,0,0h0s0,0,0,0h0s0,0,0,0h0s0,0,0,0h0c0-.1.1-.2.2-.3h0s0,0,0,0h0s0,0,0,0h0s0,0,0,0h0s0,0,0,0h0s0,0,0,0h0s0,0,0,0h0s0,0,0,0h0s0,0,0,0h0s0,0,0,0h0s0,0,0,0c0,0,0,0,0,0,0,0,0,0,0,0,0,0,0,0,0,0,0,0,0,0,0,0,0,0,0,0,0,0,0,0,0,0,0,0,0,0,0,0,0,0,0,0,0,0,0,0,0,0,0,0,0,0,0,0,0,0,0,0,0,0,0,0,0,0,0,0,0,0,0,0,0,0,0,0,0,0,0,0,0,0,0,0,0,0,0,0,0,0,0,0,0,0,0,0,0,0,0,0,0,0,0,0,0,0,0,0,0,0,0,0,0,0,0,0,0,0,0,0,0,0,0,0,0,0,0,0,0,0,0,0h0s0,0,0,0h0s0,0,0,0h0s0,0,0,0c0,0,0,0,0,0h0s0,0,0,0h0s0,0,0,0h0s0,0,0,0h0s0,0,0,0h0s0,0,0,0h0s0,0,0,0h0s0,0,0,0h0s0,0,0,0h0s0,0,0,0h0s0,0,0,0h0s0,0,0,0c0,0,0,0,0,0,0,0,0,0,0,0h0s0,0,0,0h0s0,0,0,0h0s0,0,0,0h0s0,0,0,0h0s0,0,0,0h0s0,0,0,0h0s0,0,0,0h0s0,0,0,0h0s0,0,0,0h0s0,0,0,0h0c0,0,0-.1.1-.2h0s0,0,0,0h0s0,0,0,0h0s0,0,0,0h0s0,0,0,0h0s0,0,0,0h0s0,0,0,0h0s0,0,0,0h0s0,0,0,0h0s0,0,0,0h0s0,0,0,0h0s0,0,0,0h0s0,0,0,0h0s0,0,0,0h0s0,0,0,0h0s0,0,0,0h0s0,0,0,0h0s0,0,0,0h0s0,0,0,0h0s0,0,0,0h0s0,0,0,0h0c0,0,.1-.2.2-.3h0s0,0,0,0h0s0,0,0,0h0s0,0,0,0h0s0,0,0,0h0s0,0,0,0h0s0,0,0,0h0s0,0,0,0h0s0,0,0,0h0s0,0,0,0h0s0,0,0,0h0s0,0,0,0h0s0,0,0,0h0s0,0,0,0h0s0,0,0,0l-.9-.5h0l.5-.4ZM1131.1,692.8c-.4,3.9-1.3,7.8-2.5,11.5l.9.3c1.2-3.8,2.1-7.7,2.5-11.7h-1ZM1130.1,669.1l-1,.3c1.1,3.8,1.8,7.7,2.2,11.6h1c0-.5,0-.9-.1-1.2h0v-.2h0v-.2h0v-.2h0v-.2h0v-.2h0v-.2h0v-.2h0v-.2h0c0,0,0,0,0-.1h0c-.3-2.3-.7-4.6-1.3-6.8h0s0,0,0,0h0s0,0,0,0h0s0,0,0,0h0v-.2h0v-.2h0v-.2h0v-.2h0v-.2h0s0,0,0,0h0s0,0,0,0h0c-.1-.5-.2-.9-.4-1.3h-.4ZM1118.9,648.1l-.8.6c2.5,3,4.7,6.3,6.5,9.8l.9-.5c0,0,0-.2-.2-.3h0s0,0,0,0h0s0,0,0,0h0s0,0,0,0h0s0,0,0,0h0s0,0,0,0h0s0,0,0,0h0s0,0,0,0h0s0,0,0,0h0s0,0,0,0h0c-.1-.2-.3-.5-.4-.7h0s0,0,0,0h0s0,0,0,0h0s0,0,0,0h0s0,0,0,0h0s0,0,0,0h0s0,0,0,0h0s0,0,0,0h0s0,0,0,0h0s0,0,0,0h0s0,0,0,0h0c-1.7-2.9-3.6-5.6-5.7-8.2h0ZM1100.4,633l-.5.9c3.5,1.8,6.8,4,9.8,6.5l.6-.8c-.8-.6-1.6-1.2-2.4-1.8h0c0,0-.2-.2-.3-.2h0s0,0,0,0h0s0,0,0,0h0s0,0,0,0h0s0,0,0,0h0s0,0,0,0h0s0,0,0,0c0,0,0,0,0,0h0s0,0,0,0c0,0,0,0,0,0,0,0,0,0,0,0,0,0,0,0,0,0,0,0,0,0,0,0,0,0,0,0,0,0,0,0,0,0,0,0,0,0,0,0,0,0,0,0,0,0,0,0,0,0,0,0,0,0,0,0,0,0,0,0,0,0,0,0,0,0,0,0,0,0,0,0,0,0,0,0,0,0,0,0,0,0,0,0,0,0,0,0,0,0,0,0,0,0,0,0,0,0,0,0,0,0h0s0,0,0,0c0,0,0,0,0,0,0,0,0,0,0,0,0,0,0,0,0,0h0s0,0,0,0h0s0,0,0,0h0s0,0,0,0h0c0,0-.1,0-.2-.2h0s0,0,0,0h0s0,0,0,0h0s0,0,0,0h0s0,0,0,0h0s0,0,0,0h0s0,0,0,0h0s0,0,0,0h0s0,0,0,0h0s0,0,0,0h0s0,0,0,0h0s0,0,0,0h0s0,0,0,0h0s0,0,0,0h0s0,0,0,0h0s0,0,0,0h0s0,0,0,0h0s0,0,0,0h0s0,0,0,0h0s0,0,0,0h0c-.1,0-.2-.2-.4-.2h0s0,0,0,0h0s0,0,0,0h0s0,0,0,0h0s0,0,0,0h0s0,0,0,0h0s0,0,0,0h0s0,0,0,0h0s0,0,0,0h0s0,0,0,0h0s0,0,0,0h0s0,0,0,0h0s0,0,0,0h0s0,0,0,0h0s0,0,0,0h0s0,0,0,0h0s0,0,0,0h0s0,0,0,0h0c0,0-.2,0-.2-.1h0s0,0,0,0h0s0,0,0,0h0s0,0,0,0h0s0,0,0,0c0,0,0,0,0,0,0,0,0,0,0,0,0,0,0,0,0,0,0,0,0,0,0,0,0,0,0,0,0,0,0,0,0,0,0,0,0,0,0,0,0,0,0,0,0,0,0,0,0,0,0,0,0,0,0,0,0,0,0,0,0,0,0,0,0,0,0,0,0,0,0,0,0,0,0,0,0,0,0,0,0,0,0,0,0,0,0,0,0,0,0,0,0,0,0,0,0,0,0,0,0,0,0,0,0,0,0,0,0,0,0,0,0,0,0,0,0,0,0,0h0s0,0,0,0h0s0,0,0,0h0s0,0,0,0h0s0,0,0,0h0s0,0,0,0h0s0,0,0,0h0s0,0,0,0h0c-.1,0-.2-.1-.3-.2h0s0,0,0,0h0s0,0,0,0h0s0,0,0,0h0s0,0,0,0h0s0,0,0,0h0s0,0,0,0h0s0,0,0,0h0s0,0,0,0h0s0,0,0,0h0s0,0,0,0h0s0,0,0,0h0s0,0,0,0h0c-.9-.5-1.7-1-2.6-1.5h0l-.4-.4ZM1077.5,626.3v1c3.8.3,7.7,1,11.5,2.1l.3-1c-3.1-.9-6.2-1.5-9.4-1.9h-1.4s0,0,0,0c-.3,0-.6,0-.8,0h0v-.2Z"/>
      <path class="cls-17" d="M774.5,612.7h225c8.3,0,15,6.7,15,15h0c0,8.3-6.7,15-15,15h-225c-8.3,0-15-6.7-15-15h0c0-8.3,6.7-15,15-15Z"/>
      <path class="cls-17" d="M723.1,787.7h348c33.1,0,60,26.9,60,60h0c0,33.1-26.9,60-60,60h-348c-33.1,0-60-26.9-60-60h0c0-33.1,26.9-60,60-60Z"/>
      <path class="cls-18" d="M1071.1,787.7h-12v1h12v-1h0ZM1047.1,787.7h-12v1h12v-1h0ZM1023.1,787.7h-12v1h12v-1h0ZM999.1,787.7h-12v1h12v-1h0ZM975.1,787.7h-12v1h12v-1h0ZM951.1,787.7h-12v1h12v-1h0ZM927.1,787.7h-12v1h12v-1h0ZM903.1,787.7h-12v1h12v-1h0ZM879.1,787.7h-12v1h12v-1h0ZM855.1,787.7h-12v1h12v-1h0ZM831.1,787.7h-12v1h12v-1h0ZM807.1,787.7h-12v1h12v-1h0ZM783.1,787.7h-12v1h12v-1h0ZM759.1,787.7h-12v1h12v-1h0ZM735.1,787.7h-12v1h12v-1h0ZM711.2,788.9c-2,.4-4,.9-6,1.5h0s0,0,0,0h0s0,0,0,0h0s0,0,0,0h0s0,0,0,0h0s0,0,0,0h0s0,0,0,0h0s0,0,0,0h0s0,0,0,0h0s0,0,0,0h0s0,0,0,0h0s0,0,0,0h0s0,0,0,0h0s0,0,0,0h0s0,0,0,0h0s0,0,0,0h0s0,0,0,0h0s0,0,0,0h-.3s0,0,0,0h-.5s0,0,0,0h0c-.1,0-.2,0-.3.1h0s0,0,0,0h0s0,0,0,0h0s0,0,0,0h0s0,0,0,0h0s0,0,0,0h0s0,0,0,0h0s0,0,0,0h0s0,0,0,0h0s0,0,0,0h0s0,0,0,0h0s0,0,0,0h0s0,0,0,0h0s0,0,0,0h0s0,0,0,0h0s0,0,0,0h0s0,0,0,0h0s0,0,0,0h0s0,0,0,0h0s0,0,0,0h0s0,0,0,0h0s0,0,0,0h0s0,0,0,0h0s0,0,0,0h0s0,0,0,0h0s0,0,0,0h0s0,0,0,0h0s0,0,0,0h0s0,0,0,0h0s0,0,0,0h0s0,0,0,0h0s0,0,0,0h0s0,0,0,0h0s0,0,0,0h0s0,0,0,0h0s0,0,0,0h0s0,0,0,0h0s0,0,0,0h0s0,0,0,0h0s0,0,0,0h0s0,0,0,0h0s0,0,0,0h0s0,0,0,0h0s0,0,0,0h0s0,0,0,0h0s0,0,0,0h0s0,0,0,0h0s0,0,0,0h0s0,0,0,0h0s0,0,0,0h0c-.2,0-.4.2-.5.2h0s0,0,0,0h0s0,0,0,0h0s0,0,0,0h-.2s0,0,0,0h0s0,0,0,0h0s0,0,0,0h0s0,0,0,0h0s0,0,0,0h0s0,0,0,0c0,0,0,0,0,0h0s0,0,0,0h0s0,0,0,0h0l.4.9c3.6-1.5,7.4-2.7,11.2-3.5l-.2-1h0l-.4.8ZM689.3,798.2c-.2.1-.4.2-.5.4h0s0,0,0,0h0s0,0,0,0h0s0,0,0,0h0s0,0,0,0h0s0,0,0,0h0s0,0,0,0h0c-.2.1-.3.2-.5.3h0s0,0,0,0h0s0,0,0,0h0s0,0,0,0h0s0,0,0,0h0s0,0,0,0h0s0,0,0,0h0s0,0,0,0h0s0,0,0,0h0s0,0,0,0h0s0,0,0,0h0s0,0,0,0h0s0,0,0,0h0s0,0,0,0h0s0,0,0,0h0s0,0,0,0h0s0,0,0,0h0s0,0,0,0h0s0,0-.2.1h0s0,0,0,0h0s0,0,0,0c0,0,0,0,0,0h0s0,0,0,0c0,0,0,0,0,0,0,0,0,0,0,0,0,0,0,0,0,0,0,0,0,0,0,0,0,0,0,0,0,0,0,0,0,0,0,0,0,0,0,0,0,0,0,0,0,0,0,0,0,0,0,0,0,0h0s0,0,0,0h0s0,0,0,0c0,0,0,0,0,0h0s0,0,0,0h0s0,0,0,0h0s0,0,0,0h0s0,0,0,0h0s0,0,0,0h0s0,0,0,0h0s0,0,0,0h0s0,0,0,0h0s0,0,0,0h0s0,0,0,0h0c0,0-.2.1-.2.2h0s0,0,0,0h0s0,0,0,0h0s0,0,0,0h0s0,0,0,0h0s0,0,0,0h0s0,0,0,0h0s0,0,0,0h0s0,0,0,0h0s0,0,0,0h0s0,0,0,0h0s0,0,0,0h0s0,0,0,0h0c-2,1.6-3.9,3.3-5.7,5.1l.7.7c2.7-2.8,5.8-5.4,9-7.6l-.6-.8h0v.2ZM672.7,815.3c-.2.3-.3.5-.5.8h0s0,0,0,0h0s0,0,0,0h0s0,0,0,0h0s0,0,0,0h0s0,0,0,0h0s0,0,0,0h0s0,0,0,0h0s0,0,0,0h0s0,0,0,0h0s0,0,0,0h0s0,0,0,0h0s0,0,0,0h0s0,0,0,0h0s0,0,0,0h0s0,0,0,0h0s0,0,0,0h0c0,.1-.2.3-.3.4h0s0,0,0,0h0s0,0,0,0h0s0,0,0,0h0s0,0,0,0h0s0,0,0,0h0s0,0,0,0h0s0,0,0,0h0s0,0,0,0h0s0,0,0,0h0s0,0,0,0h0s0,0,0,0c0,0,0,0,0,0,0,0,0,0,0,0,0,0,0,0,0,0,0,0,0,0,0,0,0,0,0,0,0,0,0,0,0,0,0,0,0,0,0,0,0,0,0,0,0,0,0,0,0,0,0,0,0,0,0,0,0,0,0,0,0,0,0,0,0,0,0,0,0,0,0,0,0,0,0,0,0,0,0,0,0,0,0,0,0,0,0,0,0,0,0,0,0,0,0,0,0,0,0,0,0,0h0s0,0,0,0h0s0,0,0,0h0s0,0,0,0h0s0,0,0,0h0s0,0,0,0h0c0,.1-.1.2-.2.3h0s0,0,0,0h0s0,0,0,0h0s0,0,0,0h0s0,0,0,0h0s0,0,0,0h0s0,0,0,0h0s0,0,0,0h0s0,0,0,0h0s0,0,0,0h0s0,0,0,0h0s0,0,0,0h0s0,0,0,0h0c-1.2,2.3-2.3,4.6-3.3,7.1l.9.4c1.4-3.7,3.2-7.2,5.3-10.5l-.8-.5h-.3ZM664,837.5c-.4,2.3-.7,4.6-.8,7h0c0,0,0,.2,0,.2h0v.2h0v.2h0v.2h0v.2h0v.2h0v.2h0v.2h0v.2h0v.2h0v.2h0v.2h0v.2h0v.2h0v.2h0v.2h0v.2h0v.2h0v.2h0v.2h0v.2h0c0,.4,0,.7,0,1h1c0-.6,0-1.2,0-1.7,0-3.4.3-6.8.8-10l-1-.2h0ZM665.7,861.1l-1,.2c.7,2.9,1.6,5.8,2.7,8.5h0s0,0,0,0h0s0,0,0,0h0s0,0,0,0h0s0,0,0,0h0s0,0,0,0h0s0,0,0,0h0s0,0,0,0h0s0,0,0,0h0v.2s0,0,0,0h0s0,0,0,0h0s0,0,0,0h0s0,0,0,0h0s0,0,0,0h0s0,0,0,0h0s0,0,0,0h0s0,0,0,0h0s0,0,0,0h0s0,0,0,0h0s0,0,0,0h0c.3.6.5,1.2.8,1.8l.9-.4c-1.6-3.6-2.9-7.3-3.8-11.2h.1ZM675.4,882.5l-.8.6c.4.6.8,1.1,1.2,1.7h0s0,0,0,0h0s0,0,0,0h0s0,0,0,0h0s0,0,0,0h0s0,0,0,0h0s0,0,0,0h0s0,0,0,0h0s0,0,0,0h0s0,0,0,0h0s0,0,0,0h0s0,0,0,0h0s0,0,0,0h0s0,0,0,0h0c0,0,.1.2.2.2h0s0,0,0,0h0s0,0,0,0h0s0,0,0,0h0s0,0,0,0h0s0,0,0,0h0s0,0,0,0h0s0,0,0,0h0s0,0,0,0h0s0,0,0,0h0s0,0,0,0h0s0,0,0,0h0s0,0,0,0h0s0,0,0,0h0s0,0,0,0h0s0,0,0,0h0s0,0,0,0h0s0,0,0,0h0c0,0,.1.1.2.2h0s0,0,0,0h0s0,0,0,0h0s0,0,0,0h0s0,0,0,0h0s0,0,0,0h0s0,0,0,0h0s0,0,0,0h0s0,0,0,0h0s0,0,0,0h0s0,0,0,0h0s0,0,0,0h0s0,0,0,0h0s0,0,0,0h0s0,0,0,0h0s0,0,0,0h0c.2.2.3.3.5.5h0c1.4,1.6,2.9,3.1,4.4,4.5l.7-.7c-2.9-2.7-5.5-5.6-7.8-8.8h0l.3.2ZM692.7,898.3l-.5.9c3.4,2,7,3.8,10.8,5.1l.3-.9c-3.7-1.3-7.3-3-10.7-5h0ZM714.8,906.2v1c.4,0,1,.2,1.5.2h0s0,0,0,0h.8c1,0,2,.2,3,.2h6.2v-1h-3.5c-2.8,0-5.6-.2-8.3-.6h0l.2.2ZM750.6,906.7h-12v1h12v-1h0ZM774.6,906.7h-12v1h12v-1h0ZM798.6,906.7h-12v1h12v-1h0ZM822.6,906.7h-12v1h12v-1h0ZM846.6,906.7h-12v1h12v-1h0ZM870.6,906.7h-12v1h12v-1h0ZM894.6,906.7h-12v1h12v-1h0ZM918.6,906.7h-12v1h12v-1h0ZM942.6,906.7h-12v1h12v-1h0ZM966.6,906.7h-12v1h12v-1h0ZM990.6,906.7h-12v1h12v-1h0ZM1014.6,906.7h-12v1h12v-1h0ZM1038.6,906.7h-12v1h12v-1h0ZM1062.6,906.7h-12v1h12v-1h0ZM1086.2,904.8c-3.8,1-7.7,1.6-11.6,1.8v1c1.4,0,2.8-.2,4.1-.4h1.4c2.1-.3,4.2-.8,6.3-1.3l-.2-1h0v-.2ZM1107.2,894.4c-3.1,2.4-6.5,4.5-10,6.2l.4.9c.6-.3,1.3-.7,1.9-1h0s0,0,0,0h0s0,0,0,0h0s0,0,0,0h0s0,0,0,0h0s0,0,0,0h0s0,0,0,0h0s0,0,0,0h0s0,0,0,0h0s0,0,0,0h0s0,0,0,0h0s0,0,0,0h0s0,0,0,0c0,0,0,0,0,0,0,0,0,0,0,0h0s0,0,0,0c0,0,0,0,0,0,0,0,0,0,0,0,0,0,0,0,.1,0h0s0,0,0,0h0s0,0,0,0h0s0,0,0,0h0s0,0,0,0h0s0,0,0,0h0s0,0,0,0h0s0,0,0,0h0s0,0,0,0h0s0,0,0,0h0s0,0,0,0h0s0,0,0,0h0c2.5-1.4,4.8-3,7.1-4.7l-.6-.8h0ZM1122.6,876.7c-1.9,3.4-4.2,6.7-6.8,9.6l.8.7c.5-.5.9-1.1,1.4-1.7h0s0,0,0,0h0s0,0,0,0h0s0,0,0,0h0s0,0,0,0h0s0,0,0,0h0s0,0,0,0h0s0,0,0,0h0s0,0,.1-.2h0s0,0,0,0h0s0,0,0,0c0,0,0,0,0,0,0,0,0,0,0,0h0s0,0,0,0c0,0,0,0,0,0,0,0,0,0,0,0h0s0,0,0,0h0s0,0,0,0h0s0,0,0,0h0s0,0,0,0c0,0,0,0,0,0h0s0,0,0,0h0s0,0,0,0h0s0,0,0,0h0s0,0,0,0h0s0,0,0,0h0s0,0,0,0h0s0,0,0,0h0s0,0,0,0h0s0,0,0,0h0c1.7-2.2,3.2-4.5,4.6-7l-.9-.5h0ZM1129.8,854.4c-.4,3.9-1.3,7.8-2.5,11.5l.9.3c.8-2.3,1.4-4.7,1.8-7.2h0v-.2h0v-.2h0v-.2h0v-.2h0v-.2h0v-.2h0v-.2h0v-.2h0v-.2h0v-.2h0v-.2h0v-.2h0v-.2h0v-.2h0v-.2h0v-.2h0v-.2h0v-.2h0v-.2h0v-.2h0v-.2h0v-.2h0c0-.3,0-.6,0-.9h-1c0-.1.6-.2.6-.2ZM1128.7,830.8l-1,.3c1.1,3.8,1.8,7.7,2.2,11.6h1c0-.8-.1-1.5-.2-2.1h0s0,0,0,0h0c0-.1,0-.2,0-.2h0v-.2h0s0,0,0,0h0s0,0,0,0h0s0,0,0,0h0s0,0,0,0h0v-.2h0v-.2h0v-.2h0v-.2h0v-.2h0v-.2h0v-.2h0v-.2h0v-.2h0v-.2h0v-.2h0v-.2h0v-.2h0v-.2h0v-.2h0v-.2h0v-.2h0v-.2h0v-.2h0v-.2h0v-.2h0v-.2h0v-.2h0v-.2h0v-.2h0v-.2h0v-.2h0v-.2h0v-.2h0v-.2h0v-.2h0c0,0,0-.1,0-.1h0s0,0,0,0h0s0,0,0,0h0c-.3-1.1-.5-2.2-.8-3.2h0l-1.1-.4ZM1117.5,809.7l-.8.6c2.5,3,4.7,6.3,6.5,9.8l.9-.5c-.5-.9-1-1.8-1.5-2.6h0c0,0,0-.1,0-.2h0c-.1-.2-.2-.4-.3-.6h0s0,0,0,0h0s0,0,0,0h0s0,0,0,0h0s0,0,0,0h0s0,0,0,0h0s0,0,0,0c0,0,0,0,0,0,0,0,0,0,0,0h0s0,0,0,0h0s0,0,0,0c0,0,0,0,0,0,0,0,0,0,0,0,0,0,0,0,0,0s0,0,0,0c0,0,0,0,0,0,0,0,0,0,0,0,0,0,0,0,0,0,0,0,0,0,0,0,0,0,0,0,0,0h0s0,0,0,0h0s0,0,0,0c0,0,0,0,0,0,0,0,0,0,0,0h0s0,0,0,0h0s0,0,0,0h0s0,0,0,0h0c0,0-.1-.2-.2-.3h0s0,0,0,0h0s0,0,0,0h0s0,0,0,0h0s0,0,0,0h0s0,0,0,0h0s0,0,0,0h0s0,0,0,0h0s0,0,0,0h0s0,0,0,0h0s0,0,0,0h0s0,0,0,0h0c-.9-1.3-1.8-2.6-2.7-3.8h0s0,0,0,0h0s0,0,0,0h0s0,0,0,0h0s0,0,0,0h0s0,0,0,0h0s0,0,0,0h0s0,0,0,0h0s0,0,0,0h0s0,0,0,0h0c0,0-.1-.2-.2-.2h0s0,0,0,0h0s0,0,0,0h0s0,0,0,0c0,0,0,0,0,0,0,0,0,0,0,0h0s0,0,0,0h0s0,0,0,0h0s0,0,0,0h0s0,0,0,0h0s0,0,0,0h0s0,0,0,0h0s0,0,0,0h0s0,0,0,0h0s0,0,0,0h0s0,0,0,0h0s0,0,0,0h0s0,0,0-.1h-.2ZM1099.1,794.6l-.5.9c3.5,1.8,6.8,4,9.8,6.5l.6-.8h0s0,0,0,0h0s0,0,0,0h0s0,0,0,0h0s0,0,0,0h0s0,0,0,0h0s0,0,0,0h0s0,0,0,0h0s0,0,0,0h0s0,0,0,0h0s0,0,0,0h0s0,0,0,0h0s0,0,0,0h0s0,0,0,0h0s0,0,0,0h0s0,0,0,0h0s0,0,0,0h0s0,0,0,0c0,0,0,0,0,0,0,0,0,0,0,0,0,0,0,0,0,0,0,0,0,0,0,0,0,0,0,0,0,0,0,0,0,0,0,0h0s0,0,0,0h0s0,0,0,0h0s0,0,0,0h0s0,0,0,0c0,0,0,0,0,0h0s0,0,0,0h0s0,0,0,0h0s0,0,0,0h0s0,0,0,0h0s0,0,0,0h0s0,0,0,0h0s0,0,0,0h0s0,0,0,0h0s0,0,0,0h0s0,0,0,0h0s0,0,0,0h0s0,0,0,0h0c-.2-.1-.3-.3-.5-.4h0s0,0,0,0h0s0,0,0,0h0c-2.3-1.7-4.7-3.3-7.2-4.6h0s0,0,0,0h0s0,0,0,0h0s0,0,0,0h0s0,0,0,0h0s0,0,0,0h0s0,0,0,0h0s0,0,0,0h0c-.2,0-.3-.2-.4-.2h0v-.2ZM1076.2,788v1c3.8.3,7.7,1,11.5,2.1l.3-1c-1.8-.5-3.7-1-5.6-1.3h-.3s0,0,0,0c0,0,0,0,0,0h-5c-.2,0-.4,0-.6,0h0l-.3-.8Z"/>
      <rect class="cls-17" x="776.5" y="774.3" width="214" height="30.4" rx="15" ry="15"/>
      <circle class="cls-3" cx="743.5" cy="857.7" r="25"/>
      <circle class="cls-16" cx="901.5" cy="857.7" r="25"/>
      <path class="cls-17" d="M727.5,951.4h348c33.1,0,60,26.9,60,60h0c0,33.1-26.9,60-60,60h-348c-33.1,0-60-26.9-60-60h0c0-33.1,26.9-60,60-60Z"/>
      <path class="cls-18" d="M1075.5,951.4h-12v1h12v-1h0ZM1051.5,951.4h-12v1h12v-1h0ZM1027.5,951.4h-12v1h12v-1h0ZM1003.5,951.4h-12v1h12v-1h0ZM979.5,951.4h-12v1h12v-1h0ZM955.5,951.4h-12v1h12v-1h0ZM931.5,951.4h-12v1h12v-1h0ZM907.5,951.4h-12v1h12v-1h0ZM883.5,951.4h-12v1h12v-1h0ZM859.5,951.4h-12v1h12v-1h0ZM835.5,951.4h-12v1h12v-1h0ZM811.5,951.4h-12v1h12v-1h0ZM787.5,951.4h-12v1h12v-1h0ZM763.5,951.4h-12v1h12v-1h0ZM739.5,951.4h-12v1h12v-1h0ZM715.6,952.6c-.9.2-1.7.4-2.6.6h-.9s0,0,0,0h0s0,0,0,0h0s0,0,0,0h0s0,0,0,0h0s0,0,0,0h0s0,0,0,0h0c-2.7.7-5.2,1.6-7.7,2.7l.4.9c3.6-1.5,7.4-2.7,11.2-3.5l-.2-1h0v.2ZM693.6,961.9c0,0-.2.1-.3.2h0s0,0,0,0h0s0,0,0,0h0s0,0,0,0h0s0,0,0,0h0s0,0,0,0h0s0,0,0,0h0s0,0,0,0h0s0,0,0,0h0s0,0,0,0h0s0,0,0,0h0s0,0,0,0h0s0,0,0,0h0s0,0,0,0h0s0,0,0,0h0s0,0,0,0h0s0,0,0,0h0s0,0,0,0h0s0,0,0,0h0s0,0,0,0h0c0,0-.1,0-.2.2h0s0,0,0,0h0s0,0,0,0h0s0,0,0,0h0s0,0,0,0h0s0,0,0,0h0s0,0,0,0h0s0,0,0,0h0s0,0,0,0h0s0,0,0,0h0s0,0,0,0h0s0,0,0,0h0s0,0,0,0h0s0,0,0,0h0s0,0,0,0h0s0,0,0,0h0s0,0,0,0h0s0,0,0,0h0s0,0,0,0h0s0,0,0,0h0c0,0-.1,0-.2.2h0s0,0,0,0h0s0,0,0,0h0s0,0,0,0h0s0,0,0,0h0s0,0,0,0h0s0,0,0,0h0s0,0,0,0h0s0,0,0,0h0s0,0,0,0h0s0,0,0,0h0s0,0,0,0h0s0,0,0,0h0s0,0,0,0h0s0,0,0,0h0s0,0,0,0h0s0,0,0,0h0s0,0,0,0h0c0,0-.2.2-.3.2h0s0,0,0,0h0s0,0,0,0h0s0,0,0,0h0s0,0,0,0h0s0,0,0,0h0s0,0,0,0h0s0,0,0,0h0s0,0,0,0h0s0,0,0,0h0s0,0,0,0h0s0,0,0,0h0s0,0,0,0h0s0,0,0,0h0s0,0,0,0h0s0,0,0,0h0s0,0,0,0h0s0,0,0,0h0c0,0-.2.2-.3.2h0s0,0,0,0h0s0,0,0,0h0s0,0,0,0h0s0,0,0,0h0s0,0,0,0h0s0,0,0,0h0s0,0,0,0h0s0,0,0,0h0s0,0,0,0h0s0,0,0,0h0s0,0,0,0h0s0,0,0,0h0s0,0,0,0h0s0,0,0,0h0s0,0,0,0h0s0,0,0,0h0c-.2.1-.3.2-.5.4h0s0,0,0,0h0s0,0,0,0h0s0,0,0,0h0s0,0,0,0h0s0,0,0,0h0s0,0,0,0h0s0,0,0,0h0c-.2.2-.5.4-.7.6h0s0,0,0,0h0c-1.1,1-2.2,2-3.2,3l.7.7c2.7-2.8,5.8-5.4,9-7.6l-.6-.8h0l-.3.6ZM677,979c-1.3,2-2.5,4.2-3.6,6.4h0c-.1.2-.2.5-.3.7h0s0,0,0,0h0s0,0,0,0h0s0,0,0,0h0s0,0,0,0h0s0,0,0,0h0s0,0,0,0h0s0,0,0,0h0s0,0,0,0h0s0,0,0,0h0s0,0,0,0h0s0,0,0,0h0s0,0,0,0h0s0,0,0,0h0s0,0,0,0h0s0,0,0,0h0s0,0,0,0h0s0,0,0,0h0s0,0,0,0h0s0,0,0,0h0s0,0,0,0h0s0,0,0,0h0s0,0,0,0h0s0,0,0,0h0s0,0,0,0h0s0,0,0,.1h0s0,0,0,0h0s0,0,0,0h0s0,0,0,0h0s0,0,0,0h0s0,0,0,0h0s0,0,0,0h0s0,0,0,0h0s0,0,0,0h0s0,0,0,0h0s0,0,0,0h0s0,0,0,0h0s0,0,0,0h0s0,0,0,0h0s0,0,0,0h0s0,0,0,0h0s0,0,0,0h0s0,0,0,0h0s0,0,0,0h0s0,0,0,0h0s0,0,0,0h0s0,0,0,0h0s0,0,0,0h0c-.2.5-.4.9-.6,1.4l.9.4c1.4-3.7,3.2-7.2,5.3-10.5l-.8-.5h-.3ZM668.4,1001.2c-.4,2.3-.7,4.6-.8,7h0c0,0,0,.2,0,.2h0v.2h0v.2h0v.2h0v.2h0v.2h0v.2h0v.2h0v.2h0v.2h0v.2h0v.2h0v.2h0v.2h0v.2h0v.2h0v.2h0v.2h0v.2h0v.2h0v.2h0c0,.4,0,.7,0,1h1c0-.6,0-1.2,0-1.7,0-3.4.3-6.8.8-10l-1-.2h0ZM670,1024.8l-1,.2h0v.2h0v.2h0v.2h0v.2h0v.2h0c0,.1,0,.2,0,.2h0s0,0,0,0h0v.2h0v.2h0v.2h0v.2h0v.2h0v.2h0v.2h0v.2h0v.2h0v.2h0v.2h0v.2h0v.2h0v.2h0c0,0,0,0,0,.1h0c0,.1,0,.1,0,.1h0v.2h0v.2h0v.2h0v.2h0v.2h0v.2h0v.2h0v.2h0v.2s0,0,0,0h0c0,.1,0,.2,0,.2h0s0,0,0,0h0s0,0,0,0h0s0,0,0,0h0s0,0,0,0h0s0,0,0,0h0s0,0,0,0h0s0,0,0,0h0c0,.3.2.5.3.8h0s0,0,0,0h0s0,0,0,0h0s0,0,0,0h0s0,0,0,0h0s0,0,0,0h0s0,0,0,0h0s0,0,0,0h0s0,0,0,0h0s0,0,0,0h0s0,0,0,0h0s0,0,0,0h0s0,0,0,0h0s0,0,0,0h0s0,0,0,0h0s0,0,0,0h0s0,0,0,0h0s0,0,0,0h0s0,0,0,0h0s0,0,0,0h0s0,0,0,0h0s0,0,0,0h0s0,0,0,0h0c.5,1.4,1.1,2.9,1.8,4.2l.9-.4c-1.6-3.6-2.9-7.3-3.8-11.2h1.4ZM679.8,1046.1l-.8.6c2.4,3.2,5,6.2,8,8.9l.7-.7c-2.9-2.7-5.5-5.6-7.8-8.8h0ZM697.1,1062l-.5.9c.6.4,1.3.8,1.9,1.1h0s0,0,0,0h0s0,0,.1,0h0s0,0,0,0h0s0,0,0,0h0c.1,0,.2.1.3.2,0,0,0,0,0,0,0,0,0,0,0,0,0,0,0,0,0,0h0s0,0,0,0c0,0,0,0,0,0,0,0,0,0,0,0h0s0,0,0,0h0s0,0,0,0h0s0,0,0,0h0s0,0,0,0h0s0,0,0,0h0s0,0,0,0h0s0,0,0,0h0s0,0,0,0h0s0,0,0,0h0s0,0,0,0h0s0,0,0,0h0s0,0,0,0h0s0,0,0,0h0s0,0,0,0h0s0,0,0,0h0c2.4,1.2,4.9,2.3,7.5,3.3l.3-.9c-3.7-1.3-7.3-3-10.7-5h0ZM719.2,1069.8v1c1.9.3,4,.5,6.1.6h5.7v-1h-3.5c-2.8,0-5.6-.2-8.3-.6h0ZM755,1070.4h-12v1h12v-1h0ZM779,1070.4h-12v1h12v-1h0ZM803,1070.4h-12v1h12v-1h0ZM827,1070.4h-12v1h12v-1h0ZM851,1070.4h-12v1h12v-1h0ZM875,1070.4h-12v1h12v-1h0ZM899,1070.4h-12v1h12v-1h0ZM923,1070.4h-12v1h12v-1h0ZM947,1070.4h-12v1h12v-1h0ZM971,1070.4h-12v1h12v-1h0ZM995,1070.4h-12v1h12v-1h0ZM1019,1070.4h-12v1h12v-1h0ZM1043,1070.4h-12v1h12v-1h0ZM1067,1070.4h-12v1h12v-1h0ZM1090.6,1068.5c-3.8,1-7.7,1.6-11.6,1.8v1c1,0,1.9-.1,2.9-.2h.3c2.1-.2,4.2-.6,6.2-1h.4s0,0,0,0h.6s0,0,0,0h0s0,0,0,0h0c.4,0,.9-.2,1.3-.3l-.2-1h0v-.3ZM1111.6,1058.1c-3.1,2.4-6.5,4.5-10,6.2l.4.9c.2,0,.4-.2.6-.3h0s0,0,0,0h0s0,0,0,0h0s0,0,0,0h0s0,0,0,0h0s0,0,0,0h0s0,0,0,0h0s0,0,0,0h0s0,0,0,0h0s0,0,0,0h0s0,0,0,0h0s0,0,0,0h0s0,0,0,0h0s0,0,0,0h0s0,0,0,0h0s0,0,0,0h0s0,0,0,0h0c.1,0,.2-.1.4-.2h0s0,0,0,0h0s0,0,0,0h0s0,0,0,0h0s0,0,0,0h0s0,0,0,0h0s0,0,0,0h0s0,0,0,0h0s0,0,0,0h0s0,0,0,0h0s0,0,0,0h0s0,0,0,0h0s0,0,0,0h0s0,0,0,0h0s0,0,0,0h0s0,0,0,0h0s0,0,0,0h0s0,0,0,0h0s0,0,0,0h0s0,0,0,0h0s0,0,0,0h0c0,0,.2-.1.3-.2h0s0,0,0,0h0s0,0,0,0h0s0,0,0,0h0s0,0,0,0h0s0,0,0,0h0s0,0,0,0h0s0,0,0,0h0s0,0,0,0h0s0,0,0,0h0s0,0,0,0h0s0,0,0,0h0s0,0,0,0c0,0,0,0,0,0h0s0,0,0,0h0s0,0,0,0h0s0,0,0,0h0s0,0,0,0h0s0,0,0,0h0s0,0,0,0h0s0,0,0,0h0s0,0,0,0h0s0,0,0,0h0c0,0,.2,0,.3-.2h0s0,0,0,0h0s0,0,0,0h0s0,0,0,0h0s0,0,0,0h0s0,0,0,0h0s0,0,0,0h0s0,0,0,0h0s0,0,0,0h0s0,0,0,0h0s0,0,0,0h0s0,0,0,0h0s0,0,0,0h0s0,0,0,0h0s0,0,0,0h0s0,0,0,0h0s0,0,0,0h0s0,0,0,0h0s0,0,0,0h0s0,0,0,0h0s0,0,0,0h0s0,0,0,0h0c0,0,.2-.1.3-.2h0s0,0,0,0h0s0,0,0,0h0s0,0,0,0h0s0,0,0,0h0s0,0,0,0h0s0,0,0,0h0s0,0,0,0h0s0,0,0,0h0s0,0,0,0h0s0,0,0,0h0s0,0,0,0h0s0,0,0,0h0s0,0,0,0h0s0,0,0,0h0s0,0,0,0h0s0,0,0,0h0s0,0,0,0h0s0,0,0,0h0s0,0,0,0h0s0,0,0,0h0s0,0,0,0h0c0,0,.2-.1.3-.2h0s0,0,0,0h0s0,0,0,0h0s0,0,0,0h0s0,0,0,0h0s0,0,0,0h0s0,0,0,0h0s0,0,0,0h0s0,0,0,0h0s0,0,0,0h0s0,0,0,0h0s0,0,0,0h0s0,0,0,0h0s0,0,0,0h0s0,0,0,0h0s0,0,0,0h0s0,0,0,0h0s0,0,0,0h0s0,0,0,0h0s0,0,0,0h0s0,0,0,0h0c0,0,.2-.1.3-.2h0s0,0,0,0h0s0,0,0,0h0s0,0,0,0h0s0,0,0,0h0s0,0,0,0h0s0,0,0,0h0s0,0,0,0h0s0,0,0,0h0s0,0,0,0h0s0,0,0,0h0s0,0,0,0h0s0,0,0,0h0s0,0,0,0h0s0,0,0,0h0s0,0,0,0h0s0,0,0,0h0s0,0,0,0h0s0,0,0,0h0c.1,0,.2-.2.4-.3h0s0,0,0,0h0s0,0,0,0h0s0,0,0,0h0s0,0,0,0h0s0,0,0,0h0s0,0,0,0h0s0,0,0,0h0s0,0,0,0h0s0,0,0,0h0s0,0,0,0h0s0,0,0,0h0s0,0,0,0h0s0,0,0,0h0s0,0,0,0h0s0,0,0,0h0s0,0,0,0h0s0,0,0,0h0s0,0,0,0h0s0,0,0,0h0c0,0,.2-.1.3-.2h0s0,0,0,0h0s0,0,0,0h0s0,0,0,0h0s0,0,0,0h0s0,0,0,0h0s0,0,0,0h0s0,0,0,0h0s0,0,0,0h0s0,0,0,0h0s0,0,0,0h0s0,0,0,0h0s0,0,0,0h0s0,0,0,0h0s0,0,0,0h0s0,0,0,0h0s0,0,0,0h0s0,0,0,0h0s0,0,0,0h0s0,0,0,0h0s0,0,0,0h0s0,0,0,0h0s0,0,0,0h0s0,0,0,0h0c0,0,.1,0,.2-.1t0,0c0,0,0,0,0,0l-.6-.8h0l.8-.8ZM1126.9,1040.3c-1.9,3.4-4.2,6.7-6.8,9.6l.8.7c2.6-3,4.9-6.3,6.9-9.8l-.9-.5h0ZM1134.1,1018c-.4,3.9-1.3,7.8-2.5,11.5l.9.3c.4-1.2.7-2.4,1-3.6h0s0,0,0,0h0s0,0,0,0h0c0,0,0-.1,0-.1h0v-.2h0c.6-2.5,1.1-5.1,1.4-7.7h-1c0-.1,0-.2,0-.2ZM1133.1,994.4l-1,.3c1.1,3.8,1.8,7.7,2.2,11.6h1v-.2h0v-.2h0v-.2h0v-.2h0v-.2h0v-.2h0v-.2h0v-.2h0v-.2h0v-.2h0v-.2h0v-.2h0v-.2h0v-.2h0v-.2h0v-.2h0v-.2h0v-.2h0v-.2h0v-.2h0v-.2h0v-.2h0v-.2h0v-.2h0v-.2h0v-.2h0v-.2h0v-.2h0v-.2h0v-.2h0v-.2h0v-.2h0v-.2h0v-.2h0v-.2h0v-.2h0v-.2h0v-.2h0v-.2h0v-.2h0v-.2h0v-.2h0v-.2h0v-.2h0v-.2h0c-.3-1.5-.7-3-1.1-4.4h0l-1.1-.2ZM1121.9,973.3l-.8.6c2.5,3,4.7,6.3,6.5,9.8l.9-.5c-1.2-2.3-2.6-4.5-4-6.5h0s0,0,0,0h0s0,0,0,0h0s0,0,0,0h0s0,0,0,0h0s0,0,0,0h0s0,0,0,0h0s0,0,0,0h0s0,0,0,0h0s0,0,0,0h0s0,0,0,0h0s0,0,0,0h0s0,0,0,0c0,0,0,0,0,0,0,0,0,0,0,0,0,0,0,0,0,0s0,0,0,0c0,0,0,0,0,0,0,0,0,0,0,0,0,0,0,0,0,0h0s0,0,0,0h0s0,0,0,0h0c-.7-.9-1.4-1.9-2.1-2.8h0ZM1103.4,958.3l-.5.9c3.5,1.8,6.8,4,9.8,6.5l.6-.8c-.5-.4-1.1-.9-1.7-1.3h0s0,0,0,0h0s0,0,0,0c0,0,0,0,0,0h0s0,0,0,0h0s0,0,0,0c0,0,0,0,0,0,0,0,0,0,0,0,0,0,0,0,0,0,0,0,0,0,0,0,0,0,0,0,0,0,0,0,0,0,0,0,0,0,0,0,0,0,0,0,0,0,0,0,0,0,0,0,0,0h0s0,0,0,0c0,0,0,0,0,0h0s0,0,0,0h0s0,0,0,0h0s0,0,0,0h0s0,0,0,0h0s0,0,0,0h0s0,0,0,0h0c-2.4-1.8-5-3.4-7.7-4.8h0ZM1080.5,951.6v1c3.8.3,7.7,1,11.5,2.1l.3-1c0,0-.1,0-.2,0h0s0,0,0,0h0s0,0,0,0h0s0,0,0,0h0s0,0,0,0h0s0,0,0,0h0s0,0,0,0h0s0,0,0,0h0s0,0,0,0h0s0,0,0,0h0s0,0,0,0h0s0,0,0,0h0s0,0,0,0h0s0,0,0,0h0s0,0,0,0h0s0,0,0,0h0s0,0,0,0h0s0,0,0,0h0s0,0,0,0h-1.8s0,0,0,0h-1.8s0,0,0,0h0c-1.1-.2-2.2-.4-3.3-.6h-.1s0,0,0,0h0c0,0-.1,0-.2,0h0s0,0,0,0h-2.5c0,0-.2,0-.3,0h0l-.5-1.2Z"/>
      <rect class="cls-17" x="780.9" y="937.9" width="234.1" height="30.4" rx="15" ry="15"/>
      <circle class="cls-16" cx="744" cy="687" r="25"/>
      <circle class="cls-16" cx="902" cy="687" r="25"/>
      <circle class="cls-16" cx="1060" cy="687" r="25"/>
      <circle class="cls-2" cx="902" cy="1034" r="25"/>
      <g id="location">
        <path class="cls-5" d="M647.2,72.2c2,0,3.7,1.7,3.7,3.7s-1.7,3.7-3.7,3.7-3.7-1.7-3.7-3.7,1.7-3.7,3.7-3.7M647.2,69.8c-3.4,0-6.2,2.8-6.2,6.2s2.8,6.2,6.2,6.2,6.2-2.8,6.2-6.2-2.8-6.2-6.2-6.2Z"/>
        <path class="cls-7" d="M647.2,64.8c6,0,11,4.7,11.1,10.8,0,2.3-.8,4.6-2.2,6.4h0l-8.9,13-8.8-12.9h0c-1.5-1.8-2.3-4.2-2.3-6.5.1-6,5.1-10.8,11.1-10.8M647.2,62.4c-7.4,0-13.5,5.8-13.6,13.2,0,2.9,1,5.7,2.7,7.9l10.9,15.9,10.9-15.9c1.8-2.3,2.7-5.1,2.7-7.9,0-7.4-6.2-13.3-13.6-13.2h0Z"/>
        <rect id="_Transparent_Rectangle_" class="cls-1" x="627.3" y="60" width="39.5" height="39.5"/>
      </g>
      <g id="virtual-machine">
        <path class="cls-5" d="M651.8,129.3h-9.9c-1.4,0-2.5,1.1-2.5,2.5v16.1c0,1.4,1.1,2.5,2.5,2.5h9.9c1.4,0,2.5-1.1,2.5-2.5v-16.1c0-1.4-1.1-2.5-2.5-2.5ZM651.8,131.8v3.7h-9.9v-3.7h9.9ZM651.8,138v3.7h-9.9v-3.7h9.9ZM642,147.9v-3.7h9.9v3.7h-9.9Z"/>
        <path class="cls-5" d="M659.1,125.8h0c-1-5-4.8-8.8-9.8-9.8-6.7-1.3-13.2,3.1-14.5,9.8h0c-7.5,1.4-11.2,11.5-2.7,17.9.4.3,1,.5,1.5.5h3.5v-2.5h-2c-.3,0-.5,0-.8-.2-3.5-1.5-5-4.7-4.6-7.6.5-3,2.8-5.3,5.8-5.8l1.3-.2c0,0,.1,0,.1-.1l.2-1.2c.8-4.3,4.2-7.6,8.5-8.3,1.2-.2,2.4-.1,3.5.2,3.9.9,6.9,4.1,7.6,8.1l.2,1.2c0,0,0,.1.1.1l1.3.2c1.4.2,2.8.9,3.8,1.9,3.5,3.5,2.4,9.8-3.2,11.5-.2,0-.4,0-.6,0h-1.5v2.5h3.9c.6,0,1.2-.2,1.7-.6,7.9-7,4-16.4-3.2-17.8h0Z"/>
        <rect id="_Transparent_Rectangle_-2" class="cls-1" x="627.1" y="113.3" width="39.5" height="39.5"/>
      </g>
      <g id="settings">
        <path class="cls-5" d="M168.3,134v-1.9l2.4-2.1c.9-.8,1.1-2.1.5-3.2l-2.9-4.9c-.4-.8-1.2-1.2-2.1-1.2s-.5,0-.8.1l-3,1c-.5-.3-1.1-.7-1.6-.9l-.6-3.1c-.2-1.2-1.3-2-2.5-2h-5.8c-1.2,0-2.2.8-2.5,2l-.6,3.1c-.6.3-1.1.6-1.6.9l-2.9-1.1c-.3,0-.5,0-.8,0-.9,0-1.7.5-2.1,1.2l-2.9,4.9c-.6,1-.4,2.3.5,3.1l2.3,2.1v1.9l-2.3,2.1c-.9.8-1.1,2.1-.5,3.2l2.9,4.9c.4.8,1.2,1.2,2.1,1.2s.5,0,.8-.1l3-1c.5.4,1.1.7,1.6.9l.6,3.1c.2,1.2,1.3,2,2.5,2h5.8c1.2,0,2.2-.8,2.5-2l.6-3.1c.6-.3,1.1-.6,1.6-.9l3,1c.2,0,.5.1.8.1.9,0,1.7-.5,2.1-1.2l2.8-4.9c.6-1,.4-2.3-.5-3.1l-2.3-2.1h0ZM166.2,142.9l-4.2-1.4c-1,.8-2.1,1.5-3.4,1.9l-.9,4.4h-5.8l-.9-4.4c-1.2-.4-2.3-1.1-3.3-1.9l-4.2,1.4-2.9-4.9,3.4-3c-.2-1.3-.2-2.6,0-3.9l-3.4-3.1,2.9-4.9,4.2,1.4c1-.8,2.1-1.5,3.4-1.9l.9-4.4h5.8l.9,4.4c1.2.4,2.3,1.1,3.3,1.9l4.2-1.4,2.9,4.9-3.4,3c.2,1.3.2,2.6,0,3.9l3.4,3.1-2.9,4.9Z"/>
        <path class="cls-5" d="M154.9,140.4c-4.6,0-8.2-4.2-7.2-9,.6-2.8,2.9-5.1,5.6-5.7,4.8-1,9,2.6,9,7.2,0,4.1-3.2,7.4-7.3,7.4h-.1ZM154.9,127.7c-2.7,0-4.9,2.1-4.9,4.7v.2c0,2.7,2.1,4.9,4.7,4.9h.2c2.7,0,4.9-2.1,4.9-4.7v-.2c0-2.7-2.1-4.9-4.7-4.9h-.2Z"/>
        <rect id="_Transparent_Rectangle_-3" class="cls-1" x="135" y="113.3" width="39.5" height="39.5"/>
      </g>
      <image id="Dev-Services-Icons_x5F_roks-uiIcon" class="cls-14" width="134" height="134" transform="translate(136 60) scale(.3)" xlink:href="../../../../Library/Application Support/Adobe/Creative Cloud Libraries/LIBS/04AA044D5F6BCF6C0A495FBF_ibm.com/collaborated/dcx/bc27a47e-f0c6-443e-b319-eaf974e48c62/components/ced746eb-f5ec-410d-8f11-c26703bb2886.png"/>
      <circle class="cls-2" cx="1060" cy="1034" r="25"/>
      <circle class="cls-2" cx="744" cy="1034" r="25"/>
      <circle class="cls-3" cx="277" cy="670" r="25"/>
      <circle class="cls-3" cx="324" cy="720" r="25"/>
      <circle class="cls-16" cx="433" cy="673" r="25"/>
      <circle class="cls-3" cx="480" cy="723" r="25"/>
      <text class="cls-12" transform="translate(222.5 504.9)"><tspan x="0" y="0">Prod cluster</tspan></text>
      <g class="cls-14">
        <text class="cls-11" transform="translate(157 640.9)"><tspan x="0" y="0">W</tspan></text>
        <text class="cls-12" transform="translate(178.1 640.9)"><tspan x="0" y="0">or</tspan></text>
        <text class="cls-9" transform="translate(200.3 640.9)"><tspan x="0" y="0">k</tspan></text>
        <text class="cls-12" transform="translate(212.6 640.9)"><tspan x="0" y="0">er pool </tspan></text>
        <text class="cls-12" transform="translate(293.2 640.9)"><tspan x="0" y="0">f</tspan></text>
        <text class="cls-12" transform="translate(300.9 640.9)"><tspan x="0" y="0">or Finan</tspan></text>
        <text class="cls-12" transform="translate(388.3 640.9)"><tspan x="0" y="0">c</tspan></text>
        <text class="cls-12" transform="translate(400.2 640.9)"><tspan x="0" y="0">e</tspan></text>
      </g>
      <g class="cls-14">
        <text class="cls-11" transform="translate(180.2 802.5)"><tspan x="0" y="0">W</tspan></text>
        <text class="cls-12" transform="translate(201.2 802.5)"><tspan x="0" y="0">or</tspan></text>
        <text class="cls-9" transform="translate(223.5 802.5)"><tspan x="0" y="0">k</tspan></text>
        <text class="cls-12" transform="translate(235.7 802.5)"><tspan x="0" y="0">er pool </tspan></text>
        <text class="cls-12" transform="translate(316.3 802.5)"><tspan x="0" y="0">f</tspan></text>
        <text class="cls-12" transform="translate(324 802.5)"><tspan x="0" y="0">or HR</tspan></text>
      </g>
      <g class="cls-14">
        <text class="cls-12" transform="translate(105.7 567.6)"><tspan x="0" y="0">Z</tspan></text>
        <text class="cls-12" transform="translate(119.5 567.6)"><tspan x="0" y="0">one 1</tspan></text>
      </g>
      <g class="cls-14">
        <text class="cls-12" transform="translate(261.7 567.6)"><tspan x="0" y="0">Z</tspan></text>
        <text class="cls-12" transform="translate(275.5 567.6)"><tspan x="0" y="0">one 2</tspan></text>
      </g>
      <g class="cls-14">
        <text class="cls-12" transform="translate(417.7 567.6)"><tspan x="0" y="0">Z</tspan></text>
        <text class="cls-12" transform="translate(431.5 567.6)"><tspan x="0" y="0">one 3</tspan></text>
      </g>
      <g class="cls-14">
        <text class="cls-12" transform="translate(831.3 498.5)"><tspan x="0" y="0">D</tspan></text>
        <text class="cls-12" transform="translate(847.4 498.5)"><tspan x="0" y="0">e</tspan></text>
        <text class="cls-12" transform="translate(860.4 498.5)"><tspan x="0" y="0">v clu</tspan></text>
        <text class="cls-12" transform="translate(910.1 498.5)"><tspan x="0" y="0">s</tspan></text>
        <text class="cls-12" transform="translate(921.6 498.5)"><tspan x="0" y="0">t</tspan></text>
        <text class="cls-12" transform="translate(929.9 498.5)"><tspan x="0" y="0">er</tspan></text>
      </g>
      <g class="cls-14">
        <text class="cls-11" transform="translate(758.6 634.5)"><tspan x="0" y="0">W</tspan></text>
        <text class="cls-12" transform="translate(779.6 634.5)"><tspan x="0" y="0">or</tspan></text>
        <text class="cls-9" transform="translate(801.8 634.5)"><tspan x="0" y="0">k</tspan></text>
        <text class="cls-12" transform="translate(814.1 634.5)"><tspan x="0" y="0">er pool </tspan></text>
        <text class="cls-12" transform="translate(894.7 634.5)"><tspan x="0" y="0">f</tspan></text>
        <text class="cls-12" transform="translate(902.4 634.5)"><tspan x="0" y="0">or Finan</tspan></text>
        <text class="cls-12" transform="translate(989.8 634.5)"><tspan x="0" y="0">c</tspan></text>
        <text class="cls-12" transform="translate(1001.7 634.5)"><tspan x="0" y="0">e</tspan></text>
      </g>
      <g class="cls-14">
        <text class="cls-11" transform="translate(781.7 796.2)"><tspan x="0" y="0">W</tspan></text>
        <text class="cls-12" transform="translate(802.7 796.2)"><tspan x="0" y="0">or</tspan></text>
        <text class="cls-9" transform="translate(825 796.2)"><tspan x="0" y="0">k</tspan></text>
        <text class="cls-12" transform="translate(837.2 796.2)"><tspan x="0" y="0">er pool </tspan></text>
        <text class="cls-12" transform="translate(917.8 796.2)"><tspan x="0" y="0">f</tspan></text>
        <text class="cls-12" transform="translate(925.5 796.2)"><tspan x="0" y="0">or HR</tspan></text>
      </g>
      <g class="cls-14">
        <text class="cls-12" transform="translate(707.2 561.3)"><tspan x="0" y="0">Z</tspan></text>
        <text class="cls-12" transform="translate(721 561.3)"><tspan x="0" y="0">one 1</tspan></text>
      </g>
      <g class="cls-14">
        <text class="cls-12" transform="translate(863.2 561.3)"><tspan x="0" y="0">Z</tspan></text>
        <text class="cls-12" transform="translate(877 561.3)"><tspan x="0" y="0">one 2</tspan></text>
      </g>
      <g class="cls-14">
        <text class="cls-12" transform="translate(1019.2 561.3)"><tspan x="0" y="0">Z</tspan></text>
        <text class="cls-12" transform="translate(1033 561.3)"><tspan x="0" y="0">one 3</tspan></text>
      </g>
      <g class="cls-14">
        <text class="cls-11" transform="translate(786.1 959.8)"><tspan x="0" y="0">W</tspan></text>
        <text class="cls-12" transform="translate(807.1 959.8)"><tspan x="0" y="0">or</tspan></text>
        <text class="cls-9" transform="translate(829.3 959.8)"><tspan x="0" y="0">k</tspan></text>
        <text class="cls-12" transform="translate(841.6 959.8)"><tspan x="0" y="0">er pool </tspan></text>
        <text class="cls-12" transform="translate(922.2 959.8)"><tspan x="0" y="0">f</tspan></text>
        <text class="cls-12" transform="translate(929.9 959.8)"><tspan x="0" y="0">or Docs</tspan></text>
      </g>
      <g class="cls-14">
        <text class="cls-10" transform="translate(147.7 441.8)"><tspan x="0" y="0">R</tspan></text>
        <text class="cls-12" transform="translate(162.7 441.8)"><tspan x="0" y="0">esou</tspan></text>
        <text class="cls-12" transform="translate(214.7 441.8)"><tspan x="0" y="0">r</tspan></text>
        <text class="cls-12" transform="translate(223.3 441.8)"><tspan x="0" y="0">c</tspan></text>
        <text class="cls-12" transform="translate(235.3 441.8)"><tspan x="0" y="0">e g</tspan></text>
        <text class="cls-12" transform="translate(266.8 441.8)"><tspan x="0" y="0">r</tspan></text>
        <text class="cls-12" transform="translate(275.5 441.8)"><tspan x="0" y="0">oup </tspan></text>
        <text class="cls-12" transform="translate(322.1 441.8)"><tspan x="0" y="0">f</tspan></text>
        <text class="cls-12" transform="translate(329.8 441.8)"><tspan x="0" y="0">or </tspan></text>
        <text class="cls-12" transform="translate(357.7 441.8)"><tspan x="0" y="0">P</tspan></text>
        <text class="cls-12" transform="translate(372 441.8)"><tspan x="0" y="0">r</tspan></text>
        <text class="cls-12" transform="translate(380.7 441.8)"><tspan x="0" y="0">oduction</tspan></text>
      </g>
      <g class="cls-14">
        <text class="cls-10" transform="translate(729 441.8)"><tspan x="0" y="0">R</tspan></text>
        <text class="cls-12" transform="translate(744 441.8)"><tspan x="0" y="0">esou</tspan></text>
        <text class="cls-12" transform="translate(795.9 441.8)"><tspan x="0" y="0">r</tspan></text>
        <text class="cls-12" transform="translate(804.6 441.8)"><tspan x="0" y="0">c</tspan></text>
        <text class="cls-12" transform="translate(816.5 441.8)"><tspan x="0" y="0">e g</tspan></text>
        <text class="cls-12" transform="translate(848.1 441.8)"><tspan x="0" y="0">r</tspan></text>
        <text class="cls-12" transform="translate(856.7 441.8)"><tspan x="0" y="0">oup </tspan></text>
        <text class="cls-12" transform="translate(903.4 441.8)"><tspan x="0" y="0">f</tspan></text>
        <text class="cls-12" transform="translate(911.1 441.8)"><tspan x="0" y="0">or D</tspan></text>
        <text class="cls-12" transform="translate(955.1 441.8)"><tspan x="0" y="0">ev</tspan></text>
        <text class="cls-12" transform="translate(979.7 441.8)"><tspan x="0" y="0">elopment</tspan></text>
      </g>
      <g class="cls-14">
        <text class="cls-12" transform="translate(759 991.6)"><tspan x="0" y="0">On</tspan></text>
        <text class="cls-12" transform="translate(789.7 991.6)"><tspan x="0" y="0">-</tspan></text>
        <text class="cls-12" transform="translate(799.5 991.6)"><tspan x="0" y="0">demand </tspan></text>
        <text class="cls-12" transform="translate(893.6 991.6)"><tspan x="0" y="0">w</tspan></text>
        <text class="cls-12" transform="translate(911.9 991.6)"><tspan x="0" y="0">or</tspan></text>
        <text class="cls-9" transform="translate(934.1 991.6)"><tspan x="0" y="0">k</tspan></text>
        <text class="cls-12" transform="translate(946.4 991.6)"><tspan x="0" y="0">er nodes</tspan></text>
      </g>
      <g class="cls-14">
        <text class="cls-15" transform="translate(110.1 676.2)"><tspan x="0" y="0">a</tspan></text>
      </g>
      <g class="cls-14">
        <text class="cls-15" transform="translate(271.1 676.2)"><tspan x="0" y="0">b</tspan></text>
      </g>
      <g class="cls-14">
        <text class="cls-15" transform="translate(427.1 678.2)"><tspan x="0" y="0">a</tspan></text>
      </g>
      <g class="cls-14">
        <text class="cls-15" transform="translate(158.1 726.2)"><tspan x="0" y="0">a</tspan></text>
      </g>
      <g class="cls-14">
        <text class="cls-15" transform="translate(317.1 726.2)"><tspan x="0" y="0">b</tspan></text>
      </g>
      <g class="cls-14">
        <text class="cls-15" transform="translate(474.1 728.2)"><tspan x="0" y="0">b</tspan></text>
      </g>
      <g class="cls-14">
        <text class="cls-15" transform="translate(136.1 870.8)"><tspan x="0" y="0">a</tspan></text>
      </g>
      <g class="cls-14">
        <text class="cls-15" transform="translate(293.1 870.8)"><tspan x="0" y="0">a</tspan></text>
      </g>
      <g class="cls-14">
        <text class="cls-15" transform="translate(452.1 870.8)"><tspan x="0" y="0">b</tspan></text>
      </g>
      <g class="cls-14">
        <text class="cls-15" transform="translate(737.7 692.2)"><tspan x="0" y="0">a</tspan></text>
      </g>
      <g class="cls-14">
        <text class="cls-15" transform="translate(896.7 692.2)"><tspan x="0" y="0">a</tspan></text>
      </g>
      <g class="cls-14">
        <text class="cls-15" transform="translate(1053.7 692.2)"><tspan x="0" y="0">a</tspan></text>
      </g>
      <g class="cls-14">
        <text class="cls-15" transform="translate(737.7 865.3)"><tspan x="0" y="0">b</tspan></text>
      </g>
      <g class="cls-14">
        <text class="cls-15" transform="translate(895.8 865.3)"><tspan x="0" y="0">a</tspan></text>
      </g>
      <g class="cls-14">
        <text class="cls-12" transform="translate(230.8 192.9)"><tspan x="0" y="0">3 </tspan></text>
        <text class="cls-12" transform="translate(250.9 192.9)"><tspan x="0" y="0">y</tspan></text>
        <text class="cls-12" transform="translate(262.7 192.9)"><tspan x="0" y="0">ear </tspan></text>
        <text class="cls-12" transform="translate(303.2 192.9)"><tspan x="0" y="0">c</tspan></text>
        <text class="cls-12" transform="translate(315.1 192.9)"><tspan x="0" y="0">ont</tspan></text>
        <text class="cls-12" transform="translate(350.6 192.9)"><tspan x="0" y="0">r</tspan></text>
        <text class="cls-12" transform="translate(359.3 192.9)"><tspan x="0" y="0">act</tspan></text>
      </g>
      <g class="cls-14">
        <text class="cls-12" transform="translate(748.8 192.9)"><tspan x="0" y="0">1 </tspan></text>
        <text class="cls-12" transform="translate(768.9 192.9)"><tspan x="0" y="0">y</tspan></text>
        <text class="cls-12" transform="translate(780.7 192.9)"><tspan x="0" y="0">ear </tspan></text>
        <text class="cls-12" transform="translate(821.2 192.9)"><tspan x="0" y="0">c</tspan></text>
        <text class="cls-12" transform="translate(833.1 192.9)"><tspan x="0" y="0">ont</tspan></text>
        <text class="cls-12" transform="translate(868.6 192.9)"><tspan x="0" y="0">r</tspan></text>
        <text class="cls-12" transform="translate(877.3 192.9)"><tspan x="0" y="0">act</tspan></text>
      </g>
      <g class="cls-14">
        <text class="cls-12" transform="translate(180.3 230.7)"><tspan x="0" y="0">10 </tspan></text>
        <text class="cls-12" transform="translate(214.8 230.7)"><tspan x="0" y="0">r</tspan></text>
        <text class="cls-12" transform="translate(223.5 230.7)"><tspan x="0" y="0">ese</tspan></text>
        <text class="cls-8" transform="translate(261.5 230.7)"><tspan x="0" y="0">r</tspan></text>
        <text class="cls-12" transform="translate(270.6 230.7)"><tspan x="0" y="0">v</tspan></text>
        <text class="cls-12" transform="translate(282.2 230.7)"><tspan x="0" y="0">ed </tspan></text>
        <text class="cls-12" transform="translate(315 230.7)"><tspan x="0" y="0">w</tspan></text>
        <text class="cls-12" transform="translate(333.3 230.7)"><tspan x="0" y="0">or</tspan></text>
        <text class="cls-9" transform="translate(355.5 230.7)"><tspan x="0" y="0">k</tspan></text>
        <text class="cls-12" transform="translate(367.8 230.7)"><tspan x="0" y="0">er nodes</tspan></text>
      </g>
      <g class="cls-14">
        <text class="cls-12" transform="translate(705.8 230.7)"><tspan x="0" y="0">5 </tspan></text>
        <text class="cls-12" transform="translate(725.9 230.7)"><tspan x="0" y="0">r</tspan></text>
        <text class="cls-12" transform="translate(734.6 230.7)"><tspan x="0" y="0">ese</tspan></text>
        <text class="cls-12" transform="translate(772.6 230.7)"><tspan x="0" y="0">r</tspan></text>
        <text class="cls-12" transform="translate(781.7 230.7)"><tspan x="0" y="0">v</tspan></text>
        <text class="cls-12" transform="translate(793.3 230.7)"><tspan x="0" y="0">ed </tspan></text>
        <text class="cls-12" transform="translate(826 230.7)"><tspan x="0" y="0">w</tspan></text>
        <text class="cls-12" transform="translate(844.3 230.7)"><tspan x="0" y="0">or</tspan></text>
        <text class="cls-9" transform="translate(866.6 230.7)"><tspan x="0" y="0">k</tspan></text>
        <text class="cls-12" transform="translate(878.8 230.7)"><tspan x="0" y="0">er nodes</tspan></text>
      </g>
      <g class="cls-14">
        <text class="cls-10" transform="translate(504.8 31.9)"><tspan x="0" y="0">R</tspan></text>
        <text class="cls-12" transform="translate(519.8 31.9)"><tspan x="0" y="0">ese</tspan></text>
        <text class="cls-8" transform="translate(557.8 31.9)"><tspan x="0" y="0">r</tspan></text>
        <text class="cls-12" transform="translate(566.9 31.9)"><tspan x="0" y="0">v</tspan></text>
        <text class="cls-12" transform="translate(578.5 31.9)"><tspan x="0" y="0">ation</tspan></text>
      </g>
      <g class="cls-14">
        <text class="cls-10" transform="translate(181.4 88)"><tspan x="0" y="0">R</tspan></text>
        <text class="cls-12" transform="translate(196.4 88)"><tspan x="0" y="0">ed Hat OpenShift on IBM Cloud</tspan></text>
      </g>
      <g class="cls-14">
        <text class="cls-12" transform="translate(181.7 138)"><tspan x="0" y="0">Sha</tspan></text>
        <text class="cls-12" transform="translate(222 138)"><tspan x="0" y="0">r</tspan></text>
        <text class="cls-12" transform="translate(230.7 138)"><tspan x="0" y="0">ed vi</tspan></text>
        <text class="cls-12" transform="translate(281.3 138)"><tspan x="0" y="0">r</tspan></text>
        <text class="cls-12" transform="translate(290.2 138)"><tspan x="0" y="0">tua</tspan></text>
        <text class="cls-12" transform="translate(325.1 138)"><tspan x="0" y="0">l</tspan></text>
        <text class="cls-12" transform="translate(331.8 138)"><tspan x="0" y="0">, b2.4x16 fl</tspan></text>
        <text class="cls-12" transform="translate(454.2 138)"><tspan x="0" y="0">av</tspan></text>
        <text class="cls-12" transform="translate(478.4 138)"><tspan x="0" y="0">or</tspan></text>
      </g>
      <g class="cls-14">
        <text class="cls-12" transform="translate(680.7 88)"><tspan x="0" y="0">W</tspan></text>
        <text class="cls-12" transform="translate(701.8 88)"><tspan x="0" y="0">ashing</tspan></text>
        <text class="cls-12" transform="translate(772.2 88)"><tspan x="0" y="0">t</tspan></text>
        <text class="cls-12" transform="translate(780.6 88)"><tspan x="0" y="0">on, DC mu</tspan></text>
        <text class="cls-12" transform="translate(891.1 88)"><tspan x="0" y="0">l</tspan></text>
        <text class="cls-12" transform="translate(897.5 88)"><tspan x="0" y="0">ti</tspan></text>
        <text class="cls-12" transform="translate(911.9 88)"><tspan x="0" y="0">z</tspan></text>
        <text class="cls-12" transform="translate(922.8 88)"><tspan x="0" y="0">one </tspan></text>
        <text class="cls-12" transform="translate(968.7 88)"><tspan x="0" y="0">r</tspan></text>
        <text class="cls-12" transform="translate(977.4 88)"><tspan x="0" y="0">egion</tspan></text>
      </g>
      <g class="cls-14">
        <text class="cls-12" transform="translate(681 138)"><tspan x="0" y="0">Cla</tspan></text>
        <text class="cls-12" transform="translate(715.2 138)"><tspan x="0" y="0">s</tspan></text>
        <text class="cls-12" transform="translate(726.8 138)"><tspan x="0" y="0">sic inf</tspan></text>
        <text class="cls-12" transform="translate(789.6 138)"><tspan x="0" y="0">r</tspan></text>
        <text class="cls-12" transform="translate(798.3 138)"><tspan x="0" y="0">a</tspan></text>
        <text class="cls-12" transform="translate(811.2 138)"><tspan x="0" y="0">s</tspan></text>
        <text class="cls-12" transform="translate(822.7 138)"><tspan x="0" y="0">tructu</tspan></text>
        <text class="cls-12" transform="translate(887.7 138)"><tspan x="0" y="0">r</tspan></text>
        <text class="cls-12" transform="translate(896.3 138)"><tspan x="0" y="0">e</tspan></text>
      </g>
      <g class="cls-14">
        <text class="cls-15" transform="translate(148.7 279.5)"><tspan x="0" y="0">a</tspan></text>
      </g>
      <g class="cls-14">
        <text class="cls-15" transform="translate(218.2 279.5)"><tspan x="0" y="0">a</tspan></text>
      </g>
      <g class="cls-14">
        <text class="cls-15" transform="translate(286.8 279.5)"><tspan x="0" y="0">a</tspan></text>
      </g>
      <g class="cls-14">
        <text class="cls-15" transform="translate(355.8 279.5)"><tspan x="0" y="0">a</tspan></text>
      </g>
      <g class="cls-14">
        <text class="cls-15" transform="translate(424.8 279.5)"><tspan x="0" y="0">a</tspan></text>
      </g>
      <g class="cls-14">
        <text class="cls-15" transform="translate(186.2 338.9)"><tspan x="0" y="0">a</tspan></text>
      </g>
      <g class="cls-14">
        <text class="cls-15" transform="translate(255.5 338.9)"><tspan x="0" y="0">a</tspan></text>
      </g>
      <g class="cls-14">
        <text class="cls-15" transform="translate(323.8 338.9)"><tspan x="0" y="0">a</tspan></text>
      </g>
      <g class="cls-14">
        <text class="cls-15" transform="translate(393.3 338.9)"><tspan x="0" y="0">a</tspan></text>
      </g>
      <g class="cls-14">
        <text class="cls-15" transform="translate(661.6 304.4)"><tspan x="0" y="0">b</tspan></text>
      </g>
      <g class="cls-14">
        <text class="cls-15" transform="translate(733.1 304.4)"><tspan x="0" y="0">b</tspan></text>
      </g>
      <g class="cls-14">
        <text class="cls-15" transform="translate(801.1 304.4)"><tspan x="0" y="0">b</tspan></text>
      </g>
      <g class="cls-14">
        <text class="cls-15" transform="translate(870.1 304.4)"><tspan x="0" y="0">b</tspan></text>
      </g>
      <g class="cls-14">
        <text class="cls-15" transform="translate(939.7 304.4)"><tspan x="0" y="0">b</tspan></text>
      </g>
    </g>
  </g>
</svg>