<svg width="1080" height="540" viewBox="0 0 1080 540" fill="none" xmlns="http://www.w3.org/2000/svg">
<rect width="1080" height="540" fill="#F4F4F4"/>
<rect x="192.5" y="48.5" width="559" height="263" fill="white"/>
<rect x="193" y="49" width="558" height="262" fill="white"/>
<rect x="193" y="49" width="558" height="262" fill="white"/>
<g clip-path="url(#clip0_1899_37546)">
<text fill="black" xml:space="preserve" style="white-space: pre" font-family="IBM Plex Sans" font-size="14" font-weight="600" letter-spacing="0.16px"><tspan x="208" y="77.25">Classic infrastructure</tspan></text>
<line x1="194" y1="48" x2="194" y2="96" stroke="#8D8D8D" stroke-width="4"/>
</g>
<rect x="192.5" y="48.5" width="559" height="263" stroke="#8D8D8D"/>
<rect x="48.5" y="476.5" width="15" height="15" fill="white" fill-opacity="0.01" style="mix-blend-mode:multiply"/>
<rect x="48.5" y="476.5" width="15" height="15" stroke="#697077"/>
<text fill="#525252" xml:space="preserve" style="white-space: pre" font-family="IBM Plex Sans" font-size="14" letter-spacing="0.0016em"><tspan x="72" y="489.25">Prescribed node</tspan></text>
<path d="M215 480L223 484L215 488V480Z" fill="#525252"/>
<mask id="mask0_1899_37546" style="mask-type:luminance" maskUnits="userSpaceOnUse" x="191" y="483" width="28" height="2">
<rect x="191" y="483" width="28" height="2" fill="white"/>
</mask>
<g mask="url(#mask0_1899_37546)">
<line x1="191" y1="484" x2="223" y2="484" stroke="#525252" stroke-dasharray="4 4"/>
</g>
<text fill="#525252" xml:space="preserve" style="white-space: pre" font-family="IBM Plex Sans" font-size="14" letter-spacing="0.0016em"><tspan x="231" y="489.25">Request to access</tspan></text>
<path d="M234 136L229 133.113V138.887L234 136ZM70.9643 136.5C71.2404 136.5 71.4643 136.276 71.4643 136C71.4643 135.724 71.2404 135.5 70.9643 135.5V136.5ZM74.8929 135.5C74.6167 135.5 74.3929 135.724 74.3929 136C74.3929 136.276 74.6167 136.5 74.8929 136.5V135.5ZM78.8214 136.5C79.0976 136.5 79.3214 136.276 79.3214 136C79.3214 135.724 79.0976 135.5 78.8214 135.5V136.5ZM82.75 135.5C82.4739 135.5 82.25 135.724 82.25 136C82.25 136.276 82.4739 136.5 82.75 136.5V135.5ZM86.6786 136.5C86.9547 136.5 87.1786 136.276 87.1786 136C87.1786 135.724 86.9547 135.5 86.6786 135.5V136.5ZM90.6071 135.5C90.331 135.5 90.1071 135.724 90.1071 136C90.1071 136.276 90.331 136.5 90.6071 136.5V135.5ZM94.5357 136.5C94.8119 136.5 95.0357 136.276 95.0357 136C95.0357 135.724 94.8119 135.5 94.5357 135.5V136.5ZM98.4643 135.5C98.1881 135.5 97.9643 135.724 97.9643 136C97.9643 136.276 98.1881 136.5 98.4643 136.5V135.5ZM102.393 136.5C102.669 136.5 102.893 136.276 102.893 136C102.893 135.724 102.669 135.5 102.393 135.5V136.5ZM106.321 135.5C106.045 135.5 105.821 135.724 105.821 136C105.821 136.276 106.045 136.5 106.321 136.5V135.5ZM110.25 136.5C110.526 136.5 110.75 136.276 110.75 136C110.75 135.724 110.526 135.5 110.25 135.5V136.5ZM114.179 135.5C113.902 135.5 113.679 135.724 113.679 136C113.679 136.276 113.902 136.5 114.179 136.5V135.5ZM118.107 136.5C118.383 136.5 118.607 136.276 118.607 136C118.607 135.724 118.383 135.5 118.107 135.5V136.5ZM122.036 135.5C121.76 135.5 121.536 135.724 121.536 136C121.536 136.276 121.76 136.5 122.036 136.5V135.5ZM125.964 136.5C126.24 136.5 126.464 136.276 126.464 136C126.464 135.724 126.24 135.5 125.964 135.5V136.5ZM129.893 135.5C129.617 135.5 129.393 135.724 129.393 136C129.393 136.276 129.617 136.5 129.893 136.5V135.5ZM133.821 136.5C134.098 136.5 134.321 136.276 134.321 136C134.321 135.724 134.098 135.5 133.821 135.5V136.5ZM137.75 135.5C137.474 135.5 137.25 135.724 137.25 136C137.25 136.276 137.474 136.5 137.75 136.5V135.5ZM141.679 136.5C141.955 136.5 142.179 136.276 142.179 136C142.179 135.724 141.955 135.5 141.679 135.5V136.5ZM145.607 135.5C145.331 135.5 145.107 135.724 145.107 136C145.107 136.276 145.331 136.5 145.607 136.5V135.5ZM149.536 136.5C149.812 136.5 150.036 136.276 150.036 136C150.036 135.724 149.812 135.5 149.536 135.5V136.5ZM153.464 135.5C153.188 135.5 152.964 135.724 152.964 136C152.964 136.276 153.188 136.5 153.464 136.5V135.5ZM157.393 136.5C157.669 136.5 157.893 136.276 157.893 136C157.893 135.724 157.669 135.5 157.393 135.5V136.5ZM161.321 135.5C161.045 135.5 160.821 135.724 160.821 136C160.821 136.276 161.045 136.5 161.321 136.5V135.5ZM165.25 136.5C165.526 136.5 165.75 136.276 165.75 136C165.75 135.724 165.526 135.5 165.25 135.5V136.5ZM169.179 135.5C168.902 135.5 168.679 135.724 168.679 136C168.679 136.276 168.902 136.5 169.179 136.5V135.5ZM173.107 136.5C173.383 136.5 173.607 136.276 173.607 136C173.607 135.724 173.383 135.5 173.107 135.5V136.5ZM177.036 135.5C176.76 135.5 176.536 135.724 176.536 136C176.536 136.276 176.76 136.5 177.036 136.5V135.5ZM180.964 136.5C181.24 136.5 181.464 136.276 181.464 136C181.464 135.724 181.24 135.5 180.964 135.5V136.5ZM184.893 135.5C184.617 135.5 184.393 135.724 184.393 136C184.393 136.276 184.617 136.5 184.893 136.5V135.5ZM188.821 136.5C189.098 136.5 189.321 136.276 189.321 136C189.321 135.724 189.098 135.5 188.821 135.5V136.5ZM192.75 135.5C192.474 135.5 192.25 135.724 192.25 136C192.25 136.276 192.474 136.5 192.75 136.5V135.5ZM196.679 136.5C196.955 136.5 197.179 136.276 197.179 136C197.179 135.724 196.955 135.5 196.679 135.5V136.5ZM200.607 135.5C200.331 135.5 200.107 135.724 200.107 136C200.107 136.276 200.331 136.5 200.607 136.5V135.5ZM204.536 136.5C204.812 136.5 205.036 136.276 205.036 136C205.036 135.724 204.812 135.5 204.536 135.5V136.5ZM208.464 135.5C208.188 135.5 207.964 135.724 207.964 136C207.964 136.276 208.188 136.5 208.464 136.5V135.5ZM212.393 136.5C212.669 136.5 212.893 136.276 212.893 136C212.893 135.724 212.669 135.5 212.393 135.5V136.5ZM216.321 135.5C216.045 135.5 215.821 135.724 215.821 136C215.821 136.276 216.045 136.5 216.321 136.5V135.5ZM220.25 136.5C220.526 136.5 220.75 136.276 220.75 136C220.75 135.724 220.526 135.5 220.25 135.5V136.5ZM224.179 135.5C223.902 135.5 223.679 135.724 223.679 136C223.679 136.276 223.902 136.5 224.179 136.5V135.5ZM228.107 136.5C228.383 136.5 228.607 136.276 228.607 136C228.607 135.724 228.383 135.5 228.107 135.5V136.5ZM232.036 135.5C231.76 135.5 231.536 135.724 231.536 136C231.536 136.276 231.76 136.5 232.036 136.5V135.5ZM69 136.5H70.9643V135.5H69V136.5ZM74.8929 136.5H78.8214V135.5H74.8929V136.5ZM82.75 136.5H86.6786V135.5H82.75V136.5ZM90.6071 136.5H94.5357V135.5H90.6071V136.5ZM98.4643 136.5H102.393V135.5H98.4643V136.5ZM106.321 136.5H110.25V135.5H106.321V136.5ZM114.179 136.5H118.107V135.5H114.179V136.5ZM122.036 136.5H125.964V135.5H122.036V136.5ZM129.893 136.5H133.821V135.5H129.893V136.5ZM137.75 136.5H141.679V135.5H137.75V136.5ZM145.607 136.5H149.536V135.5H145.607V136.5ZM153.464 136.5H157.393V135.5H153.464V136.5ZM161.321 136.5H165.25V135.5H161.321V136.5ZM169.179 136.5H173.107V135.5H169.179V136.5ZM177.036 136.5H180.964V135.5H177.036V136.5ZM184.893 136.5H188.821V135.5H184.893V136.5ZM192.75 136.5H196.679V135.5H192.75V136.5ZM200.607 136.5H204.536V135.5H200.607V136.5ZM208.464 136.5H212.393V135.5H208.464V136.5ZM216.321 136.5H220.25V135.5H216.321V136.5ZM224.179 136.5H228.107V135.5H224.179V136.5Z" fill="#8D8D8D"/>
<rect x="368.5" y="112.5" width="143" height="167" fill="white" fill-opacity="0.01" style="mix-blend-mode:multiply"/>
<rect x="369" y="113" width="142" height="166" fill="white"/>
<rect x="369" y="113" width="142" height="166" fill="#F4F4F4"/>
<g clip-path="url(#clip1_1899_37546)">
<text fill="black" xml:space="preserve" style="white-space: pre" font-family="IBM Plex Sans" font-size="14" font-weight="600" letter-spacing="0.16px"><tspan x="384" y="141.25">Worker node 1</tspan></text>
<line x1="370" y1="112" x2="370" y2="160" stroke="#8D8D8D" stroke-width="4"/>
</g>
<rect x="368.5" y="112.5" width="143" height="167" stroke="#8D8D8D"/>
<rect x="592.5" y="112.5" width="143" height="167" fill="white" fill-opacity="0.01" style="mix-blend-mode:multiply"/>
<rect x="593" y="113" width="142" height="166" fill="white"/>
<rect x="593" y="113" width="142" height="166" fill="#F4F4F4"/>
<g clip-path="url(#clip2_1899_37546)">
<text fill="black" xml:space="preserve" style="white-space: pre" font-family="IBM Plex Sans" font-size="14" font-weight="600" letter-spacing="0.16px"><tspan x="608" y="141.25">Worker node 2</tspan></text>
<line x1="594" y1="112" x2="594" y2="160" stroke="#8D8D8D" stroke-width="4"/>
</g>
<rect x="592.5" y="112.5" width="143" height="167" stroke="#8D8D8D"/>
<rect width="65" height="74" transform="translate(407.5 177)" fill="white" fill-opacity="0.01" style="mix-blend-mode:multiply"/>
<rect width="48" height="48" transform="translate(416 177)" fill="#8D8D8D"/>
<rect width="24" height="24" transform="translate(428 189)" fill="white" fill-opacity="0.01" style="mix-blend-mode:multiply"/>
<path d="M449 198H443V192H449V198ZM444.5 196.5H447.5V193.5H444.5V196.5Z" fill="white"/>
<path d="M440.75 200.25V195.75H434.75V206.25H445.25V200.25H440.75ZM436.25 197.25H439.25V200.25H436.25V197.25ZM439.25 204.75H436.25V201.75H439.25V204.75ZM443.75 204.75H440.75V201.75H443.75V204.75Z" fill="white"/>
<path d="M447.5 210H432.5C432.102 210 431.721 209.841 431.44 209.56C431.159 209.279 431 208.898 431 208.5V193.5C431 193.102 431.159 192.721 431.44 192.44C431.721 192.159 432.102 192 432.5 192H440V193.5H432.5V208.5H447.5V201H449V208.5C449 208.898 448.841 209.279 448.56 209.56C448.279 209.841 447.898 210 447.5 210Z" fill="white"/>
<text fill="black" xml:space="preserve" style="white-space: pre" font-family="IBM Plex Sans" font-size="14" font-weight="600" letter-spacing="0.16px"><tspan x="407.58" y="247.25">Container</tspan></text>
<rect width="65" height="74" transform="translate(631.5 177)" fill="white" fill-opacity="0.01" style="mix-blend-mode:multiply"/>
<rect width="48" height="48" transform="translate(640 177)" fill="#8D8D8D"/>
<rect width="24" height="24" transform="translate(652 189)" fill="white" fill-opacity="0.01" style="mix-blend-mode:multiply"/>
<path d="M673 198H667V192H673V198ZM668.5 196.5H671.5V193.5H668.5V196.5Z" fill="white"/>
<path d="M664.75 200.25V195.75H658.75V206.25H669.25V200.25H664.75ZM660.25 197.25H663.25V200.25H660.25V197.25ZM663.25 204.75H660.25V201.75H663.25V204.75ZM667.75 204.75H664.75V201.75H667.75V204.75Z" fill="white"/>
<path d="M671.5 210H656.5C656.102 210 655.721 209.841 655.44 209.56C655.159 209.279 655 208.898 655 208.5V193.5C655 193.102 655.159 192.721 655.44 192.44C655.721 192.159 656.102 192 656.5 192H664V193.5H656.5V208.5H671.5V201H673V208.5C673 208.898 672.841 209.279 672.56 209.56C672.279 209.841 671.898 210 671.5 210Z" fill="white"/>
<text fill="black" xml:space="preserve" style="white-space: pre" font-family="IBM Plex Sans" font-size="14" font-weight="600" letter-spacing="0.16px"><tspan x="631.58" y="247.25">Container</tspan></text>
<path fill-rule="evenodd" clip-rule="evenodd" d="M319.5 137L270.5 137V136L319.5 136C324.194 136 328 139.806 328 144.5V192.5C328 196.642 331.358 200 335.5 200H411V197.613L416.5 200.5L411 203.387V201H335.5C330.806 201 327 197.194 327 192.5V144.5C327 140.358 323.642 137 319.5 137Z" fill="#6F6F6F"/>
<path fill-rule="evenodd" clip-rule="evenodd" d="M551.994 289V208.908C551.994 204.758 555.334 201.394 559.453 201.394H634.531V203.785L640 200.893L634.531 198V200.392H559.453C554.784 200.392 551 204.205 551 208.908L551.086 289H551.994Z" fill="#6F6F6F"/>
<path fill-rule="evenodd" clip-rule="evenodd" d="M327.906 192V288.596C327.906 292.691 330.947 296.011 334.699 296.011H544.301C548.053 296.011 551.094 292.691 551.094 288.596H552C552 293.237 548.553 297 544.301 297H334.699C330.447 297 327 293.237 327 288.596V192H327.906Z" fill="#6F6F6F"/>
<rect width="48" height="74" transform="translate(48 110)" fill="white" fill-opacity="0.01" style="mix-blend-mode:multiply"/>
<rect width="48" height="48" transform="translate(48 110)" fill="white" fill-opacity="0.01" style="mix-blend-mode:multiply"/>
<circle cx="72" cy="134" r="24" fill="black"/>
<rect width="24" height="24" transform="translate(60 122)" fill="white" fill-opacity="0.01" style="mix-blend-mode:multiply"/>
<path d="M72 125C72.7417 125 73.4667 125.22 74.0834 125.632C74.7001 126.044 75.1807 126.63 75.4645 127.315C75.7484 128 75.8226 128.754 75.6779 129.482C75.5333 130.209 75.1761 130.877 74.6517 131.402C74.1272 131.926 73.459 132.283 72.7316 132.428C72.0042 132.573 71.2502 132.498 70.5649 132.215C69.8797 131.931 69.294 131.45 68.882 130.833C68.4699 130.217 68.25 129.492 68.25 128.75C68.25 127.755 68.6451 126.802 69.3483 126.098C70.0516 125.395 71.0054 125 72 125ZM72 123.5C70.9616 123.5 69.9466 123.808 69.0833 124.385C68.2199 124.962 67.547 125.782 67.1496 126.741C66.7523 127.7 66.6483 128.756 66.8509 129.774C67.0534 130.793 67.5535 131.728 68.2877 132.462C69.0219 133.197 69.9574 133.697 70.9758 133.899C71.9942 134.102 73.0498 133.998 74.0091 133.6C74.9684 133.203 75.7883 132.53 76.3652 131.667C76.9421 130.803 77.25 129.788 77.25 128.75C77.25 127.358 76.6969 126.022 75.7123 125.038C74.7277 124.053 73.3924 123.5 72 123.5Z" fill="white"/>
<path d="M79.5 144.5H78V140.75C78 140.258 77.903 139.77 77.7145 139.315C77.5261 138.86 77.2499 138.447 76.9017 138.098C76.5534 137.75 76.14 137.474 75.6851 137.285C75.2301 137.097 74.7425 137 74.25 137H69.75C68.7554 137 67.8016 137.395 67.0983 138.098C66.3951 138.802 66 139.755 66 140.75V144.5H64.5V140.75C64.5 139.358 65.0531 138.022 66.0377 137.038C67.0223 136.053 68.3576 135.5 69.75 135.5H74.25C75.6424 135.5 76.9777 136.053 77.9623 137.038C78.9469 138.022 79.5 139.358 79.5 140.75V144.5Z" fill="white"/>
<text fill="black" xml:space="preserve" style="white-space: pre" font-family="IBM Plex Sans" font-size="14" font-weight="600" letter-spacing="0.16px"><tspan x="56.7825" y="180.25">User</tspan></text>
<rect width="100" height="92" transform="translate(207 112)" fill="white" fill-opacity="0.01" style="mix-blend-mode:multiply"/>
<rect x="233.5" y="112.5" width="47" height="47" fill="#D9FBFB"/>
<path d="M234 113H280V159H234V113Z" fill="white"/>
<path d="M234 113H280V159H234V113Z" fill="#D9FBFB"/>
<rect width="24" height="24" transform="translate(245 124)" fill="white" fill-opacity="0.01" style="mix-blend-mode:multiply"/>
<path d="M263.75 136H257.75V133H256.25V136H250.25C249.852 136 249.471 136.159 249.19 136.44C248.908 136.721 248.75 137.102 248.75 137.5V140.5H250.25V137.5H256.25V140.5H257.75V137.5H263.75V140.5H265.25V137.5C265.249 137.102 265.091 136.721 264.81 136.44C264.529 136.159 264.147 136 263.75 136Z" fill="black"/>
<path d="M260 131.5V125.5H254V131.5H260ZM255.5 130V127H258.5V130H255.5Z" fill="black"/>
<path d="M264.5 142C264.036 142.001 263.584 142.146 263.206 142.415C262.828 142.683 262.542 143.063 262.388 143.5H259.112C258.959 143.062 258.673 142.682 258.295 142.413C257.917 142.144 257.464 142 257 142C256.536 142 256.083 142.144 255.705 142.413C255.326 142.682 255.041 143.062 254.888 143.5H251.612C251.435 143 251.087 142.578 250.629 142.309C250.171 142.041 249.633 141.943 249.11 142.032C248.587 142.122 248.112 142.394 247.77 142.8C247.428 143.206 247.24 143.719 247.24 144.25C247.24 144.781 247.428 145.294 247.77 145.7C248.112 146.106 248.587 146.378 249.11 146.468C249.633 146.557 250.171 146.459 250.629 146.191C251.087 145.922 251.435 145.5 251.612 145H254.888C255.041 145.438 255.326 145.818 255.705 146.087C256.083 146.356 256.536 146.5 257 146.5C257.464 146.5 257.917 146.356 258.295 146.087C258.673 145.818 258.959 145.438 259.112 145H262.388C262.526 145.388 262.768 145.73 263.088 145.99C263.408 146.249 263.792 146.416 264.2 146.471C264.608 146.527 265.024 146.47 265.401 146.305C265.778 146.141 266.103 145.876 266.34 145.539C266.577 145.202 266.717 144.807 266.745 144.396C266.772 143.985 266.686 143.575 266.496 143.21C266.306 142.844 266.02 142.538 265.668 142.325C265.315 142.112 264.911 141.999 264.5 142ZM249.5 145C249.351 145 249.206 144.956 249.083 144.874C248.96 144.791 248.864 144.674 248.807 144.537C248.75 144.4 248.735 144.249 248.764 144.104C248.793 143.958 248.865 143.825 248.969 143.72C249.074 143.615 249.208 143.543 249.353 143.514C249.499 143.485 249.65 143.5 249.787 143.557C249.924 143.614 250.041 143.71 250.123 143.833C250.206 143.957 250.25 144.102 250.25 144.25C250.25 144.449 250.171 144.64 250.03 144.78C249.889 144.921 249.699 145 249.5 145ZM257 145C256.851 145 256.706 144.956 256.583 144.874C256.46 144.791 256.364 144.674 256.307 144.537C256.25 144.4 256.235 144.249 256.264 144.104C256.293 143.958 256.365 143.825 256.469 143.72C256.574 143.615 256.708 143.543 256.853 143.514C256.999 143.485 257.15 143.5 257.287 143.557C257.424 143.614 257.541 143.71 257.623 143.833C257.706 143.957 257.75 144.102 257.75 144.25C257.75 144.449 257.671 144.64 257.53 144.78C257.389 144.921 257.199 145 257 145ZM264.5 145C264.351 145 264.206 144.956 264.083 144.874C263.96 144.791 263.864 144.674 263.807 144.537C263.75 144.4 263.735 144.249 263.764 144.104C263.793 143.958 263.865 143.825 263.969 143.72C264.074 143.615 264.208 143.543 264.353 143.514C264.499 143.485 264.65 143.5 264.787 143.557C264.924 143.614 265.041 143.71 265.123 143.833C265.206 143.957 265.25 144.102 265.25 144.25C265.25 144.449 265.171 144.64 265.03 144.78C264.889 144.921 264.699 145 264.5 145Z" fill="black"/>
<rect x="233.5" y="112.5" width="47" height="47" stroke="#009D9A"/>
<text fill="black" xml:space="preserve" style="white-space: pre" font-family="IBM Plex Sans" font-size="14" font-weight="600" letter-spacing="0.16px"><tspan x="209.248" y="182.25">Network Load &#10;</tspan><tspan x="207.425" y="200.25">Balancer (NLB)</tspan></text>
<defs>
<clipPath id="clip0_1899_37546">
<rect width="560" height="48" fill="white" transform="translate(192 48)"/>
</clipPath>
<clipPath id="clip1_1899_37546">
<rect width="144" height="48" fill="white" transform="translate(368 112)"/>
</clipPath>
<clipPath id="clip2_1899_37546">
<rect width="144" height="48" fill="white" transform="translate(592 112)"/>
</clipPath>
</defs>
</svg>
