<svg width="1080" height="608" viewBox="0 0 1080 608" fill="none" xmlns="http://www.w3.org/2000/svg">
<rect width="1080" height="608" fill="#F4F4F4"/>
<rect x="192.5" y="48.5" width="735" height="423" fill="white"/>
<rect x="193" y="49" width="734" height="422" fill="white"/>
<rect x="193" y="49" width="734" height="422" fill="white"/>
<g clip-path="url(#clip0_1899_37823)">
<text fill="black" xml:space="preserve" style="white-space: pre" font-family="IBM Plex Sans" font-size="14" font-weight="600" letter-spacing="0.16px"><tspan x="208" y="77.25">Classic infrastructure</tspan></text>
<line x1="194" y1="48" x2="194" y2="96" stroke="#8D8D8D" stroke-width="4"/>
</g>
<rect x="192.5" y="48.5" width="735" height="423" stroke="#8D8D8D"/>
<path d="M233 136L228 133.113V138.887L233 136ZM72.0375 136.5C72.3136 136.5 72.5375 136.276 72.5375 136C72.5375 135.724 72.3136 135.5 72.0375 135.5V136.5ZM76.1125 135.5C75.8364 135.5 75.6125 135.724 75.6125 136C75.6125 136.276 75.8364 136.5 76.1125 136.5V135.5ZM80.1875 136.5C80.4636 136.5 80.6875 136.276 80.6875 136C80.6875 135.724 80.4636 135.5 80.1875 135.5V136.5ZM84.2625 135.5C83.9864 135.5 83.7625 135.724 83.7625 136C83.7625 136.276 83.9864 136.5 84.2625 136.5V135.5ZM88.3375 136.5C88.6136 136.5 88.8375 136.276 88.8375 136C88.8375 135.724 88.6136 135.5 88.3375 135.5V136.5ZM92.4125 135.5C92.1364 135.5 91.9125 135.724 91.9125 136C91.9125 136.276 92.1364 136.5 92.4125 136.5V135.5ZM96.4875 136.5C96.7636 136.5 96.9875 136.276 96.9875 136C96.9875 135.724 96.7636 135.5 96.4875 135.5V136.5ZM100.562 135.5C100.286 135.5 100.062 135.724 100.062 136C100.062 136.276 100.286 136.5 100.562 136.5V135.5ZM104.638 136.5C104.914 136.5 105.138 136.276 105.138 136C105.138 135.724 104.914 135.5 104.638 135.5V136.5ZM108.713 135.5C108.436 135.5 108.213 135.724 108.213 136C108.213 136.276 108.436 136.5 108.713 136.5V135.5ZM112.788 136.5C113.064 136.5 113.288 136.276 113.288 136C113.288 135.724 113.064 135.5 112.788 135.5V136.5ZM116.863 135.5C116.586 135.5 116.363 135.724 116.363 136C116.363 136.276 116.586 136.5 116.863 136.5V135.5ZM120.938 136.5C121.214 136.5 121.438 136.276 121.438 136C121.438 135.724 121.214 135.5 120.938 135.5V136.5ZM125.013 135.5C124.736 135.5 124.513 135.724 124.513 136C124.513 136.276 124.736 136.5 125.013 136.5V135.5ZM129.088 136.5C129.364 136.5 129.588 136.276 129.588 136C129.588 135.724 129.364 135.5 129.088 135.5V136.5ZM133.163 135.5C132.886 135.5 132.663 135.724 132.663 136C132.663 136.276 132.886 136.5 133.163 136.5V135.5ZM137.238 136.5C137.514 136.5 137.738 136.276 137.738 136C137.738 135.724 137.514 135.5 137.238 135.5V136.5ZM141.312 135.5C141.036 135.5 140.812 135.724 140.812 136C140.812 136.276 141.036 136.5 141.312 136.5V135.5ZM145.387 136.5C145.664 136.5 145.887 136.276 145.887 136C145.887 135.724 145.664 135.5 145.387 135.5V136.5ZM149.462 135.5C149.186 135.5 148.962 135.724 148.962 136C148.962 136.276 149.186 136.5 149.462 136.5V135.5ZM153.537 136.5C153.814 136.5 154.037 136.276 154.037 136C154.037 135.724 153.814 135.5 153.537 135.5V136.5ZM157.612 135.5C157.336 135.5 157.112 135.724 157.112 136C157.112 136.276 157.336 136.5 157.612 136.5V135.5ZM161.687 136.5C161.964 136.5 162.187 136.276 162.187 136C162.187 135.724 161.964 135.5 161.687 135.5V136.5ZM165.762 135.5C165.486 135.5 165.262 135.724 165.262 136C165.262 136.276 165.486 136.5 165.762 136.5V135.5ZM169.837 136.5C170.114 136.5 170.337 136.276 170.337 136C170.337 135.724 170.114 135.5 169.837 135.5V136.5ZM173.912 135.5C173.636 135.5 173.412 135.724 173.412 136C173.412 136.276 173.636 136.5 173.912 136.5V135.5ZM177.987 136.5C178.264 136.5 178.487 136.276 178.487 136C178.487 135.724 178.264 135.5 177.987 135.5V136.5ZM182.062 135.5C181.786 135.5 181.562 135.724 181.562 136C181.562 136.276 181.786 136.5 182.062 136.5V135.5ZM186.137 136.5C186.414 136.5 186.637 136.276 186.637 136C186.637 135.724 186.414 135.5 186.137 135.5V136.5ZM190.212 135.5C189.936 135.5 189.712 135.724 189.712 136C189.712 136.276 189.936 136.5 190.212 136.5V135.5ZM194.287 136.5C194.564 136.5 194.787 136.276 194.787 136C194.787 135.724 194.564 135.5 194.287 135.5V136.5ZM198.362 135.5C198.086 135.5 197.862 135.724 197.862 136C197.862 136.276 198.086 136.5 198.362 136.5V135.5ZM202.437 136.5C202.714 136.5 202.937 136.276 202.937 136C202.937 135.724 202.714 135.5 202.437 135.5V136.5ZM206.512 135.5C206.236 135.5 206.012 135.724 206.012 136C206.012 136.276 206.236 136.5 206.512 136.5V135.5ZM210.587 136.5C210.864 136.5 211.087 136.276 211.087 136C211.087 135.724 210.864 135.5 210.587 135.5V136.5ZM214.662 135.5C214.386 135.5 214.162 135.724 214.162 136C214.162 136.276 214.386 136.5 214.662 136.5V135.5ZM218.737 136.5C219.014 136.5 219.237 136.276 219.237 136C219.237 135.724 219.014 135.5 218.737 135.5V136.5ZM222.812 135.5C222.536 135.5 222.312 135.724 222.312 136C222.312 136.276 222.536 136.5 222.812 136.5V135.5ZM226.887 136.5C227.164 136.5 227.387 136.276 227.387 136C227.387 135.724 227.164 135.5 226.887 135.5V136.5ZM230.962 135.5C230.686 135.5 230.462 135.724 230.462 136C230.462 136.276 230.686 136.5 230.962 136.5V135.5ZM70 136.5H72.0375V135.5H70V136.5ZM76.1125 136.5H80.1875V135.5H76.1125V136.5ZM84.2625 136.5H88.3375V135.5H84.2625V136.5ZM92.4125 136.5H96.4875V135.5H92.4125V136.5ZM100.562 136.5H104.638V135.5H100.562V136.5ZM108.713 136.5H112.788V135.5H108.713V136.5ZM116.863 136.5H120.938V135.5H116.863V136.5ZM125.013 136.5H129.088V135.5H125.013V136.5ZM133.163 136.5H137.238V135.5H133.163V136.5ZM141.312 136.5H145.387V135.5H141.312V136.5ZM149.462 136.5H153.537V135.5H149.462V136.5ZM157.612 136.5H161.687V135.5H157.612V136.5ZM165.762 136.5H169.837V135.5H165.762V136.5ZM173.912 136.5H177.987V135.5H173.912V136.5ZM182.062 136.5H186.137V135.5H182.062V136.5ZM190.212 136.5H194.287V135.5H190.212V136.5ZM198.362 136.5H202.437V135.5H198.362V136.5ZM206.512 136.5H210.587V135.5H206.512V136.5ZM214.662 136.5H218.737V135.5H214.662V136.5ZM222.812 136.5H226.887V135.5H222.812V136.5Z" fill="#6F6F6F"/>
<rect width="48" height="74" transform="translate(48 110)" fill="white" fill-opacity="0.01" style="mix-blend-mode:multiply"/>
<rect width="48" height="48" transform="translate(48 110)" fill="white" fill-opacity="0.01" style="mix-blend-mode:multiply"/>
<circle cx="72" cy="134" r="24" fill="black"/>
<rect width="24" height="24" transform="translate(60 122)" fill="white" fill-opacity="0.01" style="mix-blend-mode:multiply"/>
<path d="M72 125C72.7417 125 73.4667 125.22 74.0834 125.632C74.7001 126.044 75.1807 126.63 75.4645 127.315C75.7484 128 75.8226 128.754 75.6779 129.482C75.5333 130.209 75.1761 130.877 74.6517 131.402C74.1272 131.926 73.459 132.283 72.7316 132.428C72.0042 132.573 71.2502 132.498 70.5649 132.215C69.8797 131.931 69.294 131.45 68.882 130.833C68.4699 130.217 68.25 129.492 68.25 128.75C68.25 127.755 68.6451 126.802 69.3483 126.098C70.0516 125.395 71.0054 125 72 125ZM72 123.5C70.9616 123.5 69.9466 123.808 69.0833 124.385C68.2199 124.962 67.547 125.782 67.1496 126.741C66.7523 127.7 66.6483 128.756 66.8509 129.774C67.0534 130.793 67.5535 131.728 68.2877 132.462C69.0219 133.197 69.9574 133.697 70.9758 133.899C71.9942 134.102 73.0498 133.998 74.0091 133.6C74.9684 133.203 75.7883 132.53 76.3652 131.667C76.9421 130.803 77.25 129.788 77.25 128.75C77.25 127.358 76.6969 126.022 75.7123 125.038C74.7277 124.053 73.3924 123.5 72 123.5Z" fill="white"/>
<path d="M79.5 144.5H78V140.75C78 140.258 77.903 139.77 77.7145 139.315C77.5261 138.86 77.2499 138.447 76.9017 138.098C76.5534 137.75 76.14 137.474 75.6851 137.285C75.2301 137.097 74.7425 137 74.25 137H69.75C68.7554 137 67.8016 137.395 67.0983 138.098C66.3951 138.802 66 139.755 66 140.75V144.5H64.5V140.75C64.5 139.358 65.0531 138.022 66.0377 137.038C67.0223 136.053 68.3576 135.5 69.75 135.5H74.25C75.6424 135.5 76.9777 136.053 77.9623 137.038C78.9469 138.022 79.5 139.358 79.5 140.75V144.5Z" fill="white"/>
<text fill="black" xml:space="preserve" style="white-space: pre" font-family="IBM Plex Sans" font-size="14" font-weight="600" letter-spacing="0.16px"><tspan x="56.7825" y="180.25">User</tspan></text>
<path d="M352.5 112.5H632C636.142 112.5 639.5 115.858 639.5 120V448C639.5 452.142 636.142 455.5 632 455.5H360C355.858 455.5 352.5 452.142 352.5 448V112.5Z" fill="white" fill-opacity="0.01" style="mix-blend-mode:multiply"/>
<path d="M353 113H632C635.866 113 639 116.134 639 120V448C639 451.866 635.866 455 632 455H360C356.134 455 353 451.866 353 448V113Z" fill="white"/>
<path d="M353 113H632C635.866 113 639 116.134 639 120V448C639 451.866 635.866 455 632 455H360C356.134 455 353 451.866 353 448V113Z" fill="#F4F4F4"/>
<g clip-path="url(#clip1_1899_37823)">
<text fill="black" xml:space="preserve" style="white-space: pre" font-family="IBM Plex Sans" font-size="14" font-weight="600" letter-spacing="0.16px"><tspan x="368" y="132.25">Zone 1</tspan></text>
<text fill="black" xml:space="preserve" style="white-space: pre" font-family="IBM Plex Sans" font-size="14" letter-spacing="0.16px"><tspan x="368" y="150.25">dal10</tspan></text>
<line x1="354" y1="112" x2="354" y2="160" stroke="#8D8D8D" stroke-width="4"/>
</g>
<path d="M352.5 112.5H632C636.142 112.5 639.5 115.858 639.5 120V448C639.5 452.142 636.142 455.5 632 455.5H360C355.858 455.5 352.5 452.142 352.5 448V112.5Z" stroke="#8D8D8D"/>
<path d="M656.5 112.5H896C900.142 112.5 903.5 115.858 903.5 120V448C903.5 452.142 900.142 455.5 896 455.5H664C659.858 455.5 656.5 452.142 656.5 448V112.5Z" fill="white" fill-opacity="0.01" style="mix-blend-mode:multiply"/>
<path d="M657 113H896C899.866 113 903 116.134 903 120V448C903 451.866 899.866 455 896 455H664C660.134 455 657 451.866 657 448V113Z" fill="white"/>
<path d="M657 113H896C899.866 113 903 116.134 903 120V448C903 451.866 899.866 455 896 455H664C660.134 455 657 451.866 657 448V113Z" fill="#F4F4F4"/>
<rect width="256" height="352" transform="translate(656 104)" fill="white" fill-opacity="0.01" style="mix-blend-mode:multiply"/>
<path d="M912 104H656V456H912V104Z" fill="white" fill-opacity="0.01" style="mix-blend-mode:multiply"/>
<path d="M664 108.5H899.5C903.918 108.5 907.5 112.082 907.5 116.5V448" stroke="#8D8D8D"/>
<path d="M668 104.5H903.5C907.918 104.5 911.5 108.082 911.5 112.5V444" stroke="#8D8D8D"/>
<g clip-path="url(#clip2_1899_37823)">
<text fill="black" xml:space="preserve" style="white-space: pre" font-family="IBM Plex Sans" font-size="14" font-weight="600" letter-spacing="0.16px"><tspan x="672" y="132.25">Zone (n)</tspan></text>
<text fill="black" xml:space="preserve" style="white-space: pre" font-family="IBM Plex Sans" font-size="14" letter-spacing="0.16px"><tspan x="672" y="150.25">dal12</tspan></text>
<line x1="658" y1="112" x2="658" y2="160" stroke="#8D8D8D" stroke-width="4"/>
</g>
<path d="M656.5 112.5H896C900.142 112.5 903.5 115.858 903.5 120V448C903.5 452.142 900.142 455.5 896 455.5H664C659.858 455.5 656.5 452.142 656.5 448V112.5Z" stroke="#8D8D8D"/>
<rect x="368.5" y="176.5" width="520" height="263" fill="white"/>
<rect x="369" y="177" width="519" height="262" fill="white"/>
<rect x="369" y="177" width="519" height="262" fill="white"/>
<g clip-path="url(#clip3_1899_37823)">
<text fill="black" xml:space="preserve" style="white-space: pre" font-family="IBM Plex Sans" font-size="14" font-weight="600" letter-spacing="0.16px"><tspan x="384" y="205.25">Cluster</tspan></text>
<line x1="370" y1="176" x2="370" y2="224" stroke="#8D8D8D" stroke-width="4"/>
</g>
<rect x="368.5" y="176.5" width="520" height="263" stroke="#8D8D8D"/>
<rect x="496.5" y="240.5" width="143" height="168" fill="white" fill-opacity="0.01" style="mix-blend-mode:multiply"/>
<rect x="497" y="241" width="142" height="167" fill="white"/>
<rect x="497" y="241" width="142" height="167" fill="#F4F4F4"/>
<g clip-path="url(#clip4_1899_37823)">
<text fill="black" xml:space="preserve" style="white-space: pre" font-family="IBM Plex Sans" font-size="14" font-weight="600" letter-spacing="0.16px"><tspan x="512" y="269.25">Worker node 1</tspan></text>
<line x1="498" y1="240" x2="498" y2="288" stroke="#8D8D8D" stroke-width="4"/>
</g>
<rect x="496.5" y="240.5" width="143" height="168" stroke="#8D8D8D"/>
<rect width="65" height="74" transform="translate(535.5 304)" fill="white" fill-opacity="0.01" style="mix-blend-mode:multiply"/>
<rect width="48" height="48" transform="translate(544 304)" fill="#8D8D8D"/>
<rect width="24" height="24" transform="translate(556 316)" fill="white" fill-opacity="0.01" style="mix-blend-mode:multiply"/>
<path d="M577 325H571V319H577V325ZM572.5 323.5H575.5V320.5H572.5V323.5Z" fill="white"/>
<path d="M568.75 327.25V322.75H562.75V333.25H573.25V327.25H568.75ZM564.25 324.25H567.25V327.25H564.25V324.25ZM567.25 331.75H564.25V328.75H567.25V331.75ZM571.75 331.75H568.75V328.75H571.75V331.75Z" fill="white"/>
<path d="M575.5 337H560.5C560.102 337 559.721 336.841 559.44 336.56C559.159 336.279 559 335.898 559 335.5V320.5C559 320.102 559.159 319.721 559.44 319.44C559.721 319.159 560.102 319 560.5 319H568V320.5H560.5V335.5H575.5V328H577V335.5C577 335.898 576.841 336.279 576.56 336.56C576.279 336.841 575.898 337 575.5 337Z" fill="white"/>
<text fill="black" xml:space="preserve" style="white-space: pre" font-family="IBM Plex Sans" font-size="14" font-weight="600" letter-spacing="0.16px"><tspan x="535.58" y="374.25">Container</tspan></text>
<rect x="704.5" y="240.5" width="143" height="168" fill="white" fill-opacity="0.01" style="mix-blend-mode:multiply"/>
<rect x="705" y="241" width="142" height="167" fill="white"/>
<rect x="705" y="241" width="142" height="167" fill="#F4F4F4"/>
<g clip-path="url(#clip5_1899_37823)">
<text fill="black" xml:space="preserve" style="white-space: pre" font-family="IBM Plex Sans" font-size="14" font-weight="600" letter-spacing="0.16px"><tspan x="720" y="269.25">Worker node 2</tspan></text>
<line x1="706" y1="240" x2="706" y2="288" stroke="#8D8D8D" stroke-width="4"/>
</g>
<rect x="704.5" y="240.5" width="143" height="168" stroke="#8D8D8D"/>
<rect width="65" height="74" transform="translate(740.5 304)" fill="white" fill-opacity="0.01" style="mix-blend-mode:multiply"/>
<rect width="48" height="48" transform="translate(749 304)" fill="#8D8D8D"/>
<rect width="24" height="24" transform="translate(761 316)" fill="white" fill-opacity="0.01" style="mix-blend-mode:multiply"/>
<path d="M782 325H776V319H782V325ZM777.5 323.5H780.5V320.5H777.5V323.5Z" fill="white"/>
<path d="M773.75 327.25V322.75H767.75V333.25H778.25V327.25H773.75ZM769.25 324.25H772.25V327.25H769.25V324.25ZM772.25 331.75H769.25V328.75H772.25V331.75ZM776.75 331.75H773.75V328.75H776.75V331.75Z" fill="white"/>
<path d="M780.5 337H765.5C765.102 337 764.721 336.841 764.44 336.56C764.159 336.279 764 335.898 764 335.5V320.5C764 320.102 764.159 319.721 764.44 319.44C764.721 319.159 765.102 319 765.5 319H773V320.5H765.5V335.5H780.5V328H782V335.5C782 335.898 781.841 336.279 781.56 336.56C781.279 336.841 780.898 337 780.5 337Z" fill="white"/>
<text fill="black" xml:space="preserve" style="white-space: pre" font-family="IBM Plex Sans" font-size="14" font-weight="600" letter-spacing="0.16px"><tspan x="740.58" y="374.25">Container</tspan></text>
<path fill-rule="evenodd" clip-rule="evenodd" d="M455 265L438.5 265V264L455 264C459.694 264 463.5 267.806 463.5 272.5V320.5C463.5 324.642 466.858 328 471 328H538.5V325.613L544 328.5L538.5 331.387V329H471C466.306 329 462.5 325.194 462.5 320.5V272.5C462.5 268.358 459.142 265 455 265Z" fill="#6F6F6F"/>
<path fill-rule="evenodd" clip-rule="evenodd" d="M672.494 416.5V336.408C672.494 332.258 675.834 328.894 679.953 328.894H743.483V331.285L748.953 328.393L743.483 325.5V327.892H679.953C675.284 327.892 671.5 331.705 671.5 336.408L671.586 416.5H672.494Z" fill="#6F6F6F"/>
<path fill-rule="evenodd" clip-rule="evenodd" d="M463.906 320V416.595C463.906 420.691 466.947 424.011 470.699 424.011H665.348C669.1 424.011 672.142 420.691 672.142 416.595H673.047C673.047 421.237 669.6 425 665.348 425H470.699C466.447 425 463 421.237 463 416.595V320H463.906Z" fill="#6F6F6F"/>
<path fill-rule="evenodd" clip-rule="evenodd" d="M276 136V135H311.5C316.194 135 320 138.806 320 143.5V256.613C320 260.755 323.358 264.113 327.5 264.113H387.5V261.726L392.5 264.613L387.5 267.5V265.113H327.5C322.806 265.113 319 261.308 319 256.613V143.5C319 139.358 315.642 136 311.5 136H276Z" fill="#525252"/>
<rect width="69" height="92" transform="translate(382 240)" fill="white" fill-opacity="0.01" style="mix-blend-mode:multiply"/>
<rect x="393" y="240.5" width="47" height="47" fill="#FFF0F7"/>
<path d="M393.5 241H439.5V287H393.5V241Z" fill="white"/>
<path d="M393.5 241H439.5V287H393.5V241Z" fill="#FFF0F7"/>
<rect width="24" height="24" transform="translate(404.5 252)" fill="white" fill-opacity="0.01" style="mix-blend-mode:multiply"/>
<path d="M420.25 257.25L416.5 253.5L412.75 257.25L413.807 258.314L415.75 256.385V261.75H417.25V256.346L419.193 258.314L420.25 257.25Z" fill="black"/>
<path d="M420.25 270.75L416.5 274.5L412.75 270.75L413.807 269.686L415.75 271.615V266.25H417.25V271.654L419.193 269.686L420.25 270.75Z" fill="black"/>
<path d="M422.5 260.25L418.75 264L422.5 267.75L423.564 266.693L421.635 264.75H427V263.25H421.596L423.564 261.307L422.5 260.25Z" fill="black"/>
<path d="M410.5 260.25L414.25 264L410.5 267.75L409.436 266.693L411.365 264.75H406V263.25H411.405L409.436 261.307L410.5 260.25Z" fill="black"/>
<rect x="393" y="240.5" width="47" height="47" stroke="#EE5396"/>
<text fill="black" xml:space="preserve" style="white-space: pre" font-family="IBM Plex Sans" font-size="14" font-weight="600" letter-spacing="0.16px"><tspan x="391.575" y="310.25">Ingress&#10;</tspan><tspan x="384.091" y="328.25">controller </tspan></text>
<rect x="48.5" y="544.5" width="15" height="15" rx="3.5" fill="white" fill-opacity="0.01" style="mix-blend-mode:multiply"/>
<rect x="48.5" y="544.5" width="15" height="15" rx="3.5" stroke="#697077"/>
<text fill="#525252" xml:space="preserve" style="white-space: pre" font-family="IBM Plex Sans" font-size="14" letter-spacing="0.0016em"><tspan x="72" y="557.25">Logical node</tspan></text>
<rect x="168.5" y="544.5" width="15" height="15" fill="white" fill-opacity="0.01" style="mix-blend-mode:multiply"/>
<rect x="168.5" y="544.5" width="15" height="15" stroke="#697077"/>
<text fill="#525252" xml:space="preserve" style="white-space: pre" font-family="IBM Plex Sans" font-size="14" letter-spacing="0.0016em"><tspan x="192" y="557.25">Prescribed node</tspan></text>
<rect x="311.5" y="548.5" width="27" height="11" fill="white" fill-opacity="0.01" style="mix-blend-mode:multiply"/>
<rect x="311.5" y="548.5" width="27" height="11" stroke="#697077"/>
<mask id="path-57-inside-1_1899_37823" fill="white">
<path d="M315 544H343V555H315V544Z"/>
</mask>
<path d="M343 544H344V543H343V544ZM315 545H343V543H315V545ZM342 544V555H344V544H342Z" fill="#697077" mask="url(#path-57-inside-1_1899_37823)"/>
<mask id="path-59-inside-2_1899_37823" fill="white">
<path d="M313 546H341V558H313V546Z"/>
</mask>
<path d="M341 546H342V545H341V546ZM313 547H341V545H313V547ZM340 546V558H342V546H340Z" fill="#697077" mask="url(#path-59-inside-2_1899_37823)"/>
<text fill="#525252" xml:space="preserve" style="white-space: pre" font-family="IBM Plex Sans" font-size="14" letter-spacing="0.0016em"><tspan x="351" y="557.25">Multiple instances, where n &#x2265; 2</tspan></text>
<path d="M587 548L595 552L587 556V548Z" fill="#525252"/>
<mask id="mask0_1899_37823" style="mask-type:luminance" maskUnits="userSpaceOnUse" x="563" y="551" width="28" height="2">
<rect x="563" y="551" width="28" height="2" fill="white"/>
</mask>
<g mask="url(#mask0_1899_37823)">
<line x1="563" y1="552" x2="595" y2="552" stroke="#525252" stroke-dasharray="4 4"/>
</g>
<text fill="#525252" xml:space="preserve" style="white-space: pre" font-family="IBM Plex Sans" font-size="14" letter-spacing="0.0016em"><tspan x="603" y="557.25">Request to access</tspan></text>
<rect width="100" height="92" transform="translate(207 112)" fill="white" fill-opacity="0.01" style="mix-blend-mode:multiply"/>
<rect x="233.5" y="112.5" width="47" height="47" fill="#D9FBFB"/>
<path d="M234 113H280V159H234V113Z" fill="white"/>
<path d="M234 113H280V159H234V113Z" fill="#D9FBFB"/>
<rect width="24" height="24" transform="translate(245 124)" fill="white" fill-opacity="0.01" style="mix-blend-mode:multiply"/>
<path d="M263.75 136H257.75V133H256.25V136H250.25C249.852 136 249.471 136.159 249.19 136.44C248.908 136.721 248.75 137.102 248.75 137.5V140.5H250.25V137.5H256.25V140.5H257.75V137.5H263.75V140.5H265.25V137.5C265.249 137.102 265.091 136.721 264.81 136.44C264.529 136.159 264.147 136 263.75 136Z" fill="black"/>
<path d="M260 131.5V125.5H254V131.5H260ZM255.5 130V127H258.5V130H255.5Z" fill="black"/>
<path d="M264.5 142C264.036 142.001 263.584 142.146 263.206 142.415C262.828 142.683 262.542 143.063 262.388 143.5H259.112C258.959 143.062 258.673 142.682 258.295 142.413C257.917 142.144 257.464 142 257 142C256.536 142 256.083 142.144 255.705 142.413C255.326 142.682 255.041 143.062 254.888 143.5H251.612C251.435 143 251.087 142.578 250.629 142.309C250.171 142.041 249.633 141.943 249.11 142.032C248.587 142.122 248.112 142.394 247.77 142.8C247.428 143.206 247.24 143.719 247.24 144.25C247.24 144.781 247.428 145.294 247.77 145.7C248.112 146.106 248.587 146.378 249.11 146.468C249.633 146.557 250.171 146.459 250.629 146.191C251.087 145.922 251.435 145.5 251.612 145H254.888C255.041 145.438 255.326 145.818 255.705 146.087C256.083 146.356 256.536 146.5 257 146.5C257.464 146.5 257.917 146.356 258.295 146.087C258.673 145.818 258.959 145.438 259.112 145H262.388C262.526 145.388 262.768 145.73 263.088 145.99C263.408 146.249 263.792 146.416 264.2 146.471C264.608 146.527 265.024 146.47 265.401 146.305C265.778 146.141 266.103 145.876 266.34 145.539C266.577 145.202 266.717 144.807 266.745 144.396C266.772 143.985 266.686 143.575 266.496 143.21C266.306 142.844 266.02 142.538 265.668 142.325C265.315 142.112 264.911 141.999 264.5 142ZM249.5 145C249.351 145 249.206 144.956 249.083 144.874C248.96 144.791 248.864 144.674 248.807 144.537C248.75 144.4 248.735 144.249 248.764 144.104C248.793 143.958 248.865 143.825 248.969 143.72C249.074 143.615 249.208 143.543 249.353 143.514C249.499 143.485 249.65 143.5 249.787 143.557C249.924 143.614 250.041 143.71 250.123 143.833C250.206 143.957 250.25 144.102 250.25 144.25C250.25 144.449 250.171 144.64 250.03 144.78C249.889 144.921 249.699 145 249.5 145ZM257 145C256.851 145 256.706 144.956 256.583 144.874C256.46 144.791 256.364 144.674 256.307 144.537C256.25 144.4 256.235 144.249 256.264 144.104C256.293 143.958 256.365 143.825 256.469 143.72C256.574 143.615 256.708 143.543 256.853 143.514C256.999 143.485 257.15 143.5 257.287 143.557C257.424 143.614 257.541 143.71 257.623 143.833C257.706 143.957 257.75 144.102 257.75 144.25C257.75 144.449 257.671 144.64 257.53 144.78C257.389 144.921 257.199 145 257 145ZM264.5 145C264.351 145 264.206 144.956 264.083 144.874C263.96 144.791 263.864 144.674 263.807 144.537C263.75 144.4 263.735 144.249 263.764 144.104C263.793 143.958 263.865 143.825 263.969 143.72C264.074 143.615 264.208 143.543 264.353 143.514C264.499 143.485 264.65 143.5 264.787 143.557C264.924 143.614 265.041 143.71 265.123 143.833C265.206 143.957 265.25 144.102 265.25 144.25C265.25 144.449 265.171 144.64 265.03 144.78C264.889 144.921 264.699 145 264.5 145Z" fill="black"/>
<rect x="233.5" y="112.5" width="47" height="47" stroke="#009D9A"/>
<text fill="black" xml:space="preserve" style="white-space: pre" font-family="IBM Plex Sans" font-size="14" font-weight="600" letter-spacing="0.16px"><tspan x="209.248" y="182.25">Network Load &#10;</tspan><tspan x="207.425" y="200.25">Balancer (NLB)</tspan></text>
<defs>
<clipPath id="clip0_1899_37823">
<rect width="736" height="48" fill="white" transform="translate(192 48)"/>
</clipPath>
<clipPath id="clip1_1899_37823">
<rect width="288" height="48" fill="white" transform="translate(352 112)"/>
</clipPath>
<clipPath id="clip2_1899_37823">
<rect width="248" height="48" fill="white" transform="translate(656 112)"/>
</clipPath>
<clipPath id="clip3_1899_37823">
<rect width="521" height="48" fill="white" transform="translate(368 176)"/>
</clipPath>
<clipPath id="clip4_1899_37823">
<rect width="144" height="48" fill="white" transform="translate(496 240)"/>
</clipPath>
<clipPath id="clip5_1899_37823">
<rect width="144" height="48" fill="white" transform="translate(704 240)"/>
</clipPath>
</defs>
</svg>
