<?xml version="1.0" encoding="UTF-8"?>
<svg xmlns="http://www.w3.org/2000/svg" xmlns:xlink="http://www.w3.org/1999/xlink" version="1.1" viewBox="0 0 807.6 484.9">
  <defs>
    <style>
      .cls-1 {
        font-size: 14px;
      }

      .cls-1, .cls-2, .cls-3, .cls-4 {
        fill: #2d3f49;
      }

      .cls-1, .cls-2, .cls-5, .cls-6, .cls-4, .cls-7 {
        isolation: isolate;
      }

      .cls-1, .cls-2, .cls-4, .cls-7 {
        font-family: IBMPlexSans, 'IBM Plex Sans';
      }

      .cls-8, .cls-9, .cls-10, .cls-11, .cls-12, .cls-13, .cls-14, .cls-15, .cls-16, .cls-17, .cls-18 {
        fill: none;
      }

      .cls-19, .cls-20 {
        fill: #734098;
      }

      .cls-19, .cls-21, .cls-22, .cls-23, .cls-24, .cls-25 {
        fill-rule: evenodd;
      }

      .cls-26 {
        fill: #87c3eb;
      }

      .cls-27 {
        fill: #0f3659;
      }

      .cls-28 {
        fill: #292929;
      }

      .cls-2, .cls-7 {
        font-size: 24px;
      }

      .cls-21, .cls-29 {
        fill: #69a2d7;
      }

      .cls-30 {
        fill: #231f20;
      }

      .cls-22, .cls-31 {
        fill: #10212d;
      }

      .cls-23, .cls-32, .cls-33 {
        fill: #4278bd;
      }

      .cls-34 {
        fill: #9e7bff;
      }

      .cls-24, .cls-35 {
        fill: #734198;
      }

      .cls-9, .cls-10, .cls-11, .cls-36, .cls-32, .cls-12, .cls-13, .cls-37, .cls-14, .cls-15, .cls-16, .cls-17, .cls-18 {
        stroke-miterlimit: 10;
      }

      .cls-9, .cls-37 {
        stroke: #231f20;
      }

      .cls-38 {
        fill: #8c9ba5;
      }

      .cls-39 {
        fill: #ccc;
      }

      .cls-10 {
        stroke-dasharray: 0 8;
      }

      .cls-10, .cls-11, .cls-13 {
        stroke-width: 3px;
      }

      .cls-10, .cls-17 {
        stroke: #42535c;
      }

      .cls-40 {
        clip-path: url(#clippath-17);
      }

      .cls-41 {
        clip-path: url(#clippath-19);
      }

      .cls-42 {
        clip-path: url(#clippath-11);
      }

      .cls-43 {
        clip-path: url(#clippath-16);
      }

      .cls-44 {
        clip-path: url(#clippath-18);
      }

      .cls-45 {
        clip-path: url(#clippath-10);
      }

      .cls-46 {
        clip-path: url(#clippath-15);
      }

      .cls-47 {
        clip-path: url(#clippath-13);
      }

      .cls-48 {
        clip-path: url(#clippath-14);
      }

      .cls-49 {
        clip-path: url(#clippath-12);
      }

      .cls-50 {
        clip-path: url(#clippath-20);
      }

      .cls-51 {
        clip-path: url(#clippath-21);
      }

      .cls-52, .cls-25 {
        fill: #6aa4d8;
      }

      .cls-53 {
        clip-path: url(#clippath-1);
      }

      .cls-54 {
        clip-path: url(#clippath-3);
      }

      .cls-55 {
        clip-path: url(#clippath-4);
      }

      .cls-56 {
        clip-path: url(#clippath-2);
      }

      .cls-57 {
        clip-path: url(#clippath-7);
      }

      .cls-58 {
        clip-path: url(#clippath-6);
      }

      .cls-59 {
        clip-path: url(#clippath-9);
      }

      .cls-60 {
        clip-path: url(#clippath-8);
      }

      .cls-61 {
        clip-path: url(#clippath-5);
      }

      .cls-6 {
        font-family: IBMPlexSans-Bold, 'IBM Plex Sans';
        font-size: 19.2px;
        font-weight: 700;
      }

      .cls-6, .cls-62, .cls-36, .cls-7 {
        fill: #fff;
      }

      .cls-4 {
        font-size: 18px;
      }

      .cls-63 {
        fill: #5b6973;
      }

      .cls-11 {
        stroke-linecap: round;
      }

      .cls-11, .cls-13 {
        stroke: #2d3f49;
      }

      .cls-36, .cls-32, .cls-14 {
        stroke: #4278bd;
      }

      .cls-36, .cls-12, .cls-37 {
        stroke-width: 2px;
      }

      .cls-64 {
        fill: #42535c;
      }

      .cls-65 {
        fill: #221f1f;
      }

      .cls-66 {
        fill: #9e0e45;
      }

      .cls-12 {
        stroke: #000;
      }

      .cls-67 {
        fill: #5b6872;
      }

      .cls-37 {
        fill: #86c2ea;
      }

      .cls-68 {
        fill: #dfe6eb;
      }

      .cls-15 {
        stroke: #5b6872;
      }

      .cls-16 {
        stroke: #20343e;
      }

      .cls-69 {
        fill: #f05253;
      }

      .cls-70 {
        fill: #f9284b;
      }

      .cls-71 {
        clip-path: url(#clippath);
      }

      .cls-18 {
        stroke: #152935;
        stroke-width: 5px;
      }

      .cls-72 {
        fill: #999;
      }
    </style>
    <clipPath id="clippath">
      <rect class="cls-8" x="564" y="403.1" width="7.3" height="7.6"/>
    </clipPath>
    <clipPath id="clippath-1">
      <path class="cls-8" d="M564.9,405.9c0-1,.8-1.9,1.8-1.9s1.8.9,1.8,1.9-.8,1.9-1.8,1.9-1.8-.8-1.8-1.9M564,405.9c0,1.6,1.2,2.8,2.8,2.8s2.8-1.3,2.8-2.8-1.2-2.8-2.8-2.8-2.8,1.3-2.8,2.8Z"/>
    </clipPath>
    <clipPath id="clippath-2">
      <path class="cls-8" d="M507,393.3l-2-2,.8-.8,1.3,1.3,2.9-2.9.8.8-3.8,3.6ZM505.6,386.4c0-1.2,1-2.2,2.2-2.2s2.2,1,2.2,2.2v.6c-.7-.4-1.4-.6-2.2-.6s-1.6.2-2.2.6v-.6ZM511.1,386.4c0-1.8-1.5-3.3-3.3-3.3s-3.3,1.5-3.3,3.3v1.5c-.7.8-1.1,1.8-1.1,2.9,0,2.4,2,4.4,4.4,4.4s4.4-2,4.4-4.4-.4-2.1-1.1-2.9v-1.5Z"/>
    </clipPath>
    <clipPath id="clippath-3">
      <rect class="cls-8" x="503.4" y="383.2" width="9.1" height="12.1"/>
    </clipPath>
    <clipPath id="clippath-4">
      <path class="cls-8" d="M171.6,34.7c-1.7,0-3-1.3-3-3s1.3-3,3-3,3,1.3,3,3-1.3,3-3,3ZM180.8,31.7c0-.5,0-1-.1-1.4l2.9-2.6-2.5-4.1-3.5,1.2c-.8-.7-1.8-1.3-2.9-1.7l-.7-3.4h-4.8l-.8,3.4c-1.1.4-2,1-2.9,1.7l-3.4-1.2-2.5,4.1,2.9,2.6c-.1.4-.1.9-.1,1.4s0,1,.1,1.4l-2.9,2.6,2.5,4.1,3.5-1.2c.8.7,1.8,1.3,2.9,1.7l.7,3.4h4.8l.8-3.4c1.1-.4,2-1,2.9-1.7l3.5,1.1,2.4-4-2.9-2.6c.1-.4.1-.9.1-1.4Z"/>
    </clipPath>
    <clipPath id="clippath-5">
      <rect class="cls-8" x="159.6" y="19.7" width="24" height="24"/>
    </clipPath>
    <clipPath id="clippath-6">
      <path class="cls-8" d="M159.6,43.1c-1.4,0-2.4-1-2.4-2.4s1-2.4,2.4-2.4,2.4,1,2.4,2.4-1,2.4-2.4,2.4ZM167,40.7c0-.4,0-.8-.1-1.1l2.3-2.1-2-3.3-2.8,1c-.6-.6-1.4-1-2.3-1.4l-.6-2.7h-3.9l-.6,2.7c-.9.3-1.6.8-2.3,1.4l-2.7-1-2,3.3,2.3,2.1c-.1.3-.1.7-.1,1.1s0,.8.1,1.1l-2.3,2.1,2,3.3,2.8-1c.6.6,1.4,1,2.3,1.4l.6,2.7h3.9l.6-2.7c.9-.3,1.6-.8,2.3-1.4l2.8.9,1.9-3.2-2.3-2.1c.1-.3.1-.7.1-1.1Z"/>
    </clipPath>
    <clipPath id="clippath-7">
      <rect class="cls-8" x="150" y="31" width="19.3" height="19.3"/>
    </clipPath>
    <clipPath id="clippath-8">
      <circle class="cls-8" cx="196.8" cy="71.5" r="12.6"/>
    </clipPath>
    <clipPath id="clippath-9">
      <polygon class="cls-8" points="194.7 73.3 191.8 70.3 190.1 72 194.7 76.6 203.4 68 201.7 66.4 194.7 73.3"/>
    </clipPath>
    <clipPath id="clippath-10">
      <path class="cls-8" d="M295.2,164.6c-.4,0-.7-.3-.7-.7s.3-.7.7-.7.7.3.7.7-.3.7-.7.7ZM297.3,163.9v-.3l.7-.6-.6-.9-.8.3c-.2-.2-.4-.3-.7-.4l-.2-.8h-1.1l-.2.8c-.3,0-.5.2-.7.4l-.8-.3-.6.9.7.6v.6l-.7.6.6.9.8-.3c.2.2.4.3.7.4l.2.8h1.1l.2-.8c.3-.1.5-.2.7-.4l.8.3.6-.9-.7-.6v-.3Z"/>
    </clipPath>
    <clipPath id="clippath-11">
      <rect class="cls-8" x="292.4" y="161.1" width="5.6" height="5.6"/>
    </clipPath>
    <clipPath id="clippath-12">
      <path class="cls-8" d="M292.4,166.6c-.3,0-.6-.2-.6-.6s.2-.6.6-.6.6.2.6.6-.3.6-.6.6ZM294.1,166v-.3l.5-.5-.5-.8-.6.2c-.1,0-.3-.2-.5-.3v-.6h-1v.6c-.3.1-.5.2-.6.3l-.6-.2-.5.8.5.5v.6l-.5.5.5.8.6-.2c.1,0,.3.2.5.3v.6h1v-.6c.3-.1.5-.2.6-.3l.6.2.5-.8-.5-.5v-.3Z"/>
    </clipPath>
    <clipPath id="clippath-13">
      <rect class="cls-8" x="290.1" y="163.8" width="4.5" height="4.5"/>
    </clipPath>
    <clipPath id="clippath-14">
      <path class="cls-8" d="M301.7,183.7l-2.6-2.6,1-1,1.7,1.7,3.9-3.9,1,1-5,4.8ZM299.9,174.7c0-1.5,1.3-2.9,2.9-2.9s2.9,1.3,2.9,2.9v.8c-.9-.5-1.9-.8-2.9-.8s-2.1.3-2.9.8v-.8ZM307.1,174.7c0-2.3-2-4.3-4.3-4.3s-4.3,2-4.3,4.3v2c-.9,1-1.5,2.3-1.5,3.9,0,3.2,2.6,5.8,5.8,5.8s5.8-2.6,5.8-5.8-.5-2.8-1.5-3.9v-2Z"/>
    </clipPath>
    <clipPath id="clippath-15">
      <rect class="cls-8" x="297" y="170.4" width="11.9" height="15.9"/>
    </clipPath>
    <clipPath id="clippath-16">
      <path class="cls-8" d="M295.3,277.8c-.7.1-1.4-.4-1.5-1.1-.1-.7.4-1.4,1.1-1.5.7,0,1.4.4,1.5,1.1s-.4,1.4-1.1,1.5ZM299,275.9c0-.2-.1-.4-.1-.6l1.1-1.3-1.4-1.6-1.4.8c-.4-.2-.9-.4-1.4-.5l-.5-1.4-2.1.3v1.5c-.5.2-.9.6-1.2.9l-1.5-.3-.8,1.9,1.4.9v.6c0,.2.1.4.1.6l-1.1,1.3,1.4,1.6,1.4-.8c.4.2.9.4,1.4.5l.5,1.4,2.1-.3v-1.5c.5-.2.9-.6,1.2-.9l1.6.2.8-1.9-1.4-.9c0-.1-.1-.3-.1-.5Z"/>
    </clipPath>
    <clipPath id="clippath-17">
      <rect class="cls-8" x="289.9" y="271.3" width="10.4" height="10.4" transform="translate(-39.8 49.8) rotate(-9)"/>
    </clipPath>
    <clipPath id="clippath-18">
      <path class="cls-8" d="M290.7,282.2c-.6.1-1.1-.3-1.2-.9-.1-.6.3-1.1.9-1.2.6,0,1.1.3,1.2.9s-.3,1.1-.9,1.2ZM293.7,280.7c0-.2,0-.3-.1-.5l.9-1-1.1-1.3-1.1.6c-.3-.2-.7-.4-1.1-.4l-.4-1.1-1.6.3v1.2c-.5.2-.7.5-1,.7l-1.2-.2-.6,1.5,1.1.7v.5c0,.2,0,.3.1.5l-.9,1,1.1,1.3,1.1-.6c.3.2.7.4,1.1.4l.4,1.1,1.6-.3v-1.2c.5-.2.7-.5,1-.7l1.3.2.6-1.5-1.1-.7c0-.2,0-.3,0-.5Z"/>
    </clipPath>
    <clipPath id="clippath-19">
      <rect class="cls-8" x="286.4" y="277" width="8.4" height="8.4" transform="translate(-40.6 49.1) rotate(-9)"/>
    </clipPath>
    <clipPath id="clippath-20">
      <path class="cls-8" d="M601.4,286.3l-2-2,.8-.8,1.3,1.3,2.9-2.9.8.8-3.8,3.6ZM600,279.5c0-1.2,1-2.2,2.2-2.2s2.2,1,2.2,2.2v.6c-.7-.4-1.4-.6-2.2-.6s-1.6.2-2.2.6v-.6ZM605.5,279.5c0-1.8-1.5-3.3-3.3-3.3s-3.3,1.5-3.3,3.3v1.5c-.7.8-1.1,1.8-1.1,2.9,0,2.4,2,4.4,4.4,4.4s4.4-2,4.4-4.4-.4-2.1-1.1-2.9v-1.5h0Z"/>
    </clipPath>
    <clipPath id="clippath-21">
      <rect class="cls-8" x="597.8" y="276.2" width="9.1" height="12.1"/>
    </clipPath>
  </defs>
  <!-- Generator: Adobe Illustrator 28.7.1, SVG Export Plug-In . SVG Version: 1.2.0 Build 142)  -->
  <g>
    <g id="Layer_1">
      <rect class="cls-52" x="526" y="398.6" width="51.3" height="41.7"/>
      <rect class="cls-3" x="501.4" y="388" width="76.5" height="10.6"/>
      <path class="cls-30" d="M579.9,444.2h-80.6v-60.2h80.6v60.2ZM503.4,440.2h72.5v-52.1h-72.5v52.1h0Z"/>
      <path class="cls-62" d="M514.9,390.4h-.4c-.5-.7-1.4-1.2-2.3-1.2s-2,.6-2.6,1.5h-.4c-1.3,0-2.3,1.1-2.3,2.4s.9,2.3,2.1,2.4h5.9c1.3,0,2.3-1.2,2.3-2.6s-1-2.5-2.3-2.5h0Z"/>
      <g class="cls-71">
        <g>
          <polygon class="cls-28" points="568.7 408.9 570.3 410.6 571.3 409.6 569.7 407.9 568.7 408.9"/>
          <polygon class="cls-28" points="568.7 408.9 570.3 410.6 571.3 409.6 569.7 407.9 568.7 408.9"/>
          <g class="cls-53">
            <rect class="cls-28" x="561.7" y="400.7" width="10.1" height="10.4"/>
          </g>
        </g>
      </g>
      <rect class="cls-62" x="503.4" y="398.6" width="21.4" height="41.7"/>
      <rect class="cls-62" x="532.7" y="413.3" width="39.2" height="4.8"/>
      <rect class="cls-38" x="532.7" y="418.1" width="39.2" height="4.8"/>
      <rect class="cls-62" x="532.7" y="423" width="39.2" height="4.8"/>
      <rect class="cls-38" x="532.7" y="427.8" width="39.2" height="4.8"/>
      <path class="cls-3" d="M655.8,363.2H226.8c-6.6,0-12-5.4-12-12V23.3c0-6.6,5.4-12,12-12h429c6.6,0,12,5.4,12,12v327.9c0,6.7-5.4,12-12,12Z"/>
      <rect class="cls-62" x="212.8" y="287.1" width="20.1" height="6"/>
      <rect class="cls-62" x="647.3" y="281.3" width="41.1" height="6.7"/>
      <rect class="cls-62" x="534.8" y="332" width="6.7" height="16"/>
      <polyline class="cls-15" points="472.1 404.7 185.3 404.7 185.1 404.7 185.1 312.9"/>
      <polygon class="cls-67" points="470.6 399.7 479.3 404.7 470.6 409.7 470.6 399.7"/>
      <path class="cls-62" d="M640.9,348.9H238.9c-6.6,0-12-5.4-12-12V74.2c0-6.6,5.4-12,12-12h402c6.6,0,12,5.4,12,12v262.7c0,6.6-5.3,12-12,12Z"/>
      <path class="cls-10" d="M624.9,336h-368.3c-6.6,0-12-5.4-12-12V110c0-6.6,5.4-12,12-12h368.4c6.6,0,12,5.4,12,12v214c0,6.6-5.4,12-12.1,12Z"/>
      <circle class="cls-37" cx="507.7" cy="390.2" r="17.1" transform="translate(41.2 828.8) rotate(-80.8)"/>
      <path class="cls-9" d="M500.8,375.3c12.4,2.7,20.3,14.9,17.6,27.3"/>
      <path class="cls-9" d="M497.2,377.6c-2.7,12.4,5.2,24.6,17.6,27.3"/>
      <path class="cls-9" d="M492.9,397.1c2.7-12.4,14.9-20.3,27.3-17.6"/>
      <path class="cls-9" d="M495.2,400.7c12.4,2.7,24.6-5.2,27.3-17.6"/>
      <circle class="cls-30" cx="501.1" cy="383.8" r="2.4"/>
      <circle class="cls-30" cx="515.2" cy="385.3" r="2.4"/>
      <circle class="cls-30" cx="503.9" cy="400.6" r="2.4"/>
      <path class="cls-22" d="M507,393.3l-2-2,.8-.8,1.3,1.3,2.9-2.9.8.8-3.8,3.6h0ZM505.6,386.4c0-1.2,1-2.2,2.2-2.2s2.2,1,2.2,2.2v.6c-.7-.4-1.4-.6-2.2-.6s-1.6.2-2.2.6v-.6ZM511.1,386.4c0-1.8-1.5-3.3-3.3-3.3s-3.3,1.5-3.3,3.3v1.5c-.7.8-1.1,1.8-1.1,2.9,0,2.4,2,4.4,4.4,4.4s4.4-2,4.4-4.4-.4-2.1-1.1-2.9v-1.5h0Z"/>
      <g class="cls-56">
        <g>
          <rect class="cls-31" x="503.4" y="383.2" width="9.1" height="12.1"/>
          <g class="cls-54">
            <rect class="cls-31" x="500.9" y="380.6" width="13.8" height="17.1"/>
          </g>
        </g>
      </g>
      <path class="cls-62" d="M146.3,12.1h43c4.1,0,7.4,3.3,7.4,7.4v44.6c0,4.1-3.3,7.4-7.4,7.4h-43c-4.1,0-7.4-3.3-7.4-7.4V19.5c0-4.1,3.3-7.4,7.4-7.4Z"/>
      <path class="cls-30" d="M190.6,73.6h-45.5c-4.6,0-8.3-3.7-8.3-8.3V18.3c0-4.6,3.7-8.3,8.3-8.3h45.5c4.6,0,8.3,3.7,8.3,8.3v47c-.1,4.6-3.8,8.3-8.3,8.3ZM145.1,14.2c-2.3,0-4.1,1.8-4.1,4.1v47c0,2.3,1.8,4.1,4.1,4.1h45.5c2.3,0,4.1-1.8,4.1-4.1V18.3c0-2.3-1.8-4.1-4.1-4.1,0-.1-45.5-.1-45.5,0Z"/>
      <path class="cls-30" d="M138.9,54.3h57.9v13.2c0,2.2-1.8,4-4,4h-49.9c-2.2,0-4-1.8-4-4v-13.2h0Z"/>
      <path class="cls-19" d="M171.6,34.7c-1.7,0-3-1.3-3-3s1.3-3,3-3,3,1.3,3,3-1.3,3-3,3ZM180.8,31.7c0-.5,0-1-.1-1.4l2.9-2.6-2.5-4.1-3.5,1.2c-.8-.7-1.8-1.3-2.9-1.7l-.7-3.4h-4.8l-.8,3.4c-1.1.4-2,1-2.9,1.7l-3.4-1.2-2.5,4.1,2.9,2.6c-.1.4-.1.9-.1,1.4s0,1,.1,1.4l-2.9,2.6,2.5,4.1,3.5-1.2c.8.7,1.8,1.3,2.9,1.7l.7,3.4h4.8l.8-3.4c1.1-.4,2-1,2.9-1.7l3.5,1.1,2.4-4-2.9-2.6c.1-.4.1-.9.1-1.4Z"/>
      <g class="cls-55">
        <g>
          <rect class="cls-20" x="159.6" y="19.7" width="24" height="24"/>
          <g class="cls-61">
            <rect class="cls-20" x="154.6" y="14.7" width="34" height="34"/>
          </g>
        </g>
      </g>
      <path class="cls-25" d="M159.6,43.1c-1.4,0-2.4-1-2.4-2.4s1-2.4,2.4-2.4,2.4,1,2.4,2.4-1,2.4-2.4,2.4ZM167,40.7c0-.4,0-.8-.1-1.1l2.3-2.1-2-3.3-2.8,1c-.6-.6-1.4-1-2.3-1.4l-.6-2.7h-3.9l-.6,2.7c-.9.3-1.6.8-2.3,1.4l-2.7-1-2,3.3,2.3,2.1c-.1.3-.1.7-.1,1.1s0,.8.1,1.1l-2.3,2.1,2,3.3,2.8-1c.6.6,1.4,1,2.3,1.4l.6,2.7h3.9l.6-2.7c.9-.3,1.6-.8,2.3-1.4l2.8.9,1.9-3.2-2.3-2.1c.1-.3.1-.7.1-1.1Z"/>
      <g class="cls-58">
        <g>
          <rect class="cls-52" x="150" y="31" width="19.3" height="19.3"/>
          <g class="cls-57">
            <rect class="cls-52" x="146" y="27" width="27.3" height="27.3"/>
          </g>
        </g>
      </g>
      <circle class="cls-62" cx="196.8" cy="71.5" r="12.6"/>
      <g class="cls-60">
        <circle class="cls-36" cx="268.8" cy="102.7" r="12.6"/>
      </g>
      <circle class="cls-14" cx="196.8" cy="71.5" r="12.6"/>
      <polygon class="cls-23" points="194.7 73.3 191.8 70.3 190.1 72 194.7 76.6 203.4 68 201.7 66.4 194.7 73.3"/>
      <g class="cls-59">
        <rect class="cls-32" x="187.1" y="63.4" width="19.2" height="16.2"/>
      </g>
      <polygon class="cls-14" points="194.7 73.3 191.8 70.3 190.1 72 194.7 76.6 203.4 68 201.7 66.4 194.7 73.3"/>
      <circle class="cls-69" cx="140.9" cy="11.5" r="11.5"/>
      <text class="cls-6" transform="translate(135.9 18.4) scale(.9 1)"><tspan x="0" y="0">1</tspan></text>
      <rect class="cls-62" x="328.9" y="138.9" width="19.3" height="36.3"/>
      <path class="cls-62" d="M294.3,159.4h0c3.7,0,6.7,3,6.7,6.7v.4c0,3.7-3,6.7-6.7,6.7h0c-3.7,0-6.7-3-6.7-6.7v-.4c0-3.7,3-6.7,6.7-6.7Z"/>
      <path class="cls-65" d="M299.6,173.7h-10.6c-1.1,0-1.9-.9-1.9-1.9v-10.9c0-1.1.9-1.9,1.9-1.9h10.6c1.1,0,1.9.9,1.9,1.9v10.9c0,1-.8,1.9-1.9,1.9ZM289,159.9c-.5,0-1,.4-1,1v10.9c0,.5.4,1,1,1h10.6c.5,0,1-.4,1-1v-10.9c0-.5-.4-1-1-1h-10.6Z"/>
      <path class="cls-65" d="M287.6,169.2h13.4c0,2.2-1.8,4-4,4h-5.5c-2.1,0-3.9-1.8-3.9-4h0Z"/>
      <path class="cls-24" d="M295.2,164.6c-.4,0-.7-.3-.7-.7s.3-.7.7-.7.7.3.7.7-.3.7-.7.7ZM297.3,163.9v-.3l.7-.6-.6-.9-.8.3c-.2-.2-.4-.3-.7-.4l-.2-.8h-1.1l-.2.8c-.3.1-.5.2-.7.4l-.8-.3-.6.9.7.6v.6l-.7.6.6.9.8-.3c.2.2.4.3.7.4l.2.8h1.1l.2-.8c.3-.1.5-.2.7-.4l.8.3.6-.9-.7-.6v-.3Z"/>
      <g class="cls-45">
        <g>
          <rect class="cls-35" x="292.4" y="161.1" width="5.6" height="5.6"/>
          <g class="cls-42">
            <rect class="cls-35" x="291.2" y="160" width="7.9" height="7.9"/>
          </g>
        </g>
      </g>
      <path class="cls-21" d="M292.4,166.6c-.3,0-.6-.2-.6-.6s.2-.6.6-.6.6.2.6.6-.3.6-.6.6ZM294.1,166v-.3l.5-.5-.5-.8-.6.2c-.1-.1-.3-.2-.5-.3v-.6h-1v.6c-.3.1-.5.2-.6.3l-.6-.2-.5.8.5.5v.6l-.5.5.5.8.6-.2c.1.1.3.2.5.3v.6h1v-.6c.3-.1.5-.2.6-.3l.6.2.5-.8-.5-.5v-.3h0Z"/>
      <g class="cls-49">
        <g>
          <rect class="cls-29" x="290.1" y="163.8" width="4.5" height="4.5"/>
          <g class="cls-47">
            <rect class="cls-29" x="289.2" y="162.9" width="6.3" height="6.3"/>
          </g>
        </g>
      </g>
      <path class="cls-12" d="M294.4,183.9c-17.9-7.6-14.5-27.3-14.1-28.8,6.1-.7,27.9,0,27.9,0,0,0,1.4,22.6-13.8,28.8h0Z"/>
      <path class="cls-62" d="M298.3,180l2.3-3c.7-.9,1.9-1,2.8-.4l.9.7c.9.7,1,1.9.4,2.8l-2.3,3c-.7.9-1.9,1-2.8.4l-.9-.7c-.9-.6-1-1.9-.4-2.8Z"/>
      <path class="cls-23" d="M301.7,183.7l-2.6-2.6,1-1,1.7,1.7,3.9-3.9,1,1-5,4.8ZM299.9,174.7c0-1.5,1.3-2.9,2.9-2.9s2.9,1.3,2.9,2.9v.8c-.9-.5-1.9-.8-2.9-.8s-2.1.3-2.9.8v-.8ZM307.1,174.7c0-2.3-2-4.3-4.3-4.3s-4.3,2-4.3,4.3v2c-.9,1-1.5,2.3-1.5,3.9,0,3.2,2.6,5.8,5.8,5.8s5.8-2.6,5.8-5.8-.5-2.8-1.5-3.9v-2Z"/>
      <g class="cls-48">
        <g>
          <rect class="cls-33" x="297" y="170.4" width="11.9" height="15.9"/>
          <g class="cls-46">
            <rect class="cls-33" x="293.7" y="167" width="18.2" height="22.6"/>
          </g>
        </g>
      </g>
      <rect x="304" y="171.5" width="2.5" height="1.6" transform="translate(31.7 391.4) rotate(-68.1)"/>
      <circle class="cls-69" cx="282.3" cy="150" r="11.5"/>
      <text class="cls-6" transform="translate(277.3 156.9) scale(.9 1)"><tspan x="0" y="0">2</tspan></text>
      <rect class="cls-62" x="283.4" y="271.5" width="18.9" height="23.1" transform="translate(6.5 572.7) rotate(-89.3)"/>
      <path class="cls-38" d="M274.6,281.3c-.6-.5-.9-1-.9-1.6v11.5c-.1.8-.1,1.3-.1,1.3,0-.6.3-1.1,1-1.6l7-4.8-7-4.8h0Z"/>
      <path class="cls-26" d="M310.1,275h0v-.2c0-.1-.1-.2-.1-.4h0c-.1-.2-.2-.4-.4-.6-.1-.1-.3-.2-.4-.4l-14.8-10.4c-1.3-.9-3.3-.9-4.6,0l-15.1,10.1c-.2.1-.3.2-.4.4-.4.4-.5.8-.5,1.2h0c0,.6.3,1.2.9,1.6l1.3.9,13.8-9.2c1.3-.9,3.4-.8,4.6,0l13.5,9.6,1.3-.9c.6-.4,1-1,1-1.6h0c0,0,0-.1,0-.1h0Z"/>
      <path class="cls-68" d="M294.3,268c-1.3-.9-3.3-.9-4.6,0l-13.8,9.2h0l9.2,6.5,4.4-3c1.3-.9,3.4-.8,4.6,0l4.3,3.1,9.4-6.3-13.5-9.5h0Z"/>
      <path class="cls-62" d="M283.8,269.7l16.6-2.6c2.3-.4,4.4,1.2,4.8,3.5l2.7,17.2c.4,2.3-1.2,4.4-3.5,4.8l-16.6,2.6c-2.3.4-4.4-1.2-4.8-3.5l-2.7-17.2c-.3-2.3,1.3-4.5,3.5-4.8Z"/>
      <path class="cls-30" d="M306.1,293.2l-19.5,3.1c-2,.3-3.8-1-4.1-3l-3.2-20.2c-.3-2,1-3.8,3-4.1l19.5-3.1c2-.3,3.8,1,4.1,3l3.2,20.2c.3,1.9-1.1,3.8-3,4.1ZM282.5,270.8c-1,.1-1.6,1.1-1.5,2l3.2,20.2c.1,1,1.1,1.6,2,1.5l19.5-3.1c1-.1,1.6-1.1,1.5-2l-3.2-20.2c-.1-1-1.1-1.6-2-1.5l-19.5,3.1Z"/>
      <path class="cls-30" d="M282.6,288.4l24.8-3.9.5,3.4c.3,2.2-1.1,4.2-3.3,4.6l-16.9,2.7c-2.2.3-4.2-1.1-4.6-3.3l-.5-3.5h0Z"/>
      <path class="cls-19" d="M295.3,277.8c-.7.1-1.4-.4-1.5-1.1s.4-1.4,1.1-1.5,1.4.4,1.5,1.1-.4,1.4-1.1,1.5ZM299,275.9c0-.2-.1-.4-.1-.6l1.1-1.3-1.4-1.6-1.4.8c-.4-.2-.9-.4-1.4-.5l-.5-1.4-2.1.3v1.5c-.5.2-.9.6-1.2.9l-1.5-.3-.8,1.9,1.4.9v.6c0,.2.1.4.1.6l-1.1,1.3,1.4,1.6,1.4-.8c.4.2.9.4,1.4.5l.5,1.4,2.1-.3v-1.5c.5-.2.9-.6,1.2-.9l1.6.2.8-1.9-1.4-.9c0-.1-.1-.3-.1-.5Z"/>
      <g class="cls-43">
        <g>
          <rect class="cls-20" x="289.9" y="271.3" width="10.4" height="10.4" transform="translate(-39.8 49.8) rotate(-9)"/>
          <g class="cls-40">
            <rect class="cls-20" x="287.7" y="269.1" width="14.8" height="14.8" transform="translate(-39.8 49.8) rotate(-9)"/>
          </g>
        </g>
      </g>
      <path class="cls-25" d="M290.7,282.2c-.6.1-1.1-.3-1.2-.9s.3-1.1.9-1.2,1.1.3,1.2.9-.3,1.1-.9,1.2ZM293.7,280.7c0-.2,0-.3-.1-.5l.9-1-1.1-1.3-1.1.6c-.3-.2-.7-.4-1.1-.4l-.4-1.1-1.6.3v1.2c-.5.2-.7.5-1,.7l-1.2-.2-.6,1.5,1.1.7v.5c0,.2,0,.3.1.5l-.9,1,1.1,1.3,1.1-.6c.3.2.7.4,1.1.4l.4,1.1,1.6-.3v-1.2c.5-.2.7-.5,1-.7l1.3.2.6-1.5-1.1-.7c0-.2,0-.3,0-.5h0Z"/>
      <g class="cls-44">
        <g>
          <rect class="cls-52" x="286.4" y="277" width="8.4" height="8.4" transform="translate(-40.6 49.1) rotate(-9)"/>
          <g class="cls-41">
            <rect class="cls-52" x="284.6" y="275.3" width="11.8" height="11.8" transform="translate(-40.6 49.1) rotate(-9)"/>
          </g>
        </g>
      </g>
      <path class="cls-38" d="M309,291.3l-6.9-4.9-8,5.4c-1.3.9-3.4.8-4.6,0l-7.9-5.6h0l-7,4.7c-.6.4-1,1-1,1.6h0c0,.6.3,1.2.9,1.6l14.9,10.5c1.3.9,3.3.9,4.6,0l15.1-10.1c.6-.4,1-1,1-1.6h0c-.2-.5-.5-1.1-1.1-1.6Z"/>
      <path class="cls-26" d="M310.1,275.1c0,.6-.3,1.1-1,1.6l-1.3.9-9.4,6.3-4.4,3c-1.3.9-3.4.8-4.6,0l-4.3-3.1-9.2-6.5-1.3-.9c-.6-.5-.9-1-.9-1.6v5h0c0,.6.3,1.2.9,1.6l6.9,4.9,7.9,5.6c1.3.9,3.3.9,4.6,0l15.1-10.1c.6-.4,1-1,1-1.6h0v-5.1h0Z"/>
      <path class="cls-38" d="M309.1,281.7l-7,4.7,6.9,4.9c.6.5.9,1,.9,1.6v-12.8c.2.6-.2,1.2-.8,1.6h0Z"/>
      <path class="cls-72" d="M153.3,285.3c-1.1-.8-1.6-1.7-1.6-2.7v21.9c0-1,.5-2,1.6-2.7l11.9-8.2-11.9-8.3Z"/>
      <rect class="cls-62" x="147.5" y="277.4" width="42" height="26"/>
      <path class="cls-72" d="M197.4,284.8l-11.9,8.2,11.9,8.2c1.1.8,1.6,1.7,1.6,2.7v-21.9c0,1-.5,2.1-1.6,2.8Z"/>
      <path class="cls-70" d="M198.7,273.7v-.2h0c0-.3-.1-.5-.2-.7h0c-.1-.3-.4-.7-.7-1-.2-.2-.4-.4-.7-.6l-25.5-17.6c-2.2-1.5-5.7-1.5-7.9,0l-25.5,17.6c-.3.2-.5.4-.7.6-.6.6-.9,1.4-.9,2.1h0c0,1,.5,2,1.6,2.7l2.2,1.6,23.3-16c2.2-1.5,5.7-1.5,7.9,0l23.3,16.1,2.2-1.6c1.1-.8,1.6-1.7,1.6-2.7h0c0-.2,0-.3,0-.3Z"/>
      <path class="cls-39" d="M171.6,262.1c-2.2-1.5-5.7-1.5-7.9,0l-23.3,16h0l15.9,10.9,7.4-5.1c2.2-1.5,5.7-1.5,7.9,0l7.4,5.1,15.9-10.9-23.3-16Z"/>
      <path class="cls-66" d="M198.7,273.9c0,1-.5,2-1.6,2.7l-2.2,1.6-15.9,10.9-7.4,5.1c-2.2,1.5-5.7,1.5-7.9,0l-7.4-5.1-15.9-10.9-2.2-1.6c-1.1-.8-1.6-1.7-1.6-2.7v8.6h0c0,1,.5,2,1.6,2.7l11.9,8.2,13.6,9.4c2.2,1.5,5.7,1.5,7.9,0l25.5-17.6c1.1-.8,1.6-1.7,1.6-2.7h0v-8.6h0Z"/>
      <path class="cls-39" d="M197.1,301.6l-11.9-8.2-13.6,9.4c-2.2,1.5-5.7,1.5-7.9,0l-13.6-9.4h0l-11.9,8.2c-1.1.8-1.6,1.7-1.6,2.7h0c0,1,.5,2,1.6,2.7l25.5,17.6c2.2,1.5,5.7,1.5,7.9,0l25.4-17.6c1.1-.8,1.6-1.7,1.6-2.7h0c0-1-.5-2-1.5-2.7h0Z"/>
      <path class="cls-72" d="M138.2,301.5l11.9-8.2-11.9-8.2c-1.1-.8-1.6-1.7-1.6-2.7v21.9c0-1,.5-2,1.6-2.8Z"/>
      <polygon class="cls-38" points="787.6 185.2 733.9 185.2 714.9 199.9 768.5 199.9 787.6 185.2"/>
      <polygon class="cls-38" points="787.6 174.1 733.9 174.1 714.9 188.9 768.5 188.9 787.6 174.1"/>
      <polygon class="cls-64" points="768.5 188.9 768.5 199.9 787.6 185.2 787.6 174.1 768.5 188.9"/>
      <path class="cls-63" d="M716.3,188.5h50c1.3,0,2.3,1,2.3,2.3v7.6c0,1.3-1,2.3-2.3,2.3h-50c-1.3,0-2.3-1-2.3-2.3v-7.6c0-1.3,1-2.3,2.3-2.3Z"/>
      <path class="cls-31" d="M737.8,192.5h25.5c1.1,0,2,.9,2,2h0c0,1.1-.9,2-2,2h-25.5c-1.1,0-2-.9-2-2h0c0-1.1.9-2,2-2Z"/>
      <circle class="cls-31" cx="718.7" cy="194.5" r="2.3"/>
      <circle class="cls-31" cx="731" cy="194.5" r="2.3"/>
      <circle class="cls-31" cx="724.8" cy="194.5" r="2.3"/>
      <line class="cls-15" x1="750.8" y1="244.6" x2="750.8" y2="219.6"/>
      <polygon class="cls-67" points="755.8 243.1 750.8 251.8 745.8 243.1 755.8 243.1"/>
      <polygon class="cls-67" points="755.8 221.1 750.8 212.4 745.8 221.1 755.8 221.1"/>
      <line class="cls-15" x1="692.7" y1="406.1" x2="588.6" y2="406.1"/>
      <polygon class="cls-67" points="590 401.1 581.4 406.1 590 411.1 590 401.1"/>
      <circle class="cls-69" cx="693.7" cy="369.9" r="11.5"/>
      <text class="cls-6" transform="translate(688.7 376.8) scale(.9 1)"><tspan x="0" y="0">5</tspan></text>
      <rect class="cls-62" x="238.4" y="329.1" width="11.6" height="5.8"/>
      <line class="cls-15" x1="258.3" y1="290.4" x2="207.3" y2="290.4"/>
      <polygon class="cls-67" points="256.8 285.5 265.5 290.4 256.8 295.4 256.8 285.5"/>
      <polygon class="cls-67" points="208.8 285.5 200.1 290.4 208.8 295.4 208.8 285.5"/>
      <circle class="cls-69" cx="279.2" cy="270.4" r="11.5"/>
      <text class="cls-6" transform="translate(274.2 277.3) scale(.9 1)"><tspan x="0" y="0">3</tspan></text>
      <line class="cls-17" x1="712.3" y1="284.7" x2="638.5" y2="284.7"/>
      <polygon class="cls-64" points="640 279.7 631.3 284.7 640 289.6 640 279.7"/>
      <circle class="cls-37" cx="602" cy="283.2" r="17.1"/>
      <path class="cls-9" d="M595.1,268.4c12.4,2.7,20.3,14.9,17.6,27.3"/>
      <path class="cls-9" d="M591.5,270.7c-2.7,12.4,5.2,24.6,17.6,27.3"/>
      <path class="cls-9" d="M587.2,290.2c2.7-12.4,14.9-20.3,27.3-17.6"/>
      <path class="cls-9" d="M589.6,293.8c12.4,2.7,24.6-5.2,27.3-17.6"/>
      <circle class="cls-30" cx="595.5" cy="276.9" r="2.4"/>
      <circle class="cls-30" cx="609.5" cy="278.4" r="2.4"/>
      <circle class="cls-30" cx="598.3" cy="293.6" r="2.4"/>
      <path class="cls-22" d="M601.4,286.3l-2-2,.8-.8,1.3,1.3,2.9-2.9.8.8-3.8,3.6ZM600,279.5c0-1.2,1-2.2,2.2-2.2s2.2,1,2.2,2.2v.6c-.7-.4-1.4-.6-2.2-.6s-1.6.2-2.2.6v-.6ZM605.5,279.5c0-1.8-1.5-3.3-3.3-3.3s-3.3,1.5-3.3,3.3v1.5c-.7.8-1.1,1.8-1.1,2.9,0,2.4,2,4.4,4.4,4.4s4.4-2,4.4-4.4-.4-2.1-1.1-2.9v-1.5h0Z"/>
      <g class="cls-50">
        <g>
          <rect class="cls-31" x="597.8" y="276.2" width="9.1" height="12.1"/>
          <g class="cls-51">
            <rect class="cls-31" x="595.3" y="273.7" width="13.8" height="17.1"/>
          </g>
        </g>
      </g>
      <circle class="cls-69" cx="581.4" cy="271.5" r="11.5"/>
      <text class="cls-6" transform="translate(576.4 278.4) scale(.9 1)"><tspan x="0" y="0">4</tspan></text>
      <path class="cls-18" d="M771.5,269.8c-1,0-2.1.1-3,.3-4-5-10.1-8.2-16.9-8.2s-14.9,4.3-18.7,10.8c-1-.2-2.1-.3-3.2-.3-9.3,0-16.8,7.7-16.8,17.2s6.8,16.5,15.4,17.2h43.1c0,.1,0,.1,0,.1,9.5,0,17.1-8.3,17.1-18.5s-7.6-18.6-17.1-18.6h0Z"/>
      <line class="cls-15" x1="348.2" y1="248.7" x2="348.2" y2="199.4"/>
      <polygon class="cls-67" points="353.2 247.3 348.2 255.9 343.2 247.3 353.2 247.3"/>
      <polygon class="cls-67" points="353.2 200.8 348.2 192.2 343.2 200.8 353.2 200.8"/>
      <rect class="cls-62" x="238.8" y="158.6" width="11.6" height="7"/>
      <line class="cls-15" x1="552.8" y1="248.7" x2="552.8" y2="199.2"/>
      <polygon class="cls-67" points="557.8 247.2 552.8 255.9 547.9 247.2 557.8 247.2"/>
      <polygon class="cls-67" points="557.8 200.7 552.8 192 547.9 200.7 557.8 200.7"/>
      <line class="cls-15" x1="471.1" y1="185.5" x2="414.6" y2="251.5"/>
      <polygon class="cls-67" points="466.4 183.3 475.8 180 473.9 189.8 466.4 183.3"/>
      <polygon class="cls-67" points="411.7 247.1 409.9 256.9 419.3 253.6 411.7 247.1"/>
      <rect class="cls-62" x="631.2" y="177.4" width="11.6" height="5.8"/>
      <circle class="cls-13" cx="599.2" cy="174.1" r="4.7"/>
      <line class="cls-11" x1="599.2" y1="169.4" x2="599.2" y2="142.2"/>
      <line class="cls-11" x1="592.2" y1="152" x2="599.2" y2="142"/>
      <line class="cls-11" x1="606.2" y1="152" x2="599.2" y2="142"/>
      <path class="cls-11" d="M594.5,173.1s.3-3.3-4.4-7.9c-2.7-2.7-8.8-7.9-8.8-7.9"/>
      <line class="cls-11" x1="581.9" y1="164.9" x2="580" y2="155.8"/>
      <line class="cls-11" x1="589.1" y1="157.2" x2="580" y2="155.8"/>
      <path class="cls-11" d="M603.8,173.1s-.3-3.3,4.4-7.9c2.7-2.7,8.8-7.9,8.8-7.9"/>
      <line class="cls-11" x1="616.5" y1="164.9" x2="618.4" y2="155.8"/>
      <line class="cls-11" x1="609.2" y1="157.2" x2="618.4" y2="155.8"/>
      <rect class="cls-62" x="210.4" y="159.2" width="20.1" height="5.2"/>
      <line class="cls-15" x1="255.6" y1="162.1" x2="202.7" y2="162.1"/>
      <polygon class="cls-67" points="254.1 157.1 262.8 162.1 254.1 167.1 254.1 157.1"/>
      <path class="cls-27" d="M157.6,188.7c-.8-.6-1.3-1.5-1.2-2.8v-29.9c0-2.5,1.9-5.4,4.3-6.2l28-10.6c1.2-.4,2.3-.4,3.1.2l6.8,4.7c-.8-.6-1.9-.7-3.1-.2l-28,10.6c-2.4.9-4.3,3.7-4.3,6.2v29.9c0,1.3.5,2.3,1.2,2.8l-6.8-4.7Z"/>
      <path class="cls-34" d="M175.6,151.4v8.7c0,2.5-1.9,5.4-4.3,6.2l-8.1,3.1v12.9l20.2-7.6c2.4-.9,4.3-3.7,4.3-6.2v-21.6l-12.1,4.5h0Z"/>
      <path class="cls-27" d="M186.4,135.8c-.8-.6-1.9-.7-3.1-.2l-28,10.6c-2.4.9-4.3,3.7-4.3,6.2v29.9c0,1.3.5,2.3,1.2,2.8l-12.1-8.3c-.8-.6-1.3-1.5-1.2-2.8v-29.9c0-2.5,1.9-5.4,4.3-6.2l28-10.6c1.2-.4,2.3-.3,3.1.2l12.1,8.3h0Z"/>
      <path class="cls-34" d="M151.1,182.3c0,1.3.5,2.3,1.2,2.8.8.6,1.9.7,3.1.2l1-.4v-12.9l-5.3,2v8.3Z"/>
      <path class="cls-34" d="M186.4,135.8h0l-.4-.2c-.2-.1-.5-.2-.8-.2h-1.1c-.1,0-.2,0-.2.1h-.1c-.1,0-.3.1-.4.1l-7.8,2.9v5.7l12.1-4.6v-1c0-1.3-.5-2.3-1.3-2.8h0Z"/>
      <path class="cls-34" d="M198.5,144.1h0c-.5-.4-1.1-.5-1.8-.5h-.6c-.2,0-.4.1-.7.2l-2.5.9v27.3c0,2.5-1.9,5.4-4.3,6.2l-25.5,9.7v2.6c0,1.3.5,2.3,1.2,2.8h0c.8.6,1.9.7,3.1.2l28-10.6c2.4-.9,4.3-3.7,4.3-6.2v-29.9c.1-1.2-.4-2.1-1.2-2.7h0Z"/>
      <path class="cls-62" d="M151.1,152.4v21.6h0l5.3-2h0v-15.9c0-2.5,1.9-5.4,4.3-6.2l14.9-5.6v-5.7l-20.2,7.6c-2.3.9-4.3,3.7-4.3,6.2Z"/>
      <path class="cls-62" d="M202,142.2s-.2-.2-.7-.4h-.1c-.1-.2-.2-.2-.3-.3l-.5-.4c-.3-.2-.7-.5-1-.7h-.2c-1.5-1.1-3.1-2.2-4.1-2.9l-.4-.3c-.1-.1-.2-.1-.2-.2h0l-5.9-4.1h0l-13.5-9.3h0c-.9-.6-2.1-.7-3.4-.2l-31.3,11.8c-2.7,1-4.9,4.2-4.9,7v33.5c0,1.4.6,2.5,1.4,3.1l5.9,4.1,1.5,1,1,.7,5.1,3.5h0l5.9,4.1h0l1.7,1.2,5.9,4.1h0c.9.6,2.1.7,3.4.2l31.3-11.9c2.7-1,4.9-4.2,4.9-7v-33.5c0-1.4-.6-2.5-1.5-3.1h0ZM199.8,176.8c0,2.5-1.9,5.4-4.3,6.2l-28,10.6c-1.2.4-2.3.4-3.1-.2h0l-6.8-4.7c-.8-.6-1.3-1.5-1.2-2.8v-1h0l-1,.4c-1.2.4-2.3.4-3.1-.2h0l-12.1-8.3c-.8-.6-1.3-1.5-1.2-2.8v-29.9c0-2.5,1.9-5.4,4.3-6.2l28-10.6c1.2-.4,2.3-.3,3.1.2l12.1,8.3h0c.8.6,1.3,1.5,1.2,2.8v1l1-.4c1.2-.4,2.3-.4,3.1.2l6.8,4.7h0c.8.6,1.3,1.5,1.2,2.8v29.9Z"/>
      <path class="cls-62" d="M163.1,169.4l8.1-3.1c2.4-.9,4.3-3.7,4.3-6.2v-8.7l-8.1,3.1c-2.4.9-4.3,3.7-4.3,6.2v8.7h0Z"/>
      <path class="cls-62" d="M187.7,168.5c0,2.5-1.9,5.4-4.3,6.2l-20.2,7.6v5.7l25.5-9.7c2.4-.9,4.3-3.7,4.3-6.2v-27.3l-5.3,2v21.7h0Z"/>
      <path class="cls-16" d="M618.6,192h-130.8c-6.6,0-12-5.4-12-12v-30.4c0-6.6,5.4-12,12-12h130.8c6.6,0,12,5.4,12,12v30.4c0,6.7-5.4,12-12,12Z"/>
      <path class="cls-16" d="M617.7,310.2h-130.8c-6.6,0-12-5.4-12-12v-30.4c0-6.6,5.4-12,12-12h130.8c6.6,0,12,5.4,12,12v30.4c0,6.7-5.3,12-12,12Z"/>
      <rect class="cls-62" x="534.8" y="315.4" width="6.7" height="16"/>
      <path class="cls-16" d="M408.2,190.9h-130.8c-6.6,0-12-5.4-12-12v-30.4c0-6.6,5.4-12,12-12h130.8c6.6,0,12,5.4,12,12v30.4c0,6.7-5.3,12-12,12Z"/>
      <rect class="cls-62" x="631.3" y="332.3" width="16" height="6.7"/>
      <path class="cls-16" d="M408.2,310.3h-130.8c-6.6,0-12-5.4-12-12v-30.4c0-6.6,5.4-12,12-12h130.8c6.6,0,12,5.4,12,12v30.4c0,6.6-5.3,12-12,12Z"/>
      <circle class="cls-69" cx="136.5" cy="267.7" r="11.5"/>
      <text class="cls-6" transform="translate(131.5 274.6) scale(.9 1)"><tspan x="0" y="0">3</tspan></text>
      <line class="cls-15" x1="185.1" y1="254.1" x2="185.1" y2="197.5"/>
      <polygon class="cls-67" points="190 252.7 185.1 261.3 180.1 252.7 190 252.7"/>
      <polygon class="cls-67" points="190 199 185.1 190.3 180.1 199 190 199"/>
      <line class="cls-15" x1="185.1" y1="76.7" x2="185.1" y2="119.7"/>
      <polygon class="cls-67" points="180.1 118.3 185.1 126.9 190 118.3 180.1 118.3"/>
      <rect class="cls-62" x="534.8" y="342.8" width="6.7" height="26.6"/>
      <line class="cls-15" x1="538.2" y1="376.7" x2="538.2" y2="310.3"/>
      <polygon class="cls-67" points="543.2 375.2 538.2 383.8 533.2 375.2 543.2 375.2"/>
      <g id="YaBBUz.tif">
        <image id="Layer_0" class="cls-5" width="141" height="134" transform="translate(693.2 378.2) scale(.4)" xlink:href="trusted_story-1.png"/>
      </g>
      <text class="cls-2" transform="translate(419.2 123.4) scale(.9 1)"><tspan x="0" y="0">P</tspan></text>
      <text class="cls-2" transform="translate(432.2 123.4) scale(.9 1)"><tspan x="0" y="0">ods</tspan></text>
      <text class="cls-7" transform="translate(405.6 43.6) scale(.9 1)"><tspan x="0" y="0">Clu</tspan></text>
      <text class="cls-7" transform="translate(438.2 43.6) scale(.9 1)"><tspan x="0" y="0">s</tspan></text>
      <text class="cls-7" transform="translate(448.9 43.6) scale(.9 1)"><tspan x="0" y="0">t</tspan></text>
      <text class="cls-7" transform="translate(456.6 43.6) scale(.9 1)"><tspan x="0" y="0">er</tspan></text>
      <text class="cls-2" transform="translate(376.1 88.5) scale(.9 1)"><tspan x="0" y="0">W</tspan></text>
      <text class="cls-2" transform="translate(395.6 88.5) scale(.9 1)"><tspan x="0" y="0">or</tspan></text>
      <text class="cls-2" transform="translate(416.3 88.5) scale(.9 1)"><tspan x="0" y="0">k</tspan></text>
      <text class="cls-2" transform="translate(427.7 88.5) scale(.9 1)"><tspan x="0" y="0">er node</tspan></text>
      <text class="cls-4" transform="translate(18.6 343.9) scale(.9 1)"><tspan x="0" y="0">V</tspan></text>
      <text class="cls-4" transform="translate(28.4 343.9) scale(.9 1)"><tspan x="0" y="0">ulne</tspan></text>
      <text class="cls-4" transform="translate(61.2 343.9) scale(.9 1)"><tspan x="0" y="0">r</tspan></text>
      <text class="cls-4" transform="translate(67.3 343.9) scale(.9 1)"><tspan x="0" y="0">ability Advisor</tspan></text>
      <text class="cls-4" transform="translate(32.2 208.2) scale(.9 1)"><tspan x="0" y="0">Container </tspan></text>
      <text class="cls-4" transform="translate(109.3 208.2) scale(.9 1)"><tspan x="0" y="0">R</tspan></text>
      <text class="cls-4" transform="translate(119.8 208.2) scale(.9 1)"><tspan x="0" y="0">egi</tspan></text>
      <text class="cls-4" transform="translate(142 208.2) scale(.9 1)"><tspan x="0" y="0">s</tspan></text>
      <text class="cls-4" transform="translate(150 208.2) scale(.9 1)"><tspan x="0" y="0">t</tspan></text>
      <text class="cls-4" transform="translate(155.9 208.2) scale(.9 1)"><tspan x="0" y="0">r</tspan></text>
      <text class="cls-4" transform="translate(162.2 208.2) scale(.9 1)"><tspan x="0" y="0">y</tspan></text>
      <text class="cls-4" transform="translate(61.1 95.8) scale(.9 1)"><tspan x="0" y="0">Signed ima</tspan></text>
      <text class="cls-4" transform="translate(144 95.8) scale(.9 1)"><tspan x="0" y="0">g</tspan></text>
      <text class="cls-4" transform="translate(152.7 95.8) scale(.9 1)"><tspan x="0" y="0">e</tspan></text>
      <text class="cls-4" transform="translate(524.8 465.9) scale(.9 1)"><tspan x="0" y="0">SCC</tspan></text>
      <text class="cls-4" transform="translate(659.5 452.2) scale(.9 1)"><tspan x="0" y="0">Sec</tspan></text>
      <text class="cls-4" transform="translate(686.9 452.2) scale(.9 1)"><tspan x="0" y="0">r</tspan></text>
      <text class="cls-4" transform="translate(692.9 452.2) scale(.9 1)"><tspan x="0" y="0">ets Mana</tspan></text>
      <text class="cls-4" transform="translate(761.1 452.2) scale(.9 1)"><tspan x="0" y="0">g</tspan></text>
      <text class="cls-4" transform="translate(769.8 452.2) scale(.9 1)"><tspan x="0" y="0">er</tspan></text>
      <text class="cls-1" transform="translate(497.9 161.3) scale(.9 1)"><tspan x="0" y="0">AL</tspan></text>
      <text class="cls-1" transform="translate(512.8 161.3) scale(.9 1)"><tspan x="0" y="0">B</tspan></text>
      <text class="cls-1" transform="translate(521.1 161.3) scale(.9 1)"><tspan x="0" y="0">/</tspan></text>
      <text class="cls-1" transform="translate(526.1 161.3) scale(.9 1)"><tspan x="0" y="0">L</tspan></text>
      <text class="cls-1" transform="translate(532.4 161.3) scale(.9 1)"><tspan x="0" y="0">oad</tspan></text>
      <text class="cls-1" transform="translate(500.2 178.1) scale(.9 1)"><tspan x="0" y="0">Balan</tspan></text>
      <text class="cls-1" transform="translate(533.5 178.1) scale(.9 1)"><tspan x="0" y="0">c</tspan></text>
      <text class="cls-1" transform="translate(540 178.1) scale(.9 1)"><tspan x="0" y="0">er</tspan></text>
      <text class="cls-1" transform="translate(345.7 151.3) scale(.9 1)"><tspan x="0" y="0">Ima</tspan></text>
      <text class="cls-1" transform="translate(369.2 151.3) scale(.9 1)"><tspan x="0" y="0">g</tspan></text>
      <text class="cls-1" transform="translate(376 151.3) scale(.9 1)"><tspan x="0" y="0">e</tspan></text>
      <text class="cls-1" transform="translate(340.5 168.1) scale(.9 1)"><tspan x="0" y="0">Security</tspan></text>
      <text class="cls-1" transform="translate(326.8 184.9) scale(.9 1)"><tspan x="0" y="0">En</tspan></text>
      <text class="cls-1" transform="translate(341.8 184.9) scale(.9 1)"><tspan x="0" y="0">f</tspan></text>
      <text class="cls-1" transform="translate(345.9 184.9) scale(.9 1)"><tspan x="0" y="0">o</tspan></text>
      <text class="cls-1" transform="translate(353.2 184.9) scale(.9 1)"><tspan x="0" y="0">r</tspan></text>
      <text class="cls-1" transform="translate(357.9 184.9) scale(.9 1)"><tspan x="0" y="0">c</tspan></text>
      <text class="cls-1" transform="translate(364.4 184.9) scale(.9 1)"><tspan x="0" y="0">ement</tspan></text>
      <text class="cls-1" transform="translate(328.8 286.6) scale(.9 1)"><tspan x="0" y="0">Container</tspan></text>
      <text/>
      <text class="cls-1" transform="translate(520.4 289.6) scale(.9 1)"><tspan x="0" y="0">SCC</tspan></text>
      <g id="YaBBUz.tif-2" data-name="YaBBUz.tif">
        <image id="Layer_0-2" data-name="Layer_0" class="cls-5" width="140" height="132" transform="translate(603.8 166.7) scale(.2)" xlink:href="trusted_story-2.png"/>
      </g>
    </g>
  </g>
</svg>