<?xml version="1.0" encoding="utf-8"?>
<!-- Generator: Adobe Illustrator 25.0.0, SVG Export Plug-In . SVG Version: 6.00 Build 0)  -->
<svg version="1.1" xmlns="http://www.w3.org/2000/svg" xmlns:xlink="http://www.w3.org/1999/xlink" x="0px" y="0px"
	 viewBox="0 0 680.25 344.08" style="enable-background:new 0 0 680.25 344.08;" xml:space="preserve">
<style type="text/css">
	.st0{fill:none;stroke:#5BBDB6;stroke-width:3;stroke-miterlimit:10;}
	.st1{fill:#FFFFFF;}
	.st2{fill:#5BBDB6;}
	.st3{fill:none;stroke:#EDC01B;stroke-width:3;stroke-miterlimit:10;}
	.st4{fill:#EDC01B;}
	.st5{fill:none;stroke:#E51F32;stroke-width:3;stroke-miterlimit:10;}
	.st6{fill:#E51F32;}
	.st7{fill:none;stroke:#734199;stroke-width:3;stroke-miterlimit:10;}
	.st8{fill:#734199;}
	.st9{fill:none;stroke:#DFE5EB;stroke-width:3;stroke-miterlimit:10;}
	.st10{fill:#DFE5EB;}
	.st11{fill:none;stroke:#000000;stroke-miterlimit:10;}
	.st12{fill:none;stroke:#000000;stroke-width:3;stroke-miterlimit:10;}
	.st13{opacity:0.36;}
	.st14{fill:none;stroke:#000000;stroke-miterlimit:10;stroke-dasharray:4.9884,4.9884;}
	.st15{fill:none;stroke:#000000;stroke-miterlimit:10;stroke-dasharray:4.9768,4.9768;}
	.st16{fill:none;stroke:#000000;stroke-miterlimit:10;stroke-dasharray:4.9187,4.9187;}
	.st17{fill:none;stroke:#000000;stroke-miterlimit:10;stroke-dasharray:5.1059,5.1059;}
	.st18{fill:none;}
	.st19{font-family:'IBMPlexSans';}
	.st20{font-size:10px;}
	.st21{font-family:'IBMPlexSans-Bold';}
	.st22{font-size:14px;}
	.st23{font-size:8px;}
	.st24{font-size:13px;}
	.st25{fill:none;stroke:#000000;stroke-miterlimit:10;stroke-dasharray:5.1098,5.1098;}
</style>
<g id="Layer_1">
	<g>
		<g>
			<line class="st0" x1="388.25" y1="10.58" x2="353.36" y2="10.58"/>
			<g>
				<g>
					<path class="st1" d="M353.83,2.12c-4.67,0-8.46,3.79-8.46,8.46s3.79,8.46,8.46,8.46c4.67,0,8.46-3.79,8.46-8.46
						S358.51,2.12,353.83,2.12z"/>
					<path class="st2" d="M353.83,1c5.28,0,9.58,4.3,9.58,9.58s-4.3,9.58-9.58,9.58c-5.28,0-9.58-4.3-9.58-9.58S348.55,1,353.83,1
						C359.12,1,348.55,1,353.83,1z M353.83,17.92c4.05,0,7.33-3.29,7.33-7.33s-3.29-7.33-7.33-7.33c-4.05,0-7.33,3.29-7.33,7.33
						S349.79,17.92,353.83,17.92C357.88,17.92,349.79,17.92,353.83,17.92z"/>
				</g>
			</g>
		</g>
	</g>
	<g>
		<g>
			<line class="st3" x1="493.75" y1="9.58" x2="458.86" y2="9.58"/>
			<g>
				<g>
					<path class="st1" d="M459.33,1.12c-4.67,0-8.46,3.79-8.46,8.46s3.79,8.46,8.46,8.46c4.67,0,8.46-3.79,8.46-8.46
						S464.01,1.12,459.33,1.12z"/>
					<path class="st4" d="M459.33,0c5.28,0,9.58,4.3,9.58,9.58s-4.3,9.58-9.58,9.58c-5.28,0-9.58-4.3-9.58-9.58S454.05,0,459.33,0
						C464.62,0,454.05,0,459.33,0z M459.33,16.92c4.05,0,7.33-3.29,7.33-7.33s-3.29-7.33-7.33-7.33c-4.05,0-7.33,3.29-7.33,7.33
						S455.29,16.92,459.33,16.92C463.38,16.92,455.29,16.92,459.33,16.92z"/>
				</g>
			</g>
		</g>
	</g>
	<g>
		<g>
			<line class="st5" x1="602.75" y1="10.58" x2="567.86" y2="10.58"/>
			<g>
				<g>
					<path class="st1" d="M568.33,2.12c-4.67,0-8.46,3.79-8.46,8.46s3.79,8.46,8.46,8.46c4.67,0,8.46-3.79,8.46-8.46
						S573.01,2.12,568.33,2.12z"/>
					<path class="st6" d="M568.33,1c5.28,0,9.58,4.3,9.58,9.58s-4.3,9.58-9.58,9.58c-5.28,0-9.58-4.3-9.58-9.58S563.05,1,568.33,1
						C573.62,1,563.05,1,568.33,1z M568.33,17.92c4.05,0,7.33-3.29,7.33-7.33s-3.29-7.33-7.33-7.33c-4.05,0-7.33,3.29-7.33,7.33
						S564.29,17.92,568.33,17.92C572.38,17.92,564.29,17.92,568.33,17.92z"/>
				</g>
			</g>
		</g>
	</g>
	<g>
		<g>
			<line class="st7" x1="242.75" y1="10.58" x2="207.86" y2="10.58"/>
			<g>
				<g>
					<path class="st1" d="M208.33,2.12c-4.67,0-8.46,3.79-8.46,8.46s3.79,8.46,8.46,8.46c4.67,0,8.46-3.79,8.46-8.46
						S213.01,2.12,208.33,2.12z"/>
					<path class="st8" d="M208.33,1c5.28,0,9.58,4.3,9.58,9.58s-4.3,9.58-9.58,9.58c-5.28,0-9.58-4.3-9.58-9.58S203.05,1,208.33,1
						C213.62,1,203.05,1,208.33,1z M208.33,17.92c4.05,0,7.33-3.29,7.33-7.33s-3.29-7.33-7.33-7.33c-4.05,0-7.33,3.29-7.33,7.33
						S204.29,17.92,208.33,17.92C212.38,17.92,204.29,17.92,208.33,17.92z"/>
				</g>
			</g>
		</g>
	</g>
	<g>
		<g>
			<line class="st9" x1="125.75" y1="10.58" x2="90.86" y2="10.58"/>
			<g>
				<g>
					<path class="st1" d="M91.33,2.12c-4.67,0-8.46,3.79-8.46,8.46s3.79,8.46,8.46,8.46c4.67,0,8.46-3.79,8.46-8.46
						S96.01,2.12,91.33,2.12z"/>
					<path class="st10" d="M91.33,1c5.28,0,9.58,4.3,9.58,9.58s-4.3,9.58-9.58,9.58c-5.28,0-9.58-4.3-9.58-9.58S86.05,1,91.33,1
						C96.62,1,86.05,1,91.33,1z M91.33,17.92c4.05,0,7.33-3.29,7.33-7.33s-3.29-7.33-7.33-7.33c-4.05,0-7.33,3.29-7.33,7.33
						S87.29,17.92,91.33,17.92C95.38,17.92,87.29,17.92,91.33,17.92z"/>
				</g>
			</g>
		</g>
	</g>
	<g>
		<line class="st11" x1="64.33" y1="306.59" x2="657.5" y2="306.59"/>
	</g>
	<g>
		<line class="st12" x1="72.5" y1="299.26" x2="72.5" y2="314.26"/>
	</g>
	<g>
		<line class="st12" x1="115.62" y1="303.01" x2="115.62" y2="310.51"/>
	</g>
	<g>
		<line class="st12" x1="162.75" y1="299.26" x2="162.75" y2="314.26"/>
	</g>
	<g>
		<line class="st12" x1="206.88" y1="303.01" x2="206.88" y2="310.51"/>
	</g>
	<g>
		<line class="st12" x1="250.5" y1="299.08" x2="250.5" y2="314.08"/>
	</g>
	<g>
		<line class="st12" x1="295.12" y1="303.01" x2="295.12" y2="310.51"/>
	</g>
	<g>
		<line class="st12" x1="342.5" y1="299.08" x2="342.5" y2="314.08"/>
	</g>
	<g>
		<line class="st12" x1="386.38" y1="303.01" x2="386.38" y2="310.51"/>
	</g>
	<g>
		<line class="st12" x1="432.5" y1="299.08" x2="432.5" y2="313.58"/>
	</g>
	<g>
		<line class="st12" x1="476.62" y1="303.01" x2="476.62" y2="310.51"/>
	</g>
	<g>
		<line class="st12" x1="522.75" y1="299.26" x2="522.75" y2="314.26"/>
	</g>
	<g>
		<line class="st12" x1="566.88" y1="303.01" x2="566.88" y2="310.51"/>
	</g>
	<g>
		<line class="st12" x1="612" y1="299.26" x2="612" y2="314.26"/>
	</g>
	<g>
		<line class="st12" x1="656.12" y1="303.01" x2="656.12" y2="310.51"/>
	</g>
</g>
<g id="text">
	<g class="st13">
		<g>
			<line class="st11" x1="294.84" y1="299.93" x2="294.85" y2="297.43"/>
			<line class="st14" x1="294.86" y1="292.44" x2="295.33" y2="85.42"/>
			<line class="st11" x1="295.34" y1="82.93" x2="295.34" y2="80.43"/>
		</g>
	</g>
	<g class="st13">
		<g>
			<line class="st11" x1="206.84" y1="302.93" x2="206.85" y2="300.43"/>
			<line class="st14" x1="206.86" y1="295.44" x2="207.33" y2="88.42"/>
			<line class="st11" x1="207.34" y1="85.93" x2="207.34" y2="83.43"/>
		</g>
	</g>
	<g class="st13">
		<g>
			<line class="st11" x1="162.84" y1="303.93" x2="162.85" y2="301.43"/>
			<line class="st14" x1="162.86" y1="296.44" x2="163.33" y2="89.42"/>
			<line class="st11" x1="163.34" y1="86.93" x2="163.34" y2="84.43"/>
		</g>
	</g>
	<g class="st13">
		<g>
			<line class="st11" x1="115.5" y1="300.58" x2="115.51" y2="298.08"/>
			<line class="st15" x1="115.53" y1="293.11" x2="116.48" y2="86.57"/>
			<line class="st11" x1="116.49" y1="84.08" x2="116.5" y2="81.58"/>
		</g>
	</g>
	<g>
		<g>
			<line class="st7" x1="72.61" y1="125.58" x2="120.5" y2="125.58"/>
			<g>
				<g>
					<path class="st1" d="M73.08,134.04c-4.67,0-8.46-3.79-8.46-8.46c0-4.67,3.79-8.46,8.46-8.46c4.67,0,8.46,3.79,8.46,8.46
						C81.54,130.26,77.76,134.04,73.08,134.04z"/>
					<path class="st8" d="M73.08,135.17c5.28,0,9.58-4.3,9.58-9.58c0-5.28-4.3-9.58-9.58-9.58c-5.28,0-9.58,4.3-9.58,9.58
						C63.5,130.87,67.8,135.17,73.08,135.17C78.37,135.17,67.8,135.17,73.08,135.17z M73.08,118.25c4.05,0,7.33,3.29,7.33,7.33
						c0,4.05-3.29,7.33-7.33,7.33c-4.05,0-7.33-3.29-7.33-7.33C65.75,121.54,69.04,118.25,73.08,118.25
						C77.13,118.25,69.04,118.25,73.08,118.25z"/>
				</g>
			</g>
		</g>
	</g>
	<g>
		<g>
			<line class="st0" x1="116.44" y1="125.58" x2="205.83" y2="125.58"/>
			<g>
				<g>
					<path class="st1" d="M116.92,134.04c-4.67,0-8.46-3.79-8.46-8.46c0-4.67,3.79-8.46,8.46-8.46c4.67,0,8.46,3.79,8.46,8.46
						C125.38,130.26,121.59,134.04,116.92,134.04z"/>
					<path class="st2" d="M116.92,135.17c5.28,0,9.58-4.3,9.58-9.58c0-5.28-4.3-9.58-9.58-9.58c-5.28,0-9.58,4.3-9.58,9.58
						C107.33,130.87,111.63,135.17,116.92,135.17C122.2,135.17,111.63,135.17,116.92,135.17z M116.92,118.25
						c4.05,0,7.33,3.29,7.33,7.33c0,4.05-3.29,7.33-7.33,7.33c-4.05,0-7.33-3.29-7.33-7.33
						C109.58,121.54,112.87,118.25,116.92,118.25C120.96,118.25,112.87,118.25,116.92,118.25z"/>
				</g>
			</g>
		</g>
	</g>
	<g>
		<g>
			<line class="st0" x1="207.11" y1="125.58" x2="307.5" y2="125.58"/>
			<g>
				<g>
					<path class="st1" d="M207.58,134.04c-4.67,0-8.46-3.79-8.46-8.46c0-4.67,3.79-8.46,8.46-8.46c4.67,0,8.46,3.79,8.46,8.46
						C216.04,130.26,212.26,134.04,207.58,134.04z"/>
					<path class="st2" d="M207.58,135.17c5.28,0,9.58-4.3,9.58-9.58c0-5.28-4.3-9.58-9.58-9.58c-5.28,0-9.58,4.3-9.58,9.58
						C198,130.87,202.3,135.17,207.58,135.17C212.87,135.17,202.3,135.17,207.58,135.17z M207.58,118.25c4.05,0,7.33,3.29,7.33,7.33
						c0,4.05-3.29,7.33-7.33,7.33c-4.05,0-7.33-3.29-7.33-7.33C200.25,121.54,203.54,118.25,207.58,118.25
						C211.63,118.25,203.54,118.25,207.58,118.25z"/>
				</g>
			</g>
		</g>
	</g>
	<g>
		<g>
			<line class="st0" x1="295.61" y1="125.77" x2="385.5" y2="125.58"/>
			<g>
				<g>
					<path class="st1" d="M296.1,134.23c-4.67,0.01-8.47-3.77-8.48-8.44c-0.01-4.67,3.77-8.47,8.44-8.48
						c4.67-0.01,8.47,3.77,8.48,8.44C304.55,130.42,300.77,134.22,296.1,134.23z"/>
					<path class="st2" d="M296.1,135.35c5.28-0.01,9.58-4.32,9.56-9.6c-0.01-5.28-4.32-9.58-9.6-9.57c-5.28,0.01-9.58,4.32-9.57,9.6
						C286.51,131.07,290.82,135.36,296.1,135.35C301.39,135.34,290.82,135.36,296.1,135.35z M296.07,118.43
						c4.05-0.01,7.34,3.27,7.35,7.32c0.01,4.05-3.27,7.34-7.32,7.35c-4.05,0.01-7.34-3.27-7.35-7.32
						C288.74,121.74,292.02,118.44,296.07,118.43C300.12,118.42,292.02,118.44,296.07,118.43z"/>
				</g>
			</g>
		</g>
	</g>
	<g class="st13">
		<g>
			<line class="st11" x1="655.84" y1="301.93" x2="655.85" y2="299.43"/>
			<line class="st14" x1="655.86" y1="294.44" x2="656.33" y2="87.42"/>
			<line class="st11" x1="656.34" y1="84.93" x2="656.34" y2="82.43"/>
		</g>
	</g>
	<g class="st13">
		<g>
			<line class="st11" x1="611.84" y1="301.93" x2="611.85" y2="299.43"/>
			<line class="st14" x1="611.86" y1="294.44" x2="612.33" y2="87.42"/>
			<line class="st11" x1="612.34" y1="84.93" x2="612.34" y2="82.43"/>
		</g>
	</g>
	<g class="st13">
		<g>
			<line class="st11" x1="566.84" y1="298.93" x2="566.85" y2="296.43"/>
			<line class="st14" x1="566.86" y1="291.44" x2="567.33" y2="84.42"/>
			<line class="st11" x1="567.34" y1="81.93" x2="567.34" y2="79.43"/>
		</g>
	</g>
	<g class="st13">
		<g>
			<line class="st11" x1="522.84" y1="300.93" x2="522.85" y2="298.43"/>
			<line class="st14" x1="522.86" y1="293.44" x2="523.33" y2="86.42"/>
			<line class="st11" x1="523.34" y1="83.93" x2="523.34" y2="81.43"/>
		</g>
	</g>
	<g class="st13">
		<g>
			<line class="st11" x1="476.84" y1="305.93" x2="476.84" y2="303.43"/>
			<line class="st16" x1="476.83" y1="298.51" x2="476.51" y2="84.54"/>
			<line class="st11" x1="476.5" y1="82.08" x2="476.5" y2="79.58"/>
		</g>
	</g>
	<g class="st13">
		<g>
			<line class="st11" x1="431.84" y1="296.93" x2="431.85" y2="294.43"/>
			<line class="st17" x1="431.87" y1="289.32" x2="432.48" y2="87.64"/>
			<line class="st11" x1="432.49" y1="85.08" x2="432.5" y2="82.58"/>
		</g>
	</g>
	<g class="st13">
		<g>
			<line class="st11" x1="385.84" y1="300.93" x2="385.85" y2="298.43"/>
			<line class="st14" x1="385.86" y1="293.44" x2="386.33" y2="86.42"/>
			<line class="st11" x1="386.34" y1="83.93" x2="386.34" y2="81.43"/>
		</g>
	</g>
	<g class="st13">
		<g>
			<line class="st11" x1="342.84" y1="300.93" x2="342.85" y2="298.43"/>
			<line class="st14" x1="342.86" y1="293.44" x2="343.33" y2="86.42"/>
			<line class="st11" x1="343.34" y1="83.93" x2="343.34" y2="81.43"/>
		</g>
	</g>
	<g class="st13">
		<g>
			<line class="st11" x1="250.84" y1="299.93" x2="250.85" y2="297.43"/>
			<line class="st14" x1="250.86" y1="292.44" x2="251.33" y2="85.42"/>
			<line class="st11" x1="251.34" y1="82.93" x2="251.34" y2="80.43"/>
		</g>
	</g>
	<g>
		<g>
			<line class="st3" x1="161.94" y1="263.58" x2="202.5" y2="263.58"/>
			<g>
				<g>
					<path class="st1" d="M162.42,272.04c-4.67,0-8.46-3.79-8.46-8.46s3.79-8.46,8.46-8.46c4.67,0,8.46,3.79,8.46,8.46
						S167.09,272.04,162.42,272.04z"/>
					<path class="st4" d="M162.42,273.17c5.28,0,9.58-4.3,9.58-9.58s-4.3-9.58-9.58-9.58c-5.28,0-9.58,4.3-9.58,9.58
						S157.13,273.17,162.42,273.17C167.7,273.17,157.13,273.17,162.42,273.17z M162.42,256.25c4.05,0,7.33,3.29,7.33,7.33
						s-3.29,7.33-7.33,7.33c-4.05,0-7.33-3.29-7.33-7.33S158.37,256.25,162.42,256.25C166.46,256.25,158.37,256.25,162.42,256.25z"
						/>
				</g>
			</g>
		</g>
	</g>
	<g>
		<line class="st9" x1="67.5" y1="79.19" x2="168.5" y2="79.58"/>
	</g>
	<g>
		<line class="st0" x1="67.33" y1="171.59" x2="125.5" y2="171.58"/>
	</g>
	<rect id="XMLID_82_" x="107.6" y="318.39" class="st18" width="27.33" height="15.79"/>
	<text id="XMLID_81_" transform="matrix(1 0 0 1 107.6026 326.884)" class="st19 st20">45d</text>
	<rect id="XMLID_80_" x="34" y="315.39" class="st18" width="76" height="28.69"/>
	<text id="XMLID_79_" transform="matrix(1 0 0 1 55.8724 327.2796)"><tspan x="0" y="0" class="st21 st22">Days </tspan><tspan x="-10.6" y="9.6" class="st21 st23">(approximate)</tspan></text>
	<rect id="XMLID_78_" x="154.7" y="319.39" class="st18" width="27.33" height="15.79"/>
	<text id="XMLID_77_" transform="matrix(1 0 0 1 154.6957 327.884)" class="st19 st20">90d</text>
	<rect id="XMLID_76_" x="194.79" y="318.39" class="st18" width="27.33" height="15.79"/>
	<text id="XMLID_75_" transform="matrix(1 0 0 1 194.7889 326.884)" class="st19 st20">135d</text>
	<rect id="XMLID_68_" x="239.88" y="318.39" class="st18" width="27.33" height="15.79"/>
	<text id="XMLID_67_" transform="matrix(1 0 0 1 239.882 326.884)" class="st19 st20">180d</text>
	<rect id="XMLID_66_" x="284.98" y="318.39" class="st18" width="27.33" height="15.79"/>
	<text id="XMLID_65_" transform="matrix(1 0 0 1 284.9752 326.884)" class="st19 st20">225d</text>
	<rect id="XMLID_54_" x="332.07" y="318.39" class="st18" width="27.33" height="15.79"/>
	<text id="XMLID_53_" transform="matrix(1 0 0 1 332.0684 326.884)" class="st19 st20">270d</text>
	<rect id="XMLID_116_" x="373.16" y="318.39" class="st18" width="27.33" height="15.79"/>
	<text id="XMLID_115_" transform="matrix(1 0 0 1 373.1615 326.884)" class="st19 st20">315d</text>
	<rect id="XMLID_114_" x="422.25" y="318.39" class="st18" width="27.33" height="15.79"/>
	<text id="XMLID_113_" transform="matrix(1 0 0 1 422.2547 326.884)" class="st19 st20">360d</text>
	<rect id="XMLID_112_" x="463.35" y="318.39" class="st18" width="27.33" height="15.79"/>
	<text id="XMLID_111_" transform="matrix(1 0 0 1 463.3478 326.884)" class="st19 st20">405d</text>
	<rect id="XMLID_110_" x="509.44" y="318.39" class="st18" width="27.33" height="15.79"/>
	<text id="XMLID_109_" transform="matrix(1 0 0 1 509.4409 326.884)" class="st19 st20">450d</text>
	<rect id="XMLID_106_" x="553.53" y="318.39" class="st18" width="27.33" height="15.79"/>
	<text id="XMLID_105_" transform="matrix(1 0 0 1 553.5341 326.884)" class="st19 st20">495d</text>
	<rect id="XMLID_104_" x="598.63" y="315.39" class="st18" width="27.33" height="15.79"/>
	<text id="XMLID_103_" transform="matrix(1 0 0 1 598.6273 323.884)" class="st19 st20">540d</text>
	<rect id="XMLID_102_" x="644.72" y="314.39" class="st18" width="27.33" height="15.79"/>
	<text id="XMLID_101_" transform="matrix(1 0 0 1 644.7204 322.884)" class="st19 st20">585d</text>
	<rect id="XMLID_108_" y="68.29" class="st18" width="79" height="31.79"/>
	<text id="XMLID_107_" transform="matrix(1 0 0 1 12.8351 76.7799)"><tspan x="0" y="0" class="st19 st20">Most recent</tspan><tspan x="20.48" y="12" class="st19 st20">(n)</tspan></text>
	<g>
		<g>
			<line class="st3" x1="385.44" y1="125.58" x2="432.5" y2="125.58"/>
			<g>
				<g>
					<path class="st1" d="M385.92,134.04c-4.67,0-8.46-3.79-8.46-8.46c0-4.67,3.79-8.46,8.46-8.46c4.67,0,8.46,3.79,8.46,8.46
						C394.38,130.26,390.59,134.04,385.92,134.04z"/>
					<path class="st4" d="M385.92,135.17c5.28,0,9.58-4.3,9.58-9.58c0-5.28-4.3-9.58-9.58-9.58c-5.28,0-9.58,4.3-9.58,9.58
						C376.33,130.87,380.63,135.17,385.92,135.17C391.2,135.17,380.63,135.17,385.92,135.17z M385.92,118.25
						c4.05,0,7.33,3.29,7.33,7.33c0,4.05-3.29,7.33-7.33,7.33c-4.05,0-7.33-3.29-7.33-7.33
						C378.58,121.54,381.87,118.25,385.92,118.25C389.96,118.25,381.87,118.25,385.92,118.25z"/>
				</g>
			</g>
		</g>
	</g>
	<g>
		<g>
			<line class="st3" x1="432.61" y1="125.58" x2="469.5" y2="125.58"/>
			<g>
				<g>
					<path class="st1" d="M433.08,134.04c-4.67,0-8.46-3.79-8.46-8.46c0-4.67,3.79-8.46,8.46-8.46c4.67,0,8.46,3.79,8.46,8.46
						C441.54,130.26,437.76,134.04,433.08,134.04z"/>
					<path class="st4" d="M433.08,135.17c5.28,0,9.58-4.3,9.58-9.58c0-5.28-4.3-9.58-9.58-9.58c-5.28,0-9.58,4.3-9.58,9.58
						C423.5,130.87,427.8,135.17,433.08,135.17C438.37,135.17,427.8,135.17,433.08,135.17z M433.08,118.25
						c4.05,0,7.33,3.29,7.33,7.33c0,4.05-3.29,7.33-7.33,7.33c-4.05,0-7.33-3.29-7.33-7.33
						C425.75,121.54,429.04,118.25,433.08,118.25C437.13,118.25,429.04,118.25,433.08,118.25z"/>
				</g>
			</g>
		</g>
	</g>
	<g>
		<g>
			<line class="st0" x1="207.11" y1="171.58" x2="308.5" y2="171.58"/>
			<g>
				<g>
					<path class="st1" d="M207.58,180.04c-4.67,0-8.46-3.79-8.46-8.46s3.79-8.46,8.46-8.46c4.67,0,8.46,3.79,8.46,8.46
						S212.26,180.04,207.58,180.04z"/>
					<path class="st2" d="M207.58,181.17c5.28,0,9.58-4.3,9.58-9.58s-4.3-9.58-9.58-9.58c-5.28,0-9.58,4.3-9.58,9.58
						S202.3,181.17,207.58,181.17C212.87,181.17,202.3,181.17,207.58,181.17z M207.58,164.25c4.05,0,7.33,3.29,7.33,7.33
						s-3.29,7.33-7.33,7.33c-4.05,0-7.33-3.29-7.33-7.33S203.54,164.25,207.58,164.25C211.63,164.25,203.54,164.25,207.58,164.25z"
						/>
				</g>
			</g>
		</g>
	</g>
	<g>
		<g>
			<line class="st3" x1="294.61" y1="171.58" x2="333.5" y2="171.58"/>
			<g>
				<g>
					<path class="st1" d="M295.08,180.04c-4.67,0-8.46-3.79-8.46-8.46s3.79-8.46,8.46-8.46c4.67,0,8.46,3.79,8.46,8.46
						S299.76,180.04,295.08,180.04z"/>
					<path class="st4" d="M295.08,181.17c5.28,0,9.58-4.3,9.58-9.58s-4.3-9.58-9.58-9.58c-5.28,0-9.58,4.3-9.58,9.58
						S289.8,181.17,295.08,181.17C300.37,181.17,289.8,181.17,295.08,181.17z M295.08,164.25c4.05,0,7.33,3.29,7.33,7.33
						s-3.29,7.33-7.33,7.33c-4.05,0-7.33-3.29-7.33-7.33S291.04,164.25,295.08,164.25C299.13,164.25,291.04,164.25,295.08,164.25z"
						/>
				</g>
			</g>
		</g>
	</g>
	<g>
		<g>
			<line class="st3" x1="342.11" y1="171.58" x2="387.5" y2="171.58"/>
			<g>
				<g>
					<path class="st1" d="M342.58,180.04c-4.67,0-8.46-3.79-8.46-8.46s3.79-8.46,8.46-8.46c4.67,0,8.46,3.79,8.46,8.46
						S347.26,180.04,342.58,180.04z"/>
					<path class="st4" d="M342.58,181.17c5.28,0,9.58-4.3,9.58-9.58s-4.3-9.58-9.58-9.58c-5.28,0-9.58,4.3-9.58,9.58
						S337.3,181.17,342.58,181.17C347.87,181.17,337.3,181.17,342.58,181.17z M342.58,164.25c4.05,0,7.33,3.29,7.33,7.33
						s-3.29,7.33-7.33,7.33c-4.05,0-7.33-3.29-7.33-7.33S338.54,164.25,342.58,164.25C346.63,164.25,338.54,164.25,342.58,164.25z"
						/>
				</g>
			</g>
		</g>
	</g>
	<g>
		<g>
			<line class="st0" x1="115.44" y1="171.59" x2="198.5" y2="171.59"/>
			<g>
				<g>
					<path class="st1" d="M115.92,180.04c-4.67,0-8.46-3.79-8.46-8.46s3.79-8.46,8.46-8.46c4.67,0,8.46,3.79,8.46,8.46
						S120.59,180.04,115.92,180.04z"/>
					<path class="st2" d="M115.92,181.17c5.28,0,9.58-4.3,9.58-9.58c0-5.28-4.3-9.58-9.58-9.58c-5.28,0-9.58,4.3-9.58,9.58
						C106.33,176.87,110.63,181.17,115.92,181.17C121.2,181.17,110.63,181.17,115.92,181.17z M115.92,164.25
						c4.05,0,7.33,3.29,7.33,7.33s-3.29,7.33-7.33,7.33c-4.05,0-7.33-3.29-7.33-7.33S111.87,164.25,115.92,164.25
						C119.96,164.25,111.87,164.25,115.92,164.25z"/>
				</g>
			</g>
		</g>
	</g>
	<g>
		<g>
			<line class="st3" x1="250.61" y1="217.58" x2="290.5" y2="217.58"/>
			<g>
				<g>
					<path class="st1" d="M251.08,226.04c-4.67,0-8.46-3.79-8.46-8.46s3.79-8.46,8.46-8.46c4.67,0,8.46,3.79,8.46,8.46
						S255.76,226.04,251.08,226.04z"/>
					<path class="st4" d="M251.08,227.17c5.28,0,9.58-4.3,9.58-9.58s-4.3-9.58-9.58-9.58c-5.28,0-9.58,4.3-9.58,9.58
						S245.8,227.17,251.08,227.17C256.37,227.17,245.8,227.17,251.08,227.17z M251.08,210.25c4.05,0,7.33,3.29,7.33,7.33
						s-3.29,7.33-7.33,7.33c-4.05,0-7.33-3.29-7.33-7.33S247.04,210.25,251.08,210.25C255.13,210.25,247.04,210.25,251.08,210.25z"
						/>
				</g>
			</g>
		</g>
	</g>
	<g>
		<line class="st0" x1="65.5" y1="217.58" x2="124.5" y2="217.58"/>
	</g>
	<g>
		<g>
			<line class="st3" x1="207.44" y1="217.58" x2="241.5" y2="217.58"/>
			<g>
				<g>
					<path class="st1" d="M207.92,226.04c-4.67,0-8.46-3.79-8.46-8.46s3.79-8.46,8.46-8.46c4.67,0,8.46,3.79,8.46,8.46
						S212.59,226.04,207.92,226.04z"/>
					<path class="st4" d="M207.92,227.17c5.28,0,9.58-4.3,9.58-9.58s-4.3-9.58-9.58-9.58c-5.28,0-9.58,4.3-9.58,9.58
						S202.63,227.17,207.92,227.17C213.2,227.17,202.63,227.17,207.92,227.17z M207.92,210.25c4.05,0,7.33,3.29,7.33,7.33
						s-3.29,7.33-7.33,7.33c-4.05,0-7.33-3.29-7.33-7.33S203.87,210.25,207.92,210.25C211.96,210.25,203.87,210.25,207.92,210.25z"
						/>
				</g>
			</g>
		</g>
	</g>
	<g>
		<g>
			<line class="st5" x1="293.61" y1="217.58" x2="482.5" y2="217.58"/>
			<g>
				<g>
					<path class="st1" d="M294.08,226.04c-4.67,0-8.46-3.79-8.46-8.46s3.79-8.46,8.46-8.46c4.67,0,8.46,3.79,8.46,8.46
						S298.76,226.04,294.08,226.04z"/>
					<path class="st6" d="M294.08,227.17c5.28,0,9.58-4.3,9.58-9.58s-4.3-9.58-9.58-9.58c-5.28,0-9.58,4.3-9.58,9.58
						S288.8,227.17,294.08,227.17C299.37,227.17,288.8,227.17,294.08,227.17z M294.08,210.25c4.05,0,7.33,3.29,7.33,7.33
						s-3.29,7.33-7.33,7.33c-4.05,0-7.33-3.29-7.33-7.33S290.04,210.25,294.08,210.25C298.13,210.25,290.04,210.25,294.08,210.25z"
						/>
				</g>
			</g>
		</g>
	</g>
	<g>
		<g>
			<line class="st5" x1="385.61" y1="217.58" x2="656.5" y2="217.58"/>
			<g>
				<g>
					<path class="st1" d="M386.08,226.04c-4.67,0-8.46-3.79-8.46-8.46s3.79-8.46,8.46-8.46c4.67,0,8.46,3.79,8.46,8.46
						S390.76,226.04,386.08,226.04z"/>
					<path class="st6" d="M386.08,227.17c5.28,0,9.58-4.3,9.58-9.58s-4.3-9.58-9.58-9.58c-5.28,0-9.58,4.3-9.58,9.58
						S380.8,227.17,386.08,227.17C391.37,227.17,380.8,227.17,386.08,227.17z M386.08,210.25c4.05,0,7.33,3.29,7.33,7.33
						s-3.29,7.33-7.33,7.33c-4.05,0-7.33-3.29-7.33-7.33S382.04,210.25,386.08,210.25C390.13,210.25,382.04,210.25,386.08,210.25z"
						/>
				</g>
			</g>
		</g>
	</g>
	<g>
		<g>
			<line class="st0" x1="114.61" y1="217.59" x2="198.5" y2="217.59"/>
			<g>
				<g>
					<path class="st1" d="M115.08,226.04c-4.67,0-8.46-3.79-8.46-8.46s3.79-8.46,8.46-8.46c4.67,0,8.46,3.79,8.46,8.46
						S119.76,226.04,115.08,226.04z"/>
					<path class="st2" d="M115.08,227.17c5.28,0,9.58-4.3,9.58-9.58s-4.3-9.58-9.58-9.58c-5.28,0-9.58,4.3-9.58,9.58
						S109.8,227.17,115.08,227.17C120.37,227.17,109.8,227.17,115.08,227.17z M115.08,210.25c4.05,0,7.33,3.29,7.33,7.33
						s-3.29,7.33-7.33,7.33c-4.05,0-7.33-3.29-7.33-7.33S111.04,210.25,115.08,210.25C119.13,210.25,111.04,210.25,115.08,210.25z"
						/>
				</g>
			</g>
		</g>
	</g>
	<g>
		<line class="st0" x1="63.33" y1="263.58" x2="120.5" y2="263.58"/>
	</g>
	<g>
		<g>
			<line class="st3" x1="115.61" y1="263.58" x2="164.5" y2="263.58"/>
			<g>
				<g>
					<path class="st1" d="M116.08,272.04c-4.67,0-8.46-3.79-8.46-8.46s3.79-8.46,8.46-8.46c4.67,0,8.46,3.79,8.46,8.46
						S120.76,272.04,116.08,272.04z"/>
					<path class="st4" d="M116.08,273.17c5.28,0,9.58-4.3,9.58-9.58s-4.3-9.58-9.58-9.58c-5.28,0-9.58,4.3-9.58,9.58
						S110.8,273.17,116.08,273.17C121.37,273.17,110.8,273.17,116.08,273.17z M116.08,256.25c4.05,0,7.33,3.29,7.33,7.33
						s-3.29,7.33-7.33,7.33c-4.05,0-7.33-3.29-7.33-7.33S112.04,256.25,116.08,256.25C120.13,256.25,112.04,256.25,116.08,256.25z"
						/>
				</g>
			</g>
		</g>
	</g>
	<g>
		<g>
			<line class="st5" x1="205.44" y1="263.58" x2="397.5" y2="263.58"/>
			<g>
				<g>
					<path class="st1" d="M205.92,272.04c-4.67,0-8.46-3.79-8.46-8.46s3.79-8.46,8.46-8.46c4.67,0,8.46,3.79,8.46,8.46
						S210.59,272.04,205.92,272.04z"/>
					<path class="st6" d="M205.92,273.17c5.28,0,9.58-4.3,9.58-9.58s-4.3-9.58-9.58-9.58c-5.28,0-9.58,4.3-9.58,9.58
						S200.63,273.17,205.92,273.17C211.2,273.17,200.63,273.17,205.92,273.17z M205.92,256.25c4.05,0,7.33,3.29,7.33,7.33
						s-3.29,7.33-7.33,7.33c-4.05,0-7.33-3.29-7.33-7.33S201.87,256.25,205.92,256.25C209.96,256.25,201.87,256.25,205.92,256.25z"
						/>
				</g>
			</g>
		</g>
	</g>
	<g>
		<g>
			<line class="st5" x1="294.61" y1="263.58" x2="526.5" y2="263.58"/>
			<g>
				<g>
					<path class="st1" d="M295.08,272.04c-4.67,0-8.46-3.79-8.46-8.46s3.79-8.46,8.46-8.46c4.67,0,8.46,3.79,8.46,8.46
						S299.76,272.04,295.08,272.04z"/>
					<path class="st6" d="M295.08,273.17c5.28,0,9.58-4.3,9.58-9.58s-4.3-9.58-9.58-9.58c-5.28,0-9.58,4.3-9.58,9.58
						S289.8,273.17,295.08,273.17C300.37,273.17,289.8,273.17,295.08,273.17z M295.08,256.25c4.05,0,7.33,3.29,7.33,7.33
						s-3.29,7.33-7.33,7.33c-4.05,0-7.33-3.29-7.33-7.33S291.04,256.25,295.08,256.25C299.13,256.25,291.04,256.25,295.08,256.25z"
						/>
				</g>
			</g>
		</g>
	</g>
	<g>
		<line class="st5" x1="518.5" y1="263.59" x2="656.5" y2="263.59"/>
	</g>
	<g>
		<g>
			<line class="st7" x1="162.94" y1="79.58" x2="202.5" y2="79.58"/>
			<g>
				<g>
					<path class="st1" d="M163.42,88.04c-4.67,0-8.46-3.79-8.46-8.46s3.79-8.46,8.46-8.46c4.67,0,8.46,3.79,8.46,8.46
						S168.09,88.04,163.42,88.04z"/>
					<path class="st8" d="M163.42,89.17c5.28,0,9.58-4.3,9.58-9.58S168.7,70,163.42,70c-5.28,0-9.58,4.3-9.58,9.58
						S158.13,89.17,163.42,89.17C168.7,89.17,158.13,89.17,163.42,89.17z M163.42,72.25c4.05,0,7.33,3.29,7.33,7.33
						s-3.29,7.33-7.33,7.33c-4.05,0-7.33-3.29-7.33-7.33S159.37,72.25,163.42,72.25C167.46,72.25,159.37,72.25,163.42,72.25z"/>
				</g>
			</g>
		</g>
	</g>
	<g>
		<g>
			<line class="st0" x1="208.11" y1="79.58" x2="303" y2="79.58"/>
			<g>
				<g>
					<path class="st1" d="M208.58,88.04c-4.67,0-8.46-3.79-8.46-8.46s3.79-8.46,8.46-8.46c4.67,0,8.46,3.79,8.46,8.46
						S213.26,88.04,208.58,88.04z"/>
					<path class="st2" d="M208.58,89.17c5.28,0,9.58-4.3,9.58-9.58s-4.3-9.58-9.58-9.58c-5.28,0-9.58,4.3-9.58,9.58
						S203.3,89.17,208.58,89.17C213.87,89.17,203.3,89.17,208.58,89.17z M208.58,72.25c4.05,0,7.33,3.29,7.33,7.33
						s-3.29,7.33-7.33,7.33c-4.05,0-7.33-3.29-7.33-7.33S204.54,72.25,208.58,72.25C212.63,72.25,204.54,72.25,208.58,72.25z"/>
				</g>
			</g>
		</g>
	</g>
	<g>
		<g>
			<line class="st0" x1="294.61" y1="79.58" x2="384.5" y2="79.58"/>
			<g>
				<g>
					<path class="st1" d="M295.08,88.04c-4.67,0-8.46-3.79-8.46-8.46s3.79-8.46,8.46-8.46c4.67,0,8.46,3.79,8.46,8.46
						S299.76,88.04,295.08,88.04z"/>
					<path class="st2" d="M295.08,89.17c5.28,0,9.58-4.3,9.58-9.58s-4.3-9.58-9.58-9.58c-5.28,0-9.58,4.3-9.58,9.58
						S289.8,89.17,295.08,89.17C300.37,89.17,289.8,89.17,295.08,89.17z M295.08,72.25c4.05,0,7.33,3.29,7.33,7.33
						s-3.29,7.33-7.33,7.33c-4.05,0-7.33-3.29-7.33-7.33S291.04,72.25,295.08,72.25C299.13,72.25,291.04,72.25,295.08,72.25z"/>
				</g>
			</g>
		</g>
	</g>
	<g>
		<g>
			<line class="st0" x1="385.61" y1="79.58" x2="476.5" y2="79.58"/>
			<g>
				<g>
					<path class="st1" d="M386.08,88.04c-4.67,0-8.46-3.79-8.46-8.46s3.79-8.46,8.46-8.46c4.67,0,8.46,3.79,8.46,8.46
						S390.76,88.04,386.08,88.04z"/>
					<path class="st2" d="M386.08,89.17c5.28,0,9.58-4.3,9.58-9.58s-4.3-9.58-9.58-9.58c-5.28,0-9.58,4.3-9.58,9.58
						S380.8,89.17,386.08,89.17C391.37,89.17,380.8,89.17,386.08,89.17z M386.08,72.25c4.05,0,7.33,3.29,7.33,7.33
						s-3.29,7.33-7.33,7.33c-4.05,0-7.33-3.29-7.33-7.33S382.04,72.25,386.08,72.25C390.13,72.25,382.04,72.25,386.08,72.25z"/>
				</g>
			</g>
		</g>
	</g>
	<rect id="XMLID_190_" x="69.82" y="119.99" class="st18" width="10.51" height="15.79"/>
	<text id="XMLID_189_" transform="matrix(1 0 0 1 69.8213 128.4787)" class="st19 st20">1</text>
	<rect id="XMLID_188_" x="113.82" y="119.99" class="st18" width="10.51" height="15.79"/>
	<text id="XMLID_187_" transform="matrix(1 0 0 1 113.8213 128.4787)" class="st19 st20">2</text>
	<rect id="XMLID_186_" x="204.82" y="119.99" class="st18" width="10.51" height="15.79"/>
	<text id="XMLID_185_" transform="matrix(1 0 0 1 204.8213 128.4787)" class="st19 st20">3</text>
	<rect id="XMLID_184_" x="292.82" y="119.99" class="st18" width="10.51" height="15.79"/>
	<text id="XMLID_183_" transform="matrix(1 0 0 1 292.8212 128.4787)" class="st19 st20">4</text>
	<rect id="XMLID_36_" x="382.82" y="119.99" class="st18" width="10.51" height="15.79"/>
	<text id="XMLID_35_" transform="matrix(1 0 0 1 382.8213 128.4787)" class="st19 st20">5</text>
	<rect id="XMLID_34_" x="429.82" y="119.99" class="st18" width="10.51" height="15.79"/>
	<text id="XMLID_33_" transform="matrix(1 0 0 1 429.8213 128.4787)" class="st19 st20">6</text>
	<rect id="XMLID_172_" x="112.82" y="165.99" class="st18" width="10.51" height="15.79"/>
	<text id="XMLID_171_" transform="matrix(1 0 0 1 112.8213 174.4787)" class="st19 st20">3</text>
	<rect id="XMLID_170_" x="203.82" y="165.99" class="st18" width="10.51" height="15.79"/>
	<text id="XMLID_169_" transform="matrix(1 0 0 1 203.8212 174.4787)" class="st19 st20">4</text>
	<rect id="XMLID_168_" x="291.82" y="165.99" class="st18" width="10.51" height="15.79"/>
	<text id="XMLID_167_" transform="matrix(1 0 0 1 291.8213 174.4787)" class="st19 st20">5</text>
	<rect id="XMLID_162_" x="339.82" y="165.99" class="st18" width="10.51" height="15.79"/>
	<text id="XMLID_161_" transform="matrix(1 0 0 1 339.8213 174.4787)" class="st19 st20">6</text>
	<rect id="XMLID_156_" x="111.82" y="211.99" class="st18" width="10.51" height="15.79"/>
	<text id="XMLID_155_" transform="matrix(1 0 0 1 111.8212 220.4787)" class="st19 st20">4</text>
	<rect id="XMLID_154_" x="204.82" y="211.99" class="st18" width="10.51" height="15.79"/>
	<text id="XMLID_153_" transform="matrix(1 0 0 1 204.8213 220.4787)" class="st19 st20">5</text>
	<rect id="XMLID_152_" x="247.82" y="211.99" class="st18" width="10.51" height="15.79"/>
	<text id="XMLID_151_" transform="matrix(1 0 0 1 247.8213 220.4787)" class="st19 st20">6</text>
	<rect id="XMLID_150_" x="291.82" y="211.99" class="st18" width="10.51" height="15.79"/>
	<text id="XMLID_149_" transform="matrix(1 0 0 1 291.8213 220.4787)" class="st19 st20">7</text>
	<rect id="XMLID_32_" x="382.82" y="211.99" class="st18" width="10.51" height="15.79"/>
	<text id="XMLID_31_" transform="matrix(1 0 0 1 382.8212 220.4787)" class="st19 st20">8</text>
	<rect id="XMLID_90_" x="112.82" y="257.99" class="st18" width="10.51" height="15.79"/>
	<text id="XMLID_89_" transform="matrix(1 0 0 1 112.8213 266.4787)" class="st19 st20">5</text>
	<rect id="XMLID_88_" x="159.82" y="257.99" class="st18" width="10.51" height="15.79"/>
	<text id="XMLID_87_" transform="matrix(1 0 0 1 159.8213 266.4787)" class="st19 st20">6</text>
	<rect id="XMLID_86_" x="203.82" y="258.99" class="st18" width="10.51" height="15.79"/>
	<text id="XMLID_85_" transform="matrix(1 0 0 1 203.8213 267.4787)" class="st19 st20">7</text>
	<rect id="XMLID_84_" x="292.82" y="257.99" class="st18" width="10.51" height="15.79"/>
	<text id="XMLID_83_" transform="matrix(1 0 0 1 292.8212 266.4787)" class="st19 st20">8</text>
	<rect id="XMLID_22_" x="159.82" y="73.99" class="st18" width="10.51" height="15.79"/>
	<text id="XMLID_21_" transform="matrix(1 0 0 1 159.8213 82.4787)" class="st19 st20">1</text>
	<rect id="XMLID_20_" x="205.82" y="73.99" class="st18" width="10.51" height="15.79"/>
	<text id="XMLID_19_" transform="matrix(1 0 0 1 205.8213 82.4787)" class="st19 st20">2</text>
	<rect id="XMLID_18_" x="292.82" y="73.99" class="st18" width="10.51" height="15.79"/>
	<text id="XMLID_17_" transform="matrix(1 0 0 1 292.8213 82.4787)" class="st19 st20">3</text>
	<rect id="XMLID_30_" x="382.82" y="73.99" class="st18" width="10.51" height="15.79"/>
	<text id="XMLID_29_" transform="matrix(1 0 0 1 382.8212 82.4787)" class="st19 st20">4</text>
	<rect y="5.08" class="st18" width="81" height="21"/>
	<text transform="matrix(1 0 0 1 18.3354 14.7046)" class="st21 st24">Legend</text>
	<rect x="393.75" y="5.28" class="st18" width="65" height="10.8"/>
	<text transform="matrix(1 0 0 1 393.75 12.6844)" class="st19 st20">Supported</text>
	<rect x="499.25" y="5.28" class="st18" width="72" height="10.8"/>
	<text transform="matrix(1 0 0 1 499.25 12.6844)" class="st19 st20">Deprecated</text>
	<rect x="608.25" y="5.28" class="st18" width="72" height="10.8"/>
	<text transform="matrix(1 0 0 1 608.25 12.6844)" class="st19 st20">Unsupported</text>
	<rect x="250.25" y="5.28" class="st18" width="97" height="10.8"/>
	<text transform="matrix(1 0 0 1 250.25 12.6844)" class="st19 st20">Community release</text>
	<rect x="127.25" y="5.28" class="st18" width="97" height="10.8"/>
	<text transform="matrix(1 0 0 1 127.25 12.6844)" class="st19 st20">Future release</text>
	<rect id="XMLID_5_" x="0.02" y="45.39" class="st18" width="78.98" height="15.79"/>
	<text id="XMLID_4_" transform="matrix(1 0 0 1 11.0198 57.2796)" class="st21 st22">Versions</text>
	<rect id="XMLID_6_" x="8.19" y="119.55" class="st18" width="59.55" height="15.54"/>
	<text id="XMLID_3_" transform="matrix(1 0 0 1 27.7683 128.0373)" class="st19 st20">n - 1</text>
	<rect id="XMLID_2_" x="8.32" y="163.47" class="st18" width="59.55" height="15.54"/>
	<text id="XMLID_1_" transform="matrix(1 0 0 1 27.8981 171.9646)" class="st19 st20">n - 2</text>
	<rect id="XMLID_38_" x="8.32" y="209.47" class="st18" width="59.55" height="15.54"/>
	<text id="XMLID_37_" transform="matrix(1 0 0 1 27.8981 217.9646)" class="st19 st20">n - 3</text>
	<rect id="XMLID_40_" x="8.32" y="255.47" class="st18" width="59.55" height="15.54"/>
	<text id="XMLID_39_" transform="matrix(1 0 0 1 27.8981 263.9646)" class="st19 st20">n - 4</text>
	<g>
		<g>
			<line class="st5" x1="385.11" y1="171.58" x2="578" y2="171.58"/>
			<g>
				<g>
					<path class="st1" d="M385.58,180.04c-4.67,0-8.46-3.79-8.46-8.46s3.79-8.46,8.46-8.46c4.67,0,8.46,3.79,8.46,8.46
						S390.26,180.04,385.58,180.04z"/>
					<path class="st6" d="M385.58,181.17c5.28,0,9.58-4.3,9.58-9.58s-4.3-9.58-9.58-9.58c-5.28,0-9.58,4.3-9.58,9.58
						S380.3,181.17,385.58,181.17C390.87,181.17,380.3,181.17,385.58,181.17z M385.58,164.25c4.05,0,7.33,3.29,7.33,7.33
						s-3.29,7.33-7.33,7.33c-4.05,0-7.33-3.29-7.33-7.33S381.54,164.25,385.58,164.25C389.63,164.25,381.54,164.25,385.58,164.25z"
						/>
				</g>
			</g>
		</g>
	</g>
	<rect id="XMLID_28_" x="382.82" y="166.99" class="st18" width="10.51" height="15.79"/>
	<text id="XMLID_27_" transform="matrix(1 0 0 1 382.8213 175.4787)" class="st19 st20">7</text>
	<g>
		<g>
			<line class="st5" x1="477.11" y1="171.58" x2="656.5" y2="171.58"/>
			<g>
				<g>
					<path class="st1" d="M477.58,180.04c-4.67,0-8.46-3.79-8.46-8.46s3.79-8.46,8.46-8.46c4.67,0,8.46,3.79,8.46,8.46
						S482.26,180.04,477.58,180.04z"/>
					<path class="st6" d="M477.58,181.17c5.28,0,9.58-4.3,9.58-9.58s-4.3-9.58-9.58-9.58c-5.28,0-9.58,4.3-9.58,9.58
						S472.3,181.17,477.58,181.17C482.87,181.17,472.3,181.17,477.58,181.17z M477.58,164.25c4.05,0,7.33,3.29,7.33,7.33
						s-3.29,7.33-7.33,7.33c-4.05,0-7.33-3.29-7.33-7.33S473.54,164.25,477.58,164.25C481.63,164.25,473.54,164.25,477.58,164.25z"
						/>
				</g>
			</g>
		</g>
	</g>
	<rect id="XMLID_26_" x="474.82" y="165.99" class="st18" width="10.51" height="15.79"/>
	<text id="XMLID_25_" transform="matrix(1 0 0 1 474.8212 174.4787)" class="st19 st20">8</text>
	<g>
		<g>
			<line class="st5" x1="477.11" y1="125.58" x2="582" y2="125.58"/>
			<g>
				<g>
					<path class="st1" d="M477.58,134.04c-4.67,0-8.46-3.79-8.46-8.46c0-4.67,3.79-8.46,8.46-8.46c4.67,0,8.46,3.79,8.46,8.46
						C486.04,130.26,482.26,134.04,477.58,134.04z"/>
					<path class="st6" d="M477.58,135.17c5.28,0,9.58-4.3,9.58-9.58c0-5.28-4.3-9.58-9.58-9.58c-5.28,0-9.58,4.3-9.58,9.58
						C468,130.87,472.3,135.17,477.58,135.17C482.87,135.17,472.3,135.17,477.58,135.17z M477.58,118.25c4.05,0,7.33,3.29,7.33,7.33
						c0,4.05-3.29,7.33-7.33,7.33c-4.05,0-7.33-3.29-7.33-7.33C470.25,121.54,473.54,118.25,477.58,118.25
						C481.63,118.25,473.54,118.25,477.58,118.25z"/>
				</g>
			</g>
		</g>
	</g>
	<rect id="XMLID_24_" x="474.82" y="120.99" class="st18" width="10.51" height="15.79"/>
	<text id="XMLID_23_" transform="matrix(1 0 0 1 474.8213 129.4787)" class="st19 st20">7</text>
	<g>
		<g>
			<line class="st3" x1="476.61" y1="79.58" x2="525.5" y2="79.58"/>
			<g>
				<g>
					<path class="st1" d="M477.08,88.04c-4.67,0-8.46-3.79-8.46-8.46s3.79-8.46,8.46-8.46c4.67,0,8.46,3.79,8.46,8.46
						S481.76,88.04,477.08,88.04z"/>
					<path class="st4" d="M477.08,89.17c5.28,0,9.58-4.3,9.58-9.58s-4.3-9.58-9.58-9.58c-5.28,0-9.58,4.3-9.58,9.58
						S471.8,89.17,477.08,89.17C482.37,89.17,471.8,89.17,477.08,89.17z M477.08,72.25c4.05,0,7.33,3.29,7.33,7.33
						s-3.29,7.33-7.33,7.33c-4.05,0-7.33-3.29-7.33-7.33S473.04,72.25,477.08,72.25C481.13,72.25,473.04,72.25,477.08,72.25z"/>
				</g>
			</g>
		</g>
	</g>
	<rect id="XMLID_16_" x="473.82" y="73.99" class="st18" width="10.51" height="15.79"/>
	<text id="XMLID_15_" transform="matrix(1 0 0 1 473.8213 82.4787)" class="st19 st20">5</text>
	<g>
		<g>
			<line class="st3" x1="523.61" y1="79.58" x2="563.5" y2="79.58"/>
			<g>
				<g>
					<path class="st1" d="M524.08,88.04c-4.67,0-8.46-3.79-8.46-8.46s3.79-8.46,8.46-8.46c4.67,0,8.46,3.79,8.46,8.46
						S528.76,88.04,524.08,88.04z"/>
					<path class="st4" d="M524.08,89.17c5.28,0,9.58-4.3,9.58-9.58s-4.3-9.58-9.58-9.58c-5.28,0-9.58,4.3-9.58,9.58
						S518.8,89.17,524.08,89.17C529.37,89.17,518.8,89.17,524.08,89.17z M524.08,72.25c4.05,0,7.33,3.29,7.33,7.33
						s-3.29,7.33-7.33,7.33c-4.05,0-7.33-3.29-7.33-7.33S520.04,72.25,524.08,72.25C528.13,72.25,520.04,72.25,524.08,72.25z"/>
				</g>
			</g>
		</g>
	</g>
	<rect id="XMLID_14_" x="520.82" y="73.99" class="st18" width="10.51" height="15.79"/>
	<text id="XMLID_13_" transform="matrix(1 0 0 1 520.8213 82.4787)" class="st19 st20">6</text>
	<g>
		<g>
			<line class="st5" x1="567.11" y1="125.58" x2="656.5" y2="125.58"/>
			<g>
				<g>
					<path class="st1" d="M567.58,134.04c-4.67,0-8.46-3.79-8.46-8.46c0-4.67,3.79-8.46,8.46-8.46c4.67,0,8.46,3.79,8.46,8.46
						C576.04,130.26,572.26,134.04,567.58,134.04z"/>
					<path class="st6" d="M567.58,135.17c5.28,0,9.58-4.3,9.58-9.58c0-5.28-4.3-9.58-9.58-9.58c-5.28,0-9.58,4.3-9.58,9.58
						C558,130.87,562.3,135.17,567.58,135.17C572.87,135.17,562.3,135.17,567.58,135.17z M567.58,118.25c4.05,0,7.33,3.29,7.33,7.33
						c0,4.05-3.29,7.33-7.33,7.33c-4.05,0-7.33-3.29-7.33-7.33C560.25,121.54,563.54,118.25,567.58,118.25
						C571.63,118.25,563.54,118.25,567.58,118.25z"/>
				</g>
			</g>
		</g>
	</g>
	<rect id="XMLID_12_" x="564.82" y="119.99" class="st18" width="10.51" height="15.79"/>
	<text id="XMLID_11_" transform="matrix(1 0 0 1 564.8212 128.4787)" class="st19 st20">8</text>
	<g>
		<g>
			<line class="st5" x1="567.1" y1="79.67" x2="664.5" y2="80.58"/>
			<g>
				<g>
					<path class="st1" d="M567.5,88.13c-4.67-0.04-8.42-3.87-8.38-8.54c0.04-4.67,3.87-8.42,8.54-8.38
						c4.67,0.04,8.42,3.87,8.38,8.54S572.18,88.18,567.5,88.13z"/>
					<path class="st6" d="M567.49,89.26c5.28,0.05,9.62-4.21,9.67-9.49c0.05-5.28-4.21-9.62-9.49-9.67
						c-5.28-0.05-9.62,4.21-9.67,9.49S562.21,89.21,567.49,89.26C572.78,89.31,562.21,89.21,567.49,89.26z M567.65,72.34
						c4.04,0.04,7.3,3.36,7.27,7.4c-0.04,4.04-3.36,7.3-7.4,7.27c-4.05-0.04-7.3-3.36-7.27-7.4
						C560.29,75.56,563.61,72.3,567.65,72.34C571.7,72.38,563.61,72.3,567.65,72.34z"/>
				</g>
			</g>
		</g>
	</g>
	<rect id="XMLID_10_" x="564.82" y="73.99" class="st18" width="10.51" height="15.79"/>
	<text id="XMLID_9_" transform="matrix(1 0 0 1 564.8213 82.4787)" class="st19 st20">7</text>
	<g>
		<g>
			<line class="st5" x1="656.11" y1="80.58" x2="665" y2="80.58"/>
			<g>
				<g>
					<path class="st1" d="M656.58,89.04c-4.67,0-8.46-3.79-8.46-8.46s3.79-8.46,8.46-8.46c4.67,0,8.46,3.79,8.46,8.46
						S661.26,89.04,656.58,89.04z"/>
					<path class="st6" d="M656.58,90.17c5.28,0,9.58-4.3,9.58-9.58s-4.3-9.58-9.58-9.58c-5.28,0-9.58,4.3-9.58,9.58
						S651.3,90.17,656.58,90.17C661.87,90.17,651.3,90.17,656.58,90.17z M656.58,73.25c4.05,0,7.33,3.29,7.33,7.33
						s-3.29,7.33-7.33,7.33c-4.05,0-7.33-3.29-7.33-7.33S652.54,73.25,656.58,73.25C660.63,73.25,652.54,73.25,656.58,73.25z"/>
				</g>
			</g>
		</g>
	</g>
	<rect id="XMLID_8_" x="653.82" y="75.99" class="st18" width="10.51" height="15.79"/>
	<text id="XMLID_7_" transform="matrix(1 0 0 1 653.8212 84.4787)" class="st19 st20">8</text>
	<g class="st13">
		<g>
			<line class="st11" x1="72" y1="296.08" x2="72.01" y2="293.58"/>
			<line class="st25" x1="72.02" y1="288.47" x2="72.49" y2="86.64"/>
			<line class="st11" x1="72.49" y1="84.08" x2="72.5" y2="81.58"/>
		</g>
	</g>
</g>
</svg>
