<svg width="1080" height="720" viewBox="0 0 1080 720" fill="none" xmlns="http://www.w3.org/2000/svg">
<rect width="1080" height="720" fill="#F4F4F4"/>
<rect x="49.5" y="653.5" width="15" height="15" rx="3.5" fill="white" style="mix-blend-mode:multiply"/>
<rect x="49.5" y="653.5" width="15" height="15" rx="3.5" stroke="#8D8D8D"/>
<path d="M79.636 666V664.964H75.478V656.228H74.302V666H79.636ZM83.957 666.168C85.889 666.168 87.219 664.684 87.219 662.388C87.219 660.092 85.889 658.608 83.957 658.608C82.025 658.608 80.695 660.092 80.695 662.388C80.695 664.684 82.025 666.168 83.957 666.168ZM83.957 665.174C82.753 665.174 81.899 664.432 81.899 662.906V661.87C81.899 660.344 82.753 659.602 83.957 659.602C85.161 659.602 86.015 660.344 86.015 661.87V662.906C86.015 664.432 85.161 665.174 83.957 665.174ZM95.3109 666.798C95.3109 665.608 94.5409 664.88 92.7489 664.88H91.2089C90.5509 664.88 90.1029 664.768 90.1029 664.334C90.1029 663.886 90.5789 663.648 91.0549 663.522C91.2649 663.564 91.5169 663.592 91.7549 663.592C93.4069 663.592 94.4849 662.57 94.4849 661.1C94.4849 660.33 94.1769 659.686 93.6589 659.238V658.776H95.0309V657.796H93.9529C93.3509 657.796 93.1129 658.202 93.1129 658.762V658.888C92.7209 658.706 92.2589 658.608 91.7409 658.608C90.1029 658.608 89.0249 659.63 89.0249 661.1C89.0249 662.108 89.5289 662.906 90.3829 663.312V663.368C89.6549 663.55 89.1369 663.9 89.1369 664.628C89.1369 665.118 89.3749 665.44 89.7809 665.636V665.79C89.0669 665.986 88.6329 666.406 88.6329 667.19C88.6329 668.324 89.5569 668.968 91.8109 668.968C94.1349 668.968 95.3109 668.282 95.3109 666.798ZM94.2609 666.882C94.2609 667.666 93.5329 668.058 92.2869 668.058H91.2509C90.1169 668.058 89.6829 667.54 89.6829 666.91C89.6829 666.462 89.8929 666.14 90.3549 665.93H92.7629C93.8829 665.93 94.2609 666.308 94.2609 666.882ZM91.7549 662.696C90.8029 662.696 90.2009 662.248 90.2009 661.296V660.904C90.2009 659.952 90.8029 659.504 91.7549 659.504C92.7069 659.504 93.3089 659.952 93.3089 660.904V661.296C93.3089 662.248 92.7069 662.696 91.7549 662.696ZM97.3374 657.082C97.8134 657.082 98.0234 656.83 98.0234 656.452V656.27C98.0234 655.892 97.8134 655.64 97.3374 655.64C96.8614 655.64 96.6514 655.892 96.6514 656.27V656.452C96.6514 656.83 96.8614 657.082 97.3374 657.082ZM96.7774 666H97.8974V658.776H96.7774V666ZM103.125 666.168C104.497 666.168 105.435 665.496 105.897 664.46L105.085 663.914C104.693 664.74 104.035 665.174 103.125 665.174C101.795 665.174 101.109 664.264 101.109 663.004V661.772C101.109 660.512 101.795 659.602 103.125 659.602C104.007 659.602 104.623 660.036 104.889 660.778L105.827 660.302C105.407 659.308 104.553 658.608 103.125 658.608C101.095 658.608 99.9054 660.078 99.9054 662.388C99.9054 664.698 101.095 666.168 103.125 666.168ZM113.518 666V665.02H112.692V661.044C112.692 659.518 111.656 658.608 109.92 658.608C108.618 658.608 107.75 659.252 107.358 660.022L108.03 660.652C108.422 659.994 108.996 659.574 109.864 659.574C111.012 659.574 111.572 660.134 111.572 661.156V661.87H110.144C108.044 661.87 107.064 662.626 107.064 663.984C107.064 665.328 107.96 666.168 109.486 666.168C110.494 666.168 111.264 665.706 111.572 664.824H111.642C111.726 665.496 112.062 666 112.888 666H113.518ZM109.668 665.216C108.8 665.216 108.24 664.81 108.24 664.096V663.802C108.24 663.102 108.814 662.71 110.088 662.71H111.572V663.9C111.572 664.642 110.774 665.216 109.668 665.216ZM117.461 666V665.02H116.397V655.64H115.277V664.838C115.277 665.51 115.697 666 116.467 666H117.461ZM123.84 666V660.988C123.84 660.064 124.708 659.616 125.604 659.616C126.682 659.616 127.242 660.274 127.242 661.562V666H128.362V661.366C128.362 659.616 127.424 658.608 125.94 658.608C124.862 658.608 124.246 659.14 123.896 659.952H123.84V658.776H122.72V666H123.84ZM133.567 666.168C135.499 666.168 136.829 664.684 136.829 662.388C136.829 660.092 135.499 658.608 133.567 658.608C131.635 658.608 130.305 660.092 130.305 662.388C130.305 664.684 131.635 666.168 133.567 666.168ZM133.567 665.174C132.363 665.174 131.509 664.432 131.509 662.906V661.87C131.509 660.344 132.363 659.602 133.567 659.602C134.771 659.602 135.625 660.344 135.625 661.87V662.906C135.625 664.432 134.771 665.174 133.567 665.174ZM143.451 666H144.571V655.64H143.451V659.952H143.395C143.017 659.042 142.275 658.608 141.281 658.608C139.475 658.608 138.341 660.078 138.341 662.388C138.341 664.698 139.475 666.168 141.281 666.168C142.275 666.168 142.961 665.72 143.395 664.824H143.451V666ZM141.589 665.16C140.329 665.16 139.545 664.292 139.545 663.004V661.772C139.545 660.484 140.329 659.616 141.589 659.616C142.611 659.616 143.451 660.204 143.451 661.002V663.69C143.451 664.628 142.611 665.16 141.589 665.16ZM149.828 666.168C151.186 666.168 152.222 665.496 152.684 664.516L151.886 663.942C151.508 664.74 150.808 665.188 149.898 665.188C148.554 665.188 147.756 664.25 147.756 663.004V662.668H152.95V662.136C152.95 660.092 151.76 658.608 149.828 658.608C147.868 658.608 146.58 660.092 146.58 662.388C146.58 664.684 147.868 666.168 149.828 666.168ZM149.828 659.546C150.976 659.546 151.746 660.4 151.746 661.674V661.828H147.756V661.73C147.756 660.47 148.61 659.546 149.828 659.546Z" fill="#6F6F6F"/>
<rect x="170.5" y="653.5" width="15" height="15" fill="#F4F4F4"/>
<rect x="170.5" y="653.5" width="15" height="15" stroke="#8D8D8D"/>
<path d="M196.478 666V661.828H199.194C200.944 661.828 201.924 660.75 201.924 659.028C201.924 657.306 200.944 656.228 199.194 656.228H195.302V666H196.478ZM196.478 657.264H199.194C200.118 657.264 200.664 657.768 200.664 658.664V659.392C200.664 660.288 200.118 660.792 199.194 660.792H196.478V657.264ZM204.824 666V661.1C204.824 660.414 205.552 659.896 206.756 659.896H207.414V658.776H206.98C205.804 658.776 205.146 659.42 204.894 660.106H204.824V658.776H203.704V666H204.824ZM211.652 666.168C213.01 666.168 214.046 665.496 214.508 664.516L213.71 663.942C213.332 664.74 212.632 665.188 211.722 665.188C210.378 665.188 209.58 664.25 209.58 663.004V662.668H214.774V662.136C214.774 660.092 213.584 658.608 211.652 658.608C209.692 658.608 208.404 660.092 208.404 662.388C208.404 664.684 209.692 666.168 211.652 666.168ZM211.652 659.546C212.8 659.546 213.57 660.4 213.57 661.674V661.828H209.58V661.73C209.58 660.47 210.434 659.546 211.652 659.546ZM218.949 666.168C220.601 666.168 221.623 665.314 221.623 663.914C221.623 662.822 221.007 662.122 219.411 661.884L218.851 661.8C217.955 661.66 217.465 661.38 217.465 660.68C217.465 659.994 217.955 659.56 218.879 659.56C219.803 659.56 220.419 659.994 220.741 660.442L221.483 659.77C220.895 659.042 220.125 658.608 218.963 658.608C217.493 658.608 216.387 659.308 216.387 660.736C216.387 662.08 217.381 662.626 218.711 662.822L219.285 662.906C220.237 663.046 220.545 663.48 220.545 664.04C220.545 664.782 219.985 665.216 219.033 665.216C218.123 665.216 217.451 664.81 216.891 664.11L216.093 664.754C216.737 665.608 217.619 666.168 218.949 666.168ZM226.45 666.168C227.822 666.168 228.76 665.496 229.222 664.46L228.41 663.914C228.018 664.74 227.36 665.174 226.45 665.174C225.12 665.174 224.434 664.264 224.434 663.004V661.772C224.434 660.512 225.12 659.602 226.45 659.602C227.332 659.602 227.948 660.036 228.214 660.778L229.152 660.302C228.732 659.308 227.878 658.608 226.45 658.608C224.42 658.608 223.23 660.078 223.23 662.388C223.23 664.698 224.42 666.168 226.45 666.168ZM232.083 666V661.1C232.083 660.414 232.811 659.896 234.015 659.896H234.673V658.776H234.239C233.063 658.776 232.405 659.42 232.153 660.106H232.083V658.776H230.963V666H232.083ZM236.823 657.082C237.299 657.082 237.509 656.83 237.509 656.452V656.27C237.509 655.892 237.299 655.64 236.823 655.64C236.347 655.64 236.137 655.892 236.137 656.27V656.452C236.137 656.83 236.347 657.082 236.823 657.082ZM236.263 666H237.383V658.776H236.263V666ZM239.923 666H241.043V664.824H241.099C241.533 665.72 242.219 666.168 243.213 666.168C245.019 666.168 246.153 664.698 246.153 662.388C246.153 660.078 245.019 658.608 243.213 658.608C242.219 658.608 241.477 659.042 241.099 659.952H241.043V655.64H239.923V666ZM242.905 665.16C241.883 665.16 241.043 664.628 241.043 663.69V661.002C241.043 660.204 241.883 659.616 242.905 659.616C244.165 659.616 244.949 660.484 244.949 661.772V663.004C244.949 664.292 244.165 665.16 242.905 665.16ZM250.92 666.168C252.278 666.168 253.314 665.496 253.776 664.516L252.978 663.942C252.6 664.74 251.9 665.188 250.99 665.188C249.646 665.188 248.848 664.25 248.848 663.004V662.668H254.042V662.136C254.042 660.092 252.852 658.608 250.92 658.608C248.96 658.608 247.672 660.092 247.672 662.388C247.672 664.684 248.96 666.168 250.92 666.168ZM250.92 659.546C252.068 659.546 252.838 660.4 252.838 661.674V661.828H248.848V661.73C248.848 660.47 249.702 659.546 250.92 659.546ZM260.668 666H261.788V655.64H260.668V659.952H260.612C260.234 659.042 259.492 658.608 258.498 658.608C256.692 658.608 255.558 660.078 255.558 662.388C255.558 664.698 256.692 666.168 258.498 666.168C259.492 666.168 260.178 665.72 260.612 664.824H260.668V666ZM258.806 665.16C257.546 665.16 256.762 664.292 256.762 663.004V661.772C256.762 660.484 257.546 659.616 258.806 659.616C259.828 659.616 260.668 660.204 260.668 661.002V663.69C260.668 664.628 259.828 665.16 258.806 665.16ZM268.918 666V660.988C268.918 660.064 269.786 659.616 270.682 659.616C271.76 659.616 272.32 660.274 272.32 661.562V666H273.44V661.366C273.44 659.616 272.502 658.608 271.018 658.608C269.94 658.608 269.324 659.14 268.974 659.952H268.918V658.776H267.798V666H268.918ZM278.645 666.168C280.577 666.168 281.907 664.684 281.907 662.388C281.907 660.092 280.577 658.608 278.645 658.608C276.713 658.608 275.383 660.092 275.383 662.388C275.383 664.684 276.713 666.168 278.645 666.168ZM278.645 665.174C277.441 665.174 276.587 664.432 276.587 662.906V661.87C276.587 660.344 277.441 659.602 278.645 659.602C279.849 659.602 280.703 660.344 280.703 661.87V662.906C280.703 664.432 279.849 665.174 278.645 665.174ZM288.529 666H289.649V655.64H288.529V659.952H288.473C288.095 659.042 287.353 658.608 286.359 658.608C284.553 658.608 283.419 660.078 283.419 662.388C283.419 664.698 284.553 666.168 286.359 666.168C287.353 666.168 288.039 665.72 288.473 664.824H288.529V666ZM286.667 665.16C285.407 665.16 284.623 664.292 284.623 663.004V661.772C284.623 660.484 285.407 659.616 286.667 659.616C287.689 659.616 288.529 660.204 288.529 661.002V663.69C288.529 664.628 287.689 665.16 286.667 665.16ZM294.906 666.168C296.264 666.168 297.3 665.496 297.762 664.516L296.964 663.942C296.586 664.74 295.886 665.188 294.976 665.188C293.632 665.188 292.834 664.25 292.834 663.004V662.668H298.028V662.136C298.028 660.092 296.838 658.608 294.906 658.608C292.946 658.608 291.658 660.092 291.658 662.388C291.658 664.684 292.946 666.168 294.906 666.168ZM294.906 659.546C296.054 659.546 296.824 660.4 296.824 661.674V661.828H292.834V661.73C292.834 660.47 293.688 659.546 294.906 659.546Z" fill="#6F6F6F"/>
<path d="M336.5 662L331.5 659.113V664.887L336.5 662ZM332 661.5H312V662.5H332V661.5Z" fill="#736F6F"/>
<path d="M345.732 657.228V662.996C345.732 665.838 346.6 667.168 349.204 667.168C351.808 667.168 352.76 665.838 352.76 662.996V657.228H351.584V663.276C351.584 665.138 350.982 666.118 349.246 666.118C347.51 666.118 346.908 665.138 346.908 663.276V657.228H345.732ZM357.508 667.168C359.16 667.168 360.182 666.314 360.182 664.914C360.182 663.822 359.566 663.122 357.97 662.884L357.41 662.8C356.514 662.66 356.024 662.38 356.024 661.68C356.024 660.994 356.514 660.56 357.438 660.56C358.362 660.56 358.978 660.994 359.3 661.442L360.042 660.77C359.454 660.042 358.684 659.608 357.522 659.608C356.052 659.608 354.946 660.308 354.946 661.736C354.946 663.08 355.94 663.626 357.27 663.822L357.844 663.906C358.796 664.046 359.104 664.48 359.104 665.04C359.104 665.782 358.544 666.216 357.592 666.216C356.682 666.216 356.01 665.81 355.45 665.11L354.652 665.754C355.296 666.608 356.178 667.168 357.508 667.168ZM365.037 667.168C366.395 667.168 367.431 666.496 367.893 665.516L367.095 664.942C366.717 665.74 366.017 666.188 365.107 666.188C363.763 666.188 362.965 665.25 362.965 664.004V663.668H368.159V663.136C368.159 661.092 366.969 659.608 365.037 659.608C363.077 659.608 361.789 661.092 361.789 663.388C361.789 665.684 363.077 667.168 365.037 667.168ZM365.037 660.546C366.185 660.546 366.955 661.4 366.955 662.674V662.828H362.965V662.73C362.965 661.47 363.819 660.546 365.037 660.546ZM371.284 667V662.1C371.284 661.414 372.012 660.896 373.216 660.896H373.874V659.776H373.44C372.264 659.776 371.606 660.42 371.354 661.106H371.284V659.776H370.164V667H371.284ZM381.929 667V666.02H380.459V660.756H382.041V659.776H380.459V657.774H379.451V659.118C379.451 659.608 379.297 659.776 378.821 659.776H378.149V660.756H379.339V665.81C379.339 666.51 379.759 667 380.529 667H381.929ZM385.122 667V662.1C385.122 661.414 385.85 660.896 387.054 660.896H387.712V659.776H387.278C386.102 659.776 385.444 660.42 385.192 661.106H385.122V659.776H384.002V667H385.122ZM395.127 667V666.02H394.301V662.044C394.301 660.518 393.265 659.608 391.529 659.608C390.227 659.608 389.359 660.252 388.967 661.022L389.639 661.652C390.031 660.994 390.605 660.574 391.473 660.574C392.621 660.574 393.181 661.134 393.181 662.156V662.87H391.753C389.653 662.87 388.673 663.626 388.673 664.984C388.673 666.328 389.569 667.168 391.095 667.168C392.103 667.168 392.873 666.706 393.181 665.824H393.251C393.335 666.496 393.671 667 394.497 667H395.127ZM391.277 666.216C390.409 666.216 389.849 665.81 389.849 665.096V664.802C389.849 664.102 390.423 663.71 391.697 663.71H393.181V664.9C393.181 665.642 392.383 666.216 391.277 666.216ZM397.278 667H398.398V660.756H399.952V659.776H398.398V657.62H399.952V656.64H398.86C397.796 656.64 397.278 657.326 397.278 658.32V659.776H396.102V660.756H397.278V667ZM401.977 667H403.097V660.756H406.023V667H407.143V659.776H403.097V657.62H404.651V656.64H403.559C402.495 656.64 401.977 657.326 401.977 658.32V659.776H400.801V660.756H401.977V667ZM406.583 658.082C407.059 658.082 407.269 657.83 407.269 657.452V657.27C407.269 656.892 407.059 656.64 406.583 656.64C406.107 656.64 405.897 656.892 405.897 657.27V657.452C405.897 657.83 406.107 658.082 406.583 658.082ZM412.376 667.168C413.748 667.168 414.686 666.496 415.148 665.46L414.336 664.914C413.944 665.74 413.286 666.174 412.376 666.174C411.046 666.174 410.36 665.264 410.36 664.004V662.772C410.36 661.512 411.046 660.602 412.376 660.602C413.258 660.602 413.874 661.036 414.14 661.778L415.078 661.302C414.658 660.308 413.804 659.608 412.376 659.608C410.346 659.608 409.156 661.078 409.156 663.388C409.156 665.698 410.346 667.168 412.376 667.168Z" fill="#6F6F6F"/>
<path d="M457 662L452 659.113V664.887L457 662ZM453.938 661.5H451.896V662.5H453.938V661.5ZM449.854 661.5H447.812V662.5H449.854V661.5ZM445.771 661.5H443.729V662.5H445.771V661.5ZM441.687 661.5H439.646V662.5H441.687V661.5ZM437.604 661.5H435.562V662.5H437.604V661.5ZM433.521 661.5H432.5V662.5H433.521V661.5Z" fill="#736F6F"/>
<path d="M469.046 667.168C471.146 667.168 472.406 666.02 472.406 664.228C472.406 662.772 471.58 661.932 469.676 661.498L468.878 661.316C467.646 661.036 467.044 660.616 467.044 659.692C467.044 658.642 467.814 658.096 469.06 658.096C470.194 658.096 470.936 658.558 471.468 659.3L472.35 658.656C471.622 657.62 470.586 657.06 469.116 657.06C467.198 657.06 465.882 657.998 465.882 659.734C465.882 661.232 466.862 662.016 468.64 662.422L469.438 662.604C470.726 662.898 471.244 663.36 471.244 664.284C471.244 665.404 470.488 666.132 469.088 666.132C467.954 666.132 467.142 665.642 466.456 664.732L465.588 665.46C466.372 666.524 467.478 667.168 469.046 667.168ZM477.187 664.69L476.795 665.866H476.725L476.389 664.69L474.653 659.776H473.533L476.235 667.28L475.689 668.82H474.555V669.8H475.129C476.193 669.8 476.487 669.548 476.809 668.68L480.043 659.776H478.937L477.187 664.69ZM483.746 667.168C485.398 667.168 486.42 666.314 486.42 664.914C486.42 663.822 485.804 663.122 484.208 662.884L483.648 662.8C482.752 662.66 482.262 662.38 482.262 661.68C482.262 660.994 482.752 660.56 483.676 660.56C484.6 660.56 485.216 660.994 485.538 661.442L486.28 660.77C485.692 660.042 484.922 659.608 483.76 659.608C482.29 659.608 481.184 660.308 481.184 661.736C481.184 663.08 482.178 663.626 483.508 663.822L484.082 663.906C485.034 664.046 485.342 664.48 485.342 665.04C485.342 665.782 484.782 666.216 483.83 666.216C482.92 666.216 482.248 665.81 481.688 665.11L480.89 665.754C481.534 666.608 482.416 667.168 483.746 667.168ZM491.459 667V666.02H489.989V660.756H491.571V659.776H489.989V657.774H488.981V659.118C488.981 659.608 488.827 659.776 488.351 659.776H487.679V660.756H488.869V665.81C488.869 666.51 489.289 667 490.059 667H491.459ZM496.192 667.168C497.55 667.168 498.586 666.496 499.048 665.516L498.25 664.942C497.872 665.74 497.172 666.188 496.262 666.188C494.918 666.188 494.12 665.25 494.12 664.004V663.668H499.314V663.136C499.314 661.092 498.124 659.608 496.192 659.608C494.232 659.608 492.944 661.092 492.944 663.388C492.944 665.684 494.232 667.168 496.192 667.168ZM496.192 660.546C497.34 660.546 498.11 661.4 498.11 662.674V662.828H494.12V662.73C494.12 661.47 494.974 660.546 496.192 660.546ZM502.44 667V661.988C502.44 661.064 503.28 660.616 504.162 660.616C505.226 660.616 505.716 661.274 505.716 662.562V667H506.836V661.988C506.836 661.064 507.648 660.616 508.53 660.616C509.622 660.616 510.112 661.288 510.112 662.562V667H511.232V662.366C511.232 660.616 510.35 659.608 508.88 659.608C507.648 659.608 506.948 660.294 506.682 661.078H506.654C506.262 660.042 505.394 659.608 504.442 659.608C503.322 659.608 502.818 660.21 502.496 660.952H502.44V659.776H501.32V667H502.44ZM519.859 667.168C521.231 667.168 522.169 666.496 522.631 665.46L521.819 664.914C521.427 665.74 520.769 666.174 519.859 666.174C518.529 666.174 517.843 665.264 517.843 664.004V662.772C517.843 661.512 518.529 660.602 519.859 660.602C520.741 660.602 521.357 661.036 521.623 661.778L522.561 661.302C522.141 660.308 521.287 659.608 519.859 659.608C517.829 659.608 516.639 661.078 516.639 663.388C516.639 665.698 517.829 667.168 519.859 667.168ZM527.02 667.168C528.952 667.168 530.282 665.684 530.282 663.388C530.282 661.092 528.952 659.608 527.02 659.608C525.088 659.608 523.758 661.092 523.758 663.388C523.758 665.684 525.088 667.168 527.02 667.168ZM527.02 666.174C525.816 666.174 524.962 665.432 524.962 663.906V662.87C524.962 661.344 525.816 660.602 527.02 660.602C528.224 660.602 529.078 661.344 529.078 662.87V663.906C529.078 665.432 528.224 666.174 527.02 666.174ZM533.404 667V661.988C533.404 661.064 534.272 660.616 535.168 660.616C536.246 660.616 536.806 661.274 536.806 662.562V667H537.926V662.366C537.926 660.616 536.988 659.608 535.504 659.608C534.426 659.608 533.81 660.14 533.46 660.952H533.404V659.776H532.284V667H533.404ZM540.793 667H541.913V660.756H544.839V667H545.959V659.776H541.913V657.62H543.467V656.64H542.375C541.311 656.64 540.793 657.326 540.793 658.32V659.776H539.617V660.756H540.793V667ZM545.399 658.082C545.875 658.082 546.085 657.83 546.085 657.452V657.27C546.085 656.892 545.875 656.64 545.399 656.64C544.923 656.64 544.713 656.892 544.713 657.27V657.452C544.713 657.83 544.923 658.082 545.399 658.082ZM554.595 667.798C554.595 666.608 553.825 665.88 552.033 665.88H550.493C549.835 665.88 549.387 665.768 549.387 665.334C549.387 664.886 549.863 664.648 550.339 664.522C550.549 664.564 550.801 664.592 551.039 664.592C552.691 664.592 553.769 663.57 553.769 662.1C553.769 661.33 553.461 660.686 552.943 660.238V659.776H554.315V658.796H553.237C552.635 658.796 552.397 659.202 552.397 659.762V659.888C552.005 659.706 551.543 659.608 551.025 659.608C549.387 659.608 548.309 660.63 548.309 662.1C548.309 663.108 548.813 663.906 549.667 664.312V664.368C548.939 664.55 548.421 664.9 548.421 665.628C548.421 666.118 548.659 666.44 549.065 666.636V666.79C548.351 666.986 547.917 667.406 547.917 668.19C547.917 669.324 548.841 669.968 551.095 669.968C553.419 669.968 554.595 669.282 554.595 667.798ZM553.545 667.882C553.545 668.666 552.817 669.058 551.571 669.058H550.535C549.401 669.058 548.967 668.54 548.967 667.91C548.967 667.462 549.177 667.14 549.639 666.93H552.047C553.167 666.93 553.545 667.308 553.545 667.882ZM551.039 663.696C550.087 663.696 549.485 663.248 549.485 662.296V661.904C549.485 660.952 550.087 660.504 551.039 660.504C551.991 660.504 552.593 660.952 552.593 661.904V662.296C552.593 663.248 551.991 663.696 551.039 663.696ZM560.458 667H561.578V659.776H560.458V664.774C560.458 665.726 559.59 666.16 558.708 666.16C557.63 666.16 557.056 665.502 557.056 664.214V659.776H555.936V664.41C555.936 666.16 556.888 667.168 558.372 667.168C559.576 667.168 560.122 666.51 560.402 665.824H560.458V667ZM565.244 667V662.1C565.244 661.414 565.972 660.896 567.176 660.896H567.834V659.776H567.4C566.224 659.776 565.566 660.42 565.314 661.106H565.244V659.776H564.124V667H565.244ZM575.249 667V666.02H574.423V662.044C574.423 660.518 573.387 659.608 571.651 659.608C570.349 659.608 569.481 660.252 569.089 661.022L569.761 661.652C570.153 660.994 570.727 660.574 571.595 660.574C572.743 660.574 573.303 661.134 573.303 662.156V662.87H571.875C569.775 662.87 568.795 663.626 568.795 664.984C568.795 666.328 569.691 667.168 571.217 667.168C572.225 667.168 572.995 666.706 573.303 665.824H573.373C573.457 666.496 573.793 667 574.619 667H575.249ZM571.399 666.216C570.531 666.216 569.971 665.81 569.971 665.096V664.802C569.971 664.102 570.545 663.71 571.819 663.71H573.303V664.9C573.303 665.642 572.505 666.216 571.399 666.216ZM580.004 667V666.02H578.534V660.756H580.116V659.776H578.534V657.774H577.526V659.118C577.526 659.608 577.372 659.776 576.896 659.776H576.224V660.756H577.414V665.81C577.414 666.51 577.834 667 578.604 667H580.004ZM582.636 658.082C583.112 658.082 583.322 657.83 583.322 657.452V657.27C583.322 656.892 583.112 656.64 582.636 656.64C582.16 656.64 581.95 656.892 581.95 657.27V657.452C581.95 657.83 582.16 658.082 582.636 658.082ZM582.076 667H583.196V659.776H582.076V667ZM588.466 667.168C590.398 667.168 591.728 665.684 591.728 663.388C591.728 661.092 590.398 659.608 588.466 659.608C586.534 659.608 585.204 661.092 585.204 663.388C585.204 665.684 586.534 667.168 588.466 667.168ZM588.466 666.174C587.262 666.174 586.408 665.432 586.408 663.906V662.87C586.408 661.344 587.262 660.602 588.466 660.602C589.67 660.602 590.524 661.344 590.524 662.87V663.906C590.524 665.432 589.67 666.174 588.466 666.174ZM594.85 667V661.988C594.85 661.064 595.718 660.616 596.614 660.616C597.692 660.616 598.252 661.274 598.252 662.562V667H599.372V662.366C599.372 660.616 598.434 659.608 596.95 659.608C595.872 659.608 595.256 660.14 594.906 660.952H594.85V659.776H593.73V667H594.85Z" fill="#6F6F6F"/>
<path d="M223.5 97.5H1024C1028.14 97.5 1031.5 100.858 1031.5 105V569C1031.5 573.142 1028.14 576.5 1024 576.5H231C226.858 576.5 223.5 573.142 223.5 569V97.5Z" fill="white"/>
<g clip-path="url(#clip0_1219_55646)">
<path d="M241.996 113.234H243.746L245.566 117H247.624L245.622 113.024C246.826 112.618 247.442 111.596 247.442 110.252C247.442 108.404 246.336 107.228 244.558 107.228H240.148V117H241.996V113.234ZM241.996 111.68V108.838H244.376C245.09 108.838 245.524 109.216 245.524 109.93V110.574C245.524 111.288 245.09 111.68 244.376 111.68H241.996ZM252.242 117.168C253.6 117.168 254.664 116.65 255.266 115.824L254.3 114.746C253.852 115.32 253.32 115.74 252.438 115.74C251.262 115.74 250.66 115.026 250.66 113.976V113.794H255.518V113.206C255.518 111.204 254.468 109.524 252.186 109.524C250.044 109.524 248.798 111.022 248.798 113.332C248.798 115.67 250.086 117.168 252.242 117.168ZM252.214 110.868C253.138 110.868 253.656 111.554 253.656 112.562V112.688H250.66V112.576C250.66 111.568 251.276 110.868 252.214 110.868ZM263.848 117.616C263.848 116.3 263.078 115.53 261.286 115.53H259.326C258.682 115.53 258.374 115.348 258.374 114.984C258.374 114.662 258.612 114.452 258.892 114.326C259.214 114.41 259.592 114.452 260.012 114.452C262 114.452 263.036 113.472 263.036 112.002C263.036 111.106 262.658 110.392 261.902 109.972V109.776H263.456V108.404H262.322C261.65 108.404 261.286 108.754 261.286 109.468V109.706C260.922 109.58 260.46 109.524 260.012 109.524C258.038 109.524 256.988 110.518 256.988 112.002C256.988 112.968 257.436 113.724 258.318 114.13V114.186C257.618 114.34 256.974 114.718 256.974 115.474C256.974 116.062 257.31 116.538 257.912 116.692V116.846C257.1 116.972 256.61 117.434 256.61 118.246C256.61 119.324 257.548 119.968 260.012 119.968C262.812 119.968 263.848 119.142 263.848 117.616ZM262.168 117.826C262.168 118.442 261.65 118.736 260.488 118.736H259.592C258.472 118.736 258.052 118.4 258.052 117.84C258.052 117.546 258.164 117.28 258.43 117.084H260.922C261.832 117.084 262.168 117.364 262.168 117.826ZM260.012 113.234C259.158 113.234 258.696 112.842 258.696 112.114V111.876C258.696 111.134 259.158 110.756 260.012 110.756C260.866 110.756 261.328 111.134 261.328 111.876V112.114C261.328 112.842 260.866 113.234 260.012 113.234ZM265.939 108.628C266.667 108.628 266.989 108.25 266.989 107.732V107.452C266.989 106.934 266.667 106.556 265.939 106.556C265.197 106.556 264.889 106.934 264.889 107.452V107.732C264.889 108.25 265.197 108.628 265.939 108.628ZM265.043 117H266.835V109.692H265.043V117ZM271.97 117.168C274.07 117.168 275.372 115.684 275.372 113.332C275.372 110.994 274.07 109.524 271.97 109.524C269.884 109.524 268.582 110.994 268.582 113.332C268.582 115.684 269.884 117.168 271.97 117.168ZM271.97 115.726C271.046 115.726 270.458 115.124 270.458 114.018V112.66C270.458 111.568 271.046 110.966 271.97 110.966C272.908 110.966 273.496 111.568 273.496 112.66V114.018C273.496 115.124 272.908 115.726 271.97 115.726ZM278.913 117V112.17C278.913 111.386 279.627 110.994 280.369 110.994C281.223 110.994 281.573 111.526 281.573 112.562V117H283.365V112.38C283.365 110.56 282.525 109.524 281.027 109.524C279.893 109.524 279.277 110.126 278.983 110.91H278.913V109.692H277.121V117H278.913Z" fill="black"/>
<path d="M244.642 135H245.762V127.776H244.642V132.774C244.642 133.726 243.774 134.16 242.892 134.16C241.814 134.16 241.24 133.502 241.24 132.214V127.776H240.12V132.41C240.12 134.16 241.072 135.168 242.556 135.168C243.76 135.168 244.306 134.51 244.586 133.824H244.642V135ZM250.477 135.168C252.129 135.168 253.151 134.314 253.151 132.914C253.151 131.822 252.535 131.122 250.939 130.884L250.379 130.8C249.483 130.66 248.993 130.38 248.993 129.68C248.993 128.994 249.483 128.56 250.407 128.56C251.331 128.56 251.947 128.994 252.269 129.442L253.011 128.77C252.423 128.042 251.653 127.608 250.491 127.608C249.021 127.608 247.915 128.308 247.915 129.736C247.915 131.08 248.909 131.626 250.239 131.822L250.813 131.906C251.765 132.046 252.073 132.48 252.073 133.04C252.073 133.782 251.513 134.216 250.561 134.216C249.651 134.216 248.979 133.81 248.419 133.11L247.621 133.754C248.265 134.608 249.147 135.168 250.477 135.168ZM258.583 131.346V130.142H254.929V131.346H258.583ZM263.074 135.168C264.726 135.168 265.748 134.314 265.748 132.914C265.748 131.822 265.132 131.122 263.536 130.884L262.976 130.8C262.08 130.66 261.59 130.38 261.59 129.68C261.59 128.994 262.08 128.56 263.004 128.56C263.928 128.56 264.544 128.994 264.866 129.442L265.608 128.77C265.02 128.042 264.25 127.608 263.088 127.608C261.618 127.608 260.512 128.308 260.512 129.736C260.512 131.08 261.506 131.626 262.836 131.822L263.41 131.906C264.362 132.046 264.67 132.48 264.67 133.04C264.67 133.782 264.11 134.216 263.158 134.216C262.248 134.216 261.576 133.81 261.016 133.11L260.218 133.754C260.862 134.608 261.744 135.168 263.074 135.168ZM270.617 135.168C272.549 135.168 273.879 133.684 273.879 131.388C273.879 129.092 272.549 127.608 270.617 127.608C268.685 127.608 267.355 129.092 267.355 131.388C267.355 133.684 268.685 135.168 270.617 135.168ZM270.617 134.174C269.413 134.174 268.559 133.432 268.559 131.906V130.87C268.559 129.344 269.413 128.602 270.617 128.602C271.821 128.602 272.675 129.344 272.675 130.87V131.906C272.675 133.432 271.821 134.174 270.617 134.174ZM280.333 135H281.453V127.776H280.333V132.774C280.333 133.726 279.465 134.16 278.583 134.16C277.505 134.16 276.931 133.502 276.931 132.214V127.776H275.811V132.41C275.811 134.16 276.763 135.168 278.247 135.168C279.451 135.168 279.997 134.51 280.277 133.824H280.333V135ZM286.994 135V134.02H285.524V128.756H287.106V127.776H285.524V125.774H284.516V127.118C284.516 127.608 284.362 127.776 283.886 127.776H283.214V128.756H284.404V133.81C284.404 134.51 284.824 135 285.594 135H286.994ZM289.066 135H290.186V129.988C290.186 129.064 291.054 128.616 291.95 128.616C293.028 128.616 293.588 129.274 293.588 130.562V135H294.708V130.366C294.708 128.616 293.77 127.608 292.286 127.608C291.208 127.608 290.592 128.14 290.242 128.952H290.186V124.64H289.066V135Z" fill="black"/>
<line x1="225" y1="97" x2="225" y2="145" stroke="#8D8D8D" stroke-width="4"/>
</g>
<path d="M223.5 97.5H1024C1028.14 97.5 1031.5 100.858 1031.5 105V569C1031.5 573.142 1028.14 576.5 1024 576.5H231C226.858 576.5 223.5 573.142 223.5 569V97.5Z" stroke="#8D8D8D"/>
<rect x="239.5" y="152.5" width="776" height="407" fill="#EDF5FF"/>
<path d="M243 152H239V200H243V152Z" fill="#0F62FE"/>
<path d="M264.516 181L267.708 171.228H265.874L264.376 175.988L263.522 179.236H263.48L262.612 175.988L261.114 171.228H259.224L262.416 181H264.516ZM270.02 172.628C270.748 172.628 271.07 172.25 271.07 171.732V171.452C271.07 170.934 270.748 170.556 270.02 170.556C269.278 170.556 268.97 170.934 268.97 171.452V171.732C268.97 172.25 269.278 172.628 270.02 172.628ZM269.124 181H270.916V173.692H269.124V181ZM274.945 181V176.52C274.945 175.722 275.575 175.386 276.779 175.386H277.339V173.692H276.947C275.785 173.692 275.197 174.434 275.015 175.204H274.945V173.692H273.153V181H274.945ZM281.146 181H282.434V179.572H281.048V175.12H282.546V173.692H281.048V171.69H279.438V172.936C279.438 173.44 279.27 173.692 278.738 173.692H278.178V175.12H279.256V179.138C279.256 180.328 279.914 181 281.146 181ZM288.628 181H290.42V173.692H288.628V178.522C288.628 179.306 287.914 179.684 287.2 179.684C286.346 179.684 285.968 179.138 285.968 178.13V173.692H284.176V178.312C284.176 180.132 285.016 181.168 286.514 181.168C287.718 181.168 288.306 180.51 288.558 179.782H288.628V181ZM294.456 181.168C295.548 181.168 296.346 180.678 296.584 179.74H296.668C296.78 180.496 297.256 181 298.026 181H299.02V179.572H298.292V176.128C298.292 174.462 297.242 173.524 295.268 173.524C293.798 173.524 292.944 174.084 292.412 174.924L293.476 175.876C293.826 175.372 294.302 174.952 295.142 174.952C296.094 174.952 296.5 175.428 296.5 176.24V176.772H295.254C293.266 176.772 292.132 177.514 292.132 179.012C292.132 180.314 292.972 181.168 294.456 181.168ZM295.058 179.866C294.358 179.866 293.952 179.572 293.952 178.984V178.746C293.952 178.172 294.414 177.85 295.352 177.85H296.5V178.816C296.5 179.502 295.856 179.866 295.058 179.866ZM303.389 181V179.572H302.423V170.64H300.631V179.236C300.631 180.356 301.205 181 302.423 181H303.389ZM310.335 181V177.276H312.883C314.689 177.276 315.781 176.072 315.781 174.252C315.781 172.446 314.689 171.228 312.883 171.228H308.487V181H310.335ZM310.335 172.838H312.715C313.429 172.838 313.863 173.216 313.863 173.93V174.574C313.863 175.288 313.429 175.68 312.715 175.68H310.335V172.838ZM319.159 181V176.52C319.159 175.722 319.789 175.386 320.993 175.386H321.553V173.692H321.161C319.999 173.692 319.411 174.434 319.229 175.204H319.159V173.692H317.367V181H319.159ZM323.919 172.628C324.647 172.628 324.969 172.25 324.969 171.732V171.452C324.969 170.934 324.647 170.556 323.919 170.556C323.177 170.556 322.869 170.934 322.869 171.452V171.732C322.869 172.25 323.177 172.628 323.919 172.628ZM323.023 181H324.815V173.692H323.023V181ZM330.748 181L333.198 173.692H331.49L330.496 176.842L329.782 179.446H329.684L328.97 176.842L327.948 173.692H326.184L328.62 181H330.748ZM336.237 181.168C337.329 181.168 338.127 180.678 338.365 179.74H338.449C338.561 180.496 339.037 181 339.807 181H340.801V179.572H340.073V176.128C340.073 174.462 339.023 173.524 337.049 173.524C335.579 173.524 334.725 174.084 334.193 174.924L335.257 175.876C335.607 175.372 336.083 174.952 336.923 174.952C337.875 174.952 338.281 175.428 338.281 176.24V176.772H337.035C335.047 176.772 333.913 177.514 333.913 179.012C333.913 180.314 334.753 181.168 336.237 181.168ZM336.839 179.866C336.139 179.866 335.733 179.572 335.733 178.984V178.746C335.733 178.172 336.195 177.85 337.133 177.85H338.281V178.816C338.281 179.502 337.637 179.866 336.839 179.866ZM344.638 181H345.926V179.572H344.54V175.12H346.038V173.692H344.54V171.69H342.93V172.936C342.93 173.44 342.762 173.692 342.23 173.692H341.67V175.12H342.748V179.138C342.748 180.328 343.406 181 344.638 181ZM350.652 181.168C352.01 181.168 353.074 180.65 353.676 179.824L352.71 178.746C352.262 179.32 351.73 179.74 350.848 179.74C349.672 179.74 349.07 179.026 349.07 177.976V177.794H353.928V177.206C353.928 175.204 352.878 173.524 350.596 173.524C348.454 173.524 347.208 175.022 347.208 177.332C347.208 179.67 348.496 181.168 350.652 181.168ZM350.624 174.868C351.548 174.868 352.066 175.554 352.066 176.562V176.688H349.07V176.576C349.07 175.568 349.686 174.868 350.624 174.868ZM363.039 181.168C364.789 181.168 365.951 180.314 366.651 178.858L365.153 177.976C364.831 178.858 364.145 179.53 363.039 179.53C361.667 179.53 360.785 178.578 360.785 176.898V175.358C360.785 173.692 361.667 172.698 363.039 172.698C364.131 172.698 364.747 173.286 365.027 174.154L366.609 173.314C365.923 171.802 364.789 171.06 363.039 171.06C360.463 171.06 358.825 172.894 358.825 176.184C358.825 179.474 360.463 181.168 363.039 181.168ZM371.034 181V179.572H370.068V170.64H368.276V179.236C368.276 180.356 368.85 181 370.068 181H371.034ZM375.449 181.168C377.549 181.168 378.851 179.684 378.851 177.332C378.851 174.994 377.549 173.524 375.449 173.524C373.363 173.524 372.061 174.994 372.061 177.332C372.061 179.684 373.363 181.168 375.449 181.168ZM375.449 179.726C374.525 179.726 373.937 179.124 373.937 178.018V176.66C373.937 175.568 374.525 174.966 375.449 174.966C376.387 174.966 376.975 175.568 376.975 176.66V178.018C376.975 179.124 376.387 179.726 375.449 179.726ZM384.967 181H386.759V173.692H384.967V178.522C384.967 179.306 384.253 179.684 383.539 179.684C382.685 179.684 382.307 179.138 382.307 178.13V173.692H380.515V178.312C380.515 180.132 381.355 181.168 382.853 181.168C384.057 181.168 384.645 180.51 384.897 179.782H384.967V181ZM393.526 181H395.318V170.64H393.526V174.896H393.456C393.204 174.056 392.406 173.524 391.44 173.524C389.606 173.524 388.584 174.896 388.584 177.332C388.584 179.782 389.606 181.168 391.44 181.168C392.406 181.168 393.19 180.608 393.456 179.782H393.526V181ZM392.014 179.684C391.09 179.684 390.46 179.012 390.46 177.976V176.716C390.46 175.68 391.09 174.994 392.014 174.994C392.868 174.994 393.526 175.456 393.526 176.17V178.494C393.526 179.25 392.868 179.684 392.014 179.684ZM400.677 176.632C400.677 179.362 401.769 181.756 403.141 182.932H404.835C403.337 181.574 402.357 179.488 402.357 177.164V176.128C402.357 173.86 403.323 171.76 404.835 170.36H403.141C401.741 171.578 400.677 173.93 400.677 176.632ZM410.643 181L413.835 171.228H412.001L410.503 175.988L409.649 179.236H409.607L408.739 175.988L407.241 171.228H405.351L408.543 181H410.643ZM417.211 181V177.276H419.759C421.565 177.276 422.657 176.072 422.657 174.252C422.657 172.446 421.565 171.228 419.759 171.228H415.363V181H417.211ZM417.211 172.838H419.591C420.305 172.838 420.739 173.216 420.739 173.93V174.574C420.739 175.288 420.305 175.68 419.591 175.68H417.211V172.838ZM428.286 181.168C430.036 181.168 431.198 180.314 431.898 178.858L430.4 177.976C430.078 178.858 429.392 179.53 428.286 179.53C426.914 179.53 426.032 178.578 426.032 176.898V175.358C426.032 173.692 426.914 172.698 428.286 172.698C429.378 172.698 429.994 173.286 430.274 174.154L431.856 173.314C431.17 171.802 430.036 171.06 428.286 171.06C425.71 171.06 424.072 172.894 424.072 176.184C424.072 179.474 425.71 181.168 428.286 181.168ZM436.504 176.632C436.504 173.93 435.44 171.578 434.04 170.36H432.346C433.858 171.76 434.824 173.86 434.824 176.128V177.164C434.824 179.488 433.844 181.574 432.346 182.932H434.04C435.412 181.756 436.504 179.362 436.504 176.632Z" fill="black"/>
<rect x="239.5" y="152.5" width="776" height="407" stroke="#0F62FE"/>
<path d="M391.5 208.5H992C996.142 208.5 999.5 211.858 999.5 216V536C999.5 540.142 996.142 543.5 992 543.5H399C394.858 543.5 391.5 540.142 391.5 536V208.5Z" fill="white"/>
<g clip-path="url(#clip1_1219_55646)">
<path d="M414.854 226.362H409.646L414.714 219.88V218.228H407.784V219.866H412.586L407.532 226.348V228H414.854V226.362ZM419.407 228.168C421.507 228.168 422.809 226.684 422.809 224.332C422.809 221.994 421.507 220.524 419.407 220.524C417.32 220.524 416.018 221.994 416.018 224.332C416.018 226.684 417.32 228.168 419.407 228.168ZM419.407 226.726C418.482 226.726 417.894 226.124 417.894 225.018V223.66C417.894 222.568 418.482 221.966 419.407 221.966C420.345 221.966 420.933 222.568 420.933 223.66V225.018C420.933 226.124 420.345 226.726 419.407 226.726ZM426.349 228V223.17C426.349 222.386 427.063 221.994 427.805 221.994C428.659 221.994 429.009 222.526 429.009 223.562V228H430.801V223.38C430.801 221.56 429.961 220.524 428.463 220.524C427.329 220.524 426.713 221.126 426.419 221.91H426.349V220.692H424.557V228H426.349ZM435.902 228.168C437.26 228.168 438.324 227.65 438.926 226.824L437.96 225.746C437.512 226.32 436.98 226.74 436.098 226.74C434.922 226.74 434.32 226.026 434.32 224.976V224.794H439.178V224.206C439.178 222.204 438.128 220.524 435.846 220.524C433.704 220.524 432.458 222.022 432.458 224.332C432.458 226.67 433.746 228.168 435.902 228.168ZM435.874 221.868C436.798 221.868 437.316 222.554 437.316 223.562V223.688H434.32V223.576C434.32 222.568 434.936 221.868 435.874 221.868Z" fill="black"/>
<path d="M412.642 246H413.762V238.776H412.642V243.774C412.642 244.726 411.774 245.16 410.892 245.16C409.814 245.16 409.24 244.502 409.24 243.214V238.776H408.12V243.41C408.12 245.16 409.072 246.168 410.556 246.168C411.76 246.168 412.306 245.51 412.586 244.824H412.642V246ZM418.477 246.168C420.129 246.168 421.151 245.314 421.151 243.914C421.151 242.822 420.535 242.122 418.939 241.884L418.379 241.8C417.483 241.66 416.993 241.38 416.993 240.68C416.993 239.994 417.483 239.56 418.407 239.56C419.331 239.56 419.947 239.994 420.269 240.442L421.011 239.77C420.423 239.042 419.653 238.608 418.491 238.608C417.021 238.608 415.915 239.308 415.915 240.736C415.915 242.08 416.909 242.626 418.239 242.822L418.813 242.906C419.765 243.046 420.073 243.48 420.073 244.04C420.073 244.782 419.513 245.216 418.561 245.216C417.651 245.216 416.979 244.81 416.419 244.11L415.621 244.754C416.265 245.608 417.147 246.168 418.477 246.168ZM426.583 242.346V241.142H422.929V242.346H426.583ZM431.074 246.168C432.726 246.168 433.748 245.314 433.748 243.914C433.748 242.822 433.132 242.122 431.536 241.884L430.976 241.8C430.08 241.66 429.59 241.38 429.59 240.68C429.59 239.994 430.08 239.56 431.004 239.56C431.928 239.56 432.544 239.994 432.866 240.442L433.608 239.77C433.02 239.042 432.25 238.608 431.088 238.608C429.618 238.608 428.512 239.308 428.512 240.736C428.512 242.08 429.506 242.626 430.836 242.822L431.41 242.906C432.362 243.046 432.67 243.48 432.67 244.04C432.67 244.782 432.11 245.216 431.158 245.216C430.248 245.216 429.576 244.81 429.016 244.11L428.218 244.754C428.862 245.608 429.744 246.168 431.074 246.168ZM438.617 246.168C440.549 246.168 441.879 244.684 441.879 242.388C441.879 240.092 440.549 238.608 438.617 238.608C436.685 238.608 435.355 240.092 435.355 242.388C435.355 244.684 436.685 246.168 438.617 246.168ZM438.617 245.174C437.413 245.174 436.559 244.432 436.559 242.906V241.87C436.559 240.344 437.413 239.602 438.617 239.602C439.821 239.602 440.675 240.344 440.675 241.87V242.906C440.675 244.432 439.821 245.174 438.617 245.174ZM448.333 246H449.453V238.776H448.333V243.774C448.333 244.726 447.465 245.16 446.583 245.16C445.505 245.16 444.931 244.502 444.931 243.214V238.776H443.811V243.41C443.811 245.16 444.763 246.168 446.247 246.168C447.451 246.168 447.997 245.51 448.277 244.824H448.333V246ZM454.994 246V245.02H453.524V239.756H455.106V238.776H453.524V236.774H452.516V238.118C452.516 238.608 452.362 238.776 451.886 238.776H451.214V239.756H452.404V244.81C452.404 245.51 452.824 246 453.594 246H454.994ZM457.066 246H458.186V240.988C458.186 240.064 459.054 239.616 459.95 239.616C461.028 239.616 461.588 240.274 461.588 241.562V246H462.708V241.366C462.708 239.616 461.77 238.608 460.286 238.608C459.208 238.608 458.592 239.14 458.242 239.952H458.186V235.64H457.066V246ZM468.613 242.346V241.142H464.959V242.346H468.613ZM477.403 246V244.964H474.883V236.228H473.049L470.459 238.65L471.145 239.392L473.609 237.096H473.707V244.964H470.977V246H477.403Z" fill="black"/>
<line x1="393" y1="208" x2="393" y2="256" stroke="#878D96" stroke-width="4"/>
</g>
<path d="M391.5 208.5H992C996.142 208.5 999.5 211.858 999.5 216V536C999.5 540.142 996.142 543.5 992 543.5H399C394.858 543.5 391.5 540.142 391.5 536V208.5Z" stroke="#878D96"/>
<path fill-rule="evenodd" clip-rule="evenodd" d="M283 297.5L96 297.5L96 296.5L283 296.5L283 294.113L288 297L283 299.887L283 297.5Z" fill="#8F8B8B"/>
<circle cx="72" cy="297" r="24" fill="#161616"/>
<rect width="20" height="20" transform="translate(62 287)" fill="white" style="mix-blend-mode:multiply"/>
<path d="M72 289.5C72.6181 289.5 73.2223 289.683 73.7362 290.027C74.2501 290.37 74.6506 290.858 74.8871 291.429C75.1236 292 75.1855 292.628 75.065 293.235C74.9444 293.841 74.6467 294.398 74.2097 294.835C73.7727 295.272 73.2158 295.569 72.6097 295.69C72.0035 295.811 71.3751 295.749 70.8041 295.512C70.2331 295.276 69.745 294.875 69.4017 294.361C69.0583 293.847 68.875 293.243 68.875 292.625C68.875 291.796 69.2042 291.001 69.7903 290.415C70.3763 289.829 71.1712 289.5 72 289.5ZM72 288.25C71.1347 288.25 70.2888 288.507 69.5694 288.987C68.8499 289.468 68.2892 290.151 67.958 290.951C67.6269 291.75 67.5403 292.63 67.7091 293.479C67.8779 294.327 68.2946 295.107 68.9064 295.719C69.5183 296.33 70.2978 296.747 71.1465 296.916C71.9951 297.085 72.8748 296.998 73.6742 296.667C74.4737 296.336 75.1569 295.775 75.6377 295.056C76.1184 294.336 76.375 293.49 76.375 292.625C76.375 291.465 75.9141 290.352 75.0936 289.531C74.2731 288.711 73.1603 288.25 72 288.25Z" fill="white"/>
<path d="M78.25 305.75H77V302.625C77 302.215 76.9192 301.808 76.7621 301.429C76.6051 301.05 76.3749 300.705 76.0847 300.415C75.7945 300.125 75.45 299.895 75.0709 299.738C74.6917 299.581 74.2854 299.5 73.875 299.5H70.125C69.2962 299.5 68.5013 299.829 67.9153 300.415C67.3292 301.001 67 301.796 67 302.625V305.75H65.75V302.625C65.75 301.465 66.2109 300.352 67.0314 299.531C67.8519 298.711 68.9647 298.25 70.125 298.25H73.875C75.0353 298.25 76.1481 298.711 76.9686 299.531C77.7891 300.352 78.25 301.465 78.25 302.625V305.75Z" fill="white"/>
<path d="M57.8605 333.228V338.996C57.8605 341.866 58.8545 343.168 61.5985 343.168C64.3425 343.168 65.3645 341.866 65.3645 338.996V333.228H63.5445V339.234C63.5445 340.76 63.0125 341.53 61.6125 341.53C60.2125 341.53 59.6805 340.76 59.6805 339.234V333.228H57.8605ZM70.0385 343.168C71.8585 343.168 73.0485 342.188 73.0485 340.774C73.0485 339.556 72.2785 338.842 70.6825 338.618L69.9405 338.52C69.2545 338.408 68.9885 338.184 68.9885 337.694C68.9885 337.246 69.3245 336.938 70.0945 336.938C70.8085 336.938 71.4245 337.274 71.8445 337.722L72.8945 336.672C72.1945 335.944 71.4665 335.524 70.0385 335.524C68.3725 335.524 67.2665 336.42 67.2665 337.834C67.2665 339.164 68.1345 339.85 69.7025 340.046L70.4305 340.144C71.0745 340.228 71.3265 340.494 71.3265 340.914C71.3265 341.432 70.9625 341.754 70.1085 341.754C69.2825 341.754 68.6385 341.376 68.1065 340.76L67.0145 341.824C67.7425 342.664 68.6525 343.168 70.0385 343.168ZM77.7448 343.168C79.1028 343.168 80.1668 342.65 80.7688 341.824L79.8028 340.746C79.3548 341.32 78.8228 341.74 77.9408 341.74C76.7648 341.74 76.1628 341.026 76.1628 339.976V339.794H81.0208V339.206C81.0208 337.204 79.9708 335.524 77.6888 335.524C75.5468 335.524 74.3008 337.022 74.3008 339.332C74.3008 341.67 75.5888 343.168 77.7448 343.168ZM77.7168 336.868C78.6408 336.868 79.1588 337.554 79.1588 338.562V338.688H76.1628V338.576C76.1628 337.568 76.7788 336.868 77.7168 336.868ZM84.5494 343V338.52C84.5494 337.722 85.1794 337.386 86.3834 337.386H86.9434V335.692H86.5514C85.3894 335.692 84.8014 336.434 84.6194 337.204H84.5494V335.692H82.7574V343H84.5494Z" fill="black"/>
<rect x="407.5" y="273.5" width="577" height="254" fill="#F4F4F4"/>
<rect x="408" y="274" width="576" height="253" fill="#F4F4F4"/>
<g clip-path="url(#clip2_1219_55646)">
<path d="M428.942 302.168C430.692 302.168 431.854 301.314 432.554 299.858L431.056 298.976C430.734 299.858 430.048 300.53 428.942 300.53C427.57 300.53 426.688 299.578 426.688 297.898V296.358C426.688 294.692 427.57 293.698 428.942 293.698C430.034 293.698 430.65 294.286 430.93 295.154L432.512 294.314C431.826 292.802 430.692 292.06 428.942 292.06C426.366 292.06 424.728 293.894 424.728 297.184C424.728 300.474 426.366 302.168 428.942 302.168ZM436.936 302V300.572H435.97V291.64H434.178V300.236C434.178 301.356 434.752 302 435.97 302H436.936ZM442.822 302H444.614V294.692H442.822V299.522C442.822 300.306 442.108 300.684 441.394 300.684C440.54 300.684 440.162 300.138 440.162 299.13V294.692H438.37V299.312C438.37 301.132 439.21 302.168 440.708 302.168C441.912 302.168 442.5 301.51 442.752 300.782H442.822V302ZM449.238 302.168C451.058 302.168 452.248 301.188 452.248 299.774C452.248 298.556 451.478 297.842 449.882 297.618L449.14 297.52C448.454 297.408 448.188 297.184 448.188 296.694C448.188 296.246 448.524 295.938 449.294 295.938C450.008 295.938 450.624 296.274 451.044 296.722L452.094 295.672C451.394 294.944 450.666 294.524 449.238 294.524C447.572 294.524 446.466 295.42 446.466 296.834C446.466 298.164 447.334 298.85 448.902 299.046L449.63 299.144C450.274 299.228 450.526 299.494 450.526 299.914C450.526 300.432 450.162 300.754 449.308 300.754C448.482 300.754 447.838 300.376 447.306 299.76L446.214 300.824C446.942 301.664 447.852 302.168 449.238 302.168ZM456.163 302H457.451V300.572H456.065V296.12H457.563V294.692H456.065V292.69H454.455V293.936C454.455 294.44 454.287 294.692 453.755 294.692H453.195V296.12H454.273V300.138C454.273 301.328 454.931 302 456.163 302ZM462.177 302.168C463.535 302.168 464.599 301.65 465.201 300.824L464.235 299.746C463.787 300.32 463.255 300.74 462.373 300.74C461.197 300.74 460.595 300.026 460.595 298.976V298.794H465.453V298.206C465.453 296.204 464.403 294.524 462.121 294.524C459.979 294.524 458.733 296.022 458.733 298.332C458.733 300.67 460.021 302.168 462.177 302.168ZM462.149 295.868C463.073 295.868 463.591 296.554 463.591 297.562V297.688H460.595V297.576C460.595 296.568 461.211 295.868 462.149 295.868ZM468.981 302V297.52C468.981 296.722 469.611 296.386 470.815 296.386H471.375V294.692H470.983C469.821 294.692 469.233 295.434 469.051 296.204H468.981V294.692H467.189V302H468.981Z" fill="black"/>
<line x1="409" y1="273" x2="409" y2="321" stroke="#6F6F6F" stroke-width="4"/>
</g>
<rect x="407.5" y="273.5" width="577" height="254" stroke="#6F6F6F"/>
<rect x="528.5" y="329.5" width="136" height="167" fill="white"/>
<rect x="529" y="330" width="135" height="166" fill="white"/>
<g clip-path="url(#clip3_1219_55646)">
<path d="M548.732 358L549.978 352.834L550.608 350.258H550.636L551.238 352.834L552.484 358H554.57L556.908 348.228H555.144L554.15 352.918L553.534 355.914H553.492L552.806 352.918L551.686 348.228H549.642L548.522 352.918L547.822 355.914H547.78L547.178 352.918L546.212 348.228H544.364L546.632 358H548.732ZM561.069 358.168C563.169 358.168 564.471 356.684 564.471 354.332C564.471 351.994 563.169 350.524 561.069 350.524C558.983 350.524 557.681 351.994 557.681 354.332C557.681 356.684 558.983 358.168 561.069 358.168ZM561.069 356.726C560.145 356.726 559.557 356.124 559.557 355.018V353.66C559.557 352.568 560.145 351.966 561.069 351.966C562.007 351.966 562.595 352.568 562.595 353.66V355.018C562.595 356.124 562.007 356.726 561.069 356.726ZM568.011 358V353.52C568.011 352.722 568.641 352.386 569.845 352.386H570.405V350.692H570.013C568.851 350.692 568.263 351.434 568.081 352.204H568.011V350.692H566.219V358H568.011ZM571.875 358H573.667V355.774L574.633 354.724L576.509 358H578.637L575.851 353.52L578.371 350.692H576.341L574.703 352.568L573.737 353.884H573.667V347.64H571.875V358ZM582.509 358.168C583.867 358.168 584.931 357.65 585.533 356.824L584.567 355.746C584.119 356.32 583.587 356.74 582.705 356.74C581.529 356.74 580.927 356.026 580.927 354.976V354.794H585.785V354.206C585.785 352.204 584.735 350.524 582.453 350.524C580.311 350.524 579.065 352.022 579.065 354.332C579.065 356.67 580.353 358.168 582.509 358.168ZM582.481 351.868C583.405 351.868 583.923 352.554 583.923 353.562V353.688H580.927V353.576C580.927 352.568 581.543 351.868 582.481 351.868ZM589.314 358V353.52C589.314 352.722 589.944 352.386 591.148 352.386H591.708V350.692H591.316C590.154 350.692 589.566 351.434 589.384 352.204H589.314V350.692H587.522V358H589.314ZM598.438 358V353.17C598.438 352.386 599.152 351.994 599.894 351.994C600.748 351.994 601.098 352.526 601.098 353.562V358H602.89V353.38C602.89 351.56 602.05 350.524 600.552 350.524C599.418 350.524 598.802 351.126 598.508 351.91H598.438V350.692H596.646V358H598.438ZM607.935 358.168C610.035 358.168 611.337 356.684 611.337 354.332C611.337 351.994 610.035 350.524 607.935 350.524C605.849 350.524 604.547 351.994 604.547 354.332C604.547 356.684 605.849 358.168 607.935 358.168ZM607.935 356.726C607.011 356.726 606.423 356.124 606.423 355.018V353.66C606.423 352.568 607.011 351.966 607.935 351.966C608.873 351.966 609.461 352.568 609.461 353.66V355.018C609.461 356.124 608.873 356.726 607.935 356.726ZM617.621 358H619.413V347.64H617.621V351.896H617.551C617.299 351.056 616.501 350.524 615.535 350.524C613.701 350.524 612.679 351.896 612.679 354.332C612.679 356.782 613.701 358.168 615.535 358.168C616.501 358.168 617.285 357.608 617.551 356.782H617.621V358ZM616.109 356.684C615.185 356.684 614.555 356.012 614.555 354.976V353.716C614.555 352.68 615.185 351.994 616.109 351.994C616.963 351.994 617.621 352.456 617.621 353.17V355.494C617.621 356.25 616.963 356.684 616.109 356.684ZM624.594 358.168C625.952 358.168 627.016 357.65 627.618 356.824L626.652 355.746C626.204 356.32 625.672 356.74 624.79 356.74C623.614 356.74 623.012 356.026 623.012 354.976V354.794H627.87V354.206C627.87 352.204 626.82 350.524 624.538 350.524C622.396 350.524 621.15 352.022 621.15 354.332C621.15 356.67 622.438 358.168 624.594 358.168ZM624.566 351.868C625.49 351.868 626.008 352.554 626.008 353.562V353.688H623.012V353.576C623.012 352.568 623.628 351.868 624.566 351.868ZM640.047 358V356.502H637.807V348.228H635.021L632.599 351.112L633.747 352.078L635.875 349.558H636.001V356.502H633.313V358H640.047Z" fill="black"/>
<line x1="530" y1="329" x2="530" y2="377" stroke="#6F6F6F" stroke-width="4"/>
</g>
<rect x="528.5" y="329.5" width="136" height="167" stroke="#6F6F6F"/>
<rect x="681.5" y="329.5" width="134" height="167" fill="white"/>
<rect x="682" y="330" width="133" height="166" fill="white"/>
<g clip-path="url(#clip4_1219_55646)">
<path d="M701.732 358L702.978 352.834L703.608 350.258H703.636L704.238 352.834L705.484 358H707.57L709.908 348.228H708.144L707.15 352.918L706.534 355.914H706.492L705.806 352.918L704.686 348.228H702.642L701.522 352.918L700.822 355.914H700.78L700.178 352.918L699.212 348.228H697.364L699.632 358H701.732ZM714.069 358.168C716.169 358.168 717.471 356.684 717.471 354.332C717.471 351.994 716.169 350.524 714.069 350.524C711.983 350.524 710.681 351.994 710.681 354.332C710.681 356.684 711.983 358.168 714.069 358.168ZM714.069 356.726C713.145 356.726 712.557 356.124 712.557 355.018V353.66C712.557 352.568 713.145 351.966 714.069 351.966C715.007 351.966 715.595 352.568 715.595 353.66V355.018C715.595 356.124 715.007 356.726 714.069 356.726ZM721.011 358V353.52C721.011 352.722 721.641 352.386 722.845 352.386H723.405V350.692H723.013C721.851 350.692 721.263 351.434 721.081 352.204H721.011V350.692H719.219V358H721.011ZM724.875 358H726.667V355.774L727.633 354.724L729.509 358H731.637L728.851 353.52L731.371 350.692H729.341L727.703 352.568L726.737 353.884H726.667V347.64H724.875V358ZM735.509 358.168C736.867 358.168 737.931 357.65 738.533 356.824L737.567 355.746C737.119 356.32 736.587 356.74 735.705 356.74C734.529 356.74 733.927 356.026 733.927 354.976V354.794H738.785V354.206C738.785 352.204 737.735 350.524 735.453 350.524C733.311 350.524 732.065 352.022 732.065 354.332C732.065 356.67 733.353 358.168 735.509 358.168ZM735.481 351.868C736.405 351.868 736.923 352.554 736.923 353.562V353.688H733.927V353.576C733.927 352.568 734.543 351.868 735.481 351.868ZM742.314 358V353.52C742.314 352.722 742.944 352.386 744.148 352.386H744.708V350.692H744.316C743.154 350.692 742.566 351.434 742.384 352.204H742.314V350.692H740.522V358H742.314ZM751.438 358V353.17C751.438 352.386 752.152 351.994 752.894 351.994C753.748 351.994 754.098 352.526 754.098 353.562V358H755.89V353.38C755.89 351.56 755.05 350.524 753.552 350.524C752.418 350.524 751.802 351.126 751.508 351.91H751.438V350.692H749.646V358H751.438ZM760.935 358.168C763.035 358.168 764.337 356.684 764.337 354.332C764.337 351.994 763.035 350.524 760.935 350.524C758.849 350.524 757.547 351.994 757.547 354.332C757.547 356.684 758.849 358.168 760.935 358.168ZM760.935 356.726C760.011 356.726 759.423 356.124 759.423 355.018V353.66C759.423 352.568 760.011 351.966 760.935 351.966C761.873 351.966 762.461 352.568 762.461 353.66V355.018C762.461 356.124 761.873 356.726 760.935 356.726ZM770.621 358H772.413V347.64H770.621V351.896H770.551C770.299 351.056 769.501 350.524 768.535 350.524C766.701 350.524 765.679 351.896 765.679 354.332C765.679 356.782 766.701 358.168 768.535 358.168C769.501 358.168 770.285 357.608 770.551 356.782H770.621V358ZM769.109 356.684C768.185 356.684 767.555 356.012 767.555 354.976V353.716C767.555 352.68 768.185 351.994 769.109 351.994C769.963 351.994 770.621 352.456 770.621 353.17V355.494C770.621 356.25 769.963 356.684 769.109 356.684ZM777.594 358.168C778.952 358.168 780.016 357.65 780.618 356.824L779.652 355.746C779.204 356.32 778.672 356.74 777.79 356.74C776.614 356.74 776.012 356.026 776.012 354.976V354.794H780.87V354.206C780.87 352.204 779.82 350.524 777.538 350.524C775.396 350.524 774.15 352.022 774.15 354.332C774.15 356.67 775.438 358.168 777.594 358.168ZM777.566 351.868C778.49 351.868 779.008 352.554 779.008 353.562V353.688H776.012V353.576C776.012 352.568 776.628 351.868 777.566 351.868ZM792.683 356.446H787.909L789.967 354.752C791.325 353.632 792.431 352.596 792.431 350.972C792.431 349.292 791.255 348.06 789.197 348.06C787.209 348.06 786.159 349.194 785.739 350.496L787.335 351.112C787.559 350.314 788.035 349.656 789.043 349.656C789.841 349.656 790.485 350.132 790.485 350.986V351.168C790.485 352.022 790.009 352.694 788.973 353.604L785.907 356.292V358H792.683V356.446Z" fill="black"/>
<line x1="683" y1="329" x2="683" y2="377" stroke="#6F6F6F" stroke-width="4"/>
</g>
<rect x="681.5" y="329.5" width="134" height="167" stroke="#6F6F6F"/>
<rect width="48" height="48" transform="translate(576.5 393)" fill="#6F6F6F"/>
<rect width="20" height="20" transform="translate(590.5 407)" fill="white" style="mix-blend-mode:multiply"/>
<path d="M608 414.5H603V409.5H608V414.5ZM604.25 413.25H606.75V410.75H604.25V413.25Z" fill="white"/>
<path d="M601.125 416.375V412.625H596.125V421.375H604.875V416.375H601.125ZM597.375 413.875H599.875V416.375H597.375V413.875ZM599.875 420.125H597.375V417.625H599.875V420.125ZM603.625 420.125H601.125V417.625H603.625V420.125Z" fill="white"/>
<path d="M606.75 424.5H594.25C593.919 424.5 593.601 424.368 593.367 424.133C593.132 423.899 593 423.581 593 423.25V410.75C593 410.419 593.132 410.101 593.367 409.867C593.601 409.632 593.919 409.5 594.25 409.5H600.5V410.75H594.25V423.25H606.75V417H608V423.25C608 423.581 607.868 423.899 607.633 424.133C607.399 424.368 607.081 424.5 606.75 424.5Z" fill="white"/>
<path d="M573.022 463.168C574.772 463.168 575.934 462.314 576.634 460.858L575.136 459.976C574.814 460.858 574.128 461.53 573.022 461.53C571.65 461.53 570.768 460.578 570.768 458.898V457.358C570.768 455.692 571.65 454.698 573.022 454.698C574.114 454.698 574.73 455.286 575.01 456.154L576.592 455.314C575.906 453.802 574.772 453.06 573.022 453.06C570.446 453.06 568.808 454.894 568.808 458.184C568.808 461.474 570.446 463.168 573.022 463.168ZM581.156 463.168C583.256 463.168 584.558 461.684 584.558 459.332C584.558 456.994 583.256 455.524 581.156 455.524C579.07 455.524 577.768 456.994 577.768 459.332C577.768 461.684 579.07 463.168 581.156 463.168ZM581.156 461.726C580.232 461.726 579.644 461.124 579.644 460.018V458.66C579.644 457.568 580.232 456.966 581.156 456.966C582.094 456.966 582.682 457.568 582.682 458.66V460.018C582.682 461.124 582.094 461.726 581.156 461.726ZM588.099 463V458.17C588.099 457.386 588.813 456.994 589.555 456.994C590.409 456.994 590.759 457.526 590.759 458.562V463H592.551V458.38C592.551 456.56 591.711 455.524 590.213 455.524C589.079 455.524 588.463 456.126 588.169 456.91H588.099V455.692H586.307V463H588.099ZM596.979 463H598.267V461.572H596.881V457.12H598.379V455.692H596.881V453.69H595.271V454.936C595.271 455.44 595.103 455.692 594.571 455.692H594.011V457.12H595.089V461.138C595.089 462.328 595.747 463 596.979 463ZM601.9 463.168C602.992 463.168 603.79 462.678 604.028 461.74H604.112C604.224 462.496 604.7 463 605.47 463H606.464V461.572H605.736V458.128C605.736 456.462 604.686 455.524 602.712 455.524C601.242 455.524 600.388 456.084 599.856 456.924L600.92 457.876C601.27 457.372 601.746 456.952 602.586 456.952C603.538 456.952 603.944 457.428 603.944 458.24V458.772H602.698C600.71 458.772 599.576 459.514 599.576 461.012C599.576 462.314 600.416 463.168 601.9 463.168ZM602.502 461.866C601.802 461.866 601.396 461.572 601.396 460.984V460.746C601.396 460.172 601.858 459.85 602.796 459.85H603.944V460.816C603.944 461.502 603.3 461.866 602.502 461.866ZM608.97 454.628C609.698 454.628 610.02 454.25 610.02 453.732V453.452C610.02 452.934 609.698 452.556 608.97 452.556C608.228 452.556 607.92 452.934 607.92 453.452V453.732C607.92 454.25 608.228 454.628 608.97 454.628ZM608.074 463H609.866V455.692H608.074V463ZM613.895 463V458.17C613.895 457.386 614.609 456.994 615.351 456.994C616.205 456.994 616.555 457.526 616.555 458.562V463H618.347V458.38C618.347 456.56 617.507 455.524 616.009 455.524C614.875 455.524 614.259 456.126 613.965 456.91H613.895V455.692H612.103V463H613.895ZM623.448 463.168C624.806 463.168 625.87 462.65 626.472 461.824L625.506 460.746C625.058 461.32 624.526 461.74 623.644 461.74C622.468 461.74 621.866 461.026 621.866 459.976V459.794H626.724V459.206C626.724 457.204 625.674 455.524 623.392 455.524C621.25 455.524 620.004 457.022 620.004 459.332C620.004 461.67 621.292 463.168 623.448 463.168ZM623.42 456.868C624.344 456.868 624.862 457.554 624.862 458.562V458.688H621.866V458.576C621.866 457.568 622.482 456.868 623.42 456.868ZM630.252 463V458.52C630.252 457.722 630.882 457.386 632.086 457.386H632.646V455.692H632.254C631.092 455.692 630.504 456.434 630.322 457.204H630.252V455.692H628.46V463H630.252Z" fill="black"/>
<rect width="48" height="48" transform="translate(728.5 393)" fill="#6F6F6F"/>
<rect width="20" height="20" transform="translate(742.5 407)" fill="white" style="mix-blend-mode:multiply"/>
<path d="M760 414.5H755V409.5H760V414.5ZM756.25 413.25H758.75V410.75H756.25V413.25Z" fill="white"/>
<path d="M753.125 416.375V412.625H748.125V421.375H756.875V416.375H753.125ZM749.375 413.875H751.875V416.375H749.375V413.875ZM751.875 420.125H749.375V417.625H751.875V420.125ZM755.625 420.125H753.125V417.625H755.625V420.125Z" fill="white"/>
<path d="M758.75 424.5H746.25C745.919 424.5 745.601 424.368 745.367 424.133C745.132 423.899 745 423.581 745 423.25V410.75C745 410.419 745.132 410.101 745.367 409.867C745.601 409.632 745.919 409.5 746.25 409.5H752.5V410.75H746.25V423.25H758.75V417H760V423.25C760 423.581 759.868 423.899 759.633 424.133C759.399 424.368 759.081 424.5 758.75 424.5Z" fill="white"/>
<path d="M725.022 463.168C726.772 463.168 727.934 462.314 728.634 460.858L727.136 459.976C726.814 460.858 726.128 461.53 725.022 461.53C723.65 461.53 722.768 460.578 722.768 458.898V457.358C722.768 455.692 723.65 454.698 725.022 454.698C726.114 454.698 726.73 455.286 727.01 456.154L728.592 455.314C727.906 453.802 726.772 453.06 725.022 453.06C722.446 453.06 720.808 454.894 720.808 458.184C720.808 461.474 722.446 463.168 725.022 463.168ZM733.156 463.168C735.256 463.168 736.558 461.684 736.558 459.332C736.558 456.994 735.256 455.524 733.156 455.524C731.07 455.524 729.768 456.994 729.768 459.332C729.768 461.684 731.07 463.168 733.156 463.168ZM733.156 461.726C732.232 461.726 731.644 461.124 731.644 460.018V458.66C731.644 457.568 732.232 456.966 733.156 456.966C734.094 456.966 734.682 457.568 734.682 458.66V460.018C734.682 461.124 734.094 461.726 733.156 461.726ZM740.099 463V458.17C740.099 457.386 740.813 456.994 741.555 456.994C742.409 456.994 742.759 457.526 742.759 458.562V463H744.551V458.38C744.551 456.56 743.711 455.524 742.213 455.524C741.079 455.524 740.463 456.126 740.169 456.91H740.099V455.692H738.307V463H740.099ZM748.979 463H750.267V461.572H748.881V457.12H750.379V455.692H748.881V453.69H747.271V454.936C747.271 455.44 747.103 455.692 746.571 455.692H746.011V457.12H747.089V461.138C747.089 462.328 747.747 463 748.979 463ZM753.9 463.168C754.992 463.168 755.79 462.678 756.028 461.74H756.112C756.224 462.496 756.7 463 757.47 463H758.464V461.572H757.736V458.128C757.736 456.462 756.686 455.524 754.712 455.524C753.242 455.524 752.388 456.084 751.856 456.924L752.92 457.876C753.27 457.372 753.746 456.952 754.586 456.952C755.538 456.952 755.944 457.428 755.944 458.24V458.772H754.698C752.71 458.772 751.576 459.514 751.576 461.012C751.576 462.314 752.416 463.168 753.9 463.168ZM754.502 461.866C753.802 461.866 753.396 461.572 753.396 460.984V460.746C753.396 460.172 753.858 459.85 754.796 459.85H755.944V460.816C755.944 461.502 755.3 461.866 754.502 461.866ZM760.97 454.628C761.698 454.628 762.02 454.25 762.02 453.732V453.452C762.02 452.934 761.698 452.556 760.97 452.556C760.228 452.556 759.92 452.934 759.92 453.452V453.732C759.92 454.25 760.228 454.628 760.97 454.628ZM760.074 463H761.866V455.692H760.074V463ZM765.895 463V458.17C765.895 457.386 766.609 456.994 767.351 456.994C768.205 456.994 768.555 457.526 768.555 458.562V463H770.347V458.38C770.347 456.56 769.507 455.524 768.009 455.524C766.875 455.524 766.259 456.126 765.965 456.91H765.895V455.692H764.103V463H765.895ZM775.448 463.168C776.806 463.168 777.87 462.65 778.472 461.824L777.506 460.746C777.058 461.32 776.526 461.74 775.644 461.74C774.468 461.74 773.866 461.026 773.866 459.976V459.794H778.724V459.206C778.724 457.204 777.674 455.524 775.392 455.524C773.25 455.524 772.004 457.022 772.004 459.332C772.004 461.67 773.292 463.168 775.448 463.168ZM775.42 456.868C776.344 456.868 776.862 457.554 776.862 458.562V458.688H773.866V458.576C773.866 457.568 774.482 456.868 775.42 456.868ZM782.252 463V458.52C782.252 457.722 782.882 457.386 784.086 457.386H784.646V455.692H784.254C783.092 455.692 782.504 456.434 782.322 457.204H782.252V455.692H780.46V463H782.252Z" fill="black"/>
<path fill-rule="evenodd" clip-rule="evenodd" d="M367.5 369V409.781C367.5 413.492 370.508 416.5 374.219 416.5H428V414.113L433 417L428 419.887V417.5H374.219C369.956 417.5 366.5 414.044 366.5 409.781V369H367.5Z" fill="#8F8B8B"/>
<path fill-rule="evenodd" clip-rule="evenodd" d="M696.5 504V420.61C696.5 418.892 697.892 417.5 699.61 417.5H724V419.887L729 417L724 414.113V416.5H699.61C697.34 416.5 695.5 418.34 695.5 420.61V504H696.5Z" fill="#8F8B8B"/>
<path fill-rule="evenodd" clip-rule="evenodd" d="M323 297.5L359 297.5C363.142 297.5 366.5 300.858 366.5 305L366.5 401L367.5 401L367.5 305C367.5 300.306 363.694 296.5 359 296.5L323 296.5L323 297.5Z" fill="#8F8B8B"/>
<path fill-rule="evenodd" clip-rule="evenodd" d="M468 417.5L504 417.5C508.142 417.5 511.5 420.858 511.5 425L511.5 503L512.5 503L512.5 425C512.5 420.306 508.694 416.5 504 416.5L468 416.5L468 417.5Z" fill="#8F8B8B"/>
<path fill-rule="evenodd" clip-rule="evenodd" d="M572 414.113L577 417L572 419.887V417.5H497V416.5H572V414.113Z" fill="#8F8B8B"/>
<rect width="63" height="74" transform="translate(424 393)" fill="white" style="mix-blend-mode:multiply"/>
<rect x="432" y="393.5" width="47" height="47" fill="#EDF5FF"/>
<path d="M432.5 394H478.5V440H432.5V394Z" fill="white"/>
<path d="M432.5 394H478.5V440H432.5V394Z" fill="#EDF5FF"/>
<rect width="20" height="20" transform="translate(445.5 407)" fill="white" style="mix-blend-mode:multiply"/>
<path d="M461.125 413.875C460.405 413.876 459.707 414.125 459.15 414.581C458.592 415.036 458.208 415.67 458.063 416.375H452.937C452.782 415.616 452.351 414.942 451.727 414.483C451.103 414.024 450.331 413.813 449.561 413.891C448.79 413.969 448.076 414.33 447.557 414.904C447.038 415.479 446.75 416.226 446.75 417C446.75 417.774 447.038 418.521 447.557 419.096C448.076 419.67 448.79 420.031 449.561 420.109C450.331 420.187 451.103 419.976 451.727 419.517C452.351 419.058 452.782 418.384 452.937 417.625H458.063C458.181 418.204 458.462 418.738 458.871 419.165C459.281 419.591 459.803 419.893 460.377 420.034C460.951 420.176 461.554 420.151 462.115 419.964C462.676 419.777 463.172 419.434 463.546 418.976C463.92 418.518 464.156 417.964 464.227 417.377C464.299 416.79 464.202 416.195 463.948 415.66C463.695 415.126 463.295 414.675 462.795 414.359C462.296 414.043 461.716 413.875 461.125 413.875ZM461.125 418.875C460.754 418.875 460.392 418.765 460.083 418.559C459.775 418.353 459.535 418.06 459.393 417.718C459.251 417.375 459.214 416.998 459.286 416.634C459.358 416.27 459.537 415.936 459.799 415.674C460.061 415.412 460.396 415.233 460.759 415.161C461.123 415.089 461.5 415.126 461.843 415.268C462.185 415.41 462.478 415.65 462.684 415.958C462.89 416.267 463 416.629 463 417C463 417.497 462.802 417.974 462.45 418.325C462.099 418.677 461.622 418.874 461.125 418.875Z" fill="black"/>
<rect x="432" y="393.5" width="47" height="47" stroke="#0F62FE"/>
<path d="M431.217 463H433.247V453.228H431.497V460.27H431.455L430.447 458.24L427.507 453.228H425.477V463H427.227V455.958H427.269L428.277 457.988L431.217 463ZM438.485 463.168C440.585 463.168 441.887 461.684 441.887 459.332C441.887 456.994 440.585 455.524 438.485 455.524C436.399 455.524 435.097 456.994 435.097 459.332C435.097 461.684 436.399 463.168 438.485 463.168ZM438.485 461.726C437.561 461.726 436.973 461.124 436.973 460.018V458.66C436.973 457.568 437.561 456.966 438.485 456.966C439.423 456.966 440.011 457.568 440.011 458.66V460.018C440.011 461.124 439.423 461.726 438.485 461.726ZM448.172 463H449.964V452.64H448.172V456.896H448.102C447.85 456.056 447.052 455.524 446.086 455.524C444.252 455.524 443.23 456.896 443.23 459.332C443.23 461.782 444.252 463.168 446.086 463.168C447.052 463.168 447.836 462.608 448.102 461.782H448.172V463ZM446.66 461.684C445.736 461.684 445.106 461.012 445.106 459.976V458.716C445.106 457.68 445.736 456.994 446.66 456.994C447.514 456.994 448.172 457.456 448.172 458.17V460.494C448.172 461.25 447.514 461.684 446.66 461.684ZM455.144 463.168C456.502 463.168 457.566 462.65 458.168 461.824L457.202 460.746C456.754 461.32 456.222 461.74 455.34 461.74C454.164 461.74 453.562 461.026 453.562 459.976V459.794H458.42V459.206C458.42 457.204 457.37 455.524 455.088 455.524C452.946 455.524 451.7 457.022 451.7 459.332C451.7 461.67 452.988 463.168 455.144 463.168ZM455.116 456.868C456.04 456.868 456.558 457.554 456.558 458.562V458.688H453.562V458.576C453.562 457.568 454.178 456.868 455.116 456.868ZM460.157 465.8H461.949V461.782H462.005C462.285 462.608 463.055 463.168 464.021 463.168C465.869 463.168 466.891 461.782 466.891 459.332C466.891 456.896 465.869 455.524 464.021 455.524C463.055 455.524 462.271 456.056 462.005 456.896H461.949V455.692H460.157V465.8ZM463.447 461.684C462.593 461.684 461.949 461.25 461.949 460.494V458.17C461.949 457.456 462.593 456.994 463.447 456.994C464.371 456.994 465.015 457.68 465.015 458.716V459.976C465.015 461.012 464.371 461.684 463.447 461.684ZM471.61 463.168C473.71 463.168 475.012 461.684 475.012 459.332C475.012 456.994 473.71 455.524 471.61 455.524C469.524 455.524 468.222 456.994 468.222 459.332C468.222 461.684 469.524 463.168 471.61 463.168ZM471.61 461.726C470.686 461.726 470.098 461.124 470.098 460.018V458.66C470.098 457.568 470.686 456.966 471.61 456.966C472.548 456.966 473.136 457.568 473.136 458.66V460.018C473.136 461.124 472.548 461.726 471.61 461.726ZM478.552 463V458.52C478.552 457.722 479.182 457.386 480.386 457.386H480.946V455.692H480.554C479.392 455.692 478.804 456.434 478.622 457.204H478.552V455.692H476.76V463H478.552ZM484.753 463H486.041V461.572H484.655V457.12H486.153V455.692H484.655V453.69H483.045V454.936C483.045 455.44 482.877 455.692 482.345 455.692H481.785V457.12H482.863V461.138C482.863 462.328 483.521 463 484.753 463Z" fill="black"/>
<path fill-rule="evenodd" clip-rule="evenodd" d="M512.5 504L512.5 483L511.5 483L511.5 504C511.5 508.694 515.306 512.5 520 512.5L688 512.5C692.694 512.5 696.5 508.694 696.5 504L696.5 503.496L695.5 503.496L695.5 504C695.5 508.142 692.142 511.5 688 511.5L520 511.5C515.858 511.5 512.5 508.142 512.5 504Z" fill="#8F8B8B"/>
<rect x="832.5" y="329.5" width="135" height="167" fill="white"/>
<rect x="833" y="330" width="134" height="166" fill="white"/>
<g clip-path="url(#clip5_1219_55646)">
<path d="M852.732 358L853.978 352.834L854.608 350.258H854.636L855.238 352.834L856.484 358H858.57L860.908 348.228H859.144L858.15 352.918L857.534 355.914H857.492L856.806 352.918L855.686 348.228H853.642L852.522 352.918L851.822 355.914H851.78L851.178 352.918L850.212 348.228H848.364L850.632 358H852.732ZM865.069 358.168C867.169 358.168 868.471 356.684 868.471 354.332C868.471 351.994 867.169 350.524 865.069 350.524C862.983 350.524 861.681 351.994 861.681 354.332C861.681 356.684 862.983 358.168 865.069 358.168ZM865.069 356.726C864.145 356.726 863.557 356.124 863.557 355.018V353.66C863.557 352.568 864.145 351.966 865.069 351.966C866.007 351.966 866.595 352.568 866.595 353.66V355.018C866.595 356.124 866.007 356.726 865.069 356.726ZM872.011 358V353.52C872.011 352.722 872.641 352.386 873.845 352.386H874.405V350.692H874.013C872.851 350.692 872.263 351.434 872.081 352.204H872.011V350.692H870.219V358H872.011ZM875.875 358H877.667V355.774L878.633 354.724L880.509 358H882.637L879.851 353.52L882.371 350.692H880.341L878.703 352.568L877.737 353.884H877.667V347.64H875.875V358ZM886.509 358.168C887.867 358.168 888.931 357.65 889.533 356.824L888.567 355.746C888.119 356.32 887.587 356.74 886.705 356.74C885.529 356.74 884.927 356.026 884.927 354.976V354.794H889.785V354.206C889.785 352.204 888.735 350.524 886.453 350.524C884.311 350.524 883.065 352.022 883.065 354.332C883.065 356.67 884.353 358.168 886.509 358.168ZM886.481 351.868C887.405 351.868 887.923 352.554 887.923 353.562V353.688H884.927V353.576C884.927 352.568 885.543 351.868 886.481 351.868ZM893.314 358V353.52C893.314 352.722 893.944 352.386 895.148 352.386H895.708V350.692H895.316C894.154 350.692 893.566 351.434 893.384 352.204H893.314V350.692H891.522V358H893.314ZM902.438 358V353.17C902.438 352.386 903.152 351.994 903.894 351.994C904.748 351.994 905.098 352.526 905.098 353.562V358H906.89V353.38C906.89 351.56 906.05 350.524 904.552 350.524C903.418 350.524 902.802 351.126 902.508 351.91H902.438V350.692H900.646V358H902.438ZM911.935 358.168C914.035 358.168 915.337 356.684 915.337 354.332C915.337 351.994 914.035 350.524 911.935 350.524C909.849 350.524 908.547 351.994 908.547 354.332C908.547 356.684 909.849 358.168 911.935 358.168ZM911.935 356.726C911.011 356.726 910.423 356.124 910.423 355.018V353.66C910.423 352.568 911.011 351.966 911.935 351.966C912.873 351.966 913.461 352.568 913.461 353.66V355.018C913.461 356.124 912.873 356.726 911.935 356.726ZM921.621 358H923.413V347.64H921.621V351.896H921.551C921.299 351.056 920.501 350.524 919.535 350.524C917.701 350.524 916.679 351.896 916.679 354.332C916.679 356.782 917.701 358.168 919.535 358.168C920.501 358.168 921.285 357.608 921.551 356.782H921.621V358ZM920.109 356.684C919.185 356.684 918.555 356.012 918.555 354.976V353.716C918.555 352.68 919.185 351.994 920.109 351.994C920.963 351.994 921.621 352.456 921.621 353.17V355.494C921.621 356.25 920.963 356.684 920.109 356.684ZM928.594 358.168C929.952 358.168 931.016 357.65 931.618 356.824L930.652 355.746C930.204 356.32 929.672 356.74 928.79 356.74C927.614 356.74 927.012 356.026 927.012 354.976V354.794H931.87V354.206C931.87 352.204 930.82 350.524 928.538 350.524C926.396 350.524 925.15 352.022 925.15 354.332C925.15 356.67 926.438 358.168 928.594 358.168ZM928.566 351.868C929.49 351.868 930.008 352.554 930.008 353.562V353.688H927.012V353.576C927.012 352.568 927.628 351.868 928.566 351.868ZM938.741 352.176V353.716H939.707C940.869 353.716 941.527 354.192 941.527 355.088V355.186C941.527 356.096 940.925 356.656 939.847 356.656C938.755 356.656 938.167 356.096 937.733 355.312L936.375 356.348C936.991 357.3 937.943 358.168 939.847 358.168C942.003 358.168 943.445 357.02 943.445 355.298C943.445 353.912 942.535 353.128 941.401 352.918V352.834C942.423 352.624 943.277 351.868 943.277 350.608C943.277 349.04 941.933 348.06 939.959 348.06C938.307 348.06 937.383 348.774 936.725 349.684L937.901 350.748C938.377 350.006 939.049 349.572 939.903 349.572C940.785 349.572 941.345 350.062 941.345 350.86V350.958C941.345 351.658 940.827 352.176 939.707 352.176H938.741Z" fill="black"/>
<line x1="834" y1="329" x2="834" y2="377" stroke="#6F6F6F" stroke-width="4"/>
</g>
<rect x="832.5" y="329.5" width="135" height="167" stroke="#6F6F6F"/>
<rect width="48" height="48" transform="translate(880.5 393)" fill="#6F6F6F"/>
<rect width="20" height="20" transform="translate(894.5 407)" fill="white" style="mix-blend-mode:multiply"/>
<path d="M912 414.5H907V409.5H912V414.5ZM908.25 413.25H910.75V410.75H908.25V413.25Z" fill="white"/>
<path d="M905.125 416.375V412.625H900.125V421.375H908.875V416.375H905.125ZM901.375 413.875H903.875V416.375H901.375V413.875ZM903.875 420.125H901.375V417.625H903.875V420.125ZM907.625 420.125H905.125V417.625H907.625V420.125Z" fill="white"/>
<path d="M910.75 424.5H898.25C897.919 424.5 897.601 424.368 897.367 424.133C897.132 423.899 897 423.581 897 423.25V410.75C897 410.419 897.132 410.101 897.367 409.867C897.601 409.632 897.919 409.5 898.25 409.5H904.5V410.75H898.25V423.25H910.75V417H912V423.25C912 423.581 911.868 423.899 911.633 424.133C911.399 424.368 911.081 424.5 910.75 424.5Z" fill="white"/>
<path d="M877.022 463.168C878.772 463.168 879.934 462.314 880.634 460.858L879.136 459.976C878.814 460.858 878.128 461.53 877.022 461.53C875.65 461.53 874.768 460.578 874.768 458.898V457.358C874.768 455.692 875.65 454.698 877.022 454.698C878.114 454.698 878.73 455.286 879.01 456.154L880.592 455.314C879.906 453.802 878.772 453.06 877.022 453.06C874.446 453.06 872.808 454.894 872.808 458.184C872.808 461.474 874.446 463.168 877.022 463.168ZM885.156 463.168C887.256 463.168 888.558 461.684 888.558 459.332C888.558 456.994 887.256 455.524 885.156 455.524C883.07 455.524 881.768 456.994 881.768 459.332C881.768 461.684 883.07 463.168 885.156 463.168ZM885.156 461.726C884.232 461.726 883.644 461.124 883.644 460.018V458.66C883.644 457.568 884.232 456.966 885.156 456.966C886.094 456.966 886.682 457.568 886.682 458.66V460.018C886.682 461.124 886.094 461.726 885.156 461.726ZM892.099 463V458.17C892.099 457.386 892.813 456.994 893.555 456.994C894.409 456.994 894.759 457.526 894.759 458.562V463H896.551V458.38C896.551 456.56 895.711 455.524 894.213 455.524C893.079 455.524 892.463 456.126 892.169 456.91H892.099V455.692H890.307V463H892.099ZM900.979 463H902.267V461.572H900.881V457.12H902.379V455.692H900.881V453.69H899.271V454.936C899.271 455.44 899.103 455.692 898.571 455.692H898.011V457.12H899.089V461.138C899.089 462.328 899.747 463 900.979 463ZM905.9 463.168C906.992 463.168 907.79 462.678 908.028 461.74H908.112C908.224 462.496 908.7 463 909.47 463H910.464V461.572H909.736V458.128C909.736 456.462 908.686 455.524 906.712 455.524C905.242 455.524 904.388 456.084 903.856 456.924L904.92 457.876C905.27 457.372 905.746 456.952 906.586 456.952C907.538 456.952 907.944 457.428 907.944 458.24V458.772H906.698C904.71 458.772 903.576 459.514 903.576 461.012C903.576 462.314 904.416 463.168 905.9 463.168ZM906.502 461.866C905.802 461.866 905.396 461.572 905.396 460.984V460.746C905.396 460.172 905.858 459.85 906.796 459.85H907.944V460.816C907.944 461.502 907.3 461.866 906.502 461.866ZM912.97 454.628C913.698 454.628 914.02 454.25 914.02 453.732V453.452C914.02 452.934 913.698 452.556 912.97 452.556C912.228 452.556 911.92 452.934 911.92 453.452V453.732C911.92 454.25 912.228 454.628 912.97 454.628ZM912.074 463H913.866V455.692H912.074V463ZM917.895 463V458.17C917.895 457.386 918.609 456.994 919.351 456.994C920.205 456.994 920.555 457.526 920.555 458.562V463H922.347V458.38C922.347 456.56 921.507 455.524 920.009 455.524C918.875 455.524 918.259 456.126 917.965 456.91H917.895V455.692H916.103V463H917.895ZM927.448 463.168C928.806 463.168 929.87 462.65 930.472 461.824L929.506 460.746C929.058 461.32 928.526 461.74 927.644 461.74C926.468 461.74 925.866 461.026 925.866 459.976V459.794H930.724V459.206C930.724 457.204 929.674 455.524 927.392 455.524C925.25 455.524 924.004 457.022 924.004 459.332C924.004 461.67 925.292 463.168 927.448 463.168ZM927.42 456.868C928.344 456.868 928.862 457.554 928.862 458.562V458.688H925.866V458.576C925.866 457.568 926.482 456.868 927.42 456.868ZM934.252 463V458.52C934.252 457.722 934.882 457.386 936.086 457.386H936.646V455.692H936.254C935.092 455.692 934.504 456.434 934.322 457.204H934.252V455.692H932.46V463H934.252Z" fill="black"/>
<path fill-rule="evenodd" clip-rule="evenodd" d="M848.5 473V420.5C848.5 418.843 849.843 417.5 851.5 417.5H875V419.887L880 417L875 414.113V416.5H851.5C849.291 416.5 847.5 418.291 847.5 420.5V473H848.5Z" fill="#8F8B8B"/>
<path fill-rule="evenodd" clip-rule="evenodd" d="M840 511.5L521 511.5L521 512.5L840 512.5C844.694 512.5 848.5 508.694 848.5 504L848.5 473L847.5 473L847.5 504C847.5 508.142 844.142 511.5 840 511.5Z" fill="#8F8B8B"/>
<rect width="91" height="110" transform="translate(266 273)" fill="white" style="mix-blend-mode:multiply"/>
<rect x="288" y="273.5" width="47" height="47" fill="#D9FBFB"/>
<path d="M288.5 274H334.5V320H288.5V274Z" fill="white"/>
<path d="M288.5 274H334.5V320H288.5V274Z" fill="#D9FBFB"/>
<rect width="20" height="20" transform="translate(301.5 287)" fill="white" style="mix-blend-mode:multiply"/>
<path d="M306.5 305.75H302.75V302H306.5V305.75ZM304 304.5H305.25V303.25H304V304.5Z" fill="#161616"/>
<path d="M313.375 305.75H309.625V302H313.375V305.75ZM310.875 304.5H312.125V303.25H310.875V304.5Z" fill="#161616"/>
<path d="M320.25 305.75H316.5V302H320.25V305.75ZM317.75 304.5H319V303.25H317.75V304.5Z" fill="#161616"/>
<path d="M311.5 293.25C311.006 293.25 310.522 293.103 310.111 292.829C309.7 292.554 309.38 292.164 309.19 291.707C309.001 291.25 308.952 290.747 309.048 290.262C309.144 289.777 309.383 289.332 309.732 288.982C310.082 288.633 310.527 288.395 311.012 288.298C311.497 288.202 312 288.251 312.457 288.44C312.914 288.63 313.304 288.95 313.579 289.361C313.853 289.772 314 290.256 314 290.75C313.999 291.413 313.736 292.048 313.267 292.517C312.798 292.986 312.163 293.249 311.5 293.25ZM311.5 289.5C311.253 289.5 311.011 289.573 310.806 289.711C310.6 289.848 310.44 290.043 310.345 290.272C310.251 290.5 310.226 290.751 310.274 290.994C310.322 291.236 310.441 291.459 310.616 291.634C310.791 291.809 311.014 291.928 311.256 291.976C311.499 292.024 311.75 291.999 311.978 291.905C312.207 291.81 312.402 291.65 312.539 291.444C312.677 291.239 312.75 290.997 312.75 290.75C312.75 290.419 312.618 290.101 312.384 289.866C312.149 289.632 311.831 289.5 311.5 289.5Z" fill="#161616"/>
<path d="M317.75 297H314.625C313.962 296.999 313.327 296.736 312.858 296.267C312.389 295.798 312.126 295.163 312.125 294.5H310.875C310.874 295.163 310.611 295.798 310.142 296.267C309.673 296.736 309.038 296.999 308.375 297H305.25C304.919 297 304.601 297.132 304.367 297.367C304.132 297.601 304 297.919 304 298.25V300.75H305.25V298.25H308.375C309.299 298.25 310.19 297.907 310.875 297.288V300.75H312.125V297.288C312.81 297.907 313.701 298.25 314.625 298.25H317.75V300.75H319V298.25C319 297.919 318.868 297.601 318.633 297.367C318.399 297.132 318.081 297 317.75 297Z" fill="#161616"/>
<rect x="288" y="273.5" width="47" height="47" stroke="#009D9A"/>
<path d="M290.058 343H292.088V333.228H290.338V340.27H290.296L289.288 338.24L286.348 333.228H284.318V343H286.068V335.958H286.11L287.118 337.988L290.058 343ZM297.383 343.168C298.741 343.168 299.805 342.65 300.407 341.824L299.441 340.746C298.993 341.32 298.461 341.74 297.579 341.74C296.403 341.74 295.801 341.026 295.801 339.976V339.794H300.659V339.206C300.659 337.204 299.609 335.524 297.327 335.524C295.185 335.524 293.939 337.022 293.939 339.332C293.939 341.67 295.227 343.168 297.383 343.168ZM297.355 336.868C298.279 336.868 298.797 337.554 298.797 338.562V338.688H295.801V338.576C295.801 337.568 296.417 336.868 297.355 336.868ZM304.678 343H305.966V341.572H304.58V337.12H306.078V335.692H304.58V333.69H302.97V334.936C302.97 335.44 302.802 335.692 302.27 335.692H301.71V337.12H302.788V341.138C302.788 342.328 303.446 343 304.678 343ZM309.094 343H310.998L311.922 339.78L312.454 337.792H312.496L313.042 339.78L313.98 343H315.912L317.914 335.692H316.248L315.52 338.702L314.946 341.208H314.89L314.204 338.702L313.322 335.692H311.698L310.844 338.702L310.172 341.208H310.116L309.542 338.702L308.8 335.692H307.078L309.094 343ZM322.198 343.168C324.298 343.168 325.6 341.684 325.6 339.332C325.6 336.994 324.298 335.524 322.198 335.524C320.112 335.524 318.81 336.994 318.81 339.332C318.81 341.684 320.112 343.168 322.198 343.168ZM322.198 341.726C321.274 341.726 320.686 341.124 320.686 340.018V338.66C320.686 337.568 321.274 336.966 322.198 336.966C323.136 336.966 323.724 337.568 323.724 338.66V340.018C323.724 341.124 323.136 341.726 322.198 341.726ZM329.14 343V338.52C329.14 337.722 329.77 337.386 330.974 337.386H331.534V335.692H331.142C329.98 335.692 329.392 336.434 329.21 337.204H329.14V335.692H327.348V343H329.14ZM333.004 343H334.796V340.774L335.762 339.724L337.638 343H339.766L336.98 338.52L339.5 335.692H337.47L335.832 337.568L334.866 338.884H334.796V332.64H333.004V343ZM272.991 361V359.362H269.141V351.228H267.293V361H272.991ZM277.403 361.168C279.503 361.168 280.805 359.684 280.805 357.332C280.805 354.994 279.503 353.524 277.403 353.524C275.317 353.524 274.015 354.994 274.015 357.332C274.015 359.684 275.317 361.168 277.403 361.168ZM277.403 359.726C276.479 359.726 275.891 359.124 275.891 358.018V356.66C275.891 355.568 276.479 354.966 277.403 354.966C278.341 354.966 278.929 355.568 278.929 356.66V358.018C278.929 359.124 278.341 359.726 277.403 359.726ZM284.36 361.168C285.452 361.168 286.25 360.678 286.488 359.74H286.572C286.684 360.496 287.16 361 287.93 361H288.924V359.572H288.196V356.128C288.196 354.462 287.146 353.524 285.172 353.524C283.702 353.524 282.848 354.084 282.316 354.924L283.38 355.876C283.73 355.372 284.206 354.952 285.046 354.952C285.998 354.952 286.404 355.428 286.404 356.24V356.772H285.158C283.17 356.772 282.036 357.514 282.036 359.012C282.036 360.314 282.876 361.168 284.36 361.168ZM284.962 359.866C284.262 359.866 283.856 359.572 283.856 358.984V358.746C283.856 358.172 284.318 357.85 285.256 357.85H286.404V358.816C286.404 359.502 285.76 359.866 284.962 359.866ZM295.07 361H296.862V350.64H295.07V354.896H295C294.748 354.056 293.95 353.524 292.984 353.524C291.15 353.524 290.128 354.896 290.128 357.332C290.128 359.782 291.15 361.168 292.984 361.168C293.95 361.168 294.734 360.608 295 359.782H295.07V361ZM293.558 359.684C292.634 359.684 292.004 359.012 292.004 357.976V356.716C292.004 355.68 292.634 354.994 293.558 354.994C294.412 354.994 295.07 355.456 295.07 356.17V358.494C295.07 359.25 294.412 359.684 293.558 359.684ZM299.201 361H304.157C305.599 361 306.677 359.768 306.677 358.2C306.677 356.534 305.417 355.932 304.563 355.918V355.834C305.459 355.778 306.313 355.218 306.313 353.734C306.313 352.222 305.333 351.228 303.723 351.228H299.201V361ZM301.049 356.814H303.625C304.325 356.814 304.745 357.206 304.745 357.892V358.368C304.745 359.054 304.325 359.432 303.625 359.432H301.049V356.814ZM301.049 352.796H303.331C304.003 352.796 304.395 353.174 304.395 353.832V354.266C304.395 354.91 304.003 355.302 303.331 355.302H301.049V352.796ZM310.338 361.168C311.43 361.168 312.228 360.678 312.466 359.74H312.55C312.662 360.496 313.138 361 313.908 361H314.902V359.572H314.174V356.128C314.174 354.462 313.124 353.524 311.15 353.524C309.68 353.524 308.826 354.084 308.294 354.924L309.358 355.876C309.708 355.372 310.184 354.952 311.024 354.952C311.976 354.952 312.382 355.428 312.382 356.24V356.772H311.136C309.148 356.772 308.014 357.514 308.014 359.012C308.014 360.314 308.854 361.168 310.338 361.168ZM310.94 359.866C310.24 359.866 309.834 359.572 309.834 358.984V358.746C309.834 358.172 310.296 357.85 311.234 357.85H312.382V358.816C312.382 359.502 311.738 359.866 310.94 359.866ZM319.27 361V359.572H318.304V350.64H316.512V359.236C316.512 360.356 317.086 361 318.304 361H319.27ZM322.594 361.168C323.686 361.168 324.484 360.678 324.722 359.74H324.806C324.918 360.496 325.394 361 326.164 361H327.158V359.572H326.43V356.128C326.43 354.462 325.38 353.524 323.406 353.524C321.936 353.524 321.082 354.084 320.55 354.924L321.614 355.876C321.964 355.372 322.44 354.952 323.28 354.952C324.232 354.952 324.638 355.428 324.638 356.24V356.772H323.392C321.404 356.772 320.27 357.514 320.27 359.012C320.27 360.314 321.11 361.168 322.594 361.168ZM323.196 359.866C322.496 359.866 322.09 359.572 322.09 358.984V358.746C322.09 358.172 322.552 357.85 323.49 357.85H324.638V358.816C324.638 359.502 323.994 359.866 323.196 359.866ZM330.56 361V356.17C330.56 355.386 331.274 354.994 332.016 354.994C332.87 354.994 333.22 355.526 333.22 356.562V361H335.012V356.38C335.012 354.56 334.172 353.524 332.674 353.524C331.54 353.524 330.924 354.126 330.63 354.91H330.56V353.692H328.768V361H330.56ZM340.042 361.168C341.456 361.168 342.478 360.524 342.954 359.236L341.582 358.578C341.316 359.236 340.896 359.726 340.042 359.726C339.048 359.726 338.544 359.04 338.544 358.018V356.688C338.544 355.666 339.048 354.966 340.042 354.966C340.812 354.966 341.274 355.414 341.442 356.03L342.912 355.372C342.478 354.224 341.512 353.524 340.042 353.524C337.886 353.524 336.668 354.994 336.668 357.332C336.668 359.684 337.886 361.168 340.042 361.168ZM347.382 361.168C348.74 361.168 349.804 360.65 350.406 359.824L349.44 358.746C348.992 359.32 348.46 359.74 347.578 359.74C346.402 359.74 345.8 359.026 345.8 357.976V357.794H350.658V357.206C350.658 355.204 349.608 353.524 347.326 353.524C345.184 353.524 343.938 355.022 343.938 357.332C343.938 359.67 345.226 361.168 347.382 361.168ZM347.354 354.868C348.278 354.868 348.796 355.554 348.796 356.562V356.688H345.8V356.576C345.8 355.568 346.416 354.868 347.354 354.868ZM354.187 361V356.52C354.187 355.722 354.817 355.386 356.021 355.386H356.581V353.692H356.189C355.027 353.692 354.439 354.434 354.257 355.204H354.187V353.692H352.395V361H354.187ZM274.841 374.632C274.841 377.362 275.933 379.756 277.305 380.932H278.999C277.501 379.574 276.521 377.488 276.521 375.164V374.128C276.521 371.86 277.487 369.76 278.999 368.36H277.305C275.905 369.578 274.841 371.93 274.841 374.632ZM283.204 379.168C285.542 379.168 286.872 377.908 286.872 376.06C286.872 374.45 285.948 373.568 283.974 373.218L283.064 373.05C282.126 372.882 281.706 372.574 281.706 371.832C281.706 371.104 282.252 370.684 283.302 370.684C284.338 370.684 285.01 371.09 285.486 371.692L286.746 370.502C285.962 369.564 284.87 369.06 283.4 369.06C281.216 369.06 279.858 370.194 279.858 371.944C279.858 373.54 280.81 374.478 282.784 374.786L283.708 374.926C284.73 375.108 285.038 375.514 285.038 376.172C285.038 376.998 284.45 377.544 283.316 377.544C282.308 377.544 281.482 377.124 280.81 376.34L279.564 377.544C280.39 378.51 281.538 379.168 283.204 379.168ZM289.669 370.628C290.397 370.628 290.719 370.25 290.719 369.732V369.452C290.719 368.934 290.397 368.556 289.669 368.556C288.927 368.556 288.619 368.934 288.619 369.452V369.732C288.619 370.25 288.927 370.628 289.669 370.628ZM288.773 379H290.565V371.692H288.773V379ZM294.594 379V374.17C294.594 373.386 295.308 372.994 296.05 372.994C296.904 372.994 297.254 373.526 297.254 374.562V379H299.046V374.38C299.046 372.56 298.206 371.524 296.708 371.524C295.574 371.524 294.958 372.126 294.664 372.91H294.594V371.692H292.802V379H294.594ZM307.786 379.616C307.786 378.3 307.016 377.53 305.224 377.53H303.264C302.62 377.53 302.312 377.348 302.312 376.984C302.312 376.662 302.55 376.452 302.83 376.326C303.152 376.41 303.53 376.452 303.95 376.452C305.938 376.452 306.974 375.472 306.974 374.002C306.974 373.106 306.596 372.392 305.84 371.972V371.776H307.394V370.404H306.26C305.588 370.404 305.224 370.754 305.224 371.468V371.706C304.86 371.58 304.398 371.524 303.95 371.524C301.976 371.524 300.926 372.518 300.926 374.002C300.926 374.968 301.374 375.724 302.256 376.13V376.186C301.556 376.34 300.912 376.718 300.912 377.474C300.912 378.062 301.248 378.538 301.85 378.692V378.846C301.038 378.972 300.548 379.434 300.548 380.246C300.548 381.324 301.486 381.968 303.95 381.968C306.75 381.968 307.786 381.142 307.786 379.616ZM306.106 379.826C306.106 380.442 305.588 380.736 304.426 380.736H303.53C302.41 380.736 301.99 380.4 301.99 379.84C301.99 379.546 302.102 379.28 302.368 379.084H304.86C305.77 379.084 306.106 379.364 306.106 379.826ZM303.95 375.234C303.096 375.234 302.634 374.842 302.634 374.114V373.876C302.634 373.134 303.096 372.756 303.95 372.756C304.804 372.756 305.266 373.134 305.266 373.876V374.114C305.266 374.842 304.804 375.234 303.95 375.234ZM311.739 379V377.572H310.773V368.64H308.981V377.236C308.981 378.356 309.555 379 310.773 379H311.739ZM316.211 379.168C317.569 379.168 318.633 378.65 319.235 377.824L318.269 376.746C317.821 377.32 317.289 377.74 316.407 377.74C315.231 377.74 314.629 377.026 314.629 375.976V375.794H319.487V375.206C319.487 373.204 318.437 371.524 316.155 371.524C314.013 371.524 312.767 373.022 312.767 375.332C312.767 377.67 314.055 379.168 316.211 379.168ZM316.183 372.868C317.107 372.868 317.625 373.554 317.625 374.562V374.688H314.629V374.576C314.629 373.568 315.245 372.868 316.183 372.868ZM325.14 375.626V373.848H321.136V375.626H325.14ZM335.012 379L331.764 369.228H329.468L326.192 379H328.068L328.838 376.508H332.31L333.094 379H335.012ZM331.862 374.926H329.286L330.532 370.908H330.602L331.862 374.926ZM343.318 377.362H338.11L343.178 370.88V369.228H336.248V370.866H341.05L335.996 377.348V379H343.318V377.362ZM348.16 374.632C348.16 371.93 347.096 369.578 345.696 368.36H344.002C345.514 369.76 346.48 371.86 346.48 374.128V375.164C346.48 377.488 345.5 379.574 344.002 380.932H345.696C347.068 379.756 348.16 377.362 348.16 374.632Z" fill="black"/>
<defs>
<clipPath id="clip0_1219_55646">
<rect width="89" height="48" fill="white" transform="translate(223 97)"/>
</clipPath>
<clipPath id="clip1_1219_55646">
<rect width="104" height="48" fill="white" transform="translate(391 208)"/>
</clipPath>
<clipPath id="clip2_1219_55646">
<rect width="578" height="48" fill="white" transform="translate(407 273)"/>
</clipPath>
<clipPath id="clip3_1219_55646">
<rect width="137" height="48" fill="white" transform="translate(528 329)"/>
</clipPath>
<clipPath id="clip4_1219_55646">
<rect width="135" height="48" fill="white" transform="translate(681 329)"/>
</clipPath>
<clipPath id="clip5_1219_55646">
<rect width="136" height="48" fill="white" transform="translate(832 329)"/>
</clipPath>
</defs>
</svg>
