<svg width="1080" height="608" viewBox="0 0 1080 608" fill="none" xmlns="http://www.w3.org/2000/svg">
<rect width="1080" height="608" fill="#F4F4F4"/>
<rect x="192.5" y="96.5" width="841" height="407" fill="white"/>
<path d="M196 96H192V144H196V96Z" fill="#6F6F6F"/>
<path d="M217.516 125L220.708 115.228H218.874L217.376 119.988L216.522 123.236H216.48L215.612 119.988L214.114 115.228H212.224L215.416 125H217.516ZM223.02 116.628C223.748 116.628 224.07 116.25 224.07 115.732V115.452C224.07 114.934 223.748 114.556 223.02 114.556C222.278 114.556 221.97 114.934 221.97 115.452V115.732C221.97 116.25 222.278 116.628 223.02 116.628ZM222.124 125H223.916V117.692H222.124V125ZM227.945 125V120.52C227.945 119.722 228.575 119.386 229.779 119.386H230.339V117.692H229.947C228.785 117.692 228.197 118.434 228.015 119.204H227.945V117.692H226.153V125H227.945ZM234.146 125H235.434V123.572H234.048V119.12H235.546V117.692H234.048V115.69H232.438V116.936C232.438 117.44 232.27 117.692 231.738 117.692H231.178V119.12H232.256V123.138C232.256 124.328 232.914 125 234.146 125ZM241.628 125H243.42V117.692H241.628V122.522C241.628 123.306 240.914 123.684 240.2 123.684C239.346 123.684 238.968 123.138 238.968 122.13V117.692H237.176V122.312C237.176 124.132 238.016 125.168 239.514 125.168C240.718 125.168 241.306 124.51 241.558 123.782H241.628V125ZM247.456 125.168C248.548 125.168 249.346 124.678 249.584 123.74H249.668C249.78 124.496 250.256 125 251.026 125H252.02V123.572H251.292V120.128C251.292 118.462 250.242 117.524 248.268 117.524C246.798 117.524 245.944 118.084 245.412 118.924L246.476 119.876C246.826 119.372 247.302 118.952 248.142 118.952C249.094 118.952 249.5 119.428 249.5 120.24V120.772H248.254C246.266 120.772 245.132 121.514 245.132 123.012C245.132 124.314 245.972 125.168 247.456 125.168ZM248.058 123.866C247.358 123.866 246.952 123.572 246.952 122.984V122.746C246.952 122.172 247.414 121.85 248.352 121.85H249.5V122.816C249.5 123.502 248.856 123.866 248.058 123.866ZM256.389 125V123.572H255.423V114.64H253.631V123.236C253.631 124.356 254.205 125 255.423 125H256.389ZM263.335 125V121.276H265.883C267.689 121.276 268.781 120.072 268.781 118.252C268.781 116.446 267.689 115.228 265.883 115.228H261.487V125H263.335ZM263.335 116.838H265.715C266.429 116.838 266.863 117.216 266.863 117.93V118.574C266.863 119.288 266.429 119.68 265.715 119.68H263.335V116.838ZM272.159 125V120.52C272.159 119.722 272.789 119.386 273.993 119.386H274.553V117.692H274.161C272.999 117.692 272.411 118.434 272.229 119.204H272.159V117.692H270.367V125H272.159ZM276.919 116.628C277.647 116.628 277.969 116.25 277.969 115.732V115.452C277.969 114.934 277.647 114.556 276.919 114.556C276.177 114.556 275.869 114.934 275.869 115.452V115.732C275.869 116.25 276.177 116.628 276.919 116.628ZM276.023 125H277.815V117.692H276.023V125ZM283.748 125L286.198 117.692H284.49L283.496 120.842L282.782 123.446H282.684L281.97 120.842L280.948 117.692H279.184L281.62 125H283.748ZM289.237 125.168C290.329 125.168 291.127 124.678 291.365 123.74H291.449C291.561 124.496 292.037 125 292.807 125H293.801V123.572H293.073V120.128C293.073 118.462 292.023 117.524 290.049 117.524C288.579 117.524 287.725 118.084 287.193 118.924L288.257 119.876C288.607 119.372 289.083 118.952 289.923 118.952C290.875 118.952 291.281 119.428 291.281 120.24V120.772H290.035C288.047 120.772 286.913 121.514 286.913 123.012C286.913 124.314 287.753 125.168 289.237 125.168ZM289.839 123.866C289.139 123.866 288.733 123.572 288.733 122.984V122.746C288.733 122.172 289.195 121.85 290.133 121.85H291.281V122.816C291.281 123.502 290.637 123.866 289.839 123.866ZM297.638 125H298.926V123.572H297.54V119.12H299.038V117.692H297.54V115.69H295.93V116.936C295.93 117.44 295.762 117.692 295.23 117.692H294.67V119.12H295.748V123.138C295.748 124.328 296.406 125 297.638 125ZM303.652 125.168C305.01 125.168 306.074 124.65 306.676 123.824L305.71 122.746C305.262 123.32 304.73 123.74 303.848 123.74C302.672 123.74 302.07 123.026 302.07 121.976V121.794H306.928V121.206C306.928 119.204 305.878 117.524 303.596 117.524C301.454 117.524 300.208 119.022 300.208 121.332C300.208 123.67 301.496 125.168 303.652 125.168ZM303.624 118.868C304.548 118.868 305.066 119.554 305.066 120.562V120.688H302.07V120.576C302.07 119.568 302.686 118.868 303.624 118.868ZM316.039 125.168C317.789 125.168 318.951 124.314 319.651 122.858L318.153 121.976C317.831 122.858 317.145 123.53 316.039 123.53C314.667 123.53 313.785 122.578 313.785 120.898V119.358C313.785 117.692 314.667 116.698 316.039 116.698C317.131 116.698 317.747 117.286 318.027 118.154L319.609 117.314C318.923 115.802 317.789 115.06 316.039 115.06C313.463 115.06 311.825 116.894 311.825 120.184C311.825 123.474 313.463 125.168 316.039 125.168ZM324.034 125V123.572H323.068V114.64H321.276V123.236C321.276 124.356 321.85 125 323.068 125H324.034ZM328.449 125.168C330.549 125.168 331.851 123.684 331.851 121.332C331.851 118.994 330.549 117.524 328.449 117.524C326.363 117.524 325.061 118.994 325.061 121.332C325.061 123.684 326.363 125.168 328.449 125.168ZM328.449 123.726C327.525 123.726 326.937 123.124 326.937 122.018V120.66C326.937 119.568 327.525 118.966 328.449 118.966C329.387 118.966 329.975 119.568 329.975 120.66V122.018C329.975 123.124 329.387 123.726 328.449 123.726ZM337.967 125H339.759V117.692H337.967V122.522C337.967 123.306 337.253 123.684 336.539 123.684C335.685 123.684 335.307 123.138 335.307 122.13V117.692H333.515V122.312C333.515 124.132 334.355 125.168 335.853 125.168C337.057 125.168 337.645 124.51 337.897 123.782H337.967V125ZM346.526 125H348.318V114.64H346.526V118.896H346.456C346.204 118.056 345.406 117.524 344.44 117.524C342.606 117.524 341.584 118.896 341.584 121.332C341.584 123.782 342.606 125.168 344.44 125.168C345.406 125.168 346.19 124.608 346.456 123.782H346.526V125ZM345.014 123.684C344.09 123.684 343.46 123.012 343.46 121.976V120.716C343.46 119.68 344.09 118.994 345.014 118.994C345.868 118.994 346.526 119.456 346.526 120.17V122.494C346.526 123.25 345.868 123.684 345.014 123.684ZM353.677 120.632C353.677 123.362 354.769 125.756 356.141 126.932H357.835C356.337 125.574 355.357 123.488 355.357 121.164V120.128C355.357 117.86 356.323 115.76 357.835 114.36H356.141C354.741 115.578 353.677 117.93 353.677 120.632ZM363.643 125L366.835 115.228H365.001L363.503 119.988L362.649 123.236H362.607L361.739 119.988L360.241 115.228H358.351L361.543 125H363.643ZM370.211 125V121.276H372.759C374.565 121.276 375.657 120.072 375.657 118.252C375.657 116.446 374.565 115.228 372.759 115.228H368.363V125H370.211ZM370.211 116.838H372.591C373.305 116.838 373.739 117.216 373.739 117.93V118.574C373.739 119.288 373.305 119.68 372.591 119.68H370.211V116.838ZM381.286 125.168C383.036 125.168 384.198 124.314 384.898 122.858L383.4 121.976C383.078 122.858 382.392 123.53 381.286 123.53C379.914 123.53 379.032 122.578 379.032 120.898V119.358C379.032 117.692 379.914 116.698 381.286 116.698C382.378 116.698 382.994 117.286 383.274 118.154L384.856 117.314C384.17 115.802 383.036 115.06 381.286 115.06C378.71 115.06 377.072 116.894 377.072 120.184C377.072 123.474 378.71 125.168 381.286 125.168ZM389.504 120.632C389.504 117.93 388.44 115.578 387.04 114.36H385.346C386.858 115.76 387.824 117.86 387.824 120.128V121.164C387.824 123.488 386.844 125.574 385.346 126.932H387.04C388.412 125.756 389.504 123.362 389.504 120.632Z" fill="black"/>
<rect x="192.5" y="96.5" width="841" height="407" stroke="#6F6F6F"/>
<path d="M443.5 152.5H707C711.142 152.5 714.5 155.858 714.5 160V480C714.5 484.142 711.142 487.5 707 487.5H451C446.858 487.5 443.5 484.142 443.5 480V152.5Z" fill="#F4F4F4"/>
<g clip-path="url(#clip0_1230_54307)">
<path d="M466.854 170.362H461.646L466.714 163.88V162.228H459.784V163.866H464.586L459.532 170.348V172H466.854V170.362ZM471.407 172.168C473.507 172.168 474.809 170.684 474.809 168.332C474.809 165.994 473.507 164.524 471.407 164.524C469.32 164.524 468.018 165.994 468.018 168.332C468.018 170.684 469.32 172.168 471.407 172.168ZM471.407 170.726C470.482 170.726 469.894 170.124 469.894 169.018V167.66C469.894 166.568 470.482 165.966 471.407 165.966C472.345 165.966 472.933 166.568 472.933 167.66V169.018C472.933 170.124 472.345 170.726 471.407 170.726ZM478.349 172V167.17C478.349 166.386 479.063 165.994 479.805 165.994C480.659 165.994 481.009 166.526 481.009 167.562V172H482.801V167.38C482.801 165.56 481.961 164.524 480.463 164.524C479.329 164.524 478.713 165.126 478.419 165.91H478.349V164.692H476.557V172H478.349ZM487.902 172.168C489.26 172.168 490.324 171.65 490.926 170.824L489.96 169.746C489.512 170.32 488.98 170.74 488.098 170.74C486.922 170.74 486.32 170.026 486.32 168.976V168.794H491.178V168.206C491.178 166.204 490.128 164.524 487.846 164.524C485.704 164.524 484.458 166.022 484.458 168.332C484.458 170.67 485.746 172.168 487.902 172.168ZM487.874 165.868C488.798 165.868 489.316 166.554 489.316 167.562V167.688H486.32V167.576C486.32 166.568 486.936 165.868 487.874 165.868Z" fill="black"/>
<path d="M464.642 190H465.762V182.776H464.642V187.774C464.642 188.726 463.774 189.16 462.892 189.16C461.814 189.16 461.24 188.502 461.24 187.214V182.776H460.12V187.41C460.12 189.16 461.072 190.168 462.556 190.168C463.76 190.168 464.306 189.51 464.586 188.824H464.642V190ZM470.477 190.168C472.129 190.168 473.151 189.314 473.151 187.914C473.151 186.822 472.535 186.122 470.939 185.884L470.379 185.8C469.483 185.66 468.993 185.38 468.993 184.68C468.993 183.994 469.483 183.56 470.407 183.56C471.331 183.56 471.947 183.994 472.269 184.442L473.011 183.77C472.423 183.042 471.653 182.608 470.491 182.608C469.021 182.608 467.915 183.308 467.915 184.736C467.915 186.08 468.909 186.626 470.239 186.822L470.813 186.906C471.765 187.046 472.073 187.48 472.073 188.04C472.073 188.782 471.513 189.216 470.561 189.216C469.651 189.216 468.979 188.81 468.419 188.11L467.621 188.754C468.265 189.608 469.147 190.168 470.477 190.168ZM478.583 186.346V185.142H474.929V186.346H478.583ZM483.074 190.168C484.726 190.168 485.748 189.314 485.748 187.914C485.748 186.822 485.132 186.122 483.536 185.884L482.976 185.8C482.08 185.66 481.59 185.38 481.59 184.68C481.59 183.994 482.08 183.56 483.004 183.56C483.928 183.56 484.544 183.994 484.866 184.442L485.608 183.77C485.02 183.042 484.25 182.608 483.088 182.608C481.618 182.608 480.512 183.308 480.512 184.736C480.512 186.08 481.506 186.626 482.836 186.822L483.41 186.906C484.362 187.046 484.67 187.48 484.67 188.04C484.67 188.782 484.11 189.216 483.158 189.216C482.248 189.216 481.576 188.81 481.016 188.11L480.218 188.754C480.862 189.608 481.744 190.168 483.074 190.168ZM490.617 190.168C492.549 190.168 493.879 188.684 493.879 186.388C493.879 184.092 492.549 182.608 490.617 182.608C488.685 182.608 487.355 184.092 487.355 186.388C487.355 188.684 488.685 190.168 490.617 190.168ZM490.617 189.174C489.413 189.174 488.559 188.432 488.559 186.906V185.87C488.559 184.344 489.413 183.602 490.617 183.602C491.821 183.602 492.675 184.344 492.675 185.87V186.906C492.675 188.432 491.821 189.174 490.617 189.174ZM500.333 190H501.453V182.776H500.333V187.774C500.333 188.726 499.465 189.16 498.583 189.16C497.505 189.16 496.931 188.502 496.931 187.214V182.776H495.811V187.41C495.811 189.16 496.763 190.168 498.247 190.168C499.451 190.168 499.997 189.51 500.277 188.824H500.333V190ZM506.994 190V189.02H505.524V183.756H507.106V182.776H505.524V180.774H504.516V182.118C504.516 182.608 504.362 182.776 503.886 182.776H503.214V183.756H504.404V188.81C504.404 189.51 504.824 190 505.594 190H506.994ZM509.066 190H510.186V184.988C510.186 184.064 511.054 183.616 511.95 183.616C513.028 183.616 513.588 184.274 513.588 185.562V190H514.708V185.366C514.708 183.616 513.77 182.608 512.286 182.608C511.208 182.608 510.592 183.14 510.242 183.952H510.186V179.64H509.066V190ZM520.613 186.346V185.142H516.959V186.346H520.613ZM529.403 190V188.964H526.883V180.228H525.049L522.459 182.65L523.145 183.392L525.609 181.096H525.707V188.964H522.977V190H529.403Z" fill="black"/>
<line x1="445" y1="152" x2="445" y2="200" stroke="#8D8D8D" stroke-width="4"/>
</g>
<path d="M443.5 152.5H707C711.142 152.5 714.5 155.858 714.5 160V480C714.5 484.142 711.142 487.5 707 487.5H451C446.858 487.5 443.5 484.142 443.5 480V152.5Z" stroke="#8D8D8D"/>
<path d="M746.5 152.5H1011C1015.14 152.5 1018.5 155.858 1018.5 160V480C1018.5 484.142 1015.14 487.5 1011 487.5H754C749.858 487.5 746.5 484.142 746.5 480V152.5Z" fill="#F4F4F4"/>
<g clip-path="url(#clip1_1230_54307)">
<path d="M769.854 170.362H764.646L769.714 163.88V162.228H762.784V163.866H767.586L762.532 170.348V172H769.854V170.362ZM774.407 172.168C776.507 172.168 777.809 170.684 777.809 168.332C777.809 165.994 776.507 164.524 774.407 164.524C772.32 164.524 771.018 165.994 771.018 168.332C771.018 170.684 772.32 172.168 774.407 172.168ZM774.407 170.726C773.482 170.726 772.894 170.124 772.894 169.018V167.66C772.894 166.568 773.482 165.966 774.407 165.966C775.345 165.966 775.933 166.568 775.933 167.66V169.018C775.933 170.124 775.345 170.726 774.407 170.726ZM781.349 172V167.17C781.349 166.386 782.063 165.994 782.805 165.994C783.659 165.994 784.009 166.526 784.009 167.562V172H785.801V167.38C785.801 165.56 784.961 164.524 783.463 164.524C782.329 164.524 781.713 165.126 781.419 165.91H781.349V164.692H779.557V172H781.349ZM790.902 172.168C792.26 172.168 793.324 171.65 793.926 170.824L792.96 169.746C792.512 170.32 791.98 170.74 791.098 170.74C789.922 170.74 789.32 170.026 789.32 168.976V168.794H794.178V168.206C794.178 166.204 793.128 164.524 790.846 164.524C788.704 164.524 787.458 166.022 787.458 168.332C787.458 170.67 788.746 172.168 790.902 172.168ZM790.874 165.868C791.798 165.868 792.316 166.554 792.316 167.562V167.688H789.32V167.576C789.32 166.568 789.936 165.868 790.874 165.868Z" fill="black"/>
<path d="M767.642 190H768.762V182.776H767.642V187.774C767.642 188.726 766.774 189.16 765.892 189.16C764.814 189.16 764.24 188.502 764.24 187.214V182.776H763.12V187.41C763.12 189.16 764.072 190.168 765.556 190.168C766.76 190.168 767.306 189.51 767.586 188.824H767.642V190ZM773.477 190.168C775.129 190.168 776.151 189.314 776.151 187.914C776.151 186.822 775.535 186.122 773.939 185.884L773.379 185.8C772.483 185.66 771.993 185.38 771.993 184.68C771.993 183.994 772.483 183.56 773.407 183.56C774.331 183.56 774.947 183.994 775.269 184.442L776.011 183.77C775.423 183.042 774.653 182.608 773.491 182.608C772.021 182.608 770.915 183.308 770.915 184.736C770.915 186.08 771.909 186.626 773.239 186.822L773.813 186.906C774.765 187.046 775.073 187.48 775.073 188.04C775.073 188.782 774.513 189.216 773.561 189.216C772.651 189.216 771.979 188.81 771.419 188.11L770.621 188.754C771.265 189.608 772.147 190.168 773.477 190.168ZM781.583 186.346V185.142H777.929V186.346H781.583ZM786.074 190.168C787.726 190.168 788.748 189.314 788.748 187.914C788.748 186.822 788.132 186.122 786.536 185.884L785.976 185.8C785.08 185.66 784.59 185.38 784.59 184.68C784.59 183.994 785.08 183.56 786.004 183.56C786.928 183.56 787.544 183.994 787.866 184.442L788.608 183.77C788.02 183.042 787.25 182.608 786.088 182.608C784.618 182.608 783.512 183.308 783.512 184.736C783.512 186.08 784.506 186.626 785.836 186.822L786.41 186.906C787.362 187.046 787.67 187.48 787.67 188.04C787.67 188.782 787.11 189.216 786.158 189.216C785.248 189.216 784.576 188.81 784.016 188.11L783.218 188.754C783.862 189.608 784.744 190.168 786.074 190.168ZM793.617 190.168C795.549 190.168 796.879 188.684 796.879 186.388C796.879 184.092 795.549 182.608 793.617 182.608C791.685 182.608 790.355 184.092 790.355 186.388C790.355 188.684 791.685 190.168 793.617 190.168ZM793.617 189.174C792.413 189.174 791.559 188.432 791.559 186.906V185.87C791.559 184.344 792.413 183.602 793.617 183.602C794.821 183.602 795.675 184.344 795.675 185.87V186.906C795.675 188.432 794.821 189.174 793.617 189.174ZM803.333 190H804.453V182.776H803.333V187.774C803.333 188.726 802.465 189.16 801.583 189.16C800.505 189.16 799.931 188.502 799.931 187.214V182.776H798.811V187.41C798.811 189.16 799.763 190.168 801.247 190.168C802.451 190.168 802.997 189.51 803.277 188.824H803.333V190ZM809.994 190V189.02H808.524V183.756H810.106V182.776H808.524V180.774H807.516V182.118C807.516 182.608 807.362 182.776 806.886 182.776H806.214V183.756H807.404V188.81C807.404 189.51 807.824 190 808.594 190H809.994ZM812.066 190H813.186V184.988C813.186 184.064 814.054 183.616 814.95 183.616C816.028 183.616 816.588 184.274 816.588 185.562V190H817.708V185.366C817.708 183.616 816.77 182.608 815.286 182.608C814.208 182.608 813.592 183.14 813.242 183.952H813.186V179.64H812.066V190ZM823.613 186.346V185.142H819.959V186.346H823.613ZM832.207 188.964H827.069L829.701 186.598C830.947 185.478 831.843 184.414 831.843 182.902C831.843 181.236 830.751 180.06 828.847 180.06C826.957 180.06 826.089 181.208 825.711 182.356L826.761 182.762C827.027 181.838 827.587 181.11 828.791 181.11C829.995 181.11 830.597 181.852 830.597 182.93V183.098C830.597 184.036 829.897 185.016 828.987 185.856L825.795 188.796V190H832.207V188.964Z" fill="black"/>
<line x1="748" y1="152" x2="748" y2="200" stroke="#8D8D8D" stroke-width="4"/>
</g>
<path d="M746.5 152.5H1011C1015.14 152.5 1018.5 155.858 1018.5 160V480C1018.5 484.142 1015.14 487.5 1011 487.5H754C749.858 487.5 746.5 484.142 746.5 480V152.5Z" stroke="#8D8D8D"/>
<path fill-rule="evenodd" clip-rule="evenodd" d="M323.156 241.52L142 241.52L142 240.48L323.156 240.48L323.156 238L329 241L323.156 244L323.156 241.52Z" fill="#8F8B8B"/>
<circle cx="121" cy="241" r="24" fill="#161616"/>
<rect width="20" height="20" transform="translate(111 231)" fill="white" style="mix-blend-mode:multiply"/>
<path d="M121 233.5C121.618 233.5 122.222 233.683 122.736 234.027C123.25 234.37 123.651 234.858 123.887 235.429C124.124 236 124.186 236.628 124.065 237.235C123.944 237.841 123.647 238.398 123.21 238.835C122.773 239.272 122.216 239.569 121.61 239.69C121.003 239.811 120.375 239.749 119.804 239.512C119.233 239.276 118.745 238.875 118.402 238.361C118.058 237.847 117.875 237.243 117.875 236.625C117.875 235.796 118.204 235.001 118.79 234.415C119.376 233.829 120.171 233.5 121 233.5ZM121 232.25C120.135 232.25 119.289 232.507 118.569 232.987C117.85 233.468 117.289 234.151 116.958 234.951C116.627 235.75 116.54 236.63 116.709 237.479C116.878 238.327 117.295 239.107 117.906 239.719C118.518 240.33 119.298 240.747 120.146 240.916C120.995 241.085 121.875 240.998 122.674 240.667C123.474 240.336 124.157 239.775 124.638 239.056C125.118 238.336 125.375 237.49 125.375 236.625C125.375 235.465 124.914 234.352 124.094 233.531C123.273 232.711 122.16 232.25 121 232.25Z" fill="white"/>
<path d="M127.25 249.75H126V246.625C126 246.215 125.919 245.808 125.762 245.429C125.605 245.05 125.375 244.705 125.085 244.415C124.795 244.125 124.45 243.895 124.071 243.738C123.692 243.581 123.285 243.5 122.875 243.5H119.125C118.296 243.5 117.501 243.829 116.915 244.415C116.329 245.001 116 245.796 116 246.625V249.75H114.75V246.625C114.75 245.465 115.211 244.352 116.031 243.531C116.852 242.711 117.965 242.25 119.125 242.25H122.875C124.035 242.25 125.148 242.711 125.969 243.531C126.789 244.352 127.25 245.465 127.25 246.625V249.75Z" fill="white"/>
<path d="M106.86 277.228V282.996C106.86 285.866 107.854 287.168 110.598 287.168C113.342 287.168 114.364 285.866 114.364 282.996V277.228H112.544V283.234C112.544 284.76 112.012 285.53 110.612 285.53C109.212 285.53 108.68 284.76 108.68 283.234V277.228H106.86ZM119.038 287.168C120.858 287.168 122.048 286.188 122.048 284.774C122.048 283.556 121.278 282.842 119.682 282.618L118.94 282.52C118.254 282.408 117.988 282.184 117.988 281.694C117.988 281.246 118.324 280.938 119.094 280.938C119.808 280.938 120.424 281.274 120.844 281.722L121.894 280.672C121.194 279.944 120.466 279.524 119.038 279.524C117.372 279.524 116.266 280.42 116.266 281.834C116.266 283.164 117.134 283.85 118.702 284.046L119.43 284.144C120.074 284.228 120.326 284.494 120.326 284.914C120.326 285.432 119.962 285.754 119.108 285.754C118.282 285.754 117.638 285.376 117.106 284.76L116.014 285.824C116.742 286.664 117.652 287.168 119.038 287.168ZM126.745 287.168C128.103 287.168 129.167 286.65 129.769 285.824L128.803 284.746C128.355 285.32 127.823 285.74 126.941 285.74C125.765 285.74 125.163 285.026 125.163 283.976V283.794H130.021V283.206C130.021 281.204 128.971 279.524 126.689 279.524C124.547 279.524 123.301 281.022 123.301 283.332C123.301 285.67 124.589 287.168 126.745 287.168ZM126.717 280.868C127.641 280.868 128.159 281.554 128.159 282.562V282.688H125.163V282.576C125.163 281.568 125.779 280.868 126.717 280.868ZM133.549 287V282.52C133.549 281.722 134.179 281.386 135.383 281.386H135.943V279.692H135.551C134.389 279.692 133.801 280.434 133.619 281.204H133.549V279.692H131.757V287H133.549Z" fill="black"/>
<rect x="459.5" y="217.5" width="542" height="254" fill="white"/>
<path d="M463 217H459V265H463V217Z" fill="#6F6F6F"/>
<path d="M483.942 246.168C485.692 246.168 486.854 245.314 487.554 243.858L486.056 242.976C485.734 243.858 485.048 244.53 483.942 244.53C482.57 244.53 481.688 243.578 481.688 241.898V240.358C481.688 238.692 482.57 237.698 483.942 237.698C485.034 237.698 485.65 238.286 485.93 239.154L487.512 238.314C486.826 236.802 485.692 236.06 483.942 236.06C481.366 236.06 479.728 237.894 479.728 241.184C479.728 244.474 481.366 246.168 483.942 246.168ZM491.936 246V244.572H490.97V235.64H489.178V244.236C489.178 245.356 489.752 246 490.97 246H491.936ZM497.822 246H499.614V238.692H497.822V243.522C497.822 244.306 497.108 244.684 496.394 244.684C495.54 244.684 495.162 244.138 495.162 243.13V238.692H493.37V243.312C493.37 245.132 494.21 246.168 495.708 246.168C496.912 246.168 497.5 245.51 497.752 244.782H497.822V246ZM504.238 246.168C506.058 246.168 507.248 245.188 507.248 243.774C507.248 242.556 506.478 241.842 504.882 241.618L504.14 241.52C503.454 241.408 503.188 241.184 503.188 240.694C503.188 240.246 503.524 239.938 504.294 239.938C505.008 239.938 505.624 240.274 506.044 240.722L507.094 239.672C506.394 238.944 505.666 238.524 504.238 238.524C502.572 238.524 501.466 239.42 501.466 240.834C501.466 242.164 502.334 242.85 503.902 243.046L504.63 243.144C505.274 243.228 505.526 243.494 505.526 243.914C505.526 244.432 505.162 244.754 504.308 244.754C503.482 244.754 502.838 244.376 502.306 243.76L501.214 244.824C501.942 245.664 502.852 246.168 504.238 246.168ZM511.163 246H512.451V244.572H511.065V240.12H512.563V238.692H511.065V236.69H509.455V237.936C509.455 238.44 509.287 238.692 508.755 238.692H508.195V240.12H509.273V244.138C509.273 245.328 509.931 246 511.163 246ZM517.177 246.168C518.535 246.168 519.599 245.65 520.201 244.824L519.235 243.746C518.787 244.32 518.255 244.74 517.373 244.74C516.197 244.74 515.595 244.026 515.595 242.976V242.794H520.453V242.206C520.453 240.204 519.403 238.524 517.121 238.524C514.979 238.524 513.733 240.022 513.733 242.332C513.733 244.67 515.021 246.168 517.177 246.168ZM517.149 239.868C518.073 239.868 518.591 240.554 518.591 241.562V241.688H515.595V241.576C515.595 240.568 516.211 239.868 517.149 239.868ZM523.981 246V241.52C523.981 240.722 524.611 240.386 525.815 240.386H526.375V238.692H525.983C524.821 238.692 524.233 239.434 524.051 240.204H523.981V238.692H522.189V246H523.981Z" fill="black"/>
<rect x="459.5" y="217.5" width="542" height="254" stroke="#6F6F6F"/>
<rect x="570.5" y="273.5" width="135" height="167" fill="#F4F4F4"/>
<rect x="571" y="274" width="134" height="166" fill="#F4F4F4"/>
<g clip-path="url(#clip2_1230_54307)">
<path d="M590.732 302L591.978 296.834L592.608 294.258H592.636L593.238 296.834L594.484 302H596.57L598.908 292.228H597.144L596.15 296.918L595.534 299.914H595.492L594.806 296.918L593.686 292.228H591.642L590.522 296.918L589.822 299.914H589.78L589.178 296.918L588.212 292.228H586.364L588.632 302H590.732ZM603.069 302.168C605.169 302.168 606.471 300.684 606.471 298.332C606.471 295.994 605.169 294.524 603.069 294.524C600.983 294.524 599.681 295.994 599.681 298.332C599.681 300.684 600.983 302.168 603.069 302.168ZM603.069 300.726C602.145 300.726 601.557 300.124 601.557 299.018V297.66C601.557 296.568 602.145 295.966 603.069 295.966C604.007 295.966 604.595 296.568 604.595 297.66V299.018C604.595 300.124 604.007 300.726 603.069 300.726ZM610.011 302V297.52C610.011 296.722 610.641 296.386 611.845 296.386H612.405V294.692H612.013C610.851 294.692 610.263 295.434 610.081 296.204H610.011V294.692H608.219V302H610.011ZM613.875 302H615.667V299.774L616.633 298.724L618.509 302H620.637L617.851 297.52L620.371 294.692H618.341L616.703 296.568L615.737 297.884H615.667V291.64H613.875V302ZM624.509 302.168C625.867 302.168 626.931 301.65 627.533 300.824L626.567 299.746C626.119 300.32 625.587 300.74 624.705 300.74C623.529 300.74 622.927 300.026 622.927 298.976V298.794H627.785V298.206C627.785 296.204 626.735 294.524 624.453 294.524C622.311 294.524 621.065 296.022 621.065 298.332C621.065 300.67 622.353 302.168 624.509 302.168ZM624.481 295.868C625.405 295.868 625.923 296.554 625.923 297.562V297.688H622.927V297.576C622.927 296.568 623.543 295.868 624.481 295.868ZM631.314 302V297.52C631.314 296.722 631.944 296.386 633.148 296.386H633.708V294.692H633.316C632.154 294.692 631.566 295.434 631.384 296.204H631.314V294.692H629.522V302H631.314ZM640.438 302V297.17C640.438 296.386 641.152 295.994 641.894 295.994C642.748 295.994 643.098 296.526 643.098 297.562V302H644.89V297.38C644.89 295.56 644.05 294.524 642.552 294.524C641.418 294.524 640.802 295.126 640.508 295.91H640.438V294.692H638.646V302H640.438ZM649.935 302.168C652.035 302.168 653.337 300.684 653.337 298.332C653.337 295.994 652.035 294.524 649.935 294.524C647.849 294.524 646.547 295.994 646.547 298.332C646.547 300.684 647.849 302.168 649.935 302.168ZM649.935 300.726C649.011 300.726 648.423 300.124 648.423 299.018V297.66C648.423 296.568 649.011 295.966 649.935 295.966C650.873 295.966 651.461 296.568 651.461 297.66V299.018C651.461 300.124 650.873 300.726 649.935 300.726ZM659.621 302H661.413V291.64H659.621V295.896H659.551C659.299 295.056 658.501 294.524 657.535 294.524C655.701 294.524 654.679 295.896 654.679 298.332C654.679 300.782 655.701 302.168 657.535 302.168C658.501 302.168 659.285 301.608 659.551 300.782H659.621V302ZM658.109 300.684C657.185 300.684 656.555 300.012 656.555 298.976V297.716C656.555 296.68 657.185 295.994 658.109 295.994C658.963 295.994 659.621 296.456 659.621 297.17V299.494C659.621 300.25 658.963 300.684 658.109 300.684ZM666.594 302.168C667.952 302.168 669.016 301.65 669.618 300.824L668.652 299.746C668.204 300.32 667.672 300.74 666.79 300.74C665.614 300.74 665.012 300.026 665.012 298.976V298.794H669.87V298.206C669.87 296.204 668.82 294.524 666.538 294.524C664.396 294.524 663.15 296.022 663.15 298.332C663.15 300.67 664.438 302.168 666.594 302.168ZM666.566 295.868C667.49 295.868 668.008 296.554 668.008 297.562V297.688H665.012V297.576C665.012 296.568 665.628 295.868 666.566 295.868ZM682.047 302V300.502H679.807V292.228H677.021L674.599 295.112L675.747 296.078L677.875 293.558H678.001V300.502H675.313V302H682.047Z" fill="black"/>
<line x1="572" y1="273" x2="572" y2="321" stroke="#8D8D8D" stroke-width="4"/>
</g>
<rect x="570.5" y="273.5" width="135" height="167" stroke="#8D8D8D"/>
<rect x="843.5" y="273.5" width="134" height="166" fill="#F4F4F4"/>
<rect x="844" y="274" width="133" height="165" fill="#F4F4F4"/>
<g clip-path="url(#clip3_1230_54307)">
<path d="M863.732 302L864.978 296.834L865.608 294.258H865.636L866.238 296.834L867.484 302H869.57L871.908 292.228H870.144L869.15 296.918L868.534 299.914H868.492L867.806 296.918L866.686 292.228H864.642L863.522 296.918L862.822 299.914H862.78L862.178 296.918L861.212 292.228H859.364L861.632 302H863.732ZM876.069 302.168C878.169 302.168 879.471 300.684 879.471 298.332C879.471 295.994 878.169 294.524 876.069 294.524C873.983 294.524 872.681 295.994 872.681 298.332C872.681 300.684 873.983 302.168 876.069 302.168ZM876.069 300.726C875.145 300.726 874.557 300.124 874.557 299.018V297.66C874.557 296.568 875.145 295.966 876.069 295.966C877.007 295.966 877.595 296.568 877.595 297.66V299.018C877.595 300.124 877.007 300.726 876.069 300.726ZM883.011 302V297.52C883.011 296.722 883.641 296.386 884.845 296.386H885.405V294.692H885.013C883.851 294.692 883.263 295.434 883.081 296.204H883.011V294.692H881.219V302H883.011ZM886.875 302H888.667V299.774L889.633 298.724L891.509 302H893.637L890.851 297.52L893.371 294.692H891.341L889.703 296.568L888.737 297.884H888.667V291.64H886.875V302ZM897.509 302.168C898.867 302.168 899.931 301.65 900.533 300.824L899.567 299.746C899.119 300.32 898.587 300.74 897.705 300.74C896.529 300.74 895.927 300.026 895.927 298.976V298.794H900.785V298.206C900.785 296.204 899.735 294.524 897.453 294.524C895.311 294.524 894.065 296.022 894.065 298.332C894.065 300.67 895.353 302.168 897.509 302.168ZM897.481 295.868C898.405 295.868 898.923 296.554 898.923 297.562V297.688H895.927V297.576C895.927 296.568 896.543 295.868 897.481 295.868ZM904.314 302V297.52C904.314 296.722 904.944 296.386 906.148 296.386H906.708V294.692H906.316C905.154 294.692 904.566 295.434 904.384 296.204H904.314V294.692H902.522V302H904.314ZM913.438 302V297.17C913.438 296.386 914.152 295.994 914.894 295.994C915.748 295.994 916.098 296.526 916.098 297.562V302H917.89V297.38C917.89 295.56 917.05 294.524 915.552 294.524C914.418 294.524 913.802 295.126 913.508 295.91H913.438V294.692H911.646V302H913.438ZM922.935 302.168C925.035 302.168 926.337 300.684 926.337 298.332C926.337 295.994 925.035 294.524 922.935 294.524C920.849 294.524 919.547 295.994 919.547 298.332C919.547 300.684 920.849 302.168 922.935 302.168ZM922.935 300.726C922.011 300.726 921.423 300.124 921.423 299.018V297.66C921.423 296.568 922.011 295.966 922.935 295.966C923.873 295.966 924.461 296.568 924.461 297.66V299.018C924.461 300.124 923.873 300.726 922.935 300.726ZM932.621 302H934.413V291.64H932.621V295.896H932.551C932.299 295.056 931.501 294.524 930.535 294.524C928.701 294.524 927.679 295.896 927.679 298.332C927.679 300.782 928.701 302.168 930.535 302.168C931.501 302.168 932.285 301.608 932.551 300.782H932.621V302ZM931.109 300.684C930.185 300.684 929.555 300.012 929.555 298.976V297.716C929.555 296.68 930.185 295.994 931.109 295.994C931.963 295.994 932.621 296.456 932.621 297.17V299.494C932.621 300.25 931.963 300.684 931.109 300.684ZM939.594 302.168C940.952 302.168 942.016 301.65 942.618 300.824L941.652 299.746C941.204 300.32 940.672 300.74 939.79 300.74C938.614 300.74 938.012 300.026 938.012 298.976V298.794H942.87V298.206C942.87 296.204 941.82 294.524 939.538 294.524C937.396 294.524 936.15 296.022 936.15 298.332C936.15 300.67 937.438 302.168 939.594 302.168ZM939.566 295.868C940.49 295.868 941.008 296.554 941.008 297.562V297.688H938.012V297.576C938.012 296.568 938.628 295.868 939.566 295.868ZM954.683 300.446H949.909L951.967 298.752C953.325 297.632 954.431 296.596 954.431 294.972C954.431 293.292 953.255 292.06 951.197 292.06C949.209 292.06 948.159 293.194 947.739 294.496L949.335 295.112C949.559 294.314 950.035 293.656 951.043 293.656C951.841 293.656 952.485 294.132 952.485 294.986V295.168C952.485 296.022 952.009 296.694 950.973 297.604L947.907 300.292V302H954.683V300.446Z" fill="black"/>
<line x1="845" y1="273" x2="845" y2="321" stroke="#8D8D8D" stroke-width="4"/>
</g>
<rect x="843.5" y="273.5" width="134" height="166" stroke="#8D8D8D"/>
<rect width="48" height="48" transform="translate(610.5 337)" fill="#6F6F6F"/>
<rect width="20" height="20" transform="translate(624.5 351)" fill="white" style="mix-blend-mode:multiply"/>
<path d="M642 358.5H637V353.5H642V358.5ZM638.25 357.25H640.75V354.75H638.25V357.25Z" fill="white"/>
<path d="M635.125 360.375V356.625H630.125V365.375H638.875V360.375H635.125ZM631.375 357.875H633.875V360.375H631.375V357.875ZM633.875 364.125H631.375V361.625H633.875V364.125ZM637.625 364.125H635.125V361.625H637.625V364.125Z" fill="white"/>
<path d="M640.75 368.5H628.25C627.919 368.5 627.601 368.368 627.367 368.133C627.132 367.899 627 367.581 627 367.25V354.75C627 354.419 627.132 354.101 627.367 353.867C627.601 353.632 627.919 353.5 628.25 353.5H634.5V354.75H628.25V367.25H640.75V361H642V367.25C642 367.581 641.868 367.899 641.633 368.133C641.399 368.368 641.081 368.5 640.75 368.5Z" fill="white"/>
<path d="M607.022 407.168C608.772 407.168 609.934 406.314 610.634 404.858L609.136 403.976C608.814 404.858 608.128 405.53 607.022 405.53C605.65 405.53 604.768 404.578 604.768 402.898V401.358C604.768 399.692 605.65 398.698 607.022 398.698C608.114 398.698 608.73 399.286 609.01 400.154L610.592 399.314C609.906 397.802 608.772 397.06 607.022 397.06C604.446 397.06 602.808 398.894 602.808 402.184C602.808 405.474 604.446 407.168 607.022 407.168ZM615.156 407.168C617.256 407.168 618.558 405.684 618.558 403.332C618.558 400.994 617.256 399.524 615.156 399.524C613.07 399.524 611.768 400.994 611.768 403.332C611.768 405.684 613.07 407.168 615.156 407.168ZM615.156 405.726C614.232 405.726 613.644 405.124 613.644 404.018V402.66C613.644 401.568 614.232 400.966 615.156 400.966C616.094 400.966 616.682 401.568 616.682 402.66V404.018C616.682 405.124 616.094 405.726 615.156 405.726ZM622.099 407V402.17C622.099 401.386 622.813 400.994 623.555 400.994C624.409 400.994 624.759 401.526 624.759 402.562V407H626.551V402.38C626.551 400.56 625.711 399.524 624.213 399.524C623.079 399.524 622.463 400.126 622.169 400.91H622.099V399.692H620.307V407H622.099ZM630.979 407H632.267V405.572H630.881V401.12H632.379V399.692H630.881V397.69H629.271V398.936C629.271 399.44 629.103 399.692 628.571 399.692H628.011V401.12H629.089V405.138C629.089 406.328 629.747 407 630.979 407ZM635.9 407.168C636.992 407.168 637.79 406.678 638.028 405.74H638.112C638.224 406.496 638.7 407 639.47 407H640.464V405.572H639.736V402.128C639.736 400.462 638.686 399.524 636.712 399.524C635.242 399.524 634.388 400.084 633.856 400.924L634.92 401.876C635.27 401.372 635.746 400.952 636.586 400.952C637.538 400.952 637.944 401.428 637.944 402.24V402.772H636.698C634.71 402.772 633.576 403.514 633.576 405.012C633.576 406.314 634.416 407.168 635.9 407.168ZM636.502 405.866C635.802 405.866 635.396 405.572 635.396 404.984V404.746C635.396 404.172 635.858 403.85 636.796 403.85H637.944V404.816C637.944 405.502 637.3 405.866 636.502 405.866ZM642.97 398.628C643.698 398.628 644.02 398.25 644.02 397.732V397.452C644.02 396.934 643.698 396.556 642.97 396.556C642.228 396.556 641.92 396.934 641.92 397.452V397.732C641.92 398.25 642.228 398.628 642.97 398.628ZM642.074 407H643.866V399.692H642.074V407ZM647.895 407V402.17C647.895 401.386 648.609 400.994 649.351 400.994C650.205 400.994 650.555 401.526 650.555 402.562V407H652.347V402.38C652.347 400.56 651.507 399.524 650.009 399.524C648.875 399.524 648.259 400.126 647.965 400.91H647.895V399.692H646.103V407H647.895ZM657.448 407.168C658.806 407.168 659.87 406.65 660.472 405.824L659.506 404.746C659.058 405.32 658.526 405.74 657.644 405.74C656.468 405.74 655.866 405.026 655.866 403.976V403.794H660.724V403.206C660.724 401.204 659.674 399.524 657.392 399.524C655.25 399.524 654.004 401.022 654.004 403.332C654.004 405.67 655.292 407.168 657.448 407.168ZM657.42 400.868C658.344 400.868 658.862 401.554 658.862 402.562V402.688H655.866V402.576C655.866 401.568 656.482 400.868 657.42 400.868ZM664.252 407V402.52C664.252 401.722 664.882 401.386 666.086 401.386H666.646V399.692H666.254C665.092 399.692 664.504 400.434 664.322 401.204H664.252V399.692H662.46V407H664.252Z" fill="black"/>
<rect width="48" height="48" transform="translate(882.5 337)" fill="#6F6F6F"/>
<rect width="20" height="20" transform="translate(896.5 351)" fill="white" style="mix-blend-mode:multiply"/>
<path d="M914 358.5H909V353.5H914V358.5ZM910.25 357.25H912.75V354.75H910.25V357.25Z" fill="white"/>
<path d="M907.125 360.375V356.625H902.125V365.375H910.875V360.375H907.125ZM903.375 357.875H905.875V360.375H903.375V357.875ZM905.875 364.125H903.375V361.625H905.875V364.125ZM909.625 364.125H907.125V361.625H909.625V364.125Z" fill="white"/>
<path d="M912.75 368.5H900.25C899.919 368.5 899.601 368.368 899.367 368.133C899.132 367.899 899 367.581 899 367.25V354.75C899 354.419 899.132 354.101 899.367 353.867C899.601 353.632 899.919 353.5 900.25 353.5H906.5V354.75H900.25V367.25H912.75V361H914V367.25C914 367.581 913.868 367.899 913.633 368.133C913.399 368.368 913.081 368.5 912.75 368.5Z" fill="white"/>
<path d="M879.022 407.168C880.772 407.168 881.934 406.314 882.634 404.858L881.136 403.976C880.814 404.858 880.128 405.53 879.022 405.53C877.65 405.53 876.768 404.578 876.768 402.898V401.358C876.768 399.692 877.65 398.698 879.022 398.698C880.114 398.698 880.73 399.286 881.01 400.154L882.592 399.314C881.906 397.802 880.772 397.06 879.022 397.06C876.446 397.06 874.808 398.894 874.808 402.184C874.808 405.474 876.446 407.168 879.022 407.168ZM887.156 407.168C889.256 407.168 890.558 405.684 890.558 403.332C890.558 400.994 889.256 399.524 887.156 399.524C885.07 399.524 883.768 400.994 883.768 403.332C883.768 405.684 885.07 407.168 887.156 407.168ZM887.156 405.726C886.232 405.726 885.644 405.124 885.644 404.018V402.66C885.644 401.568 886.232 400.966 887.156 400.966C888.094 400.966 888.682 401.568 888.682 402.66V404.018C888.682 405.124 888.094 405.726 887.156 405.726ZM894.099 407V402.17C894.099 401.386 894.813 400.994 895.555 400.994C896.409 400.994 896.759 401.526 896.759 402.562V407H898.551V402.38C898.551 400.56 897.711 399.524 896.213 399.524C895.079 399.524 894.463 400.126 894.169 400.91H894.099V399.692H892.307V407H894.099ZM902.979 407H904.267V405.572H902.881V401.12H904.379V399.692H902.881V397.69H901.271V398.936C901.271 399.44 901.103 399.692 900.571 399.692H900.011V401.12H901.089V405.138C901.089 406.328 901.747 407 902.979 407ZM907.9 407.168C908.992 407.168 909.79 406.678 910.028 405.74H910.112C910.224 406.496 910.7 407 911.47 407H912.464V405.572H911.736V402.128C911.736 400.462 910.686 399.524 908.712 399.524C907.242 399.524 906.388 400.084 905.856 400.924L906.92 401.876C907.27 401.372 907.746 400.952 908.586 400.952C909.538 400.952 909.944 401.428 909.944 402.24V402.772H908.698C906.71 402.772 905.576 403.514 905.576 405.012C905.576 406.314 906.416 407.168 907.9 407.168ZM908.502 405.866C907.802 405.866 907.396 405.572 907.396 404.984V404.746C907.396 404.172 907.858 403.85 908.796 403.85H909.944V404.816C909.944 405.502 909.3 405.866 908.502 405.866ZM914.97 398.628C915.698 398.628 916.02 398.25 916.02 397.732V397.452C916.02 396.934 915.698 396.556 914.97 396.556C914.228 396.556 913.92 396.934 913.92 397.452V397.732C913.92 398.25 914.228 398.628 914.97 398.628ZM914.074 407H915.866V399.692H914.074V407ZM919.895 407V402.17C919.895 401.386 920.609 400.994 921.351 400.994C922.205 400.994 922.555 401.526 922.555 402.562V407H924.347V402.38C924.347 400.56 923.507 399.524 922.009 399.524C920.875 399.524 920.259 400.126 919.965 400.91H919.895V399.692H918.103V407H919.895ZM929.448 407.168C930.806 407.168 931.87 406.65 932.472 405.824L931.506 404.746C931.058 405.32 930.526 405.74 929.644 405.74C928.468 405.74 927.866 405.026 927.866 403.976V403.794H932.724V403.206C932.724 401.204 931.674 399.524 929.392 399.524C927.25 399.524 926.004 401.022 926.004 403.332C926.004 405.67 927.292 407.168 929.448 407.168ZM929.42 400.868C930.344 400.868 930.862 401.554 930.862 402.562V402.688H927.866V402.576C927.866 401.568 928.482 400.868 929.42 400.868ZM936.252 407V402.52C936.252 401.722 936.882 401.386 938.086 401.386H938.646V399.692H938.254C937.092 399.692 936.504 400.434 936.322 401.204H936.252V399.692H934.46V407H936.252Z" fill="black"/>
<path fill-rule="evenodd" clip-rule="evenodd" d="M418.5 313V353.015C418.5 357.149 421.851 360.5 425.985 360.5H486V358.113L491 361L486 363.887V361.5H425.985C421.299 361.5 417.5 357.701 417.5 353.015V313H418.5Z" fill="#8F8B8B"/>
<path fill-rule="evenodd" clip-rule="evenodd" d="M730.5 417V364.61C730.5 362.892 731.892 361.5 733.61 361.5H758V363.887L763 361L758 358.113V360.5H733.61C731.34 360.5 729.5 362.34 729.5 364.61V417H730.5Z" fill="#8F8B8B"/>
<path fill-rule="evenodd" clip-rule="evenodd" d="M374 241.5L410 241.5C414.142 241.5 417.5 244.858 417.5 249L417.5 345L418.5 345L418.5 249C418.5 244.306 414.694 240.5 410 240.5L374 240.5L374 241.5Z" fill="#8F8B8B"/>
<path fill-rule="evenodd" clip-rule="evenodd" d="M878 358.113L883 361L878 363.887V361.5H811V360.5H878V358.113Z" fill="#8F8B8B"/>
<path fill-rule="evenodd" clip-rule="evenodd" d="M606 358.113L611 361L606 363.887V361.5H539V360.5H606V358.113Z" fill="#8F8B8B"/>
<rect width="63" height="74" transform="translate(484 337)" fill="white" style="mix-blend-mode:multiply"/>
<rect x="492" y="337.5" width="47" height="47" fill="#EDF5FF"/>
<path d="M492.5 338H538.5V384H492.5V338Z" fill="white"/>
<path d="M492.5 338H538.5V384H492.5V338Z" fill="#EDF5FF"/>
<rect width="20" height="20" transform="translate(505.5 351)" fill="white" style="mix-blend-mode:multiply"/>
<path d="M521.125 357.875C520.405 357.876 519.707 358.125 519.15 358.581C518.592 359.036 518.208 359.67 518.063 360.375H512.937C512.782 359.616 512.351 358.942 511.727 358.483C511.103 358.024 510.331 357.813 509.561 357.891C508.79 357.969 508.076 358.33 507.557 358.904C507.038 359.479 506.75 360.226 506.75 361C506.75 361.774 507.038 362.521 507.557 363.096C508.076 363.67 508.79 364.031 509.561 364.109C510.331 364.187 511.103 363.976 511.727 363.517C512.351 363.058 512.782 362.384 512.937 361.625H518.063C518.181 362.204 518.462 362.738 518.871 363.165C519.281 363.591 519.803 363.893 520.377 364.034C520.951 364.176 521.554 364.151 522.115 363.964C522.676 363.777 523.172 363.434 523.546 362.976C523.92 362.518 524.156 361.964 524.227 361.377C524.299 360.79 524.202 360.195 523.948 359.66C523.695 359.126 523.295 358.675 522.795 358.359C522.296 358.043 521.716 357.875 521.125 357.875ZM521.125 362.875C520.754 362.875 520.392 362.765 520.083 362.559C519.775 362.353 519.535 362.06 519.393 361.718C519.251 361.375 519.214 360.998 519.286 360.634C519.358 360.27 519.537 359.936 519.799 359.674C520.061 359.412 520.396 359.233 520.759 359.161C521.123 359.089 521.5 359.126 521.843 359.268C522.185 359.41 522.478 359.65 522.684 359.958C522.89 360.267 523 360.629 523 361C523 361.497 522.802 361.974 522.45 362.325C522.099 362.677 521.622 362.874 521.125 362.875Z" fill="black"/>
<rect x="492" y="337.5" width="47" height="47" stroke="#0F62FE"/>
<path d="M491.217 407H493.247V397.228H491.497V404.27H491.455L490.447 402.24L487.507 397.228H485.477V407H487.227V399.958H487.269L488.277 401.988L491.217 407ZM498.485 407.168C500.585 407.168 501.887 405.684 501.887 403.332C501.887 400.994 500.585 399.524 498.485 399.524C496.399 399.524 495.097 400.994 495.097 403.332C495.097 405.684 496.399 407.168 498.485 407.168ZM498.485 405.726C497.561 405.726 496.973 405.124 496.973 404.018V402.66C496.973 401.568 497.561 400.966 498.485 400.966C499.423 400.966 500.011 401.568 500.011 402.66V404.018C500.011 405.124 499.423 405.726 498.485 405.726ZM508.172 407H509.964V396.64H508.172V400.896H508.102C507.85 400.056 507.052 399.524 506.086 399.524C504.252 399.524 503.23 400.896 503.23 403.332C503.23 405.782 504.252 407.168 506.086 407.168C507.052 407.168 507.836 406.608 508.102 405.782H508.172V407ZM506.66 405.684C505.736 405.684 505.106 405.012 505.106 403.976V402.716C505.106 401.68 505.736 400.994 506.66 400.994C507.514 400.994 508.172 401.456 508.172 402.17V404.494C508.172 405.25 507.514 405.684 506.66 405.684ZM515.144 407.168C516.502 407.168 517.566 406.65 518.168 405.824L517.202 404.746C516.754 405.32 516.222 405.74 515.34 405.74C514.164 405.74 513.562 405.026 513.562 403.976V403.794H518.42V403.206C518.42 401.204 517.37 399.524 515.088 399.524C512.946 399.524 511.7 401.022 511.7 403.332C511.7 405.67 512.988 407.168 515.144 407.168ZM515.116 400.868C516.04 400.868 516.558 401.554 516.558 402.562V402.688H513.562V402.576C513.562 401.568 514.178 400.868 515.116 400.868ZM520.157 409.8H521.949V405.782H522.005C522.285 406.608 523.055 407.168 524.021 407.168C525.869 407.168 526.891 405.782 526.891 403.332C526.891 400.896 525.869 399.524 524.021 399.524C523.055 399.524 522.271 400.056 522.005 400.896H521.949V399.692H520.157V409.8ZM523.447 405.684C522.593 405.684 521.949 405.25 521.949 404.494V402.17C521.949 401.456 522.593 400.994 523.447 400.994C524.371 400.994 525.015 401.68 525.015 402.716V403.976C525.015 405.012 524.371 405.684 523.447 405.684ZM531.61 407.168C533.71 407.168 535.012 405.684 535.012 403.332C535.012 400.994 533.71 399.524 531.61 399.524C529.524 399.524 528.222 400.994 528.222 403.332C528.222 405.684 529.524 407.168 531.61 407.168ZM531.61 405.726C530.686 405.726 530.098 405.124 530.098 404.018V402.66C530.098 401.568 530.686 400.966 531.61 400.966C532.548 400.966 533.136 401.568 533.136 402.66V404.018C533.136 405.124 532.548 405.726 531.61 405.726ZM538.552 407V402.52C538.552 401.722 539.182 401.386 540.386 401.386H540.946V399.692H540.554C539.392 399.692 538.804 400.434 538.622 401.204H538.552V399.692H536.76V407H538.552ZM544.753 407H546.041V405.572H544.655V401.12H546.153V399.692H544.655V397.69H543.045V398.936C543.045 399.44 542.877 399.692 542.345 399.692H541.785V401.12H542.863V405.138C542.863 406.328 543.521 407 544.753 407Z" fill="black"/>
<rect width="63" height="74" transform="translate(755 337)" fill="white" style="mix-blend-mode:multiply"/>
<rect x="763" y="337.5" width="47" height="47" fill="#EDF5FF"/>
<path d="M763.5 338H809.5V384H763.5V338Z" fill="white"/>
<path d="M763.5 338H809.5V384H763.5V338Z" fill="#EDF5FF"/>
<rect width="20" height="20" transform="translate(776.5 351)" fill="white" style="mix-blend-mode:multiply"/>
<path d="M792.125 357.875C791.405 357.876 790.707 358.125 790.15 358.581C789.592 359.036 789.208 359.67 789.063 360.375H783.937C783.782 359.616 783.351 358.942 782.727 358.483C782.103 358.024 781.331 357.813 780.561 357.891C779.79 357.969 779.076 358.33 778.557 358.904C778.038 359.479 777.75 360.226 777.75 361C777.75 361.774 778.038 362.521 778.557 363.096C779.076 363.67 779.79 364.031 780.561 364.109C781.331 364.187 782.103 363.976 782.727 363.517C783.351 363.058 783.782 362.384 783.937 361.625H789.063C789.181 362.204 789.462 362.738 789.871 363.165C790.281 363.591 790.803 363.893 791.377 364.034C791.951 364.176 792.554 364.151 793.115 363.964C793.676 363.777 794.172 363.434 794.546 362.976C794.92 362.518 795.156 361.964 795.227 361.377C795.299 360.79 795.202 360.195 794.948 359.66C794.695 359.126 794.295 358.675 793.795 358.359C793.296 358.043 792.716 357.875 792.125 357.875ZM792.125 362.875C791.754 362.875 791.392 362.765 791.083 362.559C790.775 362.353 790.535 362.06 790.393 361.718C790.251 361.375 790.214 360.998 790.286 360.634C790.358 360.27 790.537 359.936 790.799 359.674C791.061 359.412 791.396 359.233 791.759 359.161C792.123 359.089 792.5 359.126 792.843 359.268C793.185 359.41 793.478 359.65 793.684 359.958C793.89 360.267 794 360.629 794 361C794 361.497 793.802 361.974 793.45 362.325C793.099 362.677 792.622 362.874 792.125 362.875Z" fill="black"/>
<rect x="763" y="337.5" width="47" height="47" stroke="#0F62FE"/>
<path d="M762.217 407H764.247V397.228H762.497V404.27H762.455L761.447 402.24L758.507 397.228H756.477V407H758.227V399.958H758.269L759.277 401.988L762.217 407ZM769.485 407.168C771.585 407.168 772.887 405.684 772.887 403.332C772.887 400.994 771.585 399.524 769.485 399.524C767.399 399.524 766.097 400.994 766.097 403.332C766.097 405.684 767.399 407.168 769.485 407.168ZM769.485 405.726C768.561 405.726 767.973 405.124 767.973 404.018V402.66C767.973 401.568 768.561 400.966 769.485 400.966C770.423 400.966 771.011 401.568 771.011 402.66V404.018C771.011 405.124 770.423 405.726 769.485 405.726ZM779.172 407H780.964V396.64H779.172V400.896H779.102C778.85 400.056 778.052 399.524 777.086 399.524C775.252 399.524 774.23 400.896 774.23 403.332C774.23 405.782 775.252 407.168 777.086 407.168C778.052 407.168 778.836 406.608 779.102 405.782H779.172V407ZM777.66 405.684C776.736 405.684 776.106 405.012 776.106 403.976V402.716C776.106 401.68 776.736 400.994 777.66 400.994C778.514 400.994 779.172 401.456 779.172 402.17V404.494C779.172 405.25 778.514 405.684 777.66 405.684ZM786.144 407.168C787.502 407.168 788.566 406.65 789.168 405.824L788.202 404.746C787.754 405.32 787.222 405.74 786.34 405.74C785.164 405.74 784.562 405.026 784.562 403.976V403.794H789.42V403.206C789.42 401.204 788.37 399.524 786.088 399.524C783.946 399.524 782.7 401.022 782.7 403.332C782.7 405.67 783.988 407.168 786.144 407.168ZM786.116 400.868C787.04 400.868 787.558 401.554 787.558 402.562V402.688H784.562V402.576C784.562 401.568 785.178 400.868 786.116 400.868ZM791.157 409.8H792.949V405.782H793.005C793.285 406.608 794.055 407.168 795.021 407.168C796.869 407.168 797.891 405.782 797.891 403.332C797.891 400.896 796.869 399.524 795.021 399.524C794.055 399.524 793.271 400.056 793.005 400.896H792.949V399.692H791.157V409.8ZM794.447 405.684C793.593 405.684 792.949 405.25 792.949 404.494V402.17C792.949 401.456 793.593 400.994 794.447 400.994C795.371 400.994 796.015 401.68 796.015 402.716V403.976C796.015 405.012 795.371 405.684 794.447 405.684ZM802.61 407.168C804.71 407.168 806.012 405.684 806.012 403.332C806.012 400.994 804.71 399.524 802.61 399.524C800.524 399.524 799.222 400.994 799.222 403.332C799.222 405.684 800.524 407.168 802.61 407.168ZM802.61 405.726C801.686 405.726 801.098 405.124 801.098 404.018V402.66C801.098 401.568 801.686 400.966 802.61 400.966C803.548 400.966 804.136 401.568 804.136 402.66V404.018C804.136 405.124 803.548 405.726 802.61 405.726ZM809.552 407V402.52C809.552 401.722 810.182 401.386 811.386 401.386H811.946V399.692H811.554C810.392 399.692 809.804 400.434 809.622 401.204H809.552V399.692H807.76V407H809.552ZM815.753 407H817.041V405.572H815.655V401.12H817.153V399.692H815.655V397.69H814.045V398.936C814.045 399.44 813.877 399.692 813.345 399.692H812.785V401.12H813.863V405.138C813.863 406.328 814.521 407 815.753 407Z" fill="black"/>
<path fill-rule="evenodd" clip-rule="evenodd" d="M418.5 448L418.5 323L417.5 323L417.5 448C417.5 452.694 421.306 456.5 426 456.5L722 456.5C726.694 456.5 730.5 452.694 730.5 448L730.5 417L729.5 417L729.5 448C729.5 452.142 726.142 455.5 722 455.5L426 455.5C421.858 455.5 418.5 452.142 418.5 448Z" fill="#8F8B8B"/>
<rect width="91" height="110" transform="translate(210 217)" fill="white" style="mix-blend-mode:multiply"/>
<rect x="232" y="217.5" width="47" height="47" fill="#F6F2FF"/>
<path d="M232.5 218H278.5V264H232.5V218Z" fill="white"/>
<path d="M232.5 218H278.5V264H232.5V218Z" fill="#F6F2FF"/>
<rect width="20" height="20" transform="translate(245.5 231)" fill="white" style="mix-blend-mode:multiply"/>
<path d="M250.5 247.25H248V249.75H250.5V247.25Z" fill="black"/>
<path d="M256.75 247.25H254.25V249.75H256.75V247.25Z" fill="black"/>
<path d="M263 247.25H260.5V249.75H263V247.25Z" fill="black"/>
<path d="M261.125 241H256.125V239.75H254.875V241H249.875C249.544 241 249.226 241.132 248.992 241.367C248.757 241.601 248.625 241.919 248.625 242.25V246H249.875V242.25H254.875V246H256.125V242.25H261.125V246H262.375V242.25C262.375 241.919 262.243 241.601 262.008 241.367C261.774 241.132 261.456 241 261.125 241Z" fill="black"/>
<path d="M251.125 232.25V238.5H259.875V232.25H251.125ZM252.375 233.5H253.625V237.25H252.375V233.5ZM258.625 237.25H254.875V233.5H258.625V237.25Z" fill="black"/>
<rect x="232" y="217.5" width="47" height="47" stroke="#A56EFF"/>
<path d="M226.64 287L223.392 277.228H221.096L217.82 287H219.696L220.466 284.508H223.938L224.722 287H226.64ZM223.49 282.926H220.914L222.16 278.908H222.23L223.49 282.926ZM228.128 289.8H229.92V285.782H229.976C230.256 286.608 231.026 287.168 231.992 287.168C233.84 287.168 234.862 285.782 234.862 283.332C234.862 280.896 233.84 279.524 231.992 279.524C231.026 279.524 230.242 280.056 229.976 280.896H229.92V279.692H228.128V289.8ZM231.418 285.684C230.564 285.684 229.92 285.25 229.92 284.494V282.17C229.92 281.456 230.564 280.994 231.418 280.994C232.342 280.994 232.986 281.68 232.986 282.716V283.976C232.986 285.012 232.342 285.684 231.418 285.684ZM236.683 289.8H238.475V285.782H238.531C238.811 286.608 239.581 287.168 240.547 287.168C242.395 287.168 243.417 285.782 243.417 283.332C243.417 280.896 242.395 279.524 240.547 279.524C239.581 279.524 238.797 280.056 238.531 280.896H238.475V279.692H236.683V289.8ZM239.973 285.684C239.119 285.684 238.475 285.25 238.475 284.494V282.17C238.475 281.456 239.119 280.994 239.973 280.994C240.897 280.994 241.541 281.68 241.541 282.716V283.976C241.541 285.012 240.897 285.684 239.973 285.684ZM247.995 287V285.572H247.029V276.64H245.237V285.236C245.237 286.356 245.811 287 247.029 287H247.995ZM250.409 278.628C251.137 278.628 251.459 278.25 251.459 277.732V277.452C251.459 276.934 251.137 276.556 250.409 276.556C249.667 276.556 249.359 276.934 249.359 277.452V277.732C249.359 278.25 249.667 278.628 250.409 278.628ZM249.513 287H251.305V279.692H249.513V287ZM256.426 287.168C257.84 287.168 258.862 286.524 259.338 285.236L257.966 284.578C257.7 285.236 257.28 285.726 256.426 285.726C255.432 285.726 254.928 285.04 254.928 284.018V282.688C254.928 281.666 255.432 280.966 256.426 280.966C257.196 280.966 257.658 281.414 257.826 282.03L259.296 281.372C258.862 280.224 257.896 279.524 256.426 279.524C254.27 279.524 253.052 280.994 253.052 283.332C253.052 285.684 254.27 287.168 256.426 287.168ZM262.686 287.168C263.778 287.168 264.576 286.678 264.814 285.74H264.898C265.01 286.496 265.486 287 266.256 287H267.25V285.572H266.522V282.128C266.522 280.462 265.472 279.524 263.498 279.524C262.028 279.524 261.174 280.084 260.642 280.924L261.706 281.876C262.056 281.372 262.532 280.952 263.372 280.952C264.324 280.952 264.73 281.428 264.73 282.24V282.772H263.484C261.496 282.772 260.362 283.514 260.362 285.012C260.362 286.314 261.202 287.168 262.686 287.168ZM263.288 285.866C262.588 285.866 262.182 285.572 262.182 284.984V284.746C262.182 284.172 262.644 283.85 263.582 283.85H264.73V284.816C264.73 285.502 264.086 285.866 263.288 285.866ZM271.087 287H272.375V285.572H270.989V281.12H272.487V279.692H270.989V277.69H269.379V278.936C269.379 279.44 269.211 279.692 268.679 279.692H268.119V281.12H269.197V285.138C269.197 286.328 269.855 287 271.087 287ZM275.098 278.628C275.826 278.628 276.148 278.25 276.148 277.732V277.452C276.148 276.934 275.826 276.556 275.098 276.556C274.356 276.556 274.048 276.934 274.048 277.452V277.732C274.048 278.25 274.356 278.628 275.098 278.628ZM274.202 287H275.994V279.692H274.202V287ZM281.129 287.168C283.229 287.168 284.531 285.684 284.531 283.332C284.531 280.994 283.229 279.524 281.129 279.524C279.043 279.524 277.741 280.994 277.741 283.332C277.741 285.684 279.043 287.168 281.129 287.168ZM281.129 285.726C280.205 285.726 279.617 285.124 279.617 284.018V282.66C279.617 281.568 280.205 280.966 281.129 280.966C282.067 280.966 282.655 281.568 282.655 282.66V284.018C282.655 285.124 282.067 285.726 281.129 285.726ZM288.071 287V282.17C288.071 281.386 288.785 280.994 289.527 280.994C290.381 280.994 290.731 281.526 290.731 282.562V287H292.523V282.38C292.523 280.56 291.683 279.524 290.185 279.524C289.051 279.524 288.435 280.126 288.141 280.91H288.071V279.692H286.279V287H288.071ZM216.991 305V303.362H213.141V295.228H211.293V305H216.991ZM221.403 305.168C223.503 305.168 224.805 303.684 224.805 301.332C224.805 298.994 223.503 297.524 221.403 297.524C219.317 297.524 218.015 298.994 218.015 301.332C218.015 303.684 219.317 305.168 221.403 305.168ZM221.403 303.726C220.479 303.726 219.891 303.124 219.891 302.018V300.66C219.891 299.568 220.479 298.966 221.403 298.966C222.341 298.966 222.929 299.568 222.929 300.66V302.018C222.929 303.124 222.341 303.726 221.403 303.726ZM228.36 305.168C229.452 305.168 230.25 304.678 230.488 303.74H230.572C230.684 304.496 231.16 305 231.93 305H232.924V303.572H232.196V300.128C232.196 298.462 231.146 297.524 229.172 297.524C227.702 297.524 226.848 298.084 226.316 298.924L227.38 299.876C227.73 299.372 228.206 298.952 229.046 298.952C229.998 298.952 230.404 299.428 230.404 300.24V300.772H229.158C227.17 300.772 226.036 301.514 226.036 303.012C226.036 304.314 226.876 305.168 228.36 305.168ZM228.962 303.866C228.262 303.866 227.856 303.572 227.856 302.984V302.746C227.856 302.172 228.318 301.85 229.256 301.85H230.404V302.816C230.404 303.502 229.76 303.866 228.962 303.866ZM239.07 305H240.862V294.64H239.07V298.896H239C238.748 298.056 237.95 297.524 236.984 297.524C235.15 297.524 234.128 298.896 234.128 301.332C234.128 303.782 235.15 305.168 236.984 305.168C237.95 305.168 238.734 304.608 239 303.782H239.07V305ZM237.558 303.684C236.634 303.684 236.004 303.012 236.004 301.976V300.716C236.004 299.68 236.634 298.994 237.558 298.994C238.412 298.994 239.07 299.456 239.07 300.17V302.494C239.07 303.25 238.412 303.684 237.558 303.684ZM243.201 305H248.157C249.599 305 250.677 303.768 250.677 302.2C250.677 300.534 249.417 299.932 248.563 299.918V299.834C249.459 299.778 250.313 299.218 250.313 297.734C250.313 296.222 249.333 295.228 247.723 295.228H243.201V305ZM245.049 300.814H247.625C248.325 300.814 248.745 301.206 248.745 301.892V302.368C248.745 303.054 248.325 303.432 247.625 303.432H245.049V300.814ZM245.049 296.796H247.331C248.003 296.796 248.395 297.174 248.395 297.832V298.266C248.395 298.91 248.003 299.302 247.331 299.302H245.049V296.796ZM254.338 305.168C255.43 305.168 256.228 304.678 256.466 303.74H256.55C256.662 304.496 257.138 305 257.908 305H258.902V303.572H258.174V300.128C258.174 298.462 257.124 297.524 255.15 297.524C253.68 297.524 252.826 298.084 252.294 298.924L253.358 299.876C253.708 299.372 254.184 298.952 255.024 298.952C255.976 298.952 256.382 299.428 256.382 300.24V300.772H255.136C253.148 300.772 252.014 301.514 252.014 303.012C252.014 304.314 252.854 305.168 254.338 305.168ZM254.94 303.866C254.24 303.866 253.834 303.572 253.834 302.984V302.746C253.834 302.172 254.296 301.85 255.234 301.85H256.382V302.816C256.382 303.502 255.738 303.866 254.94 303.866ZM263.27 305V303.572H262.304V294.64H260.512V303.236C260.512 304.356 261.086 305 262.304 305H263.27ZM266.594 305.168C267.686 305.168 268.484 304.678 268.722 303.74H268.806C268.918 304.496 269.394 305 270.164 305H271.158V303.572H270.43V300.128C270.43 298.462 269.38 297.524 267.406 297.524C265.936 297.524 265.082 298.084 264.55 298.924L265.614 299.876C265.964 299.372 266.44 298.952 267.28 298.952C268.232 298.952 268.638 299.428 268.638 300.24V300.772H267.392C265.404 300.772 264.27 301.514 264.27 303.012C264.27 304.314 265.11 305.168 266.594 305.168ZM267.196 303.866C266.496 303.866 266.09 303.572 266.09 302.984V302.746C266.09 302.172 266.552 301.85 267.49 301.85H268.638V302.816C268.638 303.502 267.994 303.866 267.196 303.866ZM274.56 305V300.17C274.56 299.386 275.274 298.994 276.016 298.994C276.87 298.994 277.22 299.526 277.22 300.562V305H279.012V300.38C279.012 298.56 278.172 297.524 276.674 297.524C275.54 297.524 274.924 298.126 274.63 298.91H274.56V297.692H272.768V305H274.56ZM284.042 305.168C285.456 305.168 286.478 304.524 286.954 303.236L285.582 302.578C285.316 303.236 284.896 303.726 284.042 303.726C283.048 303.726 282.544 303.04 282.544 302.018V300.688C282.544 299.666 283.048 298.966 284.042 298.966C284.812 298.966 285.274 299.414 285.442 300.03L286.912 299.372C286.478 298.224 285.512 297.524 284.042 297.524C281.886 297.524 280.668 298.994 280.668 301.332C280.668 303.684 281.886 305.168 284.042 305.168ZM291.382 305.168C292.74 305.168 293.804 304.65 294.406 303.824L293.44 302.746C292.992 303.32 292.46 303.74 291.578 303.74C290.402 303.74 289.8 303.026 289.8 301.976V301.794H294.658V301.206C294.658 299.204 293.608 297.524 291.326 297.524C289.184 297.524 287.938 299.022 287.938 301.332C287.938 303.67 289.226 305.168 291.382 305.168ZM291.354 298.868C292.278 298.868 292.796 299.554 292.796 300.562V300.688H289.8V300.576C289.8 299.568 290.416 298.868 291.354 298.868ZM298.187 305V300.52C298.187 299.722 298.817 299.386 300.021 299.386H300.581V297.692H300.189C299.027 297.692 298.439 298.434 298.257 299.204H298.187V297.692H296.395V305H298.187ZM222.688 318.632C222.688 321.362 223.78 323.756 225.152 324.932H226.846C225.348 323.574 224.368 321.488 224.368 319.164V318.128C224.368 315.86 225.334 313.76 226.846 312.36H225.152C223.752 313.578 222.688 315.93 222.688 318.632ZM228.013 323H229.763V315.986H229.819L230.575 317.54L232.577 321.236L234.579 317.54L235.335 315.986H235.391V323H237.141V313.228H235.139L232.661 318.002H232.605L230.099 313.228H228.013V323ZM243.858 323H245.65V315.692H243.858V320.522C243.858 321.306 243.144 321.684 242.43 321.684C241.576 321.684 241.198 321.138 241.198 320.13V315.692H239.406V320.312C239.406 322.132 240.246 323.168 241.744 323.168C242.948 323.168 243.536 322.51 243.788 321.782H243.858V323ZM250.639 323V321.572H249.673V312.64H247.881V321.236C247.881 322.356 248.455 323 249.673 323H250.639ZM254.37 323H255.658V321.572H254.272V317.12H255.77V315.692H254.272V313.69H252.662V314.936C252.662 315.44 252.494 315.692 251.962 315.692H251.402V317.12H252.48V321.138C252.48 322.328 253.138 323 254.37 323ZM258.38 314.628C259.108 314.628 259.43 314.25 259.43 313.732V313.452C259.43 312.934 259.108 312.556 258.38 312.556C257.638 312.556 257.33 312.934 257.33 313.452V313.732C257.33 314.25 257.638 314.628 258.38 314.628ZM257.484 323H259.276V315.692H257.484V323ZM265.293 319.626V317.848H261.289V319.626H265.293ZM275.165 323L271.917 313.228H269.621L266.345 323H268.221L268.991 320.508H272.463L273.247 323H275.165ZM272.015 318.926H269.439L270.685 314.908H270.755L272.015 318.926ZM283.472 321.362H278.264L283.332 314.88V313.228H276.402V314.866H281.204L276.15 321.348V323H283.472V321.362ZM288.313 318.632C288.313 315.93 287.249 313.578 285.849 312.36H284.155C285.667 313.76 286.633 315.86 286.633 318.128V319.164C286.633 321.488 285.653 323.574 284.155 324.932H285.849C287.221 323.756 288.313 321.362 288.313 318.632Z" fill="black"/>
<rect x="49.5" y="544.5" width="15" height="15" rx="3.5" fill="white" style="mix-blend-mode:multiply"/>
<rect x="49.5" y="544.5" width="15" height="15" rx="3.5" stroke="#8D8D8D"/>
<path d="M79.636 557V555.964H75.478V547.228H74.302V557H79.636ZM83.957 557.168C85.889 557.168 87.219 555.684 87.219 553.388C87.219 551.092 85.889 549.608 83.957 549.608C82.025 549.608 80.695 551.092 80.695 553.388C80.695 555.684 82.025 557.168 83.957 557.168ZM83.957 556.174C82.753 556.174 81.899 555.432 81.899 553.906V552.87C81.899 551.344 82.753 550.602 83.957 550.602C85.161 550.602 86.015 551.344 86.015 552.87V553.906C86.015 555.432 85.161 556.174 83.957 556.174ZM95.3109 557.798C95.3109 556.608 94.5409 555.88 92.7489 555.88H91.2089C90.5509 555.88 90.1029 555.768 90.1029 555.334C90.1029 554.886 90.5789 554.648 91.0549 554.522C91.2649 554.564 91.5169 554.592 91.7549 554.592C93.4069 554.592 94.4849 553.57 94.4849 552.1C94.4849 551.33 94.1769 550.686 93.6589 550.238V549.776H95.0309V548.796H93.9529C93.3509 548.796 93.1129 549.202 93.1129 549.762V549.888C92.7209 549.706 92.2589 549.608 91.7409 549.608C90.1029 549.608 89.0249 550.63 89.0249 552.1C89.0249 553.108 89.5289 553.906 90.3829 554.312V554.368C89.6549 554.55 89.1369 554.9 89.1369 555.628C89.1369 556.118 89.3749 556.44 89.7809 556.636V556.79C89.0669 556.986 88.6329 557.406 88.6329 558.19C88.6329 559.324 89.5569 559.968 91.8109 559.968C94.1349 559.968 95.3109 559.282 95.3109 557.798ZM94.2609 557.882C94.2609 558.666 93.5329 559.058 92.2869 559.058H91.2509C90.1169 559.058 89.6829 558.54 89.6829 557.91C89.6829 557.462 89.8929 557.14 90.3549 556.93H92.7629C93.8829 556.93 94.2609 557.308 94.2609 557.882ZM91.7549 553.696C90.8029 553.696 90.2009 553.248 90.2009 552.296V551.904C90.2009 550.952 90.8029 550.504 91.7549 550.504C92.7069 550.504 93.3089 550.952 93.3089 551.904V552.296C93.3089 553.248 92.7069 553.696 91.7549 553.696ZM97.3374 548.082C97.8134 548.082 98.0234 547.83 98.0234 547.452V547.27C98.0234 546.892 97.8134 546.64 97.3374 546.64C96.8614 546.64 96.6514 546.892 96.6514 547.27V547.452C96.6514 547.83 96.8614 548.082 97.3374 548.082ZM96.7774 557H97.8974V549.776H96.7774V557ZM103.125 557.168C104.497 557.168 105.435 556.496 105.897 555.46L105.085 554.914C104.693 555.74 104.035 556.174 103.125 556.174C101.795 556.174 101.109 555.264 101.109 554.004V552.772C101.109 551.512 101.795 550.602 103.125 550.602C104.007 550.602 104.623 551.036 104.889 551.778L105.827 551.302C105.407 550.308 104.553 549.608 103.125 549.608C101.095 549.608 99.9054 551.078 99.9054 553.388C99.9054 555.698 101.095 557.168 103.125 557.168ZM113.518 557V556.02H112.692V552.044C112.692 550.518 111.656 549.608 109.92 549.608C108.618 549.608 107.75 550.252 107.358 551.022L108.03 551.652C108.422 550.994 108.996 550.574 109.864 550.574C111.012 550.574 111.572 551.134 111.572 552.156V552.87H110.144C108.044 552.87 107.064 553.626 107.064 554.984C107.064 556.328 107.96 557.168 109.486 557.168C110.494 557.168 111.264 556.706 111.572 555.824H111.642C111.726 556.496 112.062 557 112.888 557H113.518ZM109.668 556.216C108.8 556.216 108.24 555.81 108.24 555.096V554.802C108.24 554.102 108.814 553.71 110.088 553.71H111.572V554.9C111.572 555.642 110.774 556.216 109.668 556.216ZM117.461 557V556.02H116.397V546.64H115.277V555.838C115.277 556.51 115.697 557 116.467 557H117.461ZM123.84 557V551.988C123.84 551.064 124.708 550.616 125.604 550.616C126.682 550.616 127.242 551.274 127.242 552.562V557H128.362V552.366C128.362 550.616 127.424 549.608 125.94 549.608C124.862 549.608 124.246 550.14 123.896 550.952H123.84V549.776H122.72V557H123.84ZM133.567 557.168C135.499 557.168 136.829 555.684 136.829 553.388C136.829 551.092 135.499 549.608 133.567 549.608C131.635 549.608 130.305 551.092 130.305 553.388C130.305 555.684 131.635 557.168 133.567 557.168ZM133.567 556.174C132.363 556.174 131.509 555.432 131.509 553.906V552.87C131.509 551.344 132.363 550.602 133.567 550.602C134.771 550.602 135.625 551.344 135.625 552.87V553.906C135.625 555.432 134.771 556.174 133.567 556.174ZM143.451 557H144.571V546.64H143.451V550.952H143.395C143.017 550.042 142.275 549.608 141.281 549.608C139.475 549.608 138.341 551.078 138.341 553.388C138.341 555.698 139.475 557.168 141.281 557.168C142.275 557.168 142.961 556.72 143.395 555.824H143.451V557ZM141.589 556.16C140.329 556.16 139.545 555.292 139.545 554.004V552.772C139.545 551.484 140.329 550.616 141.589 550.616C142.611 550.616 143.451 551.204 143.451 552.002V554.69C143.451 555.628 142.611 556.16 141.589 556.16ZM149.828 557.168C151.186 557.168 152.222 556.496 152.684 555.516L151.886 554.942C151.508 555.74 150.808 556.188 149.898 556.188C148.554 556.188 147.756 555.25 147.756 554.004V553.668H152.95V553.136C152.95 551.092 151.76 549.608 149.828 549.608C147.868 549.608 146.58 551.092 146.58 553.388C146.58 555.684 147.868 557.168 149.828 557.168ZM149.828 550.546C150.976 550.546 151.746 551.4 151.746 552.674V552.828H147.756V552.73C147.756 551.47 148.61 550.546 149.828 550.546Z" fill="#6F6F6F"/>
<rect x="170.5" y="544.5" width="15" height="15" fill="#F4F4F4"/>
<rect x="170.5" y="544.5" width="15" height="15" stroke="#8D8D8D"/>
<path d="M196.478 557V552.828H199.194C200.944 552.828 201.924 551.75 201.924 550.028C201.924 548.306 200.944 547.228 199.194 547.228H195.302V557H196.478ZM196.478 548.264H199.194C200.118 548.264 200.664 548.768 200.664 549.664V550.392C200.664 551.288 200.118 551.792 199.194 551.792H196.478V548.264ZM204.824 557V552.1C204.824 551.414 205.552 550.896 206.756 550.896H207.414V549.776H206.98C205.804 549.776 205.146 550.42 204.894 551.106H204.824V549.776H203.704V557H204.824ZM211.652 557.168C213.01 557.168 214.046 556.496 214.508 555.516L213.71 554.942C213.332 555.74 212.632 556.188 211.722 556.188C210.378 556.188 209.58 555.25 209.58 554.004V553.668H214.774V553.136C214.774 551.092 213.584 549.608 211.652 549.608C209.692 549.608 208.404 551.092 208.404 553.388C208.404 555.684 209.692 557.168 211.652 557.168ZM211.652 550.546C212.8 550.546 213.57 551.4 213.57 552.674V552.828H209.58V552.73C209.58 551.47 210.434 550.546 211.652 550.546ZM218.949 557.168C220.601 557.168 221.623 556.314 221.623 554.914C221.623 553.822 221.007 553.122 219.411 552.884L218.851 552.8C217.955 552.66 217.465 552.38 217.465 551.68C217.465 550.994 217.955 550.56 218.879 550.56C219.803 550.56 220.419 550.994 220.741 551.442L221.483 550.77C220.895 550.042 220.125 549.608 218.963 549.608C217.493 549.608 216.387 550.308 216.387 551.736C216.387 553.08 217.381 553.626 218.711 553.822L219.285 553.906C220.237 554.046 220.545 554.48 220.545 555.04C220.545 555.782 219.985 556.216 219.033 556.216C218.123 556.216 217.451 555.81 216.891 555.11L216.093 555.754C216.737 556.608 217.619 557.168 218.949 557.168ZM226.45 557.168C227.822 557.168 228.76 556.496 229.222 555.46L228.41 554.914C228.018 555.74 227.36 556.174 226.45 556.174C225.12 556.174 224.434 555.264 224.434 554.004V552.772C224.434 551.512 225.12 550.602 226.45 550.602C227.332 550.602 227.948 551.036 228.214 551.778L229.152 551.302C228.732 550.308 227.878 549.608 226.45 549.608C224.42 549.608 223.23 551.078 223.23 553.388C223.23 555.698 224.42 557.168 226.45 557.168ZM232.083 557V552.1C232.083 551.414 232.811 550.896 234.015 550.896H234.673V549.776H234.239C233.063 549.776 232.405 550.42 232.153 551.106H232.083V549.776H230.963V557H232.083ZM236.823 548.082C237.299 548.082 237.509 547.83 237.509 547.452V547.27C237.509 546.892 237.299 546.64 236.823 546.64C236.347 546.64 236.137 546.892 236.137 547.27V547.452C236.137 547.83 236.347 548.082 236.823 548.082ZM236.263 557H237.383V549.776H236.263V557ZM239.923 557H241.043V555.824H241.099C241.533 556.72 242.219 557.168 243.213 557.168C245.019 557.168 246.153 555.698 246.153 553.388C246.153 551.078 245.019 549.608 243.213 549.608C242.219 549.608 241.477 550.042 241.099 550.952H241.043V546.64H239.923V557ZM242.905 556.16C241.883 556.16 241.043 555.628 241.043 554.69V552.002C241.043 551.204 241.883 550.616 242.905 550.616C244.165 550.616 244.949 551.484 244.949 552.772V554.004C244.949 555.292 244.165 556.16 242.905 556.16ZM250.92 557.168C252.278 557.168 253.314 556.496 253.776 555.516L252.978 554.942C252.6 555.74 251.9 556.188 250.99 556.188C249.646 556.188 248.848 555.25 248.848 554.004V553.668H254.042V553.136C254.042 551.092 252.852 549.608 250.92 549.608C248.96 549.608 247.672 551.092 247.672 553.388C247.672 555.684 248.96 557.168 250.92 557.168ZM250.92 550.546C252.068 550.546 252.838 551.4 252.838 552.674V552.828H248.848V552.73C248.848 551.47 249.702 550.546 250.92 550.546ZM260.668 557H261.788V546.64H260.668V550.952H260.612C260.234 550.042 259.492 549.608 258.498 549.608C256.692 549.608 255.558 551.078 255.558 553.388C255.558 555.698 256.692 557.168 258.498 557.168C259.492 557.168 260.178 556.72 260.612 555.824H260.668V557ZM258.806 556.16C257.546 556.16 256.762 555.292 256.762 554.004V552.772C256.762 551.484 257.546 550.616 258.806 550.616C259.828 550.616 260.668 551.204 260.668 552.002V554.69C260.668 555.628 259.828 556.16 258.806 556.16ZM268.918 557V551.988C268.918 551.064 269.786 550.616 270.682 550.616C271.76 550.616 272.32 551.274 272.32 552.562V557H273.44V552.366C273.44 550.616 272.502 549.608 271.018 549.608C269.94 549.608 269.324 550.14 268.974 550.952H268.918V549.776H267.798V557H268.918ZM278.645 557.168C280.577 557.168 281.907 555.684 281.907 553.388C281.907 551.092 280.577 549.608 278.645 549.608C276.713 549.608 275.383 551.092 275.383 553.388C275.383 555.684 276.713 557.168 278.645 557.168ZM278.645 556.174C277.441 556.174 276.587 555.432 276.587 553.906V552.87C276.587 551.344 277.441 550.602 278.645 550.602C279.849 550.602 280.703 551.344 280.703 552.87V553.906C280.703 555.432 279.849 556.174 278.645 556.174ZM288.529 557H289.649V546.64H288.529V550.952H288.473C288.095 550.042 287.353 549.608 286.359 549.608C284.553 549.608 283.419 551.078 283.419 553.388C283.419 555.698 284.553 557.168 286.359 557.168C287.353 557.168 288.039 556.72 288.473 555.824H288.529V557ZM286.667 556.16C285.407 556.16 284.623 555.292 284.623 554.004V552.772C284.623 551.484 285.407 550.616 286.667 550.616C287.689 550.616 288.529 551.204 288.529 552.002V554.69C288.529 555.628 287.689 556.16 286.667 556.16ZM294.906 557.168C296.264 557.168 297.3 556.496 297.762 555.516L296.964 554.942C296.586 555.74 295.886 556.188 294.976 556.188C293.632 556.188 292.834 555.25 292.834 554.004V553.668H298.028V553.136C298.028 551.092 296.838 549.608 294.906 549.608C292.946 549.608 291.658 551.092 291.658 553.388C291.658 555.684 292.946 557.168 294.906 557.168ZM294.906 550.546C296.054 550.546 296.824 551.4 296.824 552.674V552.828H292.834V552.73C292.834 551.47 293.688 550.546 294.906 550.546Z" fill="#6F6F6F"/>
<rect width="65" height="92" transform="translate(320 217)" fill="white" style="mix-blend-mode:multiply"/>
<rect x="329" y="217.5" width="47" height="47" fill="#FFF0F7"/>
<path d="M329.5 218H375.5V264H329.5V218Z" fill="white"/>
<path d="M329.5 218H375.5V264H329.5V218Z" fill="#FFF0F7"/>
<rect width="20" height="20" transform="translate(342.5 231)" fill="white" style="mix-blend-mode:multiply"/>
<path d="M355.625 235.375L352.5 232.25L349.375 235.375L350.256 236.262L351.875 234.654V239.125H353.125V234.621L354.744 236.262L355.625 235.375Z" fill="#161616"/>
<path d="M355.625 246.625L352.5 249.75L349.375 246.625L350.256 245.738L351.875 247.346V242.875H353.125V247.379L354.744 245.738L355.625 246.625Z" fill="#161616"/>
<path d="M357.5 237.875L354.375 241L357.5 244.125L358.387 243.244L356.779 241.625H361.25V240.375H356.746L358.387 238.756L357.5 237.875Z" fill="#161616"/>
<path d="M347.5 237.875L350.625 241L347.5 244.125L346.613 243.244L348.221 241.625H343.75V240.375H348.254L346.613 238.756L347.5 237.875Z" fill="#161616"/>
<rect x="329" y="217.5" width="47" height="47" stroke="#EE5396"/>
<path d="M332.755 287V285.516H331.453V278.712H332.755V277.228H328.317V278.712H329.605V285.516H328.317V287H332.755ZM336.483 287V282.17C336.483 281.386 337.197 280.994 337.939 280.994C338.793 280.994 339.143 281.526 339.143 282.562V287H340.935V282.38C340.935 280.56 340.095 279.524 338.597 279.524C337.463 279.524 336.847 280.126 336.553 280.91H336.483V279.692H334.691V287H336.483ZM349.675 287.616C349.675 286.3 348.905 285.53 347.113 285.53H345.153C344.509 285.53 344.201 285.348 344.201 284.984C344.201 284.662 344.439 284.452 344.719 284.326C345.041 284.41 345.419 284.452 345.839 284.452C347.827 284.452 348.863 283.472 348.863 282.002C348.863 281.106 348.485 280.392 347.729 279.972V279.776H349.283V278.404H348.149C347.477 278.404 347.113 278.754 347.113 279.468V279.706C346.749 279.58 346.287 279.524 345.839 279.524C343.865 279.524 342.815 280.518 342.815 282.002C342.815 282.968 343.263 283.724 344.145 284.13V284.186C343.445 284.34 342.801 284.718 342.801 285.474C342.801 286.062 343.137 286.538 343.739 286.692V286.846C342.927 286.972 342.437 287.434 342.437 288.246C342.437 289.324 343.375 289.968 345.839 289.968C348.639 289.968 349.675 289.142 349.675 287.616ZM347.995 287.826C347.995 288.442 347.477 288.736 346.315 288.736H345.419C344.299 288.736 343.879 288.4 343.879 287.84C343.879 287.546 343.991 287.28 344.257 287.084H346.749C347.659 287.084 347.995 287.364 347.995 287.826ZM345.839 283.234C344.985 283.234 344.523 282.842 344.523 282.114V281.876C344.523 281.134 344.985 280.756 345.839 280.756C346.693 280.756 347.155 281.134 347.155 281.876V282.114C347.155 282.842 346.693 283.234 345.839 283.234ZM352.662 287V282.52C352.662 281.722 353.292 281.386 354.496 281.386H355.056V279.692H354.664C353.502 279.692 352.914 280.434 352.732 281.204H352.662V279.692H350.87V287H352.662ZM359.412 287.168C360.77 287.168 361.834 286.65 362.436 285.824L361.47 284.746C361.022 285.32 360.49 285.74 359.608 285.74C358.432 285.74 357.83 285.026 357.83 283.976V283.794H362.688V283.206C362.688 281.204 361.638 279.524 359.356 279.524C357.214 279.524 355.968 281.022 355.968 283.332C355.968 285.67 357.256 287.168 359.412 287.168ZM359.384 280.868C360.308 280.868 360.826 281.554 360.826 282.562V282.688H357.83V282.576C357.83 281.568 358.446 280.868 359.384 280.868ZM366.818 287.168C368.638 287.168 369.828 286.188 369.828 284.774C369.828 283.556 369.058 282.842 367.462 282.618L366.72 282.52C366.034 282.408 365.768 282.184 365.768 281.694C365.768 281.246 366.104 280.938 366.874 280.938C367.588 280.938 368.204 281.274 368.624 281.722L369.674 280.672C368.974 279.944 368.246 279.524 366.818 279.524C365.152 279.524 364.046 280.42 364.046 281.834C364.046 283.164 364.914 283.85 366.482 284.046L367.21 284.144C367.854 284.228 368.106 284.494 368.106 284.914C368.106 285.432 367.742 285.754 366.888 285.754C366.062 285.754 365.418 285.376 364.886 284.76L363.794 285.824C364.522 286.664 365.432 287.168 366.818 287.168ZM373.869 287.168C375.689 287.168 376.879 286.188 376.879 284.774C376.879 283.556 376.109 282.842 374.513 282.618L373.771 282.52C373.085 282.408 372.819 282.184 372.819 281.694C372.819 281.246 373.155 280.938 373.925 280.938C374.639 280.938 375.255 281.274 375.675 281.722L376.725 280.672C376.025 279.944 375.297 279.524 373.869 279.524C372.203 279.524 371.097 280.42 371.097 281.834C371.097 283.164 371.965 283.85 373.533 284.046L374.261 284.144C374.905 284.228 375.157 284.494 375.157 284.914C375.157 285.432 374.793 285.754 373.939 285.754C373.113 285.754 372.469 285.376 371.937 284.76L370.845 285.824C371.573 286.664 372.483 287.168 373.869 287.168ZM324.011 305.168C325.425 305.168 326.447 304.524 326.923 303.236L325.551 302.578C325.285 303.236 324.865 303.726 324.011 303.726C323.017 303.726 322.513 303.04 322.513 302.018V300.688C322.513 299.666 323.017 298.966 324.011 298.966C324.781 298.966 325.243 299.414 325.411 300.03L326.881 299.372C326.447 298.224 325.481 297.524 324.011 297.524C321.855 297.524 320.637 298.994 320.637 301.332C320.637 303.684 321.855 305.168 324.011 305.168ZM331.294 305.168C333.394 305.168 334.696 303.684 334.696 301.332C334.696 298.994 333.394 297.524 331.294 297.524C329.208 297.524 327.906 298.994 327.906 301.332C327.906 303.684 329.208 305.168 331.294 305.168ZM331.294 303.726C330.37 303.726 329.782 303.124 329.782 302.018V300.66C329.782 299.568 330.37 298.966 331.294 298.966C332.232 298.966 332.82 299.568 332.82 300.66V302.018C332.82 303.124 332.232 303.726 331.294 303.726ZM338.237 305V300.17C338.237 299.386 338.951 298.994 339.693 298.994C340.547 298.994 340.897 299.526 340.897 300.562V305H342.689V300.38C342.689 298.56 341.849 297.524 340.351 297.524C339.217 297.524 338.601 298.126 338.307 298.91H338.237V297.692H336.445V305H338.237ZM347.117 305H348.405V303.572H347.019V299.12H348.517V297.692H347.019V295.69H345.409V296.936C345.409 297.44 345.241 297.692 344.709 297.692H344.149V299.12H345.227V303.138C345.227 304.328 345.885 305 347.117 305ZM352.023 305V300.52C352.023 299.722 352.653 299.386 353.857 299.386H354.417V297.692H354.025C352.863 297.692 352.275 298.434 352.093 299.204H352.023V297.692H350.231V305H352.023ZM358.717 305.168C360.817 305.168 362.119 303.684 362.119 301.332C362.119 298.994 360.817 297.524 358.717 297.524C356.631 297.524 355.329 298.994 355.329 301.332C355.329 303.684 356.631 305.168 358.717 305.168ZM358.717 303.726C357.793 303.726 357.205 303.124 357.205 302.018V300.66C357.205 299.568 357.793 298.966 358.717 298.966C359.655 298.966 360.243 299.568 360.243 300.66V302.018C360.243 303.124 359.655 303.726 358.717 303.726ZM366.626 305V303.572H365.66V294.64H363.868V303.236C363.868 304.356 364.442 305 365.66 305H366.626ZM370.805 305V303.572H369.839V294.64H368.047V303.236C368.047 304.356 368.621 305 369.839 305H370.805ZM375.277 305.168C376.635 305.168 377.699 304.65 378.301 303.824L377.335 302.746C376.887 303.32 376.355 303.74 375.473 303.74C374.297 303.74 373.695 303.026 373.695 301.976V301.794H378.553V301.206C378.553 299.204 377.503 297.524 375.221 297.524C373.079 297.524 371.833 299.022 371.833 301.332C371.833 303.67 373.121 305.168 375.277 305.168ZM375.249 298.868C376.173 298.868 376.691 299.554 376.691 300.562V300.688H373.695V300.576C373.695 299.568 374.311 298.868 375.249 298.868ZM382.081 305V300.52C382.081 299.722 382.711 299.386 383.915 299.386H384.475V297.692H384.083C382.921 297.692 382.333 298.434 382.151 299.204H382.081V297.692H380.289V305H382.081Z" fill="black"/>
<defs>
<clipPath id="clip0_1230_54307">
<rect width="104" height="48" fill="white" transform="translate(443 152)"/>
</clipPath>
<clipPath id="clip1_1230_54307">
<rect width="104" height="48" fill="white" transform="translate(746 152)"/>
</clipPath>
<clipPath id="clip2_1230_54307">
<rect width="136" height="48" fill="white" transform="translate(570 273)"/>
</clipPath>
<clipPath id="clip3_1230_54307">
<rect width="135" height="48" fill="white" transform="translate(843 273)"/>
</clipPath>
</defs>
</svg>
