<svg width="1080" height="720" viewBox="0 0 1080 720" fill="none" xmlns="http://www.w3.org/2000/svg">
<rect width="1080" height="720" fill="#F4F4F4"/>
<rect x="49.5" y="655.5" width="15" height="15" rx="3.5" fill="white" style="mix-blend-mode:multiply"/>
<rect x="49.5" y="655.5" width="15" height="15" rx="3.5" stroke="#8D8D8D"/>
<path d="M79.636 668V666.964H75.478V658.228H74.302V668H79.636ZM83.957 668.168C85.889 668.168 87.219 666.684 87.219 664.388C87.219 662.092 85.889 660.608 83.957 660.608C82.025 660.608 80.695 662.092 80.695 664.388C80.695 666.684 82.025 668.168 83.957 668.168ZM83.957 667.174C82.753 667.174 81.899 666.432 81.899 664.906V663.87C81.899 662.344 82.753 661.602 83.957 661.602C85.161 661.602 86.015 662.344 86.015 663.87V664.906C86.015 666.432 85.161 667.174 83.957 667.174ZM95.3109 668.798C95.3109 667.608 94.5409 666.88 92.7489 666.88H91.2089C90.5509 666.88 90.1029 666.768 90.1029 666.334C90.1029 665.886 90.5789 665.648 91.0549 665.522C91.2649 665.564 91.5169 665.592 91.7549 665.592C93.4069 665.592 94.4849 664.57 94.4849 663.1C94.4849 662.33 94.1769 661.686 93.6589 661.238V660.776H95.0309V659.796H93.9529C93.3509 659.796 93.1129 660.202 93.1129 660.762V660.888C92.7209 660.706 92.2589 660.608 91.7409 660.608C90.1029 660.608 89.0249 661.63 89.0249 663.1C89.0249 664.108 89.5289 664.906 90.3829 665.312V665.368C89.6549 665.55 89.1369 665.9 89.1369 666.628C89.1369 667.118 89.3749 667.44 89.7809 667.636V667.79C89.0669 667.986 88.6329 668.406 88.6329 669.19C88.6329 670.324 89.5569 670.968 91.8109 670.968C94.1349 670.968 95.3109 670.282 95.3109 668.798ZM94.2609 668.882C94.2609 669.666 93.5329 670.058 92.2869 670.058H91.2509C90.1169 670.058 89.6829 669.54 89.6829 668.91C89.6829 668.462 89.8929 668.14 90.3549 667.93H92.7629C93.8829 667.93 94.2609 668.308 94.2609 668.882ZM91.7549 664.696C90.8029 664.696 90.2009 664.248 90.2009 663.296V662.904C90.2009 661.952 90.8029 661.504 91.7549 661.504C92.7069 661.504 93.3089 661.952 93.3089 662.904V663.296C93.3089 664.248 92.7069 664.696 91.7549 664.696ZM97.3374 659.082C97.8134 659.082 98.0234 658.83 98.0234 658.452V658.27C98.0234 657.892 97.8134 657.64 97.3374 657.64C96.8614 657.64 96.6514 657.892 96.6514 658.27V658.452C96.6514 658.83 96.8614 659.082 97.3374 659.082ZM96.7774 668H97.8974V660.776H96.7774V668ZM103.125 668.168C104.497 668.168 105.435 667.496 105.897 666.46L105.085 665.914C104.693 666.74 104.035 667.174 103.125 667.174C101.795 667.174 101.109 666.264 101.109 665.004V663.772C101.109 662.512 101.795 661.602 103.125 661.602C104.007 661.602 104.623 662.036 104.889 662.778L105.827 662.302C105.407 661.308 104.553 660.608 103.125 660.608C101.095 660.608 99.9054 662.078 99.9054 664.388C99.9054 666.698 101.095 668.168 103.125 668.168ZM113.518 668V667.02H112.692V663.044C112.692 661.518 111.656 660.608 109.92 660.608C108.618 660.608 107.75 661.252 107.358 662.022L108.03 662.652C108.422 661.994 108.996 661.574 109.864 661.574C111.012 661.574 111.572 662.134 111.572 663.156V663.87H110.144C108.044 663.87 107.064 664.626 107.064 665.984C107.064 667.328 107.96 668.168 109.486 668.168C110.494 668.168 111.264 667.706 111.572 666.824H111.642C111.726 667.496 112.062 668 112.888 668H113.518ZM109.668 667.216C108.8 667.216 108.24 666.81 108.24 666.096V665.802C108.24 665.102 108.814 664.71 110.088 664.71H111.572V665.9C111.572 666.642 110.774 667.216 109.668 667.216ZM117.461 668V667.02H116.397V657.64H115.277V666.838C115.277 667.51 115.697 668 116.467 668H117.461ZM123.84 668V662.988C123.84 662.064 124.708 661.616 125.604 661.616C126.682 661.616 127.242 662.274 127.242 663.562V668H128.362V663.366C128.362 661.616 127.424 660.608 125.94 660.608C124.862 660.608 124.246 661.14 123.896 661.952H123.84V660.776H122.72V668H123.84ZM133.567 668.168C135.499 668.168 136.829 666.684 136.829 664.388C136.829 662.092 135.499 660.608 133.567 660.608C131.635 660.608 130.305 662.092 130.305 664.388C130.305 666.684 131.635 668.168 133.567 668.168ZM133.567 667.174C132.363 667.174 131.509 666.432 131.509 664.906V663.87C131.509 662.344 132.363 661.602 133.567 661.602C134.771 661.602 135.625 662.344 135.625 663.87V664.906C135.625 666.432 134.771 667.174 133.567 667.174ZM143.451 668H144.571V657.64H143.451V661.952H143.395C143.017 661.042 142.275 660.608 141.281 660.608C139.475 660.608 138.341 662.078 138.341 664.388C138.341 666.698 139.475 668.168 141.281 668.168C142.275 668.168 142.961 667.72 143.395 666.824H143.451V668ZM141.589 667.16C140.329 667.16 139.545 666.292 139.545 665.004V663.772C139.545 662.484 140.329 661.616 141.589 661.616C142.611 661.616 143.451 662.204 143.451 663.002V665.69C143.451 666.628 142.611 667.16 141.589 667.16ZM149.828 668.168C151.186 668.168 152.222 667.496 152.684 666.516L151.886 665.942C151.508 666.74 150.808 667.188 149.898 667.188C148.554 667.188 147.756 666.25 147.756 665.004V664.668H152.95V664.136C152.95 662.092 151.76 660.608 149.828 660.608C147.868 660.608 146.58 662.092 146.58 664.388C146.58 666.684 147.868 668.168 149.828 668.168ZM149.828 661.546C150.976 661.546 151.746 662.4 151.746 663.674V663.828H147.756V663.73C147.756 662.47 148.61 661.546 149.828 661.546Z" fill="#6F6F6F"/>
<rect x="170.5" y="655.5" width="15" height="15" fill="#F4F4F4"/>
<rect x="170.5" y="655.5" width="15" height="15" stroke="#8D8D8D"/>
<path d="M196.478 668V663.828H199.194C200.944 663.828 201.924 662.75 201.924 661.028C201.924 659.306 200.944 658.228 199.194 658.228H195.302V668H196.478ZM196.478 659.264H199.194C200.118 659.264 200.664 659.768 200.664 660.664V661.392C200.664 662.288 200.118 662.792 199.194 662.792H196.478V659.264ZM204.824 668V663.1C204.824 662.414 205.552 661.896 206.756 661.896H207.414V660.776H206.98C205.804 660.776 205.146 661.42 204.894 662.106H204.824V660.776H203.704V668H204.824ZM211.652 668.168C213.01 668.168 214.046 667.496 214.508 666.516L213.71 665.942C213.332 666.74 212.632 667.188 211.722 667.188C210.378 667.188 209.58 666.25 209.58 665.004V664.668H214.774V664.136C214.774 662.092 213.584 660.608 211.652 660.608C209.692 660.608 208.404 662.092 208.404 664.388C208.404 666.684 209.692 668.168 211.652 668.168ZM211.652 661.546C212.8 661.546 213.57 662.4 213.57 663.674V663.828H209.58V663.73C209.58 662.47 210.434 661.546 211.652 661.546ZM218.949 668.168C220.601 668.168 221.623 667.314 221.623 665.914C221.623 664.822 221.007 664.122 219.411 663.884L218.851 663.8C217.955 663.66 217.465 663.38 217.465 662.68C217.465 661.994 217.955 661.56 218.879 661.56C219.803 661.56 220.419 661.994 220.741 662.442L221.483 661.77C220.895 661.042 220.125 660.608 218.963 660.608C217.493 660.608 216.387 661.308 216.387 662.736C216.387 664.08 217.381 664.626 218.711 664.822L219.285 664.906C220.237 665.046 220.545 665.48 220.545 666.04C220.545 666.782 219.985 667.216 219.033 667.216C218.123 667.216 217.451 666.81 216.891 666.11L216.093 666.754C216.737 667.608 217.619 668.168 218.949 668.168ZM226.45 668.168C227.822 668.168 228.76 667.496 229.222 666.46L228.41 665.914C228.018 666.74 227.36 667.174 226.45 667.174C225.12 667.174 224.434 666.264 224.434 665.004V663.772C224.434 662.512 225.12 661.602 226.45 661.602C227.332 661.602 227.948 662.036 228.214 662.778L229.152 662.302C228.732 661.308 227.878 660.608 226.45 660.608C224.42 660.608 223.23 662.078 223.23 664.388C223.23 666.698 224.42 668.168 226.45 668.168ZM232.083 668V663.1C232.083 662.414 232.811 661.896 234.015 661.896H234.673V660.776H234.239C233.063 660.776 232.405 661.42 232.153 662.106H232.083V660.776H230.963V668H232.083ZM236.823 659.082C237.299 659.082 237.509 658.83 237.509 658.452V658.27C237.509 657.892 237.299 657.64 236.823 657.64C236.347 657.64 236.137 657.892 236.137 658.27V658.452C236.137 658.83 236.347 659.082 236.823 659.082ZM236.263 668H237.383V660.776H236.263V668ZM239.923 668H241.043V666.824H241.099C241.533 667.72 242.219 668.168 243.213 668.168C245.019 668.168 246.153 666.698 246.153 664.388C246.153 662.078 245.019 660.608 243.213 660.608C242.219 660.608 241.477 661.042 241.099 661.952H241.043V657.64H239.923V668ZM242.905 667.16C241.883 667.16 241.043 666.628 241.043 665.69V663.002C241.043 662.204 241.883 661.616 242.905 661.616C244.165 661.616 244.949 662.484 244.949 663.772V665.004C244.949 666.292 244.165 667.16 242.905 667.16ZM250.92 668.168C252.278 668.168 253.314 667.496 253.776 666.516L252.978 665.942C252.6 666.74 251.9 667.188 250.99 667.188C249.646 667.188 248.848 666.25 248.848 665.004V664.668H254.042V664.136C254.042 662.092 252.852 660.608 250.92 660.608C248.96 660.608 247.672 662.092 247.672 664.388C247.672 666.684 248.96 668.168 250.92 668.168ZM250.92 661.546C252.068 661.546 252.838 662.4 252.838 663.674V663.828H248.848V663.73C248.848 662.47 249.702 661.546 250.92 661.546ZM260.668 668H261.788V657.64H260.668V661.952H260.612C260.234 661.042 259.492 660.608 258.498 660.608C256.692 660.608 255.558 662.078 255.558 664.388C255.558 666.698 256.692 668.168 258.498 668.168C259.492 668.168 260.178 667.72 260.612 666.824H260.668V668ZM258.806 667.16C257.546 667.16 256.762 666.292 256.762 665.004V663.772C256.762 662.484 257.546 661.616 258.806 661.616C259.828 661.616 260.668 662.204 260.668 663.002V665.69C260.668 666.628 259.828 667.16 258.806 667.16ZM268.918 668V662.988C268.918 662.064 269.786 661.616 270.682 661.616C271.76 661.616 272.32 662.274 272.32 663.562V668H273.44V663.366C273.44 661.616 272.502 660.608 271.018 660.608C269.94 660.608 269.324 661.14 268.974 661.952H268.918V660.776H267.798V668H268.918ZM278.645 668.168C280.577 668.168 281.907 666.684 281.907 664.388C281.907 662.092 280.577 660.608 278.645 660.608C276.713 660.608 275.383 662.092 275.383 664.388C275.383 666.684 276.713 668.168 278.645 668.168ZM278.645 667.174C277.441 667.174 276.587 666.432 276.587 664.906V663.87C276.587 662.344 277.441 661.602 278.645 661.602C279.849 661.602 280.703 662.344 280.703 663.87V664.906C280.703 666.432 279.849 667.174 278.645 667.174ZM288.529 668H289.649V657.64H288.529V661.952H288.473C288.095 661.042 287.353 660.608 286.359 660.608C284.553 660.608 283.419 662.078 283.419 664.388C283.419 666.698 284.553 668.168 286.359 668.168C287.353 668.168 288.039 667.72 288.473 666.824H288.529V668ZM286.667 667.16C285.407 667.16 284.623 666.292 284.623 665.004V663.772C284.623 662.484 285.407 661.616 286.667 661.616C287.689 661.616 288.529 662.204 288.529 663.002V665.69C288.529 666.628 287.689 667.16 286.667 667.16ZM294.906 668.168C296.264 668.168 297.3 667.496 297.762 666.516L296.964 665.942C296.586 666.74 295.886 667.188 294.976 667.188C293.632 667.188 292.834 666.25 292.834 665.004V664.668H298.028V664.136C298.028 662.092 296.838 660.608 294.906 660.608C292.946 660.608 291.658 662.092 291.658 664.388C291.658 666.684 292.946 668.168 294.906 668.168ZM294.906 661.546C296.054 661.546 296.824 662.4 296.824 663.674V663.828H292.834V663.73C292.834 662.47 293.688 661.546 294.906 661.546Z" fill="#6F6F6F"/>
<path d="M191.5 97.5H969C973.142 97.5 976.5 100.858 976.5 105V569C976.5 573.142 973.142 576.5 969 576.5H199C194.858 576.5 191.5 573.142 191.5 569V97.5Z" fill="white"/>
<g clip-path="url(#clip0_1223_52683)">
<path d="M209.996 113.234H211.746L213.566 117H215.624L213.622 113.024C214.826 112.618 215.442 111.596 215.442 110.252C215.442 108.404 214.336 107.228 212.558 107.228H208.148V117H209.996V113.234ZM209.996 111.68V108.838H212.376C213.09 108.838 213.524 109.216 213.524 109.93V110.574C213.524 111.288 213.09 111.68 212.376 111.68H209.996ZM220.242 117.168C221.6 117.168 222.664 116.65 223.266 115.824L222.3 114.746C221.852 115.32 221.32 115.74 220.438 115.74C219.262 115.74 218.66 115.026 218.66 113.976V113.794H223.518V113.206C223.518 111.204 222.468 109.524 220.186 109.524C218.044 109.524 216.798 111.022 216.798 113.332C216.798 115.67 218.086 117.168 220.242 117.168ZM220.214 110.868C221.138 110.868 221.656 111.554 221.656 112.562V112.688H218.66V112.576C218.66 111.568 219.276 110.868 220.214 110.868ZM231.848 117.616C231.848 116.3 231.078 115.53 229.286 115.53H227.326C226.682 115.53 226.374 115.348 226.374 114.984C226.374 114.662 226.612 114.452 226.892 114.326C227.214 114.41 227.592 114.452 228.012 114.452C230 114.452 231.036 113.472 231.036 112.002C231.036 111.106 230.658 110.392 229.902 109.972V109.776H231.456V108.404H230.322C229.65 108.404 229.286 108.754 229.286 109.468V109.706C228.922 109.58 228.46 109.524 228.012 109.524C226.038 109.524 224.988 110.518 224.988 112.002C224.988 112.968 225.436 113.724 226.318 114.13V114.186C225.618 114.34 224.974 114.718 224.974 115.474C224.974 116.062 225.31 116.538 225.912 116.692V116.846C225.1 116.972 224.61 117.434 224.61 118.246C224.61 119.324 225.548 119.968 228.012 119.968C230.812 119.968 231.848 119.142 231.848 117.616ZM230.168 117.826C230.168 118.442 229.65 118.736 228.488 118.736H227.592C226.472 118.736 226.052 118.4 226.052 117.84C226.052 117.546 226.164 117.28 226.43 117.084H228.922C229.832 117.084 230.168 117.364 230.168 117.826ZM228.012 113.234C227.158 113.234 226.696 112.842 226.696 112.114V111.876C226.696 111.134 227.158 110.756 228.012 110.756C228.866 110.756 229.328 111.134 229.328 111.876V112.114C229.328 112.842 228.866 113.234 228.012 113.234ZM233.939 108.628C234.667 108.628 234.989 108.25 234.989 107.732V107.452C234.989 106.934 234.667 106.556 233.939 106.556C233.197 106.556 232.889 106.934 232.889 107.452V107.732C232.889 108.25 233.197 108.628 233.939 108.628ZM233.043 117H234.835V109.692H233.043V117ZM239.97 117.168C242.07 117.168 243.372 115.684 243.372 113.332C243.372 110.994 242.07 109.524 239.97 109.524C237.884 109.524 236.582 110.994 236.582 113.332C236.582 115.684 237.884 117.168 239.97 117.168ZM239.97 115.726C239.046 115.726 238.458 115.124 238.458 114.018V112.66C238.458 111.568 239.046 110.966 239.97 110.966C240.908 110.966 241.496 111.568 241.496 112.66V114.018C241.496 115.124 240.908 115.726 239.97 115.726ZM246.913 117V112.17C246.913 111.386 247.627 110.994 248.369 110.994C249.223 110.994 249.573 111.526 249.573 112.562V117H251.365V112.38C251.365 110.56 250.525 109.524 249.027 109.524C247.893 109.524 247.277 110.126 246.983 110.91H246.913V109.692H245.121V117H246.913Z" fill="black"/>
<path d="M212.642 135H213.762V127.776H212.642V132.774C212.642 133.726 211.774 134.16 210.892 134.16C209.814 134.16 209.24 133.502 209.24 132.214V127.776H208.12V132.41C208.12 134.16 209.072 135.168 210.556 135.168C211.76 135.168 212.306 134.51 212.586 133.824H212.642V135ZM218.477 135.168C220.129 135.168 221.151 134.314 221.151 132.914C221.151 131.822 220.535 131.122 218.939 130.884L218.379 130.8C217.483 130.66 216.993 130.38 216.993 129.68C216.993 128.994 217.483 128.56 218.407 128.56C219.331 128.56 219.947 128.994 220.269 129.442L221.011 128.77C220.423 128.042 219.653 127.608 218.491 127.608C217.021 127.608 215.915 128.308 215.915 129.736C215.915 131.08 216.909 131.626 218.239 131.822L218.813 131.906C219.765 132.046 220.073 132.48 220.073 133.04C220.073 133.782 219.513 134.216 218.561 134.216C217.651 134.216 216.979 133.81 216.419 133.11L215.621 133.754C216.265 134.608 217.147 135.168 218.477 135.168ZM226.583 131.346V130.142H222.929V131.346H226.583ZM231.074 135.168C232.726 135.168 233.748 134.314 233.748 132.914C233.748 131.822 233.132 131.122 231.536 130.884L230.976 130.8C230.08 130.66 229.59 130.38 229.59 129.68C229.59 128.994 230.08 128.56 231.004 128.56C231.928 128.56 232.544 128.994 232.866 129.442L233.608 128.77C233.02 128.042 232.25 127.608 231.088 127.608C229.618 127.608 228.512 128.308 228.512 129.736C228.512 131.08 229.506 131.626 230.836 131.822L231.41 131.906C232.362 132.046 232.67 132.48 232.67 133.04C232.67 133.782 232.11 134.216 231.158 134.216C230.248 134.216 229.576 133.81 229.016 133.11L228.218 133.754C228.862 134.608 229.744 135.168 231.074 135.168ZM238.617 135.168C240.549 135.168 241.879 133.684 241.879 131.388C241.879 129.092 240.549 127.608 238.617 127.608C236.685 127.608 235.355 129.092 235.355 131.388C235.355 133.684 236.685 135.168 238.617 135.168ZM238.617 134.174C237.413 134.174 236.559 133.432 236.559 131.906V130.87C236.559 129.344 237.413 128.602 238.617 128.602C239.821 128.602 240.675 129.344 240.675 130.87V131.906C240.675 133.432 239.821 134.174 238.617 134.174ZM248.333 135H249.453V127.776H248.333V132.774C248.333 133.726 247.465 134.16 246.583 134.16C245.505 134.16 244.931 133.502 244.931 132.214V127.776H243.811V132.41C243.811 134.16 244.763 135.168 246.247 135.168C247.451 135.168 247.997 134.51 248.277 133.824H248.333V135ZM254.994 135V134.02H253.524V128.756H255.106V127.776H253.524V125.774H252.516V127.118C252.516 127.608 252.362 127.776 251.886 127.776H251.214V128.756H252.404V133.81C252.404 134.51 252.824 135 253.594 135H254.994ZM257.066 135H258.186V129.988C258.186 129.064 259.054 128.616 259.95 128.616C261.028 128.616 261.588 129.274 261.588 130.562V135H262.708V130.366C262.708 128.616 261.77 127.608 260.286 127.608C259.208 127.608 258.592 128.14 258.242 128.952H258.186V124.64H257.066V135Z" fill="black"/>
<line x1="193" y1="97" x2="193" y2="145" stroke="#8D8D8D" stroke-width="4"/>
</g>
<path d="M191.5 97.5H969C973.142 97.5 976.5 100.858 976.5 105V569C976.5 573.142 973.142 576.5 969 576.5H199C194.858 576.5 191.5 573.142 191.5 569V97.5Z" stroke="#8D8D8D"/>
<rect x="207.5" y="152.5" width="752" height="407" fill="#EDF5FF"/>
<path d="M211 152H207V200H211V152Z" fill="#0F62FE"/>
<path d="M232.516 181L235.708 171.228H233.874L232.376 175.988L231.522 179.236H231.48L230.612 175.988L229.114 171.228H227.224L230.416 181H232.516ZM238.02 172.628C238.748 172.628 239.07 172.25 239.07 171.732V171.452C239.07 170.934 238.748 170.556 238.02 170.556C237.278 170.556 236.97 170.934 236.97 171.452V171.732C236.97 172.25 237.278 172.628 238.02 172.628ZM237.124 181H238.916V173.692H237.124V181ZM242.945 181V176.52C242.945 175.722 243.575 175.386 244.779 175.386H245.339V173.692H244.947C243.785 173.692 243.197 174.434 243.015 175.204H242.945V173.692H241.153V181H242.945ZM249.146 181H250.434V179.572H249.048V175.12H250.546V173.692H249.048V171.69H247.438V172.936C247.438 173.44 247.27 173.692 246.738 173.692H246.178V175.12H247.256V179.138C247.256 180.328 247.914 181 249.146 181ZM256.628 181H258.42V173.692H256.628V178.522C256.628 179.306 255.914 179.684 255.2 179.684C254.346 179.684 253.968 179.138 253.968 178.13V173.692H252.176V178.312C252.176 180.132 253.016 181.168 254.514 181.168C255.718 181.168 256.306 180.51 256.558 179.782H256.628V181ZM262.456 181.168C263.548 181.168 264.346 180.678 264.584 179.74H264.668C264.78 180.496 265.256 181 266.026 181H267.02V179.572H266.292V176.128C266.292 174.462 265.242 173.524 263.268 173.524C261.798 173.524 260.944 174.084 260.412 174.924L261.476 175.876C261.826 175.372 262.302 174.952 263.142 174.952C264.094 174.952 264.5 175.428 264.5 176.24V176.772H263.254C261.266 176.772 260.132 177.514 260.132 179.012C260.132 180.314 260.972 181.168 262.456 181.168ZM263.058 179.866C262.358 179.866 261.952 179.572 261.952 178.984V178.746C261.952 178.172 262.414 177.85 263.352 177.85H264.5V178.816C264.5 179.502 263.856 179.866 263.058 179.866ZM271.389 181V179.572H270.423V170.64H268.631V179.236C268.631 180.356 269.205 181 270.423 181H271.389ZM278.335 181V177.276H280.883C282.689 177.276 283.781 176.072 283.781 174.252C283.781 172.446 282.689 171.228 280.883 171.228H276.487V181H278.335ZM278.335 172.838H280.715C281.429 172.838 281.863 173.216 281.863 173.93V174.574C281.863 175.288 281.429 175.68 280.715 175.68H278.335V172.838ZM287.159 181V176.52C287.159 175.722 287.789 175.386 288.993 175.386H289.553V173.692H289.161C287.999 173.692 287.411 174.434 287.229 175.204H287.159V173.692H285.367V181H287.159ZM291.919 172.628C292.647 172.628 292.969 172.25 292.969 171.732V171.452C292.969 170.934 292.647 170.556 291.919 170.556C291.177 170.556 290.869 170.934 290.869 171.452V171.732C290.869 172.25 291.177 172.628 291.919 172.628ZM291.023 181H292.815V173.692H291.023V181ZM298.748 181L301.198 173.692H299.49L298.496 176.842L297.782 179.446H297.684L296.97 176.842L295.948 173.692H294.184L296.62 181H298.748ZM304.237 181.168C305.329 181.168 306.127 180.678 306.365 179.74H306.449C306.561 180.496 307.037 181 307.807 181H308.801V179.572H308.073V176.128C308.073 174.462 307.023 173.524 305.049 173.524C303.579 173.524 302.725 174.084 302.193 174.924L303.257 175.876C303.607 175.372 304.083 174.952 304.923 174.952C305.875 174.952 306.281 175.428 306.281 176.24V176.772H305.035C303.047 176.772 301.913 177.514 301.913 179.012C301.913 180.314 302.753 181.168 304.237 181.168ZM304.839 179.866C304.139 179.866 303.733 179.572 303.733 178.984V178.746C303.733 178.172 304.195 177.85 305.133 177.85H306.281V178.816C306.281 179.502 305.637 179.866 304.839 179.866ZM312.638 181H313.926V179.572H312.54V175.12H314.038V173.692H312.54V171.69H310.93V172.936C310.93 173.44 310.762 173.692 310.23 173.692H309.67V175.12H310.748V179.138C310.748 180.328 311.406 181 312.638 181ZM318.652 181.168C320.01 181.168 321.074 180.65 321.676 179.824L320.71 178.746C320.262 179.32 319.73 179.74 318.848 179.74C317.672 179.74 317.07 179.026 317.07 177.976V177.794H321.928V177.206C321.928 175.204 320.878 173.524 318.596 173.524C316.454 173.524 315.208 175.022 315.208 177.332C315.208 179.67 316.496 181.168 318.652 181.168ZM318.624 174.868C319.548 174.868 320.066 175.554 320.066 176.562V176.688H317.07V176.576C317.07 175.568 317.686 174.868 318.624 174.868ZM331.039 181.168C332.789 181.168 333.951 180.314 334.651 178.858L333.153 177.976C332.831 178.858 332.145 179.53 331.039 179.53C329.667 179.53 328.785 178.578 328.785 176.898V175.358C328.785 173.692 329.667 172.698 331.039 172.698C332.131 172.698 332.747 173.286 333.027 174.154L334.609 173.314C333.923 171.802 332.789 171.06 331.039 171.06C328.463 171.06 326.825 172.894 326.825 176.184C326.825 179.474 328.463 181.168 331.039 181.168ZM339.034 181V179.572H338.068V170.64H336.276V179.236C336.276 180.356 336.85 181 338.068 181H339.034ZM343.449 181.168C345.549 181.168 346.851 179.684 346.851 177.332C346.851 174.994 345.549 173.524 343.449 173.524C341.363 173.524 340.061 174.994 340.061 177.332C340.061 179.684 341.363 181.168 343.449 181.168ZM343.449 179.726C342.525 179.726 341.937 179.124 341.937 178.018V176.66C341.937 175.568 342.525 174.966 343.449 174.966C344.387 174.966 344.975 175.568 344.975 176.66V178.018C344.975 179.124 344.387 179.726 343.449 179.726ZM352.967 181H354.759V173.692H352.967V178.522C352.967 179.306 352.253 179.684 351.539 179.684C350.685 179.684 350.307 179.138 350.307 178.13V173.692H348.515V178.312C348.515 180.132 349.355 181.168 350.853 181.168C352.057 181.168 352.645 180.51 352.897 179.782H352.967V181ZM361.526 181H363.318V170.64H361.526V174.896H361.456C361.204 174.056 360.406 173.524 359.44 173.524C357.606 173.524 356.584 174.896 356.584 177.332C356.584 179.782 357.606 181.168 359.44 181.168C360.406 181.168 361.19 180.608 361.456 179.782H361.526V181ZM360.014 179.684C359.09 179.684 358.46 179.012 358.46 177.976V176.716C358.46 175.68 359.09 174.994 360.014 174.994C360.868 174.994 361.526 175.456 361.526 176.17V178.494C361.526 179.25 360.868 179.684 360.014 179.684ZM368.677 176.632C368.677 179.362 369.769 181.756 371.141 182.932H372.835C371.337 181.574 370.357 179.488 370.357 177.164V176.128C370.357 173.86 371.323 171.76 372.835 170.36H371.141C369.741 171.578 368.677 173.93 368.677 176.632ZM378.643 181L381.835 171.228H380.001L378.503 175.988L377.649 179.236H377.607L376.739 175.988L375.241 171.228H373.351L376.543 181H378.643ZM385.211 181V177.276H387.759C389.565 177.276 390.657 176.072 390.657 174.252C390.657 172.446 389.565 171.228 387.759 171.228H383.363V181H385.211ZM385.211 172.838H387.591C388.305 172.838 388.739 173.216 388.739 173.93V174.574C388.739 175.288 388.305 175.68 387.591 175.68H385.211V172.838ZM396.286 181.168C398.036 181.168 399.198 180.314 399.898 178.858L398.4 177.976C398.078 178.858 397.392 179.53 396.286 179.53C394.914 179.53 394.032 178.578 394.032 176.898V175.358C394.032 173.692 394.914 172.698 396.286 172.698C397.378 172.698 397.994 173.286 398.274 174.154L399.856 173.314C399.17 171.802 398.036 171.06 396.286 171.06C393.71 171.06 392.072 172.894 392.072 176.184C392.072 179.474 393.71 181.168 396.286 181.168ZM404.504 176.632C404.504 173.93 403.44 171.578 402.04 170.36H400.346C401.858 171.76 402.824 173.86 402.824 176.128V177.164C402.824 179.488 401.844 181.574 400.346 182.932H402.04C403.412 181.756 404.504 179.362 404.504 176.632Z" fill="black"/>
<rect x="207.5" y="152.5" width="752" height="407" stroke="#0F62FE"/>
<path d="M369.5 208.5H633C637.142 208.5 640.5 211.858 640.5 216V536C640.5 540.142 637.142 543.5 633 543.5H377C372.858 543.5 369.5 540.142 369.5 536V208.5Z" fill="white"/>
<g clip-path="url(#clip1_1223_52683)">
<path d="M392.854 226.362H387.646L392.714 219.88V218.228H385.784V219.866H390.586L385.532 226.348V228H392.854V226.362ZM397.407 228.168C399.507 228.168 400.809 226.684 400.809 224.332C400.809 221.994 399.507 220.524 397.407 220.524C395.32 220.524 394.018 221.994 394.018 224.332C394.018 226.684 395.32 228.168 397.407 228.168ZM397.407 226.726C396.482 226.726 395.894 226.124 395.894 225.018V223.66C395.894 222.568 396.482 221.966 397.407 221.966C398.345 221.966 398.933 222.568 398.933 223.66V225.018C398.933 226.124 398.345 226.726 397.407 226.726ZM404.349 228V223.17C404.349 222.386 405.063 221.994 405.805 221.994C406.659 221.994 407.009 222.526 407.009 223.562V228H408.801V223.38C408.801 221.56 407.961 220.524 406.463 220.524C405.329 220.524 404.713 221.126 404.419 221.91H404.349V220.692H402.557V228H404.349ZM413.902 228.168C415.26 228.168 416.324 227.65 416.926 226.824L415.96 225.746C415.512 226.32 414.98 226.74 414.098 226.74C412.922 226.74 412.32 226.026 412.32 224.976V224.794H417.178V224.206C417.178 222.204 416.128 220.524 413.846 220.524C411.704 220.524 410.458 222.022 410.458 224.332C410.458 226.67 411.746 228.168 413.902 228.168ZM413.874 221.868C414.798 221.868 415.316 222.554 415.316 223.562V223.688H412.32V223.576C412.32 222.568 412.936 221.868 413.874 221.868Z" fill="black"/>
<path d="M390.642 246H391.762V238.776H390.642V243.774C390.642 244.726 389.774 245.16 388.892 245.16C387.814 245.16 387.24 244.502 387.24 243.214V238.776H386.12V243.41C386.12 245.16 387.072 246.168 388.556 246.168C389.76 246.168 390.306 245.51 390.586 244.824H390.642V246ZM396.477 246.168C398.129 246.168 399.151 245.314 399.151 243.914C399.151 242.822 398.535 242.122 396.939 241.884L396.379 241.8C395.483 241.66 394.993 241.38 394.993 240.68C394.993 239.994 395.483 239.56 396.407 239.56C397.331 239.56 397.947 239.994 398.269 240.442L399.011 239.77C398.423 239.042 397.653 238.608 396.491 238.608C395.021 238.608 393.915 239.308 393.915 240.736C393.915 242.08 394.909 242.626 396.239 242.822L396.813 242.906C397.765 243.046 398.073 243.48 398.073 244.04C398.073 244.782 397.513 245.216 396.561 245.216C395.651 245.216 394.979 244.81 394.419 244.11L393.621 244.754C394.265 245.608 395.147 246.168 396.477 246.168ZM404.583 242.346V241.142H400.929V242.346H404.583ZM409.074 246.168C410.726 246.168 411.748 245.314 411.748 243.914C411.748 242.822 411.132 242.122 409.536 241.884L408.976 241.8C408.08 241.66 407.59 241.38 407.59 240.68C407.59 239.994 408.08 239.56 409.004 239.56C409.928 239.56 410.544 239.994 410.866 240.442L411.608 239.77C411.02 239.042 410.25 238.608 409.088 238.608C407.618 238.608 406.512 239.308 406.512 240.736C406.512 242.08 407.506 242.626 408.836 242.822L409.41 242.906C410.362 243.046 410.67 243.48 410.67 244.04C410.67 244.782 410.11 245.216 409.158 245.216C408.248 245.216 407.576 244.81 407.016 244.11L406.218 244.754C406.862 245.608 407.744 246.168 409.074 246.168ZM416.617 246.168C418.549 246.168 419.879 244.684 419.879 242.388C419.879 240.092 418.549 238.608 416.617 238.608C414.685 238.608 413.355 240.092 413.355 242.388C413.355 244.684 414.685 246.168 416.617 246.168ZM416.617 245.174C415.413 245.174 414.559 244.432 414.559 242.906V241.87C414.559 240.344 415.413 239.602 416.617 239.602C417.821 239.602 418.675 240.344 418.675 241.87V242.906C418.675 244.432 417.821 245.174 416.617 245.174ZM426.333 246H427.453V238.776H426.333V243.774C426.333 244.726 425.465 245.16 424.583 245.16C423.505 245.16 422.931 244.502 422.931 243.214V238.776H421.811V243.41C421.811 245.16 422.763 246.168 424.247 246.168C425.451 246.168 425.997 245.51 426.277 244.824H426.333V246ZM432.994 246V245.02H431.524V239.756H433.106V238.776H431.524V236.774H430.516V238.118C430.516 238.608 430.362 238.776 429.886 238.776H429.214V239.756H430.404V244.81C430.404 245.51 430.824 246 431.594 246H432.994ZM435.066 246H436.186V240.988C436.186 240.064 437.054 239.616 437.95 239.616C439.028 239.616 439.588 240.274 439.588 241.562V246H440.708V241.366C440.708 239.616 439.77 238.608 438.286 238.608C437.208 238.608 436.592 239.14 436.242 239.952H436.186V235.64H435.066V246ZM446.613 242.346V241.142H442.959V242.346H446.613ZM455.403 246V244.964H452.883V236.228H451.049L448.459 238.65L449.145 239.392L451.609 237.096H451.707V244.964H448.977V246H455.403Z" fill="black"/>
<line x1="371" y1="208" x2="371" y2="256" stroke="#8D8D8D" stroke-width="4"/>
</g>
<path d="M369.5 208.5H633C637.142 208.5 640.5 211.858 640.5 216V536C640.5 540.142 637.142 543.5 633 543.5H377C372.858 543.5 369.5 540.142 369.5 536V208.5Z" stroke="#8D8D8D"/>
<path d="M672.5 208.5H937C941.142 208.5 944.5 211.858 944.5 216V536C944.5 540.142 941.142 543.5 937 543.5H680C675.858 543.5 672.5 540.142 672.5 536V208.5Z" fill="white"/>
<g clip-path="url(#clip2_1223_52683)">
<path d="M695.854 226.362H690.646L695.714 219.88V218.228H688.784V219.866H693.586L688.532 226.348V228H695.854V226.362ZM700.407 228.168C702.507 228.168 703.809 226.684 703.809 224.332C703.809 221.994 702.507 220.524 700.407 220.524C698.32 220.524 697.018 221.994 697.018 224.332C697.018 226.684 698.32 228.168 700.407 228.168ZM700.407 226.726C699.482 226.726 698.894 226.124 698.894 225.018V223.66C698.894 222.568 699.482 221.966 700.407 221.966C701.345 221.966 701.933 222.568 701.933 223.66V225.018C701.933 226.124 701.345 226.726 700.407 226.726ZM707.349 228V223.17C707.349 222.386 708.063 221.994 708.805 221.994C709.659 221.994 710.009 222.526 710.009 223.562V228H711.801V223.38C711.801 221.56 710.961 220.524 709.463 220.524C708.329 220.524 707.713 221.126 707.419 221.91H707.349V220.692H705.557V228H707.349ZM716.902 228.168C718.26 228.168 719.324 227.65 719.926 226.824L718.96 225.746C718.512 226.32 717.98 226.74 717.098 226.74C715.922 226.74 715.32 226.026 715.32 224.976V224.794H720.178V224.206C720.178 222.204 719.128 220.524 716.846 220.524C714.704 220.524 713.458 222.022 713.458 224.332C713.458 226.67 714.746 228.168 716.902 228.168ZM716.874 221.868C717.798 221.868 718.316 222.554 718.316 223.562V223.688H715.32V223.576C715.32 222.568 715.936 221.868 716.874 221.868Z" fill="black"/>
<path d="M693.642 246H694.762V238.776H693.642V243.774C693.642 244.726 692.774 245.16 691.892 245.16C690.814 245.16 690.24 244.502 690.24 243.214V238.776H689.12V243.41C689.12 245.16 690.072 246.168 691.556 246.168C692.76 246.168 693.306 245.51 693.586 244.824H693.642V246ZM699.477 246.168C701.129 246.168 702.151 245.314 702.151 243.914C702.151 242.822 701.535 242.122 699.939 241.884L699.379 241.8C698.483 241.66 697.993 241.38 697.993 240.68C697.993 239.994 698.483 239.56 699.407 239.56C700.331 239.56 700.947 239.994 701.269 240.442L702.011 239.77C701.423 239.042 700.653 238.608 699.491 238.608C698.021 238.608 696.915 239.308 696.915 240.736C696.915 242.08 697.909 242.626 699.239 242.822L699.813 242.906C700.765 243.046 701.073 243.48 701.073 244.04C701.073 244.782 700.513 245.216 699.561 245.216C698.651 245.216 697.979 244.81 697.419 244.11L696.621 244.754C697.265 245.608 698.147 246.168 699.477 246.168ZM707.583 242.346V241.142H703.929V242.346H707.583ZM712.074 246.168C713.726 246.168 714.748 245.314 714.748 243.914C714.748 242.822 714.132 242.122 712.536 241.884L711.976 241.8C711.08 241.66 710.59 241.38 710.59 240.68C710.59 239.994 711.08 239.56 712.004 239.56C712.928 239.56 713.544 239.994 713.866 240.442L714.608 239.77C714.02 239.042 713.25 238.608 712.088 238.608C710.618 238.608 709.512 239.308 709.512 240.736C709.512 242.08 710.506 242.626 711.836 242.822L712.41 242.906C713.362 243.046 713.67 243.48 713.67 244.04C713.67 244.782 713.11 245.216 712.158 245.216C711.248 245.216 710.576 244.81 710.016 244.11L709.218 244.754C709.862 245.608 710.744 246.168 712.074 246.168ZM719.617 246.168C721.549 246.168 722.879 244.684 722.879 242.388C722.879 240.092 721.549 238.608 719.617 238.608C717.685 238.608 716.355 240.092 716.355 242.388C716.355 244.684 717.685 246.168 719.617 246.168ZM719.617 245.174C718.413 245.174 717.559 244.432 717.559 242.906V241.87C717.559 240.344 718.413 239.602 719.617 239.602C720.821 239.602 721.675 240.344 721.675 241.87V242.906C721.675 244.432 720.821 245.174 719.617 245.174ZM729.333 246H730.453V238.776H729.333V243.774C729.333 244.726 728.465 245.16 727.583 245.16C726.505 245.16 725.931 244.502 725.931 243.214V238.776H724.811V243.41C724.811 245.16 725.763 246.168 727.247 246.168C728.451 246.168 728.997 245.51 729.277 244.824H729.333V246ZM735.994 246V245.02H734.524V239.756H736.106V238.776H734.524V236.774H733.516V238.118C733.516 238.608 733.362 238.776 732.886 238.776H732.214V239.756H733.404V244.81C733.404 245.51 733.824 246 734.594 246H735.994ZM738.066 246H739.186V240.988C739.186 240.064 740.054 239.616 740.95 239.616C742.028 239.616 742.588 240.274 742.588 241.562V246H743.708V241.366C743.708 239.616 742.77 238.608 741.286 238.608C740.208 238.608 739.592 239.14 739.242 239.952H739.186V235.64H738.066V246ZM749.613 242.346V241.142H745.959V242.346H749.613ZM758.207 244.964H753.069L755.701 242.598C756.947 241.478 757.843 240.414 757.843 238.902C757.843 237.236 756.751 236.06 754.847 236.06C752.957 236.06 752.089 237.208 751.711 238.356L752.761 238.762C753.027 237.838 753.587 237.11 754.791 237.11C755.995 237.11 756.597 237.852 756.597 238.93V239.098C756.597 240.036 755.897 241.016 754.987 241.856L751.795 244.796V246H758.207V244.964Z" fill="black"/>
<line x1="674" y1="208" x2="674" y2="256" stroke="#8D8D8D" stroke-width="4"/>
</g>
<path d="M672.5 208.5H937C941.142 208.5 944.5 211.858 944.5 216V536C944.5 540.142 941.142 543.5 937 543.5H680C675.858 543.5 672.5 540.142 672.5 536V208.5Z" stroke="#8D8D8D"/>
<path fill-rule="evenodd" clip-rule="evenodd" d="M252 297.5L97 297.5L97 296.5L252 296.5L252 294.113L257 297L252 299.887L252 297.5Z" fill="#8F8B8B"/>
<circle cx="97" cy="297" r="24" fill="#161616"/>
<rect width="20" height="20" transform="translate(87 287)" fill="white" style="mix-blend-mode:multiply"/>
<path d="M97 289.5C97.6181 289.5 98.2223 289.683 98.7362 290.027C99.2501 290.37 99.6506 290.858 99.8871 291.429C100.124 292 100.186 292.628 100.065 293.235C99.9444 293.841 99.6467 294.398 99.2097 294.835C98.7727 295.272 98.2158 295.569 97.6097 295.69C97.0035 295.811 96.3751 295.749 95.8041 295.512C95.2331 295.276 94.745 294.875 94.4017 294.361C94.0583 293.847 93.875 293.243 93.875 292.625C93.875 291.796 94.2042 291.001 94.7903 290.415C95.3763 289.829 96.1712 289.5 97 289.5ZM97 288.25C96.1347 288.25 95.2888 288.507 94.5694 288.987C93.8499 289.468 93.2892 290.151 92.958 290.951C92.6269 291.75 92.5403 292.63 92.7091 293.479C92.8779 294.327 93.2946 295.107 93.9064 295.719C94.5183 296.33 95.2978 296.747 96.1465 296.916C96.9951 297.085 97.8748 296.998 98.6742 296.667C99.4737 296.336 100.157 295.775 100.638 295.056C101.118 294.336 101.375 293.49 101.375 292.625C101.375 291.465 100.914 290.352 100.094 289.531C99.2731 288.711 98.1603 288.25 97 288.25Z" fill="white"/>
<path d="M103.25 305.75H102V302.625C102 302.215 101.919 301.808 101.762 301.429C101.605 301.05 101.375 300.705 101.085 300.415C100.795 300.125 100.45 299.895 100.071 299.738C99.6917 299.581 99.2854 299.5 98.875 299.5H95.125C94.2962 299.5 93.5013 299.829 92.9153 300.415C92.3292 301.001 92 301.796 92 302.625V305.75H90.75V302.625C90.75 301.465 91.2109 300.352 92.0314 299.531C92.8519 298.711 93.9647 298.25 95.125 298.25H98.875C100.035 298.25 101.148 298.711 101.969 299.531C102.789 300.352 103.25 301.465 103.25 302.625V305.75Z" fill="white"/>
<path d="M82.8605 333.228V338.996C82.8605 341.866 83.8545 343.168 86.5985 343.168C89.3425 343.168 90.3645 341.866 90.3645 338.996V333.228H88.5445V339.234C88.5445 340.76 88.0125 341.53 86.6125 341.53C85.2125 341.53 84.6805 340.76 84.6805 339.234V333.228H82.8605ZM95.0385 343.168C96.8585 343.168 98.0485 342.188 98.0485 340.774C98.0485 339.556 97.2785 338.842 95.6825 338.618L94.9405 338.52C94.2545 338.408 93.9885 338.184 93.9885 337.694C93.9885 337.246 94.3245 336.938 95.0945 336.938C95.8085 336.938 96.4245 337.274 96.8445 337.722L97.8945 336.672C97.1945 335.944 96.4665 335.524 95.0385 335.524C93.3725 335.524 92.2665 336.42 92.2665 337.834C92.2665 339.164 93.1345 339.85 94.7025 340.046L95.4305 340.144C96.0745 340.228 96.3265 340.494 96.3265 340.914C96.3265 341.432 95.9625 341.754 95.1085 341.754C94.2825 341.754 93.6385 341.376 93.1065 340.76L92.0145 341.824C92.7425 342.664 93.6525 343.168 95.0385 343.168ZM102.745 343.168C104.103 343.168 105.167 342.65 105.769 341.824L104.803 340.746C104.355 341.32 103.823 341.74 102.941 341.74C101.765 341.74 101.163 341.026 101.163 339.976V339.794H106.021V339.206C106.021 337.204 104.971 335.524 102.689 335.524C100.547 335.524 99.3008 337.022 99.3008 339.332C99.3008 341.67 100.589 343.168 102.745 343.168ZM102.717 336.868C103.641 336.868 104.159 337.554 104.159 338.562V338.688H101.163V338.576C101.163 337.568 101.779 336.868 102.717 336.868ZM109.549 343V338.52C109.549 337.722 110.179 337.386 111.383 337.386H111.943V335.692H111.551C110.389 335.692 109.801 336.434 109.619 337.204H109.549V335.692H107.757V343H109.549Z" fill="black"/>
<rect x="385.5" y="273.5" width="542" height="254" fill="#F4F4F4"/>
<path d="M389 273H385V321H389V273Z" fill="#6F6F6F"/>
<path d="M409.942 302.168C411.692 302.168 412.854 301.314 413.554 299.858L412.056 298.976C411.734 299.858 411.048 300.53 409.942 300.53C408.57 300.53 407.688 299.578 407.688 297.898V296.358C407.688 294.692 408.57 293.698 409.942 293.698C411.034 293.698 411.65 294.286 411.93 295.154L413.512 294.314C412.826 292.802 411.692 292.06 409.942 292.06C407.366 292.06 405.728 293.894 405.728 297.184C405.728 300.474 407.366 302.168 409.942 302.168ZM417.936 302V300.572H416.97V291.64H415.178V300.236C415.178 301.356 415.752 302 416.97 302H417.936ZM423.822 302H425.614V294.692H423.822V299.522C423.822 300.306 423.108 300.684 422.394 300.684C421.54 300.684 421.162 300.138 421.162 299.13V294.692H419.37V299.312C419.37 301.132 420.21 302.168 421.708 302.168C422.912 302.168 423.5 301.51 423.752 300.782H423.822V302ZM430.238 302.168C432.058 302.168 433.248 301.188 433.248 299.774C433.248 298.556 432.478 297.842 430.882 297.618L430.14 297.52C429.454 297.408 429.188 297.184 429.188 296.694C429.188 296.246 429.524 295.938 430.294 295.938C431.008 295.938 431.624 296.274 432.044 296.722L433.094 295.672C432.394 294.944 431.666 294.524 430.238 294.524C428.572 294.524 427.466 295.42 427.466 296.834C427.466 298.164 428.334 298.85 429.902 299.046L430.63 299.144C431.274 299.228 431.526 299.494 431.526 299.914C431.526 300.432 431.162 300.754 430.308 300.754C429.482 300.754 428.838 300.376 428.306 299.76L427.214 300.824C427.942 301.664 428.852 302.168 430.238 302.168ZM437.163 302H438.451V300.572H437.065V296.12H438.563V294.692H437.065V292.69H435.455V293.936C435.455 294.44 435.287 294.692 434.755 294.692H434.195V296.12H435.273V300.138C435.273 301.328 435.931 302 437.163 302ZM443.177 302.168C444.535 302.168 445.599 301.65 446.201 300.824L445.235 299.746C444.787 300.32 444.255 300.74 443.373 300.74C442.197 300.74 441.595 300.026 441.595 298.976V298.794H446.453V298.206C446.453 296.204 445.403 294.524 443.121 294.524C440.979 294.524 439.733 296.022 439.733 298.332C439.733 300.67 441.021 302.168 443.177 302.168ZM443.149 295.868C444.073 295.868 444.591 296.554 444.591 297.562V297.688H441.595V297.576C441.595 296.568 442.211 295.868 443.149 295.868ZM449.981 302V297.52C449.981 296.722 450.611 296.386 451.815 296.386H452.375V294.692H451.983C450.821 294.692 450.233 295.434 450.051 296.204H449.981V294.692H448.189V302H449.981Z" fill="black"/>
<rect x="385.5" y="273.5" width="542" height="254" stroke="#6F6F6F"/>
<rect x="496.5" y="329.5" width="135" height="167" fill="white"/>
<rect x="497" y="330" width="134" height="166" fill="white"/>
<g clip-path="url(#clip3_1223_52683)">
<path d="M516.732 358L517.978 352.834L518.608 350.258H518.636L519.238 352.834L520.484 358H522.57L524.908 348.228H523.144L522.15 352.918L521.534 355.914H521.492L520.806 352.918L519.686 348.228H517.642L516.522 352.918L515.822 355.914H515.78L515.178 352.918L514.212 348.228H512.364L514.632 358H516.732ZM529.069 358.168C531.169 358.168 532.471 356.684 532.471 354.332C532.471 351.994 531.169 350.524 529.069 350.524C526.983 350.524 525.681 351.994 525.681 354.332C525.681 356.684 526.983 358.168 529.069 358.168ZM529.069 356.726C528.145 356.726 527.557 356.124 527.557 355.018V353.66C527.557 352.568 528.145 351.966 529.069 351.966C530.007 351.966 530.595 352.568 530.595 353.66V355.018C530.595 356.124 530.007 356.726 529.069 356.726ZM536.011 358V353.52C536.011 352.722 536.641 352.386 537.845 352.386H538.405V350.692H538.013C536.851 350.692 536.263 351.434 536.081 352.204H536.011V350.692H534.219V358H536.011ZM539.875 358H541.667V355.774L542.633 354.724L544.509 358H546.637L543.851 353.52L546.371 350.692H544.341L542.703 352.568L541.737 353.884H541.667V347.64H539.875V358ZM550.509 358.168C551.867 358.168 552.931 357.65 553.533 356.824L552.567 355.746C552.119 356.32 551.587 356.74 550.705 356.74C549.529 356.74 548.927 356.026 548.927 354.976V354.794H553.785V354.206C553.785 352.204 552.735 350.524 550.453 350.524C548.311 350.524 547.065 352.022 547.065 354.332C547.065 356.67 548.353 358.168 550.509 358.168ZM550.481 351.868C551.405 351.868 551.923 352.554 551.923 353.562V353.688H548.927V353.576C548.927 352.568 549.543 351.868 550.481 351.868ZM557.314 358V353.52C557.314 352.722 557.944 352.386 559.148 352.386H559.708V350.692H559.316C558.154 350.692 557.566 351.434 557.384 352.204H557.314V350.692H555.522V358H557.314ZM566.438 358V353.17C566.438 352.386 567.152 351.994 567.894 351.994C568.748 351.994 569.098 352.526 569.098 353.562V358H570.89V353.38C570.89 351.56 570.05 350.524 568.552 350.524C567.418 350.524 566.802 351.126 566.508 351.91H566.438V350.692H564.646V358H566.438ZM575.935 358.168C578.035 358.168 579.337 356.684 579.337 354.332C579.337 351.994 578.035 350.524 575.935 350.524C573.849 350.524 572.547 351.994 572.547 354.332C572.547 356.684 573.849 358.168 575.935 358.168ZM575.935 356.726C575.011 356.726 574.423 356.124 574.423 355.018V353.66C574.423 352.568 575.011 351.966 575.935 351.966C576.873 351.966 577.461 352.568 577.461 353.66V355.018C577.461 356.124 576.873 356.726 575.935 356.726ZM585.621 358H587.413V347.64H585.621V351.896H585.551C585.299 351.056 584.501 350.524 583.535 350.524C581.701 350.524 580.679 351.896 580.679 354.332C580.679 356.782 581.701 358.168 583.535 358.168C584.501 358.168 585.285 357.608 585.551 356.782H585.621V358ZM584.109 356.684C583.185 356.684 582.555 356.012 582.555 354.976V353.716C582.555 352.68 583.185 351.994 584.109 351.994C584.963 351.994 585.621 352.456 585.621 353.17V355.494C585.621 356.25 584.963 356.684 584.109 356.684ZM592.594 358.168C593.952 358.168 595.016 357.65 595.618 356.824L594.652 355.746C594.204 356.32 593.672 356.74 592.79 356.74C591.614 356.74 591.012 356.026 591.012 354.976V354.794H595.87V354.206C595.87 352.204 594.82 350.524 592.538 350.524C590.396 350.524 589.15 352.022 589.15 354.332C589.15 356.67 590.438 358.168 592.594 358.168ZM592.566 351.868C593.49 351.868 594.008 352.554 594.008 353.562V353.688H591.012V353.576C591.012 352.568 591.628 351.868 592.566 351.868ZM608.047 358V356.502H605.807V348.228H603.021L600.599 351.112L601.747 352.078L603.875 349.558H604.001V356.502H601.313V358H608.047Z" fill="black"/>
<line x1="498" y1="329" x2="498" y2="377" stroke="#878D96" stroke-width="4"/>
</g>
<rect x="496.5" y="329.5" width="135" height="167" stroke="#8D8D8D"/>
<rect x="769.5" y="329.5" width="134" height="166" fill="white"/>
<rect x="770" y="330" width="133" height="165" fill="white"/>
<g clip-path="url(#clip4_1223_52683)">
<path d="M789.732 358L790.978 352.834L791.608 350.258H791.636L792.238 352.834L793.484 358H795.57L797.908 348.228H796.144L795.15 352.918L794.534 355.914H794.492L793.806 352.918L792.686 348.228H790.642L789.522 352.918L788.822 355.914H788.78L788.178 352.918L787.212 348.228H785.364L787.632 358H789.732ZM802.069 358.168C804.169 358.168 805.471 356.684 805.471 354.332C805.471 351.994 804.169 350.524 802.069 350.524C799.983 350.524 798.681 351.994 798.681 354.332C798.681 356.684 799.983 358.168 802.069 358.168ZM802.069 356.726C801.145 356.726 800.557 356.124 800.557 355.018V353.66C800.557 352.568 801.145 351.966 802.069 351.966C803.007 351.966 803.595 352.568 803.595 353.66V355.018C803.595 356.124 803.007 356.726 802.069 356.726ZM809.011 358V353.52C809.011 352.722 809.641 352.386 810.845 352.386H811.405V350.692H811.013C809.851 350.692 809.263 351.434 809.081 352.204H809.011V350.692H807.219V358H809.011ZM812.875 358H814.667V355.774L815.633 354.724L817.509 358H819.637L816.851 353.52L819.371 350.692H817.341L815.703 352.568L814.737 353.884H814.667V347.64H812.875V358ZM823.509 358.168C824.867 358.168 825.931 357.65 826.533 356.824L825.567 355.746C825.119 356.32 824.587 356.74 823.705 356.74C822.529 356.74 821.927 356.026 821.927 354.976V354.794H826.785V354.206C826.785 352.204 825.735 350.524 823.453 350.524C821.311 350.524 820.065 352.022 820.065 354.332C820.065 356.67 821.353 358.168 823.509 358.168ZM823.481 351.868C824.405 351.868 824.923 352.554 824.923 353.562V353.688H821.927V353.576C821.927 352.568 822.543 351.868 823.481 351.868ZM830.314 358V353.52C830.314 352.722 830.944 352.386 832.148 352.386H832.708V350.692H832.316C831.154 350.692 830.566 351.434 830.384 352.204H830.314V350.692H828.522V358H830.314ZM839.438 358V353.17C839.438 352.386 840.152 351.994 840.894 351.994C841.748 351.994 842.098 352.526 842.098 353.562V358H843.89V353.38C843.89 351.56 843.05 350.524 841.552 350.524C840.418 350.524 839.802 351.126 839.508 351.91H839.438V350.692H837.646V358H839.438ZM848.935 358.168C851.035 358.168 852.337 356.684 852.337 354.332C852.337 351.994 851.035 350.524 848.935 350.524C846.849 350.524 845.547 351.994 845.547 354.332C845.547 356.684 846.849 358.168 848.935 358.168ZM848.935 356.726C848.011 356.726 847.423 356.124 847.423 355.018V353.66C847.423 352.568 848.011 351.966 848.935 351.966C849.873 351.966 850.461 352.568 850.461 353.66V355.018C850.461 356.124 849.873 356.726 848.935 356.726ZM858.621 358H860.413V347.64H858.621V351.896H858.551C858.299 351.056 857.501 350.524 856.535 350.524C854.701 350.524 853.679 351.896 853.679 354.332C853.679 356.782 854.701 358.168 856.535 358.168C857.501 358.168 858.285 357.608 858.551 356.782H858.621V358ZM857.109 356.684C856.185 356.684 855.555 356.012 855.555 354.976V353.716C855.555 352.68 856.185 351.994 857.109 351.994C857.963 351.994 858.621 352.456 858.621 353.17V355.494C858.621 356.25 857.963 356.684 857.109 356.684ZM865.594 358.168C866.952 358.168 868.016 357.65 868.618 356.824L867.652 355.746C867.204 356.32 866.672 356.74 865.79 356.74C864.614 356.74 864.012 356.026 864.012 354.976V354.794H868.87V354.206C868.87 352.204 867.82 350.524 865.538 350.524C863.396 350.524 862.15 352.022 862.15 354.332C862.15 356.67 863.438 358.168 865.594 358.168ZM865.566 351.868C866.49 351.868 867.008 352.554 867.008 353.562V353.688H864.012V353.576C864.012 352.568 864.628 351.868 865.566 351.868ZM880.683 356.446H875.909L877.967 354.752C879.325 353.632 880.431 352.596 880.431 350.972C880.431 349.292 879.255 348.06 877.197 348.06C875.209 348.06 874.159 349.194 873.739 350.496L875.335 351.112C875.559 350.314 876.035 349.656 877.043 349.656C877.841 349.656 878.485 350.132 878.485 350.986V351.168C878.485 352.022 878.009 352.694 876.973 353.604L873.907 356.292V358H880.683V356.446Z" fill="black"/>
<line x1="771" y1="329" x2="771" y2="377" stroke="#878D96" stroke-width="4"/>
</g>
<rect x="769.5" y="329.5" width="134" height="166" stroke="#8D8D8D"/>
<rect width="48" height="48" transform="translate(536.5 393)" fill="#6F6F6F"/>
<rect width="20" height="20" transform="translate(550.5 407)" fill="white" style="mix-blend-mode:multiply"/>
<path d="M568 414.5H563V409.5H568V414.5ZM564.25 413.25H566.75V410.75H564.25V413.25Z" fill="white"/>
<path d="M561.125 416.375V412.625H556.125V421.375H564.875V416.375H561.125ZM557.375 413.875H559.875V416.375H557.375V413.875ZM559.875 420.125H557.375V417.625H559.875V420.125ZM563.625 420.125H561.125V417.625H563.625V420.125Z" fill="white"/>
<path d="M566.75 424.5H554.25C553.919 424.5 553.601 424.368 553.367 424.133C553.132 423.899 553 423.581 553 423.25V410.75C553 410.419 553.132 410.101 553.367 409.867C553.601 409.632 553.919 409.5 554.25 409.5H560.5V410.75H554.25V423.25H566.75V417H568V423.25C568 423.581 567.868 423.899 567.633 424.133C567.399 424.368 567.081 424.5 566.75 424.5Z" fill="white"/>
<path d="M533.022 463.168C534.772 463.168 535.934 462.314 536.634 460.858L535.136 459.976C534.814 460.858 534.128 461.53 533.022 461.53C531.65 461.53 530.768 460.578 530.768 458.898V457.358C530.768 455.692 531.65 454.698 533.022 454.698C534.114 454.698 534.73 455.286 535.01 456.154L536.592 455.314C535.906 453.802 534.772 453.06 533.022 453.06C530.446 453.06 528.808 454.894 528.808 458.184C528.808 461.474 530.446 463.168 533.022 463.168ZM541.156 463.168C543.256 463.168 544.558 461.684 544.558 459.332C544.558 456.994 543.256 455.524 541.156 455.524C539.07 455.524 537.768 456.994 537.768 459.332C537.768 461.684 539.07 463.168 541.156 463.168ZM541.156 461.726C540.232 461.726 539.644 461.124 539.644 460.018V458.66C539.644 457.568 540.232 456.966 541.156 456.966C542.094 456.966 542.682 457.568 542.682 458.66V460.018C542.682 461.124 542.094 461.726 541.156 461.726ZM548.099 463V458.17C548.099 457.386 548.813 456.994 549.555 456.994C550.409 456.994 550.759 457.526 550.759 458.562V463H552.551V458.38C552.551 456.56 551.711 455.524 550.213 455.524C549.079 455.524 548.463 456.126 548.169 456.91H548.099V455.692H546.307V463H548.099ZM556.979 463H558.267V461.572H556.881V457.12H558.379V455.692H556.881V453.69H555.271V454.936C555.271 455.44 555.103 455.692 554.571 455.692H554.011V457.12H555.089V461.138C555.089 462.328 555.747 463 556.979 463ZM561.9 463.168C562.992 463.168 563.79 462.678 564.028 461.74H564.112C564.224 462.496 564.7 463 565.47 463H566.464V461.572H565.736V458.128C565.736 456.462 564.686 455.524 562.712 455.524C561.242 455.524 560.388 456.084 559.856 456.924L560.92 457.876C561.27 457.372 561.746 456.952 562.586 456.952C563.538 456.952 563.944 457.428 563.944 458.24V458.772H562.698C560.71 458.772 559.576 459.514 559.576 461.012C559.576 462.314 560.416 463.168 561.9 463.168ZM562.502 461.866C561.802 461.866 561.396 461.572 561.396 460.984V460.746C561.396 460.172 561.858 459.85 562.796 459.85H563.944V460.816C563.944 461.502 563.3 461.866 562.502 461.866ZM568.97 454.628C569.698 454.628 570.02 454.25 570.02 453.732V453.452C570.02 452.934 569.698 452.556 568.97 452.556C568.228 452.556 567.92 452.934 567.92 453.452V453.732C567.92 454.25 568.228 454.628 568.97 454.628ZM568.074 463H569.866V455.692H568.074V463ZM573.895 463V458.17C573.895 457.386 574.609 456.994 575.351 456.994C576.205 456.994 576.555 457.526 576.555 458.562V463H578.347V458.38C578.347 456.56 577.507 455.524 576.009 455.524C574.875 455.524 574.259 456.126 573.965 456.91H573.895V455.692H572.103V463H573.895ZM583.448 463.168C584.806 463.168 585.87 462.65 586.472 461.824L585.506 460.746C585.058 461.32 584.526 461.74 583.644 461.74C582.468 461.74 581.866 461.026 581.866 459.976V459.794H586.724V459.206C586.724 457.204 585.674 455.524 583.392 455.524C581.25 455.524 580.004 457.022 580.004 459.332C580.004 461.67 581.292 463.168 583.448 463.168ZM583.42 456.868C584.344 456.868 584.862 457.554 584.862 458.562V458.688H581.866V458.576C581.866 457.568 582.482 456.868 583.42 456.868ZM590.252 463V458.52C590.252 457.722 590.882 457.386 592.086 457.386H592.646V455.692H592.254C591.092 455.692 590.504 456.434 590.322 457.204H590.252V455.692H588.46V463H590.252Z" fill="black"/>
<rect width="48" height="48" transform="translate(808.5 393)" fill="#6F6F6F"/>
<rect width="20" height="20" transform="translate(822.5 407)" fill="white" style="mix-blend-mode:multiply"/>
<path d="M840 414.5H835V409.5H840V414.5ZM836.25 413.25H838.75V410.75H836.25V413.25Z" fill="white"/>
<path d="M833.125 416.375V412.625H828.125V421.375H836.875V416.375H833.125ZM829.375 413.875H831.875V416.375H829.375V413.875ZM831.875 420.125H829.375V417.625H831.875V420.125ZM835.625 420.125H833.125V417.625H835.625V420.125Z" fill="white"/>
<path d="M838.75 424.5H826.25C825.919 424.5 825.601 424.368 825.367 424.133C825.132 423.899 825 423.581 825 423.25V410.75C825 410.419 825.132 410.101 825.367 409.867C825.601 409.632 825.919 409.5 826.25 409.5H832.5V410.75H826.25V423.25H838.75V417H840V423.25C840 423.581 839.868 423.899 839.633 424.133C839.399 424.368 839.081 424.5 838.75 424.5Z" fill="white"/>
<path d="M805.022 463.168C806.772 463.168 807.934 462.314 808.634 460.858L807.136 459.976C806.814 460.858 806.128 461.53 805.022 461.53C803.65 461.53 802.768 460.578 802.768 458.898V457.358C802.768 455.692 803.65 454.698 805.022 454.698C806.114 454.698 806.73 455.286 807.01 456.154L808.592 455.314C807.906 453.802 806.772 453.06 805.022 453.06C802.446 453.06 800.808 454.894 800.808 458.184C800.808 461.474 802.446 463.168 805.022 463.168ZM813.156 463.168C815.256 463.168 816.558 461.684 816.558 459.332C816.558 456.994 815.256 455.524 813.156 455.524C811.07 455.524 809.768 456.994 809.768 459.332C809.768 461.684 811.07 463.168 813.156 463.168ZM813.156 461.726C812.232 461.726 811.644 461.124 811.644 460.018V458.66C811.644 457.568 812.232 456.966 813.156 456.966C814.094 456.966 814.682 457.568 814.682 458.66V460.018C814.682 461.124 814.094 461.726 813.156 461.726ZM820.099 463V458.17C820.099 457.386 820.813 456.994 821.555 456.994C822.409 456.994 822.759 457.526 822.759 458.562V463H824.551V458.38C824.551 456.56 823.711 455.524 822.213 455.524C821.079 455.524 820.463 456.126 820.169 456.91H820.099V455.692H818.307V463H820.099ZM828.979 463H830.267V461.572H828.881V457.12H830.379V455.692H828.881V453.69H827.271V454.936C827.271 455.44 827.103 455.692 826.571 455.692H826.011V457.12H827.089V461.138C827.089 462.328 827.747 463 828.979 463ZM833.9 463.168C834.992 463.168 835.79 462.678 836.028 461.74H836.112C836.224 462.496 836.7 463 837.47 463H838.464V461.572H837.736V458.128C837.736 456.462 836.686 455.524 834.712 455.524C833.242 455.524 832.388 456.084 831.856 456.924L832.92 457.876C833.27 457.372 833.746 456.952 834.586 456.952C835.538 456.952 835.944 457.428 835.944 458.24V458.772H834.698C832.71 458.772 831.576 459.514 831.576 461.012C831.576 462.314 832.416 463.168 833.9 463.168ZM834.502 461.866C833.802 461.866 833.396 461.572 833.396 460.984V460.746C833.396 460.172 833.858 459.85 834.796 459.85H835.944V460.816C835.944 461.502 835.3 461.866 834.502 461.866ZM840.97 454.628C841.698 454.628 842.02 454.25 842.02 453.732V453.452C842.02 452.934 841.698 452.556 840.97 452.556C840.228 452.556 839.92 452.934 839.92 453.452V453.732C839.92 454.25 840.228 454.628 840.97 454.628ZM840.074 463H841.866V455.692H840.074V463ZM845.895 463V458.17C845.895 457.386 846.609 456.994 847.351 456.994C848.205 456.994 848.555 457.526 848.555 458.562V463H850.347V458.38C850.347 456.56 849.507 455.524 848.009 455.524C846.875 455.524 846.259 456.126 845.965 456.91H845.895V455.692H844.103V463H845.895ZM855.448 463.168C856.806 463.168 857.87 462.65 858.472 461.824L857.506 460.746C857.058 461.32 856.526 461.74 855.644 461.74C854.468 461.74 853.866 461.026 853.866 459.976V459.794H858.724V459.206C858.724 457.204 857.674 455.524 855.392 455.524C853.25 455.524 852.004 457.022 852.004 459.332C852.004 461.67 853.292 463.168 855.448 463.168ZM855.42 456.868C856.344 456.868 856.862 457.554 856.862 458.562V458.688H853.866V458.576C853.866 457.568 854.482 456.868 855.42 456.868ZM862.252 463V458.52C862.252 457.722 862.882 457.386 864.086 457.386H864.646V455.692H864.254C863.092 455.692 862.504 456.434 862.322 457.204H862.252V455.692H860.46V463H862.252Z" fill="black"/>
<path fill-rule="evenodd" clip-rule="evenodd" d="M344.5 369V409.015C344.5 413.149 347.851 416.5 351.985 416.5H412V414.113L417 417L412 419.887V417.5H351.985C347.299 417.5 343.5 413.701 343.5 409.015V369H344.5Z" fill="#8F8B8B"/>
<path fill-rule="evenodd" clip-rule="evenodd" d="M656.5 473V420.61C656.5 418.892 657.892 417.5 659.61 417.5H684V419.887L689 417L684 414.113V416.5H659.61C657.34 416.5 655.5 418.34 655.5 420.61V473H656.5Z" fill="#8F8B8B"/>
<path fill-rule="evenodd" clip-rule="evenodd" d="M300 297.5L336 297.5C340.142 297.5 343.5 300.858 343.5 305L343.5 401L344.5 401L344.5 305C344.5 300.306 340.694 296.5 336 296.5L300 296.5L300 297.5Z" fill="#8F8B8B"/>
<path fill-rule="evenodd" clip-rule="evenodd" d="M804 414.113L809 417L804 419.887V417.5H737V416.5H804V414.113Z" fill="#8F8B8B"/>
<path fill-rule="evenodd" clip-rule="evenodd" d="M532 414.113L537 417L532 419.887V417.5H465V416.5H532V414.113Z" fill="#8F8B8B"/>
<rect width="63" height="74" transform="translate(410 393)" fill="white" style="mix-blend-mode:multiply"/>
<rect x="418" y="393.5" width="47" height="47" fill="#EDF5FF"/>
<path d="M418.5 394H464.5V440H418.5V394Z" fill="white"/>
<path d="M418.5 394H464.5V440H418.5V394Z" fill="#EDF5FF"/>
<rect width="20" height="20" transform="translate(431.5 407)" fill="white" style="mix-blend-mode:multiply"/>
<path d="M447.125 413.875C446.405 413.876 445.707 414.125 445.15 414.581C444.592 415.036 444.208 415.67 444.063 416.375H438.937C438.782 415.616 438.351 414.942 437.727 414.483C437.103 414.024 436.331 413.813 435.561 413.891C434.79 413.969 434.076 414.33 433.557 414.904C433.038 415.479 432.75 416.226 432.75 417C432.75 417.774 433.038 418.521 433.557 419.096C434.076 419.67 434.79 420.031 435.561 420.109C436.331 420.187 437.103 419.976 437.727 419.517C438.351 419.058 438.782 418.384 438.937 417.625H444.063C444.181 418.204 444.462 418.738 444.871 419.165C445.281 419.591 445.803 419.893 446.377 420.034C446.951 420.176 447.554 420.151 448.115 419.964C448.676 419.777 449.172 419.434 449.546 418.976C449.92 418.518 450.156 417.964 450.227 417.377C450.299 416.79 450.202 416.195 449.948 415.66C449.695 415.126 449.295 414.675 448.795 414.359C448.296 414.043 447.716 413.875 447.125 413.875ZM447.125 418.875C446.754 418.875 446.392 418.765 446.083 418.559C445.775 418.353 445.535 418.06 445.393 417.718C445.251 417.375 445.214 416.998 445.286 416.634C445.358 416.27 445.537 415.936 445.799 415.674C446.061 415.412 446.396 415.233 446.759 415.161C447.123 415.089 447.5 415.126 447.843 415.268C448.185 415.41 448.478 415.65 448.684 415.958C448.89 416.267 449 416.629 449 417C449 417.497 448.802 417.974 448.45 418.325C448.099 418.677 447.622 418.874 447.125 418.875Z" fill="black"/>
<rect x="418" y="393.5" width="47" height="47" stroke="#0F62FE"/>
<path d="M417.217 463H419.247V453.228H417.497V460.27H417.455L416.447 458.24L413.507 453.228H411.477V463H413.227V455.958H413.269L414.277 457.988L417.217 463ZM424.485 463.168C426.585 463.168 427.887 461.684 427.887 459.332C427.887 456.994 426.585 455.524 424.485 455.524C422.399 455.524 421.097 456.994 421.097 459.332C421.097 461.684 422.399 463.168 424.485 463.168ZM424.485 461.726C423.561 461.726 422.973 461.124 422.973 460.018V458.66C422.973 457.568 423.561 456.966 424.485 456.966C425.423 456.966 426.011 457.568 426.011 458.66V460.018C426.011 461.124 425.423 461.726 424.485 461.726ZM434.172 463H435.964V452.64H434.172V456.896H434.102C433.85 456.056 433.052 455.524 432.086 455.524C430.252 455.524 429.23 456.896 429.23 459.332C429.23 461.782 430.252 463.168 432.086 463.168C433.052 463.168 433.836 462.608 434.102 461.782H434.172V463ZM432.66 461.684C431.736 461.684 431.106 461.012 431.106 459.976V458.716C431.106 457.68 431.736 456.994 432.66 456.994C433.514 456.994 434.172 457.456 434.172 458.17V460.494C434.172 461.25 433.514 461.684 432.66 461.684ZM441.144 463.168C442.502 463.168 443.566 462.65 444.168 461.824L443.202 460.746C442.754 461.32 442.222 461.74 441.34 461.74C440.164 461.74 439.562 461.026 439.562 459.976V459.794H444.42V459.206C444.42 457.204 443.37 455.524 441.088 455.524C438.946 455.524 437.7 457.022 437.7 459.332C437.7 461.67 438.988 463.168 441.144 463.168ZM441.116 456.868C442.04 456.868 442.558 457.554 442.558 458.562V458.688H439.562V458.576C439.562 457.568 440.178 456.868 441.116 456.868ZM446.157 465.8H447.949V461.782H448.005C448.285 462.608 449.055 463.168 450.021 463.168C451.869 463.168 452.891 461.782 452.891 459.332C452.891 456.896 451.869 455.524 450.021 455.524C449.055 455.524 448.271 456.056 448.005 456.896H447.949V455.692H446.157V465.8ZM449.447 461.684C448.593 461.684 447.949 461.25 447.949 460.494V458.17C447.949 457.456 448.593 456.994 449.447 456.994C450.371 456.994 451.015 457.68 451.015 458.716V459.976C451.015 461.012 450.371 461.684 449.447 461.684ZM457.61 463.168C459.71 463.168 461.012 461.684 461.012 459.332C461.012 456.994 459.71 455.524 457.61 455.524C455.524 455.524 454.222 456.994 454.222 459.332C454.222 461.684 455.524 463.168 457.61 463.168ZM457.61 461.726C456.686 461.726 456.098 461.124 456.098 460.018V458.66C456.098 457.568 456.686 456.966 457.61 456.966C458.548 456.966 459.136 457.568 459.136 458.66V460.018C459.136 461.124 458.548 461.726 457.61 461.726ZM464.552 463V458.52C464.552 457.722 465.182 457.386 466.386 457.386H466.946V455.692H466.554C465.392 455.692 464.804 456.434 464.622 457.204H464.552V455.692H462.76V463H464.552ZM470.753 463H472.041V461.572H470.655V457.12H472.153V455.692H470.655V453.69H469.045V454.936C469.045 455.44 468.877 455.692 468.345 455.692H467.785V457.12H468.863V461.138C468.863 462.328 469.521 463 470.753 463Z" fill="black"/>
<rect width="63" height="74" transform="translate(681 393)" fill="white" style="mix-blend-mode:multiply"/>
<rect x="689" y="393.5" width="47" height="47" fill="#EDF5FF"/>
<path d="M689.5 394H735.5V440H689.5V394Z" fill="white"/>
<path d="M689.5 394H735.5V440H689.5V394Z" fill="#EDF5FF"/>
<rect width="20" height="20" transform="translate(702.5 407)" fill="white" style="mix-blend-mode:multiply"/>
<path d="M718.125 413.875C717.405 413.876 716.707 414.125 716.15 414.581C715.592 415.036 715.208 415.67 715.063 416.375H709.937C709.782 415.616 709.351 414.942 708.727 414.483C708.103 414.024 707.331 413.813 706.561 413.891C705.79 413.969 705.076 414.33 704.557 414.904C704.038 415.479 703.75 416.226 703.75 417C703.75 417.774 704.038 418.521 704.557 419.096C705.076 419.67 705.79 420.031 706.561 420.109C707.331 420.187 708.103 419.976 708.727 419.517C709.351 419.058 709.782 418.384 709.937 417.625H715.063C715.181 418.204 715.462 418.738 715.871 419.165C716.281 419.591 716.803 419.893 717.377 420.034C717.951 420.176 718.554 420.151 719.115 419.964C719.676 419.777 720.172 419.434 720.546 418.976C720.92 418.518 721.156 417.964 721.227 417.377C721.299 416.79 721.202 416.195 720.948 415.66C720.695 415.126 720.295 414.675 719.795 414.359C719.296 414.043 718.716 413.875 718.125 413.875ZM718.125 418.875C717.754 418.875 717.392 418.765 717.083 418.559C716.775 418.353 716.535 418.06 716.393 417.718C716.251 417.375 716.214 416.998 716.286 416.634C716.358 416.27 716.537 415.936 716.799 415.674C717.061 415.412 717.396 415.233 717.759 415.161C718.123 415.089 718.5 415.126 718.843 415.268C719.185 415.41 719.478 415.65 719.684 415.958C719.89 416.267 720 416.629 720 417C720 417.497 719.802 417.974 719.45 418.325C719.099 418.677 718.622 418.874 718.125 418.875Z" fill="black"/>
<rect x="689" y="393.5" width="47" height="47" stroke="#0F62FE"/>
<path d="M688.217 463H690.247V453.228H688.497V460.27H688.455L687.447 458.24L684.507 453.228H682.477V463H684.227V455.958H684.269L685.277 457.988L688.217 463ZM695.485 463.168C697.585 463.168 698.887 461.684 698.887 459.332C698.887 456.994 697.585 455.524 695.485 455.524C693.399 455.524 692.097 456.994 692.097 459.332C692.097 461.684 693.399 463.168 695.485 463.168ZM695.485 461.726C694.561 461.726 693.973 461.124 693.973 460.018V458.66C693.973 457.568 694.561 456.966 695.485 456.966C696.423 456.966 697.011 457.568 697.011 458.66V460.018C697.011 461.124 696.423 461.726 695.485 461.726ZM705.172 463H706.964V452.64H705.172V456.896H705.102C704.85 456.056 704.052 455.524 703.086 455.524C701.252 455.524 700.23 456.896 700.23 459.332C700.23 461.782 701.252 463.168 703.086 463.168C704.052 463.168 704.836 462.608 705.102 461.782H705.172V463ZM703.66 461.684C702.736 461.684 702.106 461.012 702.106 459.976V458.716C702.106 457.68 702.736 456.994 703.66 456.994C704.514 456.994 705.172 457.456 705.172 458.17V460.494C705.172 461.25 704.514 461.684 703.66 461.684ZM712.144 463.168C713.502 463.168 714.566 462.65 715.168 461.824L714.202 460.746C713.754 461.32 713.222 461.74 712.34 461.74C711.164 461.74 710.562 461.026 710.562 459.976V459.794H715.42V459.206C715.42 457.204 714.37 455.524 712.088 455.524C709.946 455.524 708.7 457.022 708.7 459.332C708.7 461.67 709.988 463.168 712.144 463.168ZM712.116 456.868C713.04 456.868 713.558 457.554 713.558 458.562V458.688H710.562V458.576C710.562 457.568 711.178 456.868 712.116 456.868ZM717.157 465.8H718.949V461.782H719.005C719.285 462.608 720.055 463.168 721.021 463.168C722.869 463.168 723.891 461.782 723.891 459.332C723.891 456.896 722.869 455.524 721.021 455.524C720.055 455.524 719.271 456.056 719.005 456.896H718.949V455.692H717.157V465.8ZM720.447 461.684C719.593 461.684 718.949 461.25 718.949 460.494V458.17C718.949 457.456 719.593 456.994 720.447 456.994C721.371 456.994 722.015 457.68 722.015 458.716V459.976C722.015 461.012 721.371 461.684 720.447 461.684ZM728.61 463.168C730.71 463.168 732.012 461.684 732.012 459.332C732.012 456.994 730.71 455.524 728.61 455.524C726.524 455.524 725.222 456.994 725.222 459.332C725.222 461.684 726.524 463.168 728.61 463.168ZM728.61 461.726C727.686 461.726 727.098 461.124 727.098 460.018V458.66C727.098 457.568 727.686 456.966 728.61 456.966C729.548 456.966 730.136 457.568 730.136 458.66V460.018C730.136 461.124 729.548 461.726 728.61 461.726ZM735.552 463V458.52C735.552 457.722 736.182 457.386 737.386 457.386H737.946V455.692H737.554C736.392 455.692 735.804 456.434 735.622 457.204H735.552V455.692H733.76V463H735.552ZM741.753 463H743.041V461.572H741.655V457.12H743.153V455.692H741.655V453.69H740.045V454.936C740.045 455.44 739.877 455.692 739.345 455.692H738.785V457.12H739.863V461.138C739.863 462.328 740.521 463 741.753 463Z" fill="black"/>
<path fill-rule="evenodd" clip-rule="evenodd" d="M344.5 504L344.5 379L343.5 379L343.5 504C343.5 508.694 347.306 512.5 352 512.5L648 512.5C652.694 512.5 656.5 508.694 656.5 504L656.5 473L655.5 473L655.5 504C655.5 508.142 652.142 511.5 648 511.5L352 511.5C347.858 511.5 344.5 508.142 344.5 504Z" fill="#8F8B8B"/>
<rect width="91" height="110" transform="translate(235 273)" fill="white" style="mix-blend-mode:multiply"/>
<rect x="257" y="273.5" width="47" height="47" fill="#F6F2FF"/>
<path d="M257.5 274H303.5V320H257.5V274Z" fill="white"/>
<path d="M257.5 274H303.5V320H257.5V274Z" fill="#F6F2FF"/>
<rect width="20" height="20" transform="translate(270.5 287)" fill="white" style="mix-blend-mode:multiply"/>
<path d="M275.5 303.25H273V305.75H275.5V303.25Z" fill="black"/>
<path d="M281.75 303.25H279.25V305.75H281.75V303.25Z" fill="black"/>
<path d="M288 303.25H285.5V305.75H288V303.25Z" fill="black"/>
<path d="M286.125 297H281.125V295.75H279.875V297H274.875C274.544 297 274.226 297.132 273.992 297.367C273.757 297.601 273.625 297.919 273.625 298.25V302H274.875V298.25H279.875V302H281.125V298.25H286.125V302H287.375V298.25C287.375 297.919 287.243 297.601 287.008 297.367C286.774 297.132 286.456 297 286.125 297Z" fill="black"/>
<path d="M276.125 288.25V294.5H284.875V288.25H276.125ZM277.375 289.5H278.625V293.25H277.375V289.5ZM283.625 293.25H279.875V289.5H283.625V293.25Z" fill="black"/>
<rect x="257" y="273.5" width="47" height="47" stroke="#A56EFF"/>
<path d="M251.64 343L248.392 333.228H246.096L242.82 343H244.696L245.466 340.508H248.938L249.722 343H251.64ZM248.49 338.926H245.914L247.16 334.908H247.23L248.49 338.926ZM253.128 345.8H254.92V341.782H254.976C255.256 342.608 256.026 343.168 256.992 343.168C258.84 343.168 259.862 341.782 259.862 339.332C259.862 336.896 258.84 335.524 256.992 335.524C256.026 335.524 255.242 336.056 254.976 336.896H254.92V335.692H253.128V345.8ZM256.418 341.684C255.564 341.684 254.92 341.25 254.92 340.494V338.17C254.92 337.456 255.564 336.994 256.418 336.994C257.342 336.994 257.986 337.68 257.986 338.716V339.976C257.986 341.012 257.342 341.684 256.418 341.684ZM261.683 345.8H263.475V341.782H263.531C263.811 342.608 264.581 343.168 265.547 343.168C267.395 343.168 268.417 341.782 268.417 339.332C268.417 336.896 267.395 335.524 265.547 335.524C264.581 335.524 263.797 336.056 263.531 336.896H263.475V335.692H261.683V345.8ZM264.973 341.684C264.119 341.684 263.475 341.25 263.475 340.494V338.17C263.475 337.456 264.119 336.994 264.973 336.994C265.897 336.994 266.541 337.68 266.541 338.716V339.976C266.541 341.012 265.897 341.684 264.973 341.684ZM272.995 343V341.572H272.029V332.64H270.237V341.236C270.237 342.356 270.811 343 272.029 343H272.995ZM275.409 334.628C276.137 334.628 276.459 334.25 276.459 333.732V333.452C276.459 332.934 276.137 332.556 275.409 332.556C274.667 332.556 274.359 332.934 274.359 333.452V333.732C274.359 334.25 274.667 334.628 275.409 334.628ZM274.513 343H276.305V335.692H274.513V343ZM281.426 343.168C282.84 343.168 283.862 342.524 284.338 341.236L282.966 340.578C282.7 341.236 282.28 341.726 281.426 341.726C280.432 341.726 279.928 341.04 279.928 340.018V338.688C279.928 337.666 280.432 336.966 281.426 336.966C282.196 336.966 282.658 337.414 282.826 338.03L284.296 337.372C283.862 336.224 282.896 335.524 281.426 335.524C279.27 335.524 278.052 336.994 278.052 339.332C278.052 341.684 279.27 343.168 281.426 343.168ZM287.686 343.168C288.778 343.168 289.576 342.678 289.814 341.74H289.898C290.01 342.496 290.486 343 291.256 343H292.25V341.572H291.522V338.128C291.522 336.462 290.472 335.524 288.498 335.524C287.028 335.524 286.174 336.084 285.642 336.924L286.706 337.876C287.056 337.372 287.532 336.952 288.372 336.952C289.324 336.952 289.73 337.428 289.73 338.24V338.772H288.484C286.496 338.772 285.362 339.514 285.362 341.012C285.362 342.314 286.202 343.168 287.686 343.168ZM288.288 341.866C287.588 341.866 287.182 341.572 287.182 340.984V340.746C287.182 340.172 287.644 339.85 288.582 339.85H289.73V340.816C289.73 341.502 289.086 341.866 288.288 341.866ZM296.087 343H297.375V341.572H295.989V337.12H297.487V335.692H295.989V333.69H294.379V334.936C294.379 335.44 294.211 335.692 293.679 335.692H293.119V337.12H294.197V341.138C294.197 342.328 294.855 343 296.087 343ZM300.098 334.628C300.826 334.628 301.148 334.25 301.148 333.732V333.452C301.148 332.934 300.826 332.556 300.098 332.556C299.356 332.556 299.048 332.934 299.048 333.452V333.732C299.048 334.25 299.356 334.628 300.098 334.628ZM299.202 343H300.994V335.692H299.202V343ZM306.129 343.168C308.229 343.168 309.531 341.684 309.531 339.332C309.531 336.994 308.229 335.524 306.129 335.524C304.043 335.524 302.741 336.994 302.741 339.332C302.741 341.684 304.043 343.168 306.129 343.168ZM306.129 341.726C305.205 341.726 304.617 341.124 304.617 340.018V338.66C304.617 337.568 305.205 336.966 306.129 336.966C307.067 336.966 307.655 337.568 307.655 338.66V340.018C307.655 341.124 307.067 341.726 306.129 341.726ZM313.071 343V338.17C313.071 337.386 313.785 336.994 314.527 336.994C315.381 336.994 315.731 337.526 315.731 338.562V343H317.523V338.38C317.523 336.56 316.683 335.524 315.185 335.524C314.051 335.524 313.435 336.126 313.141 336.91H313.071V335.692H311.279V343H313.071ZM241.991 361V359.362H238.141V351.228H236.293V361H241.991ZM246.403 361.168C248.503 361.168 249.805 359.684 249.805 357.332C249.805 354.994 248.503 353.524 246.403 353.524C244.317 353.524 243.015 354.994 243.015 357.332C243.015 359.684 244.317 361.168 246.403 361.168ZM246.403 359.726C245.479 359.726 244.891 359.124 244.891 358.018V356.66C244.891 355.568 245.479 354.966 246.403 354.966C247.341 354.966 247.929 355.568 247.929 356.66V358.018C247.929 359.124 247.341 359.726 246.403 359.726ZM253.36 361.168C254.452 361.168 255.25 360.678 255.488 359.74H255.572C255.684 360.496 256.16 361 256.93 361H257.924V359.572H257.196V356.128C257.196 354.462 256.146 353.524 254.172 353.524C252.702 353.524 251.848 354.084 251.316 354.924L252.38 355.876C252.73 355.372 253.206 354.952 254.046 354.952C254.998 354.952 255.404 355.428 255.404 356.24V356.772H254.158C252.17 356.772 251.036 357.514 251.036 359.012C251.036 360.314 251.876 361.168 253.36 361.168ZM253.962 359.866C253.262 359.866 252.856 359.572 252.856 358.984V358.746C252.856 358.172 253.318 357.85 254.256 357.85H255.404V358.816C255.404 359.502 254.76 359.866 253.962 359.866ZM264.07 361H265.862V350.64H264.07V354.896H264C263.748 354.056 262.95 353.524 261.984 353.524C260.15 353.524 259.128 354.896 259.128 357.332C259.128 359.782 260.15 361.168 261.984 361.168C262.95 361.168 263.734 360.608 264 359.782H264.07V361ZM262.558 359.684C261.634 359.684 261.004 359.012 261.004 357.976V356.716C261.004 355.68 261.634 354.994 262.558 354.994C263.412 354.994 264.07 355.456 264.07 356.17V358.494C264.07 359.25 263.412 359.684 262.558 359.684ZM268.201 361H273.157C274.599 361 275.677 359.768 275.677 358.2C275.677 356.534 274.417 355.932 273.563 355.918V355.834C274.459 355.778 275.313 355.218 275.313 353.734C275.313 352.222 274.333 351.228 272.723 351.228H268.201V361ZM270.049 356.814H272.625C273.325 356.814 273.745 357.206 273.745 357.892V358.368C273.745 359.054 273.325 359.432 272.625 359.432H270.049V356.814ZM270.049 352.796H272.331C273.003 352.796 273.395 353.174 273.395 353.832V354.266C273.395 354.91 273.003 355.302 272.331 355.302H270.049V352.796ZM279.338 361.168C280.43 361.168 281.228 360.678 281.466 359.74H281.55C281.662 360.496 282.138 361 282.908 361H283.902V359.572H283.174V356.128C283.174 354.462 282.124 353.524 280.15 353.524C278.68 353.524 277.826 354.084 277.294 354.924L278.358 355.876C278.708 355.372 279.184 354.952 280.024 354.952C280.976 354.952 281.382 355.428 281.382 356.24V356.772H280.136C278.148 356.772 277.014 357.514 277.014 359.012C277.014 360.314 277.854 361.168 279.338 361.168ZM279.94 359.866C279.24 359.866 278.834 359.572 278.834 358.984V358.746C278.834 358.172 279.296 357.85 280.234 357.85H281.382V358.816C281.382 359.502 280.738 359.866 279.94 359.866ZM288.27 361V359.572H287.304V350.64H285.512V359.236C285.512 360.356 286.086 361 287.304 361H288.27ZM291.594 361.168C292.686 361.168 293.484 360.678 293.722 359.74H293.806C293.918 360.496 294.394 361 295.164 361H296.158V359.572H295.43V356.128C295.43 354.462 294.38 353.524 292.406 353.524C290.936 353.524 290.082 354.084 289.55 354.924L290.614 355.876C290.964 355.372 291.44 354.952 292.28 354.952C293.232 354.952 293.638 355.428 293.638 356.24V356.772H292.392C290.404 356.772 289.27 357.514 289.27 359.012C289.27 360.314 290.11 361.168 291.594 361.168ZM292.196 359.866C291.496 359.866 291.09 359.572 291.09 358.984V358.746C291.09 358.172 291.552 357.85 292.49 357.85H293.638V358.816C293.638 359.502 292.994 359.866 292.196 359.866ZM299.56 361V356.17C299.56 355.386 300.274 354.994 301.016 354.994C301.87 354.994 302.22 355.526 302.22 356.562V361H304.012V356.38C304.012 354.56 303.172 353.524 301.674 353.524C300.54 353.524 299.924 354.126 299.63 354.91H299.56V353.692H297.768V361H299.56ZM309.042 361.168C310.456 361.168 311.478 360.524 311.954 359.236L310.582 358.578C310.316 359.236 309.896 359.726 309.042 359.726C308.048 359.726 307.544 359.04 307.544 358.018V356.688C307.544 355.666 308.048 354.966 309.042 354.966C309.812 354.966 310.274 355.414 310.442 356.03L311.912 355.372C311.478 354.224 310.512 353.524 309.042 353.524C306.886 353.524 305.668 354.994 305.668 357.332C305.668 359.684 306.886 361.168 309.042 361.168ZM316.382 361.168C317.74 361.168 318.804 360.65 319.406 359.824L318.44 358.746C317.992 359.32 317.46 359.74 316.578 359.74C315.402 359.74 314.8 359.026 314.8 357.976V357.794H319.658V357.206C319.658 355.204 318.608 353.524 316.326 353.524C314.184 353.524 312.938 355.022 312.938 357.332C312.938 359.67 314.226 361.168 316.382 361.168ZM316.354 354.868C317.278 354.868 317.796 355.554 317.796 356.562V356.688H314.8V356.576C314.8 355.568 315.416 354.868 316.354 354.868ZM323.187 361V356.52C323.187 355.722 323.817 355.386 325.021 355.386H325.581V353.692H325.189C324.027 353.692 323.439 354.434 323.257 355.204H323.187V353.692H321.395V361H323.187ZM247.688 374.632C247.688 377.362 248.78 379.756 250.152 380.932H251.846C250.348 379.574 249.368 377.488 249.368 375.164V374.128C249.368 371.86 250.334 369.76 251.846 368.36H250.152C248.752 369.578 247.688 371.93 247.688 374.632ZM253.013 379H254.763V371.986H254.819L255.575 373.54L257.577 377.236L259.579 373.54L260.335 371.986H260.391V379H262.141V369.228H260.139L257.661 374.002H257.605L255.099 369.228H253.013V379ZM268.858 379H270.65V371.692H268.858V376.522C268.858 377.306 268.144 377.684 267.43 377.684C266.576 377.684 266.198 377.138 266.198 376.13V371.692H264.406V376.312C264.406 378.132 265.246 379.168 266.744 379.168C267.948 379.168 268.536 378.51 268.788 377.782H268.858V379ZM275.639 379V377.572H274.673V368.64H272.881V377.236C272.881 378.356 273.455 379 274.673 379H275.639ZM279.37 379H280.658V377.572H279.272V373.12H280.77V371.692H279.272V369.69H277.662V370.936C277.662 371.44 277.494 371.692 276.962 371.692H276.402V373.12H277.48V377.138C277.48 378.328 278.138 379 279.37 379ZM283.38 370.628C284.108 370.628 284.43 370.25 284.43 369.732V369.452C284.43 368.934 284.108 368.556 283.38 368.556C282.638 368.556 282.33 368.934 282.33 369.452V369.732C282.33 370.25 282.638 370.628 283.38 370.628ZM282.484 379H284.276V371.692H282.484V379ZM290.293 375.626V373.848H286.289V375.626H290.293ZM300.165 379L296.917 369.228H294.621L291.345 379H293.221L293.991 376.508H297.463L298.247 379H300.165ZM297.015 374.926H294.439L295.685 370.908H295.755L297.015 374.926ZM308.472 377.362H303.264L308.332 370.88V369.228H301.402V370.866H306.204L301.15 377.348V379H308.472V377.362ZM313.313 374.632C313.313 371.93 312.249 369.578 310.849 368.36H309.155C310.667 369.76 311.633 371.86 311.633 374.128V375.164C311.633 377.488 310.653 379.574 309.155 380.932H310.849C312.221 379.756 313.313 377.362 313.313 374.632Z" fill="black"/>
<defs>
<clipPath id="clip0_1223_52683">
<rect width="89" height="48" fill="white" transform="translate(191 97)"/>
</clipPath>
<clipPath id="clip1_1223_52683">
<rect width="104" height="48" fill="white" transform="translate(369 208)"/>
</clipPath>
<clipPath id="clip2_1223_52683">
<rect width="104" height="48" fill="white" transform="translate(672 208)"/>
</clipPath>
<clipPath id="clip3_1223_52683">
<rect width="136" height="48" fill="white" transform="translate(496 329)"/>
</clipPath>
<clipPath id="clip4_1223_52683">
<rect width="135" height="48" fill="white" transform="translate(769 329)"/>
</clipPath>
</defs>
</svg>
