<svg width="1080" height="720" viewBox="0 0 1080 720" fill="none" xmlns="http://www.w3.org/2000/svg">
<rect width="1080" height="720" fill="#F4F4F4"/>
<rect x="48.5" y="657.5" width="15" height="15" rx="3.5" fill="white" style="mix-blend-mode:multiply"/>
<rect x="48.5" y="657.5" width="15" height="15" rx="3.5" stroke="#8D8D8D"/>
<path d="M78.636 670V668.964H74.478V660.228H73.302V670H78.636ZM82.957 670.168C84.889 670.168 86.219 668.684 86.219 666.388C86.219 664.092 84.889 662.608 82.957 662.608C81.025 662.608 79.695 664.092 79.695 666.388C79.695 668.684 81.025 670.168 82.957 670.168ZM82.957 669.174C81.753 669.174 80.899 668.432 80.899 666.906V665.87C80.899 664.344 81.753 663.602 82.957 663.602C84.161 663.602 85.015 664.344 85.015 665.87V666.906C85.015 668.432 84.161 669.174 82.957 669.174ZM94.3109 670.798C94.3109 669.608 93.5409 668.88 91.7489 668.88H90.2089C89.5509 668.88 89.1029 668.768 89.1029 668.334C89.1029 667.886 89.5789 667.648 90.0549 667.522C90.2649 667.564 90.5169 667.592 90.7549 667.592C92.4069 667.592 93.4849 666.57 93.4849 665.1C93.4849 664.33 93.1769 663.686 92.6589 663.238V662.776H94.0309V661.796H92.9529C92.3509 661.796 92.1129 662.202 92.1129 662.762V662.888C91.7209 662.706 91.2589 662.608 90.7409 662.608C89.1029 662.608 88.0249 663.63 88.0249 665.1C88.0249 666.108 88.5289 666.906 89.3829 667.312V667.368C88.6549 667.55 88.1369 667.9 88.1369 668.628C88.1369 669.118 88.3749 669.44 88.7809 669.636V669.79C88.0669 669.986 87.6329 670.406 87.6329 671.19C87.6329 672.324 88.5569 672.968 90.8109 672.968C93.1349 672.968 94.3109 672.282 94.3109 670.798ZM93.2609 670.882C93.2609 671.666 92.5329 672.058 91.2869 672.058H90.2509C89.1169 672.058 88.6829 671.54 88.6829 670.91C88.6829 670.462 88.8929 670.14 89.3549 669.93H91.7629C92.8829 669.93 93.2609 670.308 93.2609 670.882ZM90.7549 666.696C89.8029 666.696 89.2009 666.248 89.2009 665.296V664.904C89.2009 663.952 89.8029 663.504 90.7549 663.504C91.7069 663.504 92.3089 663.952 92.3089 664.904V665.296C92.3089 666.248 91.7069 666.696 90.7549 666.696ZM96.3374 661.082C96.8134 661.082 97.0234 660.83 97.0234 660.452V660.27C97.0234 659.892 96.8134 659.64 96.3374 659.64C95.8614 659.64 95.6514 659.892 95.6514 660.27V660.452C95.6514 660.83 95.8614 661.082 96.3374 661.082ZM95.7774 670H96.8974V662.776H95.7774V670ZM102.125 670.168C103.497 670.168 104.435 669.496 104.897 668.46L104.085 667.914C103.693 668.74 103.035 669.174 102.125 669.174C100.795 669.174 100.109 668.264 100.109 667.004V665.772C100.109 664.512 100.795 663.602 102.125 663.602C103.007 663.602 103.623 664.036 103.889 664.778L104.827 664.302C104.407 663.308 103.553 662.608 102.125 662.608C100.095 662.608 98.9054 664.078 98.9054 666.388C98.9054 668.698 100.095 670.168 102.125 670.168ZM112.518 670V669.02H111.692V665.044C111.692 663.518 110.656 662.608 108.92 662.608C107.618 662.608 106.75 663.252 106.358 664.022L107.03 664.652C107.422 663.994 107.996 663.574 108.864 663.574C110.012 663.574 110.572 664.134 110.572 665.156V665.87H109.144C107.044 665.87 106.064 666.626 106.064 667.984C106.064 669.328 106.96 670.168 108.486 670.168C109.494 670.168 110.264 669.706 110.572 668.824H110.642C110.726 669.496 111.062 670 111.888 670H112.518ZM108.668 669.216C107.8 669.216 107.24 668.81 107.24 668.096V667.802C107.24 667.102 107.814 666.71 109.088 666.71H110.572V667.9C110.572 668.642 109.774 669.216 108.668 669.216ZM116.461 670V669.02H115.397V659.64H114.277V668.838C114.277 669.51 114.697 670 115.467 670H116.461ZM122.84 670V664.988C122.84 664.064 123.708 663.616 124.604 663.616C125.682 663.616 126.242 664.274 126.242 665.562V670H127.362V665.366C127.362 663.616 126.424 662.608 124.94 662.608C123.862 662.608 123.246 663.14 122.896 663.952H122.84V662.776H121.72V670H122.84ZM132.567 670.168C134.499 670.168 135.829 668.684 135.829 666.388C135.829 664.092 134.499 662.608 132.567 662.608C130.635 662.608 129.305 664.092 129.305 666.388C129.305 668.684 130.635 670.168 132.567 670.168ZM132.567 669.174C131.363 669.174 130.509 668.432 130.509 666.906V665.87C130.509 664.344 131.363 663.602 132.567 663.602C133.771 663.602 134.625 664.344 134.625 665.87V666.906C134.625 668.432 133.771 669.174 132.567 669.174ZM142.451 670H143.571V659.64H142.451V663.952H142.395C142.017 663.042 141.275 662.608 140.281 662.608C138.475 662.608 137.341 664.078 137.341 666.388C137.341 668.698 138.475 670.168 140.281 670.168C141.275 670.168 141.961 669.72 142.395 668.824H142.451V670ZM140.589 669.16C139.329 669.16 138.545 668.292 138.545 667.004V665.772C138.545 664.484 139.329 663.616 140.589 663.616C141.611 663.616 142.451 664.204 142.451 665.002V667.69C142.451 668.628 141.611 669.16 140.589 669.16ZM148.828 670.168C150.186 670.168 151.222 669.496 151.684 668.516L150.886 667.942C150.508 668.74 149.808 669.188 148.898 669.188C147.554 669.188 146.756 668.25 146.756 667.004V666.668H151.95V666.136C151.95 664.092 150.76 662.608 148.828 662.608C146.868 662.608 145.58 664.092 145.58 666.388C145.58 668.684 146.868 670.168 148.828 670.168ZM148.828 663.546C149.976 663.546 150.746 664.4 150.746 665.674V665.828H146.756V665.73C146.756 664.47 147.61 663.546 148.828 663.546Z" fill="#6F6F6F"/>
<rect x="169.5" y="657.5" width="15" height="15" fill="#F4F4F4"/>
<rect x="169.5" y="657.5" width="15" height="15" stroke="#8D8D8D"/>
<path d="M195.478 670V665.828H198.194C199.944 665.828 200.924 664.75 200.924 663.028C200.924 661.306 199.944 660.228 198.194 660.228H194.302V670H195.478ZM195.478 661.264H198.194C199.118 661.264 199.664 661.768 199.664 662.664V663.392C199.664 664.288 199.118 664.792 198.194 664.792H195.478V661.264ZM203.824 670V665.1C203.824 664.414 204.552 663.896 205.756 663.896H206.414V662.776H205.98C204.804 662.776 204.146 663.42 203.894 664.106H203.824V662.776H202.704V670H203.824ZM210.652 670.168C212.01 670.168 213.046 669.496 213.508 668.516L212.71 667.942C212.332 668.74 211.632 669.188 210.722 669.188C209.378 669.188 208.58 668.25 208.58 667.004V666.668H213.774V666.136C213.774 664.092 212.584 662.608 210.652 662.608C208.692 662.608 207.404 664.092 207.404 666.388C207.404 668.684 208.692 670.168 210.652 670.168ZM210.652 663.546C211.8 663.546 212.57 664.4 212.57 665.674V665.828H208.58V665.73C208.58 664.47 209.434 663.546 210.652 663.546ZM217.949 670.168C219.601 670.168 220.623 669.314 220.623 667.914C220.623 666.822 220.007 666.122 218.411 665.884L217.851 665.8C216.955 665.66 216.465 665.38 216.465 664.68C216.465 663.994 216.955 663.56 217.879 663.56C218.803 663.56 219.419 663.994 219.741 664.442L220.483 663.77C219.895 663.042 219.125 662.608 217.963 662.608C216.493 662.608 215.387 663.308 215.387 664.736C215.387 666.08 216.381 666.626 217.711 666.822L218.285 666.906C219.237 667.046 219.545 667.48 219.545 668.04C219.545 668.782 218.985 669.216 218.033 669.216C217.123 669.216 216.451 668.81 215.891 668.11L215.093 668.754C215.737 669.608 216.619 670.168 217.949 670.168ZM225.45 670.168C226.822 670.168 227.76 669.496 228.222 668.46L227.41 667.914C227.018 668.74 226.36 669.174 225.45 669.174C224.12 669.174 223.434 668.264 223.434 667.004V665.772C223.434 664.512 224.12 663.602 225.45 663.602C226.332 663.602 226.948 664.036 227.214 664.778L228.152 664.302C227.732 663.308 226.878 662.608 225.45 662.608C223.42 662.608 222.23 664.078 222.23 666.388C222.23 668.698 223.42 670.168 225.45 670.168ZM231.083 670V665.1C231.083 664.414 231.811 663.896 233.015 663.896H233.673V662.776H233.239C232.063 662.776 231.405 663.42 231.153 664.106H231.083V662.776H229.963V670H231.083ZM235.823 661.082C236.299 661.082 236.509 660.83 236.509 660.452V660.27C236.509 659.892 236.299 659.64 235.823 659.64C235.347 659.64 235.137 659.892 235.137 660.27V660.452C235.137 660.83 235.347 661.082 235.823 661.082ZM235.263 670H236.383V662.776H235.263V670ZM238.923 670H240.043V668.824H240.099C240.533 669.72 241.219 670.168 242.213 670.168C244.019 670.168 245.153 668.698 245.153 666.388C245.153 664.078 244.019 662.608 242.213 662.608C241.219 662.608 240.477 663.042 240.099 663.952H240.043V659.64H238.923V670ZM241.905 669.16C240.883 669.16 240.043 668.628 240.043 667.69V665.002C240.043 664.204 240.883 663.616 241.905 663.616C243.165 663.616 243.949 664.484 243.949 665.772V667.004C243.949 668.292 243.165 669.16 241.905 669.16ZM249.92 670.168C251.278 670.168 252.314 669.496 252.776 668.516L251.978 667.942C251.6 668.74 250.9 669.188 249.99 669.188C248.646 669.188 247.848 668.25 247.848 667.004V666.668H253.042V666.136C253.042 664.092 251.852 662.608 249.92 662.608C247.96 662.608 246.672 664.092 246.672 666.388C246.672 668.684 247.96 670.168 249.92 670.168ZM249.92 663.546C251.068 663.546 251.838 664.4 251.838 665.674V665.828H247.848V665.73C247.848 664.47 248.702 663.546 249.92 663.546ZM259.668 670H260.788V659.64H259.668V663.952H259.612C259.234 663.042 258.492 662.608 257.498 662.608C255.692 662.608 254.558 664.078 254.558 666.388C254.558 668.698 255.692 670.168 257.498 670.168C258.492 670.168 259.178 669.72 259.612 668.824H259.668V670ZM257.806 669.16C256.546 669.16 255.762 668.292 255.762 667.004V665.772C255.762 664.484 256.546 663.616 257.806 663.616C258.828 663.616 259.668 664.204 259.668 665.002V667.69C259.668 668.628 258.828 669.16 257.806 669.16ZM267.918 670V664.988C267.918 664.064 268.786 663.616 269.682 663.616C270.76 663.616 271.32 664.274 271.32 665.562V670H272.44V665.366C272.44 663.616 271.502 662.608 270.018 662.608C268.94 662.608 268.324 663.14 267.974 663.952H267.918V662.776H266.798V670H267.918ZM277.645 670.168C279.577 670.168 280.907 668.684 280.907 666.388C280.907 664.092 279.577 662.608 277.645 662.608C275.713 662.608 274.383 664.092 274.383 666.388C274.383 668.684 275.713 670.168 277.645 670.168ZM277.645 669.174C276.441 669.174 275.587 668.432 275.587 666.906V665.87C275.587 664.344 276.441 663.602 277.645 663.602C278.849 663.602 279.703 664.344 279.703 665.87V666.906C279.703 668.432 278.849 669.174 277.645 669.174ZM287.529 670H288.649V659.64H287.529V663.952H287.473C287.095 663.042 286.353 662.608 285.359 662.608C283.553 662.608 282.419 664.078 282.419 666.388C282.419 668.698 283.553 670.168 285.359 670.168C286.353 670.168 287.039 669.72 287.473 668.824H287.529V670ZM285.667 669.16C284.407 669.16 283.623 668.292 283.623 667.004V665.772C283.623 664.484 284.407 663.616 285.667 663.616C286.689 663.616 287.529 664.204 287.529 665.002V667.69C287.529 668.628 286.689 669.16 285.667 669.16ZM293.906 670.168C295.264 670.168 296.3 669.496 296.762 668.516L295.964 667.942C295.586 668.74 294.886 669.188 293.976 669.188C292.632 669.188 291.834 668.25 291.834 667.004V666.668H297.028V666.136C297.028 664.092 295.838 662.608 293.906 662.608C291.946 662.608 290.658 664.092 290.658 666.388C290.658 668.684 291.946 670.168 293.906 670.168ZM293.906 663.546C295.054 663.546 295.824 664.4 295.824 665.674V665.828H291.834V665.73C291.834 664.47 292.688 663.546 293.906 663.546Z" fill="#6F6F6F"/>
<path d="M208.5 72.5H936C940.142 72.5 943.5 75.8579 943.5 80V592C943.5 596.142 940.142 599.5 936 599.5H208.5V72.5Z" fill="white"/>
<g clip-path="url(#clip0_621_39280)">
<line x1="210" y1="72" x2="210" y2="120" stroke="#8D8D8D" stroke-width="4"/>
<path d="M226.996 88.234H228.746L230.566 92H232.624L230.622 88.024C231.826 87.618 232.442 86.596 232.442 85.252C232.442 83.404 231.336 82.228 229.558 82.228H225.148V92H226.996V88.234ZM226.996 86.68V83.838H229.376C230.09 83.838 230.524 84.216 230.524 84.93V85.574C230.524 86.288 230.09 86.68 229.376 86.68H226.996ZM237.242 92.168C238.6 92.168 239.664 91.65 240.266 90.824L239.3 89.746C238.852 90.32 238.32 90.74 237.438 90.74C236.262 90.74 235.66 90.026 235.66 88.976V88.794H240.518V88.206C240.518 86.204 239.468 84.524 237.186 84.524C235.044 84.524 233.798 86.022 233.798 88.332C233.798 90.67 235.086 92.168 237.242 92.168ZM237.214 85.868C238.138 85.868 238.656 86.554 238.656 87.562V87.688H235.66V87.576C235.66 86.568 236.276 85.868 237.214 85.868ZM248.848 92.616C248.848 91.3 248.078 90.53 246.286 90.53H244.326C243.682 90.53 243.374 90.348 243.374 89.984C243.374 89.662 243.612 89.452 243.892 89.326C244.214 89.41 244.592 89.452 245.012 89.452C247 89.452 248.036 88.472 248.036 87.002C248.036 86.106 247.658 85.392 246.902 84.972V84.776H248.456V83.404H247.322C246.65 83.404 246.286 83.754 246.286 84.468V84.706C245.922 84.58 245.46 84.524 245.012 84.524C243.038 84.524 241.988 85.518 241.988 87.002C241.988 87.968 242.436 88.724 243.318 89.13V89.186C242.618 89.34 241.974 89.718 241.974 90.474C241.974 91.062 242.31 91.538 242.912 91.692V91.846C242.1 91.972 241.61 92.434 241.61 93.246C241.61 94.324 242.548 94.968 245.012 94.968C247.812 94.968 248.848 94.142 248.848 92.616ZM247.168 92.826C247.168 93.442 246.65 93.736 245.488 93.736H244.592C243.472 93.736 243.052 93.4 243.052 92.84C243.052 92.546 243.164 92.28 243.43 92.084H245.922C246.832 92.084 247.168 92.364 247.168 92.826ZM245.012 88.234C244.158 88.234 243.696 87.842 243.696 87.114V86.876C243.696 86.134 244.158 85.756 245.012 85.756C245.866 85.756 246.328 86.134 246.328 86.876V87.114C246.328 87.842 245.866 88.234 245.012 88.234ZM250.939 83.628C251.667 83.628 251.989 83.25 251.989 82.732V82.452C251.989 81.934 251.667 81.556 250.939 81.556C250.197 81.556 249.889 81.934 249.889 82.452V82.732C249.889 83.25 250.197 83.628 250.939 83.628ZM250.043 92H251.835V84.692H250.043V92ZM256.97 92.168C259.07 92.168 260.372 90.684 260.372 88.332C260.372 85.994 259.07 84.524 256.97 84.524C254.884 84.524 253.582 85.994 253.582 88.332C253.582 90.684 254.884 92.168 256.97 92.168ZM256.97 90.726C256.046 90.726 255.458 90.124 255.458 89.018V87.66C255.458 86.568 256.046 85.966 256.97 85.966C257.908 85.966 258.496 86.568 258.496 87.66V89.018C258.496 90.124 257.908 90.726 256.97 90.726ZM263.913 92V87.17C263.913 86.386 264.627 85.994 265.369 85.994C266.223 85.994 266.573 86.526 266.573 87.562V92H268.365V87.38C268.365 85.56 267.525 84.524 266.027 84.524C264.893 84.524 264.277 85.126 263.983 85.91H263.913V84.692H262.121V92H263.913Z" fill="black"/>
<path d="M229.642 110H230.762V102.776H229.642V107.774C229.642 108.726 228.774 109.16 227.892 109.16C226.814 109.16 226.24 108.502 226.24 107.214V102.776H225.12V107.41C225.12 109.16 226.072 110.168 227.556 110.168C228.76 110.168 229.306 109.51 229.586 108.824H229.642V110ZM235.477 110.168C237.129 110.168 238.151 109.314 238.151 107.914C238.151 106.822 237.535 106.122 235.939 105.884L235.379 105.8C234.483 105.66 233.993 105.38 233.993 104.68C233.993 103.994 234.483 103.56 235.407 103.56C236.331 103.56 236.947 103.994 237.269 104.442L238.011 103.77C237.423 103.042 236.653 102.608 235.491 102.608C234.021 102.608 232.915 103.308 232.915 104.736C232.915 106.08 233.909 106.626 235.239 106.822L235.813 106.906C236.765 107.046 237.073 107.48 237.073 108.04C237.073 108.782 236.513 109.216 235.561 109.216C234.651 109.216 233.979 108.81 233.419 108.11L232.621 108.754C233.265 109.608 234.147 110.168 235.477 110.168ZM243.583 106.346V105.142H239.929V106.346H243.583ZM248.074 110.168C249.726 110.168 250.748 109.314 250.748 107.914C250.748 106.822 250.132 106.122 248.536 105.884L247.976 105.8C247.08 105.66 246.59 105.38 246.59 104.68C246.59 103.994 247.08 103.56 248.004 103.56C248.928 103.56 249.544 103.994 249.866 104.442L250.608 103.77C250.02 103.042 249.25 102.608 248.088 102.608C246.618 102.608 245.512 103.308 245.512 104.736C245.512 106.08 246.506 106.626 247.836 106.822L248.41 106.906C249.362 107.046 249.67 107.48 249.67 108.04C249.67 108.782 249.11 109.216 248.158 109.216C247.248 109.216 246.576 108.81 246.016 108.11L245.218 108.754C245.862 109.608 246.744 110.168 248.074 110.168ZM255.617 110.168C257.549 110.168 258.879 108.684 258.879 106.388C258.879 104.092 257.549 102.608 255.617 102.608C253.685 102.608 252.355 104.092 252.355 106.388C252.355 108.684 253.685 110.168 255.617 110.168ZM255.617 109.174C254.413 109.174 253.559 108.432 253.559 106.906V105.87C253.559 104.344 254.413 103.602 255.617 103.602C256.821 103.602 257.675 104.344 257.675 105.87V106.906C257.675 108.432 256.821 109.174 255.617 109.174ZM265.333 110H266.453V102.776H265.333V107.774C265.333 108.726 264.465 109.16 263.583 109.16C262.505 109.16 261.931 108.502 261.931 107.214V102.776H260.811V107.41C260.811 109.16 261.763 110.168 263.247 110.168C264.451 110.168 264.997 109.51 265.277 108.824H265.333V110ZM271.994 110V109.02H270.524V103.756H272.106V102.776H270.524V100.774H269.516V102.118C269.516 102.608 269.362 102.776 268.886 102.776H268.214V103.756H269.404V108.81C269.404 109.51 269.824 110 270.594 110H271.994ZM274.066 110H275.186V104.988C275.186 104.064 276.054 103.616 276.95 103.616C278.028 103.616 278.588 104.274 278.588 105.562V110H279.708V105.366C279.708 103.616 278.77 102.608 277.286 102.608C276.208 102.608 275.592 103.14 275.242 103.952H275.186V99.64H274.066V110Z" fill="black"/>
</g>
<path d="M208.5 72.5H936C940.142 72.5 943.5 75.8579 943.5 80V592C943.5 596.142 940.142 599.5 936 599.5H208.5V72.5Z" stroke="#8D8D8D"/>
<rect x="224.5" y="136.5" width="703" height="447" fill="white"/>
<rect x="225" y="137" width="702" height="446" fill="#F4F4F4"/>
<g clip-path="url(#clip1_621_39280)">
<line x1="226" y1="136" x2="226" y2="184" stroke="#8D8D8D" stroke-width="4"/>
<g clip-path="url(#clip2_621_39280)">
<rect width="20" height="20" transform="translate(240 150)" fill="white" style="mix-blend-mode:multiply"/>
<path d="M252.5 162.5V160.625C252.5 159.962 252.237 159.326 251.768 158.857C251.299 158.388 250.663 158.125 250 158.125C249.337 158.125 248.701 158.388 248.232 158.857C247.763 159.326 247.5 159.962 247.5 160.625V162.5C247.169 162.5 246.851 162.632 246.617 162.867C246.382 163.101 246.25 163.419 246.25 163.75V167.5C246.25 167.831 246.382 168.149 246.617 168.383C246.851 168.618 247.169 168.75 247.5 168.75H252.5C252.831 168.75 253.149 168.618 253.383 168.383C253.618 168.149 253.75 167.831 253.75 167.5V163.75C253.75 163.419 253.618 163.101 253.383 162.867C253.149 162.632 252.831 162.5 252.5 162.5ZM248.75 160.625C248.75 160.294 248.882 159.976 249.116 159.741C249.351 159.507 249.669 159.375 250 159.375C250.332 159.375 250.649 159.507 250.884 159.741C251.118 159.976 251.25 160.294 251.25 160.625V162.5H248.75V160.625ZM247.5 167.5V163.75H252.5L252.501 167.5H247.5Z" fill="black"/>
<path d="M256.143 156.322C255.906 155.094 255.307 153.966 254.423 153.082C253.538 152.198 252.409 151.599 251.181 151.364C250.375 151.208 249.545 151.212 248.741 151.377C247.936 151.542 247.171 151.864 246.491 152.325C245.811 152.785 245.228 153.375 244.776 154.061C244.324 154.747 244.011 155.515 243.856 156.322C242.704 156.53 241.672 157.161 240.961 158.092C240.251 159.022 239.915 160.185 240.018 161.351C240.122 162.517 240.658 163.602 241.521 164.393C242.384 165.184 243.511 165.623 244.682 165.625H245V164.375H244.685C243.826 164.374 242.999 164.052 242.366 163.472C241.733 162.892 241.34 162.096 241.264 161.241C241.188 160.385 241.434 159.533 241.955 158.85C242.476 158.167 243.234 157.705 244.079 157.552L244.922 157.4L245.084 156.559C245.304 155.417 245.915 154.387 246.813 153.646C247.71 152.906 248.836 152.501 250 152.501C251.163 152.501 252.29 152.906 253.187 153.646C254.084 154.387 254.695 155.417 254.916 156.559L255.078 157.4L255.921 157.552C256.765 157.705 257.523 158.167 258.044 158.85C258.564 159.532 258.811 160.384 258.736 161.239C258.66 162.094 258.268 162.89 257.635 163.47C257.002 164.051 256.176 164.373 255.317 164.375H255V165.625H255.317C256.488 165.623 257.616 165.184 258.479 164.393C259.342 163.602 259.877 162.517 259.981 161.351C260.084 160.185 259.748 159.022 259.038 158.092C258.328 157.161 257.295 156.53 256.143 156.322Z" fill="black"/>
</g>
<path d="M281.516 165L284.708 155.228H282.874L281.376 159.988L280.522 163.236H280.48L279.612 159.988L278.114 155.228H276.224L279.416 165H281.516ZM288.084 165V161.276H290.632C292.438 161.276 293.53 160.072 293.53 158.252C293.53 156.446 292.438 155.228 290.632 155.228H286.236V165H288.084ZM288.084 156.838H290.464C291.178 156.838 291.612 157.216 291.612 157.93V158.574C291.612 159.288 291.178 159.68 290.464 159.68H288.084V156.838ZM299.158 165.168C300.908 165.168 302.07 164.314 302.77 162.858L301.272 161.976C300.95 162.858 300.264 163.53 299.158 163.53C297.786 163.53 296.904 162.578 296.904 160.898V159.358C296.904 157.692 297.786 156.698 299.158 156.698C300.25 156.698 300.866 157.286 301.146 158.154L302.728 157.314C302.042 155.802 300.908 155.06 299.158 155.06C296.582 155.06 294.944 156.894 294.944 160.184C294.944 163.474 296.582 165.168 299.158 165.168Z" fill="black"/>
</g>
<rect x="224.5" y="136.5" width="703" height="447" stroke="#8D8D8D"/>
<rect width="48" height="48" transform="translate(255.5 264)" fill="#0F62FE"/>
<rect width="20" height="20" transform="translate(269.5 278)" fill="white" style="mix-blend-mode:multiply"/>
<path d="M274.5 296.75H270.75V293H274.5V296.75ZM272 295.5H273.25V294.25H272V295.5Z" fill="white"/>
<path d="M281.375 296.75H277.625V293H281.375V296.75ZM278.875 295.5H280.125V294.25H278.875V295.5Z" fill="white"/>
<path d="M288.25 296.75H284.5V293H288.25V296.75ZM285.75 295.5H287V294.25H285.75V295.5Z" fill="white"/>
<path d="M279.5 284.25C279.006 284.25 278.522 284.103 278.111 283.829C277.7 283.554 277.38 283.164 277.19 282.707C277.001 282.25 276.952 281.747 277.048 281.262C277.144 280.777 277.383 280.332 277.732 279.982C278.082 279.633 278.527 279.394 279.012 279.298C279.497 279.202 280 279.251 280.457 279.44C280.914 279.63 281.304 279.95 281.579 280.361C281.853 280.772 282 281.256 282 281.75C281.999 282.413 281.736 283.048 281.267 283.517C280.798 283.986 280.163 284.249 279.5 284.25ZM279.5 280.5C279.253 280.5 279.011 280.573 278.806 280.711C278.6 280.848 278.44 281.043 278.345 281.272C278.251 281.5 278.226 281.751 278.274 281.994C278.322 282.236 278.441 282.459 278.616 282.634C278.791 282.809 279.014 282.928 279.256 282.976C279.499 283.024 279.75 282.999 279.978 282.905C280.207 282.81 280.402 282.65 280.539 282.444C280.677 282.239 280.75 281.997 280.75 281.75C280.75 281.419 280.618 281.101 280.384 280.866C280.149 280.632 279.831 280.5 279.5 280.5Z" fill="white"/>
<path d="M285.75 288H282.625C281.962 287.999 281.327 287.736 280.858 287.267C280.389 286.798 280.126 286.163 280.125 285.5H278.875C278.874 286.163 278.611 286.798 278.142 287.267C277.673 287.736 277.038 287.999 276.375 288H273.25C272.919 288 272.601 288.132 272.367 288.367C272.132 288.601 272 288.919 272 289.25V291.75H273.25V289.25H276.375C277.299 289.25 278.19 288.907 278.875 288.287V291.75H280.125V288.287C280.81 288.907 281.701 289.25 282.625 289.25H285.75V291.75H287V289.25C287 288.919 286.868 288.601 286.633 288.367C286.399 288.132 286.081 288 285.75 288Z" fill="white"/>
<path d="M253.519 334L256.711 324.228H254.877L253.379 328.988L252.525 332.236H252.483L251.615 328.988L250.117 324.228H248.227L251.419 334H253.519ZM260.086 334V330.276H262.634C264.44 330.276 265.532 329.072 265.532 327.252C265.532 325.446 264.44 324.228 262.634 324.228H258.238V334H260.086ZM260.086 325.838H262.466C263.18 325.838 263.614 326.216 263.614 326.93V327.574C263.614 328.288 263.18 328.68 262.466 328.68H260.086V325.838ZM271.161 334.168C272.911 334.168 274.073 333.314 274.773 331.858L273.275 330.976C272.953 331.858 272.267 332.53 271.161 332.53C269.789 332.53 268.907 331.578 268.907 329.898V328.358C268.907 326.692 269.789 325.698 271.161 325.698C272.253 325.698 272.869 326.286 273.149 327.154L274.731 326.314C274.045 324.802 272.911 324.06 271.161 324.06C268.585 324.06 266.947 325.894 266.947 329.184C266.947 332.474 268.585 334.168 271.161 334.168ZM282.624 334V332.572H281.658V323.64H279.866V332.236C279.866 333.356 280.44 334 281.658 334H282.624ZM287.039 334.168C289.139 334.168 290.441 332.684 290.441 330.332C290.441 327.994 289.139 326.524 287.039 326.524C284.953 326.524 283.651 327.994 283.651 330.332C283.651 332.684 284.953 334.168 287.039 334.168ZM287.039 332.726C286.115 332.726 285.527 332.124 285.527 331.018V329.66C285.527 328.568 286.115 327.966 287.039 327.966C287.977 327.966 288.565 328.568 288.565 329.66V331.018C288.565 332.124 287.977 332.726 287.039 332.726ZM293.996 334.168C295.088 334.168 295.886 333.678 296.124 332.74H296.208C296.32 333.496 296.796 334 297.566 334H298.56V332.572H297.832V329.128C297.832 327.462 296.782 326.524 294.808 326.524C293.338 326.524 292.484 327.084 291.952 327.924L293.016 328.876C293.366 328.372 293.842 327.952 294.682 327.952C295.634 327.952 296.04 328.428 296.04 329.24V329.772H294.794C292.806 329.772 291.672 330.514 291.672 332.012C291.672 333.314 292.512 334.168 293.996 334.168ZM294.598 332.866C293.898 332.866 293.492 332.572 293.492 331.984V331.746C293.492 331.172 293.954 330.85 294.892 330.85H296.04V331.816C296.04 332.502 295.396 332.866 294.598 332.866ZM304.706 334H306.498V323.64H304.706V327.896H304.636C304.384 327.056 303.586 326.524 302.62 326.524C300.786 326.524 299.764 327.896 299.764 330.332C299.764 332.782 300.786 334.168 302.62 334.168C303.586 334.168 304.37 333.608 304.636 332.782H304.706V334ZM303.194 332.684C302.27 332.684 301.64 332.012 301.64 330.976V329.716C301.64 328.68 302.27 327.994 303.194 327.994C304.048 327.994 304.706 328.456 304.706 329.17V331.494C304.706 332.25 304.048 332.684 303.194 332.684ZM251.58 352H253.372V350.782H253.428C253.708 351.608 254.478 352.168 255.444 352.168C257.292 352.168 258.314 350.782 258.314 348.332C258.314 345.896 257.292 344.524 255.444 344.524C254.478 344.524 253.694 345.056 253.428 345.896H253.372V341.64H251.58V352ZM254.87 350.684C254.016 350.684 253.372 350.25 253.372 349.494V347.17C253.372 346.456 254.016 345.994 254.87 345.994C255.794 345.994 256.438 346.68 256.438 347.716V348.976C256.438 350.012 255.794 350.684 254.87 350.684ZM261.94 352.168C263.032 352.168 263.83 351.678 264.068 350.74H264.152C264.264 351.496 264.74 352 265.51 352H266.504V350.572H265.776V347.128C265.776 345.462 264.726 344.524 262.752 344.524C261.282 344.524 260.428 345.084 259.896 345.924L260.96 346.876C261.31 346.372 261.786 345.952 262.626 345.952C263.578 345.952 263.984 346.428 263.984 347.24V347.772H262.738C260.75 347.772 259.616 348.514 259.616 350.012C259.616 351.314 260.456 352.168 261.94 352.168ZM262.542 350.866C261.842 350.866 261.436 350.572 261.436 349.984V349.746C261.436 349.172 261.898 348.85 262.836 348.85H263.984V349.816C263.984 350.502 263.34 350.866 262.542 350.866ZM270.872 352V350.572H269.906V341.64H268.114V350.236C268.114 351.356 268.688 352 269.906 352H270.872ZM274.196 352.168C275.288 352.168 276.086 351.678 276.324 350.74H276.408C276.52 351.496 276.996 352 277.766 352H278.76V350.572H278.032V347.128C278.032 345.462 276.982 344.524 275.008 344.524C273.538 344.524 272.684 345.084 272.152 345.924L273.216 346.876C273.566 346.372 274.042 345.952 274.882 345.952C275.834 345.952 276.24 346.428 276.24 347.24V347.772H274.994C273.006 347.772 271.872 348.514 271.872 350.012C271.872 351.314 272.712 352.168 274.196 352.168ZM274.798 350.866C274.098 350.866 273.692 350.572 273.692 349.984V349.746C273.692 349.172 274.154 348.85 275.092 348.85H276.24V349.816C276.24 350.502 275.596 350.866 274.798 350.866ZM282.162 352V347.17C282.162 346.386 282.876 345.994 283.618 345.994C284.472 345.994 284.822 346.526 284.822 347.562V352H286.614V347.38C286.614 345.56 285.774 344.524 284.276 344.524C283.142 344.524 282.526 345.126 282.232 345.91H282.162V344.692H280.37V352H282.162ZM291.644 352.168C293.058 352.168 294.08 351.524 294.556 350.236L293.184 349.578C292.918 350.236 292.498 350.726 291.644 350.726C290.65 350.726 290.146 350.04 290.146 349.018V347.688C290.146 346.666 290.65 345.966 291.644 345.966C292.414 345.966 292.876 346.414 293.044 347.03L294.514 346.372C294.08 345.224 293.114 344.524 291.644 344.524C289.488 344.524 288.27 345.994 288.27 348.332C288.27 350.684 289.488 352.168 291.644 352.168ZM298.984 352.168C300.342 352.168 301.406 351.65 302.008 350.824L301.042 349.746C300.594 350.32 300.062 350.74 299.18 350.74C298.004 350.74 297.402 350.026 297.402 348.976V348.794H302.26V348.206C302.26 346.204 301.21 344.524 298.928 344.524C296.786 344.524 295.54 346.022 295.54 348.332C295.54 350.67 296.828 352.168 298.984 352.168ZM298.956 345.868C299.88 345.868 300.398 346.554 300.398 347.562V347.688H297.402V347.576C297.402 346.568 298.018 345.868 298.956 345.868ZM305.788 352V347.52C305.788 346.722 306.418 346.386 307.622 346.386H308.182V344.692H307.79C306.628 344.692 306.04 345.434 305.858 346.204H305.788V344.692H303.996V352H305.788Z" fill="black"/>
<path d="M336.5 200.5H904C908.142 200.5 911.5 203.858 911.5 208V560C911.5 564.142 908.142 567.5 904 567.5H336.5V200.5Z" fill="white"/>
<g clip-path="url(#clip3_621_39280)">
<line x1="338" y1="200" x2="338" y2="248" stroke="#8D8D8D" stroke-width="4"/>
<path d="M359.854 218.362H354.646L359.714 211.88V210.228H352.784V211.866H357.586L352.532 218.348V220H359.854V218.362ZM364.407 220.168C366.507 220.168 367.809 218.684 367.809 216.332C367.809 213.994 366.507 212.524 364.407 212.524C362.32 212.524 361.018 213.994 361.018 216.332C361.018 218.684 362.32 220.168 364.407 220.168ZM364.407 218.726C363.482 218.726 362.894 218.124 362.894 217.018V215.66C362.894 214.568 363.482 213.966 364.407 213.966C365.345 213.966 365.933 214.568 365.933 215.66V217.018C365.933 218.124 365.345 218.726 364.407 218.726ZM371.349 220V215.17C371.349 214.386 372.063 213.994 372.805 213.994C373.659 213.994 374.009 214.526 374.009 215.562V220H375.801V215.38C375.801 213.56 374.961 212.524 373.463 212.524C372.329 212.524 371.713 213.126 371.419 213.91H371.349V212.692H369.557V220H371.349ZM380.902 220.168C382.26 220.168 383.324 219.65 383.926 218.824L382.96 217.746C382.512 218.32 381.98 218.74 381.098 218.74C379.922 218.74 379.32 218.026 379.32 216.976V216.794H384.178V216.206C384.178 214.204 383.128 212.524 380.846 212.524C378.704 212.524 377.458 214.022 377.458 216.332C377.458 218.67 378.746 220.168 380.902 220.168ZM380.874 213.868C381.798 213.868 382.316 214.554 382.316 215.562V215.688H379.32V215.576C379.32 214.568 379.936 213.868 380.874 213.868Z" fill="black"/>
<path d="M357.642 238H358.762V230.776H357.642V235.774C357.642 236.726 356.774 237.16 355.892 237.16C354.814 237.16 354.24 236.502 354.24 235.214V230.776H353.12V235.41C353.12 237.16 354.072 238.168 355.556 238.168C356.76 238.168 357.306 237.51 357.586 236.824H357.642V238ZM363.477 238.168C365.129 238.168 366.151 237.314 366.151 235.914C366.151 234.822 365.535 234.122 363.939 233.884L363.379 233.8C362.483 233.66 361.993 233.38 361.993 232.68C361.993 231.994 362.483 231.56 363.407 231.56C364.331 231.56 364.947 231.994 365.269 232.442L366.011 231.77C365.423 231.042 364.653 230.608 363.491 230.608C362.021 230.608 360.915 231.308 360.915 232.736C360.915 234.08 361.909 234.626 363.239 234.822L363.813 234.906C364.765 235.046 365.073 235.48 365.073 236.04C365.073 236.782 364.513 237.216 363.561 237.216C362.651 237.216 361.979 236.81 361.419 236.11L360.621 236.754C361.265 237.608 362.147 238.168 363.477 238.168ZM371.583 234.346V233.142H367.929V234.346H371.583ZM376.074 238.168C377.726 238.168 378.748 237.314 378.748 235.914C378.748 234.822 378.132 234.122 376.536 233.884L375.976 233.8C375.08 233.66 374.59 233.38 374.59 232.68C374.59 231.994 375.08 231.56 376.004 231.56C376.928 231.56 377.544 231.994 377.866 232.442L378.608 231.77C378.02 231.042 377.25 230.608 376.088 230.608C374.618 230.608 373.512 231.308 373.512 232.736C373.512 234.08 374.506 234.626 375.836 234.822L376.41 234.906C377.362 235.046 377.67 235.48 377.67 236.04C377.67 236.782 377.11 237.216 376.158 237.216C375.248 237.216 374.576 236.81 374.016 236.11L373.218 236.754C373.862 237.608 374.744 238.168 376.074 238.168ZM383.617 238.168C385.549 238.168 386.879 236.684 386.879 234.388C386.879 232.092 385.549 230.608 383.617 230.608C381.685 230.608 380.355 232.092 380.355 234.388C380.355 236.684 381.685 238.168 383.617 238.168ZM383.617 237.174C382.413 237.174 381.559 236.432 381.559 234.906V233.87C381.559 232.344 382.413 231.602 383.617 231.602C384.821 231.602 385.675 232.344 385.675 233.87V234.906C385.675 236.432 384.821 237.174 383.617 237.174ZM393.333 238H394.453V230.776H393.333V235.774C393.333 236.726 392.465 237.16 391.583 237.16C390.505 237.16 389.931 236.502 389.931 235.214V230.776H388.811V235.41C388.811 237.16 389.763 238.168 391.247 238.168C392.451 238.168 392.997 237.51 393.277 236.824H393.333V238ZM399.994 238V237.02H398.524V231.756H400.106V230.776H398.524V228.774H397.516V230.118C397.516 230.608 397.362 230.776 396.886 230.776H396.214V231.756H397.404V236.81C397.404 237.51 397.824 238 398.594 238H399.994ZM402.066 238H403.186V232.988C403.186 232.064 404.054 231.616 404.95 231.616C406.028 231.616 406.588 232.274 406.588 233.562V238H407.708V233.366C407.708 231.616 406.77 230.608 405.286 230.608C404.208 230.608 403.592 231.14 403.242 231.952H403.186V227.64H402.066V238ZM413.613 234.346V233.142H409.959V234.346H413.613ZM422.403 238V236.964H419.883V228.228H418.049L415.459 230.65L416.145 231.392L418.609 229.096H418.707V236.964H415.977V238H422.403Z" fill="black"/>
</g>
<path d="M336.5 200.5H904C908.142 200.5 911.5 203.858 911.5 208V560C911.5 564.142 908.142 567.5 904 567.5H336.5V200.5Z" stroke="#8D8D8D"/>
<path d="M256 289L251 286.113L251 291.887L256 289ZM160 289.5L251.5 289.5L251.5 288.5L160 288.5L160 289.5Z" fill="#736F6F"/>
<rect width="48" height="48" transform="translate(112 264)" fill="black"/>
<rect width="20" height="20" transform="translate(126 278)" fill="white" style="mix-blend-mode:multiply"/>
<path d="M136 280.5C136.618 280.5 137.222 280.683 137.736 281.027C138.25 281.37 138.651 281.858 138.887 282.429C139.124 283 139.186 283.628 139.065 284.235C138.944 284.841 138.647 285.398 138.21 285.835C137.773 286.272 137.216 286.569 136.61 286.69C136.003 286.811 135.375 286.749 134.804 286.512C134.233 286.276 133.745 285.875 133.402 285.361C133.058 284.847 132.875 284.243 132.875 283.625C132.875 282.796 133.204 282.001 133.79 281.415C134.376 280.829 135.171 280.5 136 280.5ZM136 279.25C135.135 279.25 134.289 279.507 133.569 279.987C132.85 280.468 132.289 281.151 131.958 281.951C131.627 282.75 131.54 283.63 131.709 284.479C131.878 285.327 132.295 286.107 132.906 286.719C133.518 287.33 134.298 287.747 135.146 287.916C135.995 288.085 136.875 287.998 137.674 287.667C138.474 287.336 139.157 286.775 139.638 286.056C140.118 285.336 140.375 284.49 140.375 283.625C140.375 282.465 139.914 281.352 139.094 280.531C138.273 279.711 137.16 279.25 136 279.25Z" fill="white"/>
<path d="M142.25 296.75H141V293.625C141 293.215 140.919 292.808 140.762 292.429C140.605 292.05 140.375 291.705 140.085 291.415C139.795 291.125 139.45 290.895 139.071 290.738C138.692 290.581 138.285 290.5 137.875 290.5H134.125C133.296 290.5 132.501 290.829 131.915 291.415C131.329 292.001 131 292.796 131 293.625V296.75H129.75V293.625C129.75 292.465 130.211 291.352 131.031 290.531C131.852 289.711 132.965 289.25 134.125 289.25H137.875C139.035 289.25 140.148 289.711 140.969 290.531C141.789 291.352 142.25 292.465 142.25 293.625V296.75Z" fill="white"/>
<path d="M121.86 324.228V329.996C121.86 332.866 122.854 334.168 125.598 334.168C128.342 334.168 129.364 332.866 129.364 329.996V324.228H127.544V330.234C127.544 331.76 127.012 332.53 125.612 332.53C124.212 332.53 123.68 331.76 123.68 330.234V324.228H121.86ZM134.038 334.168C135.858 334.168 137.048 333.188 137.048 331.774C137.048 330.556 136.278 329.842 134.682 329.618L133.94 329.52C133.254 329.408 132.988 329.184 132.988 328.694C132.988 328.246 133.324 327.938 134.094 327.938C134.808 327.938 135.424 328.274 135.844 328.722L136.894 327.672C136.194 326.944 135.466 326.524 134.038 326.524C132.372 326.524 131.266 327.42 131.266 328.834C131.266 330.164 132.134 330.85 133.702 331.046L134.43 331.144C135.074 331.228 135.326 331.494 135.326 331.914C135.326 332.432 134.962 332.754 134.108 332.754C133.282 332.754 132.638 332.376 132.106 331.76L131.014 332.824C131.742 333.664 132.652 334.168 134.038 334.168ZM141.745 334.168C143.103 334.168 144.167 333.65 144.769 332.824L143.803 331.746C143.355 332.32 142.823 332.74 141.941 332.74C140.765 332.74 140.163 332.026 140.163 330.976V330.794H145.021V330.206C145.021 328.204 143.971 326.524 141.689 326.524C139.547 326.524 138.301 328.022 138.301 330.332C138.301 332.67 139.589 334.168 141.745 334.168ZM141.717 327.868C142.641 327.868 143.159 328.554 143.159 329.562V329.688H140.163V329.576C140.163 328.568 140.779 327.868 141.717 327.868ZM148.549 334V329.52C148.549 328.722 149.179 328.386 150.383 328.386H150.943V326.692H150.551C149.389 326.692 148.801 327.434 148.619 328.204H148.549V326.692H146.757V334H148.549Z" fill="black"/>
<rect x="352.5" y="264.5" width="543" height="287" fill="white"/>
<rect x="353" y="265" width="542" height="286" fill="#EDF5FF"/>
<g clip-path="url(#clip4_621_39280)">
<line x1="354" y1="264" x2="354" y2="312" stroke="#0F62FE" stroke-width="4"/>
<rect width="20" height="20" transform="translate(368 278)" fill="white" style="mix-blend-mode:multiply"/>
<path d="M378 292.375C377.875 292.375 377.75 292.375 377.688 292.312L374.562 290.438C374.375 290.312 374.25 290.125 374.25 289.875V286.125C374.25 285.875 374.375 285.688 374.562 285.562L377.688 283.688C377.75 283.625 377.875 283.625 378 283.625C378.125 283.625 378.25 283.625 378.312 283.688L381.438 285.562C381.625 285.688 381.75 285.875 381.75 286.125V289.875C381.75 290.125 381.625 290.312 381.438 290.438L378.312 292.312C378.25 292.375 378.125 292.375 378 292.375ZM375.5 289.5L378 291L380.5 289.5V286.438L378 284.938L375.5 286.438V289.5Z" fill="black"/>
<path d="M378 297.375C377.875 297.375 377.812 297.375 377.688 297.312L370.188 292.938C370 292.812 369.875 292.625 369.875 292.375V283.625C369.875 283.375 370 283.188 370.188 283.062L377.688 278.688C377.812 278.625 377.875 278.625 378 278.625C378.125 278.625 378.188 278.625 378.312 278.688L385.812 283.062L385.188 284.125L378 280L371.125 284V292.062L378 296.062L384.875 292.062V287.375H386.125V292.375C386.125 292.625 386 292.812 385.812 292.938L378.312 297.312C378.188 297.375 378.125 297.375 378 297.375Z" fill="black"/>
<path d="M408.942 293.168C410.692 293.168 411.854 292.314 412.554 290.858L411.056 289.976C410.734 290.858 410.048 291.53 408.942 291.53C407.57 291.53 406.688 290.578 406.688 288.898V287.358C406.688 285.692 407.57 284.698 408.942 284.698C410.034 284.698 410.65 285.286 410.93 286.154L412.512 285.314C411.826 283.802 410.692 283.06 408.942 283.06C406.366 283.06 404.728 284.894 404.728 288.184C404.728 291.474 406.366 293.168 408.942 293.168ZM416.936 293V291.572H415.97V282.64H414.178V291.236C414.178 292.356 414.752 293 415.97 293H416.936ZM422.822 293H424.614V285.692H422.822V290.522C422.822 291.306 422.108 291.684 421.394 291.684C420.54 291.684 420.162 291.138 420.162 290.13V285.692H418.37V290.312C418.37 292.132 419.21 293.168 420.708 293.168C421.912 293.168 422.5 292.51 422.752 291.782H422.822V293ZM429.238 293.168C431.058 293.168 432.248 292.188 432.248 290.774C432.248 289.556 431.478 288.842 429.882 288.618L429.14 288.52C428.454 288.408 428.188 288.184 428.188 287.694C428.188 287.246 428.524 286.938 429.294 286.938C430.008 286.938 430.624 287.274 431.044 287.722L432.094 286.672C431.394 285.944 430.666 285.524 429.238 285.524C427.572 285.524 426.466 286.42 426.466 287.834C426.466 289.164 427.334 289.85 428.902 290.046L429.63 290.144C430.274 290.228 430.526 290.494 430.526 290.914C430.526 291.432 430.162 291.754 429.308 291.754C428.482 291.754 427.838 291.376 427.306 290.76L426.214 291.824C426.942 292.664 427.852 293.168 429.238 293.168ZM436.163 293H437.451V291.572H436.065V287.12H437.563V285.692H436.065V283.69H434.455V284.936C434.455 285.44 434.287 285.692 433.755 285.692H433.195V287.12H434.273V291.138C434.273 292.328 434.931 293 436.163 293ZM442.177 293.168C443.535 293.168 444.599 292.65 445.201 291.824L444.235 290.746C443.787 291.32 443.255 291.74 442.373 291.74C441.197 291.74 440.595 291.026 440.595 289.976V289.794H445.453V289.206C445.453 287.204 444.403 285.524 442.121 285.524C439.979 285.524 438.733 287.022 438.733 289.332C438.733 291.67 440.021 293.168 442.177 293.168ZM442.149 286.868C443.073 286.868 443.591 287.554 443.591 288.562V288.688H440.595V288.576C440.595 287.568 441.211 286.868 442.149 286.868ZM448.981 293V288.52C448.981 287.722 449.611 287.386 450.815 287.386H451.375V285.692H450.983C449.821 285.692 449.233 286.434 449.051 287.204H448.981V285.692H447.189V293H448.981Z" fill="black"/>
</g>
<rect x="352.5" y="264.5" width="543" height="287" stroke="#0F62FE"/>
<rect x="608.5" y="320.5" width="127" height="167" fill="white"/>
<rect x="609" y="321" width="126" height="166" fill="#F4F4F4"/>
<g clip-path="url(#clip5_621_39280)">
<line x1="610" y1="320" x2="610" y2="368" stroke="#8D8D8D" stroke-width="4"/>
<path d="M628.732 349L629.978 343.834L630.608 341.258H630.636L631.238 343.834L632.484 349H634.57L636.908 339.228H635.144L634.15 343.918L633.534 346.914H633.492L632.806 343.918L631.686 339.228H629.642L628.522 343.918L627.822 346.914H627.78L627.178 343.918L626.212 339.228H624.364L626.632 349H628.732ZM641.069 349.168C643.169 349.168 644.471 347.684 644.471 345.332C644.471 342.994 643.169 341.524 641.069 341.524C638.983 341.524 637.681 342.994 637.681 345.332C637.681 347.684 638.983 349.168 641.069 349.168ZM641.069 347.726C640.145 347.726 639.557 347.124 639.557 346.018V344.66C639.557 343.568 640.145 342.966 641.069 342.966C642.007 342.966 642.595 343.568 642.595 344.66V346.018C642.595 347.124 642.007 347.726 641.069 347.726ZM648.011 349V344.52C648.011 343.722 648.641 343.386 649.845 343.386H650.405V341.692H650.013C648.851 341.692 648.263 342.434 648.081 343.204H648.011V341.692H646.219V349H648.011ZM651.875 349H653.667V346.774L654.633 345.724L656.509 349H658.637L655.851 344.52L658.371 341.692H656.341L654.703 343.568L653.737 344.884H653.667V338.64H651.875V349ZM662.509 349.168C663.867 349.168 664.931 348.65 665.533 347.824L664.567 346.746C664.119 347.32 663.587 347.74 662.705 347.74C661.529 347.74 660.927 347.026 660.927 345.976V345.794H665.785V345.206C665.785 343.204 664.735 341.524 662.453 341.524C660.311 341.524 659.065 343.022 659.065 345.332C659.065 347.67 660.353 349.168 662.509 349.168ZM662.481 342.868C663.405 342.868 663.923 343.554 663.923 344.562V344.688H660.927V344.576C660.927 343.568 661.543 342.868 662.481 342.868ZM669.314 349V344.52C669.314 343.722 669.944 343.386 671.148 343.386H671.708V341.692H671.316C670.154 341.692 669.566 342.434 669.384 343.204H669.314V341.692H667.522V349H669.314ZM678.438 349V344.17C678.438 343.386 679.152 342.994 679.894 342.994C680.748 342.994 681.098 343.526 681.098 344.562V349H682.89V344.38C682.89 342.56 682.05 341.524 680.552 341.524C679.418 341.524 678.802 342.126 678.508 342.91H678.438V341.692H676.646V349H678.438ZM687.935 349.168C690.035 349.168 691.337 347.684 691.337 345.332C691.337 342.994 690.035 341.524 687.935 341.524C685.849 341.524 684.547 342.994 684.547 345.332C684.547 347.684 685.849 349.168 687.935 349.168ZM687.935 347.726C687.011 347.726 686.423 347.124 686.423 346.018V344.66C686.423 343.568 687.011 342.966 687.935 342.966C688.873 342.966 689.461 343.568 689.461 344.66V346.018C689.461 347.124 688.873 347.726 687.935 347.726ZM697.621 349H699.413V338.64H697.621V342.896H697.551C697.299 342.056 696.501 341.524 695.535 341.524C693.701 341.524 692.679 342.896 692.679 345.332C692.679 347.782 693.701 349.168 695.535 349.168C696.501 349.168 697.285 348.608 697.551 347.782H697.621V349ZM696.109 347.684C695.185 347.684 694.555 347.012 694.555 345.976V344.716C694.555 343.68 695.185 342.994 696.109 342.994C696.963 342.994 697.621 343.456 697.621 344.17V346.494C697.621 347.25 696.963 347.684 696.109 347.684ZM704.594 349.168C705.952 349.168 707.016 348.65 707.618 347.824L706.652 346.746C706.204 347.32 705.672 347.74 704.79 347.74C703.614 347.74 703.012 347.026 703.012 345.976V345.794H707.87V345.206C707.87 343.204 706.82 341.524 704.538 341.524C702.396 341.524 701.15 343.022 701.15 345.332C701.15 347.67 702.438 349.168 704.594 349.168ZM704.566 342.868C705.49 342.868 706.008 343.554 706.008 344.562V344.688H703.012V344.576C703.012 343.568 703.628 342.868 704.566 342.868Z" fill="black"/>
</g>
<rect x="608.5" y="320.5" width="127" height="167" stroke="#8D8D8D"/>
<rect x="464.5" y="320.5" width="127" height="167" fill="white"/>
<rect x="465" y="321" width="126" height="166" fill="#F4F4F4"/>
<g clip-path="url(#clip6_621_39280)">
<line x1="466" y1="320" x2="466" y2="368" stroke="#8D8D8D" stroke-width="4"/>
<path d="M484.732 349L485.978 343.834L486.608 341.258H486.636L487.238 343.834L488.484 349H490.57L492.908 339.228H491.144L490.15 343.918L489.534 346.914H489.492L488.806 343.918L487.686 339.228H485.642L484.522 343.918L483.822 346.914H483.78L483.178 343.918L482.212 339.228H480.364L482.632 349H484.732ZM497.069 349.168C499.169 349.168 500.471 347.684 500.471 345.332C500.471 342.994 499.169 341.524 497.069 341.524C494.983 341.524 493.681 342.994 493.681 345.332C493.681 347.684 494.983 349.168 497.069 349.168ZM497.069 347.726C496.145 347.726 495.557 347.124 495.557 346.018V344.66C495.557 343.568 496.145 342.966 497.069 342.966C498.007 342.966 498.595 343.568 498.595 344.66V346.018C498.595 347.124 498.007 347.726 497.069 347.726ZM504.011 349V344.52C504.011 343.722 504.641 343.386 505.845 343.386H506.405V341.692H506.013C504.851 341.692 504.263 342.434 504.081 343.204H504.011V341.692H502.219V349H504.011ZM507.875 349H509.667V346.774L510.633 345.724L512.509 349H514.637L511.851 344.52L514.371 341.692H512.341L510.703 343.568L509.737 344.884H509.667V338.64H507.875V349ZM518.509 349.168C519.867 349.168 520.931 348.65 521.533 347.824L520.567 346.746C520.119 347.32 519.587 347.74 518.705 347.74C517.529 347.74 516.927 347.026 516.927 345.976V345.794H521.785V345.206C521.785 343.204 520.735 341.524 518.453 341.524C516.311 341.524 515.065 343.022 515.065 345.332C515.065 347.67 516.353 349.168 518.509 349.168ZM518.481 342.868C519.405 342.868 519.923 343.554 519.923 344.562V344.688H516.927V344.576C516.927 343.568 517.543 342.868 518.481 342.868ZM525.314 349V344.52C525.314 343.722 525.944 343.386 527.148 343.386H527.708V341.692H527.316C526.154 341.692 525.566 342.434 525.384 343.204H525.314V341.692H523.522V349H525.314ZM534.438 349V344.17C534.438 343.386 535.152 342.994 535.894 342.994C536.748 342.994 537.098 343.526 537.098 344.562V349H538.89V344.38C538.89 342.56 538.05 341.524 536.552 341.524C535.418 341.524 534.802 342.126 534.508 342.91H534.438V341.692H532.646V349H534.438ZM543.935 349.168C546.035 349.168 547.337 347.684 547.337 345.332C547.337 342.994 546.035 341.524 543.935 341.524C541.849 341.524 540.547 342.994 540.547 345.332C540.547 347.684 541.849 349.168 543.935 349.168ZM543.935 347.726C543.011 347.726 542.423 347.124 542.423 346.018V344.66C542.423 343.568 543.011 342.966 543.935 342.966C544.873 342.966 545.461 343.568 545.461 344.66V346.018C545.461 347.124 544.873 347.726 543.935 347.726ZM553.621 349H555.413V338.64H553.621V342.896H553.551C553.299 342.056 552.501 341.524 551.535 341.524C549.701 341.524 548.679 342.896 548.679 345.332C548.679 347.782 549.701 349.168 551.535 349.168C552.501 349.168 553.285 348.608 553.551 347.782H553.621V349ZM552.109 347.684C551.185 347.684 550.555 347.012 550.555 345.976V344.716C550.555 343.68 551.185 342.994 552.109 342.994C552.963 342.994 553.621 343.456 553.621 344.17V346.494C553.621 347.25 552.963 347.684 552.109 347.684ZM560.594 349.168C561.952 349.168 563.016 348.65 563.618 347.824L562.652 346.746C562.204 347.32 561.672 347.74 560.79 347.74C559.614 347.74 559.012 347.026 559.012 345.976V345.794H563.87V345.206C563.87 343.204 562.82 341.524 560.538 341.524C558.396 341.524 557.15 343.022 557.15 345.332C557.15 347.67 558.438 349.168 560.594 349.168ZM560.566 342.868C561.49 342.868 562.008 343.554 562.008 344.562V344.688H559.012V344.576C559.012 343.568 559.628 342.868 560.566 342.868Z" fill="black"/>
</g>
<rect x="464.5" y="320.5" width="127" height="167" stroke="#8D8D8D"/>
<path d="M524 472L528 464L532 472L524 472Z" fill="#8F8B8B"/>
<rect x="752.5" y="320.5" width="127" height="166" fill="white"/>
<rect x="753" y="321" width="126" height="165" fill="#F4F4F4"/>
<g clip-path="url(#clip7_621_39280)">
<line x1="754" y1="320" x2="754" y2="368" stroke="#8D8D8D" stroke-width="4"/>
<path d="M772.732 349L773.978 343.834L774.608 341.258H774.636L775.238 343.834L776.484 349H778.57L780.908 339.228H779.144L778.15 343.918L777.534 346.914H777.492L776.806 343.918L775.686 339.228H773.642L772.522 343.918L771.822 346.914H771.78L771.178 343.918L770.212 339.228H768.364L770.632 349H772.732ZM785.069 349.168C787.169 349.168 788.471 347.684 788.471 345.332C788.471 342.994 787.169 341.524 785.069 341.524C782.983 341.524 781.681 342.994 781.681 345.332C781.681 347.684 782.983 349.168 785.069 349.168ZM785.069 347.726C784.145 347.726 783.557 347.124 783.557 346.018V344.66C783.557 343.568 784.145 342.966 785.069 342.966C786.007 342.966 786.595 343.568 786.595 344.66V346.018C786.595 347.124 786.007 347.726 785.069 347.726ZM792.011 349V344.52C792.011 343.722 792.641 343.386 793.845 343.386H794.405V341.692H794.013C792.851 341.692 792.263 342.434 792.081 343.204H792.011V341.692H790.219V349H792.011ZM795.875 349H797.667V346.774L798.633 345.724L800.509 349H802.637L799.851 344.52L802.371 341.692H800.341L798.703 343.568L797.737 344.884H797.667V338.64H795.875V349ZM806.509 349.168C807.867 349.168 808.931 348.65 809.533 347.824L808.567 346.746C808.119 347.32 807.587 347.74 806.705 347.74C805.529 347.74 804.927 347.026 804.927 345.976V345.794H809.785V345.206C809.785 343.204 808.735 341.524 806.453 341.524C804.311 341.524 803.065 343.022 803.065 345.332C803.065 347.67 804.353 349.168 806.509 349.168ZM806.481 342.868C807.405 342.868 807.923 343.554 807.923 344.562V344.688H804.927V344.576C804.927 343.568 805.543 342.868 806.481 342.868ZM813.314 349V344.52C813.314 343.722 813.944 343.386 815.148 343.386H815.708V341.692H815.316C814.154 341.692 813.566 342.434 813.384 343.204H813.314V341.692H811.522V349H813.314ZM822.438 349V344.17C822.438 343.386 823.152 342.994 823.894 342.994C824.748 342.994 825.098 343.526 825.098 344.562V349H826.89V344.38C826.89 342.56 826.05 341.524 824.552 341.524C823.418 341.524 822.802 342.126 822.508 342.91H822.438V341.692H820.646V349H822.438ZM831.935 349.168C834.035 349.168 835.337 347.684 835.337 345.332C835.337 342.994 834.035 341.524 831.935 341.524C829.849 341.524 828.547 342.994 828.547 345.332C828.547 347.684 829.849 349.168 831.935 349.168ZM831.935 347.726C831.011 347.726 830.423 347.124 830.423 346.018V344.66C830.423 343.568 831.011 342.966 831.935 342.966C832.873 342.966 833.461 343.568 833.461 344.66V346.018C833.461 347.124 832.873 347.726 831.935 347.726ZM841.621 349H843.413V338.64H841.621V342.896H841.551C841.299 342.056 840.501 341.524 839.535 341.524C837.701 341.524 836.679 342.896 836.679 345.332C836.679 347.782 837.701 349.168 839.535 349.168C840.501 349.168 841.285 348.608 841.551 347.782H841.621V349ZM840.109 347.684C839.185 347.684 838.555 347.012 838.555 345.976V344.716C838.555 343.68 839.185 342.994 840.109 342.994C840.963 342.994 841.621 343.456 841.621 344.17V346.494C841.621 347.25 840.963 347.684 840.109 347.684ZM848.594 349.168C849.952 349.168 851.016 348.65 851.618 347.824L850.652 346.746C850.204 347.32 849.672 347.74 848.79 347.74C847.614 347.74 847.012 347.026 847.012 345.976V345.794H851.87V345.206C851.87 343.204 850.82 341.524 848.538 341.524C846.396 341.524 845.15 343.022 845.15 345.332C845.15 347.67 846.438 349.168 848.594 349.168ZM848.566 342.868C849.49 342.868 850.008 343.554 850.008 344.562V344.688H847.012V344.576C847.012 343.568 847.628 342.868 848.566 342.868Z" fill="black"/>
</g>
<rect x="752.5" y="320.5" width="127" height="166" stroke="#8D8D8D"/>
<path d="M812 472L816 464L820 472L812 472Z" fill="#8F8B8B"/>
<rect width="48" height="48" transform="translate(503.5 384)" fill="#6F6F6F"/>
<rect width="20" height="20" transform="translate(517.5 398)" fill="white" style="mix-blend-mode:multiply"/>
<path d="M535 405.5H530V400.5H535V405.5ZM531.25 404.25H533.75V401.75H531.25V404.25Z" fill="white"/>
<path d="M528.125 407.375V403.625H523.125V412.375H531.875V407.375H528.125ZM524.375 404.875H526.875V407.375H524.375V404.875ZM526.875 411.125H524.375V408.625H526.875V411.125ZM530.625 411.125H528.125V408.625H530.625V411.125Z" fill="white"/>
<path d="M533.75 415.5H521.25C520.919 415.5 520.601 415.368 520.367 415.133C520.132 414.899 520 414.581 520 414.25V401.75C520 401.419 520.132 401.101 520.367 400.867C520.601 400.632 520.919 400.5 521.25 400.5H527.5V401.75H521.25V414.25H533.75V408H535V414.25C535 414.581 534.868 414.899 534.633 415.133C534.399 415.368 534.081 415.5 533.75 415.5Z" fill="white"/>
<path d="M500.022 454.168C501.772 454.168 502.934 453.314 503.634 451.858L502.136 450.976C501.814 451.858 501.128 452.53 500.022 452.53C498.65 452.53 497.768 451.578 497.768 449.898V448.358C497.768 446.692 498.65 445.698 500.022 445.698C501.114 445.698 501.73 446.286 502.01 447.154L503.592 446.314C502.906 444.802 501.772 444.06 500.022 444.06C497.446 444.06 495.808 445.894 495.808 449.184C495.808 452.474 497.446 454.168 500.022 454.168ZM508.156 454.168C510.256 454.168 511.558 452.684 511.558 450.332C511.558 447.994 510.256 446.524 508.156 446.524C506.07 446.524 504.768 447.994 504.768 450.332C504.768 452.684 506.07 454.168 508.156 454.168ZM508.156 452.726C507.232 452.726 506.644 452.124 506.644 451.018V449.66C506.644 448.568 507.232 447.966 508.156 447.966C509.094 447.966 509.682 448.568 509.682 449.66V451.018C509.682 452.124 509.094 452.726 508.156 452.726ZM515.099 454V449.17C515.099 448.386 515.813 447.994 516.555 447.994C517.409 447.994 517.759 448.526 517.759 449.562V454H519.551V449.38C519.551 447.56 518.711 446.524 517.213 446.524C516.079 446.524 515.463 447.126 515.169 447.91H515.099V446.692H513.307V454H515.099ZM523.979 454H525.267V452.572H523.881V448.12H525.379V446.692H523.881V444.69H522.271V445.936C522.271 446.44 522.103 446.692 521.571 446.692H521.011V448.12H522.089V452.138C522.089 453.328 522.747 454 523.979 454ZM528.9 454.168C529.992 454.168 530.79 453.678 531.028 452.74H531.112C531.224 453.496 531.7 454 532.47 454H533.464V452.572H532.736V449.128C532.736 447.462 531.686 446.524 529.712 446.524C528.242 446.524 527.388 447.084 526.856 447.924L527.92 448.876C528.27 448.372 528.746 447.952 529.586 447.952C530.538 447.952 530.944 448.428 530.944 449.24V449.772H529.698C527.71 449.772 526.576 450.514 526.576 452.012C526.576 453.314 527.416 454.168 528.9 454.168ZM529.502 452.866C528.802 452.866 528.396 452.572 528.396 451.984V451.746C528.396 451.172 528.858 450.85 529.796 450.85H530.944V451.816C530.944 452.502 530.3 452.866 529.502 452.866ZM535.97 445.628C536.698 445.628 537.02 445.25 537.02 444.732V444.452C537.02 443.934 536.698 443.556 535.97 443.556C535.228 443.556 534.92 443.934 534.92 444.452V444.732C534.92 445.25 535.228 445.628 535.97 445.628ZM535.074 454H536.866V446.692H535.074V454ZM540.895 454V449.17C540.895 448.386 541.609 447.994 542.351 447.994C543.205 447.994 543.555 448.526 543.555 449.562V454H545.347V449.38C545.347 447.56 544.507 446.524 543.009 446.524C541.875 446.524 541.259 447.126 540.965 447.91H540.895V446.692H539.103V454H540.895ZM550.448 454.168C551.806 454.168 552.87 453.65 553.472 452.824L552.506 451.746C552.058 452.32 551.526 452.74 550.644 452.74C549.468 452.74 548.866 452.026 548.866 450.976V450.794H553.724V450.206C553.724 448.204 552.674 446.524 550.392 446.524C548.25 446.524 547.004 448.022 547.004 450.332C547.004 452.67 548.292 454.168 550.448 454.168ZM550.42 447.868C551.344 447.868 551.862 448.554 551.862 449.562V449.688H548.866V449.576C548.866 448.568 549.482 447.868 550.42 447.868ZM557.252 454V449.52C557.252 448.722 557.882 448.386 559.086 448.386H559.646V446.692H559.254C558.092 446.692 557.504 447.434 557.322 448.204H557.252V446.692H555.46V454H557.252Z" fill="black"/>
<rect width="48" height="48" transform="translate(647.5 384)" fill="#6F6F6F"/>
<rect width="20" height="20" transform="translate(661.5 398)" fill="white" style="mix-blend-mode:multiply"/>
<path d="M679 405.5H674V400.5H679V405.5ZM675.25 404.25H677.75V401.75H675.25V404.25Z" fill="white"/>
<path d="M672.125 407.375V403.625H667.125V412.375H675.875V407.375H672.125ZM668.375 404.875H670.875V407.375H668.375V404.875ZM670.875 411.125H668.375V408.625H670.875V411.125ZM674.625 411.125H672.125V408.625H674.625V411.125Z" fill="white"/>
<path d="M677.75 415.5H665.25C664.919 415.5 664.601 415.368 664.367 415.133C664.132 414.899 664 414.581 664 414.25V401.75C664 401.419 664.132 401.101 664.367 400.867C664.601 400.632 664.919 400.5 665.25 400.5H671.5V401.75H665.25V414.25H677.75V408H679V414.25C679 414.581 678.868 414.899 678.633 415.133C678.399 415.368 678.081 415.5 677.75 415.5Z" fill="white"/>
<path d="M644.022 454.168C645.772 454.168 646.934 453.314 647.634 451.858L646.136 450.976C645.814 451.858 645.128 452.53 644.022 452.53C642.65 452.53 641.768 451.578 641.768 449.898V448.358C641.768 446.692 642.65 445.698 644.022 445.698C645.114 445.698 645.73 446.286 646.01 447.154L647.592 446.314C646.906 444.802 645.772 444.06 644.022 444.06C641.446 444.06 639.808 445.894 639.808 449.184C639.808 452.474 641.446 454.168 644.022 454.168ZM652.156 454.168C654.256 454.168 655.558 452.684 655.558 450.332C655.558 447.994 654.256 446.524 652.156 446.524C650.07 446.524 648.768 447.994 648.768 450.332C648.768 452.684 650.07 454.168 652.156 454.168ZM652.156 452.726C651.232 452.726 650.644 452.124 650.644 451.018V449.66C650.644 448.568 651.232 447.966 652.156 447.966C653.094 447.966 653.682 448.568 653.682 449.66V451.018C653.682 452.124 653.094 452.726 652.156 452.726ZM659.099 454V449.17C659.099 448.386 659.813 447.994 660.555 447.994C661.409 447.994 661.759 448.526 661.759 449.562V454H663.551V449.38C663.551 447.56 662.711 446.524 661.213 446.524C660.079 446.524 659.463 447.126 659.169 447.91H659.099V446.692H657.307V454H659.099ZM667.979 454H669.267V452.572H667.881V448.12H669.379V446.692H667.881V444.69H666.271V445.936C666.271 446.44 666.103 446.692 665.571 446.692H665.011V448.12H666.089V452.138C666.089 453.328 666.747 454 667.979 454ZM672.9 454.168C673.992 454.168 674.79 453.678 675.028 452.74H675.112C675.224 453.496 675.7 454 676.47 454H677.464V452.572H676.736V449.128C676.736 447.462 675.686 446.524 673.712 446.524C672.242 446.524 671.388 447.084 670.856 447.924L671.92 448.876C672.27 448.372 672.746 447.952 673.586 447.952C674.538 447.952 674.944 448.428 674.944 449.24V449.772H673.698C671.71 449.772 670.576 450.514 670.576 452.012C670.576 453.314 671.416 454.168 672.9 454.168ZM673.502 452.866C672.802 452.866 672.396 452.572 672.396 451.984V451.746C672.396 451.172 672.858 450.85 673.796 450.85H674.944V451.816C674.944 452.502 674.3 452.866 673.502 452.866ZM679.97 445.628C680.698 445.628 681.02 445.25 681.02 444.732V444.452C681.02 443.934 680.698 443.556 679.97 443.556C679.228 443.556 678.92 443.934 678.92 444.452V444.732C678.92 445.25 679.228 445.628 679.97 445.628ZM679.074 454H680.866V446.692H679.074V454ZM684.895 454V449.17C684.895 448.386 685.609 447.994 686.351 447.994C687.205 447.994 687.555 448.526 687.555 449.562V454H689.347V449.38C689.347 447.56 688.507 446.524 687.009 446.524C685.875 446.524 685.259 447.126 684.965 447.91H684.895V446.692H683.103V454H684.895ZM694.448 454.168C695.806 454.168 696.87 453.65 697.472 452.824L696.506 451.746C696.058 452.32 695.526 452.74 694.644 452.74C693.468 452.74 692.866 452.026 692.866 450.976V450.794H697.724V450.206C697.724 448.204 696.674 446.524 694.392 446.524C692.25 446.524 691.004 448.022 691.004 450.332C691.004 452.67 692.292 454.168 694.448 454.168ZM694.42 447.868C695.344 447.868 695.862 448.554 695.862 449.562V449.688H692.866V449.576C692.866 448.568 693.482 447.868 694.42 447.868ZM701.252 454V449.52C701.252 448.722 701.882 448.386 703.086 448.386H703.646V446.692H703.254C702.092 446.692 701.504 447.434 701.322 448.204H701.252V446.692H699.46V454H701.252Z" fill="black"/>
<rect width="48" height="48" transform="translate(791.5 384)" fill="#6F6F6F"/>
<rect width="20" height="20" transform="translate(805.5 398)" fill="white" style="mix-blend-mode:multiply"/>
<path d="M823 405.5H818V400.5H823V405.5ZM819.25 404.25H821.75V401.75H819.25V404.25Z" fill="white"/>
<path d="M816.125 407.375V403.625H811.125V412.375H819.875V407.375H816.125ZM812.375 404.875H814.875V407.375H812.375V404.875ZM814.875 411.125H812.375V408.625H814.875V411.125ZM818.625 411.125H816.125V408.625H818.625V411.125Z" fill="white"/>
<path d="M821.75 415.5H809.25C808.919 415.5 808.601 415.368 808.367 415.133C808.132 414.899 808 414.581 808 414.25V401.75C808 401.419 808.132 401.101 808.367 400.867C808.601 400.632 808.919 400.5 809.25 400.5H815.5V401.75H809.25V414.25H821.75V408H823V414.25C823 414.581 822.868 414.899 822.633 415.133C822.399 415.368 822.081 415.5 821.75 415.5Z" fill="white"/>
<path d="M788.022 454.168C789.772 454.168 790.934 453.314 791.634 451.858L790.136 450.976C789.814 451.858 789.128 452.53 788.022 452.53C786.65 452.53 785.768 451.578 785.768 449.898V448.358C785.768 446.692 786.65 445.698 788.022 445.698C789.114 445.698 789.73 446.286 790.01 447.154L791.592 446.314C790.906 444.802 789.772 444.06 788.022 444.06C785.446 444.06 783.808 445.894 783.808 449.184C783.808 452.474 785.446 454.168 788.022 454.168ZM796.156 454.168C798.256 454.168 799.558 452.684 799.558 450.332C799.558 447.994 798.256 446.524 796.156 446.524C794.07 446.524 792.768 447.994 792.768 450.332C792.768 452.684 794.07 454.168 796.156 454.168ZM796.156 452.726C795.232 452.726 794.644 452.124 794.644 451.018V449.66C794.644 448.568 795.232 447.966 796.156 447.966C797.094 447.966 797.682 448.568 797.682 449.66V451.018C797.682 452.124 797.094 452.726 796.156 452.726ZM803.099 454V449.17C803.099 448.386 803.813 447.994 804.555 447.994C805.409 447.994 805.759 448.526 805.759 449.562V454H807.551V449.38C807.551 447.56 806.711 446.524 805.213 446.524C804.079 446.524 803.463 447.126 803.169 447.91H803.099V446.692H801.307V454H803.099ZM811.979 454H813.267V452.572H811.881V448.12H813.379V446.692H811.881V444.69H810.271V445.936C810.271 446.44 810.103 446.692 809.571 446.692H809.011V448.12H810.089V452.138C810.089 453.328 810.747 454 811.979 454ZM816.9 454.168C817.992 454.168 818.79 453.678 819.028 452.74H819.112C819.224 453.496 819.7 454 820.47 454H821.464V452.572H820.736V449.128C820.736 447.462 819.686 446.524 817.712 446.524C816.242 446.524 815.388 447.084 814.856 447.924L815.92 448.876C816.27 448.372 816.746 447.952 817.586 447.952C818.538 447.952 818.944 448.428 818.944 449.24V449.772H817.698C815.71 449.772 814.576 450.514 814.576 452.012C814.576 453.314 815.416 454.168 816.9 454.168ZM817.502 452.866C816.802 452.866 816.396 452.572 816.396 451.984V451.746C816.396 451.172 816.858 450.85 817.796 450.85H818.944V451.816C818.944 452.502 818.3 452.866 817.502 452.866ZM823.97 445.628C824.698 445.628 825.02 445.25 825.02 444.732V444.452C825.02 443.934 824.698 443.556 823.97 443.556C823.228 443.556 822.92 443.934 822.92 444.452V444.732C822.92 445.25 823.228 445.628 823.97 445.628ZM823.074 454H824.866V446.692H823.074V454ZM828.895 454V449.17C828.895 448.386 829.609 447.994 830.351 447.994C831.205 447.994 831.555 448.526 831.555 449.562V454H833.347V449.38C833.347 447.56 832.507 446.524 831.009 446.524C829.875 446.524 829.259 447.126 828.965 447.91H828.895V446.692H827.103V454H828.895ZM838.448 454.168C839.806 454.168 840.87 453.65 841.472 452.824L840.506 451.746C840.058 452.32 839.526 452.74 838.644 452.74C837.468 452.74 836.866 452.026 836.866 450.976V450.794H841.724V450.206C841.724 448.204 840.674 446.524 838.392 446.524C836.25 446.524 835.004 448.022 835.004 450.332C835.004 452.67 836.292 454.168 838.448 454.168ZM838.42 447.868C839.344 447.868 839.862 448.554 839.862 449.562V449.688H836.866V449.576C836.866 448.568 837.482 447.868 838.42 447.868ZM845.252 454V449.52C845.252 448.722 845.882 448.386 847.086 448.386H847.646V446.692H847.254C846.092 446.692 845.504 447.434 845.322 448.204H845.252V446.692H843.46V454H845.252Z" fill="black"/>
<path d="M384 408L379 405.113V410.887L384 408ZM288 408.5H291.376V407.5H288V408.5ZM280.5 400V360H279.5V400H280.5ZM291.376 408.5H379.5V407.5H291.376V408.5ZM288 407.5C283.858 407.5 280.5 404.142 280.5 400H279.5C279.5 404.694 283.306 408.5 288 408.5V407.5Z" fill="#736F6F"/>
<rect width="48" height="48" transform="translate(384.5 384)" fill="#009D9A"/>
<rect width="20" height="20" transform="translate(398.5 398)" fill="white" style="mix-blend-mode:multiply"/>
<path d="M414.125 404.875C413.405 404.876 412.707 405.125 412.15 405.581C411.592 406.036 411.208 406.67 411.063 407.375H405.937C405.782 406.616 405.351 405.942 404.727 405.483C404.103 405.024 403.331 404.813 402.561 404.891C401.79 404.969 401.076 405.33 400.557 405.904C400.038 406.479 399.75 407.226 399.75 408C399.75 408.774 400.038 409.521 400.557 410.096C401.076 410.67 401.79 411.031 402.561 411.109C403.331 411.187 404.103 410.976 404.727 410.517C405.351 410.058 405.782 409.384 405.937 408.625H411.063C411.181 409.204 411.462 409.738 411.871 410.165C412.281 410.591 412.803 410.893 413.377 411.034C413.951 411.176 414.554 411.151 415.115 410.964C415.676 410.777 416.172 410.434 416.546 409.976C416.92 409.518 417.156 408.964 417.227 408.377C417.299 407.79 417.202 407.195 416.948 406.66C416.695 406.126 416.295 405.675 415.795 405.359C415.296 405.043 414.716 404.875 414.125 404.875ZM414.125 409.875C413.754 409.875 413.392 409.765 413.083 409.559C412.775 409.353 412.535 409.06 412.393 408.718C412.251 408.375 412.214 407.998 412.286 407.634C412.358 407.27 412.537 406.936 412.799 406.674C413.061 406.412 413.396 406.233 413.759 406.161C414.123 406.089 414.5 406.126 414.843 406.268C415.185 406.41 415.478 406.65 415.684 406.958C415.89 407.267 416 407.629 416 408C416 408.497 415.802 408.974 415.45 409.325C415.099 409.677 414.622 409.874 414.125 409.875Z" fill="white"/>
<path d="M384.066 454H386.096V444.228H384.346V451.27H384.304L383.296 449.24L380.356 444.228H378.326V454H380.076V446.958H380.118L381.126 448.988L384.066 454ZM391.335 454.168C393.435 454.168 394.737 452.684 394.737 450.332C394.737 447.994 393.435 446.524 391.335 446.524C389.249 446.524 387.947 447.994 387.947 450.332C387.947 452.684 389.249 454.168 391.335 454.168ZM391.335 452.726C390.411 452.726 389.823 452.124 389.823 451.018V449.66C389.823 448.568 390.411 447.966 391.335 447.966C392.273 447.966 392.861 448.568 392.861 449.66V451.018C392.861 452.124 392.273 452.726 391.335 452.726ZM401.021 454H402.813V443.64H401.021V447.896H400.951C400.699 447.056 399.901 446.524 398.935 446.524C397.101 446.524 396.079 447.896 396.079 450.332C396.079 452.782 397.101 454.168 398.935 454.168C399.901 454.168 400.685 453.608 400.951 452.782H401.021V454ZM399.509 452.684C398.585 452.684 397.955 452.012 397.955 450.976V449.716C397.955 448.68 398.585 447.994 399.509 447.994C400.363 447.994 401.021 448.456 401.021 449.17V451.494C401.021 452.25 400.363 452.684 399.509 452.684ZM407.994 454.168C409.352 454.168 410.416 453.65 411.018 452.824L410.052 451.746C409.604 452.32 409.072 452.74 408.19 452.74C407.014 452.74 406.412 452.026 406.412 450.976V450.794H411.27V450.206C411.27 448.204 410.22 446.524 407.938 446.524C405.796 446.524 404.55 448.022 404.55 450.332C404.55 452.67 405.838 454.168 407.994 454.168ZM407.966 447.868C408.89 447.868 409.408 448.554 409.408 449.562V449.688H406.412V449.576C406.412 448.568 407.028 447.868 407.966 447.868ZM414.967 454V450.276H417.515C419.321 450.276 420.413 449.072 420.413 447.252C420.413 445.446 419.321 444.228 417.515 444.228H413.119V454H414.967ZM414.967 445.838H417.347C418.061 445.838 418.495 446.216 418.495 446.93V447.574C418.495 448.288 418.061 448.68 417.347 448.68H414.967V445.838ZM424.76 454.168C426.86 454.168 428.162 452.684 428.162 450.332C428.162 447.994 426.86 446.524 424.76 446.524C422.674 446.524 421.372 447.994 421.372 450.332C421.372 452.684 422.674 454.168 424.76 454.168ZM424.76 452.726C423.836 452.726 423.248 452.124 423.248 451.018V449.66C423.248 448.568 423.836 447.966 424.76 447.966C425.698 447.966 426.286 448.568 426.286 449.66V451.018C426.286 452.124 425.698 452.726 424.76 452.726ZM431.703 454V449.52C431.703 448.722 432.333 448.386 433.537 448.386H434.097V446.692H433.705C432.543 446.692 431.955 447.434 431.773 448.204H431.703V446.692H429.911V454H431.703ZM437.903 454H439.191V452.572H437.805V448.12H439.303V446.692H437.805V444.69H436.195V445.936C436.195 446.44 436.027 446.692 435.495 446.692H434.935V448.12H436.013V452.138C436.013 453.328 436.671 454 437.903 454Z" fill="black"/>
<path d="M408 464L408 512C408 516.418 411.582 520 416 520L520 520C524.418 520 528 516.418 528 512L528 471" stroke="#8F8B8B"/>
<path d="M408 464L408 512C408 516.418 411.582 520 416 520L664 520C668.418 520 672 516.418 672 512L672 471.5" stroke="#8F8B8B"/>
<path d="M408 464L408 512C408 516.418 411.582 520 416 520L664 520C668.418 520 672 516.418 672 512L672 471.5" stroke="#8F8B8B"/>
<path d="M668 472L672 464L676 472L668 472Z" fill="#8F8B8B"/>
<path d="M408 464L408 512C408 516.418 411.582 520 416 520L808 520C812.418 520 816 516.418 816 512L816 471.5" stroke="#8F8B8B"/>
<defs>
<clipPath id="clip0_621_39280">
<rect width="89" height="48" fill="white" transform="translate(208 72)"/>
</clipPath>
<clipPath id="clip1_621_39280">
<rect width="96" height="48" fill="white" transform="translate(224 136)"/>
</clipPath>
<clipPath id="clip2_621_39280">
<rect width="20" height="20" fill="white" transform="translate(240 150)"/>
</clipPath>
<clipPath id="clip3_621_39280">
<rect width="104" height="48" fill="white" transform="translate(336 200)"/>
</clipPath>
<clipPath id="clip4_621_39280">
<rect width="544" height="48" fill="white" transform="translate(352 264)"/>
</clipPath>
<clipPath id="clip5_621_39280">
<rect width="128" height="48" fill="white" transform="translate(608 320)"/>
</clipPath>
<clipPath id="clip6_621_39280">
<rect width="128" height="48" fill="white" transform="translate(464 320)"/>
</clipPath>
<clipPath id="clip7_621_39280">
<rect width="128" height="48" fill="white" transform="translate(752 320)"/>
</clipPath>
</defs>
</svg>
