<?xml version="1.0" encoding="UTF-8" standalone="no"?>
<svg
   xmlns:dc="http://purl.org/dc/elements/1.1/"
   xmlns:cc="http://creativecommons.org/ns#"
   xmlns:rdf="http://www.w3.org/1999/02/22-rdf-syntax-ns#"
   xmlns:svg="http://www.w3.org/2000/svg"
   xmlns="http://www.w3.org/2000/svg"
   xmlns:sodipodi="http://sodipodi.sourceforge.net/DTD/sodipodi-0.dtd"
   xmlns:inkscape="http://www.inkscape.org/namespaces/inkscape"
   viewBox="0 0 150 32"
   enable-background="new 0 0 150 32"
   id="svg2"
   version="1.1"
   inkscape:version="0.47 r22583"
   width="100%"
   height="100%"
   sodipodi:docname="deploy_buttonx2.svg">
  <metadata
     id="metadata32">
    <rdf:RDF>
      <cc:Work
         rdf:about="">
        <dc:format>image/svg+xml</dc:format>
        <dc:type
           rdf:resource="http://purl.org/dc/dcmitype/StillImage" />
        <dc:title />
      </cc:Work>
    </rdf:RDF>
  </metadata>
  <defs
     id="defs30">
    <inkscape:perspective
       sodipodi:type="inkscape:persp3d"
       inkscape:vp_x="0 : 16 : 1"
       inkscape:vp_y="0 : 1000 : 0"
       inkscape:vp_z="150 : 16 : 1"
       inkscape:persp3d-origin="75 : 10.666667 : 1"
       id="perspective20" />
  </defs>
  <sodipodi:namedview
     pagecolor="#ffffff"
     bordercolor="#666666"
     borderopacity="1"
     objecttolerance="10"
     gridtolerance="10"
     guidetolerance="10"
     inkscape:pageopacity="0"
     inkscape:pageshadow="2"
     inkscape:window-width="1440"
     inkscape:window-height="853"
     id="namedview28"
     showgrid="false"
     inkscape:zoom="2.26"
     inkscape:cx="109.0381"
     inkscape:cy="16"
     inkscape:window-x="-4"
     inkscape:window-y="-4"
     inkscape:window-maximized="1"
     inkscape:current-layer="svg2" />
  <path
     d="m -69,47 c -2.8,0 -5,-2.2 -5,-5 v -52 c 0,-2.8 2.2,-5 5,-5 h 288 c 2.8,0 5,2.2 5,5 v 52 c 0,2.8 -2.2,5 -5,5 H -69 z"
     id="path4"
     inkscape:connector-curvature="0"
     style="fill:#1d3649" />
  <path
     d="m 219,-14 c 2.2,0 4,1.8 4,4 v 52 c 0,2.2 -1.8,4 -4,4 H -69 c -2.2,0 -4,-1.8 -4,-4 v -52 c 0,-2.2 1.8,-4 4,-4 h 288 m 0,-2 H -69 c -3.4,0 -6,2.8 -6,6 v 52 c 0,3.2 2.6,6 6,6 h 288 c 3.2,0 6,-2.8 6,-6 v -52 c 0,-3.2 -2.8,-6 -6,-6 z"
     id="path6"
     inkscape:connector-curvature="0"
     style="fill:#152935" />
  <g
     id="g8"
     transform="matrix(1.7010562,0,0,1.2320989,-61.946375,-0.65796923)"
     style="fill:#ffffff">
    <text
       xml:space="preserve"
       style="font-size:16.44765472px;font-style:normal;font-variant:normal;font-weight:300;font-stretch:normal;text-align:start;line-height:125%;letter-spacing:0px;word-spacing:0px;writing-mode:lr-tb;text-anchor:start;fill:#ffffff;fill-opacity:1;stroke:none;font-family:HelvNeue Light for IBM;-inkscape-font-specification:'HelvNeue Light for IBM, Light'"
       x="42.929855"
       y="17.553867"
       id="text3344"
       sodipodi:linespacing="125%"
       transform="scale(0.82238272,1.2159789)"><tspan
         sodipodi:role="line"
         id="tspan3346"
         x="42.929855"
         y="17.553867"><tspan
           style="font-size:16.44750023px;font-style:normal;font-variant:normal;font-weight:bold;font-stretch:normal;text-align:start;line-height:125%;writing-mode:lr-tb;text-anchor:start;font-family:sans-serif;-inkscape-font-specification:'sans-serif, Bold'"
           id="tspan3348">部署至 Bluemix</tspan></tspan></text>
  </g>
  <path
     d="m -38.4,15.4 c 0,1.4 0.2,3 0.8,4.2 0.6,1.4 1.4,2.4 2.4,3.4 l 0.6,0.6 V 6.8 l -0.6,0.6 c -1,1 -1.8,2.2 -2.4,3.4 -0.4,1.8 -0.8,3.2 -0.8,4.6 z"
     id="path12"
     inkscape:connector-curvature="0"
     style="fill:#94a3ab" />
  <path
     d="m -19.6,7.8 c -1,-1 -2.2,-1.8 -3.4,-2.4 -1.4,-0.6 -2.8,-0.8 -4.2,-0.8 -1.2,0 -2.6,0.2 -3.8,0.6 l 14.6,8.4 -0.6,-2.4 c -0.8,-1.4 -1.6,-2.4 -2.6,-3.4 z m -12.8,-2 5.4,9.2 h 10.6 V 14.6 L -32,5.6 c -0.2,0 -0.4,0 -0.4,0.2 z"
     id="path14"
     inkscape:connector-curvature="0"
     style="fill:#00b4a0" />
  <path
     d="M -16.4,15.8 H -27 l -5.4,9.2 0.4,0.2 15.6,-9 v -0.4 z m -6.8,9.8 c 1.4,-0.6 2.4,-1.4 3.4,-2.4 1,-1 1.8,-2.2 2.4,-3.4 0.4,-0.8 0.6,-1.6 0.6,-2.4 l -14.6,8.4 c 1.2,0.4 2.4,0.6 3.8,0.6 1.8,0 3.2,-0.4 4.4,-0.8 z"
     id="path16"
     inkscape:connector-curvature="0"
     style="fill:#5aaafa" />
  <path
     d="m -28,15.4 -5.4,-9.2 -0.4,0.2 v 18 l 0.2,0.2 5.6,-9.2 z"
     id="path18"
     inkscape:connector-curvature="0"
     style="fill:#94a3ab" />
  <path
     d="M -27.2,15.8 z"
     id="path20"
     inkscape:connector-curvature="0"
     style="fill:#919191" />
  <path
     d="m -27.4,3.6 c 6,0 11,4.6 11.8,10.4 v 0.4 L -10.2,5 -15.8,-4.8 H -27 l -5.4,9.4 0.6,-0.2 C -30.6,4 -29,3.6 -27.4,3.6 z"
     id="path22"
     inkscape:connector-curvature="0"
     style="fill:#00b4a0" />
  <path
     d="m -15.6,16.2 v 0.6 c -0.6,5.8 -5.6,10.4 -11.8,10.4 -1.6,0 -3.2,-0.4 -4.6,-1 -0.2,0 -0.4,-0.2 -0.4,-0.2 l 5.4,9.4 h 11.2 l 5.6,-9.8 -5.4,-9.4 z"
     id="path24"
     inkscape:connector-curvature="0"
     style="fill:#5aaafa" />
  <path
     d="m -34,5.6 h -10.8 l -5.6,9.8 5.6,9.8 H -34 L -34.4,25 c -2.8,-2.2 -4.8,-5.6 -4.8,-9.4 0,-3.8 1.8,-7.2 4.8,-9.4 0.2,-0.4 0.2,-0.4 0.4,-0.6 z"
     id="path26"
     inkscape:connector-curvature="0"
     style="fill:#94a3ab" />
</svg>
