<?xml version="1.0" encoding="utf-8"?>
<!-- Generator: Adobe Illustrator 19.0.0, SVG Export Plug-In . SVG Version: 6.00 Build 0)  -->
<svg version="1.1" id="Layer_1" xmlns="http://www.w3.org/2000/svg" xmlns:xlink="http://www.w3.org/1999/xlink" x="0px" y="0px"
	 viewBox="0 0 66 72" style="enable-background:new 0 0 66 72;" xml:space="preserve">
<style type="text/css">
	.st0{fill:#565656;}
</style>
<g>
	<path class="st0" d="M45.4,50.4c-3.2,0-5.8,2.6-5.8,5.8c0,0.1,0,0.3,0,0.4h-2.9c0-0.1,0-0.3,0-0.4c0-3.2-2.6-5.8-5.8-5.8
		c-2.5,0-4.7,1.6-5.5,4.1c-0.2,0.5,0.1,1.1,0.7,1.3c0.5,0.2,1.1-0.1,1.3-0.7c0.5-1.6,2-2.7,3.6-2.7c2.1,0,3.8,1.7,3.8,3.8
		c0,2.1-1.7,3.8-3.8,3.8c-1.7,0-3.1-1.1-3.6-2.7c-0.1-0.4-0.5-0.7-1-0.7h-1.7c-2.7,0-4.8-2.2-4.8-4.8c0-1.4,0.6-2.7,1.7-3.6
		c0.3-0.2,0.4-0.6,0.3-1l-7.7-29.6c-0.1-0.4-0.5-0.8-1-0.8H9.4c-0.8,0-1.4-0.6-1.4-1.4S8.6,14,9.4,14h5.6c0,0,0.1,0,0.1,0
		c0.6,0,1.2,0.4,1.4,1l1.4,5.5c0,0,0,0,0,0l5.7,21.9c0.1,0.5,0.5,0.8,1,0.8c0.1,0,0.2,0,0.3,0c0.5-0.1,0.9-0.7,0.7-1.2l-4.3-16.5
		h4.3c0.6,0,1-0.4,1-1c0-0.6-0.4-1-1-1h-4.8L19.8,20l0,0l0,0l-0.3-1.3c0,0,0,0,0,0l-1.1-4.2c-0.4-1.4-1.7-2.5-3.1-2.5
		c0,0-0.1,0-0.1,0H9.4C7.5,12,6,13.5,6,15.4s1.5,3.4,3.4,3.4h3l7.3,28.3c-1.2,1.3-1.9,2.9-1.9,4.7c0,3.8,3.1,6.8,6.8,6.8h1.1
		c0.9,2,3,3.4,5.2,3.4c2.3,0,4.3-1.4,5.3-3.4h4c0.9,2,2.9,3.4,5.3,3.4c3.2,0,5.8-2.6,5.8-5.8C51.2,53,48.6,50.4,45.4,50.4z M45.4,60
		c-2.1,0-3.8-1.7-3.8-3.8c0-2.1,1.7-3.8,3.8-3.8s3.8,1.7,3.8,3.8C49.2,58.3,47.5,60,45.4,60z"/>
	<path class="st0" d="M30.8,30.3l0.1,0l0,0.1c0.5,2.3,2.5,4.1,4.9,4.6l0.2,0v0.8c0,0.5,0.4,1,1,1s1-0.4,1-1V35l0.2,0
		c2.9-0.5,5.1-2.9,5.1-5.7c0-3.2-2.8-5.8-6.2-5.8c-2.3,0-4.2-1.7-4.2-3.8s1.9-3.8,4.2-3.8c1.9,0,3.5,1.1,4,2.7l0.1,0.2L41,18.8
		c-0.3,0.2-0.5,0.5-0.5,0.9c0,0.5,0.4,1,1,1h1.7c0.5,0,1-0.4,1-1c0-0.5-0.4-0.9-0.8-1l-0.1,0l0-0.1c-0.5-2.3-2.4-4.1-4.9-4.5L38,14
		v-0.8c0-0.5-0.4-1-1-1s-1,0.4-1,1V14l-0.2,0c-2.9,0.5-5.1,2.9-5.1,5.7c0,3.2,2.8,5.8,6.2,5.8c2.3,0,4.2,1.7,4.2,3.8
		s-1.9,3.8-4.2,3.8c-1.8,0-3.5-1.1-4-2.7l-0.1-0.2l0.2-0.1c0.3-0.2,0.5-0.5,0.5-0.9c0-0.5-0.4-1-1-1h-1.7c-0.5,0-1,0.4-1,1
		C29.9,29.8,30.3,30.2,30.8,30.3z"/>
	<path class="st0" d="M55,23.5h-5.3c-0.6,0-1,0.4-1,1c0,0.6,0.4,1,1,1H54v10c0,4.2-3,7.7-7.1,8.5l-23.4,4.1
		c-0.5,0.1-0.9,0.6-0.8,1.2c0.1,0.5,0.5,0.8,1,0.8c0.1,0,0.1,0,0.2,0l23.4-4.1C52.3,45,56,40.6,56,35.5v-11C56,24,55.5,23.5,55,23.5
		z"/>
</g>
</svg>
