<?xml version="1.0" encoding="UTF-8" standalone="no"?>
<!-- Generator: Adobe Illustrator 19.0.0, SVG Export Plug-In . SVG Version: 6.00 Build 0)  -->

<svg
   xmlns:dc="http://purl.org/dc/elements/1.1/"
   xmlns:cc="http://creativecommons.org/ns#"
   xmlns:rdf="http://www.w3.org/1999/02/22-rdf-syntax-ns#"
   xmlns:svg="http://www.w3.org/2000/svg"
   xmlns="http://www.w3.org/2000/svg"
   xmlns:sodipodi="http://sodipodi.sourceforge.net/DTD/sodipodi-0.dtd"
   xmlns:inkscape="http://www.inkscape.org/namespaces/inkscape"
   version="1.1"
   id="Layer_1"
   x="0px"
   y="0px"
   viewBox="-121 152 716.6 257"
   style="enable-background:new -121 152 716.6 257;"
   xml:space="preserve"
   inkscape:version="0.91 r13725"
   sodipodi:docname="architecture_logmet.svg"><metadata
     id="metadata289"><rdf:RDF><cc:Work
         rdf:about=""><dc:format>image/svg+xml</dc:format><dc:type
           rdf:resource="http://purl.org/dc/dcmitype/StillImage" /></cc:Work></rdf:RDF></metadata><defs
     id="defs287" /><sodipodi:namedview
     pagecolor="#ffffff"
     bordercolor="#666666"
     borderopacity="1"
     objecttolerance="10"
     gridtolerance="10"
     guidetolerance="10"
     inkscape:pageopacity="0"
     inkscape:pageshadow="2"
     inkscape:window-width="1920"
     inkscape:window-height="1015"
     id="namedview285"
     showgrid="false"
     inkscape:zoom="1.8434273"
     inkscape:cx="358.3"
     inkscape:cy="151.3"
     inkscape:window-x="-8"
     inkscape:window-y="-8"
     inkscape:window-maximized="1"
     inkscape:current-layer="Layer_1" /><style
     type="text/css"
     id="style3">
	.st0{fill:none;stroke:#000000;stroke-miterlimit:10;}
	.st1{fill:none;stroke:#000000;stroke-miterlimit:10;stroke-dasharray:11.705,11.705;}
	.st2{fill:none;stroke:#000000;stroke-miterlimit:10;stroke-dasharray:12.3803,12.3803;}
	.st3{fill:#FFFFFF;}
	.st4{fill:none;stroke:#000000;stroke-miterlimit:10;stroke-dasharray:11.3363,11.3363;}
	.st5{fill:none;stroke:#000000;stroke-miterlimit:10;stroke-dasharray:12.43,12.43;}
	.st6{fill:#DFE6EB;}
	.st7{fill:#8AC642;}
	.st8{fill:#0BAED1;}
	.st9{fill:#06446A;}
	.st10{fill:#6AA4D9;}
	.st11{fill:#87C3EB;}
	.st12{fill:none;stroke:#394B54;stroke-miterlimit:10;}
	.st13{fill:#394B54;}
	.st14{fill:none;stroke:#000000;stroke-miterlimit:10;stroke-dasharray:11.5782,11.5782;}
	.st15{fill:none;stroke:#000000;stroke-miterlimit:10;stroke-dasharray:12.4345,12.4345;}
	.st16{fill:#00B39F;}
	.st17{fill:#86D0C8;}
	.st18{fill:#FFFFFF;stroke:#394B54;stroke-miterlimit:10;}
	.st19{fill:#EEC11B;}
	.st20{fill:#F47737;}
	.st21{fill:#8EC73F;}
	.st22{fill:#152935;}
	.st23{fill:none;stroke:#00B39F;stroke-miterlimit:10;}
	.st24{fill:none;stroke:#EEC11B;stroke-miterlimit:10;}
	.st25{fill:#10212D;}
	.st26{fill:#42535C;}
	.st27{fill:#5B6872;}
	.st28{fill:#87C3EB;stroke:#394B54;stroke-miterlimit:10;}
	.st29{fill:#4278BD;}
	.st30{fill:#FFFFFF;stroke:#1C3649;stroke-miterlimit:10;}
	.st31{font-family:'HelveticaNeueforIBM-Roman';}
	.st32{font-size:12px;}
	.st33{font-size:14px;}
	.st34{enable-background:new    ;}
	.st35{font-size:10px;}
</style><g
     id="XMLID_259_"><path
       id="XMLID_278_"
       class="st0"
       d="m 447.8,356.9 0,6 -6,0"
       inkscape:connector-curvature="0"
       style="fill:none;stroke:#000000;stroke-miterlimit:10" /><path
       id="XMLID_277_"
       class="st1"
       d="m 430.1,362.9 -298.5,0"
       inkscape:connector-curvature="0"
       style="fill:none;stroke:#000000;stroke-miterlimit:10;stroke-dasharray:11.705, 11.705" /><path
       id="XMLID_276_"
       class="st0"
       d="m 125.8,362.9 -6,0 0,-6"
       inkscape:connector-curvature="0"
       style="fill:none;stroke:#000000;stroke-miterlimit:10" /><path
       id="XMLID_275_"
       class="st2"
       d="m 119.8,344.5 0,-92.9"
       inkscape:connector-curvature="0"
       style="fill:none;stroke:#000000;stroke-miterlimit:10;stroke-dasharray:12.3803, 12.3803" /><path
       id="XMLID_274_"
       class="st0"
       d="m 119.8,245.4 0,-6 6,0"
       inkscape:connector-curvature="0"
       style="fill:none;stroke:#000000;stroke-miterlimit:10" /><path
       id="XMLID_262_"
       class="st1"
       d="m 137.5,239.4 298.4,0"
       inkscape:connector-curvature="0"
       style="fill:none;stroke:#000000;stroke-miterlimit:10;stroke-dasharray:11.705, 11.705" /><path
       id="XMLID_261_"
       class="st0"
       d="m 441.8,239.4 6,0 0,6"
       inkscape:connector-curvature="0"
       style="fill:none;stroke:#000000;stroke-miterlimit:10" /><path
       id="XMLID_260_"
       class="st2"
       d="m 447.8,257.8 0,92.9"
       inkscape:connector-curvature="0"
       style="fill:none;stroke:#000000;stroke-miterlimit:10;stroke-dasharray:12.3803, 12.3803" /></g><path
     style="fill:#ffffff"
     inkscape:connector-curvature="0"
     d="m 440.6,276.2 19.2,0 0,27.4 -19.2,0 0,-27.4 z"
     class="st3"
     id="XMLID_249_" /><path
     style="fill:#ffffff"
     inkscape:connector-curvature="0"
     d="m 101.9,249.6 34.9,0 0,102.4 -34.9,0 0,-102.4 z"
     class="st3"
     id="XMLID_115_" /><g
     id="XMLID_504_"><path
       id="XMLID_512_"
       class="st0"
       d="m 2.3,356.9 0,6 -6,0"
       inkscape:connector-curvature="0"
       style="fill:none;stroke:#000000;stroke-miterlimit:10" /><path
       id="XMLID_511_"
       class="st4"
       d="m -15,362.9 -85,0"
       inkscape:connector-curvature="0"
       style="fill:none;stroke:#000000;stroke-miterlimit:10;stroke-dasharray:11.3363, 11.3363" /><path
       id="XMLID_510_"
       class="st0"
       d="m -105.7,362.9 -6,0 0,-6"
       inkscape:connector-curvature="0"
       style="fill:none;stroke:#000000;stroke-miterlimit:10" /><path
       id="XMLID_509_"
       class="st5"
       d="m -111.7,344.4 0,-93.2"
       inkscape:connector-curvature="0"
       style="fill:none;stroke:#000000;stroke-miterlimit:10;stroke-dasharray:12.43, 12.43" /><path
       id="XMLID_508_"
       class="st0"
       d="m -111.7,245 0,-6 6,0"
       inkscape:connector-curvature="0"
       style="fill:none;stroke:#000000;stroke-miterlimit:10" /><path
       id="XMLID_507_"
       class="st4"
       d="m -94.4,239 85.1,0"
       inkscape:connector-curvature="0"
       style="fill:none;stroke:#000000;stroke-miterlimit:10;stroke-dasharray:11.3363, 11.3363" /><path
       id="XMLID_506_"
       class="st0"
       d="m -3.7,239 6,0 0,6"
       inkscape:connector-curvature="0"
       style="fill:none;stroke:#000000;stroke-miterlimit:10" /><path
       id="XMLID_505_"
       class="st5"
       d="m 2.3,257.4 0,93.2"
       inkscape:connector-curvature="0"
       style="fill:none;stroke:#000000;stroke-miterlimit:10;stroke-dasharray:12.43, 12.43" /></g><circle
     id="XMLID_30_"
     class="st6"
     cx="-67.199997"
     cy="284.5"
     r="20"
     style="fill:#dfe6eb" /><g
     id="XMLID_2_"><g
       id="XMLID_3_"><g
         id="XMLID_4_"><path
           id="XMLID_28_"
           class="st7"
           d="m -77.9,272.5 10.1,0 0,10.1 -10.1,0 0,-10.1 z"
           inkscape:connector-curvature="0"
           style="fill:#8ac642" /><path
           id="XMLID_27_"
           class="st8"
           d="m -77.9,283.8 10.1,0 0,10.1 -10.1,0 0,-10.1 z"
           inkscape:connector-curvature="0"
           style="fill:#0baed1" /><path
           id="XMLID_26_"
           class="st8"
           d="m -66.6,272.5 10.1,0 0,10.1 -10.1,0 0,-10.1 z"
           inkscape:connector-curvature="0"
           style="fill:#0baed1" /><path
           id="XMLID_25_"
           class="st7"
           d="m -66.6,283.8 10.1,0 0,10.1 -10.1,0 0,-10.1 z"
           inkscape:connector-curvature="0"
           style="fill:#8ac642" /><g
           id="XMLID_20_"><path
             id="XMLID_24_"
             class="st3"
             d="m -76.4,273.9 0.6,0 0,7.4 -0.6,0 0,-7.4 z"
             inkscape:connector-curvature="0"
             style="fill:#ffffff" /><path
             id="XMLID_23_"
             class="st3"
             d="m -69.9,273.9 0.6,0 0,7.4 -0.6,0 0,-7.4 z"
             inkscape:connector-curvature="0"
             style="fill:#ffffff" /><path
             id="XMLID_22_"
             class="st3"
             d="m -72.1,273.9 0.6,0 0,7.4 -0.6,0 0,-7.4 z"
             inkscape:connector-curvature="0"
             style="fill:#ffffff" /><path
             id="XMLID_21_"
             class="st3"
             d="m -74.2,273.9 0.6,0 0,7.4 -0.6,0 0,-7.4 z"
             inkscape:connector-curvature="0"
             style="fill:#ffffff" /></g><g
           id="XMLID_15_"><path
             id="XMLID_19_"
             class="st3"
             d="m -65.1,273.9 0.6,0 0,7.4 -0.6,0 0,-7.4 z"
             inkscape:connector-curvature="0"
             style="fill:#ffffff" /><path
             id="XMLID_18_"
             class="st3"
             d="m -58.6,273.9 0.6,0 0,7.4 -0.6,0 0,-7.4 z"
             inkscape:connector-curvature="0"
             style="fill:#ffffff" /><path
             id="XMLID_17_"
             class="st3"
             d="m -60.8,273.9 0.6,0 0,7.4 -0.6,0 0,-7.4 z"
             inkscape:connector-curvature="0"
             style="fill:#ffffff" /><path
             id="XMLID_16_"
             class="st3"
             d="m -62.9,273.9 0.6,0 0,7.4 -0.6,0 0,-7.4 z"
             inkscape:connector-curvature="0"
             style="fill:#ffffff" /></g><g
           id="XMLID_10_"><path
             id="XMLID_14_"
             class="st3"
             d="m -76.4,285.2 0.6,0 0,7.4 -0.6,0 0,-7.4 z"
             inkscape:connector-curvature="0"
             style="fill:#ffffff" /><path
             id="XMLID_13_"
             class="st3"
             d="m -69.9,285.2 0.6,0 0,7.4 -0.6,0 0,-7.4 z"
             inkscape:connector-curvature="0"
             style="fill:#ffffff" /><path
             id="XMLID_12_"
             class="st3"
             d="m -72.1,285.2 0.6,0 0,7.4 -0.6,0 0,-7.4 z"
             inkscape:connector-curvature="0"
             style="fill:#ffffff" /><path
             id="XMLID_11_"
             class="st3"
             d="m -74.2,285.2 0.6,0 0,7.4 -0.6,0 0,-7.4 z"
             inkscape:connector-curvature="0"
             style="fill:#ffffff" /></g><g
           id="XMLID_5_"><path
             id="XMLID_9_"
             class="st3"
             d="m -65.1,285.2 0.6,0 0,7.4 -0.6,0 0,-7.4 z"
             inkscape:connector-curvature="0"
             style="fill:#ffffff" /><path
             id="XMLID_8_"
             class="st3"
             d="m -58.6,285.2 0.6,0 0,7.4 -0.6,0 0,-7.4 z"
             inkscape:connector-curvature="0"
             style="fill:#ffffff" /><path
             id="XMLID_7_"
             class="st3"
             d="m -60.8,285.2 0.6,0 0,7.4 -0.6,0 0,-7.4 z"
             inkscape:connector-curvature="0"
             style="fill:#ffffff" /><path
             id="XMLID_6_"
             class="st3"
             d="m -62.9,285.2 0.6,0 0,7.4 -0.6,0 0,-7.4 z"
             inkscape:connector-curvature="0"
             style="fill:#ffffff" /></g></g><path
         id="XMLID_29_"
         class="st9"
         d="m -53.4,296.6 -27.5,0 0,-5.6 1.4,0 0,4.1 24.6,0 0,-4.1 1.5,0 0,5.6 z"
         inkscape:connector-curvature="0"
         style="fill:#06446a" /></g></g><path
     style="fill:#6aa4d9"
     inkscape:connector-curvature="0"
     d="m 81,152 377.5,0 0,23.3 -377.5,0 0,-23.3 z"
     class="st10"
     id="XMLID_32_" /><path
     style="fill:#87c3eb"
     inkscape:connector-curvature="0"
     d="m 458.4,152 137.2,0 0,23.3 -137.2,0 0,-23.3 z"
     class="st11"
     id="XMLID_35_" /><g
     id="XMLID_110_"><path
       id="XMLID_116_"
       class="st12"
       d="m 140.1,285.3 19.6,0"
       inkscape:connector-curvature="0"
       style="fill:none;stroke:#394b54;stroke-miterlimit:10" /><g
       id="XMLID_111_"><path
         id="XMLID_112_"
         class="st13"
         d="m 158.2,290.3 8.7,-5 -8.7,-4.9 0,9.9 z"
         inkscape:connector-curvature="0"
         style="fill:#394b54" /></g></g><g
     id="XMLID_243_"><path
       id="XMLID_247_"
       class="st12"
       d="m 215.9,285.4 19.5,0"
       inkscape:connector-curvature="0"
       style="fill:none;stroke:#394b54;stroke-miterlimit:10" /><g
       id="XMLID_244_"><path
         id="XMLID_245_"
         class="st13"
         d="m 234,290.4 8.6,-5 -8.6,-5 0,10 z"
         inkscape:connector-curvature="0"
         style="fill:#394b54" /></g></g><g
     id="XMLID_231_"><path
       id="XMLID_239_"
       class="st12"
       d="m 290,285.4 19.6,0"
       inkscape:connector-curvature="0"
       style="fill:none;stroke:#394b54;stroke-miterlimit:10" /><g
       id="XMLID_232_"><path
         id="XMLID_235_"
         class="st13"
         d="m 308.2,290.4 8.6,-5 -8.6,-5 0,10 z"
         inkscape:connector-curvature="0"
         style="fill:#394b54" /></g></g><g
     id="XMLID_165_"><path
       id="XMLID_175_"
       class="st12"
       d="m 361.3,285.4 19.6,0"
       inkscape:connector-curvature="0"
       style="fill:none;stroke:#394b54;stroke-miterlimit:10" /><g
       id="XMLID_166_"><path
         id="XMLID_171_"
         class="st13"
         d="m 379.5,290.4 8.6,-5 -8.6,-5 0,10 z"
         inkscape:connector-curvature="0"
         style="fill:#394b54" /></g></g><g
     id="XMLID_236_"><path
       id="XMLID_257_"
       class="st0"
       d="m 585.1,356.9 0,6 -6,0"
       inkscape:connector-curvature="0"
       style="fill:none;stroke:#000000;stroke-miterlimit:10" /><path
       id="XMLID_256_"
       class="st14"
       d="m 567.6,362.9 -86.9,0"
       inkscape:connector-curvature="0"
       style="fill:none;stroke:#000000;stroke-miterlimit:10;stroke-dasharray:11.5782, 11.5782" /><path
       id="XMLID_255_"
       class="st0"
       d="m 474.9,362.9 -6,0 0,-6"
       inkscape:connector-curvature="0"
       style="fill:none;stroke:#000000;stroke-miterlimit:10" /><path
       id="XMLID_251_"
       class="st15"
       d="m 468.9,344.4 0,-93.2"
       inkscape:connector-curvature="0"
       style="fill:none;stroke:#000000;stroke-miterlimit:10;stroke-dasharray:12.4345, 12.4345" /><path
       id="XMLID_250_"
       class="st0"
       d="m 468.9,244.9 0,-6 6,0"
       inkscape:connector-curvature="0"
       style="fill:none;stroke:#000000;stroke-miterlimit:10" /><path
       id="XMLID_248_"
       class="st14"
       d="m 486.5,238.9 86.8,0"
       inkscape:connector-curvature="0"
       style="fill:none;stroke:#000000;stroke-miterlimit:10;stroke-dasharray:11.5782, 11.5782" /><path
       id="XMLID_238_"
       class="st0"
       d="m 579.1,238.9 6,0 0,6"
       inkscape:connector-curvature="0"
       style="fill:none;stroke:#000000;stroke-miterlimit:10" /><path
       id="XMLID_237_"
       class="st15"
       d="m 585.1,257.4 0,93.2"
       inkscape:connector-curvature="0"
       style="fill:none;stroke:#000000;stroke-miterlimit:10;stroke-dasharray:12.4345, 12.4345" /></g><path
     style="fill:#ffffff"
     inkscape:connector-curvature="0"
     d="m 481.9,227.7 94.3,0 0,25.2 -94.3,0 0,-25.2 z"
     class="st3"
     id="XMLID_90_" /><circle
     id="XMLID_45_"
     class="st6"
     cx="503.10001"
     cy="285.70001"
     r="20"
     style="fill:#dfe6eb" /><g
     id="XMLID_178_"><g
       id="XMLID_177_"><path
         id="XMLID_174_"
         class="st16"
         d="m 488.1,284.7 1,0 0,11.4 -1,0 0,-11.4 z"
         inkscape:connector-curvature="0"
         style="fill:#00b39f" /><path
         id="XMLID_176_"
         class="st17"
         d="m 488.1,279.9 1,0 0,4.8 -1,0 0,-4.8 z"
         inkscape:connector-curvature="0"
         style="fill:#86d0c8" /></g><g
       id="XMLID_179_"><path
         id="XMLID_181_"
         class="st16"
         d="m 489.8,281.5 1,0 0,14.6 -1,0 0,-14.6 z"
         inkscape:connector-curvature="0"
         style="fill:#00b39f" /><path
         id="XMLID_180_"
         class="st17"
         d="m 489.8,275.4 1,0 0,6.1 -1,0 0,-6.1 z"
         inkscape:connector-curvature="0"
         style="fill:#86d0c8" /></g><g
       id="XMLID_182_"><path
         id="XMLID_184_"
         class="st16"
         d="m 491.5,282.7 1,0 0,13.3 -1,0 0,-13.3 z"
         inkscape:connector-curvature="0"
         style="fill:#00b39f" /><path
         id="XMLID_183_"
         class="st17"
         d="m 491.5,277.2 1,0 0,5.6 -1,0 0,-5.6 z"
         inkscape:connector-curvature="0"
         style="fill:#86d0c8" /></g><g
       id="XMLID_185_"><path
         id="XMLID_187_"
         class="st16"
         d="m 493.2,283.6 1,0 0,12.4 -1,0 0,-12.4 z"
         inkscape:connector-curvature="0"
         style="fill:#00b39f" /><path
         id="XMLID_186_"
         class="st17"
         d="m 493.2,278.4 1,0 0,5.2 -1,0 0,-5.2 z"
         inkscape:connector-curvature="0"
         style="fill:#86d0c8" /></g><g
       id="XMLID_188_"><path
         id="XMLID_190_"
         class="st16"
         d="m 494.9,284.2 1,0 0,11.8 -1,0 0,-11.8 z"
         inkscape:connector-curvature="0"
         style="fill:#00b39f" /><path
         id="XMLID_189_"
         class="st17"
         d="m 494.9,279.3 1,0 0,5 -1,0 0,-5 z"
         inkscape:connector-curvature="0"
         style="fill:#86d0c8" /></g><g
       id="XMLID_191_"><path
         id="XMLID_193_"
         class="st16"
         d="m 496.6,283.6 1,0 0,12.4 -1,0 0,-12.4 z"
         inkscape:connector-curvature="0"
         style="fill:#00b39f" /><path
         id="XMLID_192_"
         class="st17"
         d="m 496.6,278.4 1,0 0,5.2 -1,0 0,-5.2 z"
         inkscape:connector-curvature="0"
         style="fill:#86d0c8" /></g><g
       id="XMLID_194_"><path
         id="XMLID_196_"
         class="st16"
         d="m 498.4,283.1 1,0 0,12.9 -1,0 0,-12.9 z"
         inkscape:connector-curvature="0"
         style="fill:#00b39f" /><path
         id="XMLID_195_"
         class="st17"
         d="m 498.4,277.7 1,0 0,5.4 -1,0 0,-5.4 z"
         inkscape:connector-curvature="0"
         style="fill:#86d0c8" /></g><g
       id="XMLID_197_"><path
         id="XMLID_199_"
         class="st16"
         d="m 500.1,285 1,0 0,11 -1,0 0,-11 z"
         inkscape:connector-curvature="0"
         style="fill:#00b39f" /><path
         id="XMLID_198_"
         class="st17"
         d="m 500.1,280.4 1,0 0,4.6 -1,0 0,-4.6 z"
         inkscape:connector-curvature="0"
         style="fill:#86d0c8" /></g><g
       id="XMLID_200_"><path
         id="XMLID_202_"
         class="st16"
         d="m 501.8,286 1,0 0,10.1 -1,0 0,-10.1 z"
         inkscape:connector-curvature="0"
         style="fill:#00b39f" /><path
         id="XMLID_201_"
         class="st17"
         d="m 501.8,281.7 1,0 0,4.2 -1,0 0,-4.2 z"
         inkscape:connector-curvature="0"
         style="fill:#86d0c8" /></g><g
       id="XMLID_203_"><path
         id="XMLID_205_"
         class="st16"
         d="m 503.5,286.9 1,0 0,9.1 -1,0 0,-9.1 z"
         inkscape:connector-curvature="0"
         style="fill:#00b39f" /><path
         id="XMLID_204_"
         class="st17"
         d="m 503.5,283.1 1,0 0,3.8 -1,0 0,-3.8 z"
         inkscape:connector-curvature="0"
         style="fill:#86d0c8" /></g><g
       id="XMLID_206_"><path
         id="XMLID_208_"
         class="st16"
         d="m 505.2,286.4 1,0 0,9.7 -1,0 0,-9.7 z"
         inkscape:connector-curvature="0"
         style="fill:#00b39f" /><path
         id="XMLID_207_"
         class="st17"
         d="m 505.2,282.3 1,0 0,4.1 -1,0 0,-4.1 z"
         inkscape:connector-curvature="0"
         style="fill:#86d0c8" /></g><g
       id="XMLID_209_"><path
         id="XMLID_211_"
         class="st16"
         d="m 506.9,285.5 1,0 0,10.6 -1,0 0,-10.6 z"
         inkscape:connector-curvature="0"
         style="fill:#00b39f" /><path
         id="XMLID_210_"
         class="st17"
         d="m 506.9,281 1,0 0,4.4 -1,0 0,-4.4 z"
         inkscape:connector-curvature="0"
         style="fill:#86d0c8" /></g><g
       id="XMLID_212_"><path
         id="XMLID_214_"
         class="st16"
         d="m 508.6,284.7 1,0 0,11.4 -1,0 0,-11.4 z"
         inkscape:connector-curvature="0"
         style="fill:#00b39f" /><path
         id="XMLID_213_"
         class="st17"
         d="m 508.6,279.9 1,0 0,4.8 -1,0 0,-4.8 z"
         inkscape:connector-curvature="0"
         style="fill:#86d0c8" /></g><g
       id="XMLID_215_"><path
         id="XMLID_217_"
         class="st16"
         d="m 510.3,285.5 1,0 0,10.6 -1,0 0,-10.6 z"
         inkscape:connector-curvature="0"
         style="fill:#00b39f" /><path
         id="XMLID_216_"
         class="st17"
         d="m 510.3,281 1,0 0,4.4 -1,0 0,-4.4 z"
         inkscape:connector-curvature="0"
         style="fill:#86d0c8" /></g><g
       id="XMLID_218_"><path
         id="XMLID_220_"
         class="st16"
         d="m 512,284.2 1,0 0,11.8 -1,0 0,-11.8 z"
         inkscape:connector-curvature="0"
         style="fill:#00b39f" /><path
         id="XMLID_219_"
         class="st17"
         d="m 512,279.3 1,0 0,5 -1,0 0,-5 z"
         inkscape:connector-curvature="0"
         style="fill:#86d0c8" /></g><g
       id="XMLID_221_"><path
         id="XMLID_223_"
         class="st16"
         d="m 513.7,283.6 1,0 0,12.4 -1,0 0,-12.4 z"
         inkscape:connector-curvature="0"
         style="fill:#00b39f" /><path
         id="XMLID_222_"
         class="st17"
         d="m 513.7,278.4 1,0 0,5.2 -1,0 0,-5.2 z"
         inkscape:connector-curvature="0"
         style="fill:#86d0c8" /></g><g
       id="XMLID_224_"><path
         id="XMLID_226_"
         class="st16"
         d="m 515.4,282.7 1,0 0,13.3 -1,0 0,-13.3 z"
         inkscape:connector-curvature="0"
         style="fill:#00b39f" /><path
         id="XMLID_225_"
         class="st17"
         d="m 515.4,277.2 1,0 0,5.6 -1,0 0,-5.6 z"
         inkscape:connector-curvature="0"
         style="fill:#86d0c8" /></g><g
       id="XMLID_227_"><path
         id="XMLID_229_"
         class="st16"
         d="m 517.1,281.5 1,0 0,14.6 -1,0 0,-14.6 z"
         inkscape:connector-curvature="0"
         style="fill:#00b39f" /><path
         id="XMLID_228_"
         class="st17"
         d="m 517.1,275.4 1,0 0,6.1 -1,0 0,-6.1 z"
         inkscape:connector-curvature="0"
         style="fill:#86d0c8" /></g></g><circle
     id="XMLID_60_"
     class="st6"
     cx="553.59998"
     cy="285.39999"
     r="20"
     style="fill:#dfe6eb" /><g
     id="XMLID_61_"><path
       id="XMLID_62_"
       class="st18"
       d="m 538.9,276.7 29.4,0 0,17.5 -29.4,0 0,-17.5 z"
       inkscape:connector-curvature="0"
       style="fill:#ffffff;stroke:#394b54;stroke-miterlimit:10" /><g
       id="XMLID_63_"><ellipse
         id="XMLID_159_"
         class="st17"
         cx="546.5"
         cy="285.20001"
         rx="6.1999998"
         ry="6.0999999"
         style="fill:#86d0c8" /><path
         id="XMLID_173_"
         class="st19"
         d="m 546.5,285.4 2.4,-5.8 c 1.3,0.6 2.4,1.6 3.1,2.8 l -5.5,3 z"
         inkscape:connector-curvature="0"
         style="fill:#eec11b" /><path
         id="XMLID_333_"
         class="st20"
         d="m 546.5,285.4 5.5,-2.9 c 0.9,1.3 0.9,3.8 0.1,5.3 l -5.6,-2.4 0,0 z"
         inkscape:connector-curvature="0"
         style="fill:#f47737" /><path
         id="XMLID_64_"
         class="st21"
         d="m 546.6,285.4 -0.9,-6.2 c 1.4,0 1.8,0 3.2,0.5 l -2.3,5.7 z"
         inkscape:connector-curvature="0"
         style="fill:#8ec73f" /></g><g
       id="XMLID_65_"><path
         id="XMLID_74_"
         class="st22"
         d="m 554.3,280.8 11.9,0 0,0.7 -11.9,0 0,-0.7 z"
         inkscape:connector-curvature="0"
         style="fill:#152935" /><path
         id="XMLID_77_"
         class="st22"
         d="m 554.3,282.5 11.9,0 0,0.7 -11.9,0 0,-0.7 z"
         inkscape:connector-curvature="0"
         style="fill:#152935" /><path
         id="XMLID_91_"
         class="st22"
         d="m 554.3,284.3 11.9,0 0,0.7 -11.9,0 0,-0.7 z"
         inkscape:connector-curvature="0"
         style="fill:#152935" /><path
         id="XMLID_124_"
         class="st22"
         d="m 554.3,286.1 11.9,0 0,0.7 -11.9,0 0,-0.7 z"
         inkscape:connector-curvature="0"
         style="fill:#152935" /><path
         id="XMLID_125_"
         class="st22"
         d="m 554.3,287.8 11.9,0 0,0.7 -11.9,0 0,-0.7 z"
         inkscape:connector-curvature="0"
         style="fill:#152935" /><path
         id="XMLID_133_"
         class="st22"
         d="m 554.3,289.6 11.9,0 0,0.7 -11.9,0 0,-0.7 z"
         inkscape:connector-curvature="0"
         style="fill:#152935" /></g></g><circle
     id="XMLID_53_"
     class="st6"
     cx="119.9"
     cy="285.29999"
     r="20"
     style="fill:#dfe6eb" /><g
     id="XMLID_82_"><path
       id="XMLID_50_"
       class="st16"
       d="m 119.1,288.5 1.5,0 0,11.6 -1.5,0 0,-11.6 z"
       inkscape:connector-curvature="0"
       style="fill:#00b39f" /><circle
       id="XMLID_81_"
       class="st16"
       cx="119.9"
       cy="287.60001"
       r="2.9000001"
       style="fill:#00b39f" /><path
       id="XMLID_93_"
       class="st23"
       d="m 130.4,281.4 c -5.8,-5.8 -15.2,-5.8 -20.9,0"
       inkscape:connector-curvature="0"
       style="fill:none;stroke:#00b39f;stroke-miterlimit:10" /><path
       id="XMLID_95_"
       class="st23"
       d="m 133.2,280 c -7.4,-7.4 -19.3,-7.4 -26.6,0"
       inkscape:connector-curvature="0"
       style="fill:none;stroke:#00b39f;stroke-miterlimit:10" /><path
       id="XMLID_99_"
       class="st23"
       d="m 128.2,283.2 c -4.6,-4.6 -12,-4.6 -16.6,0"
       inkscape:connector-curvature="0"
       style="fill:none;stroke:#00b39f;stroke-miterlimit:10" /><path
       id="XMLID_100_"
       class="st23"
       d="m 126.5,285.1 c -3.7,-3.7 -9.6,-3.7 -13.3,0"
       inkscape:connector-curvature="0"
       style="fill:none;stroke:#00b39f;stroke-miterlimit:10" /></g><circle
     id="XMLID_68_"
     class="st6"
     cx="195.60001"
     cy="285.39999"
     r="20"
     style="fill:#dfe6eb" /><g
     id="XMLID_102_"><g
       id="XMLID_233_"><g
         id="XMLID_155_"><path
           id="XMLID_158_"
           class="st24"
           d="m 183.9,285.8 11.8,11.7"
           inkscape:connector-curvature="0"
           style="fill:none;stroke:#eec11b;stroke-miterlimit:10" /><g
           id="XMLID_156_"><path
             id="XMLID_157_"
             class="st19"
             d="m 193.8,298.5 3.9,1 -1,-3.8 -2.9,2.8 z"
             inkscape:connector-curvature="0"
             style="fill:#eec11b" /></g></g></g><g
       id="XMLID_234_"><g
         id="XMLID_146_"><path
           id="XMLID_152_"
           class="st24"
           d="m 183.9,286.4 11.8,-11.8"
           inkscape:connector-curvature="0"
           style="fill:none;stroke:#eec11b;stroke-miterlimit:10" /><g
           id="XMLID_150_"><path
             id="XMLID_151_"
             class="st19"
             d="m 196.7,276.4 1,-3.8 -3.9,1 2.9,2.8 z"
             inkscape:connector-curvature="0"
             style="fill:#eec11b" /></g></g></g><g
       id="XMLID_51_"><g
         id="XMLID_141_"><path
           id="XMLID_144_"
           class="st24"
           d="m 184.8,285.8 19.6,0"
           inkscape:connector-curvature="0"
           style="fill:none;stroke:#eec11b;stroke-miterlimit:10" /><g
           id="XMLID_142_"><path
             id="XMLID_143_"
             class="st19"
             d="m 203.8,287.8 3.5,-2 -3.5,-2.1 0,4.1 z"
             inkscape:connector-curvature="0"
             style="fill:#eec11b" /></g></g></g><g
       id="XMLID_83_"><g
         id="XMLID_135_"><path
           id="XMLID_139_"
           class="st24"
           d="M 184.8,285.4 200.2,279"
           inkscape:connector-curvature="0"
           style="fill:none;stroke:#eec11b;stroke-miterlimit:10" /><g
           id="XMLID_137_"><path
             id="XMLID_138_"
             class="st19"
             d="m 200.4,281 2.4,-3.1 -3.9,-0.5 1.5,3.6 z"
             inkscape:connector-curvature="0"
             style="fill:#eec11b" /></g></g></g><g
       id="XMLID_101_"><g
         id="XMLID_119_"><path
           id="XMLID_131_"
           class="st24"
           d="m 184.8,286.4 15.4,6.4"
           inkscape:connector-curvature="0"
           style="fill:none;stroke:#eec11b;stroke-miterlimit:10" /><g
           id="XMLID_129_"><path
             id="XMLID_130_"
             class="st19"
             d="m 198.9,294.4 3.9,-0.5 -2.4,-3.2 -1.5,3.7 z"
             inkscape:connector-curvature="0"
             style="fill:#eec11b" /></g></g></g></g><circle
     id="XMLID_76_"
     class="st6"
     cx="269.79999"
     cy="285.39999"
     r="20"
     style="fill:#dfe6eb" /><g
     id="XMLID_254_"><g
       id="XMLID_163_"><path
         id="XMLID_478_"
         class="st18"
         d="m 272.8,290.1 -13.2,0 0,-16.8 6.6,0 6.6,4.9 0,11.9 z"
         inkscape:connector-curvature="0"
         style="fill:#ffffff;stroke:#394b54;stroke-miterlimit:10" /><g
         id="XMLID_162_"><path
           id="XMLID_480_"
           class="st25"
           d="m 261.7,282.5 9.2,0 0,0.7 -9.2,0 0,-0.7 z"
           inkscape:connector-curvature="0"
           style="fill:#10212d" /><path
           id="XMLID_160_"
           class="st25"
           d="m 261.7,285.7 9.2,0 0,0.7 -9.2,0 0,-0.7 z"
           inkscape:connector-curvature="0"
           style="fill:#10212d" /><path
           id="XMLID_161_"
           class="st25"
           d="m 261.7,284.1 9.2,0 0,0.7 -9.2,0 0,-0.7 z"
           inkscape:connector-curvature="0"
           style="fill:#10212d" /></g><g
         id="XMLID_78_"><path
           id="XMLID_80_"
           class="st25"
           d="m 261.7,280.9 9.2,0 0,0.7 -9.2,0 0,-0.7 z"
           inkscape:connector-curvature="0"
           style="fill:#10212d" /><path
           id="XMLID_79_"
           class="st25"
           d="m 261.7,279.3 9.2,0 0,0.7 -9.2,0 0,-0.7 z"
           inkscape:connector-curvature="0"
           style="fill:#10212d" /></g><path
         id="XMLID_479_"
         class="st13"
         d="m 272.8,278 -6.6,0 0,-4.9 6.6,4.9 z"
         inkscape:connector-curvature="0"
         style="fill:#394b54" /></g><g
       id="XMLID_103_"><path
         id="XMLID_253_"
         class="st18"
         d="m 279.4,298.3 -13.2,0 0,-16.8 6.6,0 6.6,4.9 0,11.9 z"
         inkscape:connector-curvature="0"
         style="fill:#ffffff;stroke:#394b54;stroke-miterlimit:10" /><g
         id="XMLID_136_"><path
           id="XMLID_252_"
           class="st25"
           d="m 268.3,290.7 9.2,0 0,0.7 -9.2,0 0,-0.7 z"
           inkscape:connector-curvature="0"
           style="fill:#10212d" /><path
           id="XMLID_246_"
           class="st25"
           d="m 268.3,293.9 9.2,0 0,0.7 -9.2,0 0,-0.7 z"
           inkscape:connector-curvature="0"
           style="fill:#10212d" /><path
           id="XMLID_167_"
           class="st25"
           d="m 268.3,292.3 9.2,0 0,0.7 -9.2,0 0,-0.7 z"
           inkscape:connector-curvature="0"
           style="fill:#10212d" /></g><g
         id="XMLID_105_"><path
           id="XMLID_134_"
           class="st25"
           d="m 268.3,289.1 9.2,0 0,0.7 -9.2,0 0,-0.7 z"
           inkscape:connector-curvature="0"
           style="fill:#10212d" /><path
           id="XMLID_106_"
           class="st25"
           d="m 268.3,287.5 9.2,0 0,0.7 -9.2,0 0,-0.7 z"
           inkscape:connector-curvature="0"
           style="fill:#10212d" /></g><path
         id="XMLID_104_"
         class="st26"
         d="m 279.4,286.2 -6.6,0 0,-4.9 6.6,4.9 z"
         inkscape:connector-curvature="0"
         style="fill:#42535c" /></g></g><circle
     id="XMLID_92_"
     class="st6"
     cx="415.79999"
     cy="285.39999"
     r="20"
     style="fill:#dfe6eb" /><g
     id="XMLID_170_"><path
       id="XMLID_172_"
       class="st27"
       d="m 407.1,287.8 0,-0.2 c 1.4,-0.4 2.3,-1.6 2.3,-3.1 0,-1.8 -1.5,-3.2 -3.3,-3.2 -1.8,0 -3.3,1.5 -3.3,3.2 0,1.4 0.9,2.6 2.2,3 l 0,0.3 c -3.1,0 -4.2,2 -4.2,2 l 0,1.9 10.7,0 0,-1.9 c -0.2,0.1 -1.3,-2 -4.4,-2 z"
       inkscape:connector-curvature="0"
       style="fill:#5b6872" /><path
       id="XMLID_168_"
       class="st27"
       d="m 416.9,281.2 0,-0.2 c 1.4,-0.4 2.3,-1.6 2.3,-3.1 0,-1.8 -1.5,-3.2 -3.3,-3.2 -1.8,0 -3.3,1.5 -3.3,3.2 0,1.4 0.9,2.6 2.2,3 l 0,0.3 c -3.1,0 -4.2,2 -4.2,2 l 0,1.9 10.7,0 0,-1.9 c -0.2,0 -1.3,-2 -4.4,-2 z"
       inkscape:connector-curvature="0"
       style="fill:#5b6872" /><path
       id="XMLID_169_"
       class="st27"
       d="m 426.8,287.8 0,-0.2 c 1.4,-0.4 2.3,-1.6 2.3,-3.1 0,-1.8 -1.5,-3.2 -3.3,-3.2 -1.8,0 -3.3,1.5 -3.3,3.2 0,1.4 0.9,2.6 2.2,3 l 0,0.3 c -3.1,0 -4.2,2 -4.2,2 l 0,1.9 10.7,0 0,-1.9 c -0.2,0.1 -1.3,-2 -4.4,-2 z"
       inkscape:connector-curvature="0"
       style="fill:#5b6872" /></g><g
     id="XMLID_72_"><circle
       id="XMLID_55_"
       class="st6"
       cx="341.10001"
       cy="285.39999"
       r="20"
       style="fill:#dfe6eb" /></g><g
     id="XMLID_49_"><path
       id="XMLID_56_"
       class="st13"
       d="m 329.5,297.4 c -0.7,-0.6 -0.8,-1.7 -0.2,-2.4 l 12.6,-15.5 c 0.6,-0.7 1.7,-0.8 2.4,-0.2 0.7,0.6 0.8,1.7 0.2,2.4 l -12.6,15.5 c -0.6,0.7 -1.7,0.8 -2.4,0.2 z"
       inkscape:connector-curvature="0"
       style="fill:#394b54" /><circle
       id="XMLID_84_"
       class="st28"
       cx="343.5"
       cy="280.29999"
       r="7.5"
       style="fill:#87c3eb;stroke:#394b54;stroke-miterlimit:10" /><path
       id="XMLID_85_"
       class="st12"
       d="m 347.9,282 c 0.9,-1.7 0.3,-3.8 -1.4,-4.7"
       inkscape:connector-curvature="0"
       style="fill:none;stroke:#394b54;stroke-miterlimit:10" /></g><path
     style="fill:#ffffff"
     inkscape:connector-curvature="0"
     d="m 224.6,222.1 118.3,0 0,34.9 -118.3,0 0,-34.9 z"
     class="st3"
     id="XMLID_70_" /><path
     style="fill:#4278bd"
     inkscape:connector-curvature="0"
     d="m -121,152 202,0 0,23.3 -202,0 0,-23.3 z"
     class="st29"
     id="XMLID_271_" /><g
     id="XMLID_75_"><path
       id="XMLID_96_"
       class="st12"
       d="m 436.7,285.5 22.1,0"
       inkscape:connector-curvature="0"
       style="fill:none;stroke:#394b54;stroke-miterlimit:10" /><g
       id="XMLID_87_"><path
         id="XMLID_89_"
         class="st13"
         d="m 457.3,290.5 8.6,-5 -8.6,-5 0,10 z"
         inkscape:connector-curvature="0"
         style="fill:#394b54" /></g></g><g
     id="XMLID_264_"><path
       id="XMLID_267_"
       class="st12"
       d="m -47.2,285 134,0"
       inkscape:connector-curvature="0"
       style="fill:none;stroke:#394b54;stroke-miterlimit:10" /><g
       id="XMLID_265_"><path
         id="XMLID_266_"
         class="st13"
         d="m 85.4,290 8.6,-5 -8.6,-4.9 0,9.9 z"
         inkscape:connector-curvature="0"
         style="fill:#394b54" /></g></g><path
     style="fill:#ffffff;stroke:#1c3649;stroke-miterlimit:10"
     inkscape:connector-curvature="0"
     d="m 25.8,296.7 -47.2,0 c -1.8,0 -3.3,-1.5 -3.3,-3.3 l 0,-16.5 c 0,-1.8 1.5,-3.3 3.3,-3.3 l 47.2,0 c 1.8,0 3.3,1.5 3.3,3.3 l 0,16.5 c 0,1.8 -1.5,3.3 -3.3,3.3 z"
     class="st30"
     id="XMLID_38_" /><path
     style="fill:#ffffff"
     inkscape:connector-curvature="0"
     d="m -101.8,222 94.1,0 0,34.9 -94.1,0 0,-34.9 z"
     class="st3"
     id="XMLID_58_" /><text
     id="XMLID_309_"
     class="st31 st32"
     style="font-size:12.00000048px;font-family:Gulim;-inkscape-font-specification:'Gulim, Normal';font-weight:normal;font-style:normal;font-stretch:normal;font-variant:normal;text-anchor:start;text-align:start;writing-mode:lr;line-height:125%;"
     x="-92.459999"
     y="327.26099"
     sodipodi:linespacing="125%">컨테이너</text>
<text
     class="st31 st32"
     id="text254"
     style="font-size:12px;font-family:HelveticaNeueforIBM-Roman"
     x="87.081001"
     y="325.604">Lumberjack/</text>
<text
     class="st31 st32"
     id="text256"
     style="font-size:12px;font-family:HelveticaNeueforIBM-Roman"
     x="95.681"
     y="340.004">Logstash</text>
<text
     id="XMLID_307_"
     class="st31 st32"
     style="font-size:12px;font-family:HelveticaNeueforIBM-Roman"
     x="169.10201"
     y="325.604"
     sodipodi:linespacing="125%">Kafka <tspan
   style="-inkscape-font-specification:'Gulim, Normal';font-family:Gulim;font-weight:normal;font-style:normal;font-stretch:normal;font-variant:normal;font-size:12.00000048px;text-anchor:start;text-align:start;writing-mode:lr;line-height:125%"
   id="tspan4928">버스</tspan></text>
<text
     id="XMLID_306_"
     class="st31 st32"
     style="font-size:12px;font-family:HelveticaNeueforIBM-Roman"
     x="238.38901"
     y="325.604">LogStash</text>
<text
     id="XMLID_305_"
     class="st31 st32"
     style="font-size:12px;font-family:HelveticaNeueforIBM-Roman"
     x="301.43799"
     y="325.604">ElasticSearch</text>
<text
     id="XMLID_304_"
     class="st31 st32"
     style="font-size:12px;font-family:HelveticaNeueforIBM-Roman"
     x="482.27802"
     y="325.466">Grafana</text>
<text
     id="XMLID_303_"
     class="st31 st32"
     style="font-size:12px;font-family:HelveticaNeueforIBM-Roman"
     x="535.46301"
     y="325.465">Kibana</text>
<text
     id="XMLID_273_"
     class="st31 st32"
     style="font-style:normal;font-variant:normal;font-weight:normal;font-stretch:normal;font-size:11.55874729px;line-height:125%;font-family:Gulim;-inkscape-font-specification:'Gulim, Normal';text-align:start;writing-mode:lr-tb;text-anchor:start"
     x="499.08594"
     y="234.49036"
     sodipodi:linespacing="125%"
     transform="scale(0.96322884,1.0381749)">사용자 인터페이스</text>
<text
     class="st31 st32"
     id="text264"
     style="font-size:12.00000048px;font-family:Gulim;-inkscape-font-specification:'Gulim, Normal';font-weight:normal;font-style:normal;font-stretch:normal;font-variant:normal;text-anchor:start;text-align:start;writing-mode:lr;line-height:125%;"
     x="386.85199"
     y="325.604"
     sodipodi:linespacing="125%">멀티테넌트</text>
<text
     class="st31 st32"
     id="text266"
     style="font-size:12.00000048px;font-family:Gulim;-inkscape-font-specification:'Gulim, Normal';font-weight:normal;font-style:normal;font-stretch:normal;font-variant:normal;text-anchor:start;text-align:start;writing-mode:lr;line-height:125%;"
     x="400.85199"
     y="340.004"
     sodipodi:linespacing="125%">프록시</text>
<text
     id="XMLID_36_"
     class="st31 st33"
     style="font-size:14px;font-family:HelveticaNeueforIBM-Roman"
     x="468.94901"
     y="195.927">IBM Bluemix</text>
<text
     class="st31 st32"
     id="text269"
     style="font-style:normal;font-variant:normal;font-weight:normal;font-stretch:normal;font-size:12.00000095px;line-height:125%;font-family:Gulim;-inkscape-font-specification:'Gulim, Normal';text-align:start;writing-mode:lr-tb;text-anchor:start"
     x="267.09698"
     y="236.528"
     sodipodi:linespacing="125%">로깅 </text>
<text
     class="st31 st32"
     id="text271"
     style="font-size:12.00000048px;font-family:Gulim;-inkscape-font-specification:'Gulim, Normal';font-weight:normal;font-style:normal;font-stretch:normal;font-variant:normal;text-anchor:start;text-align:start;writing-mode:lr;line-height:125%;"
     x="243.597"
     y="250.92799"
     sodipodi:linespacing="125%">사설 네트워크</text>
<text
     id="XMLID_301_"
     class="st31 st33"
     style="font-size:13.09358215px;font-family:HelveticaNeueforIBM-Roman"
     x="-119.21728"
     y="183.24187"
     transform="scale(0.93525584,1.0692261)">IBM Bluemix Container Service</text>
<text
     id="XMLID_300_"
     class="st34"
     style="enable-background:new"
     x="75.160004"
     y="195.927"
     sodipodi:linespacing="125%"><tspan
       x="89.459999"
       y="195.927"
       class="st31 st33"
       id="tspan277"
       style="font-size:13.99999976px;font-family:Gulim;-inkscape-font-specification:'Gulim, Normal';font-weight:normal;font-style:normal;font-stretch:normal;font-variant:normal;text-anchor:start;text-align:start;writing-mode:lr;line-height:125%">로깅</tspan></text>
<text
     id="XMLID_269_"
     class="st31 st35"
     style="font-size:10px;font-family:HelveticaNeueforIBM-Roman"
     x="32.108002"
     y="303.55399"
     sodipodi:linespacing="125%">SSL <tspan
   style="-inkscape-font-specification:'Gulim, Normal';font-family:Gulim;font-weight:normal;font-style:normal;font-stretch:normal;font-variant:normal;font-size:10px;text-anchor:start;text-align:start;writing-mode:lr;line-height:125%"
   id="tspan4926">암호화</tspan></text>
<text
     class="st31 st32"
     id="text280"
     style="font-size:12.00000048px;font-family:Gulim;-inkscape-font-specification:'Gulim, Normal';font-weight:normal;font-style:normal;font-stretch:normal;font-variant:normal;text-anchor:start;text-align:start;writing-mode:lr;line-height:125%;"
     x="-84.501999"
     y="234.786"
     sodipodi:linespacing="125%">컨테이너</text>
<text
     class="st31 st32"
     id="text282"
     style="font-size:12.00000048px;font-family:Gulim;-inkscape-font-specification:'Gulim, Normal';font-weight:normal;font-style:normal;font-stretch:normal;font-variant:normal;text-anchor:start;text-align:start;writing-mode:lr;line-height:125%;"
     x="-94.902"
     y="249.186"
     sodipodi:linespacing="125%">사설 네트워크</text>
<text
     id="XMLID_153_"
     class="st31 st32"
     style="font-style:normal;font-variant:normal;font-weight:normal;font-stretch:normal;font-size:12.00000095px;line-height:125%;font-family:Gulim;-inkscape-font-specification:'Gulim, Normal';text-align:start;writing-mode:lr-tb;text-anchor:start"
     x="-15.459999"
     y="289.08099"
     sodipodi:linespacing="125%">크롤러</text>
</svg>
