<?xml version="1.0" encoding="utf-8"?>
<!-- Generator: Adobe Illustrator 19.2.1, SVG Export Plug-In . SVG Version: 6.00 Build 0)  -->
<svg version="1.1"
	 id="svg2" inkscape:export-filename="C:\FileNet\Work\Current\IDCMS1\CPS\CloudOE\containers\images\data_options.png" inkscape:export-xdpi="71.488312" inkscape:export-ydpi="71.488312" inkscape:version="0.48.5 r10040" sodipodi:docname="data_options.svg" xmlns:cc="http://creativecommons.org/ns#" xmlns:dc="http://purl.org/dc/elements/1.1/" xmlns:inkscape="http://www.inkscape.org/namespaces/inkscape" xmlns:rdf="http://www.w3.org/1999/02/22-rdf-syntax-ns#" xmlns:sodipodi="http://sodipodi.sourceforge.net/DTD/sodipodi-0.dtd" xmlns:svg="http://www.w3.org/2000/svg"
	 xmlns="http://www.w3.org/2000/svg" xmlns:xlink="http://www.w3.org/1999/xlink" x="0px" y="0px" width="1000px" height="1000px"
	 viewBox="0 0 1000 1000" style="enable-background:new 0 0 1000 1000;" xml:space="preserve">
<style type="text/css">
	.st0{fill:#FFFFFF;stroke:#87C3EB;stroke-width:2.126;stroke-linecap:round;stroke-linejoin:round;stroke-miterlimit:22.9256;}
	.st1{fill:#FFFFFF;stroke:#4278BD;stroke-width:2.126;stroke-linecap:round;stroke-linejoin:round;stroke-miterlimit:22.9256;}
	.st2{font-family:'HelvNeueBoldforIBM';}
	.st3{font-size:29.3306px;}
	.st4{fill:#87C3EB;stroke:#6AA4D9;stroke-width:1.0001;stroke-miterlimit:22.9256;}
	.st5{fill:#FFFFFF;stroke:#5B6872;stroke-width:1.0001;stroke-miterlimit:22.9256;}
	.st6{font-family:'HelvNeueRomanforIBM';}
	.st7{font-size:27.7872px;}
	.st8{fill:none;stroke:#000000;stroke-width:1.5;}
	.st9{fill:#5CC4B9;stroke:#00B39F;stroke-width:1.0001;stroke-miterlimit:22.9256;}
	.st10{enable-background:new    ;}
	.st11{fill:#D1D3D4;stroke:#D1D3D4;stroke-width:1.0001;stroke-miterlimit:22.9256;}
	.st12{fill:#DFE6EB;stroke:#5B6872;stroke-width:1.0001;stroke-miterlimit:22.9256;}
	.st13{font-size:28.366px;}
</style>
<title  id="title3323">Options for data and file storage</title>
<sodipodi:namedview  bordercolor="#666666" borderopacity="1" fit-margin-bottom="0" fit-margin-left="0" fit-margin-right="0" fit-margin-top="0" gridtolerance="10" guidetolerance="10" id="namedview47" inkscape:current-layer="layer2" inkscape:cx="186.03508" inkscape:cy="264.07533" inkscape:guide-bbox="true" inkscape:pageopacity="0" inkscape:pageshadow="2" inkscape:snap-global="false" inkscape:window-height="983" inkscape:window-maximized="1" inkscape:window-width="1920" inkscape:window-x="-9" inkscape:window-y="-9" inkscape:zoom="2.1" objecttolerance="10" pagecolor="#ffffff" showgrid="false" showguides="true">
	
		<inkscape:grid  empspacing="5" enabled="true" id="grid3372" originx="-15.79246px" originy="-17.165693px" snapvisiblegridlinesonly="true" type="xygrid" visible="true">
		</inkscape:grid>
</sodipodi:namedview>
<g id="layer1" transform="translate(259.17061,199.15266)" inkscape:groupmode="layer" inkscape:label="Graphics">
	<g id="Artwork-4" transform="translate(-191.1,1.1000031)">
	</g>
</g>
<g id="Artwork" transform="translate(259.17061,199.15266)">
</g>
<rect id="rect12-4-1" x="508" y="500" class="st0" width="472.5" height="486.5">
<title  id="title3371-5-5">Space</title>
</rect>
<rect id="rect12-4" x="16.6" y="500.9" class="st0" width="472.5" height="326.7">
<title  id="title3371-5">Space</title>
</rect>
<rect id="rect12-7" x="390.4" y="60.5" class="st0" width="556.3" height="352">
<title  id="title3371-4">Space</title>
</rect>
<rect id="rect12" x="50.4" y="61.5" class="st0" width="319.2" height="352">
<title  id="title3371">Space</title>
</rect>
<rect id="rect10-4-2-8" x="410.1" y="120.5" class="st1" width="516.7" height="270.8">
<title  id="title3217-8-1-5">Organization</title>
</rect>
<text transform="matrix(1 0 0 1 611.1678 39.2354)" class="st2 st3">Opção 2</text>
<rect id="rect10-4-2" x="68.7" y="126.6" class="st1" width="283" height="264.7">
<title  id="title3217-8-1">Organization</title>
</rect>
<path id="path16-4" inkscape:connector-curvature="0" class="st4" d="M121.1,190.8h177c9.1,0,16.7,9.7,16.7,21.4v127
	c0,11.7-7.4,21.4-16.7,21.4h-177c-9.1,0-16.7-9.7-16.7-21.4v-127C104.6,200.5,112,190.8,121.1,190.8L121.1,190.8z">
<title  id="title3219-5">File share</title>
</path>
<path id="path16-4-1" inkscape:connector-curvature="0" class="st4" d="M459.8,195.6H626c8.6,0,15.7,9.1,15.7,20.2v119.9
	c0,11.1-6.9,20.2-15.7,20.2H459.8c-8.6,0-15.7-9.1-15.7-20.2V215.9C444.3,204.8,451.2,195.6,459.8,195.6z">
<title  id="title3219-5-7">File share</title>
</path>
<g id="g3223-1-4" transform="translate(-288.41827,-228.01024)">
	<title  id="title3229-1-0">Files</title>
	<path id="path22-5-9" inkscape:connector-curvature="0" class="st5" d="M420.8,502.3h28.5c2.8,0,5.3,2.3,5.3,5.3v45.2
		c0,2.8-2.3,5.3-5.3,5.3h-28.5c-2.8,0-5.3-2.3-5.3-5.3v-45.2C415.4,504.8,418,502.3,420.8,502.3z"/>
	<path id="path24-2-4" inkscape:connector-curvature="0" class="st5" d="M462.7,502.3h28.5c2.8,0,5.3,2.3,5.3,5.3v45.2
		c0,2.8-2.3,5.3-5.3,5.3h-28.5c-2.8,0-5.3-2.3-5.3-5.3v-45.2C457.6,504.8,459.9,502.3,462.7,502.3z"/>
	<path id="path26-7-8" inkscape:connector-curvature="0" class="st5" d="M504.8,502.3h28.5c2.8,0,5.3,2.3,5.3,5.3v45.2
		c0,2.8-2.3,5.3-5.3,5.3h-28.5c-2.8,0-5.3-2.3-5.3-5.3v-45.2C499.5,504.8,501.8,502.3,504.8,502.3L504.8,502.3z"/>
	<path id="path28-6-8" inkscape:connector-curvature="0" class="st5" d="M546.7,502.3h28.5c2.8,0,5.3,2.3,5.3,5.3v45.2
		c0,2.8-2.3,5.3-5.3,5.3h-28.5c-2.8,0-5.3-2.3-5.3-5.3v-45.2C541.6,504.8,544,502.3,546.7,502.3z"/>
</g>
<g id="Text-2-2" transform="translate(-288.41826,-228.01024)">
	<text transform="matrix(1 0 0 1 470.5931 539.6353)" class="st6 st7">Dados</text>
</g>
<path id="path14485" inkscape:connector-curvature="0" sodipodi:nodetypes="cc" class="st8" d="M642.6,275.5l28.7-0.2"/>
<path id="path14-2-9" inkscape:connector-curvature="0" class="st9" d="M687.1,194h182.3c9.4,0,17.2,9.3,17.2,20.6v122.2
	c0,11.3-7.6,20.6-17.2,20.6H687.1c-9.4,0-17.2-9.3-17.2-20.6V214.7C670,203.4,677.6,194,687.1,194z"/>
<text id="text43-3-7" sodipodi:linespacing="125%" transform="matrix(1 0 0 1 731.2073 254.8838)" class="st10 st6 st3">Volume</text>
<g id="g3223-1-4-1" transform="translate(-42.812998,-227.59106)">
	<title  id="title3229-1-0-1">Files</title>
	<path id="path22-5-9-5" inkscape:connector-curvature="0" class="st5" d="M743.9,502.8h28.5c2.8,0,5.3,2.3,5.3,5.3v45.2
		c0,2.8-2.3,5.3-5.3,5.3h-28.5c-2.8,0-5.3-2.3-5.3-5.3v-45.2C738.6,505.4,741.1,502.8,743.9,502.8z"/>
	<path id="path24-2-4-2" inkscape:connector-curvature="0" class="st5" d="M785.8,502.8h28.5c2.8,0,5.3,2.3,5.3,5.3v45.2
		c0,2.8-2.3,5.3-5.3,5.3h-28.5c-2.8,0-5.3-2.3-5.3-5.3v-45.2C780.7,505.4,783,502.8,785.8,502.8z"/>
	<path id="path26-7-8-7" inkscape:connector-curvature="0" class="st5" d="M827.9,502.8h28.5c2.8,0,5.3,2.3,5.3,5.3v45.2
		c0,2.8-2.3,5.3-5.3,5.3h-28.5c-2.8,0-5.3-2.3-5.3-5.3v-45.2C822.6,505.4,824.9,502.8,827.9,502.8L827.9,502.8z"/>
	<path id="path28-6-8-6" inkscape:connector-curvature="0" class="st5" d="M869.9,502.8h28.5c2.8,0,5.3,2.3,5.3,5.3v45.2
		c0,2.8-2.3,5.3-5.3,5.3h-28.5c-2.8,0-5.3-2.3-5.3-5.3v-45.2C864.8,505.4,867.1,502.8,869.9,502.8z"/>
</g>
<g id="Text-2-2-1" transform="translate(-42.812988,-227.59106)">
	<text transform="matrix(1 0 0 1 793.7163 540.1868)" class="st6 st7">Dados</text>
</g>
<text id="text39-2-3" sodipodi:linespacing="125%" transform="matrix(1 0 0 1 147.8301 252.8037)" class="st10 st6 st3">Contêiner</text>
<text id="text39-2-3-2" sodipodi:linespacing="125%" transform="matrix(1 0 0 1 481.1382 254.5049)" class="st10 st6 st3">Contêiner</text>
<text transform="matrix(1 0 0 1 154.6461 40.5586)" class="st2 st3">Opção 1</text>
<rect id="rect10-4-2-8-6" x="54.7" y="556.5" class="st1" width="411.8" height="248.8">
<title  id="title3217-8-1-5-1">Organization</title>
</rect>
<text transform="matrix(1 0 0 1 195.1364 483.7236)" class="st2 st3">Opção 3</text>
<path id="path15239-3" inkscape:connector-curvature="0" sodipodi:nodetypes="cc" class="st8" d="M336.6,770.4l0.8,75.4"/>
<path id="path14-2-9-8" inkscape:connector-curvature="0" class="st9" d="M261.8,627.7H412c7.7,0,14.1,8.3,14.1,18.4v109.2
	c0,10.1-6.3,18.4-14.1,18.4H261.8c-7.7,0-14.1-8.3-14.1-18.4V646.1C247.7,636,253.9,627.7,261.8,627.7z"/>
<path id="path20-1-5-5" inkscape:connector-curvature="0" class="st11" d="M707.2,801.9H886c6.9,0,12.7,5.8,12.7,12.7v113.9
	c0,6.9-5.8,12.7-12.7,12.7H707.2c-6.9,0-12.7-5.8-12.7-12.7V814.6C694.5,807.7,700.3,801.9,707.2,801.9z">
<title  id="title3221-7-1-0">Volume</title>
</path>
<rect id="rect10-4-2-8-6-2" x="549.4" y="556.5" class="st1" width="399.1" height="409.2">
<title  id="title3217-8-1-5-1-8">Organization</title>
</rect>
<path id="path15239" inkscape:connector-curvature="0" sodipodi:nodetypes="cc" class="st8" d="M752.4,762.8l0.5,32.1"/>
<path id="path12-8" inkscape:connector-curvature="0" class="st12" d="M606.6,792.3h292c15,0,27.5,8,27.5,17.6v104.4
	c0,9.7-12.2,17.6-27.5,17.6h-292c-15,0-27.5-8-27.5-17.6V809.9C579.1,800.3,591.6,792.3,606.6,792.3z"/>
<text transform="matrix(1 0 0 1 686.9216 480.8652)" class="st2 st3">Opção 4</text>
<path id="path16-4-1-9-0" inkscape:connector-curvature="0" class="st4" d="M608.8,629.8h287.6c14.8,0,27.1,7.8,27.1,17.2v102
	c0,9.4-12,17.2-27.1,17.2H608.8c-14.8,0-27.1-7.8-27.1-17.2V647C582,637.6,594,629.8,608.8,629.8z">
<title  id="title3219-5-7-2-2">File share</title>
</path>
<text id="text39-2-3-2-3-3" sodipodi:linespacing="125%" transform="matrix(1 0 0 1 690.8553 677.3906)" class="st10 st6 st3">Contêiner</text>
<g id="g3223-1-4-1-4-8-4" transform="translate(-54.577537,22.76856)">
	<title  id="title3229-1-0-1-3-7-4">Files</title>
	<path id="path22-5-9-5-1-4-6" inkscape:connector-curvature="0" class="st5" d="M728.4,832.2h28.5c2.8,0,5.3,2.3,5.3,5.3v45.2
		c0,2.8-2.3,5.3-5.3,5.3h-28.5c-2.8,0-5.3-2.3-5.3-5.3v-45.2C723.1,834.8,725.6,832.2,728.4,832.2z"/>
	<path id="path24-2-4-2-2-2-0" inkscape:connector-curvature="0" class="st5" d="M770.3,832.2h28.5c2.8,0,5.3,2.3,5.3,5.3v45.2
		c0,2.8-2.3,5.3-5.3,5.3h-28.5c-2.8,0-5.3-2.3-5.3-5.3v-45.2C765.2,834.8,767.5,832.2,770.3,832.2z"/>
	<path id="path26-7-8-7-3-7-6" inkscape:connector-curvature="0" class="st5" d="M812.5,832.2h28.5c2.8,0,5.3,2.3,5.3,5.3v45.2
		c0,2.8-2.3,5.3-5.3,5.3h-28.5c-2.8,0-5.3-2.3-5.3-5.3v-45.2C807.1,834.8,809.5,832.2,812.5,832.2L812.5,832.2z"/>
	<path id="path28-6-8-6-3-7-6" inkscape:connector-curvature="0" class="st5" d="M854.4,832.2h28.5c2.8,0,5.3,2.3,5.3,5.3v45.2
		c0,2.8-2.3,5.3-5.3,5.3h-28.5c-2.8,0-5.3-2.3-5.3-5.3v-45.2C849.3,834.8,851.6,832.2,854.4,832.2z"/>
</g>
<g id="Text-2-2-1-4-9-1" transform="translate(-54.577527,22.76856)">
	<text transform="matrix(1 0 0 1 778.2386 869.5645)" class="st6 st7">Dados</text>
</g>
<text id="text43-3-7-5-6-9" sodipodi:linespacing="125%" transform="matrix(1 0 0 1 588.9916 839.1143)" class="st10 st6 st3">Serviço de banco de dados do Bluemix</text>
<g id="flowRoot3665" transform="translate(-259.17061,-14.15714)">
</g>
<text transform="matrix(1 0 0 1 64.2158 101.9092)" class="st6 st13">Organização</text>
<text transform="matrix(1 0 0 1 91.4287 164.7139)" class="st6 st13">Espaço</text>
<text transform="matrix(1 0 0 1 414.1338 100.873)" class="st6 st13">Organização</text>
<text transform="matrix(1 0 0 1 441.3457 164.7139)" class="st6 st13">Espaço</text>
<text transform="matrix(1 0 0 1 30.4023 536.8711)" class="st6 st13">Organização</text>
<text transform="matrix(1 0 0 1 71.5088 594.3828)" class="st6 st13">Espaço</text>
<text transform="matrix(1 0 0 1 522.9678 538.1943)" class="st6 st13">Organização</text>
<text transform="matrix(1 0 0 1 581.4961 594.3828)" class="st6 st13">Espaço</text>
<text id="text43-3-7-5" sodipodi:linespacing="125%" transform="matrix(1 0 0 1 289.8153 675.4492)" class="st10 st6 st3">Volume</text>
<path id="path22-5-9-5-1" inkscape:connector-curvature="0" class="st5" d="M281.6,688.7h110.6c10.8,0,20.7,2.3,20.7,5.3v45.2
	c0,2.8-9,5.3-20.7,5.3H281.6c-10.8,0-20.7-2.3-20.7-5.3V694C260.9,691.2,270.8,688.7,281.6,688.7z"/>
<g id="Text-2-2-1-4" transform="translate(-229.30839,-49.043959)">
	<text transform="matrix(1 0 0 1 506.0273 775.0869)" class="st6 st7">Arquivo de configuração</text>
</g>
<path id="path14485-9-1" inkscape:connector-curvature="0" sodipodi:nodetypes="cc" class="st8" d="M233.3,700.4l13.5,0.4"/>
<path id="path16-4-1-9" inkscape:connector-curvature="0" class="st4" d="M91.5,626.1H223c6.8,0,12.4,8.3,12.4,18.4v109.2
	c0,10.1-5.5,18.4-12.4,18.4H91.5c-6.8,0-12.4-8.3-12.4-18.4V644.5C79.2,634.4,84.7,626.1,91.5,626.1L91.5,626.1z">
<title  id="title3219-5-7-2">File share</title>
</path>
<text id="text39-2-3-2-3" sodipodi:linespacing="125%" transform="matrix(1 0 0 1 95.4689 675.4209)" class="st10 st6 st3">Contêiner</text>
<path id="path20-1-5-7" inkscape:connector-curvature="0" class="st12" d="M102.4,841.6h306.8c11.9,0,21.9,5.8,21.9,12.7v113.9
	c0,6.9-9.9,12.7-21.9,12.7H102.4c-11.9,0-21.9-5.8-21.9-12.7V854.3C80.6,847.4,90.5,841.6,102.4,841.6z">
<title  id="title3221-7-1-9">Volume</title>
</path>
<text id="text43-3-7-5-6" sodipodi:linespacing="125%" transform="matrix(1 0 0 1 111.9956 885.188)" class="st10 st6 st3">Banco de dados no local</text>
<g id="g3223-1-4-1-4-8-4_1_" transform="translate(-54.577537,22.76856)">
	<title  id="title3229-1-0-1-3-7-4">Files</title>
	<path id="path22-5-9-5-1-4-6_1_" inkscape:connector-curvature="0" class="st5" d="M233.2,881.5h28.5c2.8,0,5.3,2.3,5.3,5.3V932
		c0,2.8-2.3,5.3-5.3,5.3h-28.5c-2.8,0-5.3-2.3-5.3-5.3v-45.2C227.8,884.1,230.4,881.5,233.2,881.5z"/>
	<path id="path24-2-4-2-2-2-0_1_" inkscape:connector-curvature="0" class="st5" d="M275.1,881.5h28.5c2.8,0,5.3,2.3,5.3,5.3V932
		c0,2.8-2.3,5.3-5.3,5.3h-28.5c-2.8,0-5.3-2.3-5.3-5.3v-45.2C270,884.1,272.3,881.5,275.1,881.5z"/>
	<path id="path26-7-8-7-3-7-6_1_" inkscape:connector-curvature="0" class="st5" d="M317.2,881.5h28.5c2.8,0,5.3,2.3,5.3,5.3V932
		c0,2.8-2.3,5.3-5.3,5.3h-28.5c-2.8,0-5.3-2.3-5.3-5.3v-45.2C311.9,884.1,314.2,881.5,317.2,881.5L317.2,881.5z"/>
	<path id="path28-6-8-6-3-7-6_1_" inkscape:connector-curvature="0" class="st5" d="M359.1,881.5h28.5c2.8,0,5.3,2.3,5.3,5.3V932
		c0,2.8-2.3,5.3-5.3,5.3h-28.5c-2.8,0-5.3-2.3-5.3-5.3v-45.2C354,884.1,356.4,881.5,359.1,881.5z"/>
</g>
<text transform="matrix(1 0 0 1 228.4228 941.6695)" class="st6 st7">Dados</text>
</svg>
